<svg width="57" height="32" viewBox="0 0 57 32" fill="none" xmlns="http://www.w3.org/2000/svg">
<g clip-path="url(#clip0_449_1026)">
<path d="M37.6592 21.8678L39.0937 21.8693L39.0907 29.4831L37.6096 29.4896L37.6088 24.0843L37.6075 22.663C37.6073 22.4406 37.5839 22.1866 37.6118 21.967C37.6164 21.9299 37.6375 21.8972 37.6592 21.8678Z" fill="white"/>
<path d="M38.9821 5.7356L40.4065 5.7368C40.4741 5.82861 40.3982 12.5936 40.4144 13.3511L38.932 13.3574L38.9314 7.54981C38.9316 7.27846 38.8653 5.89127 38.9821 5.7356Z" fill="white"/>
<path d="M50.9959 21.8671L51.6817 21.8679L51.6812 23.3879C50.7473 23.4151 50.0107 23.3641 49.3005 24.0671C49.0113 24.3535 48.815 24.7151 48.7193 25.1095C48.5719 25.717 48.6396 26.4141 48.6401 27.0393L48.6347 29.4827L47.7881 29.4857L47.1168 29.4936L47.1176 26.8017C47.1176 26.1766 47.0606 25.4716 47.2072 24.862C47.3737 24.1699 47.6723 23.6103 48.1424 23.0757C48.8765 22.2406 49.9257 21.9313 50.9959 21.8671Z" fill="white"/>
<path d="M15.1612 21.8671L15.847 21.8679L15.846 23.388C14.9182 23.4017 14.1678 23.3727 13.4658 24.0671C13.1764 24.3534 12.9807 24.7151 12.8847 25.1095C12.7374 25.7158 12.8049 26.4113 12.8053 27.0353L12.8 29.4827L12.0085 29.486L11.2813 29.4942L11.283 27.0318C11.2827 26.1202 11.2199 25.199 11.5291 24.3251C11.695 23.8566 12.0013 23.417 12.3305 23.049C13.0612 22.232 14.1067 21.9309 15.1612 21.8671Z" fill="white"/>
<path d="M41.9151 5.70242C42.0549 5.70116 42.5387 5.67638 42.6253 5.74316C42.7635 5.84974 43.0332 6.47515 43.1298 6.66295L44.5383 9.38135C44.6318 9.55399 44.734 9.84556 44.8849 9.96417C45.0237 9.89576 45.221 9.39531 45.3051 9.23181L46.3831 7.14054L46.8202 6.28473C46.9207 6.08854 47.0125 5.88282 47.1546 5.71269L48.8268 5.7123L47.4225 8.42521L44.8808 13.3234L40.9358 5.71546L41.9151 5.70242Z" fill="white"/>
<path d="M32.4524 18.8103L33.9352 18.8245L33.9379 23.3768L36.995 23.4072L36.9858 24.8911C36.9074 24.9509 36.4317 24.916 36.3133 24.9162L33.9516 24.9234C33.9364 25.5213 33.9208 26.123 34.1833 26.6777C34.4477 27.2364 34.9251 27.6182 35.4957 27.8303C35.8232 27.9495 36.1909 27.9599 36.5357 27.9622C36.6605 27.963 36.8734 27.9352 36.9866 27.9779L36.9831 29.4851L36.3574 29.4765C35.2811 29.4385 34.2531 29.1093 33.5022 28.2958C33.035 27.7897 32.702 27.2001 32.5435 26.5272C32.4185 25.9968 32.4399 25.4219 32.441 24.8805L32.4398 23.0744L32.4524 18.8103Z" fill="white"/>
<path d="M33.7747 2.6781L35.2575 2.69226L35.2602 7.24465L38.3174 7.27503L38.3081 8.75892C38.2482 8.80457 35.6262 8.80361 35.2742 8.79152C35.2636 9.36964 35.2374 9.95364 35.4813 10.4933C35.7477 11.083 36.2195 11.4718 36.818 11.6981C37.2689 11.8676 37.8161 11.8331 38.2914 11.831C38.3326 11.8982 38.311 12.0802 38.3114 12.1632L38.3055 13.353L37.6501 13.3431C36.5978 13.303 35.5684 12.9702 34.836 12.1729C34.3273 11.6191 34.0163 11.0363 33.8499 10.3042C33.7432 9.83469 33.7628 9.31616 33.763 8.83784L33.7623 7.06346L33.7747 2.6781Z" fill="white"/>
<path d="M9.96425 18.8236L10.6902 18.8218L10.6875 20.344C9.80211 20.3455 9.02077 20.3383 8.33955 20.9861C7.6405 21.6509 7.66459 22.4871 7.63578 23.3789L10.6972 23.4086L10.686 24.9089L7.65319 24.9187L7.64823 27.157C7.64856 27.4676 7.69774 29.3342 7.62665 29.4829L6.1427 29.4917L6.13967 29.459C6.11568 29.0706 6.13512 28.6672 6.13509 28.2772L6.13568 26.0181L6.13688 23.7725C6.13581 23.1522 6.09203 22.4728 6.22418 21.8657C6.38242 21.1387 6.69024 20.5782 7.17626 20.0206C7.88622 19.206 8.92383 18.8933 9.96425 18.8236Z" fill="white"/>
<path d="M27.9967 21.8966C28.6796 21.8557 29.4174 22.0504 30.0122 22.3806C30.9763 22.9159 31.5737 23.7548 31.8641 24.8035C31.9343 25.0572 31.9524 25.3464 31.9652 25.6085C31.9856 26.0261 32.0226 29.3544 31.9412 29.4978L30.4594 29.4972L30.462 26.8262C30.4619 26.3441 30.5041 25.8116 30.4245 25.3376C30.365 24.9828 30.2491 24.6498 30.034 24.3575C29.6111 23.7828 29.0837 23.535 28.3926 23.4308L28.0418 23.4275C27.4009 23.4611 26.8776 23.7029 26.4475 24.1825C26.1656 24.4968 26.0156 24.8533 25.9328 25.2625C25.8692 25.5764 25.8831 25.9117 25.8821 26.2312L25.8785 27.6309C25.8774 28.2476 25.8378 28.8839 25.8692 29.4981L24.3711 29.4994L24.3736 26.7433C24.3737 26.1368 24.3347 25.4736 24.4643 24.8781C24.5939 24.2821 24.8604 23.7463 25.2422 23.2728C25.9555 22.3884 26.8939 22.0149 27.9967 21.8966Z" fill="white"/>
<path d="M43.1048 21.93C43.6634 21.8837 44.2446 21.9723 44.7666 22.179C45.3473 22.4089 45.7982 22.7633 46.2451 23.1908C46.3399 23.2815 46.4883 23.3931 46.5399 23.5142C46.5356 23.5394 46.5346 23.5809 46.5249 23.6034C46.4609 23.7525 42.8235 27.3439 42.3883 27.747L42.5182 27.8088C43.3905 28.2012 44.2992 27.9482 44.9842 27.3333C45.1455 27.1884 45.3298 26.9325 45.5295 26.8568C45.6399 26.8683 45.7259 26.995 45.802 27.0693L46.5009 27.7587C46.5364 27.7946 46.5367 27.8196 46.5486 27.8678L46.4679 27.988C45.9105 28.6955 44.8845 29.3538 43.9879 29.4604C42.8746 29.5926 41.8517 29.3333 40.9746 28.6333C40.2503 28.0551 39.7481 27.1487 39.6457 26.2271C39.5386 25.2623 39.7337 24.1878 40.3579 23.4149C41.0902 22.5083 41.9507 22.0518 43.1048 21.93ZM43.1401 23.4505C42.4786 23.5158 42.0033 23.7624 41.5767 24.2851C41.2186 24.7239 41.052 25.3403 41.1139 25.9011C41.1458 26.1895 41.2158 26.4236 41.3499 26.6812L41.8435 26.1608C42.1314 25.872 44.2917 23.7861 44.3315 23.6451C43.9514 23.481 43.5545 23.4155 43.1401 23.4505Z" fill="white"/>
<path d="M52.7574 5.7977C53.227 5.75874 53.696 5.81507 54.146 5.95413C54.8278 6.16476 55.3536 6.53651 55.8638 7.02611C55.9713 7.12932 56.1212 7.24612 56.1905 7.37763C56.187 7.40395 56.1871 7.4475 56.1777 7.47103C56.1543 7.52941 56.0155 7.64811 55.9665 7.69792L55.2714 8.39873L52.0411 11.6146L52.1711 11.6765C53.0488 12.0716 53.9556 11.8118 54.6444 11.1952C54.8044 11.0519 54.9848 10.7993 55.1823 10.7247C55.2926 10.7358 55.3778 10.8615 55.4539 10.9356L56.1539 11.6257C56.1879 11.6621 56.1891 11.6878 56.201 11.7355L56.122 11.8558C55.9913 12.0237 55.804 12.1854 55.6438 12.326C55.082 12.8186 54.3828 13.2416 53.6259 13.3297C52.5113 13.4593 51.4974 13.1974 50.619 12.4936C49.9016 11.9188 49.3933 11.0057 49.2937 10.0905C49.1893 9.13052 49.388 8.04892 50.0107 7.28077C50.7433 6.37698 51.6058 5.91917 52.7574 5.7977ZM52.7928 7.31821C52.1301 7.38518 51.6563 7.62996 51.2295 8.15233C50.8714 8.59072 50.7065 9.19935 50.7642 9.75988C50.7943 10.0534 50.8654 10.2889 51.0027 10.5502L51.5212 10.0038C51.8126 9.71233 53.9443 7.65387 53.9843 7.51278C53.6045 7.34876 53.207 7.28313 52.7928 7.31821Z" fill="white"/>
<path d="M19.8218 21.9297C20.8352 21.8456 21.8136 22.1941 22.5891 22.8415C23.3373 23.466 23.7823 24.3706 23.8687 25.3329C23.9581 26.3292 23.683 27.3153 23.0361 28.0883C22.3831 28.8683 21.4887 29.3934 20.4681 29.4855C19.4596 29.5416 18.5193 29.3059 17.7255 28.6642C16.8996 27.9965 16.4375 27.0566 16.333 26.0101C16.2439 25.1189 16.5163 24.0929 17.0878 23.3961C17.8193 22.5042 18.6738 22.0429 19.8218 21.9297ZM19.9322 23.4507C19.2498 23.5186 18.7335 23.744 18.2914 24.2858C17.9292 24.7296 17.753 25.3551 17.8129 25.9234C17.8792 26.5512 18.1754 27.1062 18.6701 27.5001C19.1516 27.8837 19.7306 28.0108 20.3362 27.9717C21.0308 27.8661 21.5561 27.5824 21.9756 27.0125C22.2925 26.5815 22.4491 25.9447 22.3679 25.4148C22.2746 24.8068 21.9871 24.2426 21.48 23.8757C21.0519 23.566 20.4635 23.3756 19.9322 23.4507Z" fill="white"/>
<path d="M21.061 5.76351L21.4674 5.74756C22.4455 5.76278 23.4297 6.16787 24.1127 6.87413C24.6577 7.43775 25.0186 8.1156 25.1451 8.89199C25.2501 9.53578 25.2053 10.236 25.2061 10.8884L25.1925 13.3382C25.0383 13.4051 24.6092 13.3484 24.4206 13.3485L21.7846 13.3502C21.4594 13.3407 21.1236 13.34 20.8021 13.2875C20.1429 13.18 19.5586 12.8879 19.0334 12.4846C18.3289 11.9437 17.7888 11.0344 17.6736 10.1519C17.5371 9.10399 17.7376 8.09315 18.3905 7.24497C19.0703 6.36168 19.9663 5.90481 21.061 5.76351ZM21.1319 7.28491C20.4386 7.41111 19.9213 7.66702 19.5126 8.2587C19.1725 8.75104 19.0621 9.41773 19.1735 10C19.2848 10.5811 19.6334 11.1027 20.1252 11.4298C20.6121 11.7537 21.1173 11.8261 21.692 11.8286L23.7058 11.8227L23.7076 10.3527C23.7071 9.42535 23.7186 8.62446 23.0272 7.92325C22.6207 7.51118 22.0665 7.27412 21.4864 7.27286L21.1319 7.28491Z" fill="white"/>
<path d="M4.92892 5.76349C5.19526 5.73564 5.47261 5.73947 5.73787 5.77487C6.75325 5.91035 7.67245 6.41966 8.2974 7.23756C8.65428 7.70464 8.87367 8.20899 8.9938 8.78266C9.07851 9.18723 9.07056 9.62398 9.07202 10.0362L9.07375 11.5979C9.07341 12.1663 9.12192 12.792 9.04615 13.352L5.65479 13.3502C5.32885 13.3406 4.99215 13.34 4.67006 13.2875C4.01476 13.1807 3.43137 12.8903 2.90764 12.491C2.20344 11.9542 1.65569 11.0339 1.54166 10.1561C1.4011 9.07395 1.62354 8.05919 2.29793 7.1886C2.95617 6.33882 3.87961 5.89877 4.92892 5.76349ZM4.99864 7.28493C4.30616 7.41119 3.78239 7.67147 3.37439 8.26241C3.03395 8.75553 2.9281 9.41855 3.03846 9.99995C3.1481 10.5776 3.50343 11.0992 3.98801 11.4271C4.46858 11.7522 4.99071 11.8285 5.56025 11.8286L7.57407 11.8228L7.57558 10.2594C7.57501 9.78037 7.59609 9.27222 7.44828 8.81023C7.33965 8.47074 7.13008 8.15787 6.87933 7.90756C6.4667 7.49568 5.91044 7.27062 5.3278 7.27284L4.99864 7.28493Z" fill="white"/>
<path d="M15.6794 2.6825L17.1749 2.69219L17.1776 7.34047C17.1766 8.24788 17.2347 9.19555 17.1211 10.095C17.0773 10.4412 16.9689 10.8184 16.8125 11.1313C16.3628 12.0303 15.5998 12.806 14.628 13.1279C13.5663 13.4797 12.554 13.3672 11.5622 12.865C11.2508 12.6958 10.928 12.4616 10.6832 12.2059C9.98997 11.482 9.57181 10.5138 9.59253 9.50426C9.61341 8.48641 9.9945 7.50668 10.7456 6.80091C11.4014 6.18471 12.2039 5.84494 13.0952 5.75694C13.4674 5.72018 13.8484 5.73322 14.2221 5.73286L15.6711 5.74314L15.6794 2.6825ZM13.1132 7.28294C12.4401 7.40268 11.8992 7.65479 11.4953 8.22973C11.1318 8.7473 11.0366 9.41048 11.1494 10.0228C11.2542 10.592 11.6171 11.1072 12.0915 11.4299C12.5596 11.7482 13.1092 11.8545 13.6677 11.8027C14.3152 11.7139 14.835 11.3902 15.2273 10.8733C15.7134 10.2328 15.6729 9.45738 15.674 8.69596L15.6724 7.26712L13.1132 7.28294Z" fill="white"/>
<path d="M29.2215 5.79793L29.5517 5.78101C30.5478 5.7812 31.5373 6.23111 32.2297 6.93671C32.9088 7.62861 33.3155 8.579 33.2996 9.55535C33.2832 10.5706 32.9008 11.5642 32.1593 12.2739C31.6313 12.7791 30.9328 13.1892 30.2057 13.3159C29.7394 13.3971 29.2329 13.3786 28.7614 13.3802L27.2184 13.3855L27.2176 13.9255L27.2157 16.4219L25.7051 16.4206L25.7103 11.6108C25.711 10.7179 25.6265 9.73446 25.7872 8.85775C25.8907 8.29297 26.1417 7.68805 26.5058 7.24187C27.2248 6.36107 28.0958 5.91038 29.2215 5.79793ZM29.3397 7.31883C28.6695 7.38253 28.1533 7.61618 27.7172 8.14357C27.2043 8.764 27.2202 9.53643 27.22 10.2953L27.2178 11.8387L29.7361 11.8348C30.3596 11.756 30.9142 11.4905 31.3044 10.9853C31.6883 10.4882 31.8551 9.86706 31.7696 9.24337C31.688 8.64829 31.3614 8.10497 30.8828 7.74398C30.4777 7.43834 29.8738 7.24638 29.3655 7.31505L29.3397 7.31883Z" fill="white"/>
</g>
<defs>
<clipPath id="clip0_449_1026">
<rect width="56" height="28" fill="white" transform="translate(0.953613 2)"/>
</clipPath>
</defs>
</svg>
