<svg width="122" height="32" viewBox="0 0 122 32" fill="none" xmlns="http://www.w3.org/2000/svg">
<g clip-path="url(#clip0_756_1752)">
<path fill-rule="evenodd" clip-rule="evenodd" d="M12.5 3.5C19.4036 3.5 25 9.09644 25 16C25 18.6547 24.1724 21.1161 22.7612 23.1403C22.7507 23.1555 22.7392 23.1717 22.7269 23.1891C22.6306 23.3248 22.4425 23.3566 22.3069 23.2603C22.268 23.2327 22.2362 23.1962 22.2141 23.1539C20.7343 20.3143 18.5146 16.0549 15.555 10.3758C15.1805 9.6572 14.4375 9.20652 13.6271 9.20652H10.1352C10.0477 9.20652 9.96159 9.22762 9.88404 9.26804C9.61786 9.40675 9.51453 9.73498 9.65324 10.0012C13.4981 17.3789 16.3817 22.9122 18.3042 26.6011C18.3053 26.6032 18.3064 26.6053 18.3075 26.6075C18.4124 26.8088 18.3342 27.0569 18.133 27.1618L18.1283 27.1642C16.4368 28.0187 14.5246 28.5 12.5 28.5C10.5101 28.5 8.62873 28.035 6.95873 27.2078C6.74666 27.1027 6.65991 26.8456 6.76496 26.6336C6.76626 26.631 6.76758 26.6283 6.76896 26.6258L6.77122 26.6214C7.90921 24.4377 9.61618 21.1621 11.8921 16.7946L11.9103 16.7562C12.0206 16.4976 11.9148 16.1936 11.6613 16.0615C11.5838 16.0211 11.4976 16 11.4102 16H7.91823L7.84004 16.0014C7.06037 16.0294 6.35279 16.4739 5.99039 17.1693C4.59084 19.8547 3.54117 21.8688 2.84139 23.2115C2.76237 23.3631 2.57541 23.422 2.42379 23.343C2.3807 23.3205 2.3435 23.2882 2.31522 23.2487C2.30949 23.2407 2.30398 23.233 2.2987 23.2256C0.851015 21.1854 0 18.6921 0 16C0 9.09644 5.59644 3.5 12.5 3.5Z" fill="white"/>
<path d="M48.6543 23.3395H45.4773L44.5877 20.6689H38.6783L37.7887 23.3395H34.6328L39.822 8.50257H43.4439L48.6543 23.3395ZM41.6436 11.8727L39.6102 17.9346H43.6769L41.6436 11.8727ZM53.0705 23.3395H50.3382V7.8667H53.0705V23.3395ZM58.6727 23.3395H55.9404V7.8667H58.6727V23.3395ZM67.4309 12.445C68.5958 12.445 69.549 12.8265 70.2903 13.6107C71.0528 14.395 71.434 15.4547 71.434 16.8325V23.3395H68.7017V17.1716C68.7017 15.7515 67.8757 14.9884 66.6049 14.9884C65.1858 14.9884 64.275 15.8575 64.275 17.6167V23.3395H61.5427V12.7417H64.275V13.9287C64.9316 12.9325 65.9906 12.445 67.4309 12.445ZM83.1575 22.0254C82.0773 23.1064 80.7429 23.6363 79.1755 23.6363C77.6082 23.6363 76.2738 23.1064 75.1936 22.0254C74.1134 20.9444 73.5839 19.6091 73.5839 18.0406C73.5839 16.4721 74.1134 15.158 75.1936 14.077C76.2738 12.996 77.6082 12.445 79.1755 12.445C80.7429 12.445 82.0773 12.996 83.1575 14.077C84.2377 15.158 84.7884 16.4721 84.7884 18.0406C84.7884 19.6091 84.2377 20.9444 83.1575 22.0254ZM77.121 20.139C77.6717 20.6901 78.3495 20.9656 79.1755 20.9656C80.0016 20.9656 80.6793 20.6901 81.23 20.139C81.7807 19.5879 82.0561 18.8884 82.0561 18.0406C82.0561 17.1928 81.7807 16.4933 81.23 15.9422C80.6793 15.3912 80.0016 15.1156 79.1755 15.1156C78.3495 15.1156 77.6717 15.3912 77.121 15.9422C76.5915 16.4933 76.3161 17.1928 76.3161 18.0406C76.3161 18.8884 76.5915 19.5879 77.121 20.139ZM95.1139 13.9922V8.50257H97.8462V23.3395H95.1139V22.089C94.309 23.1276 93.1653 23.6363 91.6826 23.6363C90.2635 23.6363 89.0351 23.1064 88.0184 22.0254C87.0229 20.9444 86.5146 19.6091 86.5146 18.0406C86.5146 16.4721 87.0229 15.158 88.0184 14.077C89.0351 12.996 90.2635 12.445 91.6826 12.445C93.1653 12.445 94.309 12.9537 95.1139 13.9922ZM90.0729 20.2026C90.6448 20.7537 91.3437 21.0292 92.191 21.0292C93.0382 21.0292 93.7372 20.7537 94.2878 20.2026C94.8385 19.6303 95.1139 18.9096 95.1139 18.0406C95.1139 17.1716 94.8385 16.4509 94.2878 15.8999C93.7372 15.3276 93.0382 15.052 92.191 15.052C91.3437 15.052 90.6448 15.3276 90.0729 15.8999C89.5222 16.4509 89.2469 17.1716 89.2469 18.0406C89.2469 18.9096 89.5222 19.6303 90.0729 20.2026ZM111.01 19.164H103.025C103.385 20.4993 104.38 21.1564 106.011 21.1564C107.049 21.1564 107.854 20.796 108.384 20.0966L110.586 21.3683C109.548 22.8732 108.002 23.6363 105.969 23.6363C104.211 23.6363 102.813 23.1064 101.754 22.0466C100.695 20.9868 100.165 19.6515 100.165 18.0406C100.165 16.4509 100.695 15.1156 101.733 14.0558C102.771 12.9749 104.126 12.445 105.757 12.445C107.303 12.445 108.595 12.9749 109.591 14.0558C110.607 15.1368 111.116 16.4509 111.116 18.0406C111.116 18.4009 111.073 18.7613 111.01 19.164ZM102.982 17.0444H108.384C108.066 15.6031 107.007 14.9037 105.757 14.9037C104.296 14.9037 103.3 15.6879 102.982 17.0444ZM115.913 15.7515C115.913 16.3238 116.76 16.6417 117.841 16.9172C119.387 17.2352 121.399 17.977 121.378 20.245C121.378 21.3259 120.975 22.1738 120.149 22.7672C119.344 23.3395 118.328 23.6363 117.12 23.6363C114.939 23.6363 113.456 22.7884 112.673 21.114L115.045 19.7787C115.363 20.6901 116.04 21.1564 117.12 21.1564C118.095 21.1564 118.582 20.8596 118.582 20.245C118.582 19.6727 117.735 19.3547 116.655 19.0792C115.087 18.6765 113.117 18.0194 113.117 15.8151C113.117 14.7765 113.499 13.9499 114.261 13.3564C115.045 12.7417 115.998 12.445 117.142 12.445C118.857 12.445 120.34 13.2504 121.166 14.6917L118.836 15.9634C118.497 15.2428 117.925 14.8825 117.142 14.8825C116.443 14.8825 115.913 15.2216 115.913 15.7515Z" fill="white"/>
</g>
<defs>
<clipPath id="clip0_756_1752">
<rect width="122" height="25" fill="white" transform="translate(0 3.5)"/>
</clipPath>
</defs>
</svg>
