<svg width="81" height="32" viewBox="0 0 81 32" fill="none" xmlns="http://www.w3.org/2000/svg">
<g clip-path="url(#clip0_756_1699)">
<path d="M20.7308 18.3926C20.9509 17.6684 21.0707 16.9008 21.0707 16.1059C21.0707 16.0176 21.0674 15.9309 21.0641 15.8425C17.9069 14.0151 15.5262 10.1 14.5297 8.24212C13.9911 8.13291 13.4329 8.07666 12.8615 8.07666C12.2902 8.07666 11.7697 8.13131 11.2476 8.23241C10.8026 9.05461 10.0852 10.2831 9.14278 11.5565C8.05591 13.0259 6.49772 14.7827 4.65894 15.849C4.65564 15.9341 4.65234 16.0192 4.65234 16.1059C4.65234 16.9024 4.7722 17.6716 4.99381 18.3975C6.35818 17.7696 7.59619 16.8398 8.68467 15.7912C7.90807 17.5881 7.04281 19.332 6.14146 20.7147C6.62747 21.3923 7.21854 21.993 7.89007 22.494C8.87509 21.084 9.8701 19.2293 10.8683 16.9378C10.5153 19.2952 10.0031 21.3587 9.26424 23.3258C9.99655 23.6758 10.7911 23.9216 11.6268 24.0452C12.1555 22.7252 12.5725 21.4132 12.9009 19.7062C13.231 21.4068 13.6496 22.7156 14.1783 24.0308C15.0107 23.8991 15.8004 23.6454 16.5278 23.2889C15.8136 21.3923 15.3112 19.4043 14.9565 17.116C15.9252 19.3192 16.8922 21.1097 17.8478 22.4812C18.5193 21.9785 19.1087 21.3747 19.5931 20.6954C18.6982 19.3176 17.8396 17.5865 17.0679 15.8024C18.1483 16.8446 19.3747 17.768 20.7292 18.3926H20.7308Z" fill="white"/>
<path d="M12.8198 28.8197C5.75088 28.8197 0 23.0688 0 15.9999C0 8.93105 5.75088 3.18018 12.8198 3.18018C19.8886 3.18018 25.6395 8.93105 25.6395 15.9999C25.6395 23.0688 19.8886 28.8197 12.8198 28.8197ZM12.8198 5.70501C7.14313 5.70501 2.52483 10.3233 2.52483 15.9999C2.52483 21.6766 7.14313 26.2949 12.8198 26.2949C18.4964 26.2949 23.1147 21.6766 23.1147 15.9999C23.1147 10.3233 18.4964 5.70501 12.8198 5.70501Z" fill="white"/>
<path d="M79.8532 20.4985C79.8532 20.76 79.8843 20.947 79.9466 21.0591C80.0214 21.1712 80.1584 21.2273 80.3578 21.2273C80.42 21.2273 80.4948 21.2273 80.582 21.2273C80.6692 21.2273 80.7689 21.2148 80.881 21.1899V22.6662C80.8062 22.6911 80.7066 22.716 80.582 22.7409C80.4699 22.7783 80.3515 22.8094 80.2269 22.8344C80.1023 22.8593 79.9778 22.8779 79.8532 22.8905C79.7286 22.9029 79.6227 22.9091 79.5355 22.9091C79.0994 22.9091 78.7381 22.8219 78.4516 22.6474C78.1651 22.473 77.9782 22.1678 77.891 21.7318C77.4674 22.1429 76.9442 22.4419 76.3213 22.6288C75.7108 22.8156 75.1191 22.9091 74.546 22.9091C74.11 22.9091 73.6926 22.8468 73.294 22.7223C72.8953 22.6101 72.5402 22.442 72.2288 22.2178C71.9298 21.9811 71.6868 21.6882 71.4999 21.3393C71.3255 20.9781 71.2383 20.5608 71.2383 20.0873C71.2383 19.4893 71.3442 19.0035 71.556 18.6298C71.7803 18.256 72.0668 17.9632 72.4156 17.7514C72.7769 17.5397 73.1755 17.3902 73.6116 17.303C74.0601 17.2034 74.5086 17.1286 74.9571 17.0788C75.3433 17.004 75.7108 16.954 76.0596 16.9292C76.4085 16.8918 76.7137 16.8357 76.9753 16.761C77.2494 16.6863 77.4612 16.5742 77.6107 16.4247C77.7726 16.2627 77.8537 16.0259 77.8537 15.7145C77.8537 15.4404 77.7851 15.2162 77.6481 15.0418C77.5235 14.8674 77.3615 14.7365 77.1622 14.6493C76.9753 14.5496 76.7635 14.4874 76.5268 14.4625C76.2901 14.4251 76.0659 14.4064 75.8541 14.4064C75.2561 14.4064 74.764 14.531 74.3778 14.7801C73.9916 15.0293 73.7736 15.4155 73.7237 15.9388H71.5934C71.6307 15.3159 71.7803 14.7989 72.0419 14.3878C72.3035 13.9767 72.6336 13.6465 73.0323 13.3974C73.4434 13.1481 73.9044 12.9736 74.4151 12.874C74.9259 12.7744 75.4492 12.7246 75.9849 12.7246C76.4583 12.7246 76.9255 12.7744 77.3864 12.874C77.8474 12.9736 78.2585 13.1357 78.6198 13.36C78.9936 13.5842 79.2926 13.8769 79.5168 14.2382C79.7411 14.587 79.8532 15.0168 79.8532 15.5276V20.4985ZM77.7228 17.8074C77.3989 18.0193 77.0003 18.1501 76.5268 18.2C76.0534 18.2374 75.58 18.2996 75.1066 18.3868C74.8823 18.4241 74.6644 18.4802 74.4525 18.5549C74.2407 18.6173 74.0539 18.7108 73.8919 18.8353C73.7299 18.9475 73.5992 19.1032 73.4995 19.3026C73.4123 19.4894 73.3687 19.7198 73.3687 19.9939C73.3687 20.2306 73.4372 20.4299 73.5742 20.5919C73.7113 20.7538 73.8733 20.8847 74.0601 20.9844C74.2594 21.0716 74.4712 21.1339 74.6955 21.1712C74.9322 21.2086 75.144 21.2273 75.3308 21.2273C75.5675 21.2273 75.8229 21.1962 76.097 21.1339C76.3711 21.0716 76.6265 20.9656 76.8632 20.8161C77.1124 20.6667 77.3179 20.4798 77.4799 20.2556C77.6418 20.0189 77.7228 19.7322 77.7228 19.3959V17.8074Z" fill="white"/>
<path d="M65.1914 12.9863H67.1909V14.8549H67.2284C67.2907 14.5934 67.409 14.3379 67.5834 14.0888C67.7702 13.8397 67.9884 13.6154 68.2375 13.416C68.4991 13.2042 68.7857 13.0361 69.0971 12.9115C69.4086 12.7869 69.7261 12.7246 70.0501 12.7246C70.2993 12.7246 70.4675 12.7308 70.5546 12.7433C70.6543 12.7558 70.7541 12.7682 70.8537 12.7807V14.8363C70.7043 14.8114 70.5485 14.7926 70.3865 14.7802C70.237 14.7553 70.0875 14.7429 69.9379 14.7429C69.5767 14.7429 69.2342 14.8176 68.9102 14.967C68.5988 15.1041 68.3247 15.316 68.088 15.6025C67.8514 15.8765 67.6644 16.2191 67.5274 16.6303C67.3903 17.0414 67.3217 17.5148 67.3217 18.0505V22.6475H65.1914V12.9863Z" fill="white"/>
<path d="M58.5415 22.9091C57.769 22.9091 57.0776 22.7845 56.4672 22.5353C55.8692 22.2738 55.3584 21.9187 54.9349 21.4702C54.5237 21.0217 54.206 20.4859 53.9818 19.863C53.77 19.2401 53.6641 18.5549 53.6641 17.8074C53.6641 17.0724 53.77 16.3934 53.9818 15.7706C54.206 15.1477 54.5237 14.612 54.9349 14.1635C55.3584 13.715 55.8692 13.3661 56.4672 13.117C57.0776 12.8553 57.769 12.7246 58.5415 12.7246C59.3139 12.7246 59.9991 12.8553 60.5971 13.117C61.2076 13.3661 61.7183 13.715 62.1294 14.1635C62.553 14.612 62.8707 15.1477 63.0825 15.7706C63.3068 16.3934 63.4189 17.0724 63.4189 17.8074C63.4189 18.5549 63.3068 19.2401 63.0825 19.863C62.8707 20.4859 62.553 21.0217 62.1294 21.4702C61.7183 21.9187 61.2076 22.2738 60.5971 22.5353C59.9991 22.7845 59.3139 22.9091 58.5415 22.9091ZM58.5415 21.2273C59.0149 21.2273 59.4261 21.1276 59.7749 20.9282C60.1237 20.729 60.4102 20.4673 60.6345 20.1433C60.8587 19.8195 61.0207 19.4581 61.1203 19.0595C61.2324 18.6484 61.2885 18.2311 61.2885 17.8074C61.2885 17.3963 61.2324 16.9852 61.1203 16.5741C61.0207 16.1629 60.8587 15.8018 60.6345 15.4904C60.4102 15.1664 60.1237 14.9048 59.7749 14.7055C59.4261 14.5061 59.0149 14.4064 58.5415 14.4064C58.0681 14.4064 57.6569 14.5061 57.3081 14.7055C56.9593 14.9048 56.6727 15.1664 56.4485 15.4904C56.2242 15.8018 56.056 16.1629 55.9439 16.5741C55.8443 16.9852 55.7945 17.3963 55.7945 17.8074C55.7945 18.2311 55.8443 18.6484 55.9439 19.0595C56.056 19.4581 56.2242 19.8195 56.4485 20.1433C56.6727 20.4673 56.9593 20.729 57.3081 20.9282C57.6569 21.1276 58.0681 21.2273 58.5415 21.2273Z" fill="white"/>
<path d="M49.6602 9.30469H51.7906V22.6474H49.6602V9.30469Z" fill="white"/>
<path d="M45.1523 9.30469H47.2828V22.6474H45.1523V9.30469Z" fill="white"/>
<path d="M36.5031 9.30469H38.9886L44.1276 22.6474H41.6235L40.3714 19.1155H35.0455L33.7934 22.6474H31.3828L36.5031 9.30469ZM35.6808 17.3402H39.7547L37.7552 11.6032H37.6991L35.6808 17.3402Z" fill="white"/>
</g>
<defs>
<clipPath id="clip0_756_1699">
<rect width="80.8831" height="32" fill="white"/>
</clipPath>
</defs>
</svg>
