<svg width="193" height="32" viewBox="0 0 193 32" fill="none" xmlns="http://www.w3.org/2000/svg">
<g clip-path="url(#clip0_449_705)">
<path d="M168.591 8.95032C170.052 9.84908 171.32 11.704 171.719 13.3622L171.877 14.1776L168.385 14.1397C167.947 13.3044 167.519 12.6537 166.922 11.9272L167.222 11.9822C167.842 12.4098 168.197 13.1988 168.553 13.8361C169.513 13.8418 170.507 13.896 171.46 13.7797C171.272 12.9364 171.007 12.114 170.538 11.3778C170.315 11.0273 170.028 10.6182 169.751 10.3083C169.473 9.99711 168.719 9.48628 168.622 9.10408L168.593 8.97266L168.591 8.95032Z" fill="white"/>
<path d="M90.3206 11.6311C90.8999 12.579 91.1948 13.723 91.346 14.8151C91.5578 16.3449 91.4161 18.0401 91.4168 19.587C91.4176 21.2845 91.5274 23.0618 91.3927 24.7508C90.8158 24.7434 88.4677 24.8365 88.1205 24.6349L88.1945 21.7846L88.3195 21.8426C88.6009 22.2013 88.4304 23.8709 88.43 24.3859L91.105 24.3659C91.268 23.9363 91.1038 22.7953 91.1033 22.2899L91.1154 15.6709C91.0892 15.1019 90.9853 14.4995 90.9126 13.9334C90.843 13.3919 90.4983 12.8699 90.3518 12.3711C90.2891 12.158 90.3174 11.8546 90.3206 11.6311Z" fill="white"/>
<path d="M64.7566 11.1212C65.3137 11.1486 65.5795 11.5257 65.9468 11.9308C66.5977 12.649 66.9403 13.8384 67.0723 14.7794C67.1885 15.6076 67.0925 16.579 67.0922 17.4199L67.1099 24.3869L70.1529 24.3737L70.1463 18.2846C70.146 17.3356 70.199 16.3568 70.1382 15.412C70.0973 14.7768 70.0506 13.9661 69.9293 13.3502C69.7742 12.5614 69.4246 11.9972 69.4809 11.1556C70.8028 13.7178 70.4571 17.2113 70.457 20.0249L70.4135 24.7487L66.7926 24.6823L66.782 14.8667C66.6814 13.2589 65.9171 12.156 64.7566 11.1212Z" fill="white"/>
<path d="M97.4256 8.59656C97.2474 9.09903 96.7087 9.38277 96.3341 9.76369C95.2354 10.8804 94.6736 12.4293 94.4431 13.9471L94.3605 13.9211C94.3802 14.7136 94.1918 15.4556 94.1775 16.2537L94.2666 24.5497L97.2938 24.4853L97.2984 17.828C97.2996 16.7359 97.1541 15.3528 97.4055 14.2932C97.6816 13.1294 98.2402 12.2659 99.0737 11.4271C99.9271 10.5683 101.34 10.2785 102.505 10.2811C103.933 10.2843 105.18 10.7545 106.192 11.7722C107.206 12.7919 107.633 14.4161 107.628 15.8277L107.643 24.484L110.545 24.4845L110.568 18.3949C110.568 16.8391 110.617 15.2447 110.434 13.6969C110.398 13.3897 110.255 13.141 110.153 12.8563C109.987 12.3858 109.87 11.9174 109.67 11.4519C109.486 11.0244 109.278 10.8337 109.291 10.3326C109.778 10.8518 110.12 11.663 110.333 12.3356C111.06 14.63 110.889 17.0268 110.888 19.4024L110.873 24.8198L107.313 24.7726L107.316 24.7157C107.416 22.9846 107.325 21.1969 107.324 19.4586C107.324 17.8842 107.494 16.0838 107.221 14.5365C107.072 13.694 106.773 12.8006 106.191 12.1525C105.288 11.1473 104.241 10.6852 102.901 10.6123C101.574 10.5401 100.165 10.7884 99.1471 11.7052C98.424 12.356 97.9987 13.1642 97.7675 14.1029C97.4458 15.4102 97.5428 16.7844 97.5424 18.1209L97.504 24.8521L94.0232 24.8075L94.0061 19.3864C94.0051 17.4603 93.8436 15.3985 94.2355 13.5044C94.6516 11.4923 95.692 9.73118 97.4256 8.59656Z" fill="white"/>
<path d="M138.38 8.23071C138.35 8.3236 138.309 8.53554 138.255 8.60626C138.123 8.77807 137.598 9.0229 137.396 9.17602C136.835 9.60125 136.332 10.2039 135.944 10.7894C135.588 11.3236 135.297 12.0384 135.128 12.6579C135.049 12.9514 135.029 13.4219 134.872 13.6626C134.6 14.0832 134.71 15.4538 134.709 15.977L134.705 21.5539C134.706 22.4613 134.615 23.463 134.76 24.3519L134.982 24.5406L135.003 24.5374C135.862 24.4038 136.777 24.5698 137.661 24.4584C137.812 23.8651 137.687 22.9783 137.685 22.3511L137.673 17.7281C137.67 16.3621 137.571 14.7999 138.039 13.4957C138.429 12.4084 139.225 11.4779 140.214 10.8944C141.355 10.221 143.189 10.1347 144.454 10.476C145.732 10.8204 146.729 11.7196 147.362 12.8563C147.848 13.7272 147.856 14.5765 147.953 15.5308C148.184 17.8008 148.054 20.1839 148.052 22.4747C148.05 23.1257 147.98 23.8469 148.08 24.4864L150.99 24.4917L151.011 17.9691C151.011 16.8872 151.086 15.7538 150.992 14.6811C150.961 14.3236 150.815 14.0586 150.748 13.7237C150.678 13.3746 150.672 12.9743 150.562 12.6389C150.363 12.0276 150.028 11.5542 150.059 10.884C150.729 11.6892 151.07 13.2857 151.196 14.3118C151.344 15.5193 151.238 16.8685 151.24 18.0932L151.201 24.8524L147.774 24.7778L147.762 18.7826C147.761 16.8767 148.015 14.388 146.969 12.7071C146.289 11.6141 145.437 11.0165 144.177 10.7275C142.876 10.4291 141.19 10.5998 140.048 11.3207C138.935 12.0232 138.371 13.1315 138.092 14.3892C137.878 15.3529 137.99 16.4951 137.993 17.4814V22.7802C137.993 23.4139 138.085 24.233 137.947 24.8439L134.453 24.7883L134.444 18.436C134.444 16.6753 134.326 14.8964 134.728 13.1711C135.248 10.9419 136.473 9.41531 138.38 8.23071Z" fill="white"/>
<path d="M19.644 17.5015C19.7709 17.4458 19.931 17.4669 20.0672 17.4701L22.4737 21.9656C22.8587 22.6717 23.4984 23.5523 23.706 24.3113C23.7457 24.4564 23.7123 24.6401 23.6362 24.7678L22.1533 24.7687L19.7803 24.7734L18.5926 22.6547C18.393 22.2874 18.1282 21.9119 17.9738 21.5254C17.884 21.3009 17.8754 21.1725 17.9307 20.9355C18.0162 20.5702 18.2931 20.1559 18.47 19.8193C18.8751 19.0488 19.2956 18.3008 19.644 17.5015Z" fill="white"/>
<path d="M26.0997 0H29.7404L29.6582 0.261295C29.7961 1.59072 29.7093 3.00225 29.71 4.34145L29.7108 11.8492L29.7082 20.2837C29.7074 21.7559 29.7922 23.2902 29.6703 24.7548L26.1158 24.7283L26.1192 0.27465L26.0997 0ZM26.0997 0L26.1192 0.27465C26.6626 0.0444939 27.9399 0.231263 28.5902 0.221573C28.9819 0.215737 29.2697 0.115186 29.6582 0.261295L29.7404 0H26.0997Z" fill="white"/>
<path d="M26.0997 0H29.7404L29.6582 0.261295C29.2697 0.115186 28.9819 0.215737 28.5902 0.221573C27.9399 0.231263 26.6626 0.0444939 26.1192 0.27465L26.0997 0Z" fill="white"/>
<path d="M26.3905 0.4223C26.6344 0.336004 27.0215 0.391503 27.2859 0.392549L29.3959 0.401457L29.422 24.3803L27.5812 24.4147L26.266 24.3963L26.2968 10.4685L26.2832 4.36708L26.2656 1.84014C26.2631 1.37747 26.2092 0.854794 26.3905 0.4223Z" fill="white"/>
<path d="M138.38 8.23069C140.396 7.14727 143.515 6.96047 145.695 7.61673C147.307 8.1019 149.351 9.23003 150.057 10.8723L150.059 10.884C150.028 11.5542 150.363 12.0276 150.562 12.6389C150.672 12.9743 150.678 13.3746 150.748 13.7237C150.815 14.0585 150.961 14.3235 150.992 14.6811C151.086 15.7538 151.011 16.8872 151.011 17.9691L150.99 24.4917L148.08 24.4864C147.98 23.8469 148.05 23.1257 148.052 22.4747C148.054 20.1839 148.184 17.8008 147.953 15.5308C147.856 14.5765 147.848 13.7272 147.362 12.8563C146.729 11.7196 145.732 10.8204 144.455 10.4759C143.189 10.1346 141.355 10.221 140.214 10.8944C139.225 11.4779 138.429 12.4084 138.039 13.4957C137.571 14.7999 137.671 16.3621 137.673 17.7281L137.685 22.351C137.687 22.9782 137.812 23.8651 137.661 24.4584C136.777 24.5698 135.862 24.4038 135.003 24.5373L134.983 24.5406L134.76 24.3519C134.615 23.463 134.706 22.4613 134.705 21.5539L134.709 15.977C134.71 15.4537 134.6 14.0832 134.872 13.6626C135.029 13.4219 135.049 12.9513 135.128 12.6579C135.297 12.0384 135.588 11.3236 135.944 10.7894C136.332 10.2038 136.835 9.60123 137.396 9.176C137.598 9.02288 138.123 8.77805 138.255 8.60624C138.309 8.53552 138.35 8.32358 138.38 8.23069Z" fill="white"/>
<path d="M97.4257 8.59659C99.3553 7.2859 102.136 6.9975 104.4 7.42921C106.145 7.76182 108.327 8.631 109.273 10.2636C109.286 10.287 109.288 10.3065 109.291 10.3326C109.278 10.8337 109.486 11.0244 109.67 11.4519C109.87 11.9174 109.987 12.3858 110.153 12.8563C110.255 13.141 110.398 13.3898 110.434 13.697C110.617 15.2447 110.568 16.8391 110.568 18.3949L110.545 24.4845L107.643 24.4841L107.628 15.8277C107.633 14.4162 107.206 12.792 106.192 11.7722C105.18 10.7545 103.933 10.2844 102.505 10.2811C101.34 10.2785 99.9271 10.5684 99.0738 11.4272C98.2402 12.266 97.6817 13.1294 97.4055 14.2932C97.1541 15.3528 97.2997 16.7359 97.2985 17.8281L97.2939 24.4854L94.2667 24.5497L94.1776 16.2538C94.1919 15.4557 94.3802 14.7136 94.3605 13.9211L94.4431 13.9472C94.6737 12.4293 95.2354 10.8804 96.3341 9.76373C96.7087 9.38281 97.2474 9.09907 97.4257 8.59659Z" fill="white"/>
<path d="M166.922 11.9273C166.883 11.935 166.83 11.8815 166.796 11.8573C165.448 10.8757 164.049 10.4657 162.392 10.6294C160.968 10.7701 159.6 11.417 158.689 12.5364C157.655 13.8054 157.335 15.4554 157.502 17.0514C157.663 18.601 158.377 19.8225 159.595 20.8018C160.751 21.7309 162.415 22.0114 163.86 21.8547C165.368 21.6912 166.885 20.8377 167.726 19.5579C167.925 19.2538 168.086 18.7239 168.318 18.4749C168.459 18.3232 171.46 18.4151 171.912 18.4147C171.671 19.5939 171.119 20.8515 170.389 21.8107C168.945 23.7091 166.849 24.8145 164.505 25.1374C161.913 25.4945 159.225 24.8799 157.13 23.2907C155.374 21.9575 154.252 19.8104 153.961 17.6472C153.636 15.2324 154.148 12.6631 155.646 10.7075C157.202 8.67598 159.295 7.67027 161.795 7.34234C164.092 7.0411 166.734 7.52624 168.591 8.95035L168.593 8.97269L168.622 9.10412C168.719 9.48632 169.473 9.99714 169.751 10.3083C170.028 10.6182 170.315 11.0273 170.538 11.3778C171.007 12.114 171.272 12.9364 171.46 13.7797C170.507 13.8961 169.513 13.8418 168.553 13.8361C168.197 13.1988 167.842 12.4099 167.222 11.9822L166.922 11.9273Z" fill="white"/>
<path d="M53.431 0H56.8588L56.9166 0.34675L56.9094 9.77704C57.3064 9.3482 57.7599 8.72399 58.2683 8.43883C59.5303 7.30852 61.2971 6.96585 62.9527 7.05619C64.9639 7.16591 66.9945 7.93592 68.357 9.46177C68.7853 9.9414 69.2116 10.5721 69.4809 11.1556C69.4246 11.9972 69.7742 12.5614 69.9294 13.3502C70.0506 13.9661 70.0973 14.7768 70.1382 15.412C70.199 16.3567 70.146 17.3356 70.1464 18.2846L70.1529 24.3737L67.1099 24.3868L67.0923 17.4199C67.0925 16.579 67.1885 15.6076 67.0724 14.7794C66.9403 13.8383 66.5977 12.649 65.9468 11.9308C65.5795 11.5257 65.3138 11.1486 64.7566 11.1212L64.6494 11.071C63.854 10.6969 63.0277 10.4375 62.1427 10.4122C60.8717 10.376 59.4715 10.6869 58.5217 11.59C57.7971 12.2791 57.3668 13.1247 57.1378 14.0881C56.8172 15.4372 56.9289 16.8805 56.9284 18.2607L56.9112 24.7521L53.387 24.7019L53.4071 0.316956L53.431 0ZM53.431 0L53.4071 0.316956L53.387 24.7019L56.9112 24.7521L56.9284 18.2607C56.9289 16.8805 56.8172 15.4372 57.1378 14.0881C57.3668 13.1247 57.7971 12.2791 58.5217 11.59C59.4715 10.6869 60.8717 10.376 62.1427 10.4122C63.0277 10.4375 63.854 10.6969 64.6494 11.071L64.6139 10.9108C64.1893 10.4733 63.8076 10.4121 63.2251 10.3704L63.1782 10.2348C62.2113 10.0115 61.2023 10.0929 60.2687 10.3601L60.252 10.3647C59.2892 10.6405 58.7693 11.007 58.0725 11.7168C57.5712 12.2274 57.0532 13.1195 56.8817 13.8273C56.5303 15.2781 56.6177 16.9285 56.6171 18.4153L56.6453 24.362C55.6499 24.478 54.5971 24.4245 53.5977 24.3672L53.6058 0.389318L56.5689 0.413787C56.7399 0.824552 56.6252 1.74395 56.6245 2.20633L56.6266 6.98712C56.6341 7.92071 56.5626 8.82532 56.77 9.73826L57.0153 9.81267C57.4553 9.70957 57.968 8.94174 58.3253 8.62395L58.2683 8.43883C57.7599 8.72399 57.3064 9.3482 56.9094 9.77704L56.9166 0.34675L56.8588 0H53.431Z" fill="white"/>
<path d="M53.431 0H56.8588L56.9166 0.34675L56.9094 9.77704C57.3064 9.3482 57.7599 8.72399 58.2683 8.43883L58.3253 8.62395C57.968 8.94174 57.4553 9.70957 57.0153 9.81267L56.77 9.73826C56.5626 8.82532 56.6341 7.92071 56.6266 6.98712L56.6245 2.20633C56.6252 1.74395 56.7399 0.824552 56.5689 0.413787L53.6058 0.389318L53.5977 24.3672C54.5971 24.4245 55.6499 24.478 56.6453 24.362L56.6171 18.4153C56.6177 16.9285 56.5303 15.2781 56.8817 13.8273C57.0532 13.1195 57.5712 12.2274 58.0725 11.7168C58.7693 11.007 59.2892 10.6405 60.252 10.3647L60.2687 10.3601C61.2023 10.0929 62.2113 10.0115 63.1782 10.2348L63.2251 10.3704C63.8076 10.4121 64.1893 10.4733 64.6139 10.9108L64.6494 11.071C63.854 10.6969 63.0277 10.4375 62.1427 10.4122C60.8717 10.376 59.4715 10.6869 58.5217 11.59C57.7971 12.2791 57.3668 13.1247 57.1378 14.0881C56.8172 15.4372 56.9289 16.8805 56.9284 18.2607L56.9112 24.7521L53.387 24.7019L53.4071 0.316956L53.431 0ZM53.431 0L53.4071 0.316956C53.8501 0.0745227 54.1363 0.219131 54.6046 0.222279C55.337 0.227205 56.1348 0.118995 56.8439 0.325064L56.9166 0.34675L56.8588 0H53.431Z" fill="white"/>
<path d="M53.431 0H56.8588L56.9166 0.34675L56.8438 0.325064C56.1347 0.118995 55.337 0.227205 54.6046 0.222279C54.1363 0.219131 53.8501 0.0745227 53.407 0.316956L53.431 0Z" fill="white"/>
<path d="M23.1392 7.18213L23.7302 7.24101C23.6181 7.42455 23.5823 7.6652 23.4761 7.86513L22.1239 10.4383L18.6148 17.1858L17.4634 19.4099C17.2231 19.8877 16.9999 20.4465 16.6907 20.8821C16.0267 21.8174 15.1325 22.673 14.1825 23.3151C12.276 24.6039 9.8613 24.9777 7.62222 24.5417C5.58499 24.1449 3.46939 22.8551 2.3027 21.1173C0.827769 18.9203 0.32838 16.6162 0.855781 14.0111C1.28016 11.9147 2.79389 9.80629 4.56411 8.63489C6.84685 7.12437 9.31073 7.03168 11.9091 7.57091C13.8701 8.32916 15.1911 9.27323 16.497 10.9353L14.5431 14.7324C13.9831 13.5106 13.4248 12.4593 12.271 11.6866C11.1917 10.9638 9.69153 10.6732 8.41086 10.9289C7.06682 11.1973 5.86517 11.9807 5.10389 13.1282C4.39532 14.1962 4.04903 15.6444 4.30728 16.9077C4.60904 18.3839 5.42664 19.5274 6.68044 20.3485C7.84844 21.1134 9.27076 21.2812 10.6168 20.9997C11.7217 20.7687 12.5976 20.1484 13.3137 19.2944C14.1596 18.2855 14.7681 16.7671 15.3636 15.5896L18.5288 9.57593C18.9623 8.77753 19.3173 7.95499 19.8173 7.19265L23.1392 7.18213Z" fill="white"/>
<path d="M179.671 20.4427L179.831 20.5831C181.174 21.7212 182.819 21.9986 184.523 21.8552C186.194 21.7144 187.216 20.9724 188.264 19.7316L192.136 19.7324C191.351 21.6122 190.204 22.9968 188.453 24.0402C186.236 25.3615 183.346 25.4943 180.895 24.8711C178.773 24.3313 176.824 22.9093 175.707 21.0211C174.399 18.8127 174.124 16.1514 174.763 13.6811C175.329 11.492 176.846 9.58045 178.789 8.44042C180.889 7.20871 183.915 6.97096 186.244 7.57883C187.924 8.01722 189.998 9.14969 190.904 10.6923C191.823 11.5886 192.281 13.0589 192.541 14.2814C192.613 14.6234 192.632 15.2407 192.84 15.4962V17.4468L192.695 17.4077L192.605 17.605L178.169 17.5804C178.492 18.7248 178.85 19.5485 179.671 20.4427ZM182.889 10.6262C181.471 10.8439 180.084 11.378 179.208 12.5711C178.827 13.0885 178.569 13.6856 178.311 14.2703L178.327 14.3577L184.622 14.3957C185.97 14.3972 187.47 14.2819 188.801 14.4388C188.894 14.2583 188.884 14.0805 188.823 13.8867C188.458 12.7254 187.414 11.7297 186.363 11.195C185.282 10.6454 184.084 10.5281 182.889 10.6262ZM190.904 10.6923L190.902 10.7196L190.903 10.8844C190.921 11.2907 191.35 11.762 191.528 12.1284C191.788 12.6674 192.031 13.287 192.194 13.8627C192.291 14.2105 192.28 14.6562 192.309 15.0175C192.37 15.7726 192.434 16.4892 192.438 17.2492C191.019 17.3747 189.559 17.3088 188.135 17.3045L181.311 17.3109C180.788 17.3143 180.245 17.3536 179.723 17.3325C179.349 17.3174 178.878 17.2291 178.512 17.2893C178.276 17.328 178.197 17.4345 178.033 17.5953C177.98 18.3806 178.384 19.3859 178.908 19.98C179.143 20.2463 179.326 20.3825 179.671 20.4427C178.85 19.5485 178.492 18.7248 178.169 17.5804L192.605 17.605L192.695 17.4077L192.84 17.4468V15.4962C192.632 15.2407 192.613 14.6234 192.541 14.2814C192.281 13.0589 191.823 11.5886 190.904 10.6923Z" fill="white"/>
<path d="M190.904 10.6923C191.823 11.5885 192.281 13.0588 192.541 14.2813C192.613 14.6234 192.632 15.2406 192.84 15.4961V17.4467L192.695 17.4076L192.605 17.6049L178.169 17.5803C178.492 18.7247 178.85 19.5484 179.671 20.4426C179.326 20.3824 179.143 20.2463 178.908 19.9799C178.384 19.3858 177.98 18.3805 178.033 17.5952C178.197 17.4344 178.276 17.328 178.512 17.2892C178.878 17.229 179.349 17.3173 179.723 17.3325C180.245 17.3536 180.788 17.3142 181.311 17.3108L188.135 17.3044C189.559 17.3088 191.019 17.3747 192.438 17.2492C192.434 16.4891 192.37 15.7725 192.309 15.0175C192.28 14.6561 192.291 14.2105 192.194 13.8626C192.031 13.287 191.788 12.6673 191.528 12.1283C191.35 11.7619 190.921 11.2907 190.903 10.8843L190.902 10.7195L190.904 10.6923Z" fill="white"/>
<path d="M121.333 7.35385L121.36 7.34832C121.828 7.25459 122.331 7.28484 122.806 7.28931C124.689 7.30698 126.491 7.75172 128.068 8.81875C129.831 10.011 131.214 12.0216 131.613 14.1245C132.105 16.7191 131.739 19.3054 130.233 21.5072C128.823 23.5702 126.671 24.6685 124.268 25.1214L123.934 25.1615C121.342 25.4503 118.676 24.849 116.618 23.1991C114.892 21.8144 113.764 19.6377 113.53 17.4452C113.276 15.066 113.805 12.4732 115.344 10.5866C116.878 8.70508 118.918 7.604 121.333 7.35385ZM121.885 10.6341C120.336 10.9185 118.993 11.4909 118.071 12.8292C117.159 14.1513 116.854 15.8911 117.145 17.4593C117.407 18.8682 118.199 20.1412 119.388 20.9497C120.664 21.8182 121.94 21.8976 123.432 21.863C125.002 21.6039 126.307 20.9342 127.257 19.6173C128.151 18.3801 128.387 16.6334 128.145 15.1548C127.902 13.6686 127.177 12.4343 125.941 11.548C124.798 10.7286 123.263 10.48 121.885 10.6341Z" fill="white"/>
<path d="M88.1945 21.7845C87.8292 22.1307 87.5405 22.5508 87.1989 22.9207C86.6147 23.5531 85.9469 24.0668 85.1761 24.4579C83.3538 25.3824 80.814 25.3511 78.901 24.7294C76.7935 24.0446 75.0188 22.6447 74.0063 20.6532C72.7929 18.2663 72.703 15.4445 73.5315 12.9176C74.2135 10.8372 75.8581 8.98315 77.8073 8.00617C80.0525 6.88077 83.2972 6.80809 85.6576 7.59954C87.6652 8.27267 89.3781 9.73651 90.3206 11.631C90.3174 11.8545 90.289 12.1579 90.3517 12.371C90.4982 12.8699 90.843 13.3918 90.9126 13.9334C90.9852 14.4994 91.0892 15.1018 91.1153 15.6708L91.1033 22.2899C91.1037 22.7952 91.268 23.9362 91.1049 24.3658L88.43 24.3859C88.4303 23.8709 88.6009 22.2012 88.3195 21.8426L88.1945 21.7845ZM81.6199 10.4492C80.0438 10.6806 78.654 11.2718 77.6808 12.5877C76.8038 13.7736 76.4322 15.5227 76.6548 16.9719C76.8723 18.3882 77.4877 19.7838 78.6758 20.6507C80.0992 21.6896 81.3659 21.8006 83.0664 21.7694C84.605 21.4995 85.9802 20.8425 86.8976 19.5241C87.7239 18.3364 88.0748 16.5637 87.8148 15.1388C87.5331 13.5943 86.8851 12.2816 85.5549 11.3665C84.5316 10.6627 82.8558 10.2192 81.6199 10.4492Z" fill="white"/>
<path d="M32.316 32L32.3021 20.7428L32.3065 17.0914C32.3095 15.959 32.2934 14.8778 32.5559 13.7664C32.932 12.1738 33.7326 10.6565 34.8926 9.49331C36.6563 7.72482 39.0984 7.04789 41.539 7.04797C43.9336 7.04807 46.4545 7.86996 48.1659 9.58659C49.9153 11.3415 50.8207 13.8108 50.803 16.2792C50.7868 18.5708 49.96 21.1107 48.2848 22.7334C47.036 23.9429 45.2519 24.8554 43.5223 25.1072C42.8289 25.2082 42.0687 25.1781 41.3674 25.1654C39.9677 25.1401 38.2524 24.5604 37.1886 23.6514C36.7271 23.2572 36.3464 22.7498 35.8451 22.4074L35.8739 29.3775C35.8734 30.177 36.0011 31.2271 35.8275 32H32.316ZM40.8239 10.4409C39.2111 10.7355 37.8485 11.2941 36.8743 12.6981C35.9947 13.9659 35.6811 15.7459 35.9608 17.2527C36.2274 18.6882 36.9914 20.051 38.2136 20.8924C39.2711 21.6203 40.964 22.0499 42.2458 21.8077L42.4527 21.7598C43.9342 21.5955 45.1439 20.8345 46.0706 19.6776C47.0999 18.3923 47.2493 16.6366 47.0702 15.0645C46.9275 13.8115 46.2041 12.454 45.2111 11.6679C43.9866 10.6985 42.4263 10.2694 40.8705 10.4336L40.8239 10.4409Z" fill="white"/>
</g>
<defs>
<clipPath id="clip0_449_705">
<rect width="192.356" height="32" fill="white" transform="translate(0.484131)"/>
</clipPath>
</defs>
</svg>
