<svg width="145" height="32" viewBox="0 0 145 32" fill="none" xmlns="http://www.w3.org/2000/svg">
<g clip-path="url(#clip0_450_1167)">
<path d="M126.08 10.7128C127.176 11.3868 128.127 12.7781 128.426 14.0217L128.545 14.6333L125.925 14.6048C125.597 13.9783 125.276 13.4903 124.828 12.9454L125.053 12.9867C125.518 13.3074 125.785 13.8991 126.052 14.3771C126.772 14.3814 127.517 14.4221 128.232 14.3348C128.091 13.7023 127.892 13.0855 127.54 12.5333C127.373 12.2705 127.158 11.9636 126.95 11.7313C126.741 11.4979 126.176 11.1147 126.103 10.8281L126.082 10.7295L126.08 10.7128Z" fill="white"/>
<path d="M67.3773 12.7233C67.8118 13.4342 68.033 14.2922 68.1464 15.1112C68.3052 16.2586 68.1989 17.53 68.1995 18.6902C68.2001 19.9633 68.2824 21.2963 68.1814 22.5631C67.7487 22.5575 65.9877 22.6273 65.7273 22.4761L65.7828 20.3384L65.8765 20.3819C66.0876 20.6509 65.9597 21.9032 65.9594 22.2894L67.9656 22.2744C68.0879 21.9521 67.9647 21.0964 67.9644 20.7174L67.9734 15.7531C67.9538 15.3264 67.8758 14.8745 67.8213 14.45C67.7692 14.0439 67.5106 13.6524 67.4007 13.2783C67.3537 13.1184 67.3749 12.8909 67.3773 12.7233Z" fill="white"/>
<path d="M48.2043 12.3409C48.6222 12.3615 48.8215 12.6443 49.097 12.9481C49.5851 13.4868 49.8421 14.3788 49.9411 15.0846C50.0283 15.7057 49.9563 16.4343 49.9561 17.0649L49.9693 22.2902L52.2515 22.2803L52.2467 17.7135C52.2464 17.0017 52.2861 16.2676 52.2405 15.5591C52.2099 15.0826 52.1748 14.4746 52.0839 14.0127C51.9675 13.4211 51.7053 12.9979 51.7475 12.3667C52.739 14.2884 52.4797 16.9085 52.4796 19.0187L52.447 22.5616L49.7314 22.5118L49.7234 15.1501C49.648 13.9442 49.0747 13.117 48.2043 12.3409Z" fill="white"/>
<path d="M72.7061 10.4474C72.5725 10.8242 72.1685 11.0371 71.8875 11.3227C71.0635 12.1602 70.6421 13.3219 70.4693 14.4603L70.4073 14.4408C70.4221 15.0352 70.2808 15.5917 70.2701 16.1903L70.3369 22.4122L72.6073 22.364L72.6108 17.371C72.6117 16.5519 72.5025 15.5145 72.691 14.7199C72.8981 13.847 73.3171 13.1994 73.9422 12.5703C74.5822 11.9262 75.6417 11.7088 76.5157 11.7108C77.5864 11.7132 78.5221 12.0658 79.2811 12.8291C80.0416 13.5939 80.3619 14.8121 80.3581 15.8707L80.3688 22.363L82.5454 22.3633L82.5626 17.7961C82.5626 16.6293 82.5997 15.4335 82.4625 14.2727C82.4353 14.0423 82.3278 13.8557 82.252 13.6422C82.1269 13.2893 82.0396 12.938 81.8896 12.5889C81.7517 12.2682 81.5956 12.1252 81.6053 11.7494C81.9708 12.1388 82.2266 12.7473 82.3865 13.2517C82.932 14.9725 82.8037 16.7701 82.8031 18.5518L82.7917 22.6148L80.1215 22.5794L80.1243 22.5368C80.199 21.2385 80.1307 19.8977 80.1302 18.5939C80.1298 17.4131 80.2571 16.0628 80.0524 14.9024C79.9409 14.2705 79.7167 13.6004 79.2801 13.1144C78.603 12.3604 77.818 12.0139 76.8126 11.9592C75.8171 11.905 74.7609 12.0913 73.9973 12.7788C73.4549 13.267 73.1359 13.8731 72.9626 14.5771C72.7213 15.5577 72.7941 16.5882 72.7937 17.5906L72.7649 22.6391L70.1543 22.6056L70.1415 18.5398C70.1407 17.0952 70.0197 15.5489 70.3135 14.1282C70.6256 12.6192 71.406 11.2984 72.7061 10.4474Z" fill="white"/>
<path d="M103.422 10.173C103.399 10.2426 103.369 10.4016 103.328 10.4546C103.229 10.5835 102.836 10.7671 102.684 10.882C102.263 11.2009 101.886 11.6528 101.595 12.092C101.328 12.4927 101.109 13.0287 100.983 13.4934C100.924 13.7135 100.908 14.0663 100.791 14.2469C100.587 14.5623 100.669 15.5903 100.668 15.9827L100.666 20.1654C100.667 20.8459 100.598 21.5972 100.707 22.2639L100.874 22.4054L100.889 22.403C101.533 22.3028 102.22 22.4273 102.883 22.3438C102.996 21.8988 102.902 21.2336 102.9 20.7632L102.892 17.296C102.89 16.2715 102.815 15.0999 103.166 14.1217C103.459 13.3063 104.056 12.6084 104.797 12.1708C105.653 11.6657 107.028 11.6009 107.978 11.8569C108.936 12.1152 109.684 12.7897 110.158 13.6422C110.523 14.2953 110.529 14.9323 110.602 15.648C110.775 17.3505 110.677 19.1379 110.676 20.8559C110.675 21.3442 110.622 21.8851 110.697 22.3647L112.879 22.3687L112.895 17.4767C112.895 16.6654 112.951 15.8153 112.881 15.0108C112.858 14.7426 112.748 14.5439 112.698 14.2927C112.645 14.0309 112.641 13.7307 112.558 13.4791C112.409 13.0207 112.158 12.6656 112.181 12.1629C112.684 12.7668 112.94 13.9642 113.034 14.7338C113.145 15.6394 113.066 16.6513 113.067 17.5698L113.037 22.6392L110.468 22.5833L110.459 18.0869C110.458 16.6575 110.648 14.791 109.864 13.5303C109.354 12.7105 108.715 12.2623 107.77 12.0456C106.794 11.8218 105.53 11.9498 104.673 12.4904C103.838 13.0174 103.415 13.8486 103.206 14.7919C103.045 15.5146 103.13 16.3712 103.132 17.111V21.0851C103.132 21.5604 103.201 22.1747 103.097 22.6328L100.476 22.5911L100.47 17.827C100.47 16.5064 100.381 15.1722 100.683 13.8783C101.073 12.2064 101.992 11.0614 103.422 10.173Z" fill="white"/>
<path d="M14.37 17.1261C14.4651 17.0844 14.5852 17.1002 14.6873 17.1026L16.4922 20.4742C16.781 21.0038 17.2607 21.6643 17.4165 22.2335C17.4462 22.3423 17.4212 22.4801 17.3641 22.5759L16.2519 22.5765L14.4722 22.5801L13.5813 20.991C13.4317 20.7156 13.2331 20.434 13.1173 20.1441C13.05 19.9757 13.0435 19.8794 13.085 19.7017C13.1491 19.4276 13.3567 19.117 13.4894 18.8645C13.7933 18.2867 14.1086 17.7256 14.37 17.1261Z" fill="white"/>
<path d="M19.2117 4H21.9422L21.8806 4.19597C21.984 5.19304 21.9189 6.25169 21.9194 7.25609L21.92 12.8869L21.9181 19.2128C21.9174 20.3169 21.9811 21.4676 21.8896 22.5661L19.2238 22.5462L19.2263 4.20599L19.2117 4ZM19.2117 4L19.2263 4.20599C19.6339 4.03337 20.5918 4.17345 21.0796 4.16618C21.3734 4.1618 21.5892 4.08639 21.8806 4.19597L21.9422 4H19.2117Z" fill="white"/>
<path d="M19.2117 4H21.9422L21.8806 4.19597C21.5892 4.08639 21.3734 4.1618 21.0796 4.16618C20.5918 4.17345 19.6339 4.03337 19.2263 4.20599L19.2117 4Z" fill="white"/>
<path d="M19.4298 4.31672C19.6127 4.252 19.903 4.29363 20.1013 4.29441L21.6838 4.30109L21.7034 22.2852L20.3227 22.311L19.3363 22.2972L19.3595 11.8513L19.3492 7.27531L19.3361 5.38011C19.3342 5.0331 19.2938 4.6411 19.4298 4.31672Z" fill="white"/>
<path d="M103.422 10.173C104.934 9.36042 107.273 9.22032 108.908 9.71252C110.117 10.0764 111.65 10.9225 112.18 12.1542L112.181 12.1629C112.158 12.6656 112.409 13.0207 112.558 13.4792C112.641 13.7307 112.645 14.0309 112.698 14.2928C112.748 14.5439 112.858 14.7426 112.881 15.0108C112.951 15.8153 112.895 16.6654 112.895 17.4768L112.879 22.3688L110.697 22.3648C110.622 21.8851 110.675 21.3442 110.676 20.856C110.677 19.1379 110.775 17.3505 110.602 15.648C110.529 14.9323 110.523 14.2953 110.158 13.6422C109.684 12.7897 108.936 12.1152 107.978 11.8569C107.028 11.601 105.653 11.6657 104.797 12.1708C104.056 12.6084 103.459 13.3063 103.166 14.1217C102.815 15.0999 102.89 16.2715 102.892 17.296L102.9 20.7632C102.902 21.2336 102.996 21.8988 102.883 22.3438C102.22 22.4273 101.533 22.3028 100.889 22.403L100.874 22.4054L100.707 22.2639C100.598 21.5972 100.667 20.8459 100.666 20.1654L100.668 15.9827C100.669 15.5903 100.587 14.5624 100.791 14.2469C100.908 14.0664 100.924 13.7135 100.983 13.4934C101.109 13.0288 101.328 12.4927 101.595 12.092C101.886 11.6528 102.263 11.2009 102.684 10.882C102.836 10.7671 103.229 10.5835 103.328 10.4547C103.369 10.4016 103.399 10.2427 103.422 10.173Z" fill="white"/>
<path d="M72.7061 10.4474C74.1533 9.46439 76.239 9.24809 77.9371 9.57188C79.2455 9.82134 80.8824 10.4732 81.5914 11.6977C81.6016 11.7152 81.6027 11.7298 81.6052 11.7494C81.5955 12.1252 81.7517 12.2683 81.8896 12.5889C82.0395 12.938 82.1268 13.2893 82.252 13.6422C82.3278 13.8557 82.4353 14.0423 82.4625 14.2727C82.5996 15.4335 82.5625 16.6293 82.5625 17.7962L82.5454 22.3634L80.3688 22.363L80.358 15.8707C80.3618 14.8121 80.0416 13.5939 79.281 12.8291C78.5221 12.0659 77.5864 11.7132 76.5156 11.7108C75.6417 11.7089 74.5822 11.9262 73.9422 12.5703C73.317 13.1995 72.8981 13.847 72.691 14.7199C72.5025 15.5146 72.6116 16.5519 72.6107 17.371L72.6073 22.364L70.3369 22.4123L70.27 16.1903C70.2808 15.5917 70.422 15.0352 70.4073 14.4408L70.4692 14.4603C70.6421 13.3219 71.0634 12.1603 71.8874 11.3228C72.1684 11.0371 72.5724 10.8243 72.7061 10.4474Z" fill="white"/>
<path d="M124.828 12.9454C124.799 12.9512 124.759 12.9111 124.734 12.893C123.723 12.1568 122.674 11.8492 121.431 11.9721C120.363 12.0776 119.337 12.5627 118.653 13.4023C117.878 14.3541 117.638 15.5916 117.764 16.7886C117.884 17.9508 118.42 18.8669 119.333 19.6014C120.2 20.2982 121.448 20.5086 122.532 20.391C123.663 20.2684 124.801 19.6283 125.431 18.6685C125.58 18.4404 125.701 18.043 125.876 17.8562C125.981 17.7424 128.232 17.8113 128.571 17.811C128.39 18.6954 127.976 19.6386 127.428 20.3581C126.346 21.7818 124.773 22.6109 123.016 22.8531C121.072 23.1209 119.056 22.6599 117.484 21.468C116.167 20.4681 115.326 18.8578 115.108 17.2354C114.864 15.4243 115.248 13.4974 116.372 12.0306C117.539 10.507 119.108 9.7527 120.983 9.50675C122.706 9.28083 124.687 9.64468 126.08 10.7128L126.082 10.7295L126.103 10.8281C126.176 11.1147 126.741 11.4979 126.95 11.7313C127.158 11.9636 127.373 12.2705 127.54 12.5333C127.892 13.0855 128.091 13.7023 128.232 14.3348C127.517 14.4221 126.772 14.3814 126.052 14.3771C125.785 13.8991 125.518 13.3074 125.053 12.9867L124.828 12.9454Z" fill="white"/>
<path d="M39.7102 4H42.281L42.3244 4.26006L42.319 11.3328C42.6167 11.0111 42.9568 10.543 43.3382 10.3291C44.2846 9.48138 45.6097 9.22439 46.8514 9.29214C48.3599 9.37443 49.8828 9.95194 50.9047 11.0963C51.2259 11.4561 51.5456 11.929 51.7476 12.3667C51.7054 12.9979 51.9676 13.4211 52.0839 14.0126C52.1749 14.4746 52.2099 15.0826 52.2406 15.559C52.2862 16.2676 52.2464 17.0017 52.2467 17.7134L52.2516 22.2803L49.9694 22.2901L49.9561 17.0649C49.9563 16.4342 50.0283 15.7057 49.9412 15.0845C49.8422 14.3788 49.5852 13.4868 49.097 12.9481C48.8215 12.6442 48.6223 12.3614 48.2044 12.3409L48.1239 12.3032C47.5274 12.0227 46.9077 11.8281 46.2439 11.8092C45.2907 11.782 44.2406 12.0151 43.5282 12.6925C42.9847 13.2093 42.662 13.8436 42.4903 14.566C42.2498 15.5779 42.3336 16.6604 42.3332 17.6955L42.3203 22.5641L39.6772 22.5264L39.6922 4.23772L39.7102 4ZM39.7102 4L39.6922 4.23772L39.6772 22.5264L42.3203 22.5641L42.3332 17.6955C42.3336 16.6604 42.2498 15.5779 42.4903 14.566C42.662 13.8436 42.9847 13.2093 43.5282 12.6925C44.2406 12.0151 45.2907 11.782 46.2439 11.8092C46.9077 11.8281 47.5274 12.0227 48.1239 12.3032L48.0974 12.1831C47.7789 11.8549 47.4927 11.8091 47.0558 11.7778L47.0206 11.6761C46.2954 11.5086 45.5386 11.5697 44.8384 11.7701L44.8259 11.7735C44.1038 11.9804 43.7139 12.2552 43.1913 12.7876C42.8153 13.1706 42.4268 13.8396 42.2982 14.3705C42.0346 15.4586 42.1002 16.6964 42.0998 17.8115L42.1209 22.2715C41.3743 22.3585 40.5847 22.3184 39.8352 22.2754L39.8413 4.29199L42.0636 4.31034C42.1919 4.61841 42.1058 5.30796 42.1053 5.65475L42.1069 9.24034C42.1125 9.94053 42.0589 10.619 42.2144 11.3037L42.3984 11.3595C42.7284 11.2822 43.1129 10.7063 43.3809 10.468L43.3382 10.3291C42.9568 10.543 42.6167 11.0111 42.319 11.3328L42.3244 4.26006L42.281 4H39.7102Z" fill="white"/>
<path d="M39.7102 4H42.281L42.3244 4.26006L42.319 11.3328C42.6167 11.0111 42.9568 10.543 43.3382 10.3291L43.3809 10.468C43.1129 10.7063 42.7284 11.2822 42.3984 11.3595L42.2144 11.3037C42.0589 10.619 42.1125 9.94053 42.1069 9.24034L42.1053 5.65475C42.1058 5.30796 42.1919 4.61841 42.0636 4.31034L39.8413 4.29199L39.8352 22.2754C40.5847 22.3184 41.3743 22.3585 42.1209 22.2715L42.0998 17.8115C42.1002 16.6964 42.0346 15.4586 42.2982 14.3705C42.4268 13.8396 42.8153 13.1706 43.1913 12.7876C43.7139 12.2552 44.1039 11.9804 44.8259 11.7735L44.8384 11.7701C45.5386 11.5697 46.2954 11.5086 47.0206 11.6761L47.0558 11.7778C47.4927 11.8091 47.7789 11.8549 48.0974 12.1831L48.1239 12.3032C47.5274 12.0227 46.9077 11.8281 46.2439 11.8092C45.2907 11.782 44.2406 12.0151 43.5282 12.6925C42.9847 13.2093 42.662 13.8436 42.4903 14.566C42.2498 15.5779 42.3336 16.6604 42.3332 17.6955L42.3203 22.5641L39.6772 22.5264L39.6922 4.23772L39.7102 4ZM39.7102 4L39.6922 4.23772C40.0245 4.05589 40.2391 4.16435 40.5903 4.16671C41.1397 4.1704 41.738 4.08925 42.2698 4.2438L42.3244 4.26006L42.281 4H39.7102Z" fill="white"/>
<path d="M39.7102 4H42.281L42.3244 4.26006L42.2698 4.2438C41.738 4.08925 41.1397 4.1704 40.5903 4.16671C40.2391 4.16435 40.0245 4.05589 39.6922 4.23772L39.7102 4Z" fill="white"/>
<path d="M16.9913 9.3866L17.4346 9.43076C17.3505 9.56841 17.3237 9.7489 17.244 9.89885L16.2299 11.8287L13.5981 16.8894L12.7345 18.5575C12.5542 18.9158 12.3869 19.3349 12.1549 19.6615C11.657 20.3631 10.9863 21.0047 10.2738 21.4863C8.84395 22.4529 7.03291 22.7333 5.3536 22.4063C3.82567 22.1087 2.23898 21.1414 1.36396 19.838C0.257759 18.1903 -0.116783 16.4622 0.278768 14.5083C0.597053 12.936 1.73235 11.3547 3.06002 10.4762C4.77207 9.34328 6.61998 9.27376 8.56875 9.67818C10.0395 10.2469 11.0302 10.9549 12.0097 12.2015L10.5443 15.0493C10.1243 14.1329 9.70552 13.3445 8.84018 12.7649C8.03067 12.2228 6.90558 12.0049 5.94507 12.1967C4.93705 12.398 4.03581 12.9855 3.46485 13.8462C2.93342 14.6471 2.67371 15.7333 2.8674 16.6807C3.09372 17.7879 3.70692 18.6455 4.64726 19.2614C5.52326 19.8351 6.59 19.9609 7.59954 19.7498C8.42824 19.5766 9.08516 19.1113 9.62223 18.4708C10.2566 17.7142 10.713 16.5753 11.1597 15.6922L13.5335 11.1819C13.8587 10.5831 14.1249 9.96624 14.4999 9.39449L16.9913 9.3866Z" fill="white"/>
<path d="M134.39 19.332L134.51 19.4373C135.517 20.2908 136.751 20.4989 138.029 20.3914C139.283 20.2858 140.049 19.7292 140.835 18.7987L143.739 18.7993C143.15 20.2092 142.29 21.2476 140.977 22.0301C139.314 23.0211 137.147 23.1207 135.308 22.6533C133.716 22.2484 132.255 21.182 131.417 19.7658C130.436 18.1095 130.23 16.1135 130.709 14.2608C131.133 12.619 132.271 11.1853 133.729 10.3303C135.304 9.4065 137.573 9.22819 139.32 9.68409C140.58 10.0129 142.135 10.8622 142.815 12.0192C143.504 12.6914 143.848 13.7941 144.043 14.711C144.097 14.9676 144.111 15.4305 144.267 15.6221V17.0851L144.158 17.0557L144.091 17.2037L133.264 17.1852C133.506 18.0436 133.774 18.6613 134.39 19.332ZM136.804 11.9696C135.74 12.1329 134.7 12.5335 134.043 13.4283C133.757 13.8164 133.564 14.2642 133.37 14.7027L133.382 14.7683L138.103 14.7967C139.115 14.7979 140.239 14.7114 141.237 14.8291C141.308 14.6937 141.3 14.5604 141.254 14.415C140.98 13.544 140.197 12.7972 139.409 12.3962C138.598 11.984 137.7 11.896 136.804 11.9696ZM142.815 12.0192L142.813 12.0397L142.814 12.1633C142.828 12.468 143.149 12.8215 143.283 13.0963C143.478 13.5005 143.66 13.9652 143.782 14.397C143.855 14.6579 143.847 14.9921 143.868 15.2631C143.915 15.8294 143.963 16.3668 143.965 16.9369C142.901 17.031 141.806 16.9816 140.738 16.9783L135.62 16.9831C135.228 16.9857 134.82 17.0152 134.429 16.9994C134.148 16.988 133.796 16.9218 133.521 16.9669C133.344 16.996 133.284 17.0758 133.162 17.1964C133.122 17.7854 133.425 18.5394 133.818 18.985C133.994 19.1847 134.132 19.2868 134.39 19.332C133.774 18.6613 133.506 18.0436 133.264 17.1852L144.091 17.2037L144.158 17.0557L144.267 17.0851V15.6221C144.111 15.4305 144.097 14.9676 144.043 14.711C143.848 13.7941 143.504 12.6914 142.815 12.0192Z" fill="white"/>
<path d="M142.815 12.0192C143.504 12.6913 143.848 13.7941 144.043 14.711C144.097 14.9675 144.111 15.4304 144.267 15.6221V17.085L144.158 17.0557L144.091 17.2037L133.264 17.1852C133.506 18.0435 133.774 18.6613 134.39 19.3319C134.132 19.2868 133.994 19.1847 133.818 18.9849C133.425 18.5393 133.122 17.7854 133.162 17.1964C133.284 17.0758 133.344 16.9959 133.521 16.9669C133.796 16.9217 134.148 16.9879 134.429 16.9993C134.82 17.0151 135.228 16.9856 135.62 16.9831L140.738 16.9783C141.806 16.9815 142.901 17.031 143.965 16.9368C143.963 16.3668 143.915 15.8294 143.868 15.2631C143.847 14.992 143.855 14.6578 143.782 14.3969C143.66 13.9652 143.478 13.5005 143.283 13.0962C143.149 12.8214 142.828 12.468 142.814 12.1632L142.813 12.0396L142.815 12.0192Z" fill="white"/>
<path d="M90.6365 9.51536L90.6569 9.51121C91.008 9.44091 91.3849 9.4636 91.7414 9.46695C93.1538 9.4802 94.5049 9.81376 95.688 10.614C97.0098 11.5082 98.0471 13.0162 98.3467 14.5933C98.7156 16.5393 98.4409 18.479 97.312 20.1304C96.2543 21.6776 94.64 22.5013 92.8383 22.8411L92.5876 22.8711C90.6436 23.0877 88.6437 22.6367 87.1007 21.3993C85.8056 20.3608 84.9599 18.7283 84.7845 17.0839C84.5942 15.2995 84.9906 13.3548 86.1447 11.9399C87.2957 10.5288 88.8256 9.70297 90.6365 9.51536ZM91.0507 11.9756C89.8889 12.1888 88.882 12.6181 88.1899 13.6219C87.5062 14.6134 87.2771 15.9183 87.4959 17.0945C87.6924 18.1511 88.2862 19.1059 89.1778 19.7123C90.1351 20.3636 91.0916 20.4232 92.2107 20.3972C93.3885 20.2029 94.3671 19.7006 95.08 18.713C95.7503 17.7851 95.9271 16.475 95.7458 15.366C95.5636 14.2515 95.0196 13.3257 94.0925 12.661C93.2356 12.0464 92.0845 11.86 91.0507 11.9756Z" fill="white"/>
<path d="M65.7827 20.3384C65.5088 20.598 65.2922 20.9131 65.0361 21.1905C64.5979 21.6649 64.097 22.0501 63.519 22.3434C62.1522 23.0368 60.2474 23.0133 58.8126 22.5471C57.232 22.0335 55.901 20.9835 55.1416 19.4899C54.2315 17.6997 54.1642 15.5833 54.7855 13.6882C55.297 12.1279 56.5305 10.7374 57.9923 10.0046C59.6762 9.16058 62.1098 9.10607 63.8801 9.69966C65.3858 10.2045 66.6705 11.3024 67.3773 12.7233C67.3749 12.8909 67.3537 13.1185 67.4007 13.2783C67.5106 13.6524 67.7691 14.0439 67.8213 14.45C67.8758 14.8745 67.9538 15.3264 67.9734 15.7531L67.9643 20.7174C67.9647 21.0964 68.0879 21.9521 67.9656 22.2744L65.9594 22.2894C65.9596 21.9032 66.0875 20.6509 65.8765 20.3819L65.7827 20.3384ZM60.8518 11.8369C59.6698 12.0104 58.6274 12.4538 57.8975 13.4408C57.2397 14.3302 56.961 15.642 57.128 16.7289C57.2911 17.7912 57.7527 18.8378 58.6437 19.4881C59.7113 20.2672 60.6613 20.3505 61.9367 20.3271C63.0906 20.1246 64.122 19.6319 64.8101 18.6431C65.4298 17.7523 65.693 16.4228 65.498 15.3541C65.2867 14.1957 64.8007 13.2112 63.8031 12.5249C63.0356 11.997 61.7787 11.6644 60.8518 11.8369Z" fill="white"/>
<path d="M23.874 27.9999L23.8635 19.557L23.8668 16.8184C23.8691 15.9692 23.857 15.1583 24.0539 14.3247C24.3359 13.1303 24.9364 11.9923 25.8064 11.1199C27.1292 9.79352 28.9607 9.28583 30.7912 9.28589C32.5871 9.28596 34.4778 9.90238 35.7613 11.1899C37.0734 12.506 37.7524 14.358 37.7392 16.2093C37.727 17.928 37.1069 19.8329 35.8505 21.05C34.914 21.9571 33.5758 22.6414 32.2787 22.8303C31.7586 22.9061 31.1884 22.8835 30.6625 22.874C29.6127 22.855 28.3262 22.4202 27.5284 21.7384C27.1822 21.4428 26.8967 21.0622 26.5207 20.8054L26.5423 26.033C26.542 26.6326 26.6378 27.4202 26.5076 27.9999H23.874ZM30.2548 11.8306C29.0452 12.0516 28.0233 12.4705 27.2926 13.5235C26.633 14.4743 26.3978 15.8094 26.6076 16.9394C26.8075 18.016 27.3804 19.0382 28.2972 19.6692C29.0902 20.2151 30.3599 20.5374 31.3212 20.3557L31.4764 20.3198C32.5876 20.1966 33.4948 19.6258 34.1899 18.7581C34.9619 17.7942 35.0739 16.4774 34.9396 15.2983C34.8325 14.3585 34.29 13.3404 33.5452 12.7508C32.6268 12.0238 31.4566 11.7019 30.2898 11.8251L30.2548 11.8306Z" fill="white"/>
</g>
<defs>
<clipPath id="clip0_450_1167">
<rect width="144.267" height="24" fill="white" transform="translate(0 4)"/>
</clipPath>
</defs>
</svg>
