<svg width="107" height="32" viewBox="0 0 107 32" fill="none" xmlns="http://www.w3.org/2000/svg">
<g clip-path="url(#clip0_449_1023)">
<path d="M83.6894 14.5545V17.6354H74.0099V21.687H84.0275V25H70.6495C70.6706 21.5392 70.6706 18.0785 70.6706 14.5545H83.6894ZM11.6636 7.0422C11.8538 7.0422 11.9595 7.08441 12.044 7.27433C14.6435 13.0985 17.2642 18.9227 19.8637 24.7257C19.8849 24.7889 19.9059 24.8523 19.9482 24.9578H18.6168C17.9405 24.9578 17.2853 24.9367 16.6091 24.9578C16.3554 24.9578 16.2286 24.8945 16.123 24.6413C14.5801 21.1172 13.0373 17.5721 11.4945 14.0481C11.0295 12.993 10.5646 11.9168 10.0785 10.7984C10.0151 10.9461 9.97281 11.0305 9.90945 11.136C7.9228 15.6307 5.95731 20.1254 3.99182 24.6202C3.88615 24.8523 3.78047 24.9367 3.50573 24.9367C2.60963 24.9198 1.72706 24.93 0.836377 24.9131L0.166504 24.8945C0.229907 24.7889 0.29331 24.6835 0.356713 24.578C2.9351 18.8382 5.51348 13.0985 8.09188 7.35873C8.19755 7.12661 8.30322 7.0422 8.57797 7.0422C9.61353 7.06331 10.6492 7.06331 11.6636 7.0422ZM27.3452 7.10551C27.5566 7.10551 27.6622 7.16882 27.768 7.33763C29.5009 9.72216 31.234 12.0856 32.967 14.4701C33.0304 14.5545 33.0938 14.66 33.1995 14.7655C33.284 14.66 33.3474 14.5756 33.4108 14.4912C35.1438 12.1067 36.8769 9.74326 38.6098 7.35873C38.7578 7.16882 38.8846 7.10551 39.1171 7.10551C40.1738 7.12661 41.2517 7.10551 42.3084 7.10551H42.6465V24.9578H39.3072V12.1278C39.2862 12.1067 39.265 12.1067 39.2439 12.0856C39.1805 12.17 39.1171 12.2544 39.0537 12.3388C37.2572 14.7233 35.4608 17.1078 33.6644 19.4924C33.3474 19.9145 32.8824 19.9145 32.5866 19.4713C30.8535 17.0868 29.0994 14.7233 27.3664 12.3388C27.3029 12.2544 27.2396 12.1489 27.1551 12.0645C27.1339 12.0856 27.1128 12.0856 27.0916 12.1067V24.9578H23.7313V7.12661C23.8158 7.12661 23.9215 7.10551 24.0061 7.10551H27.3452ZM99.117 7C100.153 7 101.147 7.21102 102.076 7.65416C104.211 8.64596 105.5 10.7984 105.373 13.1829C105.331 13.9426 105.225 14.6811 104.951 15.3775C104.274 17.0657 102.985 18.0363 101.273 18.5006C101.147 18.5217 101.04 18.5639 100.872 18.6061C101.04 18.796 101.167 18.9649 101.316 19.1126C102.921 20.9062 104.507 22.6999 106.113 24.5146C106.197 24.6202 106.261 24.7679 106.367 24.9367H102.52C102.372 24.9367 102.203 24.8523 102.098 24.7467C100.491 22.9109 98.8848 21.0962 97.2999 19.2392C97.11 19.0281 96.9192 18.9437 96.6447 18.9437C95.715 18.9649 94.7637 18.9437 93.8124 18.9437V24.9156C92.6505 24.8945 91.5516 24.8945 90.4104 24.8945V15.8628H90.7902C93.4326 15.8628 96.0741 15.8839 98.7372 15.8839C99.2016 15.8839 99.6885 15.8417 100.132 15.7151C101.421 15.3353 102.139 14.1114 101.992 12.6131C101.865 11.347 100.872 10.3341 99.5616 10.1864C99.2862 10.1442 98.991 10.1442 98.7156 10.1442H90.4311V7.0211C90.495 7.0211 90.5796 7 90.6426 7H99.117ZM57.821 7C58.8988 7 59.9555 7.18992 60.9488 7.63306C62.6607 8.41384 63.5484 9.76436 63.7174 11.6213C63.8865 13.4572 63.1891 14.8077 61.4772 15.6307C61.5195 15.6729 61.5617 15.694 61.5829 15.7151C63.4427 16.3693 64.3937 18.4795 64.2881 19.9777C64.1613 22.0457 63.2525 23.544 61.2869 24.3037C60.7163 24.5146 60.1034 24.6835 59.5117 24.7679C58.8565 24.8734 58.1802 24.9156 57.525 24.9156H49.0925V14.3013H49.4729C52.326 14.2591 55.1792 14.238 58.0111 14.1747C58.4127 14.1536 58.8354 14.0692 59.2159 13.9214C60.2937 13.5205 60.6952 12.4654 60.188 11.4314C59.8076 10.6506 59.1101 10.2708 58.2859 10.1231C58.0111 10.0809 57.7153 10.0598 57.4405 10.0598C54.7776 10.0387 52.1358 10.0387 49.4729 10.0176H49.0925V7.0211C49.177 7.0211 49.2404 7 49.325 7H57.821ZM57.5885 17.1712H52.7064C52.6008 17.1712 52.5163 17.1922 52.4106 17.1922V21.7503C54.3338 21.7503 56.1936 21.7714 58.0746 21.7503C58.7086 21.7503 59.3004 21.5814 59.871 21.2861C60.3571 21.0328 60.7163 20.6741 60.8643 20.1466C61.0968 19.3447 60.8009 18.5639 60.0612 17.9941C59.3426 17.4455 58.4972 17.1712 57.5885 17.1712ZM84.0487 7.10551V10.3341H70.6706V7.10551H84.0487Z" fill="white"/>
</g>
<defs>
<clipPath id="clip0_449_1023">
<rect width="106.2" height="18" fill="white" transform="translate(0.166504 7)"/>
</clipPath>
</defs>
</svg>
