<svg width="89" height="32" viewBox="0 0 89 32" fill="none" xmlns="http://www.w3.org/2000/svg">
<g clip-path="url(#clip0_449_1023)">
<path d="M69.6189 14.7954V17.3628H61.5527V20.7392H69.9007V23.5H58.7523C58.7699 20.616 58.7699 17.7321 58.7699 14.7954H69.6189ZM9.59738 8.53517C9.75593 8.53517 9.84398 8.57034 9.91441 8.72861C12.0807 13.5821 14.2646 18.4355 16.4309 23.2714C16.4485 23.3241 16.466 23.3769 16.5013 23.4648H15.3917C14.8282 23.4648 14.2822 23.4473 13.7186 23.4648C13.5073 23.4648 13.4016 23.4121 13.3136 23.2011C12.0278 20.2644 10.7422 17.3101 9.45654 14.3734C9.06901 13.4941 8.68156 12.5973 8.27648 11.6653C8.22368 11.7884 8.18843 11.8587 8.13563 11.9467C6.48009 15.6923 4.84218 19.4378 3.20427 23.1835C3.11622 23.3769 3.02815 23.4473 2.7992 23.4473C2.05245 23.4332 1.31697 23.4417 0.574738 23.4276L0.01651 23.4121C0.0693459 23.3241 0.122182 23.2362 0.175017 23.1483C2.32368 18.3652 4.47233 13.5821 6.62099 8.79894C6.70905 8.60551 6.79711 8.53517 7.02606 8.53517C7.88904 8.55275 8.75206 8.55275 9.59738 8.53517ZM22.6655 8.58792C22.8416 8.58792 22.9296 8.64068 23.0177 8.78136C24.4619 10.7685 25.9061 12.738 27.3503 14.7251C27.4031 14.7954 27.4559 14.8834 27.544 14.9713C27.6144 14.8834 27.6673 14.813 27.7201 14.7427C29.1643 12.7556 30.6085 10.7861 32.0526 8.79894C32.1759 8.64068 32.2816 8.58792 32.4753 8.58792C33.3559 8.60551 34.2542 8.58792 35.1347 8.58792H35.4165V23.4648H32.6338V12.7732C32.6162 12.7556 32.5986 12.7556 32.581 12.738C32.5282 12.8083 32.4753 12.8787 32.4225 12.949C30.9254 14.9361 29.4284 16.9232 27.9314 18.9103C27.6673 19.262 27.2798 19.2621 27.0332 18.8928C25.589 16.9056 24.1273 14.9361 22.6831 12.949C22.6302 12.8787 22.5774 12.7907 22.507 12.7204C22.4894 12.738 22.4717 12.738 22.4541 12.7556V23.4648H19.6538V8.60551C19.7243 8.60551 19.8123 8.58792 19.8828 8.58792H22.6655ZM82.4753 8.5C83.3385 8.5 84.1665 8.67585 84.9413 9.04513C86.7203 9.87163 87.7943 11.6653 87.6885 13.6524C87.6533 14.2855 87.5655 14.9009 87.3368 15.4812C86.7728 16.8881 85.6988 17.697 84.2723 18.0838C84.1665 18.1014 84.078 18.1366 83.9378 18.1718C84.078 18.33 84.1838 18.4707 84.3075 18.5938C85.6455 20.0885 86.967 21.5832 88.305 23.0955C88.3755 23.1835 88.4288 23.3066 88.5165 23.4473H85.311C85.188 23.4473 85.047 23.3769 84.9593 23.2889C83.6205 21.7591 82.2818 20.2468 80.961 18.6993C80.8028 18.5235 80.6438 18.4531 80.415 18.4531C79.6403 18.4707 78.8475 18.4531 78.0548 18.4531V23.4297C77.0865 23.4121 76.1708 23.4121 75.2198 23.4121V15.8857H75.5363C77.7383 15.8857 79.9395 15.9033 82.1588 15.9033C82.5458 15.9033 82.9515 15.8681 83.3213 15.7626C84.3953 15.4461 84.9938 14.4261 84.8708 13.1776C84.765 12.1225 83.9378 11.2784 82.8458 11.1553C82.6163 11.1202 82.3703 11.1202 82.1408 11.1202H75.237V8.51759C75.2903 8.51759 75.3608 8.5 75.4133 8.5H82.4753ZM48.0619 8.5C48.9601 8.5 49.8407 8.65827 50.6684 9.02755C52.095 9.6782 52.8347 10.8036 52.9756 12.3511C53.1165 13.881 52.5353 15.0064 51.1088 15.6923C51.144 15.7274 51.1792 15.745 51.1968 15.7626C52.7467 16.3077 53.5392 18.0662 53.4512 19.3148C53.3455 21.0381 52.5881 22.2866 50.9502 22.9197C50.4747 23.0955 49.964 23.2362 49.4708 23.3066C48.9248 23.3945 48.3613 23.4297 47.8153 23.4297H40.7882V14.5844H41.1052C43.4828 14.5492 45.8604 14.5316 48.2204 14.4789C48.555 14.4613 48.9073 14.391 49.2243 14.2679C50.1225 13.9338 50.4571 13.0545 50.0344 12.1928C49.7174 11.5422 49.1362 11.2257 48.4493 11.1026C48.2204 11.0674 47.9738 11.0498 47.7449 11.0498C45.5258 11.0322 43.3243 11.0322 41.1052 11.0147H40.7882V8.51759C40.8586 8.51759 40.9115 8.5 40.9819 8.5H48.0619ZM47.8682 16.976H43.7998C43.7117 16.976 43.6413 16.9935 43.5533 16.9935V20.7919C45.1559 20.7919 46.7057 20.8095 48.2732 20.7919C48.8016 20.7919 49.2947 20.6512 49.7702 20.405C50.1753 20.194 50.4747 19.895 50.598 19.4555C50.7917 18.7872 50.5451 18.1366 49.9288 17.6618C49.3299 17.2046 48.6254 16.976 47.8682 16.976ZM69.9183 8.58792V11.2784H58.7699V8.58792H69.9183Z" fill="white"/>
</g>
<defs>
<clipPath id="clip0_449_1023">
<rect width="88.5" height="15" fill="white" transform="translate(0.01651 8.5)"/>
</clipPath>
</defs>
</svg>
