<svg width="32" height="32" viewBox="0 0 32 32" fill="none" xmlns="http://www.w3.org/2000/svg">
<g clip-path="url(#clip0_756_1892)">
<path d="M0.0208347 32.0001C-0.00139777 31.5554 -0.00880861 31.1108 0.0134239 30.6661C0.161641 30.6217 0.309857 30.592 0.465485 30.5698C0.910135 30.4957 1.35479 30.3845 1.78461 30.2585C1.90319 30.2215 2.02176 30.177 2.14033 30.1326C2.71097 29.9102 3.21491 29.5397 3.60027 29.0654C3.86706 28.7319 4.0968 28.3688 4.29689 27.9908C4.5785 27.4721 4.82306 26.9311 5.04538 26.3827C5.49003 25.271 5.93468 24.1668 6.37192 23.0552C7.88373 19.2312 9.39555 15.4072 10.9074 11.5832C12.3376 7.94451 13.7457 4.30578 15.1241 0.64483C15.1538 0.570721 15.1834 0.496613 15.2131 0.422504C15.7244 0.281698 16.2209 0.133482 16.7397 -0.00732422C16.7693 0.0667842 16.799 0.133482 16.8212 0.200179C17.4067 1.83056 17.9921 3.46095 18.5702 5.09874C20.5637 10.6643 22.5572 16.2224 24.6026 21.7657C25.1658 23.2775 25.729 24.7968 26.2997 26.3086C26.522 26.9237 26.7888 27.5314 27.0926 28.1094C27.226 28.3614 27.3668 28.5985 27.5225 28.8357C27.9967 29.5767 28.7304 30.1029 29.5827 30.3252C30.0421 30.4438 30.5016 30.5402 30.9759 30.5994L31.3094 30.6513C31.3539 30.7995 31.3316 30.9403 31.3316 31.0811C31.3316 31.2219 31.3316 31.385 31.3316 31.5332C31.339 31.6814 31.3316 31.8222 31.3242 31.9704C31.2798 31.9779 31.2427 31.9853 31.1982 31.9927C31.1464 31.9927 31.0945 31.9927 31.0426 31.9927H19.4743C19.4595 31.9704 19.4521 31.9408 19.4446 31.9112C19.4446 31.511 19.4446 31.1108 19.4446 30.7106C19.4446 30.6958 19.4521 30.6735 19.4595 30.6587C19.5558 30.6291 19.6521 30.6143 19.7559 30.5994C20.2376 30.5327 20.7119 30.4438 21.1862 30.3178C21.3715 30.266 21.5641 30.1993 21.742 30.1251C21.8309 30.0881 21.9199 30.0436 22.0088 29.9918C22.4757 29.7324 22.6609 29.3248 22.6165 28.806C22.5942 28.5689 22.5572 28.3391 22.4905 28.1094C22.3942 27.7537 22.2682 27.4054 22.1496 27.0645C19.7188 20.2836 17.3177 13.4952 14.9389 6.69207C14.9166 6.61797 14.9018 6.53645 14.8277 6.46975C14.8055 6.48457 14.7684 6.49939 14.7536 6.51421C14.7313 6.55127 14.7165 6.58832 14.7091 6.62538C13.5456 9.96766 12.308 13.2877 11.0778 16.6004C10.1663 19.0534 9.25474 21.5138 8.4099 23.989C8.06901 24.982 7.74293 25.9825 7.42426 26.983C7.29828 27.3683 7.20935 27.7611 7.15006 28.1539C7.1056 28.4207 7.09819 28.6874 7.12783 28.9616C7.16488 29.31 7.35015 29.6286 7.63918 29.8361C7.82445 29.9695 8.03195 30.0733 8.25428 30.1474C8.60259 30.2734 8.95831 30.3623 9.32144 30.4216C9.72162 30.4957 10.1218 30.555 10.5294 30.6143C10.559 30.6217 10.5813 30.6217 10.6183 30.6291C10.6257 30.6587 10.6332 30.6884 10.6406 30.718C10.6406 31.1034 10.6406 31.4962 10.6406 31.8815C10.6406 31.9037 10.6332 31.926 10.6257 31.9482C10.5887 31.9556 10.5516 31.963 10.5146 31.963C10.4627 31.963 10.4108 31.963 10.359 31.963L0.0208347 32.0001Z" fill="white"/>
</g>
<defs>
<clipPath id="clip0_756_1892">
<rect width="31.333" height="32" fill="white"/>
</clipPath>
</defs>
</svg>
