<svg width="49" height="32" viewBox="0 0 49 32" fill="none" xmlns="http://www.w3.org/2000/svg">
<g clip-path="url(#clip0_449_834)">
<path d="M29.6446 25.779L31.336 25.793L31.8452 25.7832C31.9178 25.7813 31.996 25.7662 32.0614 25.8023L32.067 25.9767C32.0133 26.0383 31.7646 26.0254 31.6689 26.0428C31.5505 26.0645 31.4371 26.1202 31.3715 26.2248C31.3126 26.3186 31.2934 26.4201 31.2843 26.5289C31.2631 26.7824 31.2741 27.0425 31.2738 27.297L31.2731 28.5963L31.2729 30.1163C31.2731 30.4325 31.2383 30.7989 31.3155 31.1073C31.3455 31.2272 31.4272 31.3489 31.5361 31.4106C31.8293 31.5767 32.2251 31.5853 32.5524 31.5861C32.8555 31.5869 33.1566 31.5832 33.4491 31.4929C33.9937 31.3249 34.0544 30.9516 34.2846 30.5112C34.3511 30.5051 34.3934 30.5151 34.4553 30.5391C34.4714 30.6137 34.4394 30.7001 34.4222 30.7734L34.1442 31.8798C33.6546 31.8362 33.1501 31.8556 32.6583 31.855L30.3493 31.8579L29.8268 31.8668C29.7921 31.8685 29.682 31.8868 29.6576 31.8776C29.643 31.872 29.6328 31.8584 29.6204 31.8488L29.6214 31.6628C29.7224 31.6112 29.9027 31.6436 30.0195 31.6161C30.1449 31.5866 30.264 31.5095 30.33 31.3977C30.3844 31.3055 30.4007 31.1746 30.4081 31.0688C30.4497 30.4748 30.4123 29.8476 30.4124 29.25L30.4117 27.4613C30.4113 27.1149 30.4641 26.6799 30.3682 26.3488C30.2979 26.1064 30.1007 26.0372 29.8738 26.0247C29.7913 26.0202 29.694 26.0294 29.6211 25.9884C29.6191 25.9131 29.6134 25.8496 29.6446 25.779Z" fill="white"/>
<path d="M45.744 32C45.4881 31.9457 45.2298 31.9014 44.983 31.8138C44.9006 31.7846 44.8121 31.7609 44.7408 31.709L44.554 30.428C44.6406 30.432 44.703 30.4191 44.7728 30.4741C44.9086 30.937 45.1365 31.3435 45.5716 31.5875C45.8468 31.7418 46.2254 31.7479 46.5231 31.6616C46.8247 31.5743 47.0425 31.3644 47.1891 31.094C47.3312 30.8321 47.3429 30.4432 47.2539 30.1614C47.2132 30.0327 47.1214 29.9154 47.0354 29.814C46.7312 29.4551 46.2764 29.2737 45.8728 29.0528C45.5386 28.8699 45.2412 28.656 45.0194 28.3439C44.8158 28.0576 44.7365 27.7902 44.7333 27.4379C44.7306 27.1384 44.7578 26.8434 44.8923 26.5705C45.0883 26.1729 45.4391 25.8965 45.8572 25.7614C46.4631 25.5656 47.0519 25.6832 47.6607 25.7769L47.8048 26.8721L47.7821 26.9041L47.6193 26.9027C47.5618 26.8341 47.5558 26.7027 47.5275 26.6169C47.3899 26.1985 47.0038 25.9718 46.5836 25.9381C46.3002 25.9153 46.0127 25.9805 45.7941 26.1678C45.5481 26.3785 45.4574 26.6943 45.4384 27.0064C45.4207 27.2983 45.5224 27.5887 45.7161 27.8062C46.0001 28.125 46.3723 28.2882 46.7451 28.478C47.5061 28.8651 48.174 29.3282 48.1239 30.2849C48.0978 30.7832 47.925 31.147 47.5503 31.4808C47.1943 31.798 46.7956 31.8784 46.355 32H45.744Z" fill="white"/>
<path d="M23.1616 25.779L27.4103 25.7662L27.4112 26.6713C27.411 26.7936 27.4321 26.9679 27.3909 27.0814C27.3559 27.0964 27.3155 27.1176 27.2768 27.1176C27.2688 27.1175 27.2364 27.1139 27.2324 27.1117C27.2206 27.1052 27.1852 26.9532 27.1804 26.9345C27.1261 26.7215 27.0484 26.5178 26.888 26.3596C26.5809 26.0567 26.0784 26.0697 25.6772 26.0679L24.8169 26.0746L24.8166 28.5329L26.0707 28.5272C26.3501 28.4989 26.5972 28.3535 26.6568 28.0581C26.6739 27.9732 26.6667 27.8461 26.7215 27.779C26.7785 27.7749 26.8199 27.7675 26.87 27.7982C26.8375 28.1896 26.8476 28.5958 26.8532 28.9885C26.8554 29.138 26.9244 29.6296 26.8542 29.7384L26.7395 29.7436C26.7262 29.7358 26.7068 29.7337 26.6998 29.72C26.6914 29.7039 26.6937 29.6224 26.6921 29.6C26.6846 29.4983 26.6795 29.3916 26.6577 29.2918C26.6375 29.1993 26.5923 29.1183 26.5255 29.0516C26.4774 29.0036 26.4152 28.9629 26.3495 28.9449C26.1697 28.8954 25.96 28.9033 25.7749 28.9014L24.8174 28.9066L24.8158 29.6603C24.8139 30.0418 24.7422 31.1101 24.9743 31.3954C25.069 31.5119 25.2534 31.5522 25.3938 31.5728C25.6 31.603 25.827 31.5871 26.0355 31.5871C26.649 31.5873 27.263 31.5731 27.6061 30.9802C27.6804 30.8519 27.7617 30.5788 27.8672 30.5002L28.0183 30.533C28.0252 30.5452 28.0382 30.5557 28.0391 30.5698C28.0438 30.6493 27.9489 30.852 27.9244 30.9382L27.6846 31.8776L23.1587 31.8776L23.1279 31.8489L23.1291 31.6744C23.1808 31.6244 23.3331 31.6361 23.41 31.6297C23.563 31.6167 23.7302 31.5835 23.8319 31.4578C23.9097 31.3618 23.9247 31.228 23.9357 31.1089C23.9654 30.7911 23.9537 30.467 23.9541 30.1482L23.9547 28.6331L23.9543 27.3027C23.9541 27.0548 23.9682 26.7937 23.9436 26.5473C23.934 26.4518 23.9249 26.3325 23.8821 26.2462C23.7791 26.0387 23.4938 26.0339 23.294 26.0225C23.237 26.0192 23.1739 26.026 23.1277 25.9884C23.1262 25.9131 23.1141 25.8422 23.1616 25.779Z" fill="white"/>
<path d="M0.953613 31.6105C1.22686 31.5748 1.5109 31.5503 1.69018 31.312C1.97293 30.9362 2.10398 30.3815 2.25662 29.9386L2.64374 28.8611C3.00389 27.8618 3.40988 26.8592 3.70549 25.8396C3.76169 25.6457 3.75924 25.1674 3.75995 25.1665C3.7775 25.142 3.91301 25.0871 3.94643 25.0692C4.01184 25.0341 4.08154 25.0004 4.13594 24.9489C4.20768 24.8811 4.26537 24.7864 4.35996 24.7517L4.47008 24.7581C4.55112 24.8511 4.59608 25.032 4.64048 25.1493L5.03425 26.2481L5.63204 27.8837L6.18418 29.4189L6.70433 30.8621C6.77409 31.0374 6.82961 31.2319 6.95109 31.38C7.02718 31.4727 7.15295 31.5345 7.26747 31.5641C7.36433 31.5892 7.46923 31.5986 7.56871 31.6084C7.58047 31.6095 7.65952 31.6122 7.6649 31.6162C7.69218 31.6367 7.67871 31.8127 7.67761 31.8488L7.65004 31.8779L5.14339 31.875C5.09133 31.8127 5.11326 31.7198 5.11429 31.6395C5.25941 31.5198 5.77876 31.7053 5.81176 31.3817C5.83738 31.1301 5.72704 30.8782 5.64865 30.6441C5.50069 30.2024 5.30612 29.7551 5.19137 29.3054L2.89288 29.3062C2.75829 29.7269 2.27431 31.0119 2.44624 31.3846C2.48748 31.474 2.56601 31.5489 2.66218 31.5743C2.85538 31.6253 3.08028 31.609 3.27876 31.6094C3.32079 31.6784 3.30274 31.7684 3.30175 31.8488L3.26714 31.8798L0.953613 31.8837V31.6105ZM3.98404 26.0006L3.02561 28.9029L4.10419 28.8905L5.04143 28.8969L3.98404 26.0006Z" fill="white"/>
<path d="M9.3084 25.7791C9.63364 25.758 9.98754 25.7932 10.3158 25.7935C11.1433 25.7941 12.1054 25.6477 12.8816 25.977C13.2152 26.1186 13.5524 26.3855 13.687 26.7315C13.8259 27.0886 13.8474 27.5355 13.6907 27.8896C13.4713 28.3851 13.0451 28.6379 12.5634 28.821L13.3849 30.0349C13.7068 30.5249 14.0938 31.185 14.6019 31.5028C14.6865 31.5558 14.7939 31.6041 14.8929 31.6198C14.9725 31.6324 15.0597 31.6135 15.1314 31.6537C15.1378 31.7264 15.1532 31.8029 15.1256 31.8721L13.7279 31.8683L12.9023 30.8337L11.7321 29.0037C11.4806 28.9675 11.1882 28.9978 10.9323 28.9992C10.9679 29.5215 10.9418 30.0586 10.9419 30.5826C10.9419 30.7885 10.9233 31.0212 10.9567 31.2233C11.005 31.515 11.2258 31.6265 11.4996 31.6321C11.5709 31.6336 11.663 31.6193 11.7217 31.6629C11.7284 31.7408 11.7499 31.803 11.7074 31.8707L10.2309 31.8583L9.59102 31.8684C9.50978 31.8713 9.36073 31.8976 9.28931 31.8608C9.27459 31.7935 9.28426 31.7259 9.28931 31.6578C9.43521 31.6272 9.58435 31.6462 9.72878 31.6007C9.85573 31.5607 9.95516 31.4804 10.0149 31.3605C10.0509 31.2885 10.0624 31.1999 10.0678 31.1204C10.1086 30.5108 10.0724 29.8783 10.0724 29.2654L10.0717 27.4634L10.0714 26.8052C10.0707 26.6396 10.0808 26.4746 10.0214 26.3168C9.93359 26.0835 9.74635 26.0378 9.52178 26.0237C9.44321 26.0188 9.35916 26.0238 9.28631 25.992C9.28192 25.9147 9.27264 25.8507 9.3084 25.7791ZM11.2236 26.0778L10.9344 26.1208L10.9372 28.6698C11.4344 28.7319 11.9248 28.7295 12.3574 28.4383C12.6601 28.1926 12.8296 27.9164 12.8742 27.522C12.9109 27.1971 12.8346 26.7836 12.6264 26.5261C12.399 26.2449 12.0547 26.1148 11.702 26.0798C11.5472 26.0645 11.3784 26.0626 11.2236 26.0778Z" fill="white"/>
<path d="M16.7363 25.779C17.0598 25.7653 17.3972 25.7925 17.7226 25.792C18.5052 25.7905 19.4133 25.6742 20.136 26.0469C20.4274 26.1972 20.7152 26.4398 20.814 26.7639C20.9068 27.0684 20.9057 27.4493 20.7532 27.7331C20.4793 28.2425 19.972 28.43 19.4539 28.589C19.738 28.6131 20.0533 28.64 20.3196 28.7482C20.7867 28.9381 21.1594 29.2581 21.3567 29.7281C21.372 29.7646 21.3868 29.8003 21.3964 29.839C21.5017 30.2642 21.4088 30.6753 21.1904 31.0451L21.042 31.2226C20.3429 31.984 19.087 31.8696 18.1552 31.8581L16.7413 31.8774L16.7109 31.8488C16.7097 31.7826 16.7119 31.7209 16.7215 31.6554C16.8352 31.6339 16.9524 31.6414 17.0668 31.625C17.2008 31.6058 17.3172 31.5417 17.3964 31.431C17.4543 31.35 17.4771 31.2866 17.4879 31.1882C17.5228 30.8712 17.5043 30.5353 17.5044 30.216L17.5048 28.5796L17.5039 27.22C17.5036 26.9631 17.5262 26.6741 17.479 26.4217C17.423 26.1224 17.2179 26.0382 16.9408 26.0243C16.8665 26.0206 16.775 26.0309 16.7121 25.9883C16.7099 25.9127 16.7039 25.8497 16.7363 25.779ZM18.3647 28.8237L18.3692 30.4351C18.3695 30.6764 18.3384 30.9725 18.3881 31.208C18.4044 31.2849 18.4428 31.3668 18.5004 31.4219C18.5977 31.5152 18.7252 31.5471 18.8532 31.5703C19.2171 31.6364 19.7205 31.568 20.0197 31.3463L20.1808 31.2056C20.4495 30.8978 20.5366 30.5835 20.5102 30.1763C20.4851 29.7879 20.3702 29.417 20.0698 29.1536C19.5969 28.7388 18.9365 28.8563 18.3647 28.8237ZM18.4513 26.0806L18.3739 26.0971L18.3687 28.5336C18.8219 28.5341 19.2798 28.5527 19.6551 28.2565C19.9341 27.9493 20.029 27.5581 20.0081 27.1484C19.9916 26.8256 19.9365 26.5365 19.6855 26.3099C19.3973 26.0496 18.8531 26.0549 18.4852 26.0782L18.4513 26.0806Z" fill="white"/>
<path d="M39.0478 31.9999C38.8106 31.9472 38.5703 31.9057 38.3411 31.8235C37.7172 31.6 37.1258 31.1274 36.7698 30.5693C36.2998 29.8324 36.1491 28.9693 36.3441 28.1157C36.5314 27.2957 37.0813 26.5359 37.7982 26.0997C38.5222 25.6589 39.3507 25.5463 40.1723 25.7476C40.9244 25.9319 41.6601 26.4958 42.055 27.1581C42.4934 27.8932 42.6437 28.7303 42.4338 29.5668C42.2186 30.425 41.6885 31.1414 40.9274 31.5896C40.5377 31.8191 40.163 31.8975 39.7289 31.9999H39.0478ZM39.1378 25.9385C38.5783 26.0207 38.1358 26.2244 37.7881 26.6864C37.2667 27.3792 37.1574 28.3477 37.2811 29.1847C37.4056 30.027 37.7738 30.8875 38.4761 31.4046C38.7958 31.64 39.2301 31.7551 39.6251 31.7106L39.6265 31.71C40.1873 31.6557 40.6127 31.4513 40.9745 31.0083C41.448 30.4284 41.6188 29.4787 41.5418 28.7512C41.4475 27.8607 41.1232 26.9093 40.4023 26.3313C40.0181 26.0233 39.6254 25.9175 39.1378 25.9385Z" fill="white"/>
<path d="M23.9565 0H25.8719H48.5726V22.6583V23.655L48.2973 23.6655C48.2917 21.7985 47.6055 19.9348 46.3545 18.5405C44.9864 17.0157 43.056 16.0641 41.0044 15.9629C39.0684 15.8674 37.0128 16.527 35.5634 17.8345C34.2955 18.9784 33.409 20.4231 33.0676 22.1091C32.9644 22.6187 32.9295 23.137 32.9033 23.655L32.62 23.668C32.5796 22.2474 32.4454 20.8411 32.0439 19.4716C31.8109 18.6767 31.5318 17.8858 31.1832 17.1335C29.9876 14.553 28.0979 12.3458 25.7468 10.7499C25.2242 10.3951 24.6673 10.0865 24.1096 9.79157C23.489 9.46343 22.8113 9.19467 22.149 8.96576C18.9774 7.86962 15.5402 7.83167 12.3404 8.84586C8.79467 9.96967 5.7044 12.4045 3.78175 15.5895C2.90365 17.0441 2.28309 18.6229 1.90031 20.2764C1.73052 21.0099 1.62702 21.764 1.56806 22.5141L1.53204 23.2741C1.52956 23.3804 1.54804 23.5573 1.49998 23.6498L1.27909 23.6499L1.24878 23.6163C1.25805 22.3391 1.34906 21.071 1.5566 19.81C2.13836 16.275 3.54431 12.8583 5.62838 9.94343C8.95848 5.28581 13.9782 1.8612 19.5816 0.606791C20.477 0.406329 21.379 0.236808 22.2926 0.14241L23.3215 0.053881C23.5241 0.039103 23.7328 0.0391532 23.933 0.0042272L23.9565 0ZM25.8719 0L25.8935 0.00423983C26.0799 0.0393245 26.2764 0.0379881 26.4654 0.0511071L27.4595 0.132973C28.3573 0.22228 29.2578 0.38324 30.1378 0.581224C35.9213 1.88237 41.0111 5.36095 44.393 10.2205C46.3193 12.9883 47.6655 16.2587 48.2306 19.5834L48.4584 21.2558L48.5322 22.2396C48.5427 22.3711 48.5367 22.5327 48.5726 22.6583V0H25.8719Z" fill="white"/>
<path d="M23.9488 0.499987C24.239 0.473103 24.5445 0.480668 24.8361 0.480396L26.4915 0.534491C30.2963 0.807496 34.0036 1.98521 37.235 4.023C40.7258 6.22437 43.5789 9.30742 45.4854 12.9704C46.1001 14.1515 46.601 15.3856 47.0129 16.6511C47.329 17.6227 47.5234 18.6126 47.7484 19.6065C47.6604 19.5603 47.5142 19.2549 47.4482 19.1557L46.953 18.4779C46.0421 17.3461 44.8048 16.4841 43.4501 15.9711C41.4513 15.2141 39.1687 15.3133 37.2259 16.1898C35.1758 17.1148 33.6628 18.8252 32.8739 20.9166C32.811 20.4076 32.671 19.8816 32.5321 19.3874C31.988 17.4508 31.118 15.6807 29.928 14.0599L29.762 13.8435C27.1556 10.4489 23.2592 8.28289 19.0305 7.7328C15.7437 7.30523 12.281 7.98813 9.378 9.57808C7.87229 10.4027 6.52253 11.4632 5.34385 12.7097C4.66314 13.4295 4.03622 14.2437 3.50835 15.0821C3.42272 15.2181 3.32138 15.4597 3.19507 15.5568C4.22735 12.7631 5.81838 10.1763 7.83191 7.98265C11.983 3.46018 17.8215 0.760949 23.9488 0.499987Z" fill="white"/>
</g>
<defs>
<clipPath id="clip0_449_834">
<rect width="47.619" height="32" fill="white" transform="translate(0.953613)"/>
</clipPath>
</defs>
</svg>
