<svg width="126" height="32" viewBox="0 0 126 32" fill="none" xmlns="http://www.w3.org/2000/svg">
<g clip-path="url(#clip0_753_1492)">
<path d="M1.08984 9.73107V22.2698C1.08984 23.0385 1.53694 23.8071 2.17995 24.1888L13.0559 30.4582C13.7592 30.84 14.5931 30.84 15.2964 30.4582L26.1724 24.1888C26.8757 23.8071 27.2625 23.0385 27.2625 22.2698V9.73107C27.2625 8.96247 26.8154 8.19387 26.1724 7.81208L15.2914 1.54269C14.5881 1.1609 13.7542 1.1609 13.0509 1.54269L2.17493 7.81208C1.47163 8.19387 1.08984 8.96247 1.08984 9.73107Z" fill="black"/>
<path d="M16.5745 18.4319L15.0373 22.6567C14.972 22.7823 14.972 22.9129 15.0373 23.0385L17.7249 30.3327L20.7942 28.5393L17.0818 18.4319C17.0216 18.1757 16.7001 18.1757 16.5745 18.4319Z" fill="white"/>
<path d="M19.6416 11.2683C19.5762 11.0121 19.2598 11.0121 19.1292 11.2683L17.5919 15.4931C17.5266 15.6187 17.5266 15.7493 17.5919 15.8749L21.9423 27.841L25.0117 26.0476L19.6416 11.2683Z" fill="white"/>
<path d="M14.143 1.99016C14.2083 1.99016 14.2686 1.99016 14.3339 2.05547L26.104 8.83726C26.2296 8.90256 26.2949 9.02815 26.2949 9.21905V22.7826C26.2949 22.9082 26.2296 23.1041 26.104 23.1644L14.3339 29.9462C14.2686 30.0115 14.2083 30.0115 14.143 30.0115C14.0777 30.0115 14.0174 30.0115 13.9521 29.9462L2.18191 23.1644C2.05632 23.0991 1.99101 22.9735 1.99101 22.7826V9.21905C1.99101 9.09346 2.05632 8.89754 2.18191 8.83726L13.9521 2.05547C14.0124 1.99016 14.0777 1.99016 14.143 1.99016ZM14.143 0.00585938C13.6959 0.00585938 13.3091 0.131448 12.9273 0.327366L1.1571 7.10916C0.388502 7.55625 -0.0585938 8.32485 -0.0585938 9.21905V22.7826C-0.0585938 23.6165 0.388502 24.4454 1.1571 24.8925L12.9273 31.6743C13.3091 31.8652 13.6959 31.9958 14.143 31.9958C14.5901 31.9958 14.9769 31.8702 15.3587 31.6743L27.1288 24.8925C27.8975 24.4454 28.3445 23.6768 28.3445 22.7826V9.21905C28.3445 8.38514 27.8975 7.55625 27.1288 7.10916L15.419 0.327366C15.0372 0.136472 14.6504 0.00585938 14.2033 0.00585938H14.143Z" fill="#B3B3B3"/>
<path d="M6.40234 27.8364L7.48743 24.8926L9.66263 26.686L7.61804 28.605L6.40234 27.8364Z" fill="black"/>
<path d="M13.1821 8.25928H10.173C9.98211 8.25928 9.72591 8.38487 9.6606 8.58078L3.26562 26.1079L6.33501 27.9014L13.373 8.64107C13.4383 8.45017 13.3077 8.25928 13.1168 8.25928H13.1821Z" fill="white"/>
<path d="M18.3615 8.2595H15.3524C15.1615 8.2595 14.9053 8.38509 14.8399 8.58101L7.55078 28.5396L10.6202 30.333L18.5523 8.58101C18.6177 8.39011 18.487 8.19922 18.2962 8.19922L18.3615 8.2595Z" fill="white"/>
<path d="M41.0109 11.9062C41.3324 11.9062 41.5886 11.9716 41.7795 12.0971C41.9704 12.2227 42.1613 12.4789 42.3572 12.8004L46.2605 19.8384C46.3258 19.9037 46.3258 19.964 46.2605 20.0293C46.2605 20.0946 46.1952 20.0946 46.0696 20.0946H44.5977C44.4721 20.0946 44.4068 20.0293 44.3415 19.969L43.5026 18.4318H38.0018L37.1679 19.969C37.1026 20.0946 37.0423 20.0946 36.9117 20.0946H35.3745C35.2489 20.0946 35.1836 20.0946 35.1836 20.0293C35.1836 19.964 35.1836 19.9037 35.1836 19.8384L39.0216 12.8004C39.2125 12.4187 39.4034 12.2227 39.5993 12.0971C39.7952 11.9716 39.9811 11.9062 40.2373 11.9062H40.9406H41.0109ZM38.7051 17.0906H42.734L40.8803 13.6344C40.815 13.569 40.815 13.569 40.7547 13.569H40.6894C40.6241 13.569 40.5638 13.569 40.5638 13.6344L38.7051 17.0906Z" fill="white"/>
<path d="M54.7661 11.9062C55.6603 11.9062 56.3033 12.0971 56.6851 12.5442C57.0669 12.926 57.2628 13.569 57.2628 14.3376V14.9756C57.2628 15.6789 57.1372 16.1913 56.881 16.5731C56.6248 16.9549 56.1777 17.2111 55.5398 17.3417L57.5241 19.8384C57.5894 19.9037 57.5894 19.964 57.5894 20.0293C57.5894 20.0946 57.5241 20.1549 57.3985 20.1549H55.8613C55.7357 20.1549 55.6704 20.1549 55.6704 20.0896C55.6051 20.0896 55.6051 20.0243 55.5448 19.964L53.6911 17.5326H49.9184V19.8987C49.9184 20.0896 49.8531 20.1549 49.6622 20.1549H48.3812C48.1903 20.1549 48.125 20.0896 48.125 19.8987V12.288C48.125 12.0318 48.2506 11.9062 48.5068 11.9062H54.8415H54.7661ZM49.9033 16.126H54.3793C54.7611 16.126 55.0826 16.0607 55.2132 15.8698C55.4041 15.6789 55.4694 15.4227 55.4694 15.1012V14.5888C55.4694 14.207 55.4041 13.9508 55.2132 13.8202C55.0223 13.6293 54.7661 13.564 54.3793 13.564H50.0289C49.9033 13.564 49.9033 13.6293 49.9033 13.6896V16.126Z" fill="white"/>
<path d="M67.1128 11.9062C67.9467 11.9062 68.5194 12.0971 68.8409 12.4187C69.1624 12.7402 69.3533 13.2526 69.3533 13.8906V14.4683C69.3533 15.1063 69.0971 15.6187 68.5847 15.9402C69.0971 16.2617 69.4186 16.7741 69.4186 17.4774V18.1807C69.4186 18.5022 69.3533 18.7584 69.293 19.0146C69.2327 19.2708 69.1021 19.4617 68.9715 19.6526C68.7806 19.8435 68.5897 19.9741 68.3335 20.0344C68.0773 20.0997 67.7558 20.1599 67.374 20.1599H60.4013C60.1451 20.1599 60.0195 20.0344 60.0195 19.7782V12.2931C60.0195 12.0369 60.1451 11.9113 60.4013 11.9113H67.1831H67.1128V11.9062ZM61.8029 15.2971H66.6004C66.9822 15.2971 67.2384 15.2318 67.369 15.1063C67.4996 14.9807 67.5599 14.85 67.5599 14.5938V14.2121C67.5599 13.9559 67.4946 13.765 67.369 13.6997C67.2434 13.5741 66.9872 13.5088 66.731 13.5088H61.9335C61.8079 13.5088 61.8079 13.5741 61.8079 13.6344V15.2971H61.8029ZM61.8029 16.5781V18.3062C61.8029 18.4318 61.8682 18.4318 61.9285 18.4318H66.726C67.0475 18.4318 67.2384 18.3665 67.364 18.2409C67.4895 18.1154 67.5549 17.9194 67.5549 17.7285V17.2814C67.5549 17.0252 67.4895 16.8344 67.364 16.7037C67.2384 16.5731 66.9822 16.5128 66.53 16.5128H61.7376L61.8029 16.5781Z" fill="white"/>
<path d="M73.7638 11.9062C73.9547 11.9062 74.02 11.9716 74.02 12.1625V19.8384C74.02 20.0293 73.9547 20.0946 73.7638 20.0946H72.4828C72.2919 20.0946 72.2266 20.0293 72.2266 19.8384V12.1625C72.2266 11.9716 72.2919 11.9062 72.4828 11.9062H73.7638Z" fill="white"/>
<path d="M86.1111 11.9062C86.302 11.9062 86.3673 11.9716 86.3673 12.1625V13.3128C86.3673 13.5037 86.302 13.569 86.1111 13.569H82.3987V19.8384C82.3987 20.0293 82.3334 20.0946 82.1425 20.0946H80.8615C80.6706 20.0946 80.6053 20.0293 80.6053 19.8384V13.569H76.8929C76.702 13.569 76.6367 13.5037 76.6367 13.3128V12.1625C76.6367 11.9716 76.702 11.9062 76.8929 11.9062H86.0408H86.1111Z" fill="white"/>
<path d="M95.3911 11.9062C96.2853 11.9062 96.9283 12.0971 97.3101 12.5442C97.6919 12.926 97.8878 13.569 97.8878 14.3376V14.9756C97.8878 15.6789 97.7622 16.1913 97.506 16.5731C97.2498 16.9549 96.8028 17.2111 96.1648 17.3417L98.1491 19.8384C98.2144 19.9037 98.2144 19.964 98.2144 20.0293C98.2144 20.0946 98.1491 20.1549 98.0235 20.1549H96.4863C96.3607 20.1549 96.2954 20.1549 96.2954 20.0896C96.2301 20.0896 96.2301 20.0243 96.1698 19.964L94.3161 17.5326H90.5434V19.8987C90.5434 20.0896 90.4781 20.1549 90.2872 20.1549H89.0062C88.8153 20.1549 88.75 20.0896 88.75 19.8987V12.288C88.75 12.0318 88.8756 11.9062 89.1318 11.9062H95.4665H95.3911ZM90.5283 16.126H95.0043C95.3861 16.126 95.7076 16.0607 95.8382 15.8698C96.0291 15.6789 96.0944 15.4227 96.0944 15.1012V14.5888C96.0944 14.207 96.0291 13.9508 95.8382 13.8202C95.6473 13.6293 95.3911 13.564 95.0043 13.564H90.6539C90.5283 13.564 90.5283 13.6293 90.5283 13.6896V16.126Z" fill="white"/>
<path d="M101.983 11.9062C102.174 11.9062 102.239 11.9716 102.239 12.1625V16.8344C102.239 17.1559 102.239 17.4121 102.305 17.603C102.37 17.7938 102.43 17.9847 102.561 18.1154C102.691 18.246 102.817 18.3063 103.008 18.3716C103.199 18.4369 103.455 18.4369 103.777 18.4369H107.042C107.363 18.4369 107.62 18.4369 107.81 18.3716C108.001 18.3063 108.192 18.246 108.258 18.1154C108.383 17.9898 108.448 17.7938 108.514 17.603C108.579 17.4121 108.579 17.1559 108.579 16.8344V12.1625C108.579 11.9716 108.644 11.9062 108.835 11.9062H110.116C110.307 11.9062 110.372 11.9716 110.372 12.1625V17.0252C110.372 17.603 110.307 18.05 110.182 18.4318C110.056 18.8136 109.86 19.1351 109.604 19.3913C109.348 19.6475 109.026 19.8384 108.579 19.9037C108.132 20.0293 107.685 20.0946 107.042 20.0946H103.651C103.073 20.0946 102.561 20.0293 102.114 19.9037C101.732 19.7782 101.345 19.5822 101.089 19.3913C100.833 19.1351 100.642 18.8136 100.511 18.4318C100.386 18.05 100.32 17.5376 100.32 17.0252V12.1625C100.32 11.9716 100.386 11.9062 100.577 11.9062H101.858H101.983Z" fill="white"/>
<path d="M115.416 11.9062C115.607 11.9062 115.738 11.9063 115.863 11.9716C115.989 11.9716 116.12 12.0369 116.185 12.0971C116.25 12.1625 116.376 12.2227 116.441 12.3533C116.506 12.4789 116.567 12.6095 116.697 12.8004L119.129 18.4318C119.194 18.4971 119.194 18.5574 119.32 18.5574H119.445C119.51 18.5574 119.571 18.4921 119.636 18.4318L122.067 12.8004C122.133 12.6095 122.193 12.4789 122.324 12.3533C122.389 12.2278 122.449 12.1625 122.58 12.0971C122.645 12.0318 122.771 11.9716 122.901 11.9716C123.032 11.9716 123.158 11.9062 123.348 11.9062H124.629C125.011 11.9062 125.333 11.9716 125.463 12.1625C125.589 12.3533 125.654 12.6749 125.654 13.1219V19.8384C125.654 20.0293 125.589 20.0946 125.398 20.0946H124.182C123.991 20.0946 123.926 20.0293 123.926 19.8384V13.6997C123.926 13.6344 123.861 13.5741 123.861 13.5741H123.735C123.67 13.5741 123.61 13.6394 123.61 13.6394L121.244 18.884C121.178 19.0749 121.053 19.2657 120.922 19.3964C120.791 19.527 120.731 19.6526 120.601 19.7782C120.475 19.8435 120.344 19.969 120.219 19.969C120.093 20.0344 119.897 20.0344 119.706 20.0344H119.129C118.938 20.0344 118.747 20.0344 118.616 19.969C118.486 19.9037 118.36 19.8435 118.235 19.7782C118.109 19.7128 118.044 19.5873 117.913 19.3964C117.787 19.2708 117.722 19.0749 117.591 18.884L115.225 13.6394C115.225 13.5741 115.16 13.5741 115.1 13.5741H114.974C114.909 13.5741 114.909 13.6394 114.909 13.6997V19.8435C114.909 20.0344 114.844 20.0997 114.653 20.0997H113.432C113.241 20.0997 113.176 20.0344 113.176 19.8435V13.1219C113.176 12.6749 113.241 12.3533 113.367 12.1625C113.492 11.9716 113.814 11.9062 114.201 11.9062H115.482H115.416Z" fill="white"/>
</g>
<defs>
<clipPath id="clip0_753_1492">
<rect width="125.589" height="32" fill="white"/>
</clipPath>
</defs>
</svg>
