<svg width="111" height="32" viewBox="0 0 111 32" fill="none" xmlns="http://www.w3.org/2000/svg">
<g clip-path="url(#clip0_449_515)">
<path d="M8.82962 7.26172H14.0618L22.2748 23.7477H18.8997L16.2554 18.4337H6.49598L3.85166 23.7477H0.53302L8.82962 7.26172ZM14.9338 15.782L11.3892 8.60905L7.81756 15.782H14.9338Z" fill="white"/>
<path d="M23.74 16.7755V7.26172H26.8339V16.6619C26.8339 19.8898 28.3814 21.3244 32.7686 21.3244C36.2567 21.3244 38.8163 20.209 40.2226 17.5813C39.6883 21.7524 37.5501 24.0095 32.1496 24.0095C26.4091 24.0047 23.74 21.9185 23.74 16.7755ZM40.2156 7.26172H43.2812V23.7477H40.2156V7.26172Z" fill="white"/>
<path d="M47.5877 7.26172H59.1206C63.9867 7.26172 65.8708 8.57677 65.8708 11.3192C65.8708 13.9756 63.8702 15.2333 60.4151 15.2333V15.262H61.0894C63.1712 15.262 64.9729 16.4049 65.2518 19.0051L65.7531 23.7477H62.7193L62.3827 20.2903C62.185 18.2926 61.2577 17.6948 58.8381 17.6948H50.6251V23.7524H47.5877V7.26172ZM50.6251 9.80455V15.1185H58.3921C61.5978 15.1185 62.8358 14.2614 62.8358 12.4334C62.8358 10.5756 61.5695 9.80336 58.3639 9.80336L50.6251 9.80455Z" fill="white"/>
<path d="M68.3162 15.488C68.3162 10.2015 72.1997 7 79.0606 7C85.9521 7 89.8332 10.1992 89.8332 15.488C89.8332 20.7769 85.9497 24.0024 79.0606 24.0024C72.1985 24.0024 68.3162 20.7733 68.3162 15.488ZM86.6546 15.488C86.6546 11.8884 83.9832 9.68748 79.0606 9.68748C74.1674 9.68748 71.4948 11.8884 71.4948 15.488C71.4948 19.1451 74.1674 21.3173 79.0606 21.3173C83.9832 21.3173 86.6546 19.1451 86.6546 15.488Z" fill="white"/>
<path d="M92.7845 23.0045V20.1747C94.951 20.9183 97.8754 21.4324 101.447 21.4324C106.117 21.4324 107.331 20.5465 107.331 19.0892C107.331 17.9176 106.6 17.2613 103.591 17.0042L98.9499 16.6038C93.9154 16.1758 92.4256 14.5714 92.4256 12.0322C92.4256 9.03267 94.8722 7.00391 101.875 7.00391C105.617 7.00391 108.401 7.4032 110.032 7.86108V10.5749C108.031 10.0608 105.081 9.7177 101.819 9.7177C96.8693 9.7177 95.5748 10.747 95.5748 12.0035C95.5748 13.1751 96.3067 13.6891 99.2594 13.9749L103.816 14.404C108.822 14.8607 110.538 16.061 110.538 18.7748C110.538 22.0026 108.288 24.0039 101.2 24.0039C97.819 24.0039 94.7251 23.6034 92.7845 23.0045Z" fill="white"/>
</g>
<defs>
<clipPath id="clip0_449_515">
<rect width="110" height="32" fill="white" transform="translate(0.366455)"/>
</clipPath>
</defs>
</svg>
