<svg width="99" height="32" viewBox="0 0 99 32" fill="none" xmlns="http://www.w3.org/2000/svg">
<path d="M8.32 8.23096H12.9371L20.1847 22.779H17.2063L14.8729 18.0897H6.26069L3.92721 22.779H0.998688L8.32 8.23096ZM13.7066 15.7497L10.5787 9.4199L7.42691 15.7497H13.7066Z" fill="white"/>
<path d="M21.4777 16.6264V8.23096H24.2079V16.5261C24.2079 19.3746 25.5735 20.6405 29.4449 20.6405C32.523 20.6405 34.7817 19.6563 36.0227 17.3375C35.5512 21.0182 33.6644 23.01 28.8987 23.01C23.833 23.0058 21.4777 21.1648 21.4777 16.6264ZM36.0165 8.23096H38.7217V22.779H36.0165V8.23096Z" fill="white"/>
<path d="M42.522 8.23096H52.6992C56.9933 8.23096 58.6559 9.39142 58.6559 11.8115C58.6559 14.1556 56.8905 15.2655 53.8415 15.2655V15.2908H54.4365C56.2736 15.2908 57.8635 16.2993 58.1097 18.5939L58.552 22.779H55.8748L55.5778 19.728C55.4034 17.9651 54.5851 17.4376 52.4499 17.4376H45.2023V22.7831H42.522V8.23096ZM45.2023 10.4749V15.1642H52.0563C54.8852 15.1642 55.9777 14.4078 55.9777 12.7947C55.9777 11.1553 54.8602 10.4738 52.0314 10.4738L45.2023 10.4749Z" fill="white"/>
<path d="M60.8138 15.4903C60.8138 10.8252 64.2408 8 70.2952 8C76.3766 8 79.8014 10.8231 79.8014 15.4903C79.8014 20.1574 76.3745 23.0037 70.2952 23.0037C64.2397 23.0037 60.8138 20.1542 60.8138 15.4903ZM76.9965 15.4903C76.9965 12.3138 74.6391 10.3716 70.2952 10.3716C65.9772 10.3716 63.6188 12.3138 63.6188 15.4903C63.6188 18.7174 65.9772 20.6343 70.2952 20.6343C74.6391 20.6343 76.9965 18.7174 76.9965 15.4903Z" fill="white"/>
<path d="M82.4058 22.1231V19.626C84.3176 20.2821 86.8983 20.7358 90.05 20.7358C94.1711 20.7358 95.2423 19.9541 95.2423 18.6681C95.2423 17.6342 94.5973 17.055 91.942 16.8282L87.8465 16.4748C83.4038 16.0971 82.0891 14.6813 82.0891 12.4406C82.0891 9.79369 84.2481 8.00342 90.4277 8.00342C93.7298 8.00342 96.1866 8.35577 97.6258 8.75983V11.1546C95.8601 10.701 93.2568 10.3982 90.3783 10.3982C86.0104 10.3982 84.8681 11.3065 84.8681 12.4153C84.8681 13.4492 85.514 13.9028 88.1196 14.1549L92.1405 14.5337C96.5581 14.9367 98.0724 15.9958 98.0724 18.3906C98.0724 21.239 96.0868 23.005 89.8321 23.005C86.8485 23.005 84.1183 22.6516 82.4058 22.1231Z" fill="white"/>
</svg>
