<svg width="97" height="32" viewBox="0 0 97 32" fill="none" xmlns="http://www.w3.org/2000/svg">
<g clip-path="url(#clip0_7105_38177)">
<path d="M76.5306 24.7026C76.7084 24.6401 76.8016 24.643 76.9812 24.6981C77.0989 24.862 77.1587 25.0103 77.138 25.2198C77.1183 25.4194 77.0582 25.4587 76.9114 25.5727C76.6714 25.5718 76.6197 25.5712 76.4158 25.4499C76.3793 25.3703 76.33 25.2747 76.3198 25.1874C76.295 24.9727 76.41 24.8585 76.5306 24.7026Z" fill="white"/>
<path d="M87.3024 27.5674L87.2948 27.5215C87.2768 27.274 87.3934 26.9868 87.5705 26.8119C87.8191 26.5659 88.3925 26.5451 88.7199 26.5332C88.7668 26.6147 88.7759 26.6593 88.7767 26.7531L88.6442 26.8117C88.4137 26.8476 88.2388 26.8329 88.0652 26.9961L87.996 27.3976C87.9679 27.6113 87.978 27.7092 87.8299 27.874C87.6451 27.896 87.5581 27.8768 87.3984 27.7814L87.3024 27.5674Z" fill="white"/>
<path d="M56.1799 24.9172C56.3964 24.9989 56.586 25.1126 56.8171 25.0787L57.2372 24.6973L57.2783 26.8002C56.9501 26.1483 56.7166 25.6568 56.0664 25.2702L56.1799 24.9172Z" fill="white"/>
<path d="M37.8717 20.8446L37.5586 19.8848L39.3147 19.912C39.4403 19.9386 39.5714 19.9576 39.6905 20.0054C39.5281 20.0262 39.1525 19.9922 39.0215 20.0471C38.8213 20.131 38.5595 20.3364 38.4105 20.4902C38.2864 20.618 38.2107 20.7639 38.0345 20.8255L38.2373 20.8995L38.2436 20.9641C38.2624 21.1414 38.2801 21.2599 38.3897 21.4058C38.518 21.5767 38.5936 21.7505 38.6464 21.9565L38.6122 22.0004L38.5253 22.123L38.5551 22.1656L38.5104 22.1968L38.3586 22.163C38.1132 21.8143 38.0036 21.2528 37.8717 20.8446Z" fill="white"/>
<path d="M88.7195 26.5332C89.0015 26.5533 89.4024 26.5542 89.6017 26.7821C89.8231 27.035 89.8004 27.4063 89.8082 27.7209C89.8238 28.3548 89.7589 29.1628 89.9102 29.7775L90.7064 29.3347C90.4635 29.6688 90.086 30.2255 89.6599 30.3313C89.5217 30.3656 89.4387 30.3101 89.3157 30.2571L89.2895 30.211C89.2199 30.0902 89.163 30.0022 89.0571 29.9111L88.8986 29.9974C88.8318 29.8493 88.7805 29.8458 88.6406 29.771C88.7727 29.6967 88.9182 29.6236 89.0222 29.5114C89.2411 29.2757 89.1399 28.5713 89.1379 28.2357L89.0062 28.2089L88.8447 27.9829C88.9533 27.9416 89.0376 27.883 89.1317 27.8171C89.1531 27.5944 89.1526 27.371 89.0757 27.1579C89.006 26.9659 88.8155 26.8904 88.6439 26.8117L88.7764 26.7531C88.7755 26.6593 88.7665 26.6147 88.7195 26.5332Z" fill="white"/>
<path d="M76.8477 26.5117L77.0313 26.5C77.2287 26.7694 77.1241 29.2531 77.1293 29.7752C77.2458 29.9995 77.5667 30.1368 77.7824 30.2639L75.9418 30.2686L75.8149 30.2319L75.8127 30.1342C75.9701 30.0823 76.1159 30.0217 76.2648 29.9487C76.3221 29.871 76.3613 29.7921 76.3751 29.6952C76.4525 29.1592 76.385 28.5625 76.3779 28.0209C76.3742 27.7301 76.4365 27.3791 76.2648 27.143C76.0776 27.1225 75.9005 27.127 75.7539 26.9962L75.8127 26.9095C76.1703 26.8109 76.5074 26.6574 76.8477 26.5117Z" fill="white"/>
<path d="M88.8988 29.9979C88.8227 30.0515 88.75 30.0935 88.6659 30.1343C88.2867 30.3175 88.0138 30.3553 87.611 30.21C87.4164 30.1399 87.3617 30.0889 87.2789 29.8932C87.1621 29.6169 87.1541 29.1503 87.273 28.8708C87.4975 28.3438 88.3621 28.1497 88.8449 27.9834L89.0064 28.2093L89.1381 28.2362C89.1401 28.5717 89.2412 29.2762 89.0224 29.5118C88.9184 29.624 88.7729 29.6971 88.6408 29.7715C88.7807 29.8463 88.832 29.8498 88.8988 29.9979ZM89.0064 28.2093C88.6789 28.3585 88.1003 28.5464 87.9461 28.903C87.846 29.1347 87.953 29.3745 88.0235 29.6011C88.1868 29.752 88.297 29.7979 88.5327 29.7864L88.6408 29.7715C88.7729 29.6971 88.9184 29.624 89.0224 29.5118C89.2412 29.2762 89.1401 28.5717 89.1381 28.2362L89.0064 28.2093Z" fill="white"/>
<path d="M82.4284 25.541L82.5333 25.5436C82.6399 25.8496 82.5666 26.2645 82.596 26.5946L82.9214 26.6221C83.1255 26.6483 83.3281 26.6368 83.4576 26.8013C83.2507 26.9752 82.8303 26.9291 82.5547 26.9427L82.5828 28.6679C82.5843 29.0096 82.559 29.3866 82.6974 29.7071C82.7237 29.7683 82.8275 29.7894 82.8889 29.815C83.0786 29.7562 83.1685 29.6522 83.2926 29.5066C83.3577 29.4303 83.3153 29.458 83.4169 29.4288C83.4526 29.6193 83.354 29.7598 83.2801 29.9356C83.1705 30.0645 83.0476 30.1471 82.8879 30.2067C82.6505 30.2954 82.3369 30.2707 82.1091 30.1544C81.5281 29.8578 81.9586 27.5622 81.7583 26.9801L81.306 26.9542C81.2991 26.914 81.2712 26.8718 81.2851 26.8336C81.3298 26.711 81.813 26.3466 81.9281 26.2262C82.1287 26.0165 82.2822 25.7907 82.4284 25.541Z" fill="white"/>
<path d="M95.3088 24.6367L95.4147 24.6754C95.4852 25.1109 95.4314 25.609 95.4286 26.0523L95.4225 28.8147C95.4242 29.0808 95.3738 29.531 95.4528 29.7753C95.5098 29.952 95.9604 30.1543 96.1319 30.2549L94.2906 30.2663L94.195 30.1872C94.2982 30.0279 94.5228 30.0047 94.6783 29.8378C94.7663 29.3189 94.8028 25.6936 94.6147 25.3924C94.5689 25.3193 94.2545 25.273 94.1615 25.2521L94.1211 25.1539C94.3803 24.8852 94.9503 24.7524 95.3088 24.6367Z" fill="white"/>
<path d="M56.3554 11.3746C56.0324 10.7504 55.8311 9.92595 55.5931 9.25633L54.4609 6.27082L57.4387 6.27471C57.9325 6.27298 58.6536 6.19168 59.1165 6.37136L57.3213 6.4105C57.2369 6.55406 57.2006 6.6386 57.1677 6.80141C57.137 6.95428 57.0778 7.07947 57.0676 7.23882C57.0484 7.53547 56.8421 7.78649 56.7561 8.05936C56.6767 8.3106 56.6402 8.58001 56.5658 8.83471C56.4138 9.35514 56.1081 10.0163 56.3247 10.5491C56.4054 10.7476 56.3902 11.1621 56.3554 11.3746Z" fill="white"/>
<path d="M56.0641 25.2688C55.7923 25.1777 55.4466 25.1537 55.1646 25.2022C54.6637 25.2882 54.3793 25.5086 54.0913 25.9178C53.6611 26.5291 53.5882 27.5468 53.7149 28.266L53.7789 28.5741L53.8005 28.6435C53.9155 29.0193 54.1869 29.4227 54.5015 29.6603L54.5393 29.6884L54.65 29.7682C54.8656 29.906 55.1382 29.9302 55.3878 29.9505C56.196 30.0162 56.5897 29.7003 57.0719 29.0742C57.1785 28.9358 57.2226 28.7994 57.3962 28.7609L57.4191 28.9667C57.1895 29.4573 56.914 29.8562 56.4126 30.1012C55.8089 30.3961 54.9041 30.4422 54.2732 30.2126C53.6308 29.9786 53.148 29.3793 52.8663 28.7728C52.6286 28.2612 52.6098 27.1883 52.8046 26.656L52.8228 26.6078C53.0128 26.0977 53.4094 25.6162 53.8351 25.2828C54.5573 24.7174 55.3255 24.8227 56.1776 24.9157L56.0641 25.2688Z" fill="white"/>
<path d="M62.5428 26.5463C62.7242 26.5216 62.9216 26.5259 63.1041 26.5322C63.3389 26.5404 63.716 26.6146 63.8762 26.8005C64.1811 27.1547 64.1409 27.7564 64.1476 28.1919L64.1355 29.8931C64.3342 29.7404 64.468 29.5726 64.6981 29.4563L64.748 29.5491C64.6829 29.7205 64.6031 29.9052 64.4669 30.0328C64.2981 30.191 63.9958 30.3601 63.7612 30.3489C63.513 30.2193 63.4747 30.1134 63.3296 29.8792C63.1108 30.0109 62.8758 30.1701 62.6393 30.2652C62.359 30.3781 62.0782 30.3128 61.8144 30.1953C61.7692 30.1701 61.7536 30.1644 61.7125 30.1227C61.4451 29.8494 61.3707 29.5208 61.4137 29.1495C61.5138 28.2892 62.8405 28.2345 63.3508 27.8211C63.3623 27.6576 63.3696 27.4879 63.3298 27.3275C63.2665 27.0732 63.1303 26.9796 62.9212 26.8589C62.7255 26.8436 62.6042 26.8855 62.4263 26.964C62.2864 27.1037 62.2522 27.2005 62.2267 27.3958C62.1973 27.6193 62.2284 27.7404 62.049 27.8963C61.8715 27.8622 61.7891 27.8725 61.662 27.7396C61.6325 27.4974 61.5761 27.2181 61.7017 26.9947C61.8732 26.6901 62.2325 26.6263 62.5428 26.5463ZM63.1193 28.2565C62.7798 28.4198 62.3437 28.585 62.2021 28.9675C62.1296 29.1634 62.1956 29.3642 62.2429 29.5588C62.3041 29.6308 62.3584 29.7058 62.4367 29.7597C62.7104 29.8051 63.07 29.6853 63.2922 29.5208L63.3378 29.4853L63.3482 28.2455C63.2572 28.2304 63.2075 28.2273 63.1193 28.2565Z" fill="white"/>
<path d="M35.5695 27.9678L50.8711 27.9699L51.0307 28.2236C51.0021 28.2828 50.995 28.3446 50.9303 28.3678C50.3418 28.579 49.3969 28.4659 48.7606 28.4659L44.0875 28.4396L38.2261 28.4365L34.7972 28.4244L34.7414 28.3574L31.875 28.3369C31.9267 28.2867 32.0575 28.1291 32.1161 28.1031C32.2084 28.0623 32.5665 28.0997 32.6836 28.0982L34.2082 28.0605C34.6508 28.0623 35.0899 28.1379 35.5159 27.9877L35.5695 27.9678Z" fill="white"/>
<path d="M70.8863 30.2172L70.8418 30.2323C70.4217 30.377 69.9949 30.4198 69.5769 30.2419C69.4855 30.2029 69.4956 30.2187 69.407 30.2499C69.3596 30.6845 69.405 31.126 69.4312 31.5612L69.996 31.7863L70.0102 31.8974L69.8667 31.9686C69.5646 31.9482 69.2608 31.9255 68.9579 31.9318C68.6725 31.9376 68.3445 31.9926 68.0781 31.876L68.1268 31.7504C68.3114 31.7158 68.4509 31.6888 68.6096 31.5852C68.7577 31.1755 68.6879 30.5476 68.6872 30.1093L68.6593 27.2875C68.4755 27.0806 68.3164 27.191 68.1281 27.0291C68.3149 26.759 68.9285 26.6358 69.2528 26.5059L69.3953 26.5766C69.3951 26.743 69.4109 26.8989 69.4362 27.0635L69.6552 26.879C69.9194 26.6501 70.2913 26.5113 70.642 26.5368C70.9709 26.5608 71.2693 26.7022 71.4822 26.9545C71.829 27.3655 71.9737 28.0832 71.9045 28.607C71.8347 29.1335 71.4991 29.8176 71.0649 30.1312C71.0042 30.175 70.9568 30.1926 70.8863 30.2172ZM69.8178 27.2916C69.6567 27.4369 69.4195 27.6077 69.399 27.8369C69.3484 28.3962 69.3423 29.2557 69.5348 29.7887C69.8267 29.9389 70.0232 30.0168 70.348 30.0525L70.4904 30.0801L70.7067 29.8782C70.7458 29.841 70.7854 29.8066 70.8152 29.761C71.1408 29.2631 71.1432 28.5102 70.9897 27.9575C70.9173 27.6968 70.7343 27.3275 70.4762 27.2066C70.2215 27.0873 70.0591 27.2021 69.8178 27.2916Z" fill="white"/>
<path d="M34.7999 28.4254L34.7326 28.442C34.4163 28.4829 34.042 28.4433 33.721 28.4433L31.6533 28.4462L23.6356 28.4492L9.47146 28.4455L1.48022 28.4284C1.30214 28.4219 1.27751 28.4423 1.13931 28.3216C1.12941 28.1281 1.14402 28.1274 1.25219 27.9793L35.5722 27.9688L35.5186 27.9886C35.0926 28.1389 34.6535 28.0632 34.2109 28.0615L32.6864 28.0991C32.5692 28.1006 32.2111 28.0632 32.1188 28.1041C32.0602 28.13 31.9294 28.2877 31.8777 28.3378L34.7441 28.3584L34.7999 28.4254Z" fill="white"/>
<path d="M73.2266 6.2578L77.7161 6.25586L77.6992 17.4044L77.7022 20.5C77.7029 21.0182 77.7589 21.6072 77.6724 22.117L77.4925 22.189L73.2268 22.2208L73.2266 6.2578Z" fill="white"/>
<path d="M80.0277 6.28365L95.4422 6.25879L95.4364 8.50095C95.1791 8.62744 93.5795 8.51436 93.162 8.51392L84.511 8.53252C84.6284 9.54181 84.524 10.6839 84.5233 11.707L84.559 19.9161L87.4267 19.8958L95.9929 19.88L95.0587 22.1351C94.6848 22.2101 94.2561 22.1825 93.8721 22.1907L91.2221 22.1987L83.516 22.2011C82.3205 22.2075 81.1196 22.157 79.9272 22.2374L79.943 10.8218C79.9423 10.1928 79.8191 6.64927 80.0277 6.28365Z" fill="white"/>
<path d="M59.1169 6.37074C59.4615 6.59085 60.0341 8.65506 60.1854 9.13247L61.147 11.9859L62.4185 15.6008C62.6179 16.1865 62.8665 16.7839 63.001 17.3872L63.0164 17.4572L67.0661 6.24512L70.0481 6.26955C70.5924 6.27193 71.137 6.31042 71.6778 6.24944L67.1582 17.9917C66.6594 19.2542 66.2858 20.5978 65.7167 21.8298C65.6577 21.9578 65.5744 22.0763 65.4421 22.1331C65.1524 22.2577 64.5119 22.1928 64.1824 22.1956L60.3359 22.2168C60.0607 21.5543 59.8687 20.852 59.6203 20.1777L59.0996 18.9197L57.7798 15.2181L56.6114 12.1271C56.5316 11.9009 56.3699 11.6056 56.3558 11.374C56.3906 11.1614 56.4058 10.747 56.3251 10.5485C56.1085 10.0157 56.4142 9.35452 56.5662 8.83409C56.6406 8.57939 56.6771 8.30998 56.7565 8.05874C56.8425 7.78587 57.0488 7.53485 57.068 7.2382C57.0782 7.07885 57.1374 6.95366 57.1681 6.80079C57.201 6.63798 57.2373 6.55344 57.3217 6.40988L59.1169 6.37074Z" fill="white"/>
<path d="M38.3508 6.2905L53.4801 6.26758L53.4713 8.52985L42.6966 8.48942L42.7206 13.6092L42.7986 13.601L53.3936 13.5413L53.4029 22.1817L38.5558 22.1644L38.526 22.1218L38.6129 21.9993L38.647 21.9554C38.5943 21.7493 38.5186 21.5755 38.3904 21.4047C38.2808 21.2587 38.263 21.1402 38.2442 20.9629L38.238 20.8983L38.0352 20.8243C38.2114 20.7627 38.287 20.6168 38.4112 20.489C38.5601 20.3353 38.822 20.1298 39.0222 20.046C39.1532 19.991 39.5288 20.025 39.6912 20.0042C39.572 19.9564 39.441 19.9374 39.3154 19.9108L46.6851 19.9L48.1212 19.9082C48.279 19.911 48.5184 19.9476 48.6589 19.8799L48.657 15.806C48.5541 15.7363 48.3454 15.7724 48.2204 15.7733L46.7575 15.7761L39.0512 15.7525L38.1335 15.7759L38.1357 8.26217L38.1407 6.9292C38.1389 6.71406 38.0929 6.48617 38.1737 6.28293L38.3508 6.2905Z" fill="white"/>
<path d="M39.054 15.7518L38.1364 15.7752L38.1385 8.26147L38.1435 6.9285C38.1418 6.71336 38.0957 6.48547 38.1766 6.28223L38.3537 6.28979L38.2438 6.36288C38.4073 6.48504 38.6568 6.48936 38.8562 6.46688C39.6823 6.37369 40.5723 6.52396 41.3764 6.39531L41.435 6.43185C41.6194 6.53628 42.275 6.4485 42.534 6.47077C42.4454 6.5352 42.3991 6.54753 42.3599 6.6539C42.2763 6.88158 42.1353 7.09369 42.0281 7.31228C41.9336 7.50536 41.8985 7.71834 41.8838 7.93109C41.867 8.17953 41.7781 8.42082 41.6668 8.64136L41.5195 8.71596L41.5124 8.7525C41.4709 8.95531 41.3896 9.14082 41.291 9.32179C41.1247 9.62731 41.1321 10.1423 41.027 10.49C40.9496 10.7464 40.8188 10.866 40.6209 11.0386C40.4657 11.6398 40.2021 12.1918 40.1398 12.8094C40.1057 13.1482 39.929 13.4329 39.886 13.7802L39.7522 13.7936L39.7401 13.8437C39.6988 14.0085 39.6639 14.0831 39.5444 14.2031C39.5225 14.3348 39.5228 14.5255 39.4834 14.6472C39.4689 14.692 39.3535 14.7713 39.3491 14.8109C39.3411 14.8811 39.4092 15.0766 39.4265 15.1531L39.4966 15.2094C39.4765 15.2926 39.47 15.5521 39.4484 15.562C39.2008 15.6757 38.8944 15.5097 38.63 15.653L39.054 15.7518Z" fill="white"/>
<path d="M21.0513 6.27497C22.3376 6.28773 23.7268 6.39865 24.9986 6.24902L25.0079 19.9275C25.6615 19.8226 26.4476 19.9039 27.1171 19.9029L31.7173 19.9076C31.8576 19.7072 31.773 17.4737 31.773 17.0211L31.7558 6.28232L36.1685 6.26416L36.162 9.06156L36.17 22.1697L20.6096 22.1615C20.7324 20.8025 20.6314 19.345 20.6345 17.9749L20.6336 9.00859L20.6169 7.03951C20.6113 6.82437 20.5445 6.48491 20.6671 6.31107L21.0513 6.27497Z" fill="white"/>
<path d="M10.0574 0.0791016L10.0901 0.0816947C10.3521 0.297695 11.2094 2.77078 11.4248 3.27521L12.3746 5.39932L13.7398 8.77142C13.8792 9.08861 14.0574 9.38937 14.1906 9.70829L15.4596 12.8929L16.273 14.641L17.4349 17.555L18.3244 19.5489L18.908 20.9347C19.0459 21.3018 19.1428 21.6979 19.3281 22.0439L19.3508 22.0847L19.2786 22.1576L15.012 22.16L13.457 18.0624L10.233 18.0722L6.78974 18.0449C6.44336 19.4036 5.82087 20.9031 5.17785 22.1537L0.808594 22.1866L10.0574 0.0791016ZM10.0844 9.12126C9.1119 11.2715 8.58368 13.6564 7.51947 15.7561L10.4754 15.7329C11.1915 15.7247 12.0712 15.6142 12.7662 15.7399L10.0844 9.12126Z" fill="white"/>
</g>
<defs>
<clipPath id="clip0_7105_38177">
<rect width="95.5675" height="32" fill="white" transform="translate(0.644531)"/>
</clipPath>
</defs>
</svg>
