<svg width="136" height="32" viewBox="0 0 136 32" fill="none" xmlns="http://www.w3.org/2000/svg">
<path d="M37.837 11.3594H39.2647L43.264 20.6374H41.3755L40.5114 18.5144H36.4875L35.6482 20.6374H33.8008L37.837 11.3594ZM39.9354 17.099L38.5077 13.3261L37.0512 17.099H39.9354Z" fill="white"/>
<path d="M45.0234 11.3594H46.9243L49.4547 18.3704L52.0632 11.3594H53.8448L50.0965 20.6374H48.6688L45.0234 11.3594Z" fill="white"/>
<path d="M59.7513 11.3594H61.179L65.1741 20.6374H63.2856L62.4216 18.5144H58.3977L57.5583 20.6374H55.7109L59.7513 11.3594ZM61.8456 17.099L60.4178 13.3261L58.9613 17.099H61.8456Z" fill="white"/>
<path d="M68.8242 11.3594H70.4741V19.1439H74.4198V20.6374H68.8242V11.3594Z" fill="white"/>
<path d="M81.2513 11.3594H82.679L86.6783 20.6374H84.7897L83.9257 18.5144H79.8977L79.0583 20.6374H77.2109L81.2513 11.3594ZM83.3456 17.099L81.9179 13.3261L80.4613 17.099H83.3456Z" fill="white"/>
<path d="M90.3242 11.3594H92.5131L97.0102 18.2552H97.0349V11.3594H98.6847V20.6374H96.5864L91.9988 13.5195H91.9741V20.6374H90.3242V11.3594Z" fill="white"/>
<path d="M109.754 13.5353C109.412 13.1691 109.083 12.9222 108.758 12.8029C108.445 12.6795 108.124 12.6178 107.803 12.6178C107.322 12.6178 106.886 12.7042 106.491 12.8811C106.108 13.0457 105.775 13.2843 105.495 13.5888C105.215 13.885 104.997 14.2347 104.841 14.638C104.693 15.0412 104.619 15.4732 104.619 15.934C104.619 16.4318 104.693 16.8927 104.841 17.3082C104.997 17.7279 105.215 18.09 105.495 18.3944C105.775 18.6989 106.108 18.9417 106.491 19.1145C106.886 19.2873 107.322 19.3778 107.803 19.3778C108.178 19.3778 108.54 19.2914 108.89 19.1145C109.248 18.9293 109.581 18.6413 109.885 18.2504L111.247 19.2214C110.828 19.7975 110.317 20.2171 109.713 20.4805C109.112 20.7438 108.466 20.8754 107.787 20.8754C107.071 20.8754 106.413 20.7602 105.808 20.5339C105.215 20.2994 104.697 19.9703 104.261 19.5506C103.833 19.1227 103.496 18.6125 103.253 18.0159C103.01 17.4234 102.887 16.761 102.887 16.0369C102.887 15.2922 103.01 14.6215 103.253 14.0167C103.496 13.4036 103.833 12.8852 104.261 12.4573C104.697 12.0294 105.211 11.7003 105.808 11.474C106.409 11.2394 107.071 11.1201 107.787 11.1201C108.417 11.1201 108.997 11.2353 109.532 11.4616C110.075 11.6797 110.577 12.0541 111.037 12.589L109.754 13.5353Z" fill="white"/>
<path d="M114.977 11.3594H116.626V15.0541H120.963V11.3594H122.613V20.6374H120.963V16.5477H116.626V20.6374H114.977V11.3594Z" fill="white"/>
<path d="M127.312 11.3594H133.459V12.8529H128.962V15.1323H133.221V16.6258H128.962V19.1439H133.694V20.6374H127.312V11.3594Z" fill="white"/>
<path fill-rule="evenodd" clip-rule="evenodd" d="M28.9094 16.0006C28.9094 23.3531 22.9517 29.3108 15.5993 29.3108C8.24676 29.3108 2.28906 23.3531 2.28906 16.0006C2.28906 8.64813 8.24676 2.69043 15.5993 2.69043C22.9517 2.69043 28.9094 8.64813 28.9094 16.0006ZM11.8263 21.2959H9.24245C8.69935 21.2959 8.43191 21.2959 8.26733 21.193C8.09041 21.0778 7.98344 20.8886 7.97109 20.6787C7.96287 20.4854 8.09453 20.2508 8.36197 19.7777L14.7393 8.53704C15.0109 8.05976 15.1467 7.82113 15.3195 7.73061C15.5046 7.63598 15.7268 7.63598 15.9161 7.73061C16.0889 7.81701 16.2246 8.05565 16.4962 8.53704L17.8087 10.8247L17.8169 10.837C18.1091 11.3472 18.2572 11.6105 18.323 11.8821C18.393 12.1783 18.393 12.4951 18.323 12.7914C18.2572 13.067 18.1091 13.3262 17.8128 13.8488L14.4637 19.7694L14.4554 19.7859C14.1592 20.3043 14.0111 20.5635 13.8054 20.761C13.5791 20.975 13.3075 21.1354 13.0113 21.2218C12.7397 21.2959 12.4353 21.2959 11.8263 21.2959ZM18.3477 21.2959H22.0507C22.5979 21.2959 22.8695 21.2959 23.034 21.1889C23.211 21.0737 23.322 20.8803 23.3303 20.6705C23.3385 20.4854 23.2068 20.2591 22.9517 19.8147C22.9435 19.7982 22.9353 19.7859 22.9229 19.7694L21.0673 16.5972L21.0468 16.5602C20.7876 16.1199 20.6559 15.8978 20.4872 15.8114C20.302 15.7167 20.0799 15.7167 19.8947 15.8114C19.726 15.8978 19.5861 16.1323 19.3146 16.6013L17.4672 19.7736L17.459 19.7859C17.1874 20.2508 17.0516 20.4854 17.064 20.6787C17.0763 20.8886 17.1833 21.0819 17.3602 21.1971C17.5289 21.2959 17.8046 21.2959 18.3477 21.2959Z" fill="white"/>
</svg>
