<svg width="122" height="33" viewBox="0 0 122 33" fill="none" xmlns="http://www.w3.org/2000/svg">
<g clip-path="url(#clip0_756_1888)">
<path d="M20.3188 19.0611C24.6659 19.8633 27.6226 21.4424 27.6226 23.2597C27.6226 25.8896 21.4386 28.0189 13.8113 28.0189C6.18402 28.0189 0 25.8885 0 23.2597C0 21.4424 2.95792 19.8633 7.30389 19.0611C9.19259 19.5514 11.4231 19.8334 13.8113 19.8334C16.1995 19.8334 18.4301 19.5514 20.3188 19.0622V19.0611ZM18.6545 11.3532C22.3467 11.9678 24.8903 13.2603 24.8903 14.7577C24.8903 16.8467 19.9297 18.5408 13.8113 18.5408C7.69291 18.5408 2.73234 16.8467 2.73234 14.7577C2.73234 13.2615 5.27592 11.9678 8.96815 11.3532C10.3873 11.7135 12.0423 11.9195 13.8113 11.9195C15.5803 11.9195 17.2354 11.7123 18.6545 11.3532ZM13.862 5C18.4439 5 22.1591 6.28215 22.1591 7.8647C22.1591 9.44609 18.4439 10.7282 13.862 10.7282C9.28006 10.7282 5.56481 9.44609 5.56481 7.8647C5.56481 6.28215 9.28006 5 13.862 5ZM45.2309 23.9791C46.383 23.9791 47.3395 23.8007 48.1002 23.4427C48.8598 23.0859 49.4296 22.5956 49.8071 21.9753C50.1883 21.3417 50.3844 20.6141 50.3733 19.8748C50.3733 19.1094 50.2168 18.458 49.9026 17.9182C49.6127 17.4035 49.1959 16.9716 48.6918 16.6637C48.2265 16.3757 47.6969 16.2076 47.1507 16.1745V16.026C47.6262 15.9149 48.0775 15.7179 48.4823 15.4448C48.8794 15.1755 49.1959 14.8233 49.4319 14.3894C49.6667 13.9555 49.7852 13.4318 49.7852 12.8184C49.7962 12.114 49.6088 11.4208 49.2443 10.818C48.884 10.2287 48.3419 9.76375 47.618 9.42308C46.8952 9.0824 45.9882 8.91206 44.8995 8.91206H39.1321V23.9779L45.2309 23.9791ZM44.5611 15.3205H41.861V11.1645H44.6198C45.4254 11.1645 46.032 11.3532 46.4406 11.7307C46.8503 12.1082 47.0552 12.5893 47.0552 13.1728C47.0552 13.6148 46.9458 13.9958 46.7283 14.3169C46.5096 14.6392 46.2115 14.8855 45.834 15.0604C45.4338 15.2389 44.9993 15.3277 44.5611 15.3205ZM44.797 21.699H41.8621V17.2852H44.8707C45.4346 17.2852 45.9203 17.3888 46.3266 17.5982C46.7147 17.7884 47.0413 18.084 47.2692 18.4511C47.4891 18.8113 47.5996 19.2153 47.5996 19.6619C47.5996 20.2604 47.3809 20.7495 46.9412 21.1293C46.5027 21.5091 45.788 21.699 44.797 21.699ZM55.3086 24.2081C55.8967 24.2081 56.41 24.1264 56.8497 23.9618C57.2882 23.7972 57.6542 23.5797 57.9454 23.3069C58.2377 23.0353 58.4633 22.7418 58.6268 22.4276H58.7142V23.9802H61.2751V16.4174C61.2751 15.6669 61.1381 15.042 60.8665 14.5413C60.6124 14.0612 60.2415 13.6527 59.7881 13.3535C59.336 13.059 58.8358 12.846 58.3102 12.724C57.7774 12.5973 57.2316 12.5332 56.684 12.5329C55.8944 12.5329 55.1728 12.6492 54.5202 12.8828C53.8957 13.0985 53.3297 13.4558 52.8663 13.9267C52.4028 14.4116 52.0687 15.0053 51.8949 15.6531L54.3809 16.0053C54.5133 15.6175 54.7699 15.2814 55.1498 14.9971C55.5296 14.7128 56.0463 14.5712 56.6989 14.5712C57.317 14.5712 57.79 14.7232 58.118 15.027C58.4472 15.3309 58.6118 15.7602 58.6118 16.3138V16.3587C58.6118 16.613 58.5174 16.8006 58.3287 16.9215C58.1399 17.0412 57.8395 17.1286 57.4275 17.1862C57.0154 17.2426 56.4779 17.3047 55.8161 17.3738C55.2792 17.4304 54.7469 17.525 54.2232 17.6569C53.737 17.7757 53.2717 17.9678 52.8433 18.2266C52.4412 18.4718 52.1094 18.8168 51.8799 19.228C51.644 19.6446 51.5266 20.1717 51.5266 20.8094C51.5266 21.5494 51.6923 22.1732 52.0238 22.6785C52.3541 23.1826 52.8064 23.5647 53.3773 23.8214C53.9482 24.0792 54.5927 24.2081 55.3086 24.2081ZM55.9991 22.2515C55.4455 22.2515 54.9898 22.126 54.6318 21.8763C54.2739 21.6254 54.0943 21.2548 54.0943 20.7656C54.0943 20.4215 54.1853 20.1407 54.3671 19.9231C54.5478 19.7045 54.7953 19.5341 55.1095 19.411C55.4534 19.2808 55.8115 19.192 56.1764 19.1462L56.8014 19.0588C57.0431 19.0242 57.2848 18.9851 57.5299 18.9402C57.7751 18.8965 57.9972 18.8447 58.1963 18.786C58.3943 18.7273 58.5358 18.664 58.6187 18.5949V19.9266C58.6187 20.3432 58.5117 20.7288 58.2987 21.081C58.078 21.4414 57.7638 21.7353 57.3895 21.9315C56.9982 22.1445 56.5332 22.2515 55.9991 22.2515ZM66.0469 23.9802V8.91321H63.3848V23.9791H66.048L66.0469 23.9802ZM71.4609 24.2081C72.0491 24.2081 72.5635 24.1264 73.002 23.9618C73.7663 23.6921 74.4008 23.1443 74.7791 22.4276H74.8666V23.9802H77.4274V16.4174C77.4274 15.6669 77.2905 15.042 77.0188 14.5413C76.765 14.0613 76.3946 13.6529 75.9415 13.3535C75.4891 13.0589 74.9886 12.8458 74.4626 12.724C73.9298 12.5973 73.384 12.5332 72.8363 12.5329C72.1003 12.524 71.3682 12.6424 70.6725 12.8828C70.0481 13.0985 69.482 13.4558 69.0186 13.9267C68.5551 14.4116 68.2211 15.0053 68.0472 15.6531L70.5333 16.0053C70.6656 15.6175 70.9223 15.2814 71.3021 14.9971C71.6819 14.7128 72.1998 14.5712 72.8513 14.5712C73.4693 14.5712 73.9424 14.7232 74.2715 15.027C74.5995 15.3309 74.7641 15.7602 74.7641 16.3138V16.3587C74.7641 16.613 74.6698 16.8006 74.481 16.9215C74.2922 17.0412 73.9918 17.1286 73.5798 17.1862C73.1678 17.2426 72.6303 17.3047 71.9685 17.3738C71.4315 17.4304 70.8992 17.525 70.3756 17.6569C69.8894 17.7757 69.424 17.9678 68.9956 18.2266C68.5936 18.4718 68.2617 18.8168 68.0323 19.228C67.7975 19.6446 67.6789 20.1717 67.6789 20.8094C67.6789 21.5494 67.8447 22.1732 68.1761 22.6785C68.5065 23.1826 68.9588 23.5647 69.5296 23.8214C70.1005 24.0792 70.745 24.2081 71.4609 24.2081ZM72.1515 22.2515C71.599 22.2515 71.1421 22.126 70.7842 21.8763C70.4262 21.6254 70.2467 21.2548 70.2467 20.7656C70.2467 20.4215 70.3376 20.1407 70.5195 19.9231C70.7002 19.7045 70.9476 19.5341 71.2618 19.411C71.6057 19.2808 71.9639 19.192 72.3287 19.1462L72.9537 19.0588C73.1954 19.0242 73.4371 18.9851 73.6822 18.9402C73.9274 18.8965 74.1495 18.8447 74.3486 18.786C74.5466 18.7273 74.6882 18.664 74.771 18.5949V19.9266C74.771 20.3432 74.6651 20.7288 74.4511 21.081C74.2304 21.4414 73.9162 21.7353 73.5418 21.9315C73.1505 22.1445 72.6855 22.2515 72.1515 22.2515ZM82.1992 23.9802V17.3588C82.1992 16.8144 82.3028 16.3506 82.5054 15.9685C82.7091 15.5864 82.9911 15.2929 83.3513 15.0892C83.7308 14.8809 84.1581 14.7758 84.5909 14.7842C85.278 14.7842 85.8155 14.9971 86.2057 15.4241C86.5958 15.8499 86.7903 16.4415 86.7903 17.1965V23.9802H89.4536V16.7845C89.4594 15.8822 89.3005 15.1156 88.9794 14.4826C88.6821 13.8757 88.211 13.3709 87.6259 13.0324C87.0447 12.6987 86.3645 12.5329 85.5842 12.5329C84.7405 12.5329 84.0327 12.7194 83.4618 13.0923C82.9001 13.4536 82.4646 13.9804 82.2153 14.6H82.0818V12.6802H79.5371V23.9802H82.1992ZM96.5227 24.2012C97.4688 24.2012 98.2929 24.0285 98.9938 23.6821C99.6681 23.3602 100.243 22.8619 100.657 22.24C101.064 21.6242 101.299 20.9164 101.364 20.1176H98.8177C98.7532 20.4916 98.6048 20.8461 98.3838 21.1546C98.1808 21.4332 97.9119 21.657 97.6012 21.8061C97.2704 21.9596 96.9092 22.0364 96.5446 22.0305C95.9898 22.0305 95.5087 21.882 95.099 21.5851C94.6893 21.2882 94.3716 20.8646 94.146 20.3122C93.9204 19.7608 93.8076 19.1002 93.8076 18.3302C93.8076 17.5706 93.9216 16.918 94.1495 16.3736C94.3774 15.8292 94.6973 15.4103 95.1094 15.1191C95.5293 14.8247 96.0319 14.6716 96.5446 14.6817C97.1868 14.6817 97.7001 14.8636 98.0857 15.2296C98.4701 15.5944 98.7141 16.0491 98.8177 16.5935H101.364C101.304 15.7797 101.064 15.0673 100.642 14.4562C100.214 13.8403 99.6282 13.3503 98.9466 13.037C98.2376 12.701 97.4251 12.5329 96.5066 12.5329C95.404 12.5329 94.4487 12.7792 93.6419 13.2718C92.8339 13.7658 92.1842 14.4807 91.7693 15.332C91.3285 16.2125 91.1075 17.2265 91.1075 18.374C91.1075 19.5168 91.3251 20.5262 91.759 21.4009C92.1692 22.2509 92.8152 22.9648 93.62 23.4577C94.4269 23.9526 95.3948 24.2012 96.5227 24.2012ZM107.983 24.2012C108.861 24.2012 109.64 24.0677 110.323 23.7995C111.004 23.5325 111.564 23.155 112.003 22.667C112.443 22.179 112.74 21.6058 112.897 20.9486L110.411 20.6689C110.293 20.9878 110.119 21.2559 109.889 21.4712C109.658 21.6875 109.386 21.851 109.071 21.9603C108.733 22.0747 108.377 22.1308 108.019 22.126C107.441 22.126 106.935 22.0029 106.504 21.7543C106.069 21.5034 105.719 21.1298 105.497 20.6805C105.255 20.212 105.135 19.6492 105.135 18.992L105.136 19.0588H113.008V18.2416C113.008 17.2518 112.87 16.3966 112.596 15.6773C112.321 14.9591 111.944 14.3675 111.467 13.9014C110.998 13.4418 110.436 13.0892 109.818 12.8678C109.185 12.6423 108.516 12.529 107.843 12.5329C106.764 12.5329 105.825 12.7792 105.025 13.2718C104.221 13.7691 103.575 14.4833 103.16 15.332C102.716 16.2125 102.495 17.2334 102.495 18.3958C102.495 19.5778 102.715 20.6045 103.157 21.4746C103.598 22.3459 104.229 23.0169 105.051 23.4911C105.873 23.9641 106.85 24.2012 107.983 24.2012ZM105.148 17.1758C105.182 16.7661 105.295 16.384 105.485 16.0306C105.713 15.6071 106.033 15.263 106.445 15.0005C106.875 14.733 107.374 14.5962 107.88 14.6069C108.39 14.6069 108.838 14.722 109.222 14.9522C109.608 15.1835 109.908 15.4989 110.123 15.8983C110.34 16.2988 110.449 16.7534 110.455 17.2633H105.142L105.148 17.1758ZM117.347 23.9802V17.337C117.347 16.8559 117.457 16.4323 117.677 16.064C117.898 15.6957 118.201 15.408 118.586 15.1997C118.988 14.987 119.437 14.8793 119.891 14.8866C120.117 14.8866 120.352 14.9027 120.594 14.9349C120.838 14.9672 121.015 15.0017 121.128 15.042V12.5916C120.975 12.5634 120.822 12.545 120.667 12.5364C120.502 12.5248 120.337 12.5187 120.172 12.518C119.524 12.518 118.949 12.6964 118.446 13.052C117.943 13.4065 117.59 13.9106 117.384 14.5632H117.265V12.6802H114.683V23.9802H117.347Z" fill="white"/>
</g>
<defs>
<clipPath id="clip0_756_1888">
<rect width="122" height="23.0189" fill="white" transform="translate(0 5)"/>
</clipPath>
</defs>
</svg>
