<svg width="104" height="32" viewBox="0 0 104 32" fill="none" xmlns="http://www.w3.org/2000/svg">
<g clip-path="url(#clip0_449_1028)">
<path d="M37.14 24.4834H21.0892C20.8172 24.4854 20.5496 24.4153 20.3135 24.2802C20.0774 24.1451 19.8814 23.9499 19.7453 23.7144C19.6092 23.4789 19.538 23.2115 19.5388 22.9395C19.5397 22.6675 19.6126 22.4006 19.7502 22.1659L27.338 9.02409C27.5179 8.71271 27.7766 8.45416 28.088 8.27439C28.3995 8.09463 28.7528 8 29.1124 8C29.472 8 29.8253 8.09463 30.1368 8.27439C30.4482 8.45416 30.7069 8.71271 30.8868 9.02409L38.4746 22.1659C38.6122 22.4006 38.6851 22.6675 38.686 22.9395C38.6869 23.2115 38.6156 23.4789 38.4795 23.7144C38.3435 23.9499 38.1474 24.1451 37.9113 24.2802C37.6753 24.4153 37.4076 24.4854 37.1356 24.4834H37.14ZM23.7695 21.3942H34.4642L29.1168 12.1309L23.7695 21.3942Z" fill="white"/>
<path d="M101.425 24.4834H85.3744C85.1029 24.485 84.8354 24.4146 84.5996 24.2794C84.3638 24.1441 84.1679 23.9488 84.0324 23.7134C83.8963 23.478 83.8255 23.2107 83.8262 22.939C83.8276 22.6671 83.9004 22.4004 84.0379 22.1659L91.6231 9.02409C91.8032 8.71271 92.0617 8.45416 92.3732 8.27439C92.6846 8.09463 93.038 8 93.3975 8C93.7571 8 94.1105 8.09463 94.4219 8.27439C94.7334 8.45416 94.9919 8.71271 95.172 9.02409L102.76 22.1659C102.897 22.4006 102.97 22.6675 102.971 22.9395C102.972 23.2115 102.901 23.4789 102.765 23.7144C102.629 23.9499 102.433 24.1451 102.197 24.2802C101.96 24.4153 101.693 24.4854 101.421 24.4834H101.425ZM88.057 21.3942H98.7518L93.4024 12.1309L88.057 21.3942Z" fill="white"/>
<path d="M58.5939 8.32068H56.6436C56.2192 8.32068 56.0082 8.54055 56.0082 8.9803V19.4419L46.6393 8.56474C46.577 8.48908 46.4988 8.42802 46.4103 8.38585C46.3218 8.34368 46.225 8.32144 46.127 8.32068H43.7084C43.2863 8.32068 43.073 8.54055 43.073 8.9803V23.8328C43.073 24.2725 43.2929 24.4924 43.7084 24.4924H45.6587C46.0831 24.4924 46.2941 24.2725 46.2941 23.8328V13.1403L55.918 24.2791C55.9721 24.3502 56.0425 24.4073 56.1232 24.4455C56.2039 24.4838 56.2927 24.5021 56.382 24.499H58.5807C59.005 24.499 59.2183 24.2791 59.2183 23.8394V8.9803C59.2249 8.54055 59.0116 8.32068 58.5939 8.32068Z" fill="white"/>
<path d="M80.1742 23.4437L73.9847 16.0294L79.4022 9.39807C79.4957 9.27063 79.5458 9.11644 79.5452 8.95833C79.5575 8.87205 79.5493 8.78416 79.5218 8.70157C79.4936 8.61897 79.4475 8.54392 79.3857 8.48232C79.3245 8.42073 79.2488 8.37427 79.1663 8.3466C79.0838 8.31894 78.9958 8.31082 78.9099 8.32289H76.2273C76.129 8.32022 76.0307 8.34094 75.942 8.38336C75.8526 8.42578 75.7749 8.4887 75.7151 8.56695L71.9112 13.4196L68.1052 8.58234C68.0453 8.49634 67.9649 8.42672 67.8711 8.37986C67.7774 8.33299 67.6735 8.31038 67.5687 8.31409H64.8819C64.7957 8.30193 64.7078 8.31001 64.6253 8.33767C64.5428 8.36534 64.4678 8.41184 64.4064 8.4735C64.3449 8.53515 64.2987 8.61027 64.2713 8.6929C64.2439 8.77552 64.2362 8.86338 64.2486 8.94953C64.2472 9.10775 64.2974 9.26213 64.3916 9.38928L69.8067 16.0316L63.6396 23.4195C63.5294 23.5393 63.4689 23.6964 63.4702 23.8592C63.4702 24.2814 63.6902 24.4924 64.1299 24.4924H66.9486C67.0529 24.4933 67.1559 24.4694 67.2492 24.4228C67.3424 24.3762 67.4233 24.3081 67.4852 24.2242L71.9002 18.6877L76.3373 24.2748C76.4012 24.3465 76.4803 24.4035 76.569 24.4415C76.6577 24.4794 76.7532 24.4976 76.8495 24.4946H79.6792C79.7652 24.5067 79.8532 24.4986 79.935 24.4711C80.0175 24.4436 80.0924 24.3972 80.1536 24.3358C80.2155 24.2744 80.2615 24.1996 80.289 24.1173C80.3165 24.035 80.3248 23.9474 80.3124 23.8614C80.32 23.7098 80.2705 23.5609 80.1742 23.4437Z" fill="white"/>
<path d="M14.1043 16.0029C14.7582 15.1776 15.1104 14.1535 15.1024 13.1006C15.1112 12.4695 14.9889 11.8435 14.7434 11.2622C14.4977 10.6809 14.1341 10.1568 13.6755 9.7233C13.2287 9.27032 12.695 8.9125 12.1062 8.67141C11.5174 8.43032 10.8859 8.31095 10.2499 8.3205H0.665547C0.575929 8.30762 0.484544 8.3158 0.398641 8.3444C0.312737 8.37299 0.234679 8.42121 0.170659 8.48523C0.106639 8.54925 0.0584191 8.62731 0.0298242 8.71322C0.00122932 8.79912 -0.00695365 8.8905 0.00592478 8.98012V23.8326C0.00592478 24.2723 0.225798 24.4922 0.665547 24.4922H11.0788C11.7161 24.5049 12.3494 24.3883 12.9405 24.1495C13.5315 23.9106 14.068 23.5545 14.5176 23.1026C14.9746 22.6701 15.3369 22.1473 15.5814 21.5675C15.8259 20.9877 15.9473 20.3633 15.938 19.7341C15.9554 19.0105 15.7978 18.2933 15.4785 17.6437C15.1592 16.9941 14.6878 16.4312 14.1043 16.0029ZM3.22488 11.8605C3.21282 11.7739 3.22101 11.6857 3.24878 11.6029C3.27656 11.52 3.32318 11.4447 3.38498 11.3829C3.44677 11.3211 3.52206 11.2745 3.60493 11.2467C3.68778 11.219 3.77596 11.2108 3.86251 11.2228H10.1971C10.4148 11.2231 10.6297 11.2718 10.8263 11.3653C11.023 11.4589 11.1963 11.5949 11.3338 11.7637C11.6421 12.1342 11.811 12.601 11.811 13.083C11.811 13.565 11.6421 14.0317 11.3338 14.4022C11.1981 14.5738 11.0254 14.7126 10.8285 14.8082C10.6318 14.9037 10.4159 14.9536 10.1971 14.9541H3.86251C3.77587 14.9666 3.6875 14.9588 3.60442 14.9311C3.52134 14.9036 3.44585 14.8569 3.38395 14.795C3.32204 14.7331 3.27543 14.6576 3.24782 14.5746C3.2202 14.4915 3.21235 14.4031 3.22488 14.3165V11.8605ZM12.1628 21.0402C12.0264 21.2108 11.8535 21.3485 11.6567 21.4433C11.4599 21.5381 11.2444 21.5874 11.026 21.5877H3.86251C3.43815 21.5877 3.22488 21.3679 3.22488 20.9281V18.5094C3.22488 18.0697 3.44475 17.8498 3.86251 17.8498H11.026C11.2445 17.8507 11.4601 17.9005 11.6568 17.9957C11.8535 18.0907 12.0264 18.2288 12.1628 18.3995C12.4799 18.7648 12.65 19.2351 12.6399 19.7187C12.6538 20.2038 12.4833 20.676 12.1628 21.0402Z" fill="white"/>
</g>
<defs>
<clipPath id="clip0_449_1028">
<rect width="103.125" height="16.5" fill="white" transform="translate(0 8)"/>
</clipPath>
</defs>
</svg>
