<svg width="152" height="32" viewBox="0 0 152 32" fill="none" xmlns="http://www.w3.org/2000/svg">
<g clip-path="url(#clip0_449_1028)">
<path d="M55.0558 27.9759H31.7092C31.3136 27.9788 30.9243 27.8768 30.5809 27.6803C30.2375 27.4838 29.9524 27.1998 29.7544 26.8573C29.5565 26.5147 29.4529 26.1258 29.4541 25.7302C29.4554 25.3346 29.5614 24.9463 29.7615 24.605L40.7984 5.48959C41.0601 5.03667 41.4363 4.66059 41.8893 4.39912C42.3424 4.13765 42.8562 4 43.3793 4C43.9024 4 44.4163 4.13765 44.8693 4.39912C45.3223 4.66059 45.6986 5.03667 45.9602 5.48959L56.9971 24.605C57.1972 24.9463 57.3033 25.3346 57.3045 25.7302C57.3058 26.1258 57.2021 26.5147 57.0042 26.8573C56.8063 27.1998 56.5211 27.4838 56.1777 27.6803C55.8344 27.8768 55.445 27.9788 55.0494 27.9759H55.0558ZM35.6078 23.4825H51.1637L43.3857 10.0086L35.6078 23.4825Z" fill="white"/>
<path d="M148.562 27.9759H125.215C124.82 27.9782 124.431 27.8758 124.088 27.6791C123.745 27.4823 123.46 27.1983 123.263 26.8559C123.065 26.5134 122.962 26.1247 122.963 25.7294C122.965 25.334 123.071 24.9461 123.271 24.605L134.304 5.48959C134.566 5.03667 134.942 4.66059 135.395 4.39912C135.848 4.13765 136.362 4 136.885 4C137.408 4 137.922 4.13765 138.375 4.39912C138.828 4.66059 139.204 5.03667 139.466 5.48959L150.503 24.605C150.703 24.9463 150.809 25.3346 150.81 25.7302C150.812 26.1258 150.708 26.5147 150.51 26.8573C150.312 27.1998 150.027 27.4838 149.684 27.6803C149.34 27.8768 148.951 27.9788 148.555 27.9759H148.562ZM129.117 23.4825H144.673L136.892 10.0086L129.117 23.4825Z" fill="white"/>
<path d="M86.2613 4.46655H83.4245C82.8073 4.46655 82.5003 4.78637 82.5003 5.426V20.6429L68.8729 4.82155C68.7822 4.7115 68.6685 4.62268 68.5397 4.56135C68.411 4.50001 68.2703 4.46765 68.1277 4.46655H64.6097C63.9957 4.46655 63.6855 4.78637 63.6855 5.426V27.0296C63.6855 27.6692 64.0053 27.9891 64.6097 27.9891H67.4465C68.0638 27.9891 68.3708 27.6692 68.3708 27.0296V11.4769L82.3691 27.6788C82.4478 27.7822 82.5502 27.8652 82.6676 27.9209C82.785 27.9765 82.9141 28.0032 83.044 27.9987H86.2421C86.8594 27.9987 87.1696 27.6788 87.1696 27.0392V5.426C87.1792 4.78637 86.869 4.46655 86.2613 4.46655Z" fill="white"/>
<path d="M117.651 26.4636L108.648 15.6793L116.528 6.03367C116.664 5.8483 116.737 5.62403 116.736 5.39404C116.754 5.26855 116.742 5.14071 116.702 5.02057C116.661 4.90043 116.594 4.79126 116.504 4.70167C116.415 4.61208 116.305 4.5445 116.185 4.50426C116.065 4.46402 115.937 4.45221 115.812 4.46977H111.91C111.767 4.46588 111.624 4.49602 111.495 4.55773C111.365 4.61943 111.252 4.71094 111.165 4.82476L105.632 11.8831L100.096 4.84715C100.009 4.72205 99.8922 4.62079 99.7558 4.55263C99.6195 4.48446 99.4683 4.45158 99.3159 4.45697H95.4078C95.2824 4.43928 95.1546 4.45103 95.0346 4.49127C94.9146 4.53152 94.8055 4.59916 94.7162 4.68884C94.6268 4.77852 94.5595 4.88778 94.5197 5.00796C94.4799 5.12814 94.4686 5.25594 94.4867 5.38124C94.4846 5.61138 94.5576 5.83593 94.6946 6.02088L102.571 15.6825L93.6008 26.4284C93.4406 26.6027 93.3526 26.8313 93.3545 27.068C93.3545 27.6821 93.6744 27.9891 94.314 27.9891H98.414C98.5657 27.9903 98.7155 27.9556 98.8511 27.8878C98.9868 27.82 99.1044 27.721 99.1944 27.5989L105.616 19.5459L112.07 27.6725C112.163 27.7769 112.278 27.8597 112.407 27.915C112.536 27.9702 112.675 27.9966 112.815 27.9923H116.931C117.056 28.0098 117.184 27.9981 117.303 27.9581C117.423 27.918 117.532 27.8506 117.621 27.7613C117.711 27.672 117.778 27.5632 117.818 27.4435C117.858 27.3237 117.87 27.1963 117.852 27.0712C117.863 26.8507 117.791 26.6341 117.651 26.4636Z" fill="white"/>
<path d="M21.5495 15.6405C22.5007 14.4401 23.013 12.9505 23.0014 11.419C23.0142 10.5011 22.8363 9.59055 22.4791 8.74497C22.1218 7.8994 21.5929 7.13719 20.9258 6.50657C20.276 5.84769 19.4996 5.32723 18.6432 4.97655C17.7868 4.62587 16.8683 4.45225 15.9431 4.46614H2.00225C1.87189 4.44741 1.73897 4.45931 1.61402 4.5009C1.48907 4.54249 1.37553 4.61263 1.28241 4.70575C1.18929 4.79887 1.11915 4.91241 1.07756 5.03736C1.03597 5.16231 1.02407 5.29523 1.0428 5.42559V27.0292C1.0428 27.6688 1.36261 27.9886 2.00225 27.9886H17.1488C18.0758 28.0071 18.997 27.8375 19.8567 27.4901C20.7164 27.1427 21.4967 26.6247 22.1507 25.9674C22.8155 25.3383 23.3424 24.5779 23.6981 23.7345C24.0537 22.8911 24.2303 21.983 24.2167 21.0678C24.2421 20.0152 24.0128 18.9721 23.5484 18.0272C23.084 17.0823 22.3983 16.2635 21.5495 15.6405ZM5.72491 9.61518C5.70737 9.48928 5.71928 9.36103 5.75968 9.24051C5.80009 9.11999 5.8679 9.01048 5.95779 8.92059C6.04767 8.83071 6.15718 8.7629 6.27771 8.72249C6.39823 8.68208 6.52648 8.67018 6.65238 8.68771H15.8663C16.183 8.68811 16.4956 8.7589 16.7816 8.89496C17.0676 9.03103 17.3197 9.22897 17.5198 9.47446C17.9682 10.0134 18.2138 10.6923 18.2138 11.3934C18.2138 12.0944 17.9682 12.7734 17.5198 13.3123C17.3224 13.5619 17.0711 13.7637 16.7848 13.9027C16.4986 14.0417 16.1846 14.1143 15.8663 14.115H6.65238C6.52635 14.1332 6.39781 14.1218 6.27697 14.0816C6.15613 14.0415 6.04633 13.9737 5.95629 13.8836C5.86624 13.7936 5.79844 13.6838 5.75828 13.5629C5.71811 13.4421 5.70669 13.3136 5.72491 13.1875V9.61518ZM18.7255 22.9675C18.5271 23.2156 18.2756 23.416 17.9894 23.5538C17.7032 23.6917 17.3897 23.7635 17.072 23.7639H6.65238C6.03513 23.7639 5.72491 23.4441 5.72491 22.8044V19.2864C5.72491 18.6468 6.04473 18.327 6.65238 18.327H17.072C17.3899 18.3282 17.7034 18.4007 17.9895 18.5391C18.2756 18.6774 18.5271 18.8782 18.7255 19.1265C19.1868 19.6579 19.4342 20.3419 19.4195 21.0454C19.4397 21.7509 19.1917 22.4377 18.7255 22.9675Z" fill="white"/>
</g>
<defs>
<clipPath id="clip0_449_1028">
<rect width="150" height="24" fill="white" transform="translate(1.03418 4)"/>
</clipPath>
</defs>
</svg>
