<svg width="133" height="32" viewBox="0 0 133 32" fill="none" xmlns="http://www.w3.org/2000/svg">
<path d="M118.34 12.5381H121.872V14.1593C122.538 13.2329 123.724 12.1328 125.75 12.1328C126.851 12.1328 128.472 12.4512 129.457 13.6669C130.325 14.7382 130.441 15.983 130.441 17.1987V25.073H126.908V18.2411C126.908 17.5463 126.88 16.4462 126.243 15.7802C125.693 15.2014 124.94 15.1433 124.593 15.1433C123.667 15.1433 122.943 15.4619 122.422 16.2435C121.901 17.0539 121.872 17.9515 121.872 18.6752V25.073H118.34V12.5381ZM112.386 18.82C112.386 16.8515 110.88 15.2593 108.854 15.2593C106.827 15.2593 105.322 16.8515 105.322 18.82C105.322 20.7305 106.798 22.3517 108.854 22.3517C110.909 22.3517 112.386 20.7305 112.386 18.82ZM113.92 13.8985C115.164 15.0274 116.033 16.7646 116.033 18.82C116.033 20.8464 115.164 22.5833 113.92 23.7126C112.849 24.6966 111.228 25.4784 108.854 25.4784C106.48 25.4784 104.859 24.6966 103.788 23.7126C102.543 22.5833 101.675 20.8464 101.675 18.82C101.675 16.7646 102.543 15.0274 103.788 13.8985C104.859 12.9141 106.48 12.1328 108.854 12.1328C111.228 12.1328 112.849 12.9141 113.92 13.8985ZM99.4865 25.073H95.9541V12.5381H99.4865V25.073ZM97.7203 7.35618C98.6876 7.35618 99.4865 8.15441 99.4865 9.12224C99.4865 10.09 98.6876 10.8883 97.7203 10.8883C96.753 10.8883 95.9541 10.09 95.9541 9.12224C95.9541 8.15441 96.753 7.35618 97.7203 7.35618ZM92.0496 15.5486V25.073H88.5178V15.5486H87.1282V12.5381H88.5178V8.25378H92.0496V12.5381H94.4814V15.5486H92.0496ZM83.9097 15.5198C83.0701 14.7382 82.2304 14.6801 81.854 14.6801C81.0147 14.6801 80.4935 15.0854 80.4935 15.6934C80.4935 16.0121 80.6384 16.5039 81.6225 16.8226L82.462 17.0831C83.4465 17.4015 84.923 17.8936 85.6466 18.8776C86.0226 19.3991 86.2833 20.1516 86.2833 20.9621C86.2833 22.0914 85.907 23.2202 84.8937 24.1463C83.8805 25.073 82.6648 25.4784 81.1307 25.4784C78.525 25.4784 77.0486 24.2334 76.2673 23.3938L78.1198 21.2517C78.8146 22.0622 79.8567 22.6993 80.8988 22.6993C81.8832 22.6993 82.6357 22.207 82.6357 21.3385C82.6357 20.5569 81.9988 20.2385 81.536 20.0648L80.7252 19.7753C79.8279 19.4568 78.7854 19.0516 78.0329 18.2699C77.4538 17.6619 77.0777 16.8803 77.0777 15.8674C77.0777 14.6513 77.6565 13.6381 78.3802 13.0301C79.3647 12.2484 80.6384 12.1328 81.6516 12.1328C82.5777 12.1328 84.0545 12.2484 85.6466 13.4641L83.9097 15.5198ZM64.1842 18.7912C64.1842 20.7885 65.6315 22.3517 67.658 22.3517C69.6845 22.3517 71.1323 20.7885 71.1323 18.7912C71.1323 16.7934 69.6845 15.2593 67.658 15.2593C65.6315 15.2593 64.1842 16.7934 64.1842 18.7912ZM70.7846 12.5381H74.3164V25.073H70.7846V23.4518C69.511 25.2758 67.8321 25.4784 66.9345 25.4784C63.0842 25.4784 60.5368 22.4674 60.5368 18.7912C60.5368 15.0854 63.055 12.1328 66.7607 12.1328C67.7161 12.1328 69.5978 12.3065 70.7846 14.1593V12.5381ZM49.2992 22.0045H50.9205C51.6153 22.0045 52.657 21.9754 53.4967 21.4833C54.4231 20.9333 54.6835 20.0072 54.6835 19.2544C54.6835 18.6464 54.4811 17.6039 53.2651 17.0539C52.4546 16.6778 51.499 16.6778 50.6886 16.6778H49.2992V22.0045ZM49.2992 13.7829H50.3701C50.9493 13.7829 53.2943 13.7249 53.2943 11.2644C53.2943 9.49832 51.9334 8.83259 50.3993 8.83259H49.2992V13.7829ZM50.3125 5.76404C51.3833 5.76404 53.4679 5.76404 55.0311 6.9801C56.16 7.84856 56.826 9.35386 56.826 10.9751C56.826 13.4641 55.1759 14.4774 54.6547 14.767C55.9284 14.9698 56.6812 15.5198 57.1732 15.983C58.3313 17.0831 58.5629 18.5884 58.5629 19.6016C58.5629 20.7305 58.2446 22.3226 56.9125 23.5097C55.4655 24.7835 53.6995 25.073 52.0206 25.073H45.5358V5.76404H50.3125Z" fill="white"/>
<path d="M10.325 17.7257H4.41611L2.27942 29.8375L14.3912 27.7005V21.7919C12.5052 21.1083 11.0083 19.6118 10.325 17.7257ZM2.27942 1L4.41611 13.1118H10.325C11.0083 11.2258 12.5052 9.72923 14.3912 9.04559V3.13702L2.27942 1ZM19.0051 3.13702V9.04559C20.8909 9.72923 22.3877 11.2258 23.071 13.1118H28.9799L31.1166 1L19.0051 3.13702ZM31.1166 29.8375L19.0051 27.7005V21.7919C20.8909 21.1083 22.3877 19.6118 23.071 17.7257H28.9799L31.1166 29.8375Z" fill="white"/>
</svg>
