<svg width="118" height="32" viewBox="0 0 118 32" fill="none" xmlns="http://www.w3.org/2000/svg">
<path d="M105.464 13.3445H108.63V14.798C109.227 13.9675 110.291 12.9811 112.107 12.9811C113.095 12.9811 114.547 13.2666 115.43 14.3565C116.209 15.317 116.313 16.4331 116.313 17.523V24.5828H113.146V18.4576C113.146 17.8347 113.121 16.8483 112.549 16.2513C112.056 15.7324 111.381 15.6803 111.07 15.6803C110.24 15.6803 109.59 15.9659 109.123 16.6666C108.656 17.3932 108.63 18.1979 108.63 18.8467V24.5828H105.464V13.3445ZM100.126 18.9766C100.126 17.2118 98.7753 15.7843 96.9595 15.7843C95.142 15.7843 93.7925 17.2118 93.7925 18.9766C93.7925 20.6895 95.116 22.1429 96.9595 22.1429C98.8013 22.1429 100.126 20.6895 100.126 18.9766ZM101.501 14.5642C102.617 15.5764 103.396 17.1338 103.396 18.9766C103.396 20.7934 102.617 22.3506 101.501 23.363C100.541 24.2453 99.0873 24.9462 96.9595 24.9462C94.8309 24.9462 93.3774 24.2453 92.417 23.363C91.3007 22.3506 90.5224 20.7934 90.5224 18.9766C90.5224 17.1338 91.3007 15.5764 92.417 14.5642C93.3774 13.6816 94.8309 12.9811 96.9595 12.9811C99.0873 12.9811 100.541 13.6816 101.501 14.5642ZM88.5607 24.5828H85.3937V13.3445H88.5607V24.5828ZM86.9772 8.69867C87.8444 8.69867 88.5607 9.41433 88.5607 10.282C88.5607 11.1497 87.8444 11.8654 86.9772 11.8654C86.11 11.8654 85.3937 11.1497 85.3937 10.282C85.3937 9.41433 86.11 8.69867 86.9772 8.69867ZM81.8931 16.0436V24.5828H78.7267V16.0436H77.4808V13.3445H78.7267V9.50342H81.8931V13.3445H84.0733V16.0436H81.8931ZM74.5953 16.0178C73.8425 15.317 73.0897 15.2649 72.7522 15.2649C71.9998 15.2649 71.5325 15.6284 71.5325 16.1734C71.5325 16.4592 71.6623 16.9001 72.5447 17.1858L73.2973 17.4193C74.18 17.7048 75.5037 18.146 76.1525 19.0282C76.4896 19.4958 76.7234 20.1705 76.7234 20.8971C76.7234 21.9095 76.3859 22.9216 75.4775 23.7519C74.5691 24.5828 73.4791 24.9462 72.1037 24.9462C69.7676 24.9462 68.444 23.83 67.7435 23.0773L69.4043 21.1567C70.0273 21.8834 70.9615 22.4546 71.8958 22.4546C72.7784 22.4546 73.4531 22.0132 73.4531 21.2345C73.4531 20.5338 72.8821 20.2483 72.4671 20.0926L71.7402 19.8331C70.9357 19.5475 70.0011 19.1842 69.3264 18.4834C68.8072 17.9383 68.47 17.2375 68.47 16.3294C68.47 15.2391 68.9889 14.3307 69.6378 13.7856C70.5204 13.0848 71.6623 12.9811 72.5707 12.9811C73.4011 12.9811 74.7251 13.0848 76.1525 14.1748L74.5953 16.0178ZM56.9104 18.9507C56.9104 20.7415 58.2079 22.1429 60.0248 22.1429C61.8416 22.1429 63.1396 20.7415 63.1396 18.9507C63.1396 17.1597 61.8416 15.7843 60.0248 15.7843C58.2079 15.7843 56.9104 17.1597 56.9104 18.9507ZM62.828 13.3445H65.9944V24.5828H62.828V23.1293C61.6861 24.7646 60.1808 24.9462 59.3761 24.9462C55.9241 24.9462 53.6402 22.2467 53.6402 18.9507C53.6402 15.6284 55.898 12.9811 59.2203 12.9811C60.0768 12.9811 61.7639 13.1369 62.828 14.798V13.3445ZM43.5651 21.8316H45.0187C45.6416 21.8316 46.5756 21.8055 47.3284 21.3644C48.159 20.8713 48.3925 20.041 48.3925 19.3661C48.3925 18.8209 48.211 17.8862 47.1208 17.3932C46.3941 17.056 45.5374 17.056 44.8108 17.056H43.5651V21.8316ZM43.5651 14.4605H44.5253C45.0445 14.4605 47.1469 14.4085 47.1469 12.2026C47.1469 10.6192 45.9269 10.0224 44.5515 10.0224H43.5651V14.4605ZM44.4736 7.27124C45.4337 7.27124 47.3026 7.27124 48.7041 8.3615C49.7162 9.14012 50.3133 10.4897 50.3133 11.9432C50.3133 14.1748 48.8339 15.0832 48.3667 15.3429C49.5086 15.5247 50.1835 16.0178 50.6246 16.4331C51.6629 17.4193 51.8706 18.7689 51.8706 19.6773C51.8706 20.6895 51.5851 22.1169 50.3909 23.1812C49.0936 24.3232 47.5103 24.5828 46.005 24.5828H40.1911V7.27124H44.4736Z" fill="white"/>
<path d="M8.62281 17.9955H3.32517L1.40952 28.8543L12.2684 26.9384V21.641C10.5775 21.0282 9.23543 19.6865 8.62281 17.9955ZM1.40952 3L3.32517 13.8589H8.62281C9.23543 12.1679 10.5775 10.8262 12.2684 10.2133V4.91595L1.40952 3ZM16.405 4.91595V10.2133C18.0956 10.8262 19.4377 12.1679 20.0503 13.8589H25.3479L27.2636 3L16.405 4.91595ZM27.2636 28.8543L16.405 26.9384V21.641C18.0956 21.0282 19.4377 19.6865 20.0503 17.9955H25.3479L27.2636 28.8543Z" fill="white"/>
</svg>
