<svg width="65" height="32" viewBox="0 0 65 32" fill="none" xmlns="http://www.w3.org/2000/svg">
<g clip-path="url(#clip0_756_1812)">
<path d="M16 32C24.8366 32 32 24.8366 32 16C32 7.16344 24.8366 0 16 0C7.16344 0 0 7.16344 0 16C0 24.8366 7.16344 32 16 32Z" fill="white"/>
<path d="M19.8257 25.1474L15.6039 17.8052H7.89453L12.1163 25.1474H19.8257Z" fill="#CCCCCC"/>
<path d="M19.8257 10.4629L15.6039 17.8052H7.89453L12.1163 10.4629H19.8257Z" fill="#828282"/>
<path d="M14.1018 7.09731L12.1133 10.4625H19.8226L15.9067 3.85449L14.1018 7.09731Z" fill="#CCCCCC"/>
<path d="M12.1133 25.1474L16.3351 17.8052H24.0444L19.8226 25.1474H12.1133Z" fill="#828282"/>
<path fill-rule="evenodd" clip-rule="evenodd" d="M15.9679 18.4434L12.1133 25.1472H19.8226L15.9679 18.4434Z" fill="#747474"/>
<path d="M12.1133 10.4629L16.3351 17.8052H24.0444L19.8226 10.4629H12.1133Z" fill="#CCCCCC"/>
<path fill-rule="evenodd" clip-rule="evenodd" d="M19.8225 10.4629L15.9679 17.1666L12.1133 10.4629H19.8225Z" fill="#B8B8B8"/>
</g>
<path d="M39.8267 20.5V11.3933H43.4729C44.1429 11.3933 44.7017 11.4926 45.1493 11.6912C45.5969 11.8898 45.9334 12.1655 46.1587 12.5183C46.384 12.8681 46.4966 13.2712 46.4966 13.7278C46.4966 14.0835 46.4255 14.3962 46.2832 14.666C46.1409 14.9328 45.9452 15.1522 45.6962 15.3241C45.4502 15.4931 45.1686 15.6131 44.8514 15.6843V15.7732C45.1982 15.788 45.5228 15.8859 45.8252 16.0667C46.1305 16.2475 46.378 16.501 46.5678 16.8271C46.7575 17.1502 46.8524 17.5356 46.8524 17.9832C46.8524 18.4664 46.7323 18.8977 46.4922 19.2772C46.255 19.6537 45.9037 19.9516 45.4383 20.1709C44.9729 20.3903 44.3993 20.5 43.7175 20.5H39.8267ZM41.7521 18.9259H43.3217C43.8583 18.9259 44.2496 18.8236 44.4956 18.6191C44.7417 18.4116 44.8647 18.1359 44.8647 17.792C44.8647 17.54 44.8039 17.3177 44.6824 17.125C44.5608 16.9323 44.3874 16.7811 44.1621 16.6714C43.9398 16.5618 43.6745 16.5069 43.3662 16.5069H41.7521V18.9259ZM41.7521 15.2041H43.1794C43.4433 15.2041 43.6774 15.1581 43.882 15.0662C44.0895 14.9713 44.2525 14.8379 44.3711 14.666C44.4927 14.4941 44.5534 14.288 44.5534 14.0479C44.5534 13.7189 44.4363 13.4536 44.2022 13.252C43.9709 13.0504 43.6419 12.9496 43.215 12.9496H41.7521V15.2041ZM51.5074 20.5H48.2791V11.3933H51.534C52.4501 11.3933 53.2386 11.5756 53.8997 11.9402C54.5607 12.3019 55.0691 12.8221 55.4249 13.501C55.7836 14.1798 55.9629 14.9921 55.9629 15.9377C55.9629 16.8864 55.7836 17.7016 55.4249 18.3834C55.0691 19.0652 54.5578 19.5884 53.8908 19.9531C53.2267 20.3177 52.4323 20.5 51.5074 20.5ZM50.2045 18.8503H51.4273C51.9965 18.8503 52.4753 18.7495 52.8636 18.5479C53.2549 18.3434 53.5484 18.0277 53.744 17.6008C53.9426 17.1709 54.0419 16.6166 54.0419 15.9377C54.0419 15.2648 53.9426 14.7149 53.744 14.288C53.5484 13.8612 53.2564 13.5469 52.868 13.3454C52.4797 13.1438 52.0009 13.043 51.4318 13.043H50.2045V18.8503ZM57.5631 20.5V11.3933H61.156C61.8467 11.3933 62.4351 11.5252 62.9213 11.789C63.4074 12.0499 63.778 12.413 64.0329 12.8785C64.2908 13.3409 64.4198 13.8745 64.4198 14.4792C64.4198 15.084 64.2894 15.6176 64.0285 16.08C63.7676 16.5425 63.3897 16.9027 62.8946 17.1606C62.4025 17.4185 61.8066 17.5474 61.107 17.5474H58.817V16.0044H60.7958C61.1663 16.0044 61.4717 15.9407 61.7118 15.8132C61.9549 15.6828 62.1357 15.5035 62.2543 15.2752C62.3758 15.044 62.4366 14.7787 62.4366 14.4792C62.4366 14.1769 62.3758 13.913 62.2543 13.6877C62.1357 13.4595 61.9549 13.2831 61.7118 13.1586C61.4687 13.0311 61.1604 12.9674 60.7869 12.9674H59.4885V20.5H57.5631Z" fill="white"/>
<defs>
<clipPath id="clip0_756_1812">
<rect width="32" height="32" fill="white"/>
</clipPath>
</defs>
</svg>
