<svg width="120" height="32" viewBox="0 0 120 32" fill="none" xmlns="http://www.w3.org/2000/svg">
<g clip-path="url(#clip0_753_1521)">
<path d="M7.33309 14.085L11.9939 9.42436L16.6572 14.0875L19.3692 11.3755L11.9939 4L4.62109 11.373L7.33309 14.085Z" fill="white"/>
<path d="M5.41898 15.9995L2.70703 13.2876L-0.00504716 15.9997L2.7069 18.7116L5.41898 15.9995Z" fill="white"/>
<path d="M7.33316 17.9149L11.994 22.5755L16.6571 17.9126L19.3706 20.6231L19.3693 20.6246L11.994 27.9999L4.62098 20.6271L4.61719 20.6233L7.33316 17.9149Z" fill="white"/>
<path d="M21.284 18.7131L23.9961 16.001L21.2841 13.289L18.5721 16.0011L21.284 18.7131Z" fill="white"/>
<path d="M14.7464 15.9986H14.7475L11.9955 13.2466L9.96175 15.2803H9.96156L9.72802 15.5141L9.24598 15.9961L9.24219 15.9999L9.24598 16.0039L11.9955 18.7534L14.7475 16.0014L14.7488 15.9999L14.7464 15.9986Z" fill="white"/>
<path d="M28.2227 9.81543H34.1211C35.5851 9.81543 36.6921 10.1911 37.4423 10.9425C38.0229 11.5245 38.3132 12.2457 38.3132 13.1061V13.1425C38.3132 13.5061 38.2682 13.8274 38.1778 14.1061C38.0876 14.3851 37.967 14.6362 37.8163 14.8605C37.666 15.0849 37.4912 15.2819 37.2926 15.4513C37.0937 15.6212 36.8801 15.7668 36.6513 15.8877C37.3872 16.1667 37.9665 16.5453 38.3888 17.0241C38.8109 17.5031 39.0223 18.1667 39.0223 19.015V19.0512C39.0223 19.6332 38.9105 20.1421 38.6866 20.5787C38.4627 21.0148 38.142 21.3786 37.7244 21.6696C37.3068 21.9605 36.8047 22.1785 36.2178 22.3241C35.6309 22.4695 34.9806 22.5421 34.2669 22.5421H28.2227V9.81543ZM33.5314 14.9606C34.1497 14.9606 34.6407 14.8548 35.0041 14.6425C35.3676 14.4304 35.5494 14.0879 35.5494 13.6153V13.5789C35.5494 13.1549 35.3917 12.8307 35.0767 12.6063C34.7614 12.382 34.3069 12.2698 33.7132 12.2698H30.9496V14.9606H33.5314ZM34.2769 20.0879C34.8951 20.0879 35.3796 19.9761 35.7314 19.7516C36.0828 19.5274 36.2587 19.1788 36.2587 18.706V18.6698C36.2587 18.2456 36.095 17.9093 35.7678 17.6606C35.4404 17.4125 34.9133 17.2881 34.1859 17.2881H30.9496V20.0881L34.2769 20.0879Z" fill="white"/>
<path d="M42.5352 9.81543H45.3353V22.5425H42.5352V9.81543Z" fill="white"/>
<path d="M49.5742 9.81543H52.1556L58.1193 17.6517V9.81543H60.8828V22.5425H58.5012L52.3376 14.4518V22.5425H49.5742V9.81543Z" fill="white"/>
<path d="M69.3611 9.72461H71.9427L77.3974 22.5425H74.4701L73.3064 19.6881H67.9247L66.7612 22.5425H63.9062L69.3611 9.72461ZM72.3065 17.2151L70.6154 13.0881L68.925 17.2151H72.3065Z" fill="white"/>
<path d="M80.4219 9.81543H83.0038L88.9671 17.6517V9.81543H91.7307V22.5425H89.3491L83.1854 14.4518V22.5425H80.4219V9.81543Z" fill="white"/>
<path d="M101.805 22.7604C100.871 22.7604 100.005 22.5905 99.2044 22.2514C98.4043 21.9123 97.7135 21.4485 97.1318 20.8605C96.5498 20.2726 96.0951 19.5787 95.7683 18.7787C95.4409 17.9786 95.2773 17.1241 95.2773 16.215V16.1788C95.2773 15.2697 95.4409 14.4184 95.7683 13.6243C96.0953 12.8304 96.5498 12.1334 97.1318 11.5335C97.7133 10.9335 98.4105 10.4606 99.2224 10.1152C100.034 9.76985 100.932 9.59717 101.914 9.59717C102.507 9.59717 103.049 9.64588 103.54 9.74256C104.031 9.8398 104.477 9.97287 104.877 10.1425C105.277 10.3124 105.646 10.5184 105.986 10.7607C106.325 11.0033 106.64 11.2698 106.931 11.5608L105.15 13.6152C104.652 13.1669 104.147 12.8151 103.632 12.5607C103.116 12.3063 102.538 12.1789 101.895 12.1789C101.362 12.1789 100.868 12.2821 100.414 12.4881C99.959 12.6941 99.568 12.9789 99.2406 13.3424C98.9136 13.706 98.659 14.1274 98.4769 14.606C98.2955 15.085 98.2047 15.597 98.2047 16.1424V16.1786C98.2047 16.7239 98.2955 17.2393 98.4769 17.7239C98.659 18.2089 98.91 18.633 99.2317 18.9965C99.5526 19.3601 99.9406 19.6482 100.395 19.8603C100.85 20.0727 101.35 20.1784 101.895 20.1784C102.623 20.1784 103.237 20.0452 103.74 19.7785C104.243 19.5121 104.744 19.1484 105.24 18.6876L107.022 20.4876C106.695 20.8392 106.355 21.1545 106.004 21.4329C105.653 21.7119 105.268 21.9512 104.849 22.1513C104.431 22.3511 103.973 22.503 103.477 22.6057C102.98 22.7086 102.422 22.7604 101.805 22.7604Z" fill="white"/>
<path d="M110.32 9.81543H119.902V12.3064H113.084V14.8882H119.084V17.3789H113.084V20.0517H119.993V22.5425H110.32V9.81543Z" fill="white"/>
</g>
<defs>
<clipPath id="clip0_753_1521">
<rect width="120" height="32" fill="white"/>
</clipPath>
</defs>
</svg>
