<svg width="84" height="32" viewBox="0 0 84 32" fill="none" xmlns="http://www.w3.org/2000/svg">
<g clip-path="url(#clip0_7105_38058)">
<mask id="mask0_7105_38058" style="mask-type:luminance" maskUnits="userSpaceOnUse" x="0" y="-1" width="84" height="33">
<path d="M83.4049 -0.00292969H0.324219V31.9971H83.4049V-0.00292969Z" fill="white"/>
</mask>
<g mask="url(#mask0_7105_38058)">
<path d="M6.61739 4.04321C8.16486 4.04321 9.47098 4.59689 10.5358 5.67586C11.6005 6.76903 12.14 8.16034 12.14 9.83558C12.14 11.5108 11.6005 12.9021 10.5358 13.9953C9.47098 15.0885 8.16486 15.6279 6.61739 15.6279C5.21189 15.6279 4.09032 15.1169 3.22431 14.0947V15.3014H0.328125V-0.00292969H3.22431V5.57648C4.07613 4.5543 5.21189 4.04321 6.61739 4.04321ZM4.01934 12.1213C4.64401 12.675 5.36805 12.9589 6.20567 12.9589C7.0433 12.9589 7.75314 12.6892 8.34942 12.1355C8.94569 11.5818 9.24383 10.8294 9.24383 9.83558C9.24383 8.85599 8.94569 8.08935 8.33522 7.53567C7.73895 6.98199 7.0149 6.71224 6.17728 6.71224C5.33966 6.71224 4.61561 6.98199 4.00514 7.53567C3.39467 8.07515 3.09654 8.84179 3.09654 9.80719C3.08234 10.801 3.39467 11.5676 4.01934 12.1213Z" fill="white"/>
</g>
<mask id="mask1_7105_38058" style="mask-type:luminance" maskUnits="userSpaceOnUse" x="0" y="-1" width="84" height="33">
<path d="M83.4049 -0.00292969H0.324219V31.9971H83.4049V-0.00292969Z" fill="white"/>
</mask>
<g mask="url(#mask1_7105_38058)">
<path d="M17.3347 4.37012H14.4102V15.3018H17.3347V4.37012Z" fill="white"/>
</g>
<mask id="mask2_7105_38058" style="mask-type:luminance" maskUnits="userSpaceOnUse" x="0" y="-1" width="84" height="33">
<path d="M83.4049 -0.00292969H0.324219V31.9971H83.4049V-0.00292969Z" fill="white"/>
</mask>
<g mask="url(#mask2_7105_38058)">
<path d="M27.231 12.1356L29.034 14.0522C28.026 15.1028 26.8618 15.6423 25.5131 15.6423C24.0366 15.6423 22.8867 15.2306 22.0633 14.4072C21.2398 13.5837 20.8281 12.4764 20.8281 11.0709V7.30867L21.5806 5.69021L20.8281 4.38409V1.44531H23.7527V11.0709C23.7527 12.2776 24.3774 12.8739 25.6125 12.8739C26.2088 12.8739 26.7483 12.6325 27.231 12.1356Z" fill="white"/>
</g>
<mask id="mask3_7105_38058" style="mask-type:luminance" maskUnits="userSpaceOnUse" x="0" y="-1" width="84" height="33">
<path d="M83.4049 -0.00292969H0.324219V31.9971H83.4049V-0.00292969Z" fill="white"/>
</mask>
<g mask="url(#mask3_7105_38058)">
<path d="M34.5846 15.6562C32.6964 15.6562 31.1631 14.9605 30.0273 13.5834L31.9723 12.0501C32.9803 12.8878 33.9173 13.3137 34.8117 13.3137C35.337 13.3137 35.7487 13.2143 36.0327 13.0013C36.3166 12.7884 36.4586 12.5328 36.4586 12.2205C36.4586 11.9792 36.345 11.7804 36.1178 11.61C35.8907 11.4397 35.6635 11.3119 35.4364 11.2551C35.2092 11.1841 34.8401 11.0705 34.3432 10.9286C33.7895 10.7582 33.3352 10.6304 33.0087 10.5311C32.668 10.4317 32.2847 10.2613 31.8446 10.0058C31.4045 9.76443 31.0779 9.4379 30.8792 9.04038C30.6662 8.64286 30.5668 8.14597 30.5668 7.56389C30.5668 6.47073 30.9501 5.60471 31.731 4.96585C32.5118 4.32698 33.4772 4.01465 34.6698 4.01465C36.5154 4.01465 37.9351 4.68191 38.9572 6.03062L37.0407 7.59229C36.3734 6.79726 35.5926 6.38554 34.7123 6.38554C34.258 6.38554 33.9031 6.48492 33.6476 6.69788C33.392 6.91083 33.2643 7.16638 33.2643 7.45032C33.2643 7.69167 33.3778 7.89042 33.5908 8.07499C33.8037 8.24535 34.0309 8.37312 34.258 8.42991C34.4852 8.4867 34.8543 8.58608 35.3512 8.72805C35.7913 8.85582 36.132 8.941 36.3734 9.01199C36.6147 9.08297 36.9271 9.19655 37.3388 9.36691C37.7363 9.53727 38.0486 9.73603 38.2474 9.93479C38.4462 10.1477 38.6307 10.4175 38.8011 10.7724C38.9714 11.1273 39.0424 11.5249 39.0424 11.9792C39.0424 13.0723 38.6449 13.9667 37.8357 14.6482C37.0123 15.3154 35.9333 15.6562 34.5846 15.6562Z" fill="white"/>
</g>
<mask id="mask4_7105_38058" style="mask-type:luminance" maskUnits="userSpaceOnUse" x="0" y="-1" width="84" height="33">
<path d="M83.4049 -0.00292969H0.324219V31.9971H83.4049V-0.00292969Z" fill="white"/>
</mask>
<g mask="url(#mask4_7105_38058)">
<path d="M49.3637 7.97703C48.5686 7.15361 47.6458 6.7419 46.6378 6.7419C45.8002 6.7419 45.0904 7.02584 44.5083 7.60791C43.9262 8.17579 43.6281 8.95663 43.6281 9.92202C43.6281 10.8164 43.9262 11.5405 44.5367 12.08C45.133 12.6336 45.8712 12.9034 46.723 12.9034C47.7736 12.9034 48.7106 12.5059 49.5056 11.725L51.337 13.4429C50.0735 14.9052 48.5118 15.6292 46.6378 15.6292C44.92 15.6292 43.5145 15.0897 42.4071 13.9966C41.2998 12.9176 40.7461 11.5263 40.7461 9.85104C40.7461 8.17579 41.2998 6.78449 42.4213 5.67712C43.5429 4.56976 44.9626 4.03027 46.6662 4.03027C48.5118 4.03027 50.0309 4.74012 51.2235 6.15982L49.3637 7.97703Z" fill="white"/>
</g>
<mask id="mask5_7105_38058" style="mask-type:luminance" maskUnits="userSpaceOnUse" x="0" y="-1" width="84" height="33">
<path d="M83.4049 -0.00292969H0.324219V31.9971H83.4049V-0.00292969Z" fill="white"/>
</mask>
<g mask="url(#mask5_7105_38058)">
<path d="M61.1462 4.3695H64.0424V15.3012H61.1462V14.0944C60.2944 15.1166 59.1586 15.6277 57.7531 15.6277C56.2056 15.6277 54.8995 15.0882 53.8347 13.9951C52.77 12.9019 52.2305 11.5248 52.2305 9.83534C52.2305 8.16009 52.77 6.76879 53.8347 5.67562C54.8995 4.58245 56.2056 4.04297 57.7531 4.04297C59.1586 4.04297 60.2802 4.55406 61.1462 5.57624V4.3695ZM56.0211 12.1352C56.6173 12.6889 57.3272 12.9587 58.1648 12.9587C59.0024 12.9587 59.7265 12.6747 60.3511 12.1211C60.9758 11.5674 61.2739 10.8007 61.2739 9.83534C61.2739 8.85575 60.9616 8.08911 60.3653 7.53543C59.7549 6.99594 59.0308 6.712 58.1932 6.712C57.3556 6.712 56.6315 6.98174 56.0353 7.53543C55.439 8.08911 55.1267 8.84155 55.1267 9.83534C55.1267 10.8291 55.4248 11.5816 56.0211 12.1352Z" fill="white"/>
</g>
<mask id="mask6_7105_38058" style="mask-type:luminance" maskUnits="userSpaceOnUse" x="0" y="-1" width="84" height="33">
<path d="M83.4049 -0.00292969H0.324219V31.9971H83.4049V-0.00292969Z" fill="white"/>
</mask>
<g mask="url(#mask6_7105_38058)">
<path d="M69.9871 -0.00292969H67.0625V15.3014H69.9871V-0.00292969Z" fill="white"/>
</g>
<mask id="mask7_7105_38058" style="mask-type:luminance" maskUnits="userSpaceOnUse" x="0" y="-1" width="84" height="33">
<path d="M83.4049 -0.00292969H0.324219V31.9971H83.4049V-0.00292969Z" fill="white"/>
</mask>
<g mask="url(#mask7_7105_38058)">
<path d="M83.4063 9.42513C83.4063 9.89363 83.3638 10.3479 83.2928 10.788L75.1153 10.8164C75.3141 11.5689 75.6974 12.1651 76.2511 12.6336C76.8047 13.1021 77.5004 13.3293 78.338 13.3293C79.3034 13.3293 80.3256 12.9318 81.4046 12.1509L82.9662 13.8404C81.7453 15.0187 80.1694 15.615 78.2386 15.615C76.464 15.615 75.0301 15.0755 73.9228 13.9824C72.8154 12.8892 72.2617 11.4837 72.2617 9.78005C72.2617 8.09061 72.8012 6.69931 73.8944 5.63453C74.9733 4.56976 76.3646 4.03027 78.0683 4.03027C79.6867 4.03027 80.9929 4.51297 81.9583 5.49256C82.9095 6.48635 83.4063 7.79247 83.4063 9.42513ZM78.0541 6.34438C77.3584 6.34438 76.748 6.54314 76.2227 6.92646C75.6974 7.32397 75.3425 7.84926 75.1579 8.53072H80.7089C80.567 7.83507 80.2546 7.29558 79.7861 6.91226C79.2892 6.52894 78.7213 6.34438 78.0541 6.34438Z" fill="white"/>
</g>
<mask id="mask8_7105_38058" style="mask-type:luminance" maskUnits="userSpaceOnUse" x="20" y="4" width="8" height="4">
<path d="M27.413 4.375H20.8398V7.29958H27.413V4.375Z" fill="white"/>
</mask>
<g mask="url(#mask8_7105_38058)">
<path d="M27.413 4.375H20.8398V7.29958H27.413V4.375Z" fill="white"/>
</g>
<mask id="mask9_7105_38058" style="mask-type:luminance" maskUnits="userSpaceOnUse" x="0" y="-1" width="84" height="33">
<path d="M83.4049 -0.00292969H0.324219V31.9971H83.4049V-0.00292969Z" fill="white"/>
</mask>
<g mask="url(#mask9_7105_38058)">
<path d="M40.7305 25.5813C40.7305 23.5654 42.2495 22.0889 44.1945 22.0889C45.7136 22.0889 46.9913 23.0117 47.4172 24.4598H46.7358C46.3809 23.4092 45.4013 22.6993 44.2087 22.6993C42.6187 22.6993 41.3977 23.9203 41.3977 25.5813C41.3977 27.2424 42.6187 28.4633 44.1945 28.4633C45.4013 28.4633 46.3809 27.7393 46.7358 26.7029H47.4172C47.0055 28.1652 45.6994 29.0738 44.1945 29.0738C42.2495 29.0738 40.7305 27.5973 40.7305 25.5813Z" fill="white"/>
</g>
<mask id="mask10_7105_38058" style="mask-type:luminance" maskUnits="userSpaceOnUse" x="0" y="-1" width="84" height="33">
<path d="M83.4049 -0.00292969H0.324219V31.9971H83.4049V-0.00292969Z" fill="white"/>
</mask>
<g mask="url(#mask10_7105_38058)">
<path d="M55.3068 22.2166V28.946H54.6538V27.3418C54.1285 28.3781 53.1063 29.0738 51.8428 29.0738C49.9546 29.0738 48.6484 27.5973 48.6484 25.5813C48.6484 23.5654 49.9688 22.0889 51.8286 22.0889C53.1063 22.0889 54.1285 22.7845 54.6538 23.8351V22.2166H55.3068ZM54.668 25.5813C54.668 23.9203 53.4754 22.6993 51.9279 22.6993C50.3805 22.6993 49.3015 23.9061 49.3015 25.5813C49.3015 27.2424 50.3805 28.4491 51.9279 28.4491C53.4896 28.4491 54.668 27.2566 54.668 25.5813Z" fill="white"/>
</g>
<mask id="mask11_7105_38058" style="mask-type:luminance" maskUnits="userSpaceOnUse" x="0" y="-1" width="84" height="33">
<path d="M83.4049 -0.00292969H0.324219V31.9971H83.4049V-0.00292969Z" fill="white"/>
</mask>
<g mask="url(#mask11_7105_38058)">
<path d="M64.0412 25.5814C64.0412 27.5974 62.7351 29.0739 60.8611 29.0739C59.5833 29.0739 58.5612 28.3782 58.0359 27.3277V31.9985H57.3828V22.2167H58.0359V23.8352C58.5612 22.7846 59.5833 22.089 60.8611 22.089C62.7209 22.0748 64.0412 23.5655 64.0412 25.5814ZM63.3881 25.5814C63.3881 23.9204 62.3234 22.6994 60.7617 22.6994C59.2142 22.6994 58.0217 23.9062 58.0217 25.5814C58.0217 27.2567 59.2142 28.4492 60.7617 28.4492C62.3092 28.4492 63.3881 27.2425 63.3881 25.5814Z" fill="white"/>
</g>
<mask id="mask12_7105_38058" style="mask-type:luminance" maskUnits="userSpaceOnUse" x="0" y="-1" width="84" height="33">
<path d="M83.4049 -0.00292969H0.324219V31.9971H83.4049V-0.00292969Z" fill="white"/>
</mask>
<g mask="url(#mask12_7105_38058)">
<path d="M66.3874 22.2168H65.7344V28.9462H66.3874V22.2168Z" fill="white"/>
</g>
<mask id="mask13_7105_38058" style="mask-type:luminance" maskUnits="userSpaceOnUse" x="0" y="-1" width="84" height="33">
<path d="M83.4049 -0.00292969H0.324219V31.9971H83.4049V-0.00292969Z" fill="white"/>
</mask>
<g mask="url(#mask13_7105_38058)">
<path d="M73.1381 28.6896C72.7974 28.86 72.1159 29.0871 71.4203 29.0871C69.9296 29.0871 69.0636 28.0934 69.0636 26.3897V22.8263H67.7148V22.2158H69.0636V20.5264H69.7166V22.2158H73.0103V22.8263H69.7166V26.3613C69.7166 27.6816 70.2987 28.4625 71.5338 28.4625C72.0449 28.4625 72.556 28.3347 73.0245 28.1359L73.1381 28.6896Z" fill="white"/>
</g>
<mask id="mask14_7105_38058" style="mask-type:luminance" maskUnits="userSpaceOnUse" x="0" y="-1" width="84" height="33">
<path d="M83.4049 -0.00292969H0.324219V31.9971H83.4049V-0.00292969Z" fill="white"/>
</mask>
<g mask="url(#mask14_7105_38058)">
<path d="M80.6779 22.2166V28.946H80.0249V27.3418C79.4996 28.3781 78.4774 29.0738 77.2139 29.0738C75.3257 29.0738 74.0195 27.5973 74.0195 25.5813C74.0195 23.5654 75.3399 22.0889 77.1997 22.0889C78.4774 22.0889 79.4996 22.7845 80.0249 23.8351V22.2166H80.6779ZM80.0532 25.5813C80.0532 23.9203 78.8607 22.6993 77.3132 22.6993C75.7658 22.6993 74.6868 23.9061 74.6868 25.5813C74.6868 27.2424 75.7658 28.4491 77.3132 28.4491C78.8607 28.4491 80.0532 27.2566 80.0532 25.5813Z" fill="white"/>
</g>
<mask id="mask15_7105_38058" style="mask-type:luminance" maskUnits="userSpaceOnUse" x="0" y="-1" width="84" height="33">
<path d="M83.4049 -0.00292969H0.324219V31.9971H83.4049V-0.00292969Z" fill="white"/>
</mask>
<g mask="url(#mask15_7105_38058)">
<path d="M83.4094 19.5186H82.7422V28.9312H83.4094V19.5186Z" fill="white"/>
</g>
<mask id="mask16_7105_38058" style="mask-type:luminance" maskUnits="userSpaceOnUse" x="0" y="-1" width="84" height="33">
<path d="M83.4049 -0.00292969H0.324219V31.9971H83.4049V-0.00292969Z" fill="white"/>
</mask>
<g mask="url(#mask16_7105_38058)">
<path d="M27.4011 4.37012H24.4766V7.2947H27.4011V4.37012Z" fill="white"/>
</g>
</g>
<defs>
<clipPath id="clip0_7105_38058">
<rect width="83.0807" height="32" fill="white" transform="translate(0.332031)"/>
</clipPath>
</defs>
</svg>
