<svg width="119" height="32" viewBox="0 0 119 32" fill="none" xmlns="http://www.w3.org/2000/svg">
<g clip-path="url(#clip0_756_1756)">
<path fill-rule="evenodd" clip-rule="evenodd" d="M9.24092 6C12.3229 6 14.8586 8.34171 15.1632 11.3437L20.1156 14.7831L14.086 16.2416C13.6095 17.9009 13.213 19.8342 12.9798 22.0618L0 22.055C1.05513 11.953 3.88186 8.888 5.04081 7.73416C6.19973 6.58032 7.60205 6 9.24092 6ZM7.38422 11.9649C7.38422 13.1596 8.35254 14.1279 9.54724 14.1279C10.7402 14.1279 11.7085 13.1596 11.7103 11.9649C11.7103 10.7702 10.7419 9.80188 9.54724 9.80188C8.35254 9.80188 7.38422 10.7702 7.38422 11.9649ZM70.4281 16.0336V22.0615H65.3227V16.0336C65.3227 15.2065 64.6503 14.5361 63.8249 14.5361H55.4908V22.0615H50.3856V6.00138H55.4908V9.43056H63.8249C67.467 9.43056 70.4281 12.3917 70.4281 16.0336ZM46.834 14.5402H34.8429C34.1775 14.5402 33.6346 15.0831 33.6346 15.7485C33.6346 16.4156 34.1775 16.9568 34.8429 16.9568H46.834V22.0623H34.8429C31.3559 22.0623 28.5291 19.2356 28.5291 15.7485C28.5291 12.2615 31.3559 9.43474 34.8429 9.43474H46.834V14.5402ZM98.0616 9.43474H112.605C116.092 9.43474 118.919 12.2615 118.919 15.7485C118.919 19.2356 116.092 22.0623 112.605 22.0623H103.167V25.4864H98.0616V9.43474ZM103.167 16.9568H112.605C113.271 16.9568 113.814 16.4139 113.814 15.7485C113.814 15.0814 113.271 14.5402 112.605 14.5402H103.167V16.9568ZM73.9778 22.0632V9.43568H79.0832V22.0632H73.9778ZM95.3622 9.43474V14.5402L87.9114 16.3663V22.0623H82.8059V9.43474H87.9114V11.2608L95.3622 9.43474Z" fill="white"/>
</g>
<defs>
<clipPath id="clip0_756_1756">
<rect width="118.919" height="20" fill="white" transform="translate(0 6)"/>
</clipPath>
</defs>
</svg>
