<svg width="148" height="32" viewBox="0 0 148 32" fill="none" xmlns="http://www.w3.org/2000/svg">
<g clip-path="url(#clip0_756_1873)">
<path d="M0.280679 3.70068H2.36764C2.50993 3.70068 2.65222 3.84298 2.65222 3.98527V27.4161C2.65222 27.5584 2.50993 27.7007 2.36764 27.7007H0.280679C0.138386 27.7007 -0.00390625 27.6058 -0.00390625 27.4161V3.98527C-0.00390625 3.84298 0.138386 3.70068 0.280679 3.70068Z" fill="white"/>
<path d="M5.59318 3.70068H7.68014C7.82243 3.70068 7.96472 3.84298 7.96472 3.98527V27.4161C7.96472 27.5584 7.82243 27.7007 7.68014 27.7007H5.59318C5.45089 27.7007 5.30859 27.5584 5.30859 27.4161V3.98527C5.35602 3.84298 5.45089 3.70068 5.59318 3.70068Z" fill="white"/>
<path d="M10.9526 3.70068H13.0395C13.1818 3.70068 13.3241 3.84298 13.3241 3.98527V27.4161C13.3241 27.5584 13.1818 27.7007 13.0395 27.7007H10.9526C10.8103 27.7007 10.668 27.5584 10.668 27.4161V3.98527C10.668 3.84298 10.8103 3.70068 10.9526 3.70068Z" fill="white"/>
<path d="M16.2651 3.70068H18.352C18.4943 3.70068 18.6366 3.84298 18.6366 3.98527V27.4161C18.6366 27.5584 18.4943 27.7007 18.352 27.7007H16.2651C16.1228 27.7007 15.9805 27.5584 15.9805 27.4161V3.98527C15.9805 3.84298 16.1228 3.70068 16.2651 3.70068Z" fill="white"/>
<path d="M21.6244 13.0444H23.7114C23.8537 13.0444 23.996 13.1867 23.996 13.329V18.1195C23.996 18.2618 23.8537 18.4041 23.7114 18.4041H21.6244C21.4821 18.4041 21.3398 18.2618 21.3398 18.1195V13.329C21.3398 13.1867 21.4821 13.0444 21.6244 13.0444Z" fill="white"/>
<path d="M44.2491 9.96144C43.4902 9.96144 42.8262 10.1037 42.2096 10.3883C41.593 10.6255 41.1187 11.0049 40.6918 11.5267C40.2649 12.0484 39.9803 12.665 39.7432 13.3765C39.506 14.0879 39.4112 14.9417 39.4112 15.8429C39.4112 17.0286 39.6009 18.0721 39.9329 18.9733C40.3123 19.8271 40.8341 20.4911 41.5455 20.9654C42.257 21.4397 43.1582 21.6769 44.2491 21.6769C44.9131 21.6769 45.5297 21.6294 46.1463 21.4871C46.7629 21.3448 47.3795 21.2025 47.9961 21.0128V23.0049C47.3795 23.2421 46.7629 23.3844 46.1463 23.4792C45.5297 23.5741 44.7708 23.6215 43.9645 23.6215C42.3993 23.6215 41.1187 23.2895 40.0752 22.6729C39.0317 22.0089 38.2728 21.1077 37.7511 19.9219C37.2293 18.7361 36.9922 17.3606 36.9922 15.7954C36.9922 14.6571 37.1345 13.6136 37.4665 12.6176C37.7985 11.6689 38.2728 10.8152 38.8894 10.1037C39.506 9.39227 40.2649 8.87053 41.1661 8.49108C42.0673 8.15907 43.1108 7.96934 44.2965 7.96934C45.0554 7.96934 45.8143 8.0642 46.5732 8.2065C47.3321 8.34879 47.9961 8.58594 48.5653 8.87053L47.7116 10.8152C47.1898 10.578 46.6681 10.3883 46.0989 10.1986C45.4823 10.0563 44.9131 9.96144 44.2491 9.96144ZM53.261 23.4318H50.9843V7.21045H53.261V23.4318ZM59.095 11.9061V23.4318H56.8183V11.9061H59.095ZM57.9566 7.54247C58.2886 7.54247 58.6206 7.63733 58.8578 7.82705C59.095 8.01677 59.2372 8.34879 59.2372 8.8231C59.2372 9.29741 59.095 9.62942 58.8578 9.81914C58.6206 10.0089 58.2886 10.1037 57.9566 10.1037C57.5772 10.1037 57.2926 10.0089 57.008 9.81914C56.7708 9.58199 56.6286 9.24997 56.6286 8.8231C56.6286 8.34879 56.7708 8.01677 57.008 7.82705C57.2926 7.63733 57.5772 7.54247 57.9566 7.54247ZM67.2531 23.6215C66.2096 23.6215 65.261 23.4318 64.5021 23.0049C63.6957 22.578 63.0791 21.9614 62.6523 21.0603C62.2254 20.1591 61.9882 19.0682 61.9882 17.6927C61.9882 16.2697 62.2254 15.1314 62.6997 14.2302C63.174 13.329 63.838 12.7124 64.6444 12.2855C65.4507 11.8587 66.3993 11.6215 67.4428 11.6215C68.0594 11.6215 68.676 11.6689 69.2452 11.8587C69.8143 12.001 70.2886 12.1433 70.6681 12.2855L70.004 14.1354C69.6246 13.9931 69.1977 13.8508 68.7234 13.7085C68.2965 13.6136 67.8697 13.5187 67.4428 13.5187C66.7313 13.5187 66.1621 13.661 65.6878 13.9931C65.2135 14.2776 64.8815 14.752 64.6444 15.3686C64.4546 15.9852 64.3123 16.744 64.3123 17.6452C64.3123 18.499 64.4072 19.2579 64.6444 19.827C64.8815 20.4437 65.2135 20.8705 65.6404 21.2025C66.1147 21.4871 66.6365 21.6294 67.3479 21.6294C68.012 21.6294 68.5337 21.5346 69.0554 21.4397C69.5297 21.2974 70.004 21.1077 70.4309 20.8705V22.8152C70.004 23.0523 69.5772 23.2421 69.1029 23.3369C68.5337 23.5741 67.9645 23.6215 67.2531 23.6215ZM75.3163 15.3211C75.3163 15.6057 75.3163 15.9852 75.2689 16.3646C75.2689 16.744 75.2214 17.1235 75.2214 17.4081H75.2689C75.3637 17.2658 75.506 17.0761 75.6957 16.8863C75.8855 16.6492 76.0278 16.4595 76.2175 16.2223C76.4072 15.9852 76.5495 15.8429 76.6918 15.6531L80.2017 11.8587H82.8104L78.1622 16.7915L83.095 23.3844H80.4388L76.6444 18.2618L75.3163 19.3527V23.3844H73.0871V7.21045H75.3163V15.3211ZM97.1345 23.4318H94.8578V16.4595H87.6009V23.4318H85.2768V8.15907H87.6009V14.4674H94.8578V8.15907H97.1819V23.4318H97.1345ZM111.127 17.6452C111.127 18.5938 110.984 19.4476 110.747 20.2065C110.51 20.9654 110.131 21.582 109.656 22.1037C109.182 22.6255 108.613 23.0049 107.949 23.2895C107.285 23.5267 106.526 23.6689 105.672 23.6689C104.913 23.6689 104.202 23.5267 103.538 23.2895C102.874 23.0049 102.304 22.6255 101.83 22.1037C101.356 21.582 100.976 20.9654 100.739 20.2065C100.455 19.4476 100.312 18.5938 100.312 17.6452C100.312 16.3646 100.502 15.3211 100.976 14.4199C101.403 13.5187 102.02 12.8547 102.874 12.4278C103.68 11.9535 104.676 11.7164 105.767 11.7164C106.81 11.7164 107.759 11.9535 108.518 12.4278C109.324 12.9021 109.941 13.5662 110.415 14.4199C110.889 15.2737 111.127 16.3646 111.127 17.6452ZM102.636 17.6452C102.636 18.499 102.731 19.2579 102.968 19.8745C103.158 20.4911 103.538 20.9654 103.965 21.2974C104.439 21.6294 105.008 21.7717 105.719 21.7717C106.431 21.7717 107 21.6294 107.474 21.2974C107.949 20.9654 108.281 20.4911 108.47 19.8745C108.66 19.2579 108.802 18.499 108.802 17.6452C108.802 16.744 108.708 16.0326 108.47 15.416C108.281 14.7994 107.901 14.3725 107.474 14.0405C107.048 13.7085 106.431 13.5662 105.719 13.5662C104.676 13.5662 103.87 13.9456 103.395 14.6097C102.874 15.3686 102.636 16.3646 102.636 17.6452ZM123.885 11.9061V23.4318H122.083L121.751 21.914H121.656C121.419 22.2935 121.087 22.6255 120.708 22.9101C120.328 23.1472 119.901 23.3369 119.427 23.4792C118.953 23.6215 118.526 23.6689 118.004 23.6689C117.103 23.6689 116.344 23.5267 115.727 23.2421C115.111 22.9575 114.636 22.4832 114.304 21.8666C113.972 21.25 113.83 20.4437 113.83 19.495V11.9061H116.107V19.1156C116.107 20.0168 116.297 20.6808 116.676 21.1077C117.055 21.5346 117.672 21.7717 118.431 21.7717C119.237 21.7717 119.854 21.6294 120.328 21.2974C120.802 20.9654 121.087 20.5385 121.277 19.9219C121.466 19.3053 121.561 18.5938 121.561 17.7401V11.9061H123.885ZM135.079 20.1591C135.079 20.918 134.889 21.5346 134.51 22.0563C134.131 22.578 133.609 22.9575 132.897 23.2421C132.186 23.4792 131.38 23.6215 130.383 23.6215C129.577 23.6215 128.866 23.5741 128.297 23.4318C127.727 23.3369 127.206 23.1472 126.731 22.9101V20.918C127.253 21.1551 127.822 21.3923 128.486 21.582C129.15 21.7717 129.814 21.8666 130.431 21.8666C131.285 21.8666 131.901 21.7243 132.281 21.4397C132.66 21.1551 132.85 20.8231 132.85 20.3488C132.85 20.1116 132.802 19.8745 132.613 19.6848C132.47 19.495 132.186 19.2579 131.806 19.0682C131.427 18.831 130.858 18.5938 130.099 18.3093C129.387 18.0247 128.771 17.7401 128.249 17.4555C127.727 17.1709 127.348 16.7915 127.063 16.412C126.779 15.9852 126.636 15.4634 126.636 14.8468C126.636 13.8508 127.016 13.0919 127.822 12.5701C128.629 12.0484 129.719 11.7638 131.048 11.7638C131.759 11.7638 132.376 11.8112 132.992 12.001C133.609 12.1433 134.225 12.333 134.795 12.6176L134.036 14.3251C133.704 14.1828 133.372 14.0405 132.992 13.9456C132.66 13.8508 132.281 13.7559 131.949 13.661C131.617 13.6136 131.237 13.5662 130.905 13.5662C130.241 13.5662 129.719 13.661 129.34 13.8982C128.961 14.1354 128.818 14.4199 128.818 14.7994C128.818 15.084 128.913 15.3211 129.055 15.5108C129.245 15.7006 129.53 15.8903 129.909 16.1274C130.289 16.3646 130.905 16.5543 131.617 16.8389C132.328 17.1235 132.945 17.4081 133.419 17.6927C133.941 17.9772 134.32 18.3093 134.557 18.7361C134.937 19.0207 135.079 19.5425 135.079 20.1591ZM142.289 11.7164C143.285 11.7164 144.186 11.9535 144.897 12.3804C145.609 12.8073 146.178 13.3765 146.557 14.1828C146.937 14.9891 147.174 15.8903 147.174 16.9812V18.2144H139.443C139.49 19.4002 139.775 20.3014 140.344 20.918C140.961 21.5346 141.767 21.8666 142.858 21.8666C143.617 21.8666 144.233 21.8191 144.802 21.6769C145.372 21.5346 145.988 21.3448 146.605 21.0603V22.9575C146.036 23.1946 145.466 23.3844 144.85 23.5267C144.281 23.6689 143.569 23.7164 142.763 23.7164C141.672 23.7164 140.676 23.4792 139.822 23.0523C138.968 22.6255 138.304 21.9614 137.83 21.1077C137.356 20.2065 137.119 19.163 137.119 17.8824C137.119 16.6018 137.356 15.5108 137.783 14.6097C138.21 13.7085 138.826 13.0444 139.585 12.5701C140.344 11.9535 141.245 11.7164 142.289 11.7164ZM142.289 13.4239C141.482 13.4239 140.818 13.7085 140.344 14.2302C139.87 14.752 139.585 15.5108 139.49 16.4595H144.897C144.897 15.8429 144.802 15.3211 144.613 14.8942C144.423 14.4199 144.138 14.0879 143.759 13.8033C143.38 13.5662 142.905 13.4239 142.289 13.4239Z" fill="white"/>
</g>
<defs>
<clipPath id="clip0_756_1873">
<rect width="147.178" height="24" fill="white" transform="translate(0 3.7002)"/>
</clipPath>
</defs>
</svg>
