<svg width="118" height="32" viewBox="0 0 118 32" fill="none" xmlns="http://www.w3.org/2000/svg">
<g clip-path="url(#clip0_756_1884)">
<path d="M96.9367 18.7288C96.9367 21.2222 94.8994 21.7354 91.9942 21.7354H86.3516V11.3354H91.4511C94.3292 11.3354 96.2462 12.0197 96.2462 14.2837C96.2462 15.3204 95.7769 15.9684 94.9073 16.2782C95.939 16.5918 96.9367 17.3188 96.9367 18.7288ZM91.2346 13.5295H89.4422V15.5524H91.2346C92.2327 15.5524 93.1437 15.4526 93.1437 14.6116C93.1461 13.7005 92.3207 13.5295 91.2346 13.5295ZM93.8421 18.5435C93.8421 17.7322 93.044 17.5184 91.8191 17.5184H89.4422V19.5271H92.0782C93.2175 19.5271 93.8445 19.356 93.8445 18.5435H93.8421Z" fill="#F2F2F2"/>
<path d="M100.708 13.5295V15.7805H104.768V17.7607H100.708V21.7354H97.5977V11.3354H106.669V13.5295H100.708Z" fill="#F2F2F2"/>
<path d="M117.523 13.5295H113.991V21.7354H110.898V13.5295H107.352V11.3354H117.523V13.5295Z" fill="#F2F2F2"/>
<path d="M24.9028 11.0529V21.7043C24.9028 22.2706 24.7538 22.827 24.4705 23.3175C24.1873 23.808 23.7799 24.2152 23.2894 24.4983L22.1645 25.1462L19.6841 26.5718L14.0649 29.8116C13.5744 30.095 13.0179 30.2442 12.4514 30.2442C11.8849 30.2442 11.3285 30.095 10.838 29.8116L5.21877 26.5718L2.72148 25.1398L1.60826 24.4983C1.11867 24.2146 0.712328 23.807 0.430037 23.3166C0.147744 22.8262 -0.000563707 22.2701 1.61012e-06 21.7043V11.0529C0.000128391 10.4864 0.149277 9.92986 0.432478 9.43919C0.715676 8.94856 1.12296 8.54102 1.61345 8.25755L2.72148 7.62124L2.8744 7.5331L6.96179 11.6244C7.58571 12.248 8.0806 12.9885 8.4183 13.8034C8.75595 14.6184 8.92975 15.4919 8.92975 16.374C8.92975 17.2562 8.75595 18.1297 8.4183 18.9446C8.0806 19.7596 7.58571 20.5 6.96179 21.1237C6.91158 21.1729 6.87187 21.2318 6.84513 21.2968C6.81839 21.3619 6.80518 21.4317 6.80625 21.502C6.80735 21.5723 6.82273 21.6417 6.85148 21.7058C6.88023 21.77 6.92172 21.8276 6.97346 21.8753C7.07741 21.9675 7.21292 22.016 7.35177 22.0107C7.49059 22.0054 7.62203 21.9466 7.71861 21.8468C8.97712 20.5973 10.6786 19.896 12.4521 19.896C14.2255 19.896 15.927 20.5973 17.1855 21.8468C17.2822 21.946 17.4133 22.0042 17.5517 22.0095C17.6902 22.0149 17.8254 21.9668 17.9293 21.8753C17.9811 21.8276 18.0226 21.77 18.0513 21.7058C18.0801 21.6417 18.0955 21.5723 18.0966 21.502C18.0977 21.4317 18.0844 21.3619 18.0577 21.2968C18.0309 21.2318 17.9913 21.1729 17.941 21.1237C17.3173 20.4999 16.8225 19.7595 16.4849 18.9445C16.1474 18.1296 15.9736 17.2561 15.9736 16.374C15.9736 15.4919 16.1474 14.6185 16.4849 13.8035C16.8225 12.9886 17.3173 12.2481 17.941 11.6244C17.9976 11.5692 18.0407 11.5017 18.0672 11.4272C18.0936 11.3527 18.1027 11.2731 18.0937 11.1946C18.0847 11.1161 18.0579 11.0406 18.0152 10.9741C17.9726 10.9075 17.9153 10.8516 17.8477 10.8106C17.7447 10.7483 17.6236 10.7228 17.5042 10.7383C17.3848 10.7539 17.2743 10.8095 17.1907 10.8961C15.9301 12.151 14.2232 12.8546 12.4445 12.8524C10.6658 12.8502 8.96055 12.1424 7.70308 10.8844L3.81525 6.9966L5.24077 6.17108L10.838 2.93252C11.3285 2.64918 11.8849 2.5 12.4514 2.5C13.0179 2.5 13.5744 2.64918 14.0649 2.93252L19.6698 6.17238L22.1723 7.61733L23.2894 8.26532C23.7787 8.54816 24.1853 8.95443 24.4684 9.44361C24.7515 9.93278 24.9013 10.4877 24.9028 11.0529Z" fill="#F2F2F2"/>
<path d="M31.7109 16.4066C31.7109 12.3335 34.6164 11.022 38.061 11.022C40.3549 11.022 41.6508 11.7995 41.6508 11.7995L41.1389 13.9936C40.1747 13.5414 39.1258 13.2985 38.061 13.2808C35.8955 13.2808 34.8277 14.2074 34.8277 16.4001C34.8277 18.5929 35.9111 19.4495 38.061 19.4495C39.8845 19.4495 40.8822 18.9078 41.3385 18.6369L41.7364 20.9165C40.5876 21.4593 39.3316 21.737 38.061 21.7291C34.5879 21.7355 31.7109 20.5951 31.7109 16.4066Z" fill="#F2F2F2"/>
<path d="M42.4062 17.8176C42.4062 15.253 44.0015 13.7432 47.2637 13.7432C50.5255 13.7432 52.1648 15.253 52.1648 17.8176C52.1648 20.2669 50.5113 21.721 47.2637 21.721C44.0161 21.721 42.4062 20.2669 42.4062 17.8176ZM49.1582 17.7748C49.1582 16.0655 48.4038 15.4421 47.2637 15.4421C46.1232 15.4421 45.4117 16.0694 45.4117 17.7748C45.4117 19.4596 46.1385 20.0104 47.2637 20.0104C48.3884 20.0104 49.1582 19.4764 49.1582 17.7748Z" fill="#F2F2F2"/>
<path d="M66.6837 16.8909V21.5641H63.8052V17.0905C63.8052 16.2494 63.5201 15.6092 62.5949 15.6092C61.4844 15.6092 61.2564 16.7756 61.2564 17.5532V21.5706H58.5633V17.0905C58.5633 16.2494 58.2782 15.6092 57.4098 15.6092C56.4404 15.6092 56.0843 16.4775 56.0843 17.3329V21.5783H53.207V13.8856H54.7624L55.5866 14.6813C56.2267 14.0982 57.1416 13.7988 58.1642 13.7988C59.3304 13.7988 60.1443 14.1124 60.6574 14.706C61.2418 14.1085 62.096 13.7988 63.151 13.7988C66.1848 13.8001 66.6837 15.3526 66.6837 16.8909Z" fill="#F2F2F2"/>
<path d="M76.9384 18.2582H70.6416C70.9125 19.2276 71.8247 19.6268 73.0354 19.6268C74.1329 19.6268 75.3006 19.1991 75.4718 19.1421L76.3323 20.5948C75.4355 21.2933 73.9113 21.721 72.3728 21.721C69.3094 21.721 67.5781 20.2669 67.5781 17.7748C67.5781 15.1959 69.3157 13.7432 72.3728 13.7432C75.1504 13.7432 76.8879 15.1531 76.9451 17.4185L76.9384 18.2582ZM70.6416 16.9053H74.1408C73.9554 16.0927 73.3631 15.6806 72.456 15.6806C71.5486 15.6806 70.8699 15.9774 70.6416 16.9053Z" fill="#F2F2F2"/>
<path d="M84.83 21.322C84.2455 21.5358 83.5041 21.7212 82.2512 21.7212C78.5899 21.7212 78.5899 19.5271 78.5899 17.8178V15.4955H77.2656V13.8859H78.5899V11.6206H81.4814V13.0876L81.2972 13.8859H84.003V15.4955H81.4814V17.8178C81.4814 18.8856 81.5954 19.7267 83.1062 19.7267C83.6228 19.7074 84.1284 19.5747 84.5874 19.3379L84.83 21.322Z" fill="#F2F2F2"/>
</g>
<defs>
<clipPath id="clip0_756_1884">
<rect width="117.521" height="28" fill="white" transform="translate(0 2.5)"/>
</clipPath>
</defs>
</svg>
