<svg width="92" height="32" viewBox="0 0 92 32" fill="none" xmlns="http://www.w3.org/2000/svg">
<g clip-path="url(#clip0_7105_38200)">
<path d="M50.6375 21.1026C50.8422 21.0502 51.125 21.0816 51.3401 21.0817L52.816 21.0833L55.2457 21.0848C55.7813 21.0835 56.3324 21.0543 56.8646 21.1203L56.8794 22.0897C56.5367 22.1767 56.1774 22.1548 55.8264 22.1549L54.3021 22.1466L54.3175 28.955L54.299 31.3743C53.9464 31.4294 53.5304 31.393 53.1705 31.3951C53.0878 31.0128 53.1007 30.6256 53.0999 30.2371L53.0983 28.7281L53.1029 23.5749L53.1042 22.5929C53.1042 22.4595 53.128 22.2684 53.0828 22.1452L51.4273 22.1552C51.1791 22.156 50.8521 22.1967 50.6213 22.1103C50.5218 21.9772 50.5431 21.7053 50.5391 21.5393C50.5351 21.3638 50.5134 21.233 50.6375 21.1026Z" fill="white"/>
<path d="M26.1825 21.1017C26.3745 21.0389 27.0311 21.0475 27.2159 21.1308C27.2571 21.1493 27.3091 21.1866 27.3351 21.2246C27.3977 21.3157 27.442 21.5118 27.4779 21.6213L27.8626 23.026L29.2544 28.1151C29.4421 28.7824 29.567 29.4993 29.8264 30.1412C29.9899 29.2876 30.2465 28.4494 30.4775 27.6119L31.2239 24.8563L31.784 22.7903C31.9264 22.2449 32.0435 21.6131 32.2965 21.1104C32.3811 21.0729 32.4631 21.0785 32.5533 21.0776C32.7922 21.0754 33.2798 21.0189 33.4551 21.1909C33.4725 21.517 33.3224 21.8896 33.2358 22.2045L30.5692 31.3493C30.4197 31.405 30.2383 31.3898 30.0804 31.3931C29.7441 31.4003 29.4104 31.4041 29.0744 31.3827C29.0422 31.3406 29.0171 31.2979 28.9961 31.2494C28.8479 30.9088 28.7679 30.5402 28.6618 30.1852L27.9705 27.7639L26.915 24.1198L26.2419 21.7772C26.189 21.5553 26.0989 21.3157 26.1825 21.1017Z" fill="white"/>
<path d="M35.0391 21.103C35.178 21.0655 35.3619 21.0854 35.5059 21.0851L36.5038 21.0836C37.6781 21.0813 38.8965 21.0136 40.0657 21.0829C40.189 21.0902 40.2839 21.1144 40.3925 21.1729C40.4339 21.2583 40.445 21.3306 40.449 21.4246C40.4547 21.5586 40.4761 21.9825 40.3728 22.0834C40.224 22.2288 36.653 22.1514 36.1255 22.1495L36.1315 25.5922C36.2659 25.6567 36.5843 25.623 36.7441 25.625L38.9106 25.63C39.2082 25.6299 39.6326 25.5718 39.8974 25.7267C39.9766 26.0147 39.9903 26.3447 39.8903 26.6295C39.587 26.7648 39.0249 26.6892 38.6873 26.6899L36.1169 26.6768L36.1294 27.7198L36.1241 30.3529L38.9517 30.3474C39.3329 30.3475 40.0063 30.2588 40.3507 30.4084C40.5195 30.6227 40.4511 31.1116 40.4396 31.3892L34.9841 31.3963L34.9261 30.9081C34.8943 30.3577 34.92 29.7935 34.9195 29.2413L34.9185 26.0368L34.9196 23.0164C34.9198 22.4852 34.8948 21.9378 34.9288 21.4084C34.9376 21.2703 34.9473 21.2054 35.0391 21.103Z" fill="white"/>
<path d="M75.5878 21.103C75.7349 21.0622 75.9262 21.0844 76.0787 21.0847L77.0463 21.085C78.2229 21.0823 79.4503 21.0125 80.621 21.0836C80.7402 21.0908 80.8314 21.1123 80.9361 21.1699C80.9612 21.2112 80.9784 21.2509 80.984 21.2991C81.0099 21.5256 81.0353 21.9217 80.8907 22.1055C80.5059 22.2306 79.896 22.1563 79.4839 22.1559L76.6701 22.1504L76.6784 25.6116L79.0242 25.6295C79.4254 25.6298 80.05 25.5429 80.4106 25.7018C80.4356 25.7313 80.4579 25.7634 80.4675 25.8014C80.522 26.0145 80.5325 26.4345 80.4314 26.6295C80.1642 26.7566 79.6635 26.6887 79.3642 26.6893L76.6612 26.6772L76.6737 27.7548L76.6717 30.3548L79.524 30.347C79.9051 30.3471 80.5429 30.2643 80.8907 30.4057C80.9905 30.526 80.9815 30.5761 80.9921 30.7323C81.005 30.9226 81.0477 31.2356 80.9131 31.3899L75.5324 31.3964C75.4886 31.2141 75.4677 31.0144 75.4628 30.8273L75.458 25.1267L75.4594 22.7526C75.4597 22.3195 75.4391 21.8715 75.4709 21.4402C75.4819 21.29 75.482 21.2135 75.5878 21.103Z" fill="white"/>
<path d="M58.3381 21.1021C58.5636 21.071 58.8923 21.0549 59.1162 21.0883C59.2174 21.1035 59.3286 21.1244 59.3643 21.2322C59.4058 21.3583 59.389 21.5663 59.3915 21.7024L59.398 22.7588L59.3941 27.2367C59.3937 27.9321 59.3257 28.709 59.4152 29.3944C59.4398 29.5827 59.5232 29.7826 59.6344 29.936C59.8068 30.1738 60.1108 30.2932 60.3921 30.3338C60.6925 30.377 61.0205 30.3539 61.3242 30.3544C61.8596 30.3551 62.624 30.4662 63.0658 30.1177C63.2206 29.9954 63.3926 29.7451 63.4433 29.5543C63.5906 29.0005 63.5216 28.3148 63.5224 27.7431L63.5221 23.2356L63.5228 21.9578C63.524 21.759 63.5025 21.518 63.5374 21.3243C63.5593 21.2023 63.6264 21.1542 63.7197 21.0878C63.9981 21.0836 64.3994 21.0265 64.6551 21.1369C64.7663 21.3866 64.7123 21.9056 64.7151 22.189L64.6935 29.3006C64.6437 29.9382 64.4198 30.4897 63.9242 30.9082C63.2633 31.4662 62.3603 31.3912 61.5482 31.3938C61.1171 31.3951 60.6775 31.4108 60.2479 31.3746C59.679 31.3267 59.0906 31.1275 58.7121 30.6718C58.4825 30.3954 58.2945 29.9948 58.2337 29.6395C58.1286 29.0259 58.1709 28.3675 58.1698 27.7462L58.1683 24.8067L58.1704 22.5529C58.1708 22.1697 58.1399 21.7462 58.1837 21.3667C58.1995 21.2298 58.2377 21.1854 58.3381 21.1021Z" fill="white"/>
<path d="M85.0838 21.0987L85.1383 21.0897C85.4489 21.056 85.7917 21.0819 86.1053 21.0804C86.9773 21.0766 87.8976 21.016 88.6079 21.6219C89.0973 22.0393 89.3036 22.6054 89.3531 23.2325C89.3691 23.4341 89.4206 23.9251 89.2899 24.0774C89.1331 24.1336 88.9588 24.1332 88.7938 24.136C88.7358 24.137 88.2431 24.1353 88.229 24.1215C88.1604 24.0539 88.1678 23.3587 88.1433 23.2118C88.0961 22.9298 87.9738 22.6461 87.7634 22.4476C87.3682 22.0743 86.7898 22.1499 86.2918 22.1517L85.2025 22.1565C84.8805 22.1702 84.5446 22.2892 84.3278 22.5385C83.9486 22.9744 83.9642 23.8798 84.0138 24.4199C84.042 24.7277 84.2244 24.9859 84.485 25.1445C84.8574 25.3714 85.3062 25.4499 85.726 25.5351C86.7017 25.7333 88.0152 25.9395 88.7824 26.6094C89.2241 26.9951 89.4121 27.6944 89.4372 28.2555C89.4775 29.1511 89.4508 30.0442 88.8059 30.7395C88.3216 31.2616 87.693 31.3603 87.0209 31.387L85.3416 31.392C84.9914 31.3868 84.5591 31.3838 84.2316 31.2546C83.6512 31.0253 83.2512 30.6431 83.0081 30.0707C82.8265 29.6428 82.6857 28.7551 82.8624 28.3224C82.9201 28.285 82.9636 28.2701 83.0327 28.2668C83.2274 28.2574 83.7362 28.2083 83.8995 28.3076C83.9123 28.3154 83.9928 28.3787 83.998 28.3892C84.019 28.4323 84.0092 28.5962 84.0124 28.6505C84.039 29.1095 84.0041 29.6944 84.3872 30.0261C84.8596 30.4354 85.5347 30.3525 86.1141 30.3528C86.4473 30.3531 86.7917 30.3693 87.1238 30.3468C87.3983 30.3283 87.7302 30.1606 87.9083 29.9536C88.2956 29.5035 88.267 28.77 88.2213 28.2103C88.1097 26.8438 85.6821 26.7917 84.6961 26.5104C84.2819 26.3921 83.8521 26.1945 83.5237 25.9137C83.0702 25.5262 82.8617 24.9819 82.817 24.4001C82.7487 23.5143 82.7645 22.4901 83.3773 21.7821C83.8133 21.2785 84.4543 21.141 85.0838 21.0987Z" fill="white"/>
<path d="M42.4916 21.1022C42.6993 21.0423 43.0469 21.0692 43.261 21.1131C43.4029 21.142 43.4969 21.1893 43.5867 21.3058C43.7206 21.4796 43.8103 21.6912 43.9228 21.8795L44.8595 23.5484L46.6346 26.6287C47.0924 27.4364 47.5094 28.2923 48.0232 29.0634L47.9976 21.3697C48.0034 21.3122 48.0175 21.1747 48.0621 21.1403C48.2441 21.0002 48.9338 21.0972 49.1586 21.1249L49.1684 21.2234C49.2141 21.827 49.1895 22.4515 49.19 23.057L49.1905 26.1243L49.1887 29.4434C49.1883 30.0328 49.2147 30.6353 49.1788 31.2231C49.1751 31.282 49.1443 31.3268 49.1073 31.3702C48.832 31.4388 48.4499 31.3869 48.1634 31.3758C47.8957 31.0578 47.7019 30.6685 47.4933 30.3093L46.4259 28.4366L43.5589 23.4492L43.5561 31.3597C43.4762 31.405 43.3525 31.3863 43.2588 31.3872L42.4373 31.3952C42.391 31.214 42.3705 31.0133 42.3655 30.8266L42.3603 25.0705L42.3616 22.7552C42.3618 22.3234 42.3408 21.875 42.3755 21.4449C42.3877 21.2937 42.3852 21.214 42.4916 21.1022Z" fill="white"/>
<path d="M67.043 21.1032C67.345 21.0175 67.8428 21.0858 68.1697 21.0849C69.231 21.0822 70.3799 20.9909 71.4301 21.1285C71.6097 21.1521 71.7935 21.2385 71.959 21.3082C72.4531 21.5161 72.8593 21.8915 73.0617 22.3974C73.3667 23.16 73.3731 25.2747 73.043 26.0207C72.757 26.6672 72.2253 26.9793 71.5924 27.2205L73.5733 31.3751C73.1659 31.4254 72.7337 31.401 72.3257 31.3667C72.0836 31.0925 71.9438 30.6965 71.7941 30.3647L70.3886 27.2839C69.6726 27.3651 68.8357 27.3489 68.1173 27.2896L68.1107 31.3606C67.9943 31.4479 67.1804 31.3952 66.9897 31.3963C66.938 31.1999 66.9173 30.9778 66.9152 30.7746L66.9113 24.65C66.9118 23.5919 66.8379 22.4813 66.9261 21.4305C66.9386 21.2821 66.9376 21.212 67.043 21.1032ZM68.1254 22.1506L68.1332 25.0285C68.1332 25.4421 68.1811 25.9078 68.1283 26.3136L69.7878 26.302C70.4067 26.3025 71.0887 26.3994 71.6274 26.0404C71.7906 25.8661 71.8909 25.7346 71.9668 25.5085C72.0791 25.1743 72.0376 24.7294 72.0393 24.3791C72.0411 23.9919 72.0771 23.5493 72.0212 23.1681C71.9988 23.0156 71.9374 22.8568 71.8679 22.7194C71.7481 22.4827 71.5395 22.2975 71.2864 22.2167C70.9273 22.1017 70.4885 22.1502 70.1143 22.1502L68.1254 22.1506Z" fill="white"/>
<path d="M83.1581 0.681689L85.3591 0.657251C86.3839 0.65674 87.4387 0.581855 88.4186 0.939354C89.3442 1.27698 90.0639 1.92327 90.4769 2.82119C90.7851 3.49167 90.8712 4.31077 90.8729 5.04197C90.8733 5.21035 90.8932 5.43214 90.8285 5.59022C90.778 5.71334 90.7029 5.81335 90.5808 5.86593C90.3432 5.96824 88.1034 5.98751 87.8651 5.88217C87.7512 5.83187 87.6913 5.79318 87.6427 5.68045C87.521 5.39761 87.5599 4.96886 87.532 4.65988C87.5043 4.35136 87.3608 3.99986 87.1162 3.80002C86.7031 3.46241 86.023 3.49184 85.5202 3.48855C85.1136 3.4859 84.7059 3.48377 84.3011 3.52714C83.9321 3.56669 83.5688 3.65095 83.3277 3.95583C83.008 4.35985 83.0292 5.05101 83.0265 5.54132C83.0254 5.7476 83.0069 5.98178 83.0354 6.18483C83.0726 6.44984 83.2208 6.64352 83.4286 6.79676C84.0551 7.25899 84.7481 7.24852 85.4833 7.33159C85.6627 7.35186 85.8375 7.40542 86.0163 7.42938C86.1492 7.44719 86.2872 7.43218 86.4187 7.45803C87.5272 7.67594 88.813 7.96167 89.7322 8.6517C90.4446 9.18652 90.8867 10.2452 91.0069 11.1032C91.079 11.6178 91.0899 12.1572 91.0858 12.676C91.0779 13.7054 90.984 14.8288 90.3377 15.6803C89.595 16.6587 88.6229 17.0375 87.4362 17.2019L85.3358 17.2218C84.2734 17.2227 83.1324 17.3058 82.1256 16.9083C81.2417 16.5595 80.5311 15.9506 80.1501 15.0637C79.8419 14.3458 79.7366 13.5865 79.7356 12.809C79.7355 12.6234 79.7155 12.3903 79.79 12.2185C79.8369 12.11 79.9467 12.0011 80.0587 11.9606C80.246 11.8927 80.6084 11.9278 80.8132 11.926L82.0102 11.9221C82.2946 11.9231 82.5917 11.9032 82.8533 12.0323C83.1435 12.3039 83.0402 13.0375 83.1176 13.4152C83.1585 13.6148 83.2546 13.9443 83.4353 14.0578C84.0766 14.4609 84.9245 14.3835 85.6541 14.3802C86.0214 14.3786 86.4331 14.4017 86.7909 14.314C87.1156 14.2341 87.3972 14.052 87.5678 13.7612C87.8053 13.3564 87.8801 12.3637 87.7614 11.8998C87.4166 10.5543 85.4273 10.6336 84.3628 10.4514C83.3762 10.2824 82.235 10.0434 81.371 9.53111C80.5968 9.07209 80.0788 8.09668 79.8744 7.24245C79.7394 6.67872 79.7289 6.08817 79.7268 5.51164C79.7225 4.33602 79.7665 3.30015 80.401 2.26461C81.0149 1.26301 82.0929 0.938152 83.1581 0.681689Z" fill="white"/>
<path d="M67.0983 0.690006C67.3193 0.637098 67.5733 0.655368 67.8004 0.654518L72.3172 0.655311C73.0128 0.656119 73.831 0.577321 74.5098 0.693167C75.3515 0.836799 76.15 1.1152 76.7661 1.72957C77.9767 2.93691 77.8895 4.53675 77.8908 6.11376C77.8923 7.63673 77.9584 9.24858 76.7926 10.4141C75.4994 11.707 73.682 11.5439 72.0061 11.5443L70.3835 11.5534C70.3545 11.555 70.1732 11.5583 70.1593 11.5697C70.1406 11.5851 70.1556 11.8092 70.1546 11.8872L70.1511 15.2189C70.1508 15.7162 70.201 16.2796 70.125 16.7701C70.1065 16.8882 70.0768 16.9973 69.9929 17.0872C69.8941 17.1928 69.7274 17.2065 69.591 17.2131L68.1471 17.2244C67.8471 17.2241 67.5071 17.2507 67.2125 17.1971C67.0738 17.172 67.0278 17.1391 66.9275 17.0481C66.8469 16.7975 66.8415 16.5254 66.8345 16.264L66.8287 12.7036L66.8281 5.81752L66.8298 2.66554C66.8303 2.15559 66.7746 1.56312 66.8605 1.06411C66.8876 0.906066 66.9675 0.783309 67.0983 0.690006ZM70.3119 3.4978L70.169 3.58695C70.0967 4.1611 70.1482 4.78967 70.1491 5.36968L70.157 8.53401C70.1831 8.55694 70.2173 8.59542 70.2465 8.61256C70.4149 8.71159 73.068 8.6683 73.4349 8.64411C73.7629 8.62246 73.975 8.55181 74.2289 8.34224C74.3509 8.18399 74.4485 8.04302 74.4999 7.84547C74.6023 7.45317 74.5762 7.03799 74.5865 6.63691C74.6037 5.96321 74.6451 5.22149 74.5595 4.5526C74.5267 4.29565 74.4034 3.9474 74.1915 3.7815C73.6875 3.3868 72.9053 3.48843 72.3 3.48924L70.3119 3.4978Z" fill="white"/>
<path d="M39.7405 0.691024C40.028 0.622579 40.3806 0.655304 40.6766 0.655127L42.4498 0.654908L45.2093 0.657053C45.7554 0.657841 46.3168 0.636931 46.8608 0.678885C47.1795 0.703463 47.5322 0.797347 47.8374 0.892295C48.8387 1.20381 49.512 1.83025 49.9876 2.73958C50.487 3.6943 50.4228 4.83583 50.4229 5.87909C50.423 6.82361 50.451 7.73369 50.1557 8.64725C49.8143 9.70318 49.0407 10.3072 48.0936 10.7909L49.9526 14.6589L50.6071 16.0196C50.7086 16.2379 50.8412 16.4709 50.9027 16.7029C50.9426 16.8535 50.9227 16.9859 50.8451 17.1159C50.545 17.2767 50.0714 17.2211 49.737 17.2235C49.0568 17.2284 48.302 17.2945 47.6376 17.1315C47.5203 17.0102 47.4463 16.8761 47.3652 16.73C47.2412 16.5645 47.158 16.2992 47.0715 16.1061L46.5265 14.9232L44.7936 11.1448L42.8024 11.1622L42.7938 14.9265C42.7937 15.5064 42.8341 16.1159 42.7734 16.691C42.7578 16.8398 42.7358 16.9893 42.6248 17.0995C42.3936 17.3288 41.0453 17.226 40.6912 17.2253C40.3234 17.2245 39.8325 17.3 39.5592 17.0253C39.4279 16.5475 39.4743 15.9924 39.4738 15.4986L39.4724 13.3292V5.73949L39.4737 2.59466C39.474 2.11752 39.4226 1.55842 39.4988 1.08912C39.5265 0.918808 39.6008 0.794006 39.7405 0.691024ZM42.9562 3.49882L42.8098 3.58797C42.7401 4.25309 42.791 4.96366 42.7907 5.63383L42.8006 8.45783L44.6986 8.47438C45.201 8.47459 45.7339 8.51409 46.2248 8.39533C46.4169 8.34883 46.5864 8.23642 46.7552 8.13653C46.8784 7.97357 47.0087 7.80389 47.0583 7.60231C47.1849 7.08752 47.1223 6.45652 47.1223 5.92361C47.1223 5.50328 47.1587 5.04488 47.1015 4.63111C47.053 4.28009 46.92 3.98402 46.6326 3.7654C46.1598 3.40577 45.4226 3.48864 44.861 3.48971L42.9562 3.49882Z" fill="white"/>
<path d="M56.4292 0.682229L59.0034 0.657208C59.5321 0.657765 60.1245 0.614877 60.6451 0.696838C61.3121 0.801856 61.9127 1.00329 62.4755 1.37962C63.3697 1.97739 63.7774 2.92095 63.9654 3.94908C64.0726 4.53583 64.0338 5.21489 64.0338 5.81079L64.0314 8.56842L64.0328 11.599C64.0349 12.3895 64.0754 13.2022 63.9479 13.9846C63.8465 14.6062 63.6347 15.1933 63.2699 15.7102C62.6557 16.5805 61.718 16.9881 60.7027 17.1606L60.6745 17.1657C60.0942 17.2687 59.4499 17.2205 58.8597 17.2214C57.9131 17.2227 56.8652 17.3066 55.94 17.1005C55.3726 16.9741 54.8864 16.7586 54.4117 16.4196C53.6241 15.8569 53.2004 14.9157 53.0475 13.9829C52.9409 13.332 52.9797 12.6373 52.9789 11.9788L52.9773 9.05467L52.9787 6.01501C52.9791 5.27658 52.9395 4.51191 53.0595 3.7813C53.1568 3.18907 53.3939 2.59268 53.745 2.10573C54.3891 1.21232 55.3811 0.852253 56.4292 0.682229ZM57.7262 3.49392C57.3497 3.52404 56.8864 3.54359 56.6156 3.84803C56.4921 3.98683 56.3825 4.19495 56.3573 4.37918C56.283 4.92546 56.307 5.48558 56.3082 6.03575L56.3137 8.50052L56.3109 11.5258C56.3107 12.0939 56.2829 12.6753 56.328 13.241C56.3519 13.5413 56.4258 13.8688 56.6644 14.0746C57.2313 14.5637 58.5735 14.3703 59.2979 14.3779C59.7118 14.364 60.1281 14.3505 60.4302 14.0186C60.5805 13.8534 60.6785 13.5974 60.707 13.3786C60.7661 12.9264 60.7441 12.4519 60.7447 11.9964L60.7462 9.82955L60.7444 6.5917L60.7236 4.63514C60.7045 4.31655 60.6052 4.00591 60.3561 3.78907C59.9673 3.45077 59.3857 3.49051 58.9039 3.49L57.7262 3.49392Z" fill="white"/>
<path d="M25.8747 0.690345C26.1728 0.637464 26.4911 0.656924 26.7933 0.656377L28.2945 0.654996L32.8489 0.664136C33.9756 0.696256 34.9971 1.11528 35.7695 1.93598C36.1668 2.35812 36.4576 3.00941 36.5712 3.57494C36.7139 4.28564 36.704 4.97887 36.7051 5.69992L36.7073 8.04002L36.6963 13.2889C36.6603 14.4485 36.2827 15.4664 35.4272 16.2692C34.6295 16.9095 33.7435 17.1856 32.7277 17.2137L28.2721 17.2235L26.8368 17.2238C26.5598 17.2236 26.2538 17.2431 25.9802 17.2004C25.8024 17.1727 25.7546 17.1236 25.627 17.0031C25.5886 16.8888 25.5674 16.7733 25.5636 16.6527L25.5625 13.2164L25.5634 6.349L25.5638 2.76263L25.5652 1.63189C25.5665 1.41482 25.5487 1.16625 25.6153 0.957753C25.6594 0.819446 25.7511 0.75524 25.8747 0.690345ZM29.0324 3.49814C28.955 3.53952 28.8877 3.55639 28.8655 3.65202C28.8126 3.88101 28.8578 4.24474 28.8575 4.48557L28.8591 6.72634L28.8603 11.6752L28.8746 14.346L31.2488 14.3757C31.6401 14.3755 32.0979 14.4133 32.4801 14.3393C32.6437 14.3076 32.8264 14.205 32.9707 14.1216C33.1024 13.9696 33.2328 13.8309 33.2988 13.6374L33.3081 13.6108C33.482 13.0994 33.4009 12.3691 33.4015 11.8322L33.4025 8.98149C33.4021 7.5675 33.4682 6.11703 33.3856 4.70874C33.3747 4.52145 33.3468 4.31414 33.2636 4.14438C33.1278 3.86696 32.8956 3.67034 32.6012 3.57728C32.208 3.45302 31.7325 3.48991 31.323 3.49013L29.0324 3.49814Z" fill="white"/>
<path d="M10.8802 0.734375L10.9553 0.737332L12.4765 3.23132L15.8458 8.84831L18.489 13.2436C19.3956 14.7532 20.4209 16.2168 20.9217 17.9235C21.7035 20.5882 21.4154 23.4767 20.0797 25.9156C18.737 28.3674 16.5011 30.1706 13.8182 30.9508C11.1919 31.7145 8.36112 31.4177 5.95973 30.096C3.54945 28.7694 1.69585 26.5249 0.929132 23.8704C0.224389 21.4305 0.401102 18.8003 1.47934 16.4959C1.78315 15.8466 2.17149 15.2393 2.54076 14.6262L3.97819 12.2295L7.15278 6.94725L8.3476 4.93231L15.3248 16.9326C16.2691 18.7406 16.9541 20.67 16.3782 22.7146C16.0088 24.0256 15.1044 25.126 14.0887 25.998C13.911 26.1506 13.7182 26.352 13.517 26.4651C13.7274 26.0531 13.8882 25.6365 14.019 25.1919C14.6099 23.1828 14.3378 21.0147 13.5017 19.1125C12.9837 17.934 12.2831 16.8299 11.6411 15.7169L8.33872 10.0263L5.94165 14.0028L4.76317 15.9696C4.17877 16.9305 3.6413 17.8246 3.36213 18.9265C2.84707 20.9597 3.13645 23.158 4.22048 24.9607C5.28365 26.7286 7.05411 28.025 9.05471 28.5213C11.0773 29.023 13.2085 28.6941 14.9902 27.6231C16.7604 26.5589 18.0294 24.7931 18.5256 22.7942C18.8881 21.3334 18.8022 19.7441 18.3248 18.3202C18.0328 17.4494 17.5367 16.678 17.0636 15.8975L15.5922 13.4545L9.44185 3.14304L10.8802 0.734375Z" fill="white"/>
</g>
<defs>
<clipPath id="clip0_7105_38200">
<rect width="91.2366" height="32" fill="white" transform="translate(0.214844)"/>
</clipPath>
</defs>
</svg>
