<svg width="85" height="32" viewBox="0 0 85 32" fill="none" xmlns="http://www.w3.org/2000/svg">
<g clip-path="url(#clip0_7105_37956)">
<path fill-rule="evenodd" clip-rule="evenodd" d="M50.1801 1.30214C49.1419 1.52575 48.2731 2.24916 47.9055 3.1959C47.6805 3.7756 47.6935 4.90702 47.9312 5.41346C48.3343 6.27287 49.0597 6.78838 51.2945 7.8038C52.951 8.55648 53.4765 9.14399 53.3811 10.1367C53.2888 11.0978 52.6167 11.6112 51.3535 11.6854C49.7136 11.7816 48.5145 11.0035 48.0371 9.53307C47.8882 9.07463 47.8404 9.02009 47.5637 8.99268C47.2658 8.96302 47.2562 8.97404 47.2633 9.33414C47.2673 9.53872 47.3221 10.2769 47.3853 10.9744C47.4892 12.1241 47.5181 12.2452 47.695 12.269C47.8299 12.2872 47.9503 12.1908 48.0853 11.9564L48.2804 11.6176L48.807 11.9511C49.5058 12.3937 50.5625 12.6302 51.4902 12.5517C53.699 12.3646 55.0575 11.114 55.0599 9.26565C55.0619 7.71092 54.288 6.99141 51.0121 5.50234C49.758 4.93229 49.2072 4.35541 49.2072 3.6118C49.2072 2.68858 49.7896 2.14721 50.8658 2.07024C52.0476 1.98565 52.8513 2.52409 53.4219 3.78243C53.676 4.34273 53.7275 4.39843 53.967 4.37082L54.2316 4.34029L54.2042 3.3159C54.1618 1.7359 54.101 1.36468 53.8844 1.36468C53.784 1.36468 53.6579 1.44155 53.6042 1.53541C53.3512 1.97726 53.3613 1.9758 52.746 1.66312C52.1845 1.37785 51.3684 1.16019 50.9256 1.17775C50.8122 1.18224 50.4768 1.23824 50.1801 1.30214ZM63.3508 1.29716C61.8781 1.6279 60.9975 2.65707 60.9289 4.1276C60.8541 5.7278 61.5186 6.48029 63.9751 7.57726C65.9606 8.4639 66.5748 9.02409 66.5715 9.94516C66.5677 10.9726 65.8182 11.6116 64.5308 11.6851C62.8594 11.7804 61.7048 11.0337 61.1975 9.52916C61.0438 9.07316 60.9958 9.02009 60.7117 8.99151L60.3965 8.9598L60.4622 9.96712C60.6008 12.0896 60.6331 12.2915 60.8342 12.2915C60.941 12.2915 61.102 12.1501 61.2166 11.9561L61.4145 11.6206L61.8615 11.9041C62.621 12.3857 63.1982 12.5357 64.2804 12.5327C66.0734 12.5276 67.298 11.8847 67.9323 10.6155C68.4513 9.57668 68.3238 8.38829 67.6013 7.53238C67.1465 6.99365 66.3658 6.52916 64.2804 5.55648C62.8549 4.8917 62.3779 4.39102 62.3779 3.5598C62.3779 2.61414 63.0491 2.05297 64.1828 2.05073C65.2757 2.04848 66.2361 2.74975 66.5835 3.8037C66.7362 4.26702 66.8484 4.38907 67.1215 4.38907C67.3492 4.38907 67.3535 4.37229 67.3535 3.47658C67.3535 2.97463 67.3253 2.29414 67.2909 1.96438C67.2383 1.46175 67.1981 1.36468 67.0424 1.36468C66.9381 1.36468 66.7838 1.49277 66.6904 1.65677C66.4957 1.99902 66.4446 2.00897 66.1003 1.77112C65.4015 1.28819 64.2639 1.09209 63.3508 1.29716ZM1.90839 1.68175C1.93717 1.98068 1.96488 2.00185 2.39132 2.05082C2.94351 2.11443 3.12546 2.25492 3.25376 2.71668C3.4001 3.24341 3.37561 10.6831 3.22615 11.1182C3.0921 11.5082 2.81385 11.6771 2.15844 11.7659C1.7278 11.8244 1.69502 11.8487 1.69502 12.109V12.3891H6.27336H10.8517L10.9054 11.8769C10.9348 11.5951 10.9709 10.9476 10.9856 10.4378L11.0121 9.51102H10.7363C10.4909 9.51102 10.4403 9.56848 10.2765 10.0337C10.0579 10.6544 9.68839 11.1663 9.32214 11.3557C8.44195 11.8109 6.13629 11.8046 5.43502 11.3452C5.0798 11.1125 5.0121 10.7024 5.0121 8.78555V6.96731L5.776 7.03297C6.1961 7.06907 6.67512 7.16858 6.84049 7.25404C7.23746 7.45931 7.54829 7.86614 7.55014 8.18273C7.55229 8.54702 7.68205 8.7038 7.94995 8.66585L8.18283 8.63297L8.20927 6.65102L8.23571 4.66907L7.91658 4.6998C7.65902 4.72458 7.5919 4.77765 7.56849 4.97443C7.47278 5.78146 6.90663 6.16448 5.71746 6.22702L5.00819 6.26429L5.03454 4.18029L5.06088 2.09638L6.71941 2.10595C8.16117 2.11434 8.43531 2.14136 8.81697 2.31287C9.37912 2.56546 9.55678 2.77053 9.77727 3.42155C9.9277 3.86565 9.99775 3.95502 10.2159 3.98087C10.4712 4.01131 10.4755 4.00224 10.4755 3.43463C10.4755 3.11726 10.4471 2.52165 10.4124 2.11112L10.3494 1.36468H6.11356H1.87776L1.90839 1.68175ZM16.3292 1.69375C16.3292 2.01795 16.3365 2.02351 16.8243 2.07034C17.6948 2.15404 17.6425 1.86877 17.6737 6.70643C17.6925 9.6399 17.6677 11.0489 17.5938 11.2269C17.4657 11.5365 17.1886 11.676 16.5282 11.7636C16.0645 11.8252 16.0365 11.8451 16.0365 12.1144V12.4001L19.6218 12.3665C22.765 12.3372 23.2674 12.3114 23.695 12.1583C25.5816 11.4829 26.6605 10.4717 27.2368 8.83873C27.5392 7.98185 27.5834 6.43434 27.3309 5.54555C26.8315 3.78799 25.4817 2.35277 23.7438 1.7318C22.8551 1.41424 22.2552 1.36468 19.3 1.36468H16.3292V1.69375ZM32.9327 1.67999C32.9617 1.98097 32.9887 2.00107 33.4511 2.06663C34.3241 2.19043 34.2804 1.93736 34.2804 6.86926C34.2804 11.042 34.274 11.1883 34.0859 11.3903C33.8877 11.6031 33.3345 11.8021 32.9389 11.8031C32.7602 11.8036 32.7194 11.858 32.7194 12.0964V12.3891H37.2844H41.8494L41.9589 11.0003C42.0192 10.2365 42.0477 9.57794 42.0223 9.53687C41.9506 9.42087 41.5522 9.44897 41.4218 9.57931C41.3575 9.6437 41.3048 9.78048 41.3048 9.88321C41.3048 10.2257 40.7813 11.0433 40.4131 11.2758C39.7021 11.7245 37.5603 11.8442 36.7026 11.483C36.0437 11.2056 35.9917 11.0263 35.9559 8.90585L35.924 7.02321L36.59 7.02419C37.0874 7.02487 37.3837 7.08458 37.7604 7.25999C38.3008 7.5116 38.432 7.67736 38.5534 8.26126C38.6217 8.59053 38.6635 8.63297 38.9189 8.63297H39.2072L39.2336 6.65736L39.26 4.68175H38.9291C38.6204 4.68175 38.5939 4.70721 38.5379 5.05736C38.5049 5.2639 38.3871 5.54829 38.2762 5.68926C38.0256 6.0078 37.2737 6.24273 36.5047 6.24273H35.935L35.9614 4.16955L35.9877 2.09638H37.5487C39.2719 2.09638 39.8416 2.20302 40.2773 2.60692C40.5661 2.87482 40.817 3.38331 40.817 3.70116C40.817 3.92458 41.2553 4.08731 41.4182 3.92438C41.4837 3.85892 41.4895 3.41521 41.4355 2.61931L41.3535 1.41346L37.1278 1.38799L32.902 1.36263L32.9327 1.67999ZM77.9595 1.48663C76.6953 4.62848 75.6685 7.14624 75.4429 7.65736C75.3955 7.76468 75.0758 8.55492 74.7323 9.41346C74.0226 11.1875 73.771 11.5375 73.0806 11.7113C72.6668 11.8155 72.6218 11.8544 72.6218 12.108V12.3891H74.4819H76.3421L76.3112 12.1246C76.2854 11.9035 76.2172 11.8471 75.895 11.7806C74.9728 11.5902 74.9474 11.056 75.7675 9.09638L76.0635 8.38907H77.9346H79.8057L80.2232 9.46312C80.9302 11.2821 80.8773 11.6358 79.8803 11.7604C79.38 11.8229 79.3535 11.8403 79.3535 12.1076V12.3891H81.7926H84.2316V12.1072C84.2316 11.859 84.1881 11.8173 83.8675 11.7572C82.9284 11.581 82.8856 11.5052 80.6207 5.99882C80.3117 5.2476 79.7957 3.99638 79.4741 3.21834C79.1526 2.44029 78.8592 1.70497 78.8222 1.58419C78.7679 1.40653 78.6839 1.36468 78.3818 1.36468C78.1744 1.36468 77.9867 1.41882 77.9595 1.48663ZM19.3962 2.27238C19.3693 2.34243 19.3597 4.24897 19.3748 6.50926C19.4017 10.5127 19.4076 10.626 19.6077 10.8942C20.0208 11.4483 20.3601 11.5606 21.5975 11.5526C22.6446 11.5458 22.7617 11.5252 23.3536 11.2418C24.063 10.9022 24.2467 10.7566 24.6755 10.1939C25.2668 9.41814 25.5018 8.51609 25.4965 7.04282C25.4906 5.41814 25.131 4.29882 24.3185 3.3757C23.5015 2.44751 22.6341 2.15404 20.692 2.14868C19.754 2.14604 19.4329 2.17668 19.3962 2.27238ZM77.1828 5.5918C76.7669 6.62858 76.4267 7.50643 76.4267 7.54273C76.4267 7.57892 77.1072 7.60858 77.9389 7.60858C78.7706 7.60858 79.4511 7.57453 79.4511 7.53297C79.4511 7.49141 79.1615 6.71219 78.8077 5.80126C78.4537 4.89043 78.1413 4.04634 78.1133 3.92565C78.0853 3.80497 78.0347 3.70634 78.0007 3.70653C77.9667 3.70663 77.5987 4.55512 77.1828 5.5918ZM5.46663 18.6419C5.09951 18.7466 4.66049 18.904 4.49102 18.9916C4.0081 19.2412 3.21707 19.8522 2.92029 20.2049C2.59805 20.5878 2.08576 21.474 1.91141 21.95C1.73317 22.4367 1.5002 23.7718 1.5 24.3073C1.49971 25.5663 2.07746 27.228 2.80654 28.065C3.29005 28.6201 4.19093 29.2037 4.98615 29.4771C5.54966 29.6708 5.83893 29.7041 6.96332 29.7041C8.46673 29.7041 9.20458 29.5183 10.1029 28.9137C10.3765 28.7297 10.6102 28.5911 10.6223 28.6059C10.6344 28.6209 10.7196 28.8635 10.8117 29.1452C10.9628 29.6079 11.0065 29.6574 11.2638 29.6574H11.5487V27.8037V25.95H11.2203C10.9078 25.95 10.8817 25.9782 10.6789 26.534C10.094 28.1383 8.84458 28.9448 7.07736 28.8588C5.00283 28.7578 3.87473 27.508 3.64468 25.0556C3.49473 23.457 3.77122 21.8546 4.37463 20.8249C5.52361 18.8644 8.68507 18.7242 10.0248 20.5743C10.2035 20.8212 10.428 21.2317 10.5235 21.4866C10.6751 21.8912 10.7326 21.95 10.9766 21.95H11.256V20.8424C11.256 20.2332 11.2278 19.4649 11.1934 19.1351C11.1361 18.5875 11.1106 18.5354 10.9003 18.5354C10.7096 18.5354 10.6496 18.6112 10.5521 18.9757C10.4873 19.2178 10.4107 19.4025 10.3818 19.3859C9.91746 19.1208 8.90039 18.6831 8.50166 18.577C7.75814 18.379 6.27766 18.4107 5.46663 18.6419ZM19.2498 19.1674C19.0923 19.515 18.9633 19.8258 18.9633 19.8581C18.9633 19.8904 18.7489 20.4292 18.4867 21.0554C18.2246 21.6816 17.9132 22.4354 17.7947 22.7305C16.5943 25.7212 15.8768 27.4631 15.6418 27.9574C15.355 28.5603 15.1251 28.7488 14.4267 28.9537C14.1881 29.0236 14.134 29.092 14.134 29.324V29.6086H15.9389H17.7438V29.3186C17.7438 29.051 17.7098 29.0228 17.3048 28.9538C16.4866 28.8146 16.4458 28.411 17.08 26.7305L17.4665 25.7061H19.397H21.3274L21.7551 26.8137C22.1853 27.9273 22.2868 28.5732 22.0609 28.7572C21.9938 28.8118 21.6975 28.8944 21.4023 28.9408C20.8903 29.0212 20.8658 29.0384 20.8658 29.3168V29.6086L23.2804 29.6346L25.695 29.6608V29.3287C25.695 29.0117 25.6758 28.9937 25.2716 28.9331C24.4545 28.8105 24.1759 28.3375 22.5377 24.2915C20.0617 18.1768 20.2302 18.5354 19.8328 18.5354C19.5627 18.5354 19.511 18.5914 19.2498 19.1674ZM28.134 18.8658C28.134 19.1907 28.1565 19.2183 28.4204 19.2183C28.7957 19.2183 29.2086 19.3796 29.3669 19.588C29.4663 19.7189 29.4943 20.6828 29.4968 24.0612C29.5004 29.0354 29.5599 28.7247 28.5655 28.9233C28.0183 29.0325 27.9877 29.0538 27.9877 29.3236V29.6086H30.5731H33.1584L33.1879 29.306L33.2174 29.0036L32.5537 28.9473C31.7315 28.8776 31.6039 28.8289 31.3886 28.5028C31.2449 28.2854 31.21 27.9533 31.176 26.4763L31.1352 24.7098L32.4883 24.6508C34.3802 24.5683 35.2335 24.3272 36.0154 23.6545C36.5211 23.2196 36.76 22.7753 36.9167 21.9788C37.2125 20.475 36.4549 19.3578 34.7682 18.8104C34.1951 18.6245 33.8453 18.6003 31.134 18.5589L28.134 18.5131V18.8658ZM40.0365 18.8769C40.0365 19.1702 40.0688 19.2183 40.2658 19.2183C40.7341 19.2183 41.0906 19.4203 41.2678 19.7861C41.4212 20.1029 41.446 20.5242 41.479 23.3647C41.4996 25.1354 41.4738 26.9952 41.4218 27.4975C41.3059 28.6183 41.135 28.8484 40.3491 28.9415C39.8498 29.0006 39.8414 29.007 39.8414 29.3295V29.6574H42.2316H44.6218V29.3271C44.6218 29.0008 44.6157 28.9962 44.0951 28.9311C43.4389 28.8492 43.2771 28.6781 43.1561 27.9391C43.0241 27.1332 43.0346 20.9949 43.1693 20.2215C43.2922 19.5159 43.4714 19.3338 44.1303 19.2455C44.5021 19.1956 44.5243 19.1741 44.5243 18.864V18.5354H42.2804H40.0365V18.8769ZM47.5162 18.6005C47.4804 18.6362 47.4511 19.2756 47.4511 20.0213V21.3771L47.7675 21.3464C48.063 21.3179 48.0881 21.2863 48.1475 20.8674C48.2318 20.2736 48.4513 19.869 48.8399 19.5919C49.1271 19.387 49.2844 19.3614 50.4401 19.331C51.2854 19.3088 51.7936 19.3357 51.9327 19.4101L52.1434 19.5229L52.1143 23.834C52.0922 27.1131 52.0554 28.1975 51.9604 28.3637C51.7923 28.6578 51.3901 28.8524 50.7834 28.9329C50.2899 28.9983 50.2804 29.0058 50.2804 29.3299V29.6604L53.0365 29.6345L55.7926 29.6086L55.8221 29.3047L55.8518 29.0008L55.2448 28.9321C54.7345 28.8744 54.5858 28.8116 54.3127 28.5384L53.9877 28.2135V23.8153V19.4172L54.2305 19.3562C54.3641 19.3227 54.9896 19.3109 55.6208 19.33C56.5611 19.3584 56.8298 19.401 57.1095 19.5653C57.4968 19.7927 57.8861 20.4078 57.8886 20.7957C57.8913 21.2495 57.9847 21.3647 58.3494 21.3647H58.6902L58.6243 20.1208C58.5879 19.4367 58.5367 18.8001 58.5102 18.7061C58.4654 18.5461 58.12 18.5354 53.0217 18.5354C50.0294 18.5354 47.5519 18.5647 47.5162 18.6005ZM66.0098 18.6574C65.9552 18.7245 65.6488 19.4378 65.329 20.2427C65.0091 21.0476 64.5931 22.0793 64.4044 22.5354C64.2157 22.9915 63.8838 23.8037 63.6667 24.3403C61.9398 28.6088 61.8375 28.7861 61.0253 28.9234C60.644 28.9879 60.6218 29.0099 60.6218 29.3266V29.6617L62.4511 29.6351L64.2804 29.6086V29.3186C64.2804 29.0525 64.2454 29.0226 63.8553 28.9561C63.6215 28.9162 63.3692 28.8328 63.2943 28.7706C63.0104 28.535 63.1268 27.9274 63.7694 26.2915L63.9994 25.7061H65.9315H67.8636L68.2863 26.8281C68.7173 27.9723 68.8154 28.5797 68.5974 28.7572C68.5304 28.8118 68.234 28.8944 67.9389 28.9408C67.4269 29.0212 67.4023 29.0384 67.4023 29.3168V29.6086H69.7926H72.1828L72.2125 29.3034C72.241 29.0107 72.2243 28.9955 71.8072 28.933C71.5533 28.8949 71.2663 28.7697 71.1181 28.6323C70.8392 28.3738 70.2404 27.1723 69.5623 25.511C66.426 17.8261 66.7487 18.5354 66.3893 18.5354C66.2352 18.5354 66.0645 18.5903 66.0098 18.6574ZM74.6706 18.8769C74.6706 19.1873 74.6959 19.2183 74.9488 19.2183C75.1017 19.2183 75.361 19.2651 75.5249 19.3222C76.0715 19.5128 76.0852 19.6312 76.0852 24.1495C76.0852 27.8833 76.07 28.2746 75.9154 28.5105C75.742 28.7752 75.2421 28.9729 74.7438 28.9738C74.5023 28.9743 74.4755 29.0086 74.4755 29.3159V29.6574H79.2028H83.93L83.9795 29.3403C84.0067 29.1658 84.0545 28.6281 84.0858 28.1452C84.117 27.6622 84.1668 27.1435 84.1963 26.9924C84.2483 26.726 84.2386 26.7186 83.8783 26.7485C83.5538 26.7754 83.4991 26.8164 83.4462 27.072C83.3478 27.5471 82.9888 28.1625 82.683 28.3803C82.1676 28.7472 81.2863 28.9033 79.9909 28.8572C79.0384 28.8231 78.7413 28.776 78.4163 28.6073C77.7444 28.2585 77.7438 28.2546 77.7438 23.9013C77.7438 21.7817 77.7783 19.924 77.8205 19.7729C77.9062 19.4655 78.3706 19.2183 78.8626 19.2183C79.1356 19.2183 79.1584 19.192 79.1584 18.8769V18.5354H76.9145H74.6706V18.8769ZM31.2316 19.37C31.1913 19.4118 31.1584 20.4264 31.1584 21.6249V23.8037H32.0291C33.3415 23.8037 33.8488 23.6554 34.3936 23.1127C34.7957 22.7121 34.8565 22.5949 34.9182 22.1007C35.0123 21.3476 34.9035 20.522 34.6578 20.1246C34.314 19.5683 33.8175 19.3895 32.4755 19.3385C31.8316 19.3141 31.2719 19.3283 31.2316 19.37ZM18.9787 22.0241C18.7458 22.6004 18.4056 23.4308 18.2226 23.8694C18.0398 24.308 17.8901 24.714 17.8901 24.7718C17.8901 24.8424 18.4003 24.8769 19.4468 24.8769H21.0034L20.8682 24.511C20.7937 24.3098 20.6477 23.9257 20.5436 23.6574C20.4395 23.3891 20.1658 22.6757 19.9356 22.072C19.7053 21.4684 19.4911 20.9748 19.4596 20.9753C19.4281 20.9758 19.2117 21.4477 18.9787 22.0241ZM65.6996 21.5354C65.5751 21.8439 65.4164 22.2281 65.347 22.3891C65.2776 22.55 65.0831 23.033 64.9147 23.4622C64.7462 23.8915 64.5463 24.3855 64.4704 24.5598L64.3323 24.8769H65.8917C66.7493 24.8769 67.4511 24.8394 67.4511 24.7937C67.4511 24.6145 66.0512 20.9744 65.9824 20.9744C65.9514 20.9744 65.8242 21.2269 65.6996 21.5354Z" fill="white"/>
</g>
<defs>
<clipPath id="clip0_7105_37956">
<rect width="83.5122" height="32" fill="white" transform="translate(0.816406)"/>
</clipPath>
</defs>
</svg>
