<svg width="97" height="32" viewBox="0 0 97 32" fill="none" xmlns="http://www.w3.org/2000/svg">
<g clip-path="url(#clip0_7105_38215)">
<path d="M3.24577 1.53223H1.94531V2.83268H3.24577V1.53223Z" fill="white" stroke="white" stroke-width="0.064" stroke-miterlimit="10"/>
<path d="M3.24577 3.06543H1.94531V4.36652H3.24577V3.06543Z" fill="white" stroke="white" stroke-width="0.064" stroke-miterlimit="10"/>
<path d="M3.24577 4.59863H1.94531V5.89907H3.24577V4.59863Z" fill="white" stroke="white" stroke-width="0.064" stroke-miterlimit="10"/>
<path d="M3.24577 6.1543H1.94531V7.45475H3.24577V6.1543Z" fill="white" stroke="white" stroke-width="0.064" stroke-miterlimit="10"/>
<path d="M3.24577 7.6875H1.94531V8.9886H3.24577V7.6875Z" fill="white" stroke="white" stroke-width="0.064" stroke-miterlimit="10"/>
<path d="M3.24577 9.22168H1.94531V10.5228H3.24577V9.22168Z" fill="white" stroke="white" stroke-width="0.064" stroke-miterlimit="10"/>
<path d="M4.78483 -0.000976562H3.48438V1.29948H4.78483V-0.000976562Z" fill="white" stroke="white" stroke-width="0.064" stroke-miterlimit="10"/>
<path d="M4.78483 1.53223H3.48438V2.83268H4.78483V1.53223Z" fill="white" stroke="white" stroke-width="0.064" stroke-miterlimit="10"/>
<path d="M4.78483 3.06543H3.48438V4.36652H4.78483V3.06543Z" fill="white" stroke="white" stroke-width="0.064" stroke-miterlimit="10"/>
<path d="M4.78483 4.59863H3.48438V5.89907H4.78483V4.59863Z" fill="white" stroke="white" stroke-width="0.064" stroke-miterlimit="10"/>
<path d="M4.78483 6.1543H3.48438V7.45475H4.78483V6.1543Z" fill="white" stroke="white" stroke-width="0.064" stroke-miterlimit="10"/>
<path d="M4.78483 7.6875H3.48438V8.9886H4.78483V7.6875Z" fill="white" stroke="white" stroke-width="0.064" stroke-miterlimit="10"/>
<path d="M4.78483 9.22168H3.48438V10.5228H4.78483V9.22168Z" fill="white" stroke="white" stroke-width="0.064" stroke-miterlimit="10"/>
<path d="M6.31608 -0.000976562H5.01562V1.29948H6.31608V-0.000976562Z" fill="white" stroke="white" stroke-width="0.064" stroke-miterlimit="10"/>
<path d="M6.31608 4.59863H5.01562V5.89907H6.31608V4.59863Z" fill="white" stroke="white" stroke-width="0.064" stroke-miterlimit="10"/>
<path d="M6.31608 9.22168H5.01562V10.5228H6.31608V9.22168Z" fill="white" stroke="white" stroke-width="0.064" stroke-miterlimit="10"/>
<path d="M7.84732 -0.000976562H6.54688V1.29948H7.84732V-0.000976562Z" fill="white" stroke="white" stroke-width="0.064" stroke-miterlimit="10"/>
<path d="M7.84732 4.59863H6.54688V5.89907H7.84732V4.59863Z" fill="white" stroke="white" stroke-width="0.064" stroke-miterlimit="10"/>
<path d="M7.84732 9.2207H6.54688V10.5218H7.84732V9.2207Z" fill="white" stroke="white" stroke-width="0.064" stroke-miterlimit="10"/>
<path d="M9.40206 -0.000976562H8.10156V1.29948H9.40206V-0.000976562Z" fill="white" stroke="white" stroke-width="0.064" stroke-miterlimit="10"/>
<path d="M9.40206 4.59863H8.10156V5.89907H9.40206V4.59863Z" fill="white" stroke="white" stroke-width="0.064" stroke-miterlimit="10"/>
<path d="M9.40206 9.22168H8.10156V10.5228H9.40206V9.22168Z" fill="white" stroke="white" stroke-width="0.064" stroke-miterlimit="10"/>
<path d="M10.9372 -0.000976562H9.63672V1.29948H10.9372V-0.000976562Z" fill="white" stroke="white" stroke-width="0.064" stroke-miterlimit="10"/>
<path d="M10.9372 4.59863H9.63672V5.89907H10.9372V4.59863Z" fill="white" stroke="white" stroke-width="0.064" stroke-miterlimit="10"/>
<path d="M10.9372 9.22168H9.63672V10.5228H10.9372V9.22168Z" fill="white" stroke="white" stroke-width="0.064" stroke-miterlimit="10"/>
<path d="M12.4723 -0.000976562H11.1719V1.29948H12.4723V-0.000976562Z" fill="white" stroke="white" stroke-width="0.064" stroke-miterlimit="10"/>
<path d="M12.4723 9.22168H11.1719V10.5228H12.4723V9.22168Z" fill="white" stroke="white" stroke-width="0.064" stroke-miterlimit="10"/>
<path d="M13.9336 3.06543H15.2347V4.36588H13.9336V3.06543ZM13.9336 4.5984H15.2347V5.89885H13.9336V4.5984ZM13.9336 6.15425H15.2347V7.45535H13.9336V6.15425ZM15.4672 3.06543H16.7677V4.36588H15.4672V3.06543ZM15.4672 4.5984H16.7677V5.89885H15.4672V4.5984ZM15.4672 6.15425H16.7677V7.45535H15.4672V6.15425ZM15.4672 7.68725H16.7677V8.9883H15.4672V7.68725ZM17.0002 7.68725H18.3006V8.9883H17.0002V7.68725ZM17.0002 9.22085H18.3006V10.5213H17.0002V9.22085ZM18.5331 9.22085H19.8336V10.5213H18.5331V9.22085ZM20.0922 7.68725H21.3933V8.9883H20.0922V7.68725ZM20.0922 9.22085H21.3933V10.5213H20.0922V9.22085ZM21.6251 3.06543H22.9262V4.36588H21.622L21.6251 3.06543ZM21.6251 4.5984H22.9262V5.89885H21.622L21.6251 4.5984ZM21.6251 6.15425H22.9262V7.45535H21.622L21.6251 6.15425ZM21.6251 7.68725H22.9262V8.9883H21.622L21.6251 7.68725ZM23.1588 3.06543H24.4592V4.36588H23.1556L23.1588 3.06543ZM23.1588 4.5984H24.4592V5.89885H23.1556L23.1588 4.5984ZM23.1588 6.15425H24.4592V7.45535H23.1556L23.1588 6.15425Z" fill="white" stroke="white" stroke-width="0.064" stroke-miterlimit="10"/>
<path d="M25.9688 4.59646H27.2711V5.89753H25.9688V4.59646ZM25.9688 6.15293H27.2711V7.45338H25.9688V6.15293ZM25.9688 7.68593H27.2711V8.98448H25.9688V7.68593ZM27.5018 3.06348H28.8028V4.36457H27.5018V3.06348ZM27.5018 4.59646H28.8028V5.89753H27.5018V4.59646ZM27.5018 6.15293H28.8028V7.45338H27.5018V6.15293ZM27.5018 7.68593H28.8028V8.98448H27.5018V7.68593ZM27.5018 9.21888H28.8028V10.52H27.5018V9.21888ZM29.0347 3.06348H30.3358V4.36457H29.0347V3.06348ZM29.0347 6.15293H30.3358V7.45338H29.0347V6.15293ZM29.0347 9.21888H30.3358V10.52H29.0347V9.21888ZM30.5677 3.06348H31.8687V4.36457H30.5677V3.06348ZM30.5677 6.15293H31.8687V7.45338H30.5677V6.15293ZM30.5677 9.21888H31.8687V10.52H30.5677V9.21888ZM32.1241 3.06348H33.4246V4.36457H32.1241V3.06348ZM32.1241 6.15293H33.4246V7.45338H32.1241V6.15293ZM32.1241 9.21888H33.4246V10.52H32.1241V9.21888ZM33.6571 3.06348H34.9582V4.36457H33.6571V3.06348ZM33.6571 4.59646H34.9582V5.89753H33.6571V4.59646ZM33.6571 6.15293H34.9582V7.45338H33.6571V6.15293ZM33.6571 9.21888H34.9582V10.52H33.6571V9.21888ZM35.1901 4.59646H36.4912V5.89753H35.1901V4.59646ZM35.1901 6.15293H36.4912V7.45338H35.1901V6.15293Z" fill="white" stroke="white" stroke-width="0.064" stroke-miterlimit="10"/>
<path d="M37.9609 3.07617H39.2614V4.37726H37.9609V3.07617ZM37.9609 4.60915H39.2614V5.91023H37.9609V4.60915ZM37.9609 6.16563H39.2614V7.46673H37.9609V6.16563ZM37.9609 7.69863H39.2614V8.99968H37.9609V7.69863ZM37.9609 9.23158H39.2614V10.5327H37.9609V9.23158ZM39.4939 3.07617H40.7944V4.37726H39.4939V3.07617ZM39.4939 4.60915H40.7944V5.91023H39.4939V4.60915ZM39.4939 6.16563H40.7944V7.46673H39.4939V6.16563ZM39.4939 7.69863H40.7944V8.99968H39.4939V7.69863ZM39.4939 9.23158H40.7944V10.5327H39.4939V9.23158ZM41.0269 4.60915H42.3267V5.91023H41.0269V4.60915ZM42.5599 3.07617H43.8603V4.37726H42.5599V3.07617ZM44.1163 3.07617H45.4168V4.37726H44.1163V3.07617Z" fill="white" stroke="white" stroke-width="0.064" stroke-miterlimit="10"/>
<path d="M48.2067 3.06738H46.9062V4.36848H48.2067V3.06738Z" fill="white" stroke="white" stroke-width="0.064" stroke-miterlimit="10"/>
<path d="M48.2067 4.60059H46.9062V5.90105H48.2067V4.60059Z" fill="white" stroke="white" stroke-width="0.064" stroke-miterlimit="10"/>
<path d="M48.2067 6.15625H46.9062V7.4567H48.2067V6.15625Z" fill="white" stroke="white" stroke-width="0.064" stroke-miterlimit="10"/>
<path d="M48.2067 9.22363H46.9062V10.5247H48.2067V9.22363Z" fill="white" stroke="white" stroke-width="0.064" stroke-miterlimit="10"/>
<path d="M49.738 3.06738H48.4375V4.36848H49.738V3.06738Z" fill="white" stroke="white" stroke-width="0.064" stroke-miterlimit="10"/>
<path d="M49.738 6.15625H48.4375V7.4567H49.738V6.15625Z" fill="white" stroke="white" stroke-width="0.064" stroke-miterlimit="10"/>
<path d="M49.738 9.22363H48.4375V10.5247H49.738V9.22363Z" fill="white" stroke="white" stroke-width="0.064" stroke-miterlimit="10"/>
<path d="M51.2732 3.06738H49.9727V4.36848H51.2732V3.06738Z" fill="white" stroke="white" stroke-width="0.064" stroke-miterlimit="10"/>
<path d="M51.2732 6.15625H49.9727V7.4567H51.2732V6.15625Z" fill="white" stroke="white" stroke-width="0.064" stroke-miterlimit="10"/>
<path d="M51.2732 9.22363H49.9727V10.5247H51.2732V9.22363Z" fill="white" stroke="white" stroke-width="0.064" stroke-miterlimit="10"/>
<path d="M52.8283 3.06738H51.5273V4.36848H52.8283V3.06738Z" fill="white" stroke="white" stroke-width="0.064" stroke-miterlimit="10"/>
<path d="M52.8283 6.15625H51.5273V7.4567H52.8283V6.15625Z" fill="white" stroke="white" stroke-width="0.064" stroke-miterlimit="10"/>
<path d="M52.8283 9.22363H51.5273V10.5247H52.8283V9.22363Z" fill="white" stroke="white" stroke-width="0.064" stroke-miterlimit="10"/>
<path d="M54.3635 3.06738H53.0625V4.36848H54.3635V3.06738Z" fill="white" stroke="white" stroke-width="0.064" stroke-miterlimit="10"/>
<path d="M54.3635 6.15625H53.0625V7.4567H54.3635V6.15625Z" fill="white" stroke="white" stroke-width="0.064" stroke-miterlimit="10"/>
<path d="M54.3635 7.68945H53.0625V8.99055H54.3635V7.68945Z" fill="white" stroke="white" stroke-width="0.064" stroke-miterlimit="10"/>
<path d="M54.3635 9.22363H53.0625V10.5247H54.3635V9.22363Z" fill="white" stroke="white" stroke-width="0.064" stroke-miterlimit="10"/>
<path d="M58.6833 9.22168H57.3828V10.5228H58.6833V9.22168Z" fill="white" stroke="white" stroke-width="0.064" stroke-miterlimit="10"/>
<path d="M55.8477 3.06561H57.1482V4.36607H55.8477V3.06561ZM57.3832 -0.000976562H58.6842V1.29757H57.3832V-0.000976562ZM57.3832 1.532H58.6842V2.83309H57.3832V1.532ZM57.3832 3.06561H58.6842V4.36607H57.3832V3.06561ZM57.3832 4.60113H58.6842V5.90157H57.3832V4.60113ZM57.3832 6.15697H58.6842V7.45807H57.3832V6.15697ZM57.3832 7.68997H58.6842V8.99102H57.3832V7.68997ZM58.9162 0.00283508H60.2172V1.29757H58.9137L58.9162 0.00283508ZM58.9162 1.53581H60.2172V2.83309H58.9137L58.9162 1.53581ZM58.9162 3.06942H60.2172V4.36607H58.9137L58.9162 3.06942ZM58.9162 4.6024H60.2172V5.90287H58.9137L58.9162 4.6024ZM58.9162 6.15822H60.2172V7.45932H58.9137L58.9162 6.15822ZM58.9162 7.69122H60.2172V8.99232H58.9137L58.9162 7.69122ZM58.9162 9.22482H60.2172V10.5253H58.9137L58.9162 9.22482ZM60.4492 3.06942H61.7502V4.36607H60.4492V3.06942ZM60.4492 9.22482H61.7502V10.5253H60.4492V9.22482ZM62.0057 9.22482H63.3062V10.5253H62.0057V9.22482Z" fill="white" stroke="white" stroke-width="0.064" stroke-miterlimit="10"/>
<path d="M66.0276 3.06543H64.7266V4.36652H66.0276V3.06543Z" fill="white" stroke="white" stroke-width="0.064" stroke-miterlimit="10"/>
<path d="M66.0276 6.1543H64.7266V7.45475H66.0276V6.1543Z" fill="white" stroke="white" stroke-width="0.064" stroke-miterlimit="10"/>
<path d="M66.0276 7.6875H64.7266V8.9886H66.0276V7.6875Z" fill="white" stroke="white" stroke-width="0.064" stroke-miterlimit="10"/>
<path d="M66.0276 9.22168H64.7266V10.5228H66.0276V9.22168Z" fill="white" stroke="white" stroke-width="0.064" stroke-miterlimit="10"/>
<path d="M67.5588 3.06543H66.2578V4.36652H67.5588V3.06543Z" fill="white" stroke="white" stroke-width="0.064" stroke-miterlimit="10"/>
<path d="M67.5588 6.1543H66.2578V7.45475H67.5588V6.1543Z" fill="white" stroke="white" stroke-width="0.064" stroke-miterlimit="10"/>
<path d="M67.5588 9.22168H66.2578V10.5228H67.5588V9.22168Z" fill="white" stroke="white" stroke-width="0.064" stroke-miterlimit="10"/>
<path d="M69.0935 3.06543H67.793V4.36652H69.0935V3.06543Z" fill="white" stroke="white" stroke-width="0.064" stroke-miterlimit="10"/>
<path d="M69.0935 6.1543H67.793V7.45475H69.0935V6.1543Z" fill="white" stroke="white" stroke-width="0.064" stroke-miterlimit="10"/>
<path d="M69.0935 9.22168H67.793V10.5228H69.0935V9.22168Z" fill="white" stroke="white" stroke-width="0.064" stroke-miterlimit="10"/>
<path d="M70.6521 3.06543H69.3516V4.36652H70.6521V3.06543Z" fill="white" stroke="white" stroke-width="0.064" stroke-miterlimit="10"/>
<path d="M70.6521 6.1543H69.3516V7.45475H70.6521V6.1543Z" fill="white" stroke="white" stroke-width="0.064" stroke-miterlimit="10"/>
<path d="M70.6521 9.22168H69.3516V10.5228H70.6521V9.22168Z" fill="white" stroke="white" stroke-width="0.064" stroke-miterlimit="10"/>
<path d="M72.1838 3.06543H70.8828V4.36652H72.1838V3.06543Z" fill="white" stroke="white" stroke-width="0.064" stroke-miterlimit="10"/>
<path d="M72.1838 4.59863H70.8828V5.89907H72.1838V4.59863Z" fill="white" stroke="white" stroke-width="0.064" stroke-miterlimit="10"/>
<path d="M72.1838 6.1543H70.8828V7.45475H72.1838V6.1543Z" fill="white" stroke="white" stroke-width="0.064" stroke-miterlimit="10"/>
<path d="M72.1838 7.6875H70.8828V8.9886H72.1838V7.6875Z" fill="white" stroke="white" stroke-width="0.064" stroke-miterlimit="10"/>
<path d="M72.1838 9.22168H70.8828V10.5228H72.1838V9.22168Z" fill="white" stroke="white" stroke-width="0.064" stroke-miterlimit="10"/>
<path d="M73.719 4.59863H72.418V5.89907H73.719V4.59863Z" fill="white" stroke="white" stroke-width="0.064" stroke-miterlimit="10"/>
<path d="M73.7151 6.1543H72.4141V7.45475H73.7151V6.1543Z" fill="white" stroke="white" stroke-width="0.064" stroke-miterlimit="10"/>
<path d="M73.7151 7.6875H72.4141V8.9886H73.7151V7.6875Z" fill="white" stroke="white" stroke-width="0.064" stroke-miterlimit="10"/>
<path d="M73.719 9.2207H72.418V10.5218H73.719V9.2207Z" fill="white" stroke="white" stroke-width="0.064" stroke-miterlimit="10"/>
<path d="M75.1797 -0.000976562H76.4807V1.29757H75.1797V-0.000976562ZM75.1797 1.532H76.4807V2.83309H75.1797V1.532ZM75.1797 3.06561H76.4807V4.36607H75.1797V3.06561ZM75.1797 4.59859H76.4807V5.89902H75.1797V4.59859ZM75.1797 6.15442H76.4807V7.45552H75.1797V6.15442ZM75.1797 7.68742H76.4807V8.98852H75.1797V7.68742ZM75.1797 9.22102H76.4807V10.5215H75.1797V9.22102ZM76.7132 -0.000976562H78.0137V1.29757H76.7132V-0.000976562ZM76.7132 1.532H78.0137V2.83309H76.7132V1.532ZM76.7132 3.06561H78.0137V4.36607H76.7132V3.06561ZM76.7132 4.59859H78.0137V5.89902H76.7132V4.59859ZM76.7132 6.15442H78.0137V7.45552H76.7132V6.15442ZM76.7132 7.68742H78.0137V8.98852H76.7132V7.68742ZM76.7132 9.22102H78.0137V10.5215H76.7132V9.22102ZM78.2462 6.15442H79.5467V7.45552H78.2462V6.15442ZM79.7792 4.60113H81.0802V5.90157H79.7797L79.7792 4.60113ZM79.7792 6.15697H81.0802V7.45807H79.7797L79.7792 6.15697ZM79.7792 7.68997H81.0802V8.99102H79.7797L79.7792 7.68997ZM81.3347 3.06561H82.6357V4.36607H81.3347V3.06561ZM81.3347 4.59859H82.6357V5.89902H81.3347V4.59859ZM81.3347 7.68742H82.6357V8.98852H81.3347V7.68742ZM81.3347 9.22102H82.6357V10.5215H81.3347V9.22102ZM82.8672 3.06561H84.1687V4.36607H82.8672V3.06561ZM82.8672 9.22102H84.1687V10.5215H82.8672V9.22102Z" fill="white" stroke="white" stroke-width="0.064" stroke-miterlimit="10"/>
<path d="M85.5938 4.60094H86.8943V5.9014H85.5938V4.60094ZM85.5938 6.1568H86.8943V7.4579H85.5938V6.1568ZM85.5938 7.68975H86.8943V8.99085H85.5938V7.68975ZM87.1268 3.06797H88.4267V4.36588H87.1268V3.06797ZM87.1268 4.60094H88.4267V5.9014H87.1268V4.60094ZM87.1268 6.1568H88.4267V7.4579H87.1268V6.1568ZM87.1268 7.68975H88.4267V8.99085H87.1268V7.68975ZM87.1268 9.2234H88.4267V10.5238H87.1268V9.2234ZM88.6598 3.06797H89.9608V4.36588H88.6598V3.06797ZM88.6598 6.1568H89.9608V7.4579H88.6598V6.1568ZM88.6598 9.2234H89.9608V10.5238H88.6598V9.2234ZM90.1923 3.06797H91.4937V4.36588H90.1923V3.06797ZM90.1923 6.1568H91.4937V7.4579H90.1923V6.1568ZM90.1923 9.2234H91.4937V10.5238H90.1923V9.2234ZM91.7488 3.06797H93.0503V4.36588H91.7488V3.06797ZM91.7488 6.1568H93.0503V7.4579H91.7488V6.1568ZM91.7488 9.2234H93.0503V10.5238H91.7488V9.2234ZM93.2808 3.06543H94.5818V4.36588H93.2808V3.06543ZM93.2808 4.5984H94.5818V5.89885H93.2808V4.5984ZM93.2808 6.15425H94.5818V7.45535H93.2808V6.15425ZM93.2808 9.22085H94.5818V10.5213H93.2808V9.22085ZM94.8162 4.60094H96.1173V5.9014H94.8162V4.60094ZM94.8162 6.1568H96.1173V7.4579H94.8162V6.1568Z" fill="white" stroke="white" stroke-width="0.064" stroke-miterlimit="10"/>
<path d="M1.75358 19.9209H0.453125V21.2213H1.75358V19.9209Z" fill="white" stroke="white" stroke-width="0.064" stroke-miterlimit="10"/>
<path d="M3.24577 19.9209H1.94531V21.2213H3.24577V19.9209Z" fill="white" stroke="white" stroke-width="0.064" stroke-miterlimit="10"/>
<path d="M3.24577 21.4541H1.94531V22.7552H3.24577V21.4541Z" fill="white" stroke="white" stroke-width="0.064" stroke-miterlimit="10"/>
<path d="M3.24577 22.9873H1.94531V24.2878H3.24577V22.9873Z" fill="white" stroke="white" stroke-width="0.064" stroke-miterlimit="10"/>
<path d="M3.24577 24.5439H1.94531V25.8444H3.24577V24.5439Z" fill="white" stroke="white" stroke-width="0.064" stroke-miterlimit="10"/>
<path d="M3.24577 26.0762H1.94531V27.3773H3.24577V26.0762Z" fill="white" stroke="white" stroke-width="0.064" stroke-miterlimit="10"/>
<path d="M4.78483 18.3877H3.48438V19.6882H4.78483V18.3877Z" fill="white" stroke="white" stroke-width="0.064" stroke-miterlimit="10"/>
<path d="M4.78483 19.9209H3.48438V21.2213H4.78483V19.9209Z" fill="white" stroke="white" stroke-width="0.064" stroke-miterlimit="10"/>
<path d="M4.78483 21.4541H3.48438V22.7552H4.78483V21.4541Z" fill="white" stroke="white" stroke-width="0.064" stroke-miterlimit="10"/>
<path d="M4.78483 22.9873H3.48438V24.2878H4.78483V22.9873Z" fill="white" stroke="white" stroke-width="0.064" stroke-miterlimit="10"/>
<path d="M4.78483 24.5439H3.48438V25.8444H4.78483V24.5439Z" fill="white" stroke="white" stroke-width="0.064" stroke-miterlimit="10"/>
<path d="M4.78483 26.0762H3.48438V27.3773H4.78483V26.0762Z" fill="white" stroke="white" stroke-width="0.064" stroke-miterlimit="10"/>
<path d="M4.78483 27.6084H3.48438V28.9095H4.78483V27.6084Z" fill="white" stroke="white" stroke-width="0.064" stroke-miterlimit="10"/>
<path d="M6.31608 18.3877H5.01562V19.6882H6.31608V18.3877Z" fill="white" stroke="white" stroke-width="0.064" stroke-miterlimit="10"/>
<path d="M6.31608 27.6084H5.01562V28.9095H6.31608V27.6084Z" fill="white" stroke="white" stroke-width="0.064" stroke-miterlimit="10"/>
<path d="M7.84732 18.3877H6.54688V19.6882H7.84732V18.3877Z" fill="white" stroke="white" stroke-width="0.064" stroke-miterlimit="10"/>
<path d="M7.84732 27.6084H6.54688V28.9095H7.84732V27.6084Z" fill="white" stroke="white" stroke-width="0.064" stroke-miterlimit="10"/>
<path d="M9.40206 18.3877H8.10156V19.6882H9.40206V18.3877Z" fill="white" stroke="white" stroke-width="0.064" stroke-miterlimit="10"/>
<path d="M9.40206 27.6084H8.10156V28.9095H9.40206V27.6084Z" fill="white" stroke="white" stroke-width="0.064" stroke-miterlimit="10"/>
<path d="M10.9372 18.3877H9.63672V19.6882H10.9372V18.3877Z" fill="white" stroke="white" stroke-width="0.064" stroke-miterlimit="10"/>
<path d="M10.9372 19.9209H9.63672V21.2213H10.9372V19.9209Z" fill="white" stroke="white" stroke-width="0.064" stroke-miterlimit="10"/>
<path d="M10.9372 26.0762H9.63672V27.3773H10.9372V26.0762Z" fill="white" stroke="white" stroke-width="0.064" stroke-miterlimit="10"/>
<path d="M10.9372 27.6084H9.63672V28.9095H10.9372V27.6084Z" fill="white" stroke="white" stroke-width="0.064" stroke-miterlimit="10"/>
<path d="M1.75358 18.3877H0.453125V19.6882H1.75358V18.3877Z" fill="white" stroke="white" stroke-width="0.064" stroke-miterlimit="10"/>
<path d="M13.8083 21.4541H12.5078V22.7552H13.8083V21.4541Z" fill="white" stroke="white" stroke-width="0.064" stroke-miterlimit="10"/>
<path d="M13.8083 24.5439H12.5078V25.8444H13.8083V24.5439Z" fill="white" stroke="white" stroke-width="0.064" stroke-miterlimit="10"/>
<path d="M13.8083 26.0762H12.5078V27.3773H13.8083V26.0762Z" fill="white" stroke="white" stroke-width="0.064" stroke-miterlimit="10"/>
<path d="M13.8083 27.6084H12.5078V28.9095H13.8083V27.6084Z" fill="white" stroke="white" stroke-width="0.064" stroke-miterlimit="10"/>
<path d="M15.3395 21.4541H14.0391V22.7552H15.3395V21.4541Z" fill="white" stroke="white" stroke-width="0.064" stroke-miterlimit="10"/>
<path d="M15.3395 24.5439H14.0391V25.8444H15.3395V24.5439Z" fill="white" stroke="white" stroke-width="0.064" stroke-miterlimit="10"/>
<path d="M15.3395 27.6084H14.0391V28.9095H15.3395V27.6084Z" fill="white" stroke="white" stroke-width="0.064" stroke-miterlimit="10"/>
<path d="M16.8708 21.4541H15.5703V22.7552H16.8708V21.4541Z" fill="white" stroke="white" stroke-width="0.064" stroke-miterlimit="10"/>
<path d="M16.8708 24.5439H15.5703V25.8444H16.8708V24.5439Z" fill="white" stroke="white" stroke-width="0.064" stroke-miterlimit="10"/>
<path d="M16.8708 27.6084H15.5703V28.9095H16.8708V27.6084Z" fill="white" stroke="white" stroke-width="0.064" stroke-miterlimit="10"/>
<path d="M18.4255 21.4541H17.125V22.7552H18.4255V21.4541Z" fill="white" stroke="white" stroke-width="0.064" stroke-miterlimit="10"/>
<path d="M18.4255 24.5439H17.125V25.8444H18.4255V24.5439Z" fill="white" stroke="white" stroke-width="0.064" stroke-miterlimit="10"/>
<path d="M18.4255 27.6084H17.125V28.9095H18.4255V27.6084Z" fill="white" stroke="white" stroke-width="0.064" stroke-miterlimit="10"/>
<path d="M19.9606 21.4541H18.6602V22.7552H19.9606V21.4541Z" fill="white" stroke="white" stroke-width="0.064" stroke-miterlimit="10"/>
<path d="M19.9606 22.9873H18.6602V24.2878H19.9606V22.9873Z" fill="white" stroke="white" stroke-width="0.064" stroke-miterlimit="10"/>
<path d="M19.9606 24.5439H18.6602V25.8444H19.9606V24.5439Z" fill="white" stroke="white" stroke-width="0.064" stroke-miterlimit="10"/>
<path d="M19.9606 26.0762H18.6602V27.3773H19.9606V26.0762Z" fill="white" stroke="white" stroke-width="0.064" stroke-miterlimit="10"/>
<path d="M19.9606 27.6084H18.6602V28.9095H19.9606V27.6084Z" fill="white" stroke="white" stroke-width="0.064" stroke-miterlimit="10"/>
<path d="M21.4958 22.9873H20.1953V24.2878H21.4958V22.9873Z" fill="white" stroke="white" stroke-width="0.064" stroke-miterlimit="10"/>
<path d="M21.4958 24.5439H20.1953V25.8444H21.4958V24.5439Z" fill="white" stroke="white" stroke-width="0.064" stroke-miterlimit="10"/>
<path d="M21.4958 26.0762H20.1953V27.3773H21.4958V26.0762Z" fill="white" stroke="white" stroke-width="0.064" stroke-miterlimit="10"/>
<path d="M21.4958 27.6084H20.1953V28.9095H21.4958V27.6084Z" fill="white" stroke="white" stroke-width="0.064" stroke-miterlimit="10"/>
<path d="M22.957 21.4541H24.2581V22.7546H22.957V21.4541ZM22.957 22.9871H24.2581V24.2876H22.957V22.9871ZM22.957 24.5436H24.2581V25.8441H22.957V24.5436ZM22.957 26.0766H24.2581V27.377H22.957V26.0766ZM22.957 27.6095H24.2581V28.91H22.957V27.6095ZM22.957 29.1425H24.2581V30.443H22.957V29.1425ZM22.957 30.699H24.2581V31.9994H22.957V30.699ZM24.4906 21.4541H25.7911V22.7546H24.4906V21.4541ZM24.4906 22.9871H25.7911V24.2876H24.4906V22.9871ZM24.4906 24.5436H25.7911V25.8441H24.4906V24.5436ZM24.4906 26.0766H25.7911V27.377H24.4906V26.0766ZM24.4906 27.6095H25.7911V28.91H24.4906V27.6095ZM24.4906 29.1425H25.7911V30.443H24.4906V29.1425ZM24.4906 30.699H25.7911V31.9994H24.4906V30.699ZM26.0236 21.4541H27.3241V22.7546H26.0236V21.4541ZM26.0236 27.6095H27.3241V28.91H26.0236V27.6095ZM27.5566 21.4541H28.859V22.7546H27.5566V21.4541ZM27.5566 27.6095H28.859V28.91H27.5566V27.6095ZM29.1131 21.4541H30.4135V22.7546H29.1131V21.4541ZM29.1131 27.6095H30.4135V28.91H29.1131V27.6095ZM30.6461 21.4541H31.9465V22.7546H30.6461V21.4541ZM30.6461 22.9871H31.9465V24.2876H30.6461V22.9871ZM30.6461 24.5436H31.9465V25.8441H30.6461V24.5436ZM30.6461 26.0766H31.9465V27.377H30.6461V26.0766ZM30.6461 27.6095H31.9465V28.91H30.6461V27.6095ZM32.179 22.9871H33.4795V24.2876H32.179V22.9871ZM32.179 24.5436H33.4795V25.8441H32.179V24.5436ZM32.179 26.0766H33.4795V27.377H32.179V26.0766Z" fill="white" stroke="white" stroke-width="0.064" stroke-miterlimit="10"/>
<path d="M34.9453 18.3877H36.2458V19.6881H34.9453V18.3877ZM34.9453 21.4536H36.2458V22.7541H34.9453V21.4536ZM34.9453 22.9866H36.2458V24.2871H34.9453V22.9866ZM34.9453 24.5431H36.2458V25.8436H34.9453V24.5431ZM34.9453 26.0761H36.2458V27.3772H34.9453V26.0761ZM34.9453 27.609H36.2458V28.9095H34.9453V27.609ZM36.4783 18.3877H37.7788V19.6881H36.4783V18.3877ZM36.4783 21.4536H37.7788V22.7541H36.4783V21.4536ZM36.4783 22.9866H37.7788V24.2871H36.4783V22.9866ZM36.4783 24.5431H37.7788V25.8436H36.4783V24.5431ZM36.4783 26.0761H37.7788V27.3772H36.4783V26.0761ZM36.4783 27.609H37.7788V28.9095H36.4783V27.609Z" fill="white" stroke="white" stroke-width="0.064" stroke-miterlimit="10"/>
<path d="M39.2148 21.4543H40.5159V22.7547H39.2148V21.4543ZM40.751 18.3877H42.0515V19.6881H40.751V18.3877ZM40.751 19.9207H42.0515V21.2211H40.751V19.9207ZM40.751 21.4536H42.0515V22.7541H40.751V21.4536ZM40.751 22.9866H42.0515V24.2871H40.751V22.9866ZM40.751 24.5431H42.0515V25.8436H40.751V24.5431ZM40.751 26.0761H42.0515V27.3772H40.751V26.0761ZM42.284 18.389H43.5844V19.6894H42.284V18.389ZM42.284 19.9219H43.5844V21.2224H42.284V19.9219ZM42.284 21.4549H43.5844V22.7554H42.284V21.4549ZM42.284 22.9879H43.5844V24.2883H42.284V22.9879ZM42.284 24.5444H43.5844V25.8448H42.284V24.5444ZM42.284 26.0773H43.5844V27.3772H42.284V26.0773ZM42.284 27.6103H43.5844V28.9108H42.284V27.6103ZM43.817 21.4549H45.1174V22.7554H43.817V21.4549ZM43.817 27.6103H45.1174V28.9108H43.817V27.6103ZM45.3728 27.6103H46.6739V28.9108H45.3728V27.6103Z" fill="white" stroke="white" stroke-width="0.064" stroke-miterlimit="10"/>
<path d="M48.1367 26.0746H49.4378V27.3769H48.1367V26.0746ZM49.6697 21.4521H50.9706V22.7526H49.6697V21.4521ZM49.6697 24.5416H50.9706V25.842H49.6697V24.5416ZM49.6697 26.0746H50.9706V27.3769H49.6697V26.0746ZM49.6697 27.6075H50.9706V28.908H49.6697V27.6075ZM51.2026 21.4521H52.5036V22.7526H51.2026V21.4521ZM51.2026 24.5416H52.5036V25.842H51.2026V24.5416ZM51.2026 27.6075H52.5036V28.908H51.2026V27.6075ZM52.7361 21.4521H54.0366V22.7526H52.7361V21.4521ZM52.7361 24.5416H54.0366V25.842H52.7361V24.5416ZM52.7361 27.6075H54.0366V28.908H52.7361V27.6075ZM54.2921 21.4521H55.5931V22.7526H54.2921V21.4521ZM54.2921 24.5416H55.5931V25.842H54.2921V24.5416ZM54.2921 27.6075H55.5931V28.908H54.2921V27.6075ZM55.8251 21.4521H57.1261V22.7526H55.8251V21.4521ZM55.8251 22.9851H57.1261V24.2856H55.8251V22.9851ZM55.8251 24.5416H57.1261V25.842H55.8251V24.5416ZM55.8251 26.0746H57.1261V27.3769H55.8251V26.0746ZM55.8251 27.6075H57.1261V28.908H55.8251V27.6075ZM57.3581 22.9851H58.6591V24.2856H57.3581V22.9851ZM57.3581 24.5416H58.6591V25.842H57.3581V24.5416ZM57.3581 26.0746H58.6591V27.3769H57.3581V26.0746ZM57.3581 27.6075H58.6591V28.908H57.3581V27.6075Z" fill="white" stroke="white" stroke-width="0.064" stroke-miterlimit="10"/>
<path d="M61.4255 18.3877H60.125V19.6882H61.4255V18.3877Z" fill="white" stroke="white" stroke-width="0.064" stroke-miterlimit="10"/>
<path d="M61.4255 19.9209H60.125V21.2213H61.4255V19.9209Z" fill="white" stroke="white" stroke-width="0.064" stroke-miterlimit="10"/>
<path d="M61.4255 21.4541H60.125V22.7552H61.4255V21.4541Z" fill="white" stroke="white" stroke-width="0.064" stroke-miterlimit="10"/>
<path d="M61.4255 22.9873H60.125V24.2878H61.4255V22.9873Z" fill="white" stroke="white" stroke-width="0.064" stroke-miterlimit="10"/>
<path d="M61.4255 24.5439H60.125V25.8444H61.4255V24.5439Z" fill="white" stroke="white" stroke-width="0.064" stroke-miterlimit="10"/>
<path d="M61.4255 26.0762H60.125V27.3773H61.4255V26.0762Z" fill="white" stroke="white" stroke-width="0.064" stroke-miterlimit="10"/>
<path d="M61.4255 27.6084H60.125V28.9095H61.4255V27.6084Z" fill="white" stroke="white" stroke-width="0.064" stroke-miterlimit="10"/>
<path d="M62.9562 18.3877H61.6562V19.6882H62.9562V18.3877Z" fill="white" stroke="white" stroke-width="0.064" stroke-miterlimit="10"/>
<path d="M62.9562 19.9209H61.6562V21.2213H62.9562V19.9209Z" fill="white" stroke="white" stroke-width="0.064" stroke-miterlimit="10"/>
<path d="M62.9562 21.4541H61.6562V22.7552H62.9562V21.4541Z" fill="white" stroke="white" stroke-width="0.064" stroke-miterlimit="10"/>
<path d="M62.9562 22.9873H61.6562V24.2878H62.9562V22.9873Z" fill="white" stroke="white" stroke-width="0.064" stroke-miterlimit="10"/>
<path d="M62.9562 24.5439H61.6562V25.8444H62.9562V24.5439Z" fill="white" stroke="white" stroke-width="0.064" stroke-miterlimit="10"/>
<path d="M62.9562 26.0762H61.6562V27.3773H62.9562V26.0762Z" fill="white" stroke="white" stroke-width="0.064" stroke-miterlimit="10"/>
</g>
<defs>
<clipPath id="clip0_7105_38215">
<rect width="96" height="32" fill="white" transform="translate(0.449219)"/>
</clipPath>
</defs>
</svg>
