<svg width="150" height="32" viewBox="0 0 150 32" fill="none" xmlns="http://www.w3.org/2000/svg">
<path d="M26.3846 14.3372L21.159 5.31101C20.6839 4.4859 19.8088 3.98584 18.8587 3.98584H8.43233C7.25718 3.98584 6.15704 4.61091 5.58196 5.63604L0.356296 14.6622C-0.118765 15.4873 -0.118765 16.4874 0.356296 17.3125L5.58196 26.3637C6.18204 27.3888 7.25718 28.0139 8.43233 28.0139H18.8587C19.8088 28.0139 20.6839 27.5138 21.159 26.6887L26.3846 17.6626C26.9597 16.6375 26.9847 15.3623 26.3846 14.3372ZM1.83148 16.0374L2.43156 15.0372L7.08216 6.93621L10.0075 12.0119C10.3076 12.4619 10.9076 12.6119 11.3577 12.3119C11.7828 12.0369 11.9328 11.4868 11.7077 11.0367L9.35745 6.93621C8.9574 6.36114 8.30731 5.98609 7.60722 5.96109H18.1336L13.1829 14.5372C13.0079 14.8372 12.6829 15.0372 12.3328 15.0372H3.60671C2.88162 15.0122 2.20653 15.3873 1.83148 16.0374ZM18.1336 26.0387H8.78237L11.7077 20.963C12.0078 20.513 11.8578 19.8879 11.4077 19.6128C10.9577 19.3128 10.3326 19.4628 10.0575 19.9129C10.0325 19.9379 10.0325 19.9629 10.0075 19.9879L7.08216 25.0635L6.50708 26.0887C6.83212 25.5136 6.85713 24.8385 6.60709 24.2384L2.43156 16.9875H12.3328C12.6829 16.9875 13.0079 17.1875 13.1829 17.4876L17.5835 25.1135C17.9835 25.6886 18.6336 26.0387 19.3087 26.0637H18.1336V26.0387ZM24.5094 16.9875L19.8338 25.0635L14.8832 16.4874C14.7081 16.1874 14.7081 15.8124 14.8832 15.4873L19.8338 6.93621L20.4089 5.93609C20.0088 6.63618 20.0588 7.48628 20.5089 8.16137C20.6839 8.3864 24.4844 15.0372 24.4844 15.0372H18.6336C18.0836 15.0372 17.6585 15.4873 17.6585 16.0124C17.6585 16.5374 18.1086 16.9875 18.6336 16.9875H23.3342H23.3092C24.0343 16.9875 24.7094 16.6125 25.0845 15.9874L24.5094 16.9875Z" fill="white"/>
<path d="M83.2933 10.662C82.6932 10.637 82.0931 10.8121 81.568 11.1121C81.068 11.4121 80.6179 11.8122 80.2429 12.2622L80.1929 12.3372H79.8928L79.5678 10.9121H76.1673C75.9173 10.9121 75.6923 11.0621 75.5923 11.3121L74.9922 12.9373H78.8927C78.8927 12.9373 77.6675 12.9373 77.6675 13.9375V19.3631H76.1673C75.9173 19.3631 75.6923 19.5132 75.5923 19.7632L74.9922 21.3884H83.6433C83.8933 21.3884 84.1434 21.2384 84.2184 20.9884L84.8184 19.3631H80.1178V14.5125L80.1428 14.4625C80.3929 14.0625 80.7179 13.7124 81.068 13.4124C81.493 13.0873 82.0431 12.9123 82.5682 12.9373C82.9182 12.9123 83.2432 13.0873 83.4433 13.3874C83.6183 13.7124 83.6933 14.0875 83.6933 14.4375H85.8686C85.8436 13.0873 85.5935 12.1122 85.1685 11.5371C84.7434 10.9621 84.0183 10.637 83.2933 10.662Z" fill="white"/>
<path d="M96.5682 15.9376C96.0181 15.6876 95.4681 15.4875 94.893 15.3375L93.1678 14.8875C92.7177 14.7624 92.2677 14.6124 91.8426 14.4374C91.4176 14.2374 91.2175 13.9873 91.2175 13.6373C91.2175 13.2372 91.4926 12.8622 91.8926 12.7622C92.3927 12.5872 92.9177 12.4872 93.4428 12.5122C93.7929 12.5122 94.1429 12.5622 94.4929 12.6122C94.843 12.6872 95.168 12.7872 95.4931 12.9122C95.8181 13.0372 96.1181 13.1622 96.3932 13.2873C96.6182 13.3873 96.8182 13.5123 96.9933 13.6123L97.9934 11.9621C97.8184 11.8371 97.6183 11.7121 97.4183 11.562C97.1183 11.362 96.7682 11.212 96.4432 11.087C95.9931 10.937 95.5431 10.8119 95.068 10.7369C94.4679 10.6369 93.8429 10.5869 93.2428 10.5869C92.6427 10.5869 92.0176 10.6619 91.4426 10.8119C90.9425 10.937 90.4674 11.137 90.0174 11.437C89.6423 11.6871 89.3173 12.0121 89.0923 12.4121C88.8672 12.8122 88.7422 13.2873 88.7672 13.7373C88.7422 14.2624 88.9172 14.7875 89.2673 15.2125C89.6173 15.6126 90.0424 15.9376 90.5174 16.1876C91.0425 16.4627 91.6176 16.6627 92.1926 16.8127C92.8177 16.9627 93.3928 17.1127 93.9179 17.2628C94.3679 17.3878 94.818 17.5378 95.268 17.7628C95.6431 17.8878 95.8931 18.2379 95.8931 18.6129C95.9181 19.038 95.6681 19.413 95.293 19.5631C94.618 19.8881 93.6178 19.8881 92.6677 19.6631C92.2427 19.5631 91.8176 19.413 91.3925 19.263C91.0175 19.113 90.6675 18.938 90.3174 18.713C90.0674 18.5629 89.8674 18.4129 89.7173 18.2879L88.6172 20.0381C89.2173 20.5132 89.8924 20.9132 90.6174 21.1883C91.6176 21.5633 92.6927 21.7383 93.7678 21.7133C95.293 21.7133 96.4682 21.4133 97.2183 20.8132C97.9684 20.2381 98.3934 19.313 98.3434 18.3629C98.3684 17.8378 98.1934 17.3128 97.8684 16.9127C97.4433 16.4877 97.0433 16.1626 96.5682 15.9376Z" fill="white"/>
<path d="M110.395 18.5379C110.17 18.7129 109.92 18.888 109.67 19.038C109.395 19.188 109.095 19.313 108.77 19.413C108.42 19.513 108.045 19.563 107.645 19.563C106.92 19.588 106.219 19.288 105.744 18.7629C105.294 18.2379 105.069 17.3878 105.069 16.2376V12.9372H109.995L110.745 10.9119H105.069V7.68652L103.044 8.26159C102.769 8.3366 102.594 8.58664 102.594 8.86168V10.9119H101.644C101.394 10.9119 101.169 11.062 101.069 11.312L100.469 12.9372H103.944C103.944 12.9372 102.619 12.9372 102.619 13.9873V16.2126C102.619 18.1129 103.019 19.538 103.794 20.3881C104.569 21.2633 105.744 21.6883 107.32 21.6883C107.77 21.6883 108.22 21.6383 108.645 21.5383C109.095 21.4383 109.52 21.3133 109.945 21.1382C110.345 20.9632 110.745 20.7632 111.12 20.5132C111.42 20.3381 111.67 20.1131 111.92 19.8631L110.795 18.1879L110.395 18.5379Z" fill="white"/>
<path d="M123.097 19.188C123.072 19.0129 123.072 18.8129 123.022 18.6129C122.997 18.2378 122.972 17.8878 122.972 17.5628C122.972 17.1627 122.997 16.6876 123.047 16.1626C123.097 15.6375 123.122 15.0374 123.122 14.3123C123.122 13.8123 123.047 13.2872 122.922 12.8122C122.797 12.3871 122.572 12.0121 122.272 11.687C121.922 11.362 121.522 11.1119 121.072 10.9619C120.472 10.7619 119.847 10.6869 119.222 10.6869C118.322 10.6619 117.447 10.7619 116.571 10.9619C115.946 11.1119 115.346 11.312 114.746 11.562L115.321 13.4122C115.746 13.2372 116.196 13.0622 116.646 12.9372C117.297 12.7371 117.997 12.6371 118.672 12.6371C119.197 12.6121 119.722 12.7371 120.172 13.0372C120.522 13.3122 120.697 13.7623 120.697 14.3624V14.7624C120.697 14.9124 120.672 15.0874 120.647 15.2375L120.622 15.3875H120.472C120.047 15.3625 119.697 15.3375 119.397 15.2875C119.122 15.2625 118.847 15.2375 118.597 15.2375C117.947 15.2375 117.297 15.2875 116.646 15.4375C116.121 15.5375 115.621 15.7625 115.171 16.0376C114.796 16.2876 114.471 16.6376 114.271 17.0627C114.046 17.5378 113.946 18.0378 113.946 18.5629C113.896 19.388 114.246 20.1631 114.846 20.7382C115.446 21.2632 116.271 21.5633 117.297 21.5633C118.022 21.5883 118.722 21.4383 119.347 21.1132C119.822 20.8382 120.222 20.4631 120.522 20.0131L120.572 19.9381H120.922L121.197 21.4133H123.622C123.922 21.4133 124.172 21.2132 124.222 20.9132L124.497 19.388H123.097V19.188ZM120.647 18.2628L120.622 18.3129C120.422 18.6629 120.147 18.9629 119.822 19.188C119.322 19.488 118.747 19.638 118.172 19.613C117.572 19.613 117.147 19.488 116.872 19.238C116.596 18.9629 116.446 18.5629 116.471 18.1878C116.471 17.9128 116.546 17.6628 116.696 17.4627C116.847 17.2627 117.047 17.0877 117.272 16.9877C117.522 16.8627 117.772 16.7627 118.047 16.7127C118.647 16.6126 119.247 16.6126 119.847 16.6876C120.147 16.7127 120.347 16.7627 120.497 16.7877L120.647 16.8127V18.2628Z" fill="white"/>
<path d="M133.049 15.6622L137.274 10.9116H134.424L130.873 15.2121H129.948V6.56104H126.898C126.648 6.56104 126.423 6.71106 126.323 6.96109L125.723 8.5863H128.698C128.698 8.5863 127.498 8.5863 127.498 9.46141V21.3879H129.948V16.9124H130.973L134.699 21.3879H136.749C136.999 21.3879 137.249 21.2379 137.324 20.9879L137.924 19.3627H135.999L133.049 15.6622Z" fill="white"/>
<path d="M58.2645 10.9116C57.9895 10.9116 57.7644 11.0866 57.6894 11.3367L55.4641 17.5625H55.0641L52.0887 10.9116H49.9134C49.6634 10.9116 49.4384 11.0616 49.3384 11.3117L48.7383 12.9369H51.7637C51.7637 12.9369 50.3135 12.9369 50.8636 14.262L53.9139 21.388H56.4643L60.4648 10.9116H58.2645Z" fill="white"/>
<path d="M45.6132 11.5366C45.1381 11.1865 44.6131 10.9615 44.063 10.8115C42.7878 10.4865 41.4127 10.5365 40.1625 10.9365C39.5124 11.1615 38.8873 11.5116 38.3623 11.9616C37.8372 12.4367 37.4372 13.0368 37.1871 13.6869C36.8871 14.462 36.7371 15.2871 36.7371 16.1122C36.7121 16.9123 36.8621 17.6874 37.1371 18.4375C37.6122 19.7626 38.6873 20.8128 40.0375 21.2628C40.8126 21.5379 41.6377 21.6629 42.4628 21.6379C42.9879 21.6379 45.4132 21.5379 47.2634 20.2127L46.9134 18.4875C45.6382 19.3126 44.138 19.7376 42.6128 19.7376C42.1878 19.7376 41.7627 19.6876 41.3377 19.6126C40.9626 19.5126 40.5876 19.3626 40.2625 19.1376C39.9375 18.9125 39.6874 18.6375 39.4874 18.2875C39.2874 17.9124 39.1624 17.4623 39.1624 17.0373V16.8623H46.9884C47.1134 16.2622 47.1634 15.6371 47.1634 15.037C47.1884 14.2869 47.0384 13.5369 46.7133 12.8618C46.4883 12.3617 46.0883 11.8866 45.6132 11.5366ZM44.9381 15.1871H39.2374L39.2624 14.987C39.2874 14.612 39.4124 14.2369 39.5874 13.9369C39.7625 13.6369 40.0125 13.3618 40.2875 13.1368C40.5876 12.9118 40.8876 12.7617 41.2376 12.6617C41.5877 12.5617 41.9877 12.4867 42.3628 12.5117C43.2129 12.5117 43.863 12.7367 44.313 13.1868C44.7631 13.6869 44.9881 14.3369 44.9631 15.012L44.9381 15.1871Z" fill="white"/>
<path d="M70.8413 11.5366C70.3663 11.1865 69.8412 10.9615 69.2911 10.8115C68.016 10.4865 66.6408 10.5365 65.3906 10.9365C64.7406 11.1615 64.1155 11.5116 63.5904 11.9616C63.0653 12.4367 62.6653 13.0368 62.3903 13.6869C62.0902 14.462 61.9402 15.2871 61.9402 16.1122C61.9152 16.9123 62.0652 17.6874 62.3403 18.4375C62.8403 19.7626 63.8904 20.8128 65.2406 21.2628C66.0157 21.5379 66.8408 21.6629 67.6659 21.6379C68.191 21.6379 70.6163 21.5379 72.4665 20.2127L72.1415 18.4875C70.8663 19.3126 69.3661 19.7376 67.841 19.7376C67.4159 19.7376 66.9908 19.6876 66.5658 19.5876C66.1907 19.4876 65.8157 19.3376 65.4906 19.1126C65.1656 18.8875 64.9156 18.6125 64.7156 18.2625C64.5155 17.8874 64.3905 17.4373 64.3905 17.0123V16.8373H72.2165C72.3415 16.2372 72.3915 15.6121 72.3915 15.012C72.4165 14.2619 72.2665 13.5118 71.9415 12.8618C71.7164 12.3617 71.3164 11.8866 70.8413 11.5366ZM70.1662 15.1871H64.4655L64.4905 14.987C64.5155 14.612 64.6405 14.2369 64.8156 13.9369C64.9906 13.6369 65.2406 13.3618 65.5157 13.1368C65.8157 12.9118 66.1157 12.7617 66.4658 12.6617C66.8158 12.5617 67.2159 12.4867 67.5909 12.5117C68.441 12.5117 69.0911 12.7367 69.5412 13.1868C69.9912 13.6869 70.2163 14.3369 70.1913 15.012L70.1662 15.1871Z" fill="white"/>
<path d="M148.373 11.5366C147.898 11.1865 147.372 10.9615 146.822 10.8115C145.547 10.4865 144.172 10.5365 142.922 10.9365C142.272 11.1615 141.647 11.5116 141.122 11.9616C140.597 12.4367 140.197 13.0368 139.922 13.6869C139.621 14.462 139.471 15.2871 139.471 16.1122C139.446 16.9123 139.596 17.6874 139.871 18.4375C140.372 19.7876 141.422 20.8128 142.772 21.2628C143.547 21.5379 144.372 21.6629 145.197 21.6379C145.722 21.6379 148.148 21.5379 149.998 20.2127L149.648 18.4875C148.373 19.3126 146.872 19.7376 145.347 19.7376C144.922 19.7376 144.497 19.6876 144.072 19.5876C143.697 19.4876 143.322 19.3376 142.997 19.1126C142.672 18.8875 142.422 18.6125 142.222 18.2625C142.022 17.8874 141.897 17.4373 141.897 17.0123V16.8373H149.748C149.873 16.2372 149.923 15.6121 149.923 15.012C149.948 14.2619 149.798 13.5118 149.473 12.8368C149.248 12.3617 148.848 11.8866 148.373 11.5366ZM147.697 15.1871H141.997L142.022 14.987C142.047 14.612 142.172 14.2369 142.347 13.9369C142.522 13.6369 142.772 13.3618 143.047 13.1368C143.347 12.9118 143.647 12.7617 143.997 12.6617C144.347 12.5617 144.747 12.4867 145.122 12.5117C145.972 12.5117 146.622 12.7367 147.072 13.1868C147.522 13.6869 147.748 14.3369 147.723 15.012L147.697 15.1871Z" fill="white"/>
</svg>
