<svg width="116" height="32" viewBox="0 0 116 32" fill="none" xmlns="http://www.w3.org/2000/svg">
<g clip-path="url(#clip0_449_425)">
<path d="M20.2644 21.5993V10.5078H25.8413C28.0071 10.5078 29.3244 9.852 29.6397 9.67493V13.0724H23.3895V15.7286H29.2505V18.3224H23.479V21.5993H20.2644Z" fill="white"/>
<path d="M47.8862 21.8581C45.5881 21.8581 44.047 21.4047 43.1752 20.4726C42.5156 19.7643 42.2334 18.7952 42.3151 17.5071H45.4402C45.3955 18.1589 45.5064 18.6065 45.7885 18.912C46.1427 19.3012 46.7615 19.4607 47.8862 19.4607C49.3223 19.4607 49.9372 19.1397 49.9372 18.3866C49.9372 17.5187 48.612 17.3105 47.4445 17.1276C47.2382 17.0945 47.0358 17.0634 46.8451 17.0284C44.5101 16.6139 42.4066 16.0438 42.4066 13.662C42.4066 11.4787 44.3525 10.2256 47.7247 10.2256C51.4608 10.2256 52.6458 11.9769 52.9786 12.7552L51.1767 15.3043C51.1767 15.246 51.1572 15.1895 51.1455 15.1331C50.7564 13.3176 48.7599 12.6404 47.5904 12.6404C46.3489 12.6404 45.7185 12.9304 45.7185 13.5024C45.7185 14.1952 46.5533 14.3567 47.7091 14.5805L48.3999 14.7167C49.4546 14.9327 50.4392 15.2168 50.9296 15.3666C51.0074 15.39 51.3187 15.5087 51.3868 15.5437C52.7334 16.1274 53.3327 16.972 53.3327 18.2679C53.3288 21.391 49.9177 21.8581 47.8862 21.8581Z" fill="white"/>
<path d="M74.6537 21.5993L69.6956 14.8471V14.9969C69.7326 15.6157 69.7501 16.2364 69.7501 16.9428V21.5993H66.7203V10.5078H69.9038L74.86 17.1763V17.0323C74.8249 16.322 74.8055 15.6488 74.8055 15.028V10.4922H77.8352V21.5837L74.6537 21.5993Z" fill="white"/>
<path d="M62.7974 21.5993L62.1397 19.9667H57.2322L56.594 21.5993H53.4202L57.9677 10.5078H61.5307L66.0937 21.5993H62.7974ZM58.1818 17.5597H61.2057L59.6646 13.6835L58.1818 17.5597Z" fill="white"/>
<path d="M87.6969 21.5993L87.0392 19.9667H82.1317L81.509 21.5993H78.3022L82.8672 10.5078H86.4302L90.9932 21.5993H87.6969ZM83.056 17.5597H86.0994L84.5582 13.6835L83.056 17.5597Z" fill="white"/>
<path d="M111.888 21.5993L111.23 19.9667H106.321L105.661 21.5993H102.491L107.037 10.5078H110.619L115.182 21.5993H111.888ZM107.228 17.5597H110.289L108.747 13.6679L107.228 17.5597ZM99.0784 21.5993L96.9827 17.7387H94.5698V21.5993H91.4564V13.6212C91.4564 11.8699 90.7675 10.7763 90.571 10.5078H96.6713C100.119 10.5078 101.797 11.6598 101.797 14.0337C101.797 17.0109 98.2027 17.6103 97.4827 17.7017H97.4633V17.7874H100.265L102.369 21.5993H99.0784ZM94.5698 15.5185H96.3016C97.5898 15.5185 98.2903 15.211 98.4674 14.5591C98.4978 14.4403 98.5128 14.318 98.5121 14.1953C98.516 13.9901 98.4625 13.7879 98.3576 13.6116C98.2528 13.4352 98.1007 13.2916 97.9186 13.197C97.4549 12.9707 96.9416 12.8649 96.4261 12.8896H94.5698V15.5185Z" fill="white"/>
<path d="M38.9643 21.5993L38.2891 19.9667H33.3991L32.7589 21.5993H29.5521L34.1152 10.5078H37.6975L42.2431 21.5993H38.9643ZM34.3234 17.5597H37.3473L35.8042 13.6835L34.3234 17.5597Z" fill="white"/>
<path d="M12.4672 25.1154C7.39432 21.4708 6.77942 13.7943 11.9574 9.99207C10.1653 10.0738 9.01135 10.6303 8.71557 10.8016C7.10828 13.2942 6.73661 16.612 7.70955 19.4588C8.23549 21.0038 9.09874 22.4123 10.2367 23.5823C11.3746 24.7522 12.7587 25.6541 14.2886 26.2227C13.6454 25.9164 13.0351 25.5454 12.4672 25.1154Z" fill="white"/>
<path d="M10.3754 20.2099C10.0271 18.9587 9.94735 17.2346 10.4494 15.7655H9.22932C8.95106 18.1687 9.72941 20.8987 11.2861 22.4846C10.8821 21.7706 10.5758 21.0055 10.3754 20.2099Z" fill="white"/>
<path d="M8.43347 3.01997C1.16755 8.30887 0.276341 19.2739 6.57126 25.6292C11.6306 31.064 20.6789 31.7295 26.4582 27.108C17.8963 33.2025 5.36871 28.1549 4.06886 17.5538C3.00836 9.8792 9.16512 2.60744 17.0245 2.85652L19.0113 0.0739079C15.2418 -0.292324 11.4709 0.757904 8.43347 3.01997Z" fill="white"/>
<path d="M16.6275 3.41699C10.4688 3.46953 5.19547 8.5872 4.85495 14.7031C4.06297 22.8194 12.0722 29.8284 20.0075 28.2678C12.0099 29.3809 4.31788 21.4572 6.72299 13.5181C7.72512 9.82088 10.8736 6.81061 14.6583 6.19571L16.6275 3.41699Z" fill="white"/>
<path d="M30.7021 24.4928C21.644 37.1838 1.65595 31.0212 1.54114 15.3472C1.54114 10.4241 3.94236 5.60803 7.91974 2.69894V0.132324C-1.03131 5.93299 -2.75341 18.8128 4.59423 26.5963C11.9672 34.5374 24.5317 33.5178 30.8383 24.8158L30.7021 24.4928Z" fill="white"/>
</g>
<defs>
<clipPath id="clip0_449_425">
<rect width="115.182" height="32" fill="white"/>
</clipPath>
</defs>
</svg>
