<svg width="95" height="32" viewBox="0 0 95 32" fill="none" xmlns="http://www.w3.org/2000/svg">
<g clip-path="url(#clip0_450_1166)">
<path d="M13.8469 7.8042C13.8155 7.79745 13.7866 7.78794 13.7622 7.76631C13.7324 7.73985 13.645 7.63612 13.6341 7.6C13.5814 7.42571 13.6245 7.05583 13.6214 6.85595L13.6237 4.45703C14.5543 4.48872 15.5397 4.40639 16.4576 4.55788L13.8544 4.6779L13.8469 7.8042Z" fill="white"/>
<path d="M79.5104 4.88238C79.6327 4.84666 79.8128 4.86643 79.9413 4.86634C79.9582 4.88779 80.0348 4.96815 80.0379 4.98826C80.0525 5.07997 79.9944 5.26646 79.9941 5.37736L80.0045 6.74583L80.0009 12.0221C79.9955 12.7815 79.9359 13.5478 79.9636 14.3059L79.8001 14.4781C79.7058 14.5329 79.6242 14.5379 79.5178 14.5432C79.4748 14.4895 79.3811 14.4007 79.3565 14.3412C79.3162 14.2437 79.3441 13.9825 79.3413 13.8638L79.3306 12.2856L79.3354 5.02355L79.5104 4.88238Z" fill="white"/>
<path d="M60.0119 4.88237C60.1441 4.83348 60.3189 4.86228 60.4589 4.86943L60.5764 5.02354L60.5778 12.7407L60.5659 13.9024C60.5648 14.0113 60.593 14.2433 60.5611 14.3412C60.5459 14.3878 60.4259 14.4958 60.3883 14.5389L60.1766 14.5949L59.9676 14.4079C59.8527 14.0481 59.8778 13.6223 59.8744 13.2466L59.8699 11.3187L59.8592 5.02354L60.0119 4.88237Z" fill="white"/>
<path d="M71.722 19.5562L73.1476 19.5289C73.09 20.2886 73.1267 21.0773 73.1273 21.84L73.1343 25.8572C73.136 26.3636 73.2842 27.3248 73.0942 27.7623L72.8119 27.7899L71.6782 27.8338C71.7324 26.9952 71.6858 26.1303 71.6782 25.2888L71.6796 21.8193C71.6785 21.0734 71.6311 20.2968 71.722 19.5562Z" fill="white"/>
<path d="M94.5884 27.7882L89.7774 27.8312C89.711 27.6847 89.7375 27.4517 89.7358 27.2917L89.7299 25.9088L89.7672 19.4902L91.214 19.5172L91.2555 26.6754C91.8083 26.6185 92.3863 26.6521 92.942 26.6541C93.4852 26.656 94.0536 26.6217 94.5884 26.7298V27.7882Z" fill="white"/>
<path d="M74.3363 19.5513L80.7225 19.5217L80.6847 20.627L78.2819 20.7057L78.1734 25.7588L78.1844 27.7861L76.7662 27.8373L76.7636 20.6886L74.3312 20.6242L74.3363 19.5513Z" fill="white"/>
<path d="M52.3856 27.9999L52.3687 27.9903C52.0454 27.8088 51.6456 27.7954 51.2912 27.6998C50.0565 27.3669 49.0423 26.5815 48.6769 25.3101C48.3694 24.2407 48.4321 22.4501 48.9728 21.4765C49.4923 20.5407 50.3501 19.8977 51.3883 19.6014C52.3303 19.3326 53.6926 19.4662 54.6653 19.5675C54.7224 19.9395 54.8011 20.3188 54.7342 20.694C54.682 20.7352 54.6244 20.8031 54.5577 20.7954C54.2124 20.7554 53.884 20.6328 53.5413 20.5769C52.8173 20.4589 51.9536 20.5635 51.3643 21.027C50.6034 21.6257 50.1358 22.4532 50.0268 23.4216C49.9404 24.189 50.1928 25.0758 50.674 25.6775C51.1622 26.2878 51.765 26.7095 52.5542 26.7961C53.3145 26.8795 54.069 26.6983 54.8189 26.5971C54.7867 26.8588 54.7822 27.4809 54.6416 27.6812C54.3135 27.7643 53.8504 27.8221 53.5681 27.9999H52.3856Z" fill="white"/>
<path d="M48.7286 4.7412C49.2876 4.65886 49.9469 4.70937 50.5173 4.70997L54.0091 4.74704C53.932 5.20269 53.938 5.68065 53.9205 6.14209C52.7462 5.98967 51.5775 6.36854 50.423 6.16801L50.4111 8.71427C51.5007 8.88465 52.7301 8.80531 53.8352 8.79339C53.8047 9.28358 53.7951 9.74483 53.849 10.2347L52.9718 10.1574C52.1368 10.1701 51.2308 10.2541 50.4052 10.1373L50.3244 14.5375C50.2157 14.6106 49.9856 14.569 49.8506 14.5674L48.5778 14.5926L48.5312 4.88238L48.7286 4.7412Z" fill="white"/>
<path d="M64.9512 27.2643L64.9323 19.4871C66.3643 19.5247 68.8369 19.353 69.8923 20.4748C70.2766 20.8833 70.2845 21.7949 70.265 22.3268C70.2467 22.8307 70.1863 23.3811 69.7972 23.7428C68.9287 24.55 67.5042 24.5375 66.3886 24.6899L66.3646 27.8055C66.1368 27.8003 65.1322 27.8604 65.0155 27.7704C64.9195 27.6182 64.9517 27.4424 64.9512 27.2643ZM66.9968 20.6826C66.763 20.6987 66.5823 20.6581 66.4177 20.8353C66.3316 21.6848 66.307 22.6163 66.4841 23.4543C66.9536 23.6247 67.6866 23.4219 68.1149 23.2256C68.5447 22.8818 68.6548 22.6401 68.8457 22.1353C68.7214 21.5923 68.7226 21.2938 68.2284 20.9849C67.882 20.7681 67.3969 20.7113 66.9968 20.6826Z" fill="white"/>
<path d="M64.9512 27.2643C65.0748 26.7341 65.004 26.1366 65.0096 25.591L65.0215 22.0334C65.0195 21.835 64.9435 21.2879 65.0037 21.1177C65.0686 20.9344 65.0898 20.8665 65.1 20.6592H65.1519C65.275 21.0436 65.144 21.6965 65.1406 22.1095L65.1516 25.6636C65.1547 25.9784 65.2615 26.6203 65.1313 26.8807L65.1175 26.9062C65.2239 27.1339 65.2595 27.2852 65.2346 27.5362C65.1703 27.6313 65.1192 27.7134 65.0155 27.7704C64.9195 27.6182 64.9517 27.4423 64.9512 27.2643Z" fill="white"/>
<path d="M58.9204 19.4941L60.3847 19.5181L60.6263 19.9767L62.4503 24.6776C62.7988 25.5735 63.2923 26.5098 63.4993 27.4432C63.5176 27.5258 63.5013 27.605 63.4702 27.6824C63.1345 27.814 62.6889 27.8086 62.3295 27.7965C61.7543 27.7771 61.6897 26.4388 61.3006 26.0345C61.1168 25.8437 60.4312 25.8906 60.1664 25.887L57.7828 25.8726L56.9795 27.79C56.674 27.7926 55.9619 27.8786 55.7097 27.739L55.6185 27.6824C55.6103 27.5752 55.6053 27.4649 55.6355 27.3607C55.9438 26.3006 56.4458 25.2839 56.8391 24.2518L58.1151 21.0007C58.2591 20.6452 58.3653 20.2254 58.5383 19.8898C58.6425 19.6877 58.7222 19.6018 58.9204 19.4941ZM59.5125 21.0673L58.5965 23.4144C58.47 23.7865 58.3215 24.1464 58.2899 24.5412C58.4138 24.6828 58.4957 24.7395 58.6942 24.7519L59.8061 24.7487C60.1737 24.7347 60.5151 24.6984 60.8748 24.6196L60.0659 22.353C59.8993 21.8829 59.8064 21.4834 59.5125 21.0673Z" fill="white"/>
<path d="M83.3865 19.529C83.884 19.5111 84.4549 19.4443 84.9459 19.5243C85.0902 19.5478 85.156 19.6247 85.2232 19.746C85.5654 20.365 85.7317 21.0899 85.9881 21.7472L87.6258 25.8328C87.8257 26.3576 87.964 27.0766 88.2961 27.524C88.3215 27.558 88.3113 27.6384 88.3124 27.6823L88.2351 27.7128C87.9166 27.8252 87.0867 27.8908 86.7835 27.7385C86.4845 27.5883 86.1355 26.2542 86.0101 25.9006L85.2176 25.8867L82.4892 25.867C82.3037 26.1927 82.1538 26.533 82.0363 26.8892C81.9668 27.0989 81.9039 27.4898 81.7313 27.6355C81.39 27.924 80.572 27.7732 80.1346 27.7319L82.42 21.9075C82.7266 21.1191 82.9873 20.2735 83.3865 19.529ZM84.1178 21.2587C83.6844 21.9447 83.4226 22.9555 83.1922 23.7371C83.0957 24.0642 82.9525 24.3984 82.8944 24.7333L84.3883 24.7501C84.7274 24.7516 85.1967 24.8076 85.4996 24.647C85.5307 24.394 85.346 24.0854 85.2633 23.838C84.9812 22.9945 84.7429 22.088 84.3426 21.294C84.2471 21.2562 84.2172 21.2339 84.1178 21.2587Z" fill="white"/>
<path d="M25.0316 4.4589C25.5429 4.39692 26.139 4.45883 26.6572 4.46045C28.1404 4.46506 29.681 4.40179 31.1473 4.64188C33.1867 4.97584 34.5635 5.78435 35.7739 7.47646C36.3305 8.25443 36.6179 9.22521 36.8316 10.1454C36.8954 10.4195 37.0078 10.7417 36.9607 11.0236L36.7413 11.0753C35.7974 11.0612 34.8156 11.0741 33.8802 11.197C33.7534 11.1004 33.7608 10.899 33.7119 10.745C33.6012 10.3956 33.4643 10.0253 33.298 9.69838C33.1133 9.33454 32.8722 9.04535 32.563 8.7826C32.1127 8.39995 31.5663 8.07765 30.9926 7.92103C30.6024 7.81441 30.156 7.82277 29.7525 7.80413C28.8343 7.76178 27.9279 7.76884 27.0118 7.84417C26.3858 6.71239 25.7928 5.65218 24.983 4.63647L25.0316 4.4589Z" fill="white"/>
<path d="M94.5884 14.1984C93.1484 14.6941 91.3729 14.7991 89.8683 14.6347C88.7945 14.5173 87.5471 13.8262 86.8782 12.9905C85.9772 11.8653 85.8241 10.3357 85.9797 8.94945C86.1186 7.71159 86.5616 6.51777 87.5609 5.72328C88.9049 4.65449 90.8246 4.43107 92.4888 4.61693C93.0521 4.67985 93.6001 4.82962 94.1665 4.89405L94.0742 6.31636C93.2342 6.12793 92.5221 5.95104 91.6502 5.9484C90.5883 5.94518 89.6672 6.18866 88.9009 6.95551C88.1711 7.68612 87.8176 8.71468 87.8209 9.73928C87.824 10.7368 88.2422 11.7452 88.9393 12.4428C90.008 13.5124 91.2857 13.3351 92.6732 13.3357L92.7443 10.5497C92.0291 10.5223 91.3636 10.4916 90.6459 10.5221L90.645 9.08224L94.5884 9.07931V14.1984Z" fill="white"/>
<path d="M66.5374 4.74122C67.4204 4.63438 68.3575 4.72501 69.2435 4.75805C69.87 4.78142 70.5762 4.75004 71.1889 4.88685C71.7692 5.01639 72.3929 5.35214 72.7139 5.86918C73.027 6.37386 73.0985 7.24564 72.9652 7.81517C72.7805 8.60505 71.9315 9.08869 71.288 9.4902C71.9984 9.8138 72.7763 10.0819 73.1315 10.84C73.411 11.4368 73.3543 12.3543 73.1363 12.9574C73.0488 13.1348 72.9166 13.3036 72.7924 13.4569C71.8971 14.5638 70.4387 14.5433 69.1435 14.5412C68.2459 14.5397 67.3246 14.5101 66.4318 14.6021L66.4183 6.43862L66.4053 5.34908C66.4016 5.24927 66.3627 5.00614 66.3884 4.92433C66.4025 4.8799 66.5038 4.78246 66.5374 4.74122ZM68.4021 10.1059C68.3671 10.1582 68.3075 10.2259 68.2843 10.2824C68.2479 10.371 68.2855 10.7088 68.286 10.8255C68.2889 11.4784 68.222 12.2545 68.351 12.891C68.3939 13.1025 68.4408 13.179 68.6119 13.3011C69.5058 13.2982 70.2035 13.2261 70.9949 12.7942C71.3657 12.4355 71.5306 12.0951 71.5467 11.572C71.5534 11.3502 71.4357 11.0869 71.3612 10.8792C70.4692 9.97943 69.5699 10.1443 68.4021 10.1059ZM68.4281 6.15299L68.3693 6.22853L68.3609 6.24068C68.2011 6.47714 68.2242 8.05669 68.2928 8.3956C68.3309 8.58348 68.3905 8.68154 68.5413 8.79355C69.2144 8.81015 70.1662 8.86713 70.7445 8.47884C71.1228 8.07711 71.2299 7.79535 71.2121 7.23036C71.203 6.94391 71.0943 6.73296 70.8845 6.54284C70.2586 5.97537 69.191 6.24503 68.4281 6.15299Z" fill="white"/>
<path d="M25.045 28C25.3066 27.4195 25.7103 26.9297 26.0368 26.3851L27.0115 24.6431L29.3817 24.6339C30.602 24.5995 31.647 24.5849 32.5963 23.686C33.362 22.9608 33.5967 22.3075 33.6209 21.2811L33.6562 17.985C32.7863 17.8366 31.8464 17.8936 30.9646 17.8949L26.8751 17.908L26.8662 14.5148L35.1815 14.5546L36.5227 14.5795C36.6656 14.5831 36.8641 14.5591 36.9891 14.6319C36.8152 16.7254 36.9502 18.8718 36.8711 20.9764C36.8463 21.6426 36.8804 22.3538 36.7 23.0012C36.3296 24.329 35.4503 25.5259 34.4087 26.4073C33.56 27.1255 32.5573 27.5915 31.4618 27.7924C31.0998 27.8588 30.733 27.8431 30.3934 28H25.045Z" fill="white"/>
<path d="M0.568651 27.9999C0.437492 27.0373 0.492831 26.0101 0.492207 25.0384L0.49145 20.2806L0.494852 14.3511C0.49623 13.0203 0.41688 11.5943 0.636334 10.2784C0.733113 9.69805 0.855171 9.00456 1.09775 8.46993C1.31235 7.99696 1.66397 7.54155 1.97778 7.12819C3.01836 5.7575 4.58904 4.88344 6.28417 4.65249C7.35866 4.5061 8.5841 4.44064 9.66727 4.50163L9.70072 7.77689C8.08801 7.74902 6.12422 7.55236 4.87348 8.75654C3.98373 9.6132 3.80943 10.4413 3.7889 11.6382C3.7732 12.5542 3.71244 13.6011 3.88428 14.4968L10.7402 14.5522C11.0842 14.5569 12.1587 14.4727 12.4241 14.628C12.4006 15.0004 12.3929 17.8782 12.3551 17.9298C10.4641 17.7803 8.49409 17.8876 6.59487 17.8895L4.78191 17.8921C4.48033 17.8927 4.14015 17.8597 3.84608 17.9118L3.64891 27.9999H0.568651Z" fill="white"/>
<path d="M16.4576 4.5579C18.4983 4.53314 20.6063 4.83095 22.1417 6.32513C23.4343 7.58308 24.1362 9.30097 24.1534 11.0931C24.1642 12.211 23.8943 13.41 23.3447 14.3902C23.0679 14.8837 22.7017 15.3542 22.371 15.8137C22.3183 15.887 22.092 16.1491 22.0857 16.2063C22.0855 16.2077 22.1444 16.2848 22.1512 16.2938C22.5938 16.8856 23.1169 17.4938 23.4614 18.1485C24.5695 20.2538 24.3879 22.9689 23.0756 24.9378C22.8096 25.3367 22.4309 25.7055 22.0953 26.0468C21.2132 26.9437 20.0822 27.5339 18.8489 27.7794C18.457 27.8574 18.0616 27.8377 17.6877 28H7.70708C7.55024 26.9056 7.61947 25.6705 7.66016 24.5639C8.64337 24.7419 9.68259 24.6173 10.6762 24.6046L14.6948 24.5949C15.7353 24.59 16.8663 24.6915 17.8915 24.5879C18.8255 24.4936 19.6135 24.1061 20.2116 23.3709C20.8634 22.5697 21.0817 21.7479 20.9705 20.7259C20.8772 19.8694 20.2282 19.11 19.5884 18.5916C18.6759 17.8524 17.3497 17.8336 16.2347 17.9507C16.0349 16.8955 16.1539 15.5909 16.1675 14.5092L17.2213 14.5495C18.2971 14.5553 19.2055 14.4218 20.0017 13.6291C20.585 13.0484 21.0056 12.1705 21.0078 11.3411C21.0101 10.4457 20.7006 9.60851 20.0588 8.96641C18.42 7.32664 15.95 7.80452 13.8469 7.80421L13.8544 4.67791L16.4576 4.5579Z" fill="white"/>
</g>
<defs>
<clipPath id="clip0_450_1166">
<rect width="94.5882" height="24" fill="white" transform="translate(0 4)"/>
</clipPath>
</defs>
</svg>
