<svg width="127" height="32" viewBox="0 0 127 32" fill="none" xmlns="http://www.w3.org/2000/svg">
<g clip-path="url(#clip0_449_1048)">
<path d="M18.8289 5.07227C18.7869 5.06327 18.7485 5.05058 18.7159 5.02175C18.6761 4.98647 18.5596 4.84816 18.5451 4.8C18.4749 4.56761 18.5323 4.07443 18.5281 3.80793L18.5312 0.609375C19.7721 0.65163 21.0859 0.541847 22.3098 0.743847L18.8388 0.903869L18.8289 5.07227Z" fill="white"/>
<path d="M106.38 1.1765C106.543 1.12888 106.783 1.15524 106.955 1.15511C106.977 1.18372 107.079 1.29086 107.083 1.31768C107.103 1.43996 107.025 1.68861 107.025 1.83648L107.039 3.66111L107.034 10.6961C107.027 11.7087 106.948 12.7304 106.984 13.7412L106.766 13.9707C106.641 14.0439 106.532 14.0506 106.39 14.0576C106.333 13.986 106.208 13.8676 106.175 13.7883C106.121 13.6582 106.158 13.31 106.155 13.1517L106.14 11.0475L106.147 1.36474L106.38 1.1765Z" fill="white"/>
<path d="M80.3823 1.17645C80.5584 1.11126 80.7915 1.14967 80.9782 1.15921L81.1348 1.36468L81.1367 11.6542L81.1209 13.2032C81.1194 13.3484 81.157 13.6577 81.1145 13.7882C81.0942 13.8504 80.9342 13.9943 80.8841 14.0518L80.6017 14.1265L80.3231 13.8772C80.1699 13.3974 80.2034 12.8297 80.1989 12.3288L80.1929 9.75828L80.1786 1.36468L80.3823 1.17645Z" fill="white"/>
<path d="M95.9956 20.7416L97.8964 20.7052C97.8196 21.7181 97.8686 22.7697 97.8693 23.7866L97.8787 29.1429C97.881 29.818 98.0786 31.0997 97.8253 31.683L97.4488 31.7198L95.9373 31.7784C96.0095 30.6603 95.9474 29.5071 95.9373 28.385L95.9391 23.7591C95.9376 22.7645 95.8744 21.729 95.9956 20.7416Z" fill="white"/>
<path d="M126.484 31.7177L120.069 31.775C119.981 31.5797 120.016 31.269 120.014 31.0556L120.006 29.2118L120.056 20.6537L121.985 20.6896L122.04 30.2338C122.777 30.1581 123.548 30.2029 124.289 30.2055C125.013 30.2081 125.771 30.1622 126.484 30.3065V31.7177Z" fill="white"/>
<path d="M99.4814 20.7352L107.996 20.6957L107.946 22.1694L104.742 22.2743L104.598 29.0118L104.612 31.7148L102.721 31.7831L102.718 22.2516L99.4746 22.1656L99.4814 20.7352Z" fill="white"/>
<path d="M70.2138 32L70.1912 31.9872C69.7601 31.7452 69.227 31.7272 68.7546 31.5999C67.1083 31.156 65.756 30.1088 65.2688 28.4135C64.8589 26.9877 64.9424 24.6002 65.6634 23.3021C66.3561 22.0544 67.4998 21.197 68.8841 20.8019C70.14 20.4435 71.9565 20.6216 73.2534 20.7567C73.3294 21.2527 73.4345 21.7585 73.3453 22.2588C73.2756 22.3137 73.1988 22.4042 73.11 22.3939C72.6495 22.3406 72.2117 22.1772 71.7547 22.1027C70.7894 21.9452 69.6378 22.0848 68.8521 22.7028C67.8375 23.501 67.2141 24.6043 67.0687 25.8955C66.9535 26.9188 67.2901 28.1011 67.9316 28.9034C68.5825 29.7172 69.3863 30.2794 70.4385 30.3948C71.4524 30.5061 72.4583 30.2645 73.4582 30.1296C73.4153 30.4785 73.4093 31.308 73.2218 31.575C72.7843 31.6858 72.1669 31.7629 71.7904 32H70.2138Z" fill="white"/>
<path d="M65.3377 0.98823C66.0832 0.878436 66.9622 0.945783 67.7227 0.946592L72.3785 0.996008C72.2757 1.60354 72.2836 2.24082 72.2603 2.85608C70.6945 2.65285 69.1363 3.15801 67.5969 2.89064L67.5811 6.28566C69.0339 6.51282 70.6731 6.40703 72.1466 6.39115C72.1059 7.04474 72.0931 7.65974 72.165 8.31292L70.9953 8.20976C69.8821 8.2267 68.674 8.33874 67.5732 8.18307L67.4655 14.0499C67.3206 14.1474 67.0138 14.0919 66.8338 14.0899L65.1367 14.1234L65.0746 1.17647L65.3377 0.98823Z" fill="white"/>
<path d="M86.9679 31.0191L86.9426 20.6494C88.8521 20.6996 92.1488 20.4707 93.5561 21.9664C94.0685 22.5111 94.079 23.7265 94.053 24.4357C94.0286 25.1077 93.948 25.8415 93.4292 26.3237C92.2712 27.4 90.3719 27.3833 88.8845 27.5866L88.8525 31.7406C88.5486 31.7337 87.2092 31.8138 87.0537 31.6939C86.9257 31.4909 86.9686 31.2565 86.9679 31.0191ZM89.6954 22.2434C89.3837 22.265 89.1427 22.2108 88.9232 22.4471C88.8084 23.5797 88.7757 24.8218 89.0117 25.9391C89.6378 26.1662 90.6151 25.8959 91.1862 25.6341C91.7592 25.1758 91.906 24.8534 92.1605 24.1804C91.9949 23.4564 91.9964 23.0584 91.3375 22.6465C90.8756 22.3575 90.2288 22.2817 89.6954 22.2434Z" fill="white"/>
<path d="M86.9679 31.019C87.1328 30.312 87.0383 29.5153 87.0458 28.7879L87.0616 24.0445C87.059 23.7799 86.9577 23.0505 87.0379 22.8235C87.1245 22.5791 87.1527 22.4886 87.1663 22.2122H87.2355C87.3997 22.7247 87.225 23.5953 87.2205 24.146L87.2352 28.8847C87.2393 29.3044 87.3816 30.1603 87.2081 30.5076L87.1896 30.5416C87.3315 30.8452 87.379 31.0469 87.3458 31.3815C87.26 31.5083 87.1919 31.6177 87.0537 31.6938C86.9257 31.4908 86.9686 31.2564 86.9679 31.019Z" fill="white"/>
<path d="M78.9268 20.6588L80.8792 20.6907L81.2015 21.3022L83.6335 27.5701C84.098 28.7646 84.7561 30.0131 85.0321 31.2575C85.0565 31.3677 85.0347 31.4733 84.9933 31.5765C84.5456 31.7519 83.9516 31.7447 83.4723 31.7286C82.7055 31.7028 82.6192 29.9184 82.1005 29.3793C81.8554 29.125 80.9413 29.1874 80.5882 29.1827L77.41 29.1634L76.339 31.7199C75.9316 31.7234 74.9822 31.8381 74.646 31.6519L74.5244 31.5765C74.5135 31.4336 74.5067 31.2865 74.547 31.1476C74.9581 29.7341 75.6274 28.3785 76.1519 27.0023L77.8531 22.6675C78.0451 22.1936 78.1867 21.6339 78.4175 21.1864C78.5564 20.9169 78.6625 20.8023 78.9268 20.6588ZM79.7163 22.7564L78.495 25.8858C78.3264 26.382 78.1283 26.8618 78.0862 27.3882C78.2514 27.577 78.3606 27.6527 78.6253 27.6692L80.1078 27.6649C80.598 27.6462 81.0531 27.5978 81.5328 27.4928L80.4542 24.4706C80.232 23.8439 80.1082 23.3112 79.7163 22.7564Z" fill="white"/>
<path d="M111.548 20.7055C112.212 20.6817 112.973 20.5925 113.628 20.6993C113.82 20.7306 113.908 20.8331 113.997 20.9948C114.454 21.8202 114.675 22.7867 115.017 23.6631L117.201 29.1105C117.467 29.8103 117.652 30.769 118.094 31.3655C118.128 31.4108 118.115 31.518 118.116 31.5765L118.013 31.6172C117.588 31.7672 116.482 31.8546 116.078 31.6515C115.679 31.4513 115.214 29.6724 115.047 29.201L113.99 29.1825L110.352 29.1561C110.105 29.5904 109.905 30.0442 109.748 30.5192C109.656 30.7987 109.572 31.3198 109.342 31.5141C108.886 31.8988 107.796 31.6977 107.213 31.6427L110.26 23.8768C110.669 22.8256 111.016 21.6982 111.548 20.7055ZM112.523 23.0118C111.946 23.9264 111.597 25.2741 111.289 26.3162C111.161 26.7524 110.97 27.1981 110.892 27.6445L112.884 27.667C113.336 27.6689 113.962 27.7436 114.366 27.5295C114.407 27.1921 114.161 26.7807 114.051 26.4508C113.675 25.3262 113.357 24.1175 112.823 23.0589C112.696 23.0084 112.656 22.9787 112.523 23.0118Z" fill="white"/>
<path d="M33.7418 0.611743C34.4235 0.529108 35.2182 0.611657 35.9093 0.613806C37.8869 0.619962 39.941 0.535602 41.896 0.855715C44.6153 1.301 46.4509 2.37902 48.0649 4.63516C48.8069 5.67245 49.1902 6.96683 49.4751 8.19371C49.5602 8.55926 49.7101 8.98878 49.6472 9.36468L49.3547 9.43365C48.0961 9.41487 46.7871 9.432 45.5399 9.59591C45.3709 9.46705 45.3806 9.19859 45.3155 8.99326C45.1679 8.5273 44.9854 8.03363 44.7636 7.59772C44.5174 7.1126 44.1959 6.72702 43.7837 6.37668C43.1832 5.86648 42.4547 5.43674 41.6897 5.22791C41.1694 5.08576 40.5742 5.0969 40.0363 5.07205C38.812 5.01558 37.6035 5.025 36.3821 5.12544C35.5473 3.6164 34.7566 2.20278 33.677 0.848509L33.7418 0.611743Z" fill="white"/>
<path d="M126.484 13.5979C124.564 14.2588 122.197 14.3988 120.191 14.1796C118.759 14.0231 117.096 13.1016 116.204 11.9874C115.002 10.4871 114.798 8.44767 115.006 6.59931C115.191 4.94883 115.782 3.35707 117.114 2.29774C118.906 0.87269 121.466 0.574801 123.685 0.822616C124.436 0.906501 125.166 1.1062 125.922 1.1921L125.799 3.08852C124.679 2.83729 123.729 2.60142 122.567 2.5979C121.151 2.59361 119.923 2.91826 118.901 3.94071C117.928 4.91487 117.456 6.28628 117.461 7.65241C117.465 8.98245 118.023 10.327 118.952 11.257C120.377 12.6833 122.081 12.4468 123.93 12.4476L124.025 8.73292C123.072 8.69648 122.184 8.65556 121.227 8.69618L121.226 6.77637L126.484 6.77245V13.5979Z" fill="white"/>
<path d="M89.0829 0.988295C90.2601 0.845842 91.5096 0.966682 92.691 1.01074C93.5264 1.04189 94.4679 1.00006 95.2849 1.18247C96.0585 1.35518 96.8901 1.80285 97.3182 2.49224C97.7357 3.16515 97.8309 4.32751 97.6532 5.08689C97.407 6.14007 96.275 6.78493 95.417 7.32027C96.3642 7.75174 97.4014 8.1092 97.875 9.12002C98.2477 9.91573 98.172 11.1391 97.8814 11.9433C97.7647 12.1798 97.5885 12.4048 97.4228 12.6093C96.2291 14.0851 94.2846 14.0577 92.5577 14.0549C91.3609 14.053 90.1325 14.0134 88.9421 14.1362L88.924 3.25149L88.9067 1.79877C88.9018 1.66569 88.8499 1.34153 88.8841 1.23244C88.9029 1.17319 89.0381 1.04327 89.0829 0.988295ZM91.5691 8.14124C91.5224 8.211 91.443 8.30124 91.4121 8.37653C91.3635 8.49463 91.4136 8.94504 91.4144 9.10067C91.4181 9.97118 91.3289 11.0061 91.501 11.8547C91.5582 12.1366 91.6207 12.2386 91.8488 12.4015C93.0407 12.3977 93.971 12.3014 95.0262 11.7255C95.5205 11.2473 95.7404 10.7934 95.7619 10.0961C95.7709 9.80027 95.6139 9.44921 95.5145 9.17228C94.3252 7.97258 93.1262 8.19236 91.5691 8.14124ZM91.6037 2.87065L91.5254 2.97137L91.5141 2.98757C91.3011 3.30286 91.3319 5.40893 91.4234 5.8608C91.4742 6.11131 91.5537 6.24205 91.7547 6.3914C92.6522 6.41354 93.9213 6.48951 94.6923 5.97179C95.1968 5.43614 95.3395 5.06046 95.3157 4.30715C95.3037 3.92522 95.1587 3.64395 94.879 3.39045C94.0444 2.63383 92.621 2.99337 91.6037 2.87065Z" fill="white"/>
<path d="M33.7597 32C34.1086 31.2261 34.6468 30.5731 35.0822 29.8468L36.3817 27.5242L39.542 27.5119C41.1691 27.466 42.5624 27.4467 43.8281 26.2481C44.8491 25.2812 45.1619 24.41 45.1943 23.0415L45.2414 18.6468C44.0815 18.4489 42.8282 18.5249 41.6525 18.5266L36.1999 18.5441L36.1879 14.0198L47.2751 14.0728L49.0633 14.106C49.2538 14.1109 49.5185 14.0789 49.6852 14.176C49.4533 16.9673 49.6333 19.8291 49.5279 22.6353C49.4947 23.5236 49.5403 24.4718 49.2997 25.335C48.8058 27.1054 47.6335 28.7012 46.2447 29.8765C45.113 30.8341 43.7762 31.4554 42.3155 31.7233C41.8328 31.8119 41.3438 31.7909 40.8909 32H33.7597Z" fill="white"/>
<path d="M1.12455 32C0.949676 30.7164 1.02346 29.3468 1.02263 28.0512L1.02162 21.7076L1.02616 13.8015C1.02799 12.0271 0.922194 10.1257 1.2148 8.3712C1.34384 7.59744 1.50658 6.67279 1.83002 5.95994C2.11615 5.32932 2.58497 4.72211 3.00339 4.17095C4.39084 2.34337 6.48507 1.17796 8.74525 0.870026C10.1779 0.674837 11.8118 0.58756 13.256 0.668878L13.3007 5.0359C11.1504 4.99874 8.53197 4.73653 6.86432 6.3421C5.67799 7.48431 5.44559 8.58842 5.41822 10.1843C5.39729 11.4057 5.31628 12.8015 5.5454 13.9957L14.6867 14.0697C15.1453 14.0759 16.578 13.9637 16.9318 14.1708C16.9005 14.6672 16.8902 18.5044 16.8399 18.5731C14.3184 18.3738 11.6918 18.5169 9.15951 18.5194L6.74223 18.5228C6.34012 18.5236 5.88655 18.4797 5.49446 18.5491L5.23157 32H1.12455Z" fill="white"/>
<path d="M22.3098 0.743782C25.0307 0.710773 27.8414 1.10785 29.8885 3.10009C31.612 4.77735 32.5478 7.06787 32.5708 9.45745C32.5852 10.948 32.2253 12.5466 31.4925 13.8536C31.1235 14.5116 30.6353 15.1389 30.1943 15.7515C30.124 15.8492 29.8223 16.1987 29.8138 16.275C29.8137 16.2769 29.8922 16.3797 29.9012 16.3917C30.4913 17.1807 31.1888 17.9916 31.6482 18.8646C33.1256 21.6717 32.8834 25.2918 31.1337 27.9169C30.7791 28.4488 30.2742 28.9406 29.8266 29.3957C28.6505 30.5915 27.1425 31.3784 25.4981 31.7057C24.9756 31.8097 24.4484 31.7836 23.9499 31.9999H10.6424C10.4333 30.5408 10.5256 28.8939 10.5798 27.4185C11.8908 27.6557 13.2764 27.4897 14.6012 27.4727L19.9593 27.4598C21.3466 27.4533 22.8546 27.5886 24.2216 27.4505C25.467 27.3247 26.5177 26.8081 27.3151 25.8277C28.1841 24.7595 28.4753 23.6638 28.3269 22.3011C28.2026 21.1591 27.3372 20.1466 26.4841 19.4554C25.2675 18.4697 23.4992 18.4447 22.0126 18.6008C21.7461 17.1939 21.9048 15.4544 21.9229 14.0121L23.328 14.0659C24.7624 14.0737 25.9735 13.8957 27.0353 12.8387C27.8129 12.0645 28.3737 10.8939 28.3766 9.78799C28.3797 8.59416 27.967 7.47793 27.1114 6.62179C24.9263 4.43544 21.633 5.07262 18.8288 5.0722L18.8388 0.903805L22.3098 0.743782Z" fill="white"/>
</g>
<defs>
<clipPath id="clip0_449_1048">
<rect width="126.118" height="32" fill="white" transform="translate(0.366455)"/>
</clipPath>
</defs>
</svg>
