<svg width="187" height="32" viewBox="0 0 187 32" fill="none" xmlns="http://www.w3.org/2000/svg">
<path d="M101.992 3.37695H101.562V28.5899H101.992V3.37695Z" fill="white"/>
<path d="M114.544 13.3031L113.005 10.5602H112.74L111.177 13.3031H114.544ZM115.445 14.9255L114.86 13.8823H110.861L110.269 14.9255H109.523L112.327 9.98096H113.381L116.177 14.9255H115.445H115.445Z" fill="white"/>
<path d="M116.887 13.3788H117.529C117.529 13.4299 117.53 13.4664 117.533 13.4877C117.543 13.7708 117.564 13.9593 117.598 14.0515C117.632 14.1429 117.706 14.2151 117.822 14.2661C118.006 14.3454 118.606 14.3857 119.622 14.3857C120.455 14.3857 120.982 14.35 121.201 14.2802C121.523 14.1792 121.683 13.9331 121.683 13.5424C121.683 13.1518 121.571 12.9146 121.347 12.8353C121.224 12.7913 121.051 12.7664 120.83 12.758C120.608 12.7521 119.888 12.7473 118.671 12.7473C117.889 12.7473 117.372 12.5888 117.12 12.2704C116.962 12.0724 116.883 11.7718 116.883 11.3677C116.883 10.921 117.008 10.598 117.257 10.3974C117.38 10.2982 117.513 10.2236 117.658 10.1723C117.802 10.1217 118.009 10.0815 118.277 10.0495C118.717 9.99584 119.236 9.97021 119.831 9.97021C120.856 9.97021 121.523 10.0957 121.832 10.3455C121.972 10.4592 122.067 10.5917 122.119 10.7432C122.172 10.8952 122.2 11.1284 122.205 11.4444H121.545V11.3675C121.545 11.1297 121.519 10.9685 121.466 10.8842C121.32 10.6471 120.764 10.5275 119.803 10.5275C118.621 10.5275 117.926 10.6317 117.716 10.8393C117.61 10.9455 117.557 11.1212 117.557 11.3675C117.557 11.59 117.584 11.7479 117.637 11.8425C117.69 11.936 117.793 12.008 117.948 12.0555C118.172 12.1291 118.604 12.1672 119.244 12.1718C119.364 12.1718 119.902 12.1742 120.852 12.1788C121.206 12.1826 121.479 12.2154 121.667 12.2807C121.856 12.3459 122.012 12.4587 122.132 12.6181C122.282 12.8174 122.356 13.1075 122.356 13.4874C122.356 13.8674 122.295 14.133 122.172 14.3393C122.027 14.5797 121.754 14.7407 121.353 14.8234C120.953 14.9064 120.234 14.9467 119.198 14.9467C118.246 14.9467 117.637 14.8707 117.369 14.7179C117.186 14.615 117.058 14.4812 116.988 14.3202C116.919 14.1604 116.883 13.9199 116.883 13.6C116.883 13.586 116.885 13.5124 116.887 13.3786" fill="white"/>
<path d="M123.37 13.3788H124.011C124.011 13.4299 124.012 13.4664 124.015 13.4877C124.025 13.7708 124.047 13.9593 124.08 14.0515C124.112 14.1429 124.188 14.2151 124.305 14.2661C124.489 14.3454 125.088 14.3857 126.104 14.3857C126.938 14.3857 127.464 14.35 127.684 14.2802C128.005 14.1792 128.166 13.9331 128.166 13.5424C128.166 13.1518 128.054 12.9146 127.829 12.8353C127.706 12.7913 127.534 12.7664 127.312 12.758C127.091 12.7521 126.37 12.7473 125.152 12.7473C124.372 12.7473 123.855 12.5888 123.601 12.2704C123.444 12.0724 123.367 11.7718 123.367 11.3677C123.367 10.921 123.491 10.598 123.74 10.3974C123.862 10.2982 123.996 10.2236 124.14 10.1723C124.286 10.1217 124.492 10.0815 124.76 10.0495C125.2 9.99584 125.719 9.97021 126.315 9.97021C127.339 9.97021 128.006 10.0957 128.315 10.3455C128.455 10.4592 128.551 10.5917 128.601 10.7432C128.654 10.8952 128.683 11.1284 128.687 11.4444H128.027V11.3675C128.027 11.1297 128.002 10.9685 127.948 10.8842C127.802 10.6471 127.247 10.5275 126.286 10.5275C125.105 10.5275 124.409 10.6317 124.199 10.8393C124.093 10.9455 124.041 11.1212 124.041 11.3675C124.041 11.59 124.067 11.7479 124.12 11.8425C124.173 11.936 124.277 12.008 124.431 12.0555C124.655 12.1291 125.087 12.1672 125.726 12.1718C125.849 12.1718 126.385 12.1742 127.335 12.1788C127.69 12.1826 127.961 12.2154 128.15 12.2807C128.34 12.3459 128.495 12.4587 128.615 12.6181C128.765 12.8174 128.84 13.1075 128.84 13.4874C128.84 13.8674 128.778 14.133 128.655 14.3393C128.51 14.5797 128.237 14.7407 127.836 14.8234C127.435 14.9064 126.716 14.9467 125.681 14.9467C124.729 14.9467 124.12 14.8707 123.852 14.7179C123.669 14.615 123.542 14.4812 123.472 14.3202C123.402 14.1604 123.367 13.9199 123.367 13.6C123.367 13.586 123.368 13.5124 123.37 13.3786" fill="white"/>
<path d="M129.988 14.9257V9.98096H134.834V10.5602H130.648V12.07H134.658V12.6505H130.648V14.3452H134.838V14.9257H129.988Z" fill="white"/>
<path d="M135.496 9.98096H141.115V10.5602H138.641V14.9257H137.982V10.5602H135.496V9.98096Z" fill="white"/>
<path d="M109.965 18.8828H111.281L113.966 23.0743L116.607 18.8828H117.932V23.8287H117.273V19.4951H116.999L114.238 23.8287H113.703L110.913 19.4951H110.624V23.8287H109.965V18.8828Z" fill="white"/>
<path d="M123.804 22.2049L122.266 19.4627H122.002L120.438 22.2049H123.804ZM124.706 23.8287L124.12 22.785H120.123L119.53 23.8287H118.785L121.588 18.8828H122.642L125.438 23.8287H124.706H124.706Z" fill="white"/>
<path d="M126.289 18.8828H127.385L131.718 23.2201H131.87V18.8828H132.529V23.8287H131.415L127.093 19.5034H126.948V23.8287H126.289V18.8828Z" fill="white"/>
<path d="M138.512 22.2049L136.974 19.4627H136.708L135.145 22.2049H138.512H138.512ZM139.413 23.8287L138.827 22.785H134.829L134.237 23.8287H133.492L136.295 18.8828H137.349L140.145 23.8287H139.413H139.413Z" fill="white"/>
<path d="M143.596 21.3215H146.837C146.833 22.0879 146.807 22.5852 146.761 22.8136C146.709 23.0672 146.63 23.259 146.522 23.3869C146.413 23.5148 146.247 23.6157 146.022 23.6913C145.72 23.7896 145.036 23.8395 143.969 23.8395C142.961 23.8395 142.252 23.8075 141.842 23.7423C141.48 23.6842 141.219 23.5268 141.057 23.2697C140.876 22.9829 140.785 22.3448 140.785 21.3583C140.785 20.6168 140.83 20.0908 140.922 19.7814C141.038 19.3931 141.266 19.1442 141.607 19.0353C141.958 18.9228 142.654 18.8647 143.689 18.8647C144.614 18.8647 145.285 18.8947 145.704 18.9523C146.022 18.995 146.279 19.1172 146.475 19.3185C146.685 19.5326 146.794 19.9034 146.805 20.4307H146.123C146.116 20.0433 146.062 19.8029 145.965 19.7058C145.855 19.5966 145.575 19.5269 145.123 19.495C144.783 19.4713 144.343 19.4584 143.802 19.4584C143.109 19.4584 142.609 19.477 142.306 19.514C142.001 19.5506 141.799 19.6156 141.701 19.7091C141.538 19.8631 141.458 20.382 141.458 21.263C141.458 22.0128 141.488 22.4985 141.548 22.7236C141.617 22.9723 141.799 23.1202 142.1 23.1686C142.421 23.2196 143.128 23.2445 144.222 23.2445C144.838 23.2445 145.269 23.2233 145.515 23.183C145.805 23.132 145.985 23.0334 146.056 22.8878C146.128 22.7413 146.167 22.4129 146.174 21.9002H143.595V21.321L143.596 21.3215Z" fill="white"/>
<path d="M148.008 23.8287V18.8828H152.854V19.4627H148.666V20.9743H152.677V21.5535H148.666V23.2482H152.857V23.8287H148.008Z" fill="white"/>
<path d="M153.887 18.8828H155.205L157.889 23.0743L160.529 18.8828H161.855V23.8287H161.196V19.4951H160.921L158.16 23.8287H157.624L154.836 19.4951H154.546V23.8287H153.887V18.8828Z" fill="white"/>
<path d="M163.148 23.8287V18.8828H167.995V19.4627H163.808V20.9743H167.816V21.5535H163.808V23.2482H167.998V23.8287H163.148Z" fill="white"/>
<path d="M169.027 18.8828H170.125L174.456 23.2201H174.61V18.8828H175.27V23.8287H174.153L169.832 19.5034H169.687V23.8287H169.027V18.8828Z" fill="white"/>
<path d="M176.195 18.8828V19.4631H178.679V23.8287H179.339V19.4631H181.812V18.8828H176.195Z" fill="white"/>
<path d="M13.4297 9.59814H22.7389V11.4943H15.8209V14.9837H22.3636V16.8798H15.8209V22.2463H13.4297V9.59814Z" fill="white"/>
<path d="M27.7382 9.59814H25.3477V22.2461H27.7382V9.59814Z" fill="white"/>
<path d="M30.7852 22.2463V9.59814H33.7462L37.667 15.0214C38.6817 16.4296 39.5601 17.8922 40.2584 19.2628H40.3028C40.1217 17.576 40.0558 15.942 40.0558 14.0101V9.59814H42.4293V22.2461H39.7635L35.7963 16.6924C34.8282 15.3032 33.8143 13.7471 33.0698 12.3198L33.0025 12.3384C33.1147 13.9718 33.1355 15.6393 33.1355 17.7227V22.2459H30.7852V22.2463Z" fill="white"/>
<path d="M54.1253 16.9013H47.5827V20.373L54.5015 20.348V22.2678H45.1914V9.61719H54.5015V11.5157H47.5827V15.0014H54.1253V16.9013Z" fill="white"/>
<path d="M77.1534 20.524C74.3868 20.524 72.1441 19.0685 72.1441 15.9003C72.1441 12.7321 74.3868 11.2779 77.1534 11.2779C79.92 11.2779 82.1599 13.347 82.1599 15.9003C82.1599 18.4536 79.9185 20.524 77.1534 20.524ZM77.1534 9.34473C73.0666 9.34473 69.7539 11.8082 69.7539 15.9003C69.7539 19.9923 73.0666 22.4569 77.1534 22.4569C81.2402 22.4569 84.5505 19.5209 84.5505 15.9003C84.5505 12.2797 81.2382 9.34473 77.1534 9.34473Z" fill="white"/>
<path d="M67.8989 20.054C67.0436 20.3512 66.0825 20.5183 65.0649 20.5183C61.4949 20.5183 58.6007 19.071 58.6007 15.9219C58.6007 12.7728 61.4949 11.3251 65.0649 11.3251C66.1066 11.3251 67.0905 11.5016 67.962 11.8134L68.5383 9.88991C67.4713 9.55202 66.2973 9.36523 65.0651 9.36523C60.1749 9.36523 56.2109 11.8309 56.2109 15.9219C56.2109 20.4274 59.6161 22.4786 65.0651 22.4786C66.2745 22.4786 67.4246 22.2983 68.4744 21.974L67.8989 20.0538V20.054Z" fill="white"/>
<path d="M11.338 4.55544C8.2611 4.55544 5.75818 7.05924 5.75818 10.1361V21.7383C5.75818 24.8156 8.26132 27.3189 11.338 27.3189H85.5192C88.5956 27.3189 91.099 24.8156 91.099 21.7383V10.1361C91.099 7.05924 88.5956 4.55544 85.5192 4.55544H11.338ZM85.5192 28.4491H11.338C7.63767 28.4491 4.62891 25.4383 4.62891 21.7383V10.1361C4.62891 6.43625 7.63767 3.42529 11.338 3.42529H85.5192C89.2188 3.42529 92.2274 6.43603 92.2274 10.1361V21.7383C92.2274 25.4381 89.2186 28.4491 85.5192 28.4491Z" fill="white"/>
</svg>
