<svg width="133" height="32" viewBox="0 0 133 32" fill="none" xmlns="http://www.w3.org/2000/svg">
<g clip-path="url(#clip0_449_1022)">
<path d="M1.42422 7V24.8383H3.87816V16.9629H11.4287V14.6856H3.87816V9.27722H13.5052V7H1.42422Z" fill="white"/>
<path d="M51.3685 7V18.4721L60.5258 7H63.4243L56.7698 16.1602L64.1459 24.8383H60.9389L55.006 17.5262L48.9929 24.8383V7H51.3685Z" fill="white"/>
<path d="M93.557 24.8383H96.0651L87.9133 7L79.7614 24.8383H82.226L87.89 12.444V12.4373L87.8914 12.4407L87.893 12.4373V12.444L93.557 24.8383Z" fill="white"/>
<path d="M81.0666 7.09424L72.9147 24.9325L64.7628 7.09424H67.2709L72.9349 19.4885V19.4951L72.9365 19.4918L72.9381 19.4951V19.4885L78.6021 7.09424H81.0666Z" fill="white"/>
<path d="M37.4784 7H35.0244V24.8383L46.5391 24.8381V22.561H37.4784V7Z" fill="white"/>
<path d="M23.1795 7C24.6322 7 26.0038 7.34733 27.2158 7.96347L25.892 10.0051C25.0436 9.60922 24.0975 9.3881 23.0996 9.3881C19.4493 9.3881 16.49 12.3474 16.49 15.9978C16.49 17.9914 17.3726 19.7789 18.7684 20.9907L17.5636 22.8486C15.5482 21.2133 14.2603 18.7167 14.2603 15.9191C14.2603 10.9932 18.2536 7 23.1795 7Z" fill="white"/>
<path d="M20.8273 22.2066C21.5358 22.4659 22.3012 22.6075 23.0996 22.6075C26.7501 22.6075 29.7094 19.6482 29.7094 15.9978C29.7094 14.2067 28.997 12.5821 27.8401 11.3917L29.182 9.32214C30.974 10.9535 32.0986 13.305 32.0986 15.9191C32.0986 20.845 28.1053 24.8382 23.1794 24.8382C21.908 24.8382 20.6987 24.5721 19.6042 24.0928L20.8273 22.2066Z" fill="white"/>
<path d="M97.8828 24.8383H100.454V12.9461L111.543 24.8383V7H109.293V18.6511L97.8828 7V24.8383Z" fill="white"/>
<path d="M123.254 9.52592C125.069 9.52592 126.704 10.3139 127.854 11.575L129.664 9.9911C128.074 8.15592 125.757 7 123.177 7C118.382 7 114.494 10.9932 114.494 15.9191C114.494 20.845 118.382 24.8383 123.177 24.8383C127.972 24.8383 131.859 20.845 131.859 15.9191C131.859 15.626 131.845 15.3362 131.818 15.0504H129.487V15.0507H125.166V17.4186H129.402C128.772 20.31 126.259 22.4705 123.254 22.4705C119.774 22.4705 116.954 19.5727 116.954 15.9982C116.954 12.4237 119.774 9.52592 123.254 9.52592Z" fill="white"/>
</g>
<defs>
<clipPath id="clip0_449_1022">
<rect width="130.435" height="18" fill="white" transform="translate(1.42422 7)"/>
</clipPath>
</defs>
</svg>
