<svg width="109" height="32" viewBox="0 0 109 32" fill="none" xmlns="http://www.w3.org/2000/svg">
<g clip-path="url(#clip0_449_1022)">
<path d="M0.293793 8V22.8652H2.33874V16.3024H8.63089V14.4047H2.33874V9.89768H10.3612V8H0.293793Z" fill="white"/>
<path d="M41.9141 8V17.5601L49.5451 8H51.9606L46.4152 15.6335L52.5619 22.8652H49.8894L44.9454 16.7718L39.9344 22.8652V8H41.9141Z" fill="white"/>
<path d="M77.0711 22.8652H79.1612L72.3681 8L65.5748 22.8652H67.6286L72.3486 12.5367V12.5311L72.3498 12.5339L72.3511 12.5311V12.5367L77.0711 22.8652Z" fill="white"/>
<path d="M66.6626 8.07861L59.8693 22.9438L53.076 8.07861H55.1662L59.8862 18.4071V18.4127L59.8875 18.4099L59.8888 18.4127V18.4071L64.6088 8.07861H66.6626Z" fill="white"/>
<path d="M30.3389 8H28.2939V22.8652L37.8896 22.8651V20.9675H30.3389V8Z" fill="white"/>
<path d="M18.4232 8C19.6338 8 20.7768 8.28944 21.7868 8.80289L20.6836 10.5043C19.9767 10.1743 19.1882 9.99009 18.3567 9.99009C15.3147 9.99009 12.8486 12.4561 12.8486 15.4982C12.8486 17.1595 13.5842 18.6491 14.7473 19.6589L13.7433 21.2072C12.0638 19.8445 10.9906 17.7639 10.9906 15.4326C10.9906 11.3277 14.3183 8 18.4232 8Z" fill="white"/>
<path d="M16.4631 20.6722C17.0535 20.8883 17.6913 21.0063 18.3567 21.0063C21.3987 21.0063 23.8648 18.5402 23.8648 15.4982C23.8648 14.0057 23.2711 12.6518 22.3071 11.6598L23.4254 9.93518C24.9186 11.2946 25.8558 13.2542 25.8558 15.4326C25.8558 19.5375 22.5281 22.8652 18.4232 22.8652C17.3636 22.8652 16.3559 22.6435 15.4438 22.2441L16.4631 20.6722Z" fill="white"/>
<path d="M80.676 22.8652H82.8187V12.9551L92.0593 22.8652V8H90.1844V17.7093L80.676 8V22.8652Z" fill="white"/>
<path d="M101.819 10.1049C103.331 10.1049 104.694 10.7616 105.652 11.8125L107.16 10.4926C105.835 8.96327 103.904 8 101.754 8C97.7583 8 94.5189 11.3277 94.5189 15.4326C94.5189 19.5375 97.7583 22.8652 101.754 22.8652C105.75 22.8652 108.989 19.5375 108.989 15.4326C108.989 15.1883 108.978 14.9469 108.956 14.7087H107.013V14.7089H103.412V16.6822H106.942C106.417 19.0916 104.323 20.8921 101.819 20.8921C98.919 20.8921 96.5683 18.4773 96.5683 15.4985C96.5683 12.5197 98.919 10.1049 101.819 10.1049Z" fill="white"/>
</g>
<defs>
<clipPath id="clip0_449_1022">
<rect width="108.696" height="15" fill="white" transform="translate(0.293793 8)"/>
</clipPath>
</defs>
</svg>
