<svg width="110" height="32" viewBox="0 0 110 32" fill="none" xmlns="http://www.w3.org/2000/svg">
<g clip-path="url(#clip0_7105_38152)">
<path d="M82.4805 6.9502L84.155 6.96521L84.196 15.2279L82.5206 15.1974L82.4805 6.9502Z" fill="white"/>
<path d="M71.0179 17.015C71.2066 17.0065 71.3645 16.9606 71.5236 17.0686C71.5757 17.5922 71.5161 18.1731 71.5052 18.7023C70.4198 18.6182 69.3048 18.7808 68.2234 18.6474L68.2344 25.2599L66.5677 25.2531L66.566 22.6028L66.5743 18.6727L63.2891 18.6896L63.2893 17.0187L71.0179 17.015Z" fill="white"/>
<path d="M35.5706 17.0143L36.3668 17.0026L36.369 19.633C36.3679 19.823 36.3101 20.1694 36.3484 20.3434C36.3796 20.4849 36.7313 20.7723 36.8495 20.8909C37.4796 21.5224 38.3802 22.2255 38.8243 22.9904L38.8319 23.004L41.262 20.5674L41.2387 17.0371L42.9146 16.9922L42.9292 19.7962L42.9251 20.4037C42.9231 20.6155 42.9599 20.9888 42.897 21.1855C42.8661 21.2825 42.7204 21.4075 42.6487 21.4811L41.95 22.1867L38.856 25.2684C38.6882 25.2684 38.0407 24.5422 37.8748 24.377L35.3148 21.8199C35.1861 21.6913 34.7743 21.3676 34.7101 21.2157C34.6336 21.0344 34.6956 20.5192 34.6956 20.3036L34.6947 17.0407L35.5706 17.0143Z" fill="white"/>
<path d="M72.9102 17.0114L74.5573 17.0084L74.5619 20.9886C74.5619 21.8478 74.6261 22.7455 74.5376 23.5981C75.3036 23.4912 76.1823 23.5725 76.9577 23.5727C77.7347 23.5729 78.6191 23.4802 79.3781 23.6086L79.3961 23.6119L79.4914 23.533C79.3509 22.952 79.4533 22.1167 79.4537 21.5107L79.4574 17.0343L81.1282 17L81.1348 18.2864L81.1256 23.4754C81.1214 23.631 81.1267 23.9155 81.0715 24.0558C81.0357 24.1463 80.8731 24.2903 80.8019 24.3648L79.9602 25.2023C79.0467 25.3018 78.0961 25.2564 77.1769 25.2573L74.5145 25.2507C74.4036 25.2452 74.1967 25.2395 74.1007 25.194C74.0148 25.1532 73.8877 25.0019 73.8143 24.9347C73.4991 24.6456 73.2128 24.3321 72.9264 24.015L72.9102 17.0114Z" fill="white"/>
<path d="M72.8802 6.95629L81.1323 6.9541L81.1458 8.4565C80.5177 8.44322 74.5848 8.42568 74.5372 8.47C74.6334 9.02549 74.5674 9.71579 74.5512 10.2814C75.0742 10.1852 75.7021 10.2471 76.2378 10.247L79.6397 10.2487L81.1198 10.2437L81.1298 11.9393L76.5679 11.9125C75.8998 11.9124 75.1936 11.9741 74.5319 11.8828C74.5874 12.277 74.5595 12.7013 74.5615 13.0998L74.5714 15.2131L72.9122 15.1864C72.7965 14.3296 72.882 13.3601 72.882 12.4922L72.8802 6.95629Z" fill="white"/>
<path d="M53.8789 16.9893C54.7668 17.1022 55.7636 17.0195 56.6614 17.0218L62.0933 17.0015L62.1327 25.2651L60.4578 25.2511L60.4433 20.5131L60.4626 18.6736L55.3796 18.6526L55.379 25.2662L53.8982 25.2594L53.8789 16.9893Z" fill="white"/>
<path d="M53.7278 6.6464C54.5394 7.26727 55.2491 8.06293 55.9702 8.78429C56.6128 9.42703 57.3317 10.0658 57.8878 10.7854C58.5927 9.98205 59.3832 9.24003 60.1374 8.48257C60.7492 7.86841 61.3692 7.14346 62.0754 6.64355L62.1359 15.2289L60.4454 15.2058L60.4346 13.8495L60.4331 10.5438C60.0189 11.171 59.4589 11.6655 58.9346 12.1991C58.6974 12.4406 58.4408 12.7629 58.1694 12.9591C58.0574 13.0402 57.9485 13.0379 57.8168 13.0161C57.5235 12.9675 55.6445 10.9143 55.3933 10.5591L55.3819 15.2231L53.6914 15.2207L53.7278 6.6464Z" fill="white"/>
<path d="M63.2948 6.96484L71.5468 6.94141L71.5365 8.45373C71.3441 8.49078 71.1054 8.45729 70.9086 8.45299L69.8462 8.44751L64.9344 8.4371C65.0072 9.01856 64.9765 9.67482 64.9553 10.2618L71.5317 10.2359L71.5109 11.9387L68.1864 11.9116C67.137 11.9119 65.9639 12.0218 64.9261 11.8829C64.9938 12.4283 64.9737 13.0012 64.9357 13.5484C65.4922 13.4824 66.1022 13.5297 66.6642 13.53C68.274 13.5307 69.9308 13.6139 71.535 13.4969L71.5146 15.2089L63.2891 15.2119L63.2948 6.96484Z" fill="white"/>
<path d="M44.2773 16.9953C45.311 17.0964 46.4319 17.0211 47.4736 17.0241C49.1497 17.029 50.8533 17.0861 52.5263 16.9912L52.5292 18.6797C52.4159 18.7279 52.2394 18.6997 52.1167 18.6963L51.1659 18.6855L45.9832 18.6702C45.9267 18.7569 45.9595 18.9602 45.9615 19.0637C45.9698 19.4734 45.9744 19.8785 45.9495 20.288C46.2679 20.3756 46.8678 20.2999 47.215 20.3035C48.9697 20.3217 50.7788 20.3995 52.527 20.2755L52.5259 21.9781L49.5052 21.9621L45.9819 21.9437C45.9253 22.0355 45.9589 22.2413 45.9613 22.3494L45.9516 23.5673L52.5274 23.5636L52.5301 25.2638L44.2844 25.2522L44.2773 16.9953Z" fill="white"/>
<path d="M100.119 17.0148C100.229 17.0026 100.238 16.9947 100.33 17.0678L100.341 18.7222C99.797 18.6539 99.2122 18.6856 98.6634 18.6853L95.4658 18.6851C94.8416 18.685 94.1944 18.7189 93.5739 18.654L93.5574 20.3302L100.336 20.2738L100.35 21.9877C98.739 21.8859 97.0766 21.9642 95.4599 21.9636C94.8488 21.9634 94.1792 22.0144 93.5759 21.9294L93.5579 23.5962L96.396 23.5798L100.336 23.5616L100.343 24.7594C100.343 24.9096 100.372 25.1285 100.32 25.2673L91.8976 25.2467L91.8945 17.0369L100.119 17.0148Z" fill="white"/>
<path d="M82.4844 16.9883C83.28 17.077 84.1392 17.0214 84.9418 17.0224L89.262 17.0166C89.6945 17.2985 90.1549 17.8237 90.5037 18.2103C90.5617 18.2746 90.6545 18.3574 90.6952 18.4315C90.7412 18.5148 90.7281 18.7657 90.729 18.8628L90.7119 20.2725C90.7077 20.3501 90.7189 20.5449 90.6906 20.6103C90.631 20.7489 90.2678 21.0146 90.1425 21.127C90.3007 21.2599 90.6417 21.5355 90.7014 21.7248C90.7669 21.9324 90.7283 22.2934 90.7301 22.5149L90.7397 24.4494C90.7402 24.6506 90.7949 25.0942 90.7139 25.2683L89.0488 25.2371L89.0422 24.1779C89.0426 23.8874 89.1119 22.0292 89.0095 21.9218C88.4241 22.0378 87.6953 21.9633 87.0897 21.9646C86.0826 21.9668 84.9674 22.0593 83.975 21.9188L83.9882 25.2715L82.4844 25.2569V16.9883ZM84.0107 18.6572C83.9371 18.8538 83.9781 19.1048 83.984 19.3131C83.9938 19.6554 83.9932 20.0067 83.9715 20.3485C85.2822 20.2075 86.7007 20.3088 88.023 20.3115C88.2363 20.312 88.8863 20.3811 89.0413 20.301L89.0459 18.6546C88.0927 18.7391 87.095 18.6852 86.1363 18.6849C85.4472 18.6847 84.6895 18.7452 84.0107 18.6572Z" fill="white"/>
<path d="M45.557 6.96549L45.7238 6.96084L49.8051 6.95508L50.8559 6.96352C50.9626 6.96654 51.1478 6.94703 51.2464 6.97605C51.3893 7.01796 51.7302 7.38668 51.8422 7.49555C52.0344 7.68227 52.3761 7.96722 52.4863 8.21294C52.5556 8.36696 52.5264 8.67821 52.5242 8.84564L52.5087 10.282L52.5348 15.2248L50.8495 15.1997L50.846 12.0944C50.8517 12.0382 50.8315 11.9722 50.8212 11.9163C50.5126 11.857 50.1128 11.9136 49.7917 11.9137L47.3784 11.9141C46.9087 11.9156 46.4388 11.9512 45.9704 11.9031C45.9178 12.2376 45.9605 12.6355 45.9623 12.9758L45.9759 15.2306L44.3002 15.2058C44.1974 13.7946 44.2693 12.3338 44.2693 10.9176C44.2693 10.0661 44.1786 9.08987 44.2895 8.25209C44.3059 8.12768 44.4826 7.97923 44.5672 7.89292C44.8808 7.57272 45.1934 7.22986 45.557 6.96549ZM45.9412 8.43144L45.9489 10.2598L49.2491 10.2484C49.7578 10.2494 50.3357 10.1949 50.8368 10.2725C50.8659 9.66859 50.7938 9.03175 50.871 8.43541L45.9412 8.43144Z" fill="white"/>
<path d="M36.0248 6.98635C36.7395 6.88391 37.5584 6.95954 38.2832 6.95897L42.9368 6.95295L42.9282 8.44355L38.4412 8.44452C37.7616 8.44309 37.0185 8.37443 36.3487 8.45055C36.3996 8.82514 36.3753 9.22723 36.3759 9.60546C36.3768 10.0983 36.4024 10.599 36.3042 11.0846C36.3941 11.0648 36.5074 10.9186 36.574 10.8527C36.7902 10.6388 36.9971 10.4284 37.2476 10.2539L40.683 10.2516C40.9258 10.253 41.4098 10.1927 41.6307 10.2596C41.8339 10.3211 42.176 10.7238 42.3415 10.8765C42.5048 11.0509 42.7691 11.266 42.8908 11.4633C42.9591 11.5742 42.9306 12.1426 42.9315 12.2838L42.9162 15.1913C42.8191 15.2483 42.5826 15.2073 42.4647 15.2023L41.262 15.1847C41.2566 14.7289 41.2594 14.3014 41.3429 13.8509C40.9368 14.2094 40.4305 14.6834 40.1607 15.1507L36.6891 15.1853C36.5813 15.184 36.1653 15.2155 36.0833 15.1723C36.0035 15.1301 35.8957 14.9932 35.8269 14.9272L35.1283 14.2393C35.01 14.1181 34.7952 13.9503 34.7121 13.8093C34.6286 13.6672 34.6996 8.86076 34.7077 8.18688C35.0332 7.83012 35.5623 7.12136 36.0248 6.98635ZM40.841 11.8631C40.0134 11.979 39.1152 11.9108 38.279 11.9094C37.6539 11.9083 36.9688 11.9678 36.3522 11.8777C36.3731 12.3754 36.4364 12.9638 36.345 13.4521L36.4638 13.5334L39.3738 13.5355L40.9464 11.9505L40.9217 11.8701L40.841 11.8631Z" fill="white"/>
<path d="M109.752 23.9351C109.525 24.2505 109.247 24.5415 108.968 24.8109C108.857 24.9176 108.664 25.1405 108.531 25.207C108.246 25.3485 102.351 25.2604 101.526 25.2438L101.488 23.5673L107.1 23.5717C107.315 23.5712 107.533 23.5629 107.748 23.5756C107.801 23.5787 107.955 23.6105 107.999 23.5975C108.018 23.5918 108.061 23.5482 108.079 23.534C108.005 23.0303 108.054 22.4624 108.075 21.9537L103.406 21.9677C103.307 21.9657 102.976 21.9815 102.899 21.9438C102.817 21.903 102.682 21.7354 102.611 21.6669L101.864 20.9466C101.788 20.8676 101.557 20.6711 101.521 20.579C101.487 20.4918 101.513 20.2349 101.512 20.1334L101.523 18.1936L102.297 17.3818C102.375 17.3108 102.6 17.0861 102.689 17.0595C102.849 17.0115 103.124 17.0286 103.296 17.0267L104.646 17.0234L109.752 17.0446V18.6757V21.5822V23.9351ZM109.752 21.5822V18.6757L103.153 18.6706C103.172 19.1861 103.227 19.77 103.145 20.2788C103.331 20.3592 103.773 20.3024 103.989 20.3036L107.385 20.3014C107.657 20.2996 108.297 20.2194 108.514 20.3209C108.6 20.3612 108.735 20.5229 108.809 20.5913C109.144 20.9028 109.456 21.2328 109.752 21.5822Z" fill="white"/>
<path d="M0.164062 19.5713L12.2825 26.5184L24.3758 19.5176L24.3824 24.9311C24.2213 25.0845 24.0639 25.2224 23.8741 25.339L22.5761 26.0548L17.868 28.749L13.9079 31.0418C13.3874 31.3377 12.8286 31.7605 12.2525 31.9247C11.679 31.6649 11.1278 31.2822 10.5824 30.9644L7.29903 29.0528L0.164062 24.9397V19.5713Z" fill="white"/>
<path d="M0.164062 0.0546815C0.847992 0.347052 1.47662 0.754482 2.12807 1.11225L5.62736 3.03899L8.26479 4.49554C8.67422 4.71741 9.11242 4.9136 9.50845 5.1561C9.59665 5.2101 9.65276 5.28456 9.70904 5.36975C9.78655 5.78299 9.7403 6.26794 9.74041 6.68872L9.73458 9.37203C9.73289 9.81383 9.69969 10.2697 9.73035 10.709L8.41063 10.0283L6.6905 9.05812C6.09962 8.73365 5.52147 8.45337 4.99159 8.02807L4.96551 14.138C5.10184 14.2886 5.25204 14.4106 5.42433 14.5185C5.79299 14.7493 6.19551 14.9319 6.57237 15.1506L10.3625 17.3395L11.7263 18.1235C11.8743 18.2103 12.1243 18.4123 12.2872 18.4262C12.3345 18.4302 12.5874 18.2506 12.6448 18.2204L17.3616 15.5652C18.0461 15.168 18.8862 14.485 19.6677 14.3314C19.5334 13.1345 19.6191 11.8541 19.6195 10.648C19.6198 9.87329 19.5402 8.99721 19.6435 8.23357L19.5613 8.17354C19.1184 8.47259 18.6187 8.69922 18.1413 8.93939C17.8409 9.09052 17.5045 9.29295 17.1778 9.3715C17.076 9.57359 17.1407 9.97275 17.144 10.1996C17.1567 11.0507 17.2383 12.0262 17.1339 12.8651C17.1328 12.8739 17.1257 12.9522 17.1213 12.9566C17.0584 13.0176 16.869 13.0822 16.7854 13.1231L15.8798 13.5743L13.6645 14.8024C13.3417 14.9874 12.9805 15.2719 12.6298 15.388L12.3558 15.4477C12.3034 15.42 12.2684 15.4167 12.25 15.3576C12.1869 15.1546 12.2207 14.8725 12.2201 14.6596L12.2184 13.1138L12.2192 6.84648C12.6899 6.35967 13.2548 6.15776 13.8379 5.83846L16.1785 4.56473L21.951 1.36826L24.378 0.0107422L24.3878 12.3302L24.3865 15.4811C24.3861 15.9863 24.4514 16.5986 24.3416 17.0871C23.674 17.3394 23.0695 17.7528 22.4492 18.1001L17.8991 20.7308L14.3648 22.7427C13.7081 23.1184 13.0161 23.4662 12.411 23.9205C11.3587 23.4322 10.3596 22.7905 9.3526 22.2138L3.12562 18.6347C2.15157 18.0835 1.19453 17.4912 0.164062 17.0467V0.0546815Z" fill="white"/>
</g>
<defs>
<clipPath id="clip0_7105_38152">
<rect width="109.589" height="32" fill="white" transform="translate(0.164062)"/>
</clipPath>
</defs>
</svg>
