<svg width="139" height="32" viewBox="0 0 139 32" fill="none" xmlns="http://www.w3.org/2000/svg">
<g clip-path="url(#clip0_449_727)">
<path d="M46.4547 32L46.4192 27.3669L46.4477 25.6049C46.462 25.2361 46.5173 24.7956 46.447 24.4329C45.83 24.3983 44.1507 24.5502 43.7117 24.1739C43.6602 23.9317 43.679 23.7766 43.7527 23.5413C43.8188 23.4983 43.8992 23.4293 43.9701 23.3993C44.4474 23.1974 49.63 23.2503 50.3072 23.392C50.5027 23.433 50.6477 23.5134 50.7962 23.6454C50.7663 23.8194 50.7601 23.9115 50.6084 24.0221C49.9646 24.4924 48.4821 24.4725 47.7461 24.389L47.7973 32H46.4547Z" fill="white"/>
<path d="M15.3799 9.52173C16.5631 9.67387 17.8437 9.57968 19.0389 9.5794C19.1966 11.0341 19.0723 12.5781 19.0421 14.0435C18.8584 14.2956 18.7721 14.2962 18.4708 14.3904C17.4036 14.6475 16.2993 14.6439 15.2502 14.9754C15.0827 14.7073 15.1119 13.9284 15.108 13.596C15.0941 12.4297 15.0299 11.2071 15.1206 10.0457C15.1438 9.74862 15.1525 9.71627 15.3799 9.52173Z" fill="white"/>
<path d="M57.5315 32L57.5402 23.3446C57.8014 23.2066 58.6644 23.3027 58.9885 23.3046C60.5343 23.3134 62.1263 23.2498 63.6658 23.3749L63.7771 23.4783C63.7708 23.8083 63.8042 23.9151 63.5788 24.1744C62.4004 24.4319 61.1951 24.4367 59.9927 24.4772C59.7082 24.4868 59.0289 24.3753 58.8205 24.4746C58.9016 25.3738 58.92 26.2236 58.8797 27.1242L61.4658 27.1309C61.9078 27.1335 62.4532 27.0604 62.807 27.3478L62.8776 27.5819C62.5113 27.8974 61.9774 27.8631 61.5058 27.8973L59.0038 28.0922C58.9242 28.0987 58.8918 28.1331 58.8866 28.2182C58.8466 28.8753 58.9172 29.564 58.9245 30.2239C58.9263 30.4024 58.8424 30.8301 58.9308 30.9439C59.8383 30.9248 63.424 30.7198 63.9266 31.1643C64.0612 31.4621 63.9614 31.6862 63.9701 32H57.5315Z" fill="white"/>
<path d="M82.8564 0.91306C83.2056 0.811734 83.8452 0.908771 84.224 0.919543C85.1089 0.944691 85.9788 0.958583 86.8626 0.896621L83.7708 8.09977L82.8884 10.1739C82.8014 10.3911 82.6738 10.9248 82.535 11.0863C82.4682 11.1641 82.3548 11.2373 82.2745 11.3044L82.1774 11.3345C81.9499 11.3827 81.6164 11.3223 81.3809 11.3182L79.4108 11.2753C79.1878 11.267 78.7823 11.3075 78.5788 11.2432C78.5311 11.2282 78.456 11.1603 78.4118 11.1305C78.3993 11.0389 78.3962 10.9429 78.4136 10.8517C78.4585 10.6139 78.6303 10.3331 78.7256 10.1071L79.5527 8.21139C80.5026 5.99462 81.3385 3.65539 82.4028 1.49845C82.5218 1.2573 82.631 1.07311 82.8564 0.91306Z" fill="white"/>
<path d="M67.4164 0.999986C67.9695 0.878661 68.5747 0.92352 69.1385 0.926111C69.9799 0.929976 70.8349 0.897054 71.6627 1.06937C72.2731 1.9902 72.613 2.92799 73.0168 3.93978C73.1834 4.35699 73.4265 4.75567 73.6074 5.17059C73.7865 5.58211 73.9041 6.01373 74.0791 6.42186C74.7218 7.92315 75.5013 9.38044 75.9618 10.955L75.8397 11.1683C75.3229 11.3022 74.7389 11.232 74.213 11.2104L71.7354 11.1004C71.5253 10.8285 71.3956 10.4677 71.2297 10.1617C70.8658 9.49063 70.613 8.76315 70.3194 8.06023L69.0839 5.22249L67.9618 2.60906C67.7799 2.18536 67.5281 1.73369 67.4011 1.29252C67.374 1.19795 67.3886 1.09283 67.4164 0.999986Z" fill="white"/>
<path d="M94.4011 0.915661L95.6414 0.882276L95.6894 11.8241C94.7235 11.9209 93.6515 11.7908 92.6845 11.7174L91.4612 11.6681C91.2167 9.11162 91.3534 6.42351 91.3691 3.85252L91.3948 2.0121C91.4014 1.67526 91.3698 1.29847 91.5489 1.00004C92.3767 0.790283 93.5339 0.922002 94.4011 0.915661Z" fill="white"/>
<path d="M70.0878 32L72.6154 26.4395L73.6064 24.2477C73.7045 24.0396 73.7956 23.6971 73.9267 23.5192C73.9765 23.4516 74.1556 23.3604 74.2311 23.3079C74.5855 23.2808 74.9055 23.287 75.2582 23.3327C75.6151 23.6908 75.741 24.0616 75.9626 24.5026L77.2822 27.4678L79.39 32H77.9914H71.4241H70.0878ZM71.4241 32H77.9914L77.0728 29.9143L72.4297 29.9249C72.07 30.1958 71.6822 31.5344 71.4241 32ZM74.6043 24.6522L72.7024 28.9847C73.5152 28.8943 74.2975 28.9363 75.1114 28.9506C75.661 28.9567 76.2269 28.9368 76.7706 29.0188L74.7925 24.6072L74.6043 24.6522Z" fill="white"/>
<path d="M86.0575 32L86.0436 25.3527C86.0446 24.9211 85.9316 23.8463 86.0843 23.4782C86.1013 23.4364 86.1984 23.3472 86.231 23.3095C86.5448 23.2999 86.7657 23.3554 87.0571 23.4666C87.8025 24.2627 88.205 25.0816 88.7584 26C89.4707 27.1824 90.1817 28.3238 90.8133 29.5545C91.5218 28.4883 92.1719 27.3254 92.7977 26.2078L93.9893 24.1596C94.1757 23.8707 94.3778 23.5088 94.6658 23.3114C94.9184 23.309 95.3006 23.2549 95.5097 23.411L95.5778 23.5313C95.742 23.8572 95.6359 31.0351 95.6182 32H94.4084H87.3145H86.0575ZM87.3145 32H94.4084L94.3883 25.5266C93.4874 26.8515 92.7156 28.3028 91.8905 29.6791C91.6825 30.0264 91.4544 30.5923 91.1664 30.8654C91.0032 31.0201 90.9187 31.0069 90.7093 31.0019C90.3771 30.8102 90.3257 30.5092 90.1243 30.2163L87.2446 25.5764L87.3145 32Z" fill="white"/>
<path d="M53.6714 0.913052C54.0711 0.831507 54.5726 0.899671 54.9813 0.910669C55.8672 0.934499 56.7323 0.902172 57.5991 1.11652C58.1949 2.15035 58.597 3.1825 59.085 4.26088L61.1691 8.83903L62.1462 11.1895C60.8328 11.3694 59.4464 11.3014 58.1215 11.3027C57.8408 10.8953 57.7204 10.3889 57.5281 9.9359L56.0318 6.4093L55.5326 5.03013L52.9458 11.3589C52.7274 11.4868 52.2763 11.4643 52.0189 11.4824L49.0571 11.6208L48.9159 11.4783C48.9031 11.4155 48.8964 11.3469 48.9083 11.2835C49.0043 10.7771 49.3883 10.1951 49.5928 9.71437L52.3695 3.42237C52.6815 2.73744 52.9177 2.01859 53.2679 1.34914C53.3671 1.15948 53.4916 1.03151 53.6714 0.913052Z" fill="white"/>
<path d="M115.291 0.917099L116.536 0.874146C116.706 1.99872 116.582 3.31483 116.627 4.46322L110.906 4.40055C110.949 5.20215 110.967 12.975 110.85 13.1456L107.707 12.805C107.46 12.7822 106.871 12.8154 106.684 12.6853C106.501 11.3666 106.581 9.98218 106.583 8.6522L106.637 4.36795C105.938 4.47943 105.182 4.42587 104.473 4.42698L100.974 4.41004C100.886 3.72778 100.922 2.99684 100.919 2.30793C100.918 1.99012 100.877 1.58287 100.977 1.28068C101.019 1.15525 101.086 1.06544 101.202 1.00318C101.583 0.799408 103.805 0.94434 104.35 0.944824L115.291 0.917099Z" fill="white"/>
<path d="M10.4665 0.722258C11.3951 0.666675 12.3725 0.614895 13.2978 0.726797C15.2537 0.963319 17.1437 1.75499 18.623 3.04749C18.7859 3.18984 19.0587 3.3385 19.1842 3.50801C19.2153 3.55003 19.2872 3.66401 19.2783 3.71104C19.2628 3.79323 19.2306 3.87998 19.1735 3.94273C18.6883 4.4756 18.054 4.93661 17.5263 5.43483C17.3024 5.64621 16.9941 6.06283 16.7418 6.20941C16.6155 6.2828 16.5144 6.10332 16.4279 6.01591C15.7486 5.32882 14.6343 4.65588 13.6866 4.43375C12.2541 4.09803 10.1932 4.19981 8.90279 5.00113C7.62487 5.79469 6.76661 6.88568 6.42341 8.38043C6.0016 10.2176 6.31287 11.8546 7.31249 13.4408C8.04797 14.6621 9.44042 15.036 10.6172 15.6768L5.05552 16.9558C3.5722 15.3179 2.47945 13.656 2.10646 11.4417C1.70034 9.03087 2.20139 6.54989 3.63061 4.54715C5.29559 2.2141 7.71392 1.18252 10.4665 0.722258Z" fill="white"/>
<path d="M133.154 0.871216L137.151 0.980506L131.856 9.7826L130.745 11.6151C130.597 11.8605 130.339 12.1898 130.262 12.462C130.176 12.7661 130.225 13.2269 130.224 13.5456L130.235 16.0595L126.065 15.2734C125.99 14.4307 126.099 13.4986 125.936 12.678C125.831 12.1494 125.432 11.6099 125.16 11.1493L123.233 7.95258L119.169 0.974263C120.278 0.903292 121.792 0.789118 122.872 1.00403C123.037 1.03673 123.314 1.07782 123.46 1.16035C124.028 1.48388 124.456 2.48321 124.771 3.04347L125.911 4.981L127.416 7.4011C127.734 7.92145 127.99 8.44935 128.333 8.96128L128.342 8.94444L128.356 8.91846C128.457 8.71888 128.5 8.49227 128.609 8.28615C129.414 6.77053 130.401 5.29394 131.288 3.82194C131.896 2.81402 132.422 1.80131 133.154 0.871216Z" fill="white"/>
<path d="M26.0794 0.913054C27.4811 0.841785 28.9394 0.943048 30.3465 0.946115L33.9266 0.978032C34.3849 0.993914 34.8285 0.956884 35.2864 1.02075C35.6171 1.06686 35.9173 1.19169 36.2366 1.2787C37.5517 1.63701 38.6261 2.09428 39.7093 2.95394C39.9851 3.1728 40.1854 3.51935 40.3788 3.80992C41.0115 4.76036 41.3426 5.55097 41.479 6.69601C41.7141 8.67093 41.112 10.2543 39.9033 11.7878C39.6706 11.9412 39.4018 12.1375 39.1263 12.1945C38.2706 12.3716 37.3465 12.2981 36.4773 12.3795L28.2882 13.1692C27.5217 13.2686 26.8022 13.2901 26.0334 13.4427L25.9072 12.5642C25.7479 10.2646 25.8842 7.85886 25.8848 5.5493L25.8866 2.75245C25.8871 2.26643 25.8417 1.71656 25.9129 1.23679C25.931 1.11428 25.9995 1.0053 26.0794 0.913054ZM30.2116 4.3966L30.215 8.45309C30.2109 9.10314 30.2914 9.8486 30.138 10.4783L30.2745 10.6041C32.1614 10.3595 34.6131 11.1444 36.2042 9.80057C36.7583 9.28954 37.2014 8.57469 37.2352 7.8005C37.2713 6.97552 37.12 6.09765 36.5472 5.47556C35.8425 4.71072 34.988 4.46439 33.9701 4.42752C32.7261 4.38241 31.4467 4.53013 30.2116 4.3966Z" fill="white"/>
<path d="M4.26462 17.7075C4.76595 17.427 5.59586 17.3954 6.16762 17.2798L17.0474 15.5257L28.9267 14.1809C44.655 12.763 60.5173 12.3759 76.3027 12.5828C89.7715 12.7593 103.267 13.3374 116.641 14.9083C117.108 14.9631 117.58 14.934 118.044 14.9907C118.486 15.0447 118.918 15.1636 119.36 15.2191L123.383 15.6858C123.772 15.7383 124.152 15.8528 124.542 15.8995L129.449 16.6513C129.71 16.7019 129.989 16.6672 130.243 16.7398C131.435 17.0807 137.794 18.0191 138.143 18.6521L138.031 18.6936C137.735 18.7861 137.1 18.5663 136.777 18.5171L133.099 18.0063C132.138 17.8839 131.18 17.8544 130.221 17.6906L130.227 18.8724L125.895 18.9371C125.864 18.3895 125.819 17.8418 125.887 17.2953L115.431 16.5095L112.198 16.3351C111.761 16.3072 111.299 16.1963 110.864 16.2135L110.93 18.9733L106.64 18.9734L106.625 16.0202L95.6091 15.627C95.7834 16.687 95.71 17.8261 95.7089 18.8998L91.367 18.9928L91.3816 15.4787L83.1048 15.3267C82.3288 15.3022 81.4289 15.4083 80.6738 15.2489C80.4714 15.5436 80.382 15.9477 80.2477 16.2803C79.8929 17.1588 79.5326 18.1048 78.9837 18.8783C77.6609 18.9741 76.2822 18.8028 74.9736 18.977L73.406 15.1771L63.9816 15.287C64.6762 16.4369 65.0582 17.7566 65.655 18.9519C64.6112 18.8789 63.5715 18.9233 62.5256 18.928C62.1187 18.9298 61.5455 19.0009 61.1622 18.8737L59.6724 15.2615L51.2011 15.3766C50.8474 16.5439 50.3615 17.7903 49.7966 18.8694C48.9556 18.9312 48.1222 18.9097 47.2797 18.9174C46.7023 18.9227 46.087 18.9765 45.5173 18.9007L46.9479 15.5171L39.5875 15.7041L40.8495 17.43C41.127 17.8468 41.3688 18.3206 41.6995 18.6956L41.6147 18.8501C40.7569 19.0865 39.4408 18.9277 38.5315 18.9153C38.1622 18.9103 37.6446 18.9358 37.3166 18.7442C37.0877 18.6106 36.918 18.3089 36.7622 18.097L35.6054 16.439L35.308 15.9126C35.3051 15.907 35.2666 15.8299 35.2666 15.8299C35.1575 15.7917 34.5281 15.9475 34.3685 15.9602C32.997 16.0695 31.5184 16.2085 30.1507 16.1512C30.28 17.0743 30.2333 18.0407 30.233 18.9724C29.2265 18.9029 28.2168 18.9028 27.2086 18.9294C26.9412 18.9365 26.1332 19.0451 25.9256 18.9126C25.8783 18.122 25.8527 17.1852 25.988 16.4056L20.8675 16.7103C20.2937 16.7516 19.609 16.6941 19.0571 16.8604C18.5801 17.0042 18.1022 17.388 17.6621 17.6252C16.2713 18.3749 14.7022 18.9957 13.1143 19.1479C11.296 19.3222 9.71256 19.0957 7.98845 18.5329C7.53158 18.3838 6.96497 18.077 6.50139 18.0151C6.08452 17.9593 5.63283 18.1261 5.21012 18.1259L0.839722 18.8158V18.4946L4.26462 17.7075Z" fill="white"/>
</g>
<defs>
<clipPath id="clip0_449_727">
<rect width="137.739" height="32" fill="white" transform="translate(0.839722)"/>
</clipPath>
</defs>
</svg>
