<svg width="104" height="32" viewBox="0 0 104 32" fill="none" xmlns="http://www.w3.org/2000/svg">
<g clip-path="url(#clip0_450_1170)">
<path d="M34.2109 28.0001L34.1843 24.5252L34.2057 23.2037C34.2163 22.9271 34.2578 22.5967 34.2051 22.3247C33.7423 22.2988 32.4829 22.4126 32.1537 22.1305C32.115 21.9488 32.1291 21.8324 32.1844 21.656C32.234 21.6237 32.2943 21.572 32.3475 21.5495C32.7054 21.3981 36.5923 21.4377 37.1003 21.5441C37.2469 21.5748 37.3557 21.635 37.467 21.7341C37.4446 21.8646 37.4399 21.9337 37.3262 22.0166C36.8433 22.3693 35.7315 22.3544 35.1795 22.2918L35.2178 28.0001H34.2109Z" fill="white"/>
<path d="M10.9047 11.1414C11.7922 11.2555 12.7526 11.1848 13.649 11.1846C13.7673 12.2756 13.6741 13.4336 13.6514 14.5327C13.5136 14.7218 13.4489 14.7222 13.2229 14.7929C12.4225 14.9857 11.5943 14.9829 10.8074 15.2316C10.6818 15.0306 10.7038 14.4464 10.7008 14.197C10.6904 13.3223 10.6423 12.4054 10.7103 11.5344C10.7277 11.3115 10.7342 11.2873 10.9047 11.1414Z" fill="white"/>
<path d="M42.5186 28L42.5251 21.5084C42.721 21.4049 43.3682 21.477 43.6113 21.4784C44.7706 21.485 45.9646 21.4373 47.1193 21.5311L47.2027 21.6086C47.198 21.8562 47.2231 21.9363 47.054 22.1308C46.1702 22.3239 45.2663 22.3275 44.3645 22.3579C44.1511 22.365 43.6416 22.2814 43.4853 22.3559C43.5461 23.0303 43.5599 23.6676 43.5297 24.3431L45.4693 24.3481C45.8008 24.35 46.2099 24.2953 46.4752 24.5108L46.5281 24.6864C46.2534 24.923 45.853 24.8972 45.4992 24.9229L43.6228 25.0691C43.5631 25.074 43.5388 25.0997 43.5349 25.1636C43.5049 25.6564 43.5579 26.1729 43.5633 26.6679C43.5646 26.8017 43.5018 27.1225 43.568 27.2079C44.2486 27.1936 46.9379 27.0398 47.3149 27.3731C47.4159 27.5965 47.341 27.7646 47.3475 28H42.5186Z" fill="white"/>
<path d="M61.5122 4.68483C61.7741 4.60883 62.2538 4.68161 62.5379 4.68969C63.2016 4.70855 63.854 4.71897 64.5169 4.6725L62.198 10.0749L61.5362 11.6304C61.471 11.7934 61.3752 12.1936 61.2711 12.3148C61.221 12.3731 61.136 12.428 61.0757 12.4783L61.003 12.5009C60.8323 12.537 60.5822 12.4917 60.4056 12.4887L58.928 12.4565C58.7608 12.4503 58.4566 12.4807 58.304 12.4324C58.2683 12.4212 58.2119 12.3703 58.1788 12.3479C58.1694 12.2792 58.167 12.2072 58.1801 12.1388C58.2137 11.9605 58.3426 11.7499 58.4141 11.5804L59.0344 10.1586C59.7469 8.496 60.3737 6.74157 61.172 5.12387C61.2612 4.943 61.3431 4.80486 61.5122 4.68483Z" fill="white"/>
<path d="M49.9322 4.74996C50.347 4.65897 50.8009 4.69261 51.2238 4.69455C51.8548 4.69745 52.496 4.67276 53.1169 4.802C53.5747 5.49262 53.8296 6.19596 54.1325 6.9548C54.2574 7.26771 54.4398 7.56672 54.5754 7.87791C54.7098 8.18655 54.7979 8.51026 54.9292 8.81637C55.4112 9.94233 55.9959 11.0353 56.3412 12.2163L56.2497 12.3762C55.862 12.4766 55.424 12.424 55.0296 12.4078L53.1714 12.3253C53.0139 12.1213 52.9166 11.8507 52.7921 11.6213C52.5192 11.1179 52.3296 10.5723 52.1094 10.0451L51.1828 7.91684L50.3412 5.95677C50.2048 5.63899 50.0159 5.30023 49.9207 4.96936C49.9004 4.89843 49.9113 4.8196 49.9322 4.74996Z" fill="white"/>
<path d="M70.1707 4.68668L71.1009 4.66165L71.1369 12.868C70.4125 12.9406 69.6085 12.843 68.8833 12.788L67.9658 12.751C67.7824 10.8337 67.8849 8.81758 67.8967 6.88933L67.916 5.50901C67.9209 5.25638 67.8972 4.97379 68.0315 4.74997C68.6524 4.59265 69.5203 4.69144 70.1707 4.68668Z" fill="white"/>
<path d="M51.9357 28L53.8314 23.8296L54.5746 22.1858C54.6482 22.0296 54.7165 21.7728 54.8149 21.6393C54.8522 21.5886 54.9865 21.5202 55.0431 21.4808C55.309 21.4605 55.549 21.4652 55.8135 21.4995C56.0811 21.7681 56.1756 22.0461 56.3418 22.3769L57.3315 24.6008L58.9124 28H57.8634H52.9379H51.9357ZM52.9379 28H57.8634L57.1745 26.4357L53.6921 26.4436C53.4224 26.6468 53.1315 27.6508 52.9379 28ZM55.3231 22.4891L53.8966 25.7385C54.5063 25.6707 55.093 25.7022 55.7034 25.7129C56.1156 25.7174 56.54 25.7025 56.9478 25.7641L55.4642 22.4553L55.3231 22.4891Z" fill="white"/>
<path d="M63.913 28L63.9025 23.0145C63.9033 22.6909 63.8185 21.8848 63.933 21.6087C63.9458 21.5773 64.0186 21.5104 64.0431 21.4822C64.2784 21.475 64.4441 21.5165 64.6627 21.6C65.2217 22.1971 65.5236 22.8113 65.9386 23.5C66.4729 24.3869 67.0061 25.2429 67.4798 26.1659C68.0112 25.3663 68.4988 24.4941 68.9681 23.6559L69.8618 22.1197C70.0016 21.903 70.1532 21.6316 70.3692 21.4836C70.5586 21.4818 70.8453 21.4412 71.0021 21.5583L71.0532 21.6485C71.1763 21.8929 71.0968 27.2763 71.0835 28H70.1762H64.8557H63.913ZM64.8557 28H70.1762L70.161 23.1449C69.4854 24.1387 68.9065 25.2271 68.2877 26.2594C68.1317 26.5199 67.9606 26.9443 67.7446 27.1491C67.6223 27.2651 67.5589 27.2552 67.4018 27.2515C67.1527 27.1077 67.1141 26.882 66.963 26.6622L64.8033 23.1823L64.8557 28Z" fill="white"/>
<path d="M39.6234 4.68479C39.9231 4.62363 40.2993 4.67475 40.6058 4.683C41.2702 4.70087 41.919 4.67663 42.5691 4.83739C43.016 5.61276 43.3175 6.38687 43.6835 7.19566L45.2467 10.6293L45.9795 12.3922C44.9944 12.5271 43.9546 12.476 42.9609 12.477C42.7504 12.1715 42.6601 11.7917 42.5159 11.4519L41.3936 8.80697L41.0193 7.7726L39.0792 12.5192C38.9154 12.6151 38.577 12.5982 38.384 12.6118L36.1627 12.7156L36.0568 12.6087C36.0471 12.5616 36.0421 12.5101 36.051 12.4626C36.123 12.0828 36.411 11.6463 36.5644 11.2858L38.6469 6.56678C38.8809 6.05308 39.0581 5.51394 39.3208 5.01185C39.3951 4.86961 39.4885 4.77364 39.6234 4.68479Z" fill="white"/>
<path d="M85.838 4.68785L86.7722 4.65564C86.8992 5.49907 86.8061 6.48615 86.8403 7.34745L82.5492 7.30044C82.5816 7.90164 82.5949 13.7313 82.5072 13.8592L80.1502 13.6038C79.965 13.5867 79.5231 13.6116 79.3825 13.514C79.2458 12.525 79.3053 11.4867 79.3069 10.4892L79.3473 7.276C78.8235 7.3596 78.2566 7.31943 77.7244 7.32027L75.1003 7.30756C75.0341 6.79587 75.0612 6.24766 75.0591 5.73098C75.0581 5.49262 75.0273 5.18718 75.1024 4.96054C75.1337 4.86647 75.1841 4.79911 75.2712 4.75241C75.5569 4.59959 77.2236 4.70829 77.6321 4.70865L85.838 4.68785Z" fill="white"/>
<path d="M7.21978 4.54166C7.91623 4.49998 8.64925 4.46114 9.34326 4.54507C10.8102 4.72246 12.2277 5.31621 13.3372 6.28559C13.4593 6.39235 13.6639 6.50384 13.758 6.63098C13.7814 6.66249 13.8353 6.74798 13.8287 6.78325C13.817 6.84489 13.7929 6.90995 13.7501 6.95701C13.3861 7.35667 12.9104 7.70242 12.5146 8.07609C12.3467 8.23462 12.1155 8.54709 11.9263 8.65702C11.8315 8.71207 11.7557 8.57746 11.6909 8.5119C11.1814 7.99658 10.3456 7.49188 9.63484 7.32528C8.56045 7.07349 7.01479 7.14982 6.04699 7.75081C5.08856 8.34599 4.44486 9.16423 4.18746 10.2853C3.87111 11.6632 4.10456 12.8909 4.85427 14.0806C5.40588 14.9965 6.45022 15.277 7.33279 15.7576L3.16154 16.7168C2.04905 15.4884 1.22949 14.242 0.949747 12.5813C0.645161 10.7731 1.02094 8.91239 2.09286 7.41033C3.34159 5.66054 5.15534 4.88686 7.21978 4.54166Z" fill="white"/>
<path d="M99.2352 4.65344L102.233 4.73541L98.2619 11.337L97.4284 12.7113C97.3176 12.8954 97.1243 13.1424 97.0666 13.3465C97.0022 13.5746 97.0389 13.9202 97.0382 14.1592L97.0463 16.0447L93.9184 15.4551C93.8626 14.823 93.944 14.124 93.8222 13.5086C93.7434 13.1121 93.4436 12.7074 93.2402 12.362L91.7947 9.96447L88.7469 4.73073C89.5783 4.6775 90.7142 4.59187 91.5242 4.75305C91.6473 4.77757 91.8557 4.8084 91.9645 4.87029C92.3908 5.11294 92.7116 5.86243 92.948 6.28263L93.8031 7.73578L94.9322 9.55086C95.1701 9.94112 95.3626 10.337 95.6198 10.721L95.6266 10.7084L95.6365 10.6889C95.7127 10.5392 95.7448 10.3692 95.827 10.2146C96.4306 9.07793 97.1704 7.97048 97.8359 6.86648C98.2916 6.11055 98.6863 5.35101 99.2352 4.65344Z" fill="white"/>
<path d="M18.9294 4.68479C19.9807 4.63134 21.0744 4.70729 22.1297 4.70959L24.8148 4.73352C25.1585 4.74544 25.4912 4.71766 25.8346 4.76556C26.0827 4.80015 26.3078 4.89377 26.5473 4.95903C27.5336 5.22776 28.3394 5.57071 29.1518 6.21545C29.3587 6.3796 29.5089 6.63951 29.654 6.85744C30.1285 7.57027 30.3768 8.16323 30.4791 9.02201C30.6554 10.5032 30.2039 11.6907 29.2973 12.8409C29.1228 12.9559 28.9212 13.1032 28.7146 13.1459C28.0728 13.2787 27.3797 13.2235 26.7278 13.2846L20.586 13.8769C20.0111 13.9514 19.4715 13.9675 18.8949 14.082L18.8002 13.4231C18.6808 11.6984 18.783 9.89415 18.7834 8.16197L18.7848 6.06434C18.7851 5.69982 18.7511 5.28742 18.8045 4.9276C18.8181 4.83571 18.8695 4.75398 18.9294 4.68479ZM22.0285 7.29745L22.0311 10.3398C22.028 10.8274 22.0884 11.3865 21.9733 11.8587L22.0757 11.9531C23.4909 11.7696 25.3297 12.3583 26.523 11.3504C26.9386 10.9672 27.2709 10.431 27.2962 9.85037C27.3233 9.23164 27.2099 8.57323 26.7802 8.10667C26.2517 7.53304 25.6108 7.34829 24.8474 7.32064C23.9144 7.28681 22.9549 7.3976 22.0285 7.29745Z" fill="white"/>
<path d="M2.56831 17.2807C2.9443 17.0703 3.56674 17.0466 3.99556 16.9598L12.1554 15.6443L21.0649 14.6357C32.8611 13.5723 44.7578 13.282 56.5969 13.4371C66.6985 13.5695 76.82 14.0031 86.851 15.1813C87.2005 15.2223 87.5545 15.2005 87.9028 15.2431C88.2341 15.2836 88.5584 15.3727 88.8902 15.4143L91.9069 15.7644C92.1985 15.8038 92.4839 15.8896 92.7764 15.9246L96.4564 16.4885C96.6524 16.5264 96.8613 16.5004 97.0517 16.5548C97.9457 16.8106 102.715 17.5143 102.977 17.9891L102.893 18.0202C102.671 18.0896 102.195 17.9247 101.953 17.8878L99.194 17.5048C98.4735 17.413 97.7548 17.3908 97.0353 17.268L97.0397 18.1543L93.7914 18.2029C93.7682 17.7922 93.734 17.3814 93.7849 16.9715L85.9434 16.3822L83.5186 16.2513C83.1904 16.2305 82.8437 16.1472 82.5177 16.1602L82.5672 18.23L79.3502 18.23L79.3384 16.0152L71.0767 15.7202C71.2074 16.5153 71.1523 17.3696 71.1516 18.1749L67.8951 18.2446L67.9061 15.6091L61.6984 15.495C61.1164 15.4766 60.4416 15.5563 59.8752 15.4367C59.7234 15.6577 59.6563 15.9608 59.5556 16.2103C59.2896 16.8691 59.0193 17.5786 58.6076 18.1588C57.6156 18.2306 56.5815 18.1021 55.6001 18.2328L54.4243 15.3829L47.3561 15.4653C47.877 16.3277 48.1635 17.3174 48.6111 18.214C47.8283 18.1592 47.0485 18.1925 46.2641 18.196C45.9589 18.1974 45.5289 18.2507 45.2415 18.1553L44.1242 15.4461L37.7707 15.5325C37.5054 16.4079 37.1409 17.3427 36.7173 18.1521C36.0865 18.1984 35.4615 18.1823 34.8296 18.1881C34.3966 18.192 33.9351 18.2324 33.5078 18.1756L34.5808 15.6379L29.0605 15.7781L30.0069 17.0725C30.2151 17.3851 30.3964 17.7405 30.6445 18.0217L30.5809 18.1376C29.9376 18.3149 28.9504 18.1958 28.2685 18.1865C27.9915 18.1827 27.6033 18.2019 27.3573 18.0582C27.1856 17.958 27.0583 17.7317 26.9415 17.5728L26.0739 16.3292L25.8508 15.9345C25.8487 15.9303 25.8198 15.8725 25.8198 15.8725C25.738 15.8438 25.2659 15.9606 25.1462 15.9702C24.1176 16.0522 23.0087 16.1564 21.9829 16.1135C22.0799 16.8058 22.0448 17.5306 22.0446 18.2293C21.2898 18.1772 20.5324 18.1771 19.7763 18.1971C19.5757 18.2024 18.9697 18.2838 18.814 18.1844C18.7786 17.5915 18.7593 16.8889 18.8608 16.3043L15.0205 16.5327C14.5901 16.5637 14.0766 16.5206 13.6627 16.6453C13.3049 16.7532 12.9465 17.041 12.6164 17.2189C11.5733 17.7812 10.3965 18.2468 9.20557 18.3609C7.84187 18.4916 6.65426 18.3218 5.36118 17.8997C5.01853 17.7878 4.59357 17.5578 4.24589 17.5113C3.93323 17.4695 3.59447 17.5946 3.27743 17.5945L-0.000366211 18.1118V17.871L2.56831 17.2807Z" fill="white"/>
</g>
<defs>
<clipPath id="clip0_450_1170">
<rect width="103.304" height="24" fill="white" transform="translate(0 4)"/>
</clipPath>
</defs>
</svg>
