<svg width="150" height="33" viewBox="0 0 150 33" fill="none" xmlns="http://www.w3.org/2000/svg">
<g clip-path="url(#clip0_756_1964)">
<path fill-rule="evenodd" clip-rule="evenodd" d="M18.2771 23.0673C16.9735 23.8718 15.4288 24.3374 13.7729 24.3374C12.0549 24.3374 10.457 23.8364 9.12358 22.9758L5.54482 26.4713C7.81855 28.193 10.6732 29.2178 13.7729 29.2178C16.8114 29.2178 19.6143 28.2331 21.8656 26.5723L18.2771 23.0673ZM24.5501 23.9357C26.2231 21.7468 27.2136 19.0312 27.2136 16.0896C27.2136 13.0621 26.1643 10.2738 24.4016 8.053L20.8229 11.5485C21.704 12.8509 22.217 14.4118 22.217 16.0896C22.217 17.6805 21.7558 19.1662 20.9569 20.4261L24.5501 23.9357ZM9.33306 9.07261C10.623 8.29229 12.1441 7.84186 13.7729 7.84186C15.3395 7.84186 16.8064 8.25857 18.0639 8.98473L21.6683 5.46412C19.4515 3.88994 16.7232 2.96143 13.7729 2.96143C10.7612 2.96143 7.98088 3.9289 5.73992 5.56302L9.33306 9.07261ZM6.62904 11.6901L3.04053 8.18506C1.3403 10.3839 0.332031 13.1218 0.332031 16.0896C0.332031 18.9714 1.28265 21.6363 2.89431 23.8015L6.49871 20.2809C5.75529 19.0527 5.32867 17.6198 5.32867 16.0896C5.32867 14.4722 5.80537 12.9633 6.62904 11.6901Z" fill="#EAECF9"/>
<path d="M41.1758 15.194C41.1758 12.8112 41.7862 10.9799 43.0269 9.68017C44.2675 8.36078 45.9216 7.71094 47.9499 7.71094C49.5844 7.71094 50.9629 8.12448 52.0853 8.95155C53.2078 9.75894 53.897 10.842 54.1136 12.1614H51.8884C51.5142 10.6057 49.9979 9.62109 48.009 9.62109C46.6502 9.62109 45.5475 10.0346 44.7007 10.842C43.8539 11.6494 43.4404 12.7325 43.4404 14.0519V16.2968C43.4404 17.5768 43.8342 18.6008 44.6416 19.4082C45.449 20.2156 46.4927 20.6094 47.8121 20.6094C49.0724 20.6094 50.0964 20.2156 50.9038 19.4476C51.7112 18.6796 52.1247 17.6359 52.1444 16.3559H47.3001V14.5639H54.5272V22.2439H52.7746L52.5776 19.8808H52.4398C51.4749 21.5546 49.6632 22.4408 47.4773 22.4408C45.5081 22.4408 43.9721 21.7909 42.8496 20.4912C41.7272 19.1916 41.1758 17.4192 41.1758 15.194ZM55.3514 7.88817H66.1428V9.79832H61.8105V22.2439H59.6838V9.79832H55.3514V7.88817ZM74.7505 22.2439H72.604V7.88817H78.9647C81.9776 7.88817 83.5527 9.6014 83.5527 12.5159C83.5527 15.4303 81.9382 17.1436 78.9647 17.1436H74.7505V22.2439ZM74.7505 9.8574V15.3122H78.8071C80.3825 15.3122 81.2884 14.4654 81.2884 13.1854V11.8266C81.2884 10.5663 80.4022 9.8574 78.9844 9.8574H74.7505ZM87.4854 11.8857H91.0694V13.5792H87.7217V22.2439H85.6934V13.658C85.6934 12.634 86.0676 11.8857 87.4854 11.8857ZM91.675 17.0648C91.675 15.3909 92.1279 14.0912 93.0337 13.1263C93.9396 12.1614 95.1605 11.6888 96.6965 11.6888C98.1931 11.6888 99.3944 12.1614 100.32 13.1263C101.245 14.0716 101.718 15.3909 101.718 17.0648C101.718 18.6992 101.265 20.0186 100.379 20.9836C99.4928 21.9485 98.2522 22.4408 96.6965 22.4408C95.1408 22.4408 93.9199 21.9682 93.0141 21.0032C92.1279 20.0383 91.675 18.7189 91.675 17.0648ZM93.7427 16.2968V17.9116C93.7427 19.7232 94.9833 20.7472 96.6965 20.7472C98.4097 20.7472 99.6307 19.7036 99.6307 17.9116V16.2968C99.6307 14.5442 98.4097 13.402 96.6965 13.402C94.9439 13.402 93.7427 14.5442 93.7427 16.2968ZM108.765 13.5792H106.618V20.5897H108.765V22.2439H106.323C105.181 22.2439 104.61 21.6925 104.61 20.57V13.5792H102.739V11.8857H104.61V8.51832H106.618V11.8857H108.765V13.5792ZM110.214 17.0648C110.214 15.3909 110.667 14.0912 111.572 13.1263C112.478 12.1614 113.699 11.6888 115.235 11.6888C116.732 11.6888 117.933 12.1614 118.859 13.1263C119.784 14.0716 120.257 15.3909 120.257 17.0648C120.257 18.6992 119.804 20.0186 118.918 20.9836C118.031 21.9485 116.791 22.4408 115.235 22.4408C113.679 22.4408 112.459 21.9682 111.553 21.0032C110.667 20.0383 110.214 18.7189 110.214 17.0648ZM112.281 16.2968V17.9116C112.281 19.7232 113.522 20.7472 115.235 20.7472C116.948 20.7472 118.169 19.7036 118.169 17.9116V16.2968C118.169 14.5442 116.948 13.402 115.235 13.402C113.483 13.402 112.281 14.5442 112.281 16.2968ZM129.642 18.6402H131.65C131.335 21.0032 129.563 22.4408 126.983 22.4408C125.428 22.4408 124.226 21.9682 123.34 21.0032C122.474 20.0383 122.041 18.7189 122.041 17.0845C122.041 15.3909 122.493 14.0716 123.399 13.1263C124.325 12.1614 125.526 11.6888 127.042 11.6888C129.504 11.6888 131.296 13.146 131.631 15.3712H129.602C129.287 14.0519 128.303 13.402 126.964 13.402C125.231 13.402 124.108 14.6032 124.108 16.3362V17.9509C124.108 19.6642 125.25 20.7472 126.964 20.7472C128.401 20.7472 129.405 19.9596 129.642 18.6402ZM133.195 17.0648C133.195 15.3909 133.647 14.0912 134.553 13.1263C135.459 12.1614 136.68 11.6888 138.216 11.6888C139.713 11.6888 140.914 12.1614 141.839 13.1263C142.765 14.0716 143.238 15.3909 143.238 17.0648C143.238 18.6992 142.785 20.0186 141.899 20.9836C141.012 21.9485 139.772 22.4408 138.216 22.4408C136.66 22.4408 135.439 21.9682 134.534 21.0032C133.647 20.0383 133.195 18.7189 133.195 17.0648ZM135.262 16.2968V17.9116C135.262 19.7232 136.503 20.7472 138.216 20.7472C139.929 20.7472 141.15 19.7036 141.15 17.9116V16.2968C141.15 14.5442 139.929 13.402 138.216 13.402C136.463 13.402 135.262 14.5442 135.262 16.2968ZM147.626 22.2439H145.617V7.75032H147.626V22.2439Z" fill="#EAECF9"/>
</g>
<defs>
<clipPath id="clip0_756_1964">
<rect width="149.333" height="32" fill="white" transform="translate(0.332031 0.5)"/>
</clipPath>
</defs>
</svg>
