<svg width="163" height="32" viewBox="0 0 163 32" fill="none" xmlns="http://www.w3.org/2000/svg">
<g clip-path="url(#clip0_7105_38135)">
<path d="M18.7718 2.5H18.6609C18.5943 2.50001 18.528 2.50889 18.4638 2.5264L0.822951 7.37354C0.666259 7.41698 0.528098 7.51052 0.429574 7.63987C0.33105 7.76923 0.277585 7.92728 0.277344 8.08988C0.277585 8.25248 0.33105 8.41053 0.429574 8.53988C0.528098 8.66924 0.666259 8.76277 0.822951 8.80621L11.7 11.7983L18.462 13.6551C18.5263 13.6726 18.5926 13.6815 18.6592 13.6815H18.77C18.8361 13.6816 18.9018 13.6727 18.9654 13.6551L25.7292 11.7983L36.6062 8.80621C36.7629 8.76277 36.9011 8.66924 36.9996 8.53988C37.0981 8.41053 37.1516 8.25248 37.1519 8.08988C37.1516 7.92728 37.0981 7.76923 36.9996 7.63987C36.9011 7.51052 36.7629 7.41698 36.6062 7.37354L18.9672 2.5264C18.9035 2.50877 18.8378 2.49989 18.7718 2.5Z" fill="white"/>
<path d="M18.9601 15.0903H18.4708C18.4048 15.0903 18.3391 15.0814 18.2755 15.0639L9.25177 12.584C9.1227 12.5488 8.98658 12.5488 8.85752 12.584L0.822951 14.7911C0.666259 14.8345 0.528099 14.9281 0.429574 15.0574C0.33105 15.1868 0.277585 15.3448 0.277344 15.5074C0.277384 15.6699 0.330802 15.8278 0.429386 15.9569C0.52797 16.086 0.666252 16.1792 0.822951 16.222L11.707 19.2141L18.4638 21.0709C18.528 21.0884 18.5943 21.0973 18.6609 21.0973H18.7718C18.8378 21.0974 18.9035 21.0885 18.9672 21.0709L25.7257 19.2141L36.6098 16.222C36.7665 16.1792 36.9048 16.086 37.0033 15.9569C37.1019 15.8278 37.1553 15.6699 37.1554 15.5074C37.1551 15.3448 37.1017 15.1868 37.0032 15.0574C36.9046 14.9281 36.7665 14.8345 36.6098 14.7911L28.5734 12.584C28.445 12.5488 28.3094 12.5488 28.181 12.584L19.1573 15.0639C19.093 15.0815 19.0267 15.0904 18.9601 15.0903Z" fill="white"/>
<path d="M18.9601 22.4909H18.4708C18.4048 22.4909 18.3391 22.482 18.2755 22.4645L9.25529 19.9863C9.12622 19.9512 8.9901 19.9512 8.86104 19.9863L0.822951 22.1952C0.666252 22.238 0.52797 22.3312 0.429386 22.4603C0.330802 22.5894 0.277384 22.7473 0.277344 22.9098C0.277585 23.0724 0.33105 23.2304 0.429574 23.3598C0.528099 23.4891 0.666259 23.5827 0.822951 23.6261L18.4638 28.4732C18.528 28.4907 18.5943 28.4996 18.6609 28.4996H18.7718C18.8378 28.4998 18.9035 28.4909 18.9672 28.4732L36.6098 23.6261C36.7665 23.5827 36.9046 23.4891 37.0032 23.3598C37.1017 23.2304 37.1551 23.0724 37.1554 22.9098C37.1553 22.7473 37.1019 22.5894 37.0033 22.4603C36.9048 22.3312 36.7665 22.238 36.6098 22.1952L28.5717 19.9863C28.4426 19.9512 28.3065 19.9512 28.1774 19.9863L19.1573 22.4645C19.093 22.4821 19.0267 22.491 18.9601 22.4909Z" fill="white"/>
<path d="M46.7188 25.4329L46.7205 6.23438H51.3529V13.8237H59.7325V6.23614H64.3649L64.3631 25.4346H59.7307L59.7325 17.5725L51.3512 17.5708V25.4329H46.7188Z" fill="white"/>
<path d="M79.5417 20.6537C78.8377 23.7302 76.4317 25.8036 72.8976 25.8036C68.6013 25.8036 65.5547 23.1811 65.5547 18.8849C65.5547 14.6185 68.6629 11.5402 72.8078 11.542C77.2871 11.542 79.6332 14.6203 79.6332 18.3076V19.647H69.8808C70.0023 21.444 71.3434 22.4806 73.0489 22.4806C74.5713 22.4806 75.513 21.9016 76.004 20.6537H79.5417ZM75.3968 17.3008C75.3053 15.9597 74.4534 14.7417 72.7761 14.7417C71.0161 14.7417 70.1871 15.8682 69.9425 17.3008H75.3968Z" fill="white"/>
<path d="M101.537 25.4377V10.0497H94.8633V6.23926H112.904V10.048H106.14V25.4377H101.537Z" fill="white"/>
<path d="M120.311 16.2096C119.607 15.8118 118.94 15.6605 117.995 15.6605C116.166 15.6605 114.946 16.6954 114.946 19.0415V25.441H110.559V11.9116H114.95V14.3757C115.467 12.8532 116.87 11.542 118.697 11.542C119.521 11.542 120.221 11.7866 120.587 12.0911L120.311 16.2096Z" fill="white"/>
<path d="M130.915 11.9217H135.334V25.4511H130.916V23.3408C130.184 24.8632 128.66 25.8049 126.618 25.8049C122.963 25.8049 121.805 23.3056 121.805 20.4104V11.9111H126.192V19.3455C126.192 21.2657 126.833 22.3376 128.447 22.3376C130.093 22.3376 130.911 20.9665 130.911 18.8034L130.915 11.9217Z" fill="white"/>
<path d="M140.423 20.9324C140.599 22.2436 141.643 22.974 143.289 22.974C144.477 22.974 145.269 22.5481 145.269 21.8177C145.269 21.1471 144.843 20.781 143.744 20.598L141.673 20.2618C138.565 19.7743 136.889 18.7077 136.889 16.0254C136.889 13.4047 139.177 11.5461 142.801 11.5479C146.641 11.5479 148.926 13.2551 149.201 16.1486L145.575 16.27C145.36 15.082 144.417 14.4114 142.739 14.4114C141.643 14.4114 140.979 14.869 140.979 15.5995C140.979 16.1486 141.407 16.4795 142.076 16.5745L144.695 17.0251C147.652 17.4827 149.357 18.7851 149.357 21.3829C149.357 24.2166 146.949 25.8024 143.262 25.8024C139.605 25.8024 136.833 24.3081 136.59 21.0168L140.423 20.9324Z" fill="white"/>
<path d="M88.9975 17.7699L93.4997 11.9072H88.9289L86.7852 14.8306L88.9975 17.7699Z" fill="white"/>
<path d="M91.0143 21.5741V21.5759L88.5555 18.3374L86.3326 15.4422L83.8034 11.908L78.8964 11.9062L83.8333 18.5205L78.4688 25.4374H83.0396L86.058 21.4157L89.043 25.4374H93.95L91.0143 21.5741Z" fill="white"/>
<path d="M158.218 22.275C157.182 22.275 156.634 21.7875 156.634 20.6294V14.9973V11.9208V8.17188H153.922L153.465 9.97063C153.13 11.2203 152.734 11.9208 151.393 12.1636L150.418 12.3168V14.9973H152.306V21.8245C152.306 24.8711 154.287 25.8162 156.481 25.8162C158.241 25.8162 159.406 25.3903 160.411 24.6282V21.7259C159.59 22.092 158.889 22.275 158.218 22.275Z" fill="white"/>
<path d="M160.234 11.9131H157.402V14.9914H160.234V11.9131Z" fill="white"/>
</g>
<defs>
<clipPath id="clip0_7105_38135">
<rect width="162.09" height="32" fill="white" transform="translate(0.0703125)"/>
</clipPath>
</defs>
</svg>
