<svg width="100" height="32" viewBox="0 0 100 32" fill="none" xmlns="http://www.w3.org/2000/svg">
<path d="M7.41016 10.6982L11.4414 3.69442C11.7005 3.26433 12.15 3 12.6521 3H20.9553C21.4575 3 21.9069 3.26433 22.1489 3.69442C22.408 4.12017 22.408 4.65642 22.1489 5.08217L18.4123 11.5984L22.1489 18.1147C22.408 18.5405 22.408 19.0767 22.1489 19.5025C21.9069 19.9282 21.4575 20.1915 20.9553 20.1969H16.1467V20.0333C16.1295 19.8708 16.0951 19.7072 16.0596 19.549C16.008 19.4136 15.9564 19.2825 15.9048 19.1558C15.8543 19.0745 15.8016 18.9944 15.7489 18.9142C15.7489 18.899 15.7317 18.8817 15.7145 18.8644L15.7317 18.8817L11.6833 11.8487C11.6661 11.8053 11.6317 11.7631 11.5973 11.7197C11.5274 11.6157 11.4586 11.5172 11.3725 11.4229C11.0897 11.1207 10.7317 10.8997 10.3338 10.7859C10.179 10.7447 10.0403 10.7166 9.88435 10.7047C9.83274 10.7003 9.78113 10.6982 9.72844 10.6982H7.41016Z" fill="white"/>
<path d="M3.93522 20.2176L0.181452 13.7013C-0.060484 13.2713 -0.060484 12.7447 0.181452 12.3136C0.440591 11.8835 0.890054 11.6191 1.39221 11.6191H9.69543C10.1793 11.6191 10.647 11.8835 10.8889 12.3136L14.9545 19.3845C14.9889 19.4268 15.0233 19.4701 15.0406 19.5145C15.1793 19.7323 15.2309 19.9749 15.2309 20.2176C15.2309 20.4603 15.1793 20.704 15.0406 20.9207C15.0233 20.9662 14.9889 21.0095 14.9545 21.0507L10.8889 28.1216C10.647 28.5528 10.1793 28.816 9.69543 28.816H1.39221C0.890054 28.816 0.440591 28.5528 0.181452 28.1216C-0.060484 27.6915 -0.060484 27.165 0.181452 26.7338L3.93522 20.2176Z" fill="white"/>
<path d="M47.963 22.5865C47.963 22.9094 47.9276 23.1 47.8405 23.1759C47.7544 23.2517 47.563 23.2896 47.2329 23.2896H45.2179C44.905 23.2896 44.6964 23.2517 44.6093 23.1759C44.505 23.1 44.4706 22.9094 44.4706 22.5865V17.4374H40.4394V22.5865C40.4394 22.9094 40.405 23.1 40.3179 23.1759C40.2308 23.2517 40.0222 23.2896 39.7093 23.2896H37.6415C37.3297 23.2896 37.1383 23.2517 37.0512 23.1759C36.9824 23.1 36.9297 22.9094 36.9297 22.5865V9.2485C36.9297 8.92566 36.9824 8.735 37.0684 8.65916C37.1555 8.58333 37.3469 8.54541 37.677 8.54541H39.7093C40.0222 8.54541 40.2308 8.58333 40.3179 8.65916C40.405 8.735 40.4394 8.92566 40.4394 9.2485V14.3402H44.4706V9.2485C44.4706 8.92566 44.505 8.735 44.5921 8.65916C44.6792 8.58333 44.8695 8.54541 45.1996 8.54541H47.2329C47.563 8.54541 47.7544 8.58333 47.8405 8.65916C47.9276 8.735 47.963 8.92566 47.963 9.2485V22.5865ZM53.8136 18.6789C53.8136 19.161 53.8491 19.5001 53.8856 19.7319C53.9394 19.9649 54.0458 20.1609 54.2071 20.3039C54.4039 20.5174 54.7071 20.6073 55.0996 20.6073H55.1888C55.5996 20.6073 55.8856 20.5174 56.0824 20.3039C56.2426 20.1609 56.3501 19.9649 56.4039 19.7319C56.4566 19.5001 56.4749 19.161 56.4749 18.6789V17.0193C56.4749 16.5372 56.4577 16.1797 56.4039 15.9663C56.3501 15.7344 56.2426 15.5373 56.0824 15.3769C55.8856 15.1809 55.5996 15.0909 55.1888 15.0909H55.0996C54.7071 15.0909 54.4028 15.1809 54.2071 15.3769C54.0458 15.5373 53.9394 15.7344 53.8856 15.9663C53.8491 16.1797 53.8136 16.5372 53.8136 17.0193V18.6789ZM59.9222 18.5359C59.9222 19.0722 59.9039 19.5543 59.8501 19.9649C59.7792 20.3754 59.6899 20.7319 59.5824 21.0536C59.4824 21.3385 59.3437 21.6083 59.1716 21.8564C59.0028 22.0784 58.805 22.2767 58.5824 22.4457C58.2609 22.6959 57.8329 22.892 57.2792 23.0524C56.7071 23.2127 56.0469 23.2842 55.2781 23.2842H55.0286C54.2426 23.2842 53.5813 23.2138 53.0276 23.0524C52.4749 22.892 52.0276 22.6959 51.7243 22.4457C51.4921 22.2854 51.2953 22.0709 51.1351 21.8564C50.9738 21.6245 50.8308 21.3569 50.706 21.0536C50.5878 20.6994 50.5039 20.3343 50.4566 19.9649C50.3953 19.4904 50.3663 19.0137 50.3673 18.5359V17.1623C50.3673 16.626 50.4028 16.1439 50.4566 15.7344C50.5093 15.3054 50.5985 14.9479 50.706 14.6446C50.8308 14.3413 50.9738 14.0737 51.1351 13.8419C51.2953 13.61 51.4921 13.4129 51.7243 13.2352C52.0276 13.0023 52.4738 12.8062 53.0276 12.6458C53.5813 12.4855 54.2426 12.414 55.0286 12.414H55.2781C56.0469 12.414 56.7071 12.4855 57.2792 12.6458C57.8329 12.8062 58.2609 13.0023 58.5824 13.2352C58.7974 13.4129 59.0114 13.61 59.1716 13.8419C59.3437 14.0899 59.4824 14.3597 59.5824 14.6446C59.6899 14.9479 59.7792 15.3054 59.8501 15.716C59.9039 16.1266 59.9222 16.5903 59.9222 17.1439V18.5359ZM66.3276 20.4513C66.5405 20.4513 66.7007 20.5054 66.7899 20.6138C66.8964 20.7048 66.9319 20.903 66.9319 21.1934V22.5497C66.9319 22.8389 66.8964 23.0199 66.7899 23.1282C66.7007 23.2365 66.5405 23.2734 66.3276 23.2734H64.6899C63.6405 23.2734 62.8749 23.074 62.448 22.6396C62.2168 22.4229 62.0383 22.1337 61.9501 21.7903C61.8609 21.4458 61.8254 21.0124 61.8254 20.4513V9.21816C61.8254 9.01991 61.8609 8.85741 61.9673 8.748C62.0738 8.63966 62.2523 8.5855 62.5372 8.5855H64.5125C64.7974 8.5855 64.9931 8.63966 65.0813 8.748C65.1888 8.85741 65.2415 9.01991 65.2415 9.21816V20.0537C65.2415 20.1978 65.2598 20.3072 65.3125 20.3614C65.3845 20.4329 65.4727 20.4513 65.6329 20.4513H66.3276Z" fill="white"/>
<path d="M66.291 20.4396C66.505 20.4396 66.6663 20.4949 66.7555 20.6032C66.863 20.6942 66.8985 20.8935 66.8985 21.1849V22.5467C66.8985 22.837 66.863 23.0179 66.7555 23.1274C66.6663 23.2368 66.505 23.2725 66.291 23.2725H64.6469C63.5921 23.2725 62.8233 23.0732 62.3942 22.6377C62.162 22.4189 61.9835 22.1285 61.8942 21.784C61.805 21.4384 61.7695 21.0029 61.7695 20.4396V9.16424C61.7695 8.96382 61.805 8.80024 61.9125 8.69191C62.019 8.58249 62.1985 8.52832 62.4835 8.52832H64.4673C64.7534 8.52832 64.9501 8.58249 65.0394 8.69191C65.1469 8.80024 65.2007 8.96382 65.2007 9.16424V20.0409C65.2007 20.1861 65.2179 20.2944 65.2716 20.3497C65.3437 20.4223 65.4329 20.4396 65.5942 20.4396H66.291ZM74.1749 16.5905C74.1749 16.2514 74.1394 16.0196 74.1039 15.8593C74.0684 15.6989 73.9974 15.5559 73.9093 15.4487C73.7319 15.2169 73.3953 15.1096 72.9179 15.1096H72.705C72.2448 15.1096 71.9265 15.2342 71.7136 15.466C71.5899 15.6274 71.5018 15.8409 71.4663 16.1442C71.4491 16.4302 71.4308 16.8765 71.4308 17.4832V18.43C71.4308 18.9652 71.4491 19.3758 71.4845 19.6618C71.519 19.9294 71.6082 20.1612 71.7491 20.3042C71.9093 20.5176 72.2448 20.6075 72.7233 20.6075H72.9534C73.3598 20.6075 73.6792 20.5176 73.8738 20.3215C74.0684 20.1254 74.1749 19.7864 74.1749 19.3043V16.5905ZM74.1749 12.7891V9.14799C74.1749 8.95082 74.2104 8.80782 74.3157 8.70166C74.405 8.59441 74.5996 8.54024 74.8824 8.54024H76.8652C77.148 8.54024 77.3437 8.59441 77.4319 8.70057C77.52 8.80782 77.5555 8.95082 77.5555 9.14691V18.9652C77.5555 19.8048 77.4845 20.4645 77.3609 20.9293C77.219 21.4114 77.0071 21.7851 76.7415 22.0895C76.3523 22.5001 75.8738 22.8034 75.3071 22.9995C74.7233 23.1956 73.9265 23.2855 72.8996 23.2855H72.5286C71.6254 23.2855 70.9179 23.214 70.4039 23.0353C69.891 22.8749 69.4663 22.642 69.1125 22.3214C68.705 21.9823 68.4394 21.5002 68.262 20.8935C68.0856 20.2858 68.0147 19.5545 68.0147 18.6976V16.9838C68.0147 16.1095 68.0856 15.3772 68.2265 14.8236C68.3867 14.2527 68.6512 13.7706 69.0587 13.3958C69.3598 13.1098 69.7673 12.8779 70.2448 12.6818C70.7405 12.5031 71.2888 12.4142 71.891 12.4142H72.1394C72.5641 12.4142 72.9351 12.45 73.2716 12.5215C73.591 12.593 73.8738 12.6818 74.1211 12.7891H74.1749ZM84.8727 20.5176C85.2286 20.5176 85.62 20.5003 86.0652 20.4472C86.5093 20.3757 86.8652 20.3215 87.1501 20.25C87.2039 20.2327 87.2577 20.2143 87.3286 20.1969C87.3996 20.1969 87.4706 20.1785 87.5415 20.1785C87.7555 20.1785 87.8974 20.3042 87.934 20.5534L88.0932 21.6074C88.1297 21.732 88.1469 21.8393 88.1652 21.9465C88.1824 22.0354 88.1824 22.1242 88.1824 22.1957C88.1824 22.3387 88.1469 22.4459 88.0759 22.5359C88.005 22.6247 87.862 22.6962 87.6308 22.7677C87.2039 22.928 86.6878 23.0526 86.1007 23.1425C85.4953 23.2487 84.9437 23.2844 84.4104 23.2844H84.0007C83.1469 23.2844 82.3996 23.1956 81.777 23.0169C81.1534 22.8392 80.6555 22.5705 80.2813 22.1957C79.8544 21.7678 79.5695 21.2673 79.4276 20.679C79.2856 20.1081 79.2136 19.3758 79.2136 18.5015V17.3044C79.2136 16.2341 79.3383 15.3945 79.5878 14.7879C79.819 14.1639 80.1211 13.6991 80.4953 13.3774C81.2254 12.7176 82.3458 12.4142 83.8587 12.4142H84.1437C84.9265 12.4142 85.5845 12.5031 86.1362 12.6992C86.6706 12.8963 87.0974 13.1455 87.3824 13.4846C87.7372 13.8952 88.005 14.3957 88.1652 15.0024C88.3254 15.609 88.3964 16.3771 88.3964 17.3044V18.43C88.3964 18.6619 88.3609 18.8049 88.2534 18.8937C88.1469 18.9825 88.005 19.0183 87.791 19.0183H82.6663V19.197C82.6663 19.6964 82.791 20.0366 83.0931 20.2327C83.3781 20.4288 83.8942 20.5187 84.6415 20.5187L84.8727 20.5176ZM84.9974 16.805C85.1749 16.805 85.2641 16.6978 85.2641 16.5201V16.1799C85.2641 15.752 85.1931 15.4129 85.0501 15.1984C84.8727 14.9309 84.5523 14.8063 84.0716 14.8063H83.8759C83.4673 14.8063 83.1641 14.8951 82.9867 15.1096C82.7555 15.3414 82.6663 15.7347 82.6663 16.2514V16.805H84.9974ZM93.1125 22.7287C93.005 22.9876 92.8975 23.1349 92.8071 23.1913C92.7168 23.2649 92.519 23.2834 92.2319 23.2834H89.8222C89.5706 23.2834 89.4276 23.2281 89.3727 23.0797C89.3007 22.9324 89.3372 22.7655 89.4448 22.5619L91.6566 18.2134C91.7104 18.0844 91.7469 17.9913 91.7641 17.9544C91.7641 17.8992 91.7824 17.8439 91.7824 17.7703C91.7824 17.6955 91.7641 17.6219 91.7641 17.5666C91.7469 17.5103 91.7104 17.4366 91.6566 17.3445L89.5706 13.1444C89.463 12.9407 89.4448 12.7555 89.4996 12.6255C89.5534 12.4782 89.6964 12.4034 89.948 12.4034H92.3577C92.6448 12.4034 92.8426 12.4402 92.9512 12.4966C93.0405 12.5518 93.1491 12.7187 93.2566 12.9592L94.4071 16.0304C94.4426 16.0857 94.4975 16.1225 94.5695 16.1225H94.5867C94.6587 16.1225 94.7125 16.0857 94.7308 16.0304L95.8996 12.9592C96.0071 12.7187 96.0975 12.5518 96.205 12.4966C96.2953 12.4413 96.4931 12.4034 96.7802 12.4034H99.2071C99.4415 12.4034 99.6028 12.4782 99.6566 12.6255C99.7104 12.7555 99.6931 12.9407 99.5673 13.1444L97.4996 17.3445C97.4458 17.455 97.4093 17.5471 97.3921 17.5839C97.3738 17.6403 97.3738 17.7139 97.3738 17.7876C97.3738 17.8624 97.3738 17.9176 97.3921 17.9729C97.4093 18.0281 97.4458 18.1029 97.4996 18.2134L99.6931 22.5619C99.819 22.7655 99.8362 22.9313 99.7824 23.0797C99.7286 23.2281 99.5845 23.2834 99.3329 23.2834H96.9243C96.6362 23.2834 96.4383 23.2649 96.3491 23.1902C96.2405 23.1349 96.1512 22.9876 96.0254 22.7287L94.7308 19.6011C94.7125 19.5459 94.6587 19.509 94.5867 19.509H94.5695C94.4975 19.509 94.4426 19.5459 94.4071 19.6011L93.1125 22.7287Z" fill="white"/>
</svg>
