<svg width="143" height="32" viewBox="0 0 143 32" fill="none" xmlns="http://www.w3.org/2000/svg">
<g clip-path="url(#clip0_449_1027)">
<path d="M14.3544 16.4648L14.5575 16.4645L14.5895 23.4265L12.2728 23.4313C12.1954 23.4238 12.118 23.3842 12.0463 23.3546L11.9875 17.884L14.3544 16.4648Z" fill="#FEFEFE"/>
<path d="M122.176 16.4648H122.392L122.408 23.4234L120.071 23.4318L119.857 23.3694C119.723 22.575 119.807 21.6597 119.806 20.8524C119.804 19.8759 119.73 18.8193 119.837 17.8495L122.176 16.4648Z" fill="#FEFEFE"/>
<path d="M85.1119 8.62913L88.013 8.61938C88.0132 9.98508 88.1206 22.9797 87.9725 23.2399L87.9151 23.3299C87.6784 23.3949 87.3296 23.3445 87.0763 23.3446L85.1282 23.3601C85.0462 22.6914 85.0898 21.9874 85.0891 21.3141L85.0867 17.7573L85.1119 8.62913Z" fill="#FEFEFE"/>
<path d="M92.3384 8.67011C92.6269 8.6033 92.9911 8.6445 93.2915 8.64381L95.2101 8.6436L100.786 8.64639L104.257 8.60925L104.258 11.2101L99.7137 11.2114L99.7198 18.8247L99.7067 23.3147C99.5467 23.4014 99.1267 23.3453 98.9349 23.3442L96.8109 23.361L96.8046 11.2166L92.2567 11.2248L92.233 9.35594C92.2349 9.17808 92.2032 8.91627 92.2851 8.76056L92.3384 8.67011Z" fill="#FEFEFE"/>
<path d="M19.0793 8.64338L21.9136 8.67582C22.4926 9.34251 22.9103 10.2786 23.3485 11.0474L25.9235 15.4411L29.7877 8.68829C30.1315 8.61137 30.5143 8.64326 30.8653 8.6426L32.6902 8.64273L29.8537 13.9334L28.0853 17.1976C27.8815 17.5742 27.5072 18.0881 27.4153 18.499C27.326 18.898 27.3935 19.4722 27.3934 19.8909L27.3862 23.3337C26.489 23.4508 25.4357 23.3512 24.521 23.359C24.4426 22.2733 24.5099 21.1408 24.5092 20.0502C24.5087 19.5981 24.5497 19.0807 24.4601 18.6385C24.3493 18.0901 23.8042 17.3792 23.5244 16.8631L20.9498 12.1661C20.309 11.0185 19.5884 9.85266 19.0793 8.64338Z" fill="#FEFEFE"/>
<path d="M0.194932 8.54041L2.65577 8.56625L2.63987 13.7903L3.88471 14.5061L7.32623 12.5145L10.8081 14.5064L12.0248 13.7969L12.0324 8.63849C12.2867 8.48191 14.1761 8.56451 14.5852 8.55901L14.5946 15.2378L8.97538 18.4755L7.32338 19.4269L4.80997 17.9651C5.11459 17.7111 5.53142 17.5186 5.87534 17.3184L8.23708 15.9492L7.34516 15.4277L2.65382 18.1395L2.6548 23.4238L0.199732 23.4365L0.190162 16.6311C0.501457 16.3683 0.963577 16.1874 1.31608 15.9668C1.04384 15.715 0.558112 15.5197 0.228022 15.3352C0.102952 14.4676 0.167212 13.5346 0.166612 12.6585L0.194932 8.54041Z" fill="#FEFEFE"/>
<path d="M107.923 8.56253L110.504 8.5657L110.488 13.8388L111.711 14.5037L115.13 12.5219L117.278 13.7275C117.722 13.991 118.16 14.298 118.636 14.4995L119.826 13.8051L119.827 8.5789L122.407 8.5592L122.412 15.2247L116.857 18.4416L115.135 19.426L112.627 17.9461L116.082 15.9398C115.75 15.7994 115.45 15.6161 115.144 15.4294C113.931 16.2189 112.602 16.8695 111.354 17.6048C111.244 17.6699 110.54 18.048 110.507 18.1255C110.457 18.2402 110.512 18.6886 110.513 18.8459L110.51 22.2205C110.509 22.5304 110.576 23.146 110.454 23.4206L107.951 23.431C107.85 22.6141 107.899 21.7633 107.897 20.9393L107.895 16.7027L109.168 15.9494L107.963 15.3026C107.846 14.3679 107.896 13.395 107.895 12.4541L107.923 8.56253Z" fill="#FEFEFE"/>
<path d="M53.1668 8.67008C54.2548 8.55811 55.4276 8.64328 56.5238 8.64382L63.8487 8.62834L63.8534 11.1905L55.9291 11.1925C56.0091 12.2975 56.0464 13.5615 55.9315 14.6617L62.9992 14.6568C63.1345 14.8741 63.047 16.7631 63.0481 17.1575C62.8469 17.2839 57.1308 17.1917 56.3967 17.1962C56.2338 17.1902 56.0987 17.1899 55.9426 17.2417C55.9886 18.3715 56.0547 19.6447 55.9336 20.7642L64.1184 20.7781L64.0933 23.355L53.0755 23.3589L53.0528 19.2729L53.0524 12.0832V9.61268C53.0533 9.39995 53.0053 8.93731 53.1082 8.76002L53.1668 8.67008Z" fill="#FEFEFE"/>
<path d="M37.0425 8.67007L37.172 8.65031C38.2311 8.58598 39.3261 8.64458 40.3901 8.64376C42.6258 8.64205 45.4491 8.34092 47.2449 9.97286C48.2253 10.8638 48.6765 12.0426 48.7395 13.3468C48.8088 14.78 48.5106 16.2461 47.5169 17.3344C46.7528 18.1711 45.411 18.8721 44.2632 18.9202C43.4438 19.0899 42.5502 19.0248 41.7156 19.0221C41.0843 19.0201 40.4603 19.0656 39.8294 19.0144L39.8141 23.3463L36.9312 23.353C36.8375 22.0237 36.8993 20.662 36.8985 19.3273L36.8984 11.8991C36.8987 11.4628 36.804 9.01549 36.9752 8.75903L36.9837 8.7467L37.0425 8.67007ZM41.0139 11.1708L39.8759 11.1851C39.7599 11.4502 39.8286 12.0896 39.8256 12.3955L39.8181 15.0456C39.8186 15.5144 39.7833 16.0123 39.8372 16.4772C41.2538 16.4634 43.1013 16.7278 44.4231 16.1914C45.0191 15.947 45.5166 15.6147 45.7736 14.9986C46.052 14.3307 46.0998 13.3613 45.816 12.6842C45.566 12.0874 45.0762 11.6811 44.4849 11.4433C43.4604 11.0311 42.1001 11.1569 41.0139 11.1708Z" fill="#FEFEFE"/>
<path d="M126.393 8.67001C126.674 8.59624 127.077 8.64391 127.37 8.64278C128.083 8.64007 128.804 8.61433 129.514 8.69041L134.335 17.9812L139.124 8.63188L142.368 8.62354L142.376 23.3044C142.283 23.3846 141.732 23.3419 141.587 23.342L139.71 23.3614L139.694 16.2502L139.69 12.9941L135.227 21.7835L133.378 21.7984L128.892 12.9931L128.917 19.4059C128.916 20.5688 129.014 21.7999 128.934 22.9523C128.921 23.1352 128.91 23.189 128.8 23.3299L126.294 23.3569C126.202 22.1233 126.18 9.03763 126.327 8.77514L126.393 8.67001Z" fill="#FEFEFE"/>
<path d="M68.5362 8.67006C69.2298 8.55886 70.0626 8.64733 70.7706 8.64601C72.4362 8.6429 74.1522 8.55016 75.8082 8.70332C76.1634 8.73617 76.5792 8.83882 76.9232 8.9322C78.1068 9.25347 79.2197 9.93868 79.8395 11.0241C80.5755 12.3132 80.705 13.9298 80.3115 15.358C79.8971 16.8622 78.9573 17.7261 77.642 18.4704L80.8358 23.3413L78.9893 23.3463L77.5976 23.3334L75.0827 19.038C73.8701 18.8827 72.5126 19.0599 71.2841 19.0282L71.2859 23.344L68.4293 23.3566C68.3858 22.0795 68.2797 9.03099 68.4783 8.74395L68.4857 8.7337C68.5016 8.71123 68.5175 8.69019 68.5362 8.67006ZM72.4236 11.1716L71.2857 11.1809L71.2862 16.4829L73.7358 16.4844C74.6054 16.482 75.4334 16.4932 76.2585 16.1783C76.8138 15.896 77.379 15.4888 77.5845 14.8686C77.7966 14.2286 77.8178 13.1821 77.5122 12.573C77.228 12.0063 76.7052 11.5793 76.1028 11.3835C74.9868 11.0206 73.5945 11.1568 72.4236 11.1716Z" fill="#FEFEFE"/>
</g>
<defs>
<clipPath id="clip0_449_1027">
<rect width="142.35" height="15" fill="white" transform="translate(0.0341797 8.5)"/>
</clipPath>
</defs>
</svg>
