<svg width="192" height="32" viewBox="0 0 192 32" fill="none" xmlns="http://www.w3.org/2000/svg">
<g clip-path="url(#clip0_449_1027)">
<path d="M20.4036 16.6198L20.6744 16.6194L20.717 25.902L17.6282 25.9084C17.525 25.8984 17.4218 25.8456 17.3262 25.8062L17.2478 18.5121L20.4036 16.6198Z" fill="#FEFEFE"/>
<path d="M164.165 16.6198H164.454L164.475 25.8978L161.359 25.909L161.073 25.8258C160.895 24.7666 161.007 23.5462 161.005 22.4698C161.003 21.1678 160.904 19.759 161.047 18.466L164.165 16.6198Z" fill="#FEFEFE"/>
<path d="M114.747 6.17218L118.615 6.15918C118.615 7.9801 118.758 25.3062 118.561 25.6532L118.484 25.7732C118.169 25.8598 117.704 25.7926 117.366 25.7928L114.768 25.8134C114.659 24.9218 114.717 23.9832 114.716 23.0854L114.713 18.3431L114.747 6.17218Z" fill="#FEFEFE"/>
<path d="M124.382 6.22677C124.767 6.13769 125.252 6.19263 125.653 6.19171L128.211 6.19143L135.645 6.19515L140.273 6.14563L140.275 9.61341L134.216 9.61519L134.224 19.7662L134.207 25.7528C133.993 25.8684 133.433 25.7936 133.177 25.7922L130.345 25.8146L130.337 9.62213L124.273 9.63301L124.242 7.14121C124.244 6.90407 124.202 6.55499 124.311 6.34737L124.382 6.22677Z" fill="#FEFEFE"/>
<path d="M26.7034 6.19117L30.4824 6.23443C31.2544 7.12335 31.8114 8.37141 32.3956 9.39657L35.829 15.2548L40.9812 6.25105C41.4396 6.14849 41.95 6.19101 42.418 6.19013L44.8512 6.19031L41.0692 13.2445L38.7114 17.5968C38.4396 18.099 37.9406 18.7841 37.818 19.332C37.699 19.864 37.789 20.6296 37.7888 21.1878L37.7792 25.7782C36.583 25.9344 35.1786 25.8016 33.959 25.812C33.8544 24.3644 33.9442 22.8544 33.9432 21.4002C33.9426 20.7974 33.9972 20.1076 33.8778 19.518C33.73 18.7869 33.0032 17.8389 32.6302 17.1508L29.1974 10.8881C28.343 9.35795 27.3822 7.80355 26.7034 6.19117Z" fill="#FEFEFE"/>
<path d="M1.52415 6.05396L4.80527 6.08841L4.78407 13.0539L6.44385 14.0082L11.0326 11.3527L15.6751 14.0087L17.2974 13.0626L17.3074 6.18474C17.6465 5.97596 20.1658 6.0861 20.7112 6.07876L20.7238 14.9838L13.2314 19.3008L11.0288 20.5693L7.67753 18.6202C8.08369 18.2815 8.63947 18.0249 9.09803 17.7579L12.247 15.9324L11.0578 15.237L4.80267 18.8527L4.80397 25.8985L1.53055 25.9155L1.51779 16.8415C1.93285 16.4911 2.54901 16.25 3.01901 15.9558C2.65603 15.6201 2.00839 15.3597 1.56827 15.1136C1.40151 13.9569 1.48719 12.7129 1.48639 11.5448L1.52415 6.05396Z" fill="#FEFEFE"/>
<path d="M145.162 6.08342L148.603 6.08764L148.581 13.1185L150.213 14.0049L154.771 11.3625L157.634 12.97C158.226 13.3214 158.811 13.7308 159.446 13.9994L161.033 13.0735L161.033 6.10524L164.474 6.07898L164.48 14.9663L157.074 19.2555L154.777 20.568L151.434 18.5948L156.04 15.9197C155.598 15.7326 155.198 15.4882 154.789 15.2392C153.172 16.2919 151.401 17.1593 149.736 18.1398C149.589 18.2265 148.652 18.7307 148.607 18.834C148.541 18.987 148.614 19.5848 148.614 19.7946L148.61 24.294C148.609 24.7072 148.7 25.528 148.536 25.8942L145.199 25.908C145.065 24.8188 145.129 23.6844 145.127 22.5858L145.125 16.9369L146.821 15.9326L145.215 15.0701C145.06 13.824 145.126 12.5268 145.124 11.2722L145.162 6.08342Z" fill="#FEFEFE"/>
<path d="M72.1533 6.2267C73.6039 6.0774 75.1677 6.19096 76.6293 6.19168L86.3957 6.17104L86.4021 9.58726L75.8363 9.58994C75.9429 11.0632 75.9927 12.7485 75.8395 14.2155L85.2631 14.2089C85.4435 14.4987 85.3269 17.0174 85.3283 17.5432C85.0601 17.7118 77.4385 17.5888 76.4597 17.5949C76.2425 17.5869 76.0625 17.5865 75.8543 17.6555C75.9157 19.1619 76.0037 20.8596 75.8423 22.3522L86.7553 22.3708L86.7219 25.8066L72.0315 25.8118L72.0013 20.3638L72.0007 10.7775V7.4835C72.0019 7.19986 71.9379 6.583 72.0751 6.34662L72.1533 6.2267Z" fill="#FEFEFE"/>
<path d="M50.6541 6.22676L50.8267 6.20042C52.2389 6.11464 53.6989 6.19278 55.1175 6.19168C58.0985 6.1894 61.8629 5.7879 64.2573 7.96382C65.5645 9.1518 66.1661 10.7234 66.2501 12.4624C66.3425 14.3733 65.9449 16.3281 64.6199 17.7791C63.6011 18.8948 61.8121 19.8294 60.2817 19.8936C59.1891 20.1198 57.9977 20.033 56.8849 20.0294C56.0431 20.0268 55.2111 20.0874 54.3699 20.0192L54.3495 25.795L50.5057 25.804C50.3807 24.0316 50.4631 22.216 50.4621 20.4364L50.4619 10.5321C50.4623 9.95038 50.3361 6.68732 50.5643 6.34538L50.5757 6.32894L50.6541 6.22676ZM55.9493 9.56102L54.4319 9.58012C54.2773 9.93366 54.3689 10.7861 54.3649 11.194L54.3549 14.7274C54.3555 15.3526 54.3085 16.0164 54.3803 16.6363C56.2691 16.6179 58.7325 16.9703 60.4949 16.2553C61.2895 15.9293 61.9529 15.4863 62.2955 14.6648C62.6667 13.7743 62.7305 12.4817 62.3521 11.579C62.0187 10.7832 61.3657 10.2415 60.5773 9.92434C59.2113 9.37486 57.3975 9.54256 55.9493 9.56102Z" fill="#FEFEFE"/>
<path d="M169.788 6.22676C170.162 6.1284 170.7 6.19196 171.091 6.19046C172.042 6.18684 173.002 6.15252 173.949 6.25396L180.377 18.6417L186.762 6.17592L191.088 6.16479L191.099 25.7392C190.975 25.8462 190.24 25.7892 190.047 25.7894L187.544 25.8152L187.523 16.3337L187.517 11.9922L181.567 23.7114L179.101 23.7312L173.121 11.9908L173.154 20.5412C173.153 22.0918 173.283 23.7332 173.176 25.2698C173.159 25.5136 173.144 25.5854 172.998 25.7732L169.656 25.8092C169.533 24.1644 169.504 6.71691 169.7 6.36693L169.788 6.22676Z" fill="#FEFEFE"/>
<path d="M92.6456 6.22674C93.5704 6.07848 94.6808 6.19644 95.6248 6.19468C97.8456 6.19054 100.134 6.06688 102.342 6.2711C102.815 6.3149 103.37 6.45176 103.828 6.57626C105.406 7.00462 106.89 7.91824 107.717 9.3654C108.698 11.0843 108.871 13.2397 108.346 15.144C107.793 17.1496 106.54 18.3014 104.787 19.2938L109.045 25.7884L106.583 25.795L104.727 25.7778L101.374 20.0506C99.7574 19.8436 97.9474 20.0798 96.3094 20.0376L96.3118 25.792L92.503 25.8088C92.445 24.106 92.3036 6.70798 92.5684 6.32526L92.5782 6.3116C92.5994 6.28164 92.6206 6.25358 92.6456 6.22674ZM97.8288 9.56208L96.3116 9.57452L96.3122 16.6439L99.5784 16.6458C100.738 16.6427 101.842 16.6576 102.942 16.2377C103.682 15.8613 104.436 15.3184 104.71 14.4914C104.993 13.6382 105.021 12.2428 104.614 11.4307C104.235 10.675 103.538 10.1058 102.734 9.8446C101.246 9.36076 99.39 9.54238 97.8288 9.56208Z" fill="#FEFEFE"/>
</g>
<defs>
<clipPath id="clip0_449_1027">
<rect width="189.8" height="20" fill="white" transform="translate(1.30908 6)"/>
</clipPath>
</defs>
</svg>
