<svg width="135" height="32" viewBox="0 0 135 32" fill="none" xmlns="http://www.w3.org/2000/svg">
<path fill-rule="evenodd" clip-rule="evenodd" d="M25.1033 6.28917C24.3325 5.03007 22.962 4.26172 21.4864 4.26172H7.17027C5.6947 4.26172 4.32416 5.03007 3.55344 6.28917L0.624635 11.0746C-0.388523 12.7291 -0.150282 14.8604 1.20199 16.2513L11.0114 26.3368C12.794 28.1694 15.724 28.2101 17.5556 26.4266C17.5864 26.3971 17.6159 26.3677 17.6453 26.3368L27.4547 16.2513C28.807 14.8604 29.0452 12.7291 28.0321 11.0746L25.1033 6.28917ZM16.7451 9.48222H20.4432C20.9469 9.48222 21.3566 9.8987 21.3566 10.4107V14.1694C21.3566 14.5462 21.1352 14.8829 20.7927 15.0271C20.4499 15.1709 20.0595 15.0925 19.7973 14.826L19.1894 14.2084L15.2569 18.2061C14.8387 18.6305 14.1594 18.6305 13.7412 18.2061L11.9777 16.4135L10.073 18.3385C9.87064 18.5446 9.60137 18.6577 9.31519 18.6577C9.02902 18.6577 8.75974 18.5442 8.5577 18.3385L7.59042 17.3553C7.1726 16.9302 7.1726 16.2393 7.59042 15.8146L11.2149 12.1303C11.6194 11.7188 12.3258 11.7192 12.7306 12.1303L14.4937 13.9229L16.7064 11.6841L16.0992 11.0673C15.837 10.8007 15.7595 10.4036 15.9014 10.0554C16.0432 9.70727 16.3741 9.48222 16.7451 9.48222Z" fill="white"/>
<path d="M93.7814 22.9252C93.7814 24.376 94.9575 25.5521 96.4083 25.5521C97.8591 25.5521 99.0352 24.376 99.0352 22.9252C99.0352 21.4744 97.8591 20.2983 96.4083 20.2983C94.9575 20.2983 93.7814 21.4744 93.7814 22.9252Z" fill="white"/>
<path d="M38.1024 26H34.283V7.78064H38.1024V26ZM47.3685 12.3226C52.1169 12.3226 52.1169 16.4 52.1169 18.9548V26H48.3491V18.9548C48.3491 17.3548 48.3491 15.6 46.4137 15.6C44.5556 15.6 43.9879 17.2516 43.9879 19.1355V26H40.2201V12.6323H43.9879V13.5871C44.8137 12.8129 45.8201 12.3226 47.3685 12.3226ZM62.3899 13.5355V7.78064H66.1576V26H62.4415V24.7871C61.5899 25.7935 60.4286 26.3097 58.8286 26.3097C55.1641 26.3097 52.9963 23.4968 52.9963 19.3935C52.9963 14.9806 55.4479 12.3226 58.8544 12.3226C60.2479 12.3226 61.5125 12.7613 62.3899 13.5355ZM59.5512 23.1871C61.3576 23.1871 62.4673 21.7419 62.4673 19.2903C62.4673 16.8645 61.3576 15.4452 59.577 15.4452C57.7447 15.4452 56.635 16.9419 56.635 19.3419C56.635 21.7419 57.7447 23.1871 59.5512 23.1871ZM73.7911 12.3226C78.204 12.3226 80.5782 15.3161 80.2169 20.3742H70.7459C70.9266 22.129 72.0879 23.2129 73.7653 23.2129C75.262 23.2129 76.2169 22.4387 76.6298 21.2516L79.9072 22.3355C79.0814 24.8645 76.6814 26.3097 73.6879 26.3097C69.6104 26.3097 66.9782 23.6516 66.9782 19.3161C66.9782 15.1355 69.4556 12.3226 73.7911 12.3226ZM73.7653 15.3161C72.1395 15.3161 71.0814 16.2452 70.8233 17.7161H76.475C76.2685 16.1935 75.3653 15.3161 73.7653 15.3161ZM88.6463 18.929L93.5495 26H89.1108L86.2205 21.8452L83.5108 26H79.4334L84.2334 18.9548L79.8205 12.6323H84.2592L86.6334 16.0387L88.8012 12.6323H92.8786L88.6463 18.929ZM106.327 7.72903V10.8C104.469 10.5935 104.082 10.8258 104.082 11.9613V12.6323H106.327V15.6774H104.082V26H100.315V15.6774H98.4307V12.6323H100.315V11.2387C100.315 7.88387 102.844 6.98064 106.327 7.72903ZM114.994 19.471V12.6323H118.762V26H115.382V24.4258C114.607 25.5355 113.575 26.3097 111.562 26.3097C106.994 26.3097 106.969 22.5161 106.969 20.2452V12.6323H110.736V19.5226C110.736 21.7419 110.788 23.0323 112.517 23.0323C114.943 23.0323 114.994 20.6323 114.994 19.471ZM127.773 12.3226C132.521 12.3226 132.521 16.4 132.521 18.9548V26H128.754V18.9548C128.754 17.3548 128.754 15.6 126.818 15.6C124.96 15.6 124.392 17.2516 124.392 19.1355V26H120.625V12.6323H124.392V13.5871C125.218 12.8129 126.225 12.3226 127.773 12.3226Z" fill="white"/>
</svg>
