<svg width="133" height="32" viewBox="0 0 133 32" fill="none" xmlns="http://www.w3.org/2000/svg">
<g clip-path="url(#clip0_756_1811)">
<path d="M36.9492 22.6782V11.3432C36.9492 10.1781 37.8925 9.23486 39.0576 9.23486H39.2117V22.6782H36.9492Z" fill="white"/>
<path d="M42.4922 22.6782V9.23486H44.8738L50.3235 18.9916V9.23486H50.379C51.5441 9.23486 52.4874 10.1781 52.4874 11.3432V22.6782H50.1057L44.656 12.9214V22.6782H42.4922Z" fill="white"/>
<path d="M59.6197 23.0049C58.2162 23.0049 57.1209 22.5755 56.3339 21.7185C55.5469 20.8596 55.1523 19.7211 55.1523 18.2991H57.4148C57.4148 19.1314 57.5977 19.7972 57.9655 20.2965C58.3457 20.7835 58.8964 21.026 59.6177 21.026C60.3389 21.026 60.8897 20.7835 61.2698 20.2965C61.6644 19.7972 61.8596 19.1376 61.8596 18.3177V11.3432C61.8596 10.1781 62.8028 9.23486 63.968 9.23486H64.1221V18.3197C64.1221 19.7417 63.7213 20.8801 62.922 21.7391C62.135 22.5836 61.0335 23.007 59.6156 23.007L59.6197 23.0049Z" fill="white"/>
<path d="M67.1974 9.23535H75.1479C75.1479 10.3286 74.2622 11.2143 73.1689 11.2143H69.4598V15.0158H75.1458V16.9948H69.4598V20.7018H75.1458V22.6808H67.1953V9.23535H67.1974Z" fill="white"/>
<path d="M124.638 9.23535H132.589C132.589 10.3286 131.703 11.2143 130.61 11.2143H126.901V15.0158H132.587V16.9948H126.901V20.7018H132.587V22.6808H124.637V9.23535H124.638Z" fill="white"/>
<path d="M84.4 23.0035C82.4375 23.0035 80.8841 22.3501 79.7375 21.0452C78.5929 19.7403 78.0195 18.0429 78.0195 15.9551C78.0195 13.8673 78.5929 12.172 79.7375 10.8651C80.882 9.56021 82.4375 8.90674 84.4 8.90674C86.0479 8.90674 87.4026 9.36704 88.4666 10.2897C89.5289 11.198 90.1556 12.3837 90.3426 13.8427H89.8378C88.8446 13.8427 88.0515 13.0926 87.4643 12.2933C87.2931 12.0631 87.0979 11.8556 86.8739 11.6727C86.2431 11.1487 85.4253 10.8856 84.4206 10.8856C83.0766 10.8856 82.0246 11.3459 81.2663 12.2686C80.5184 13.1769 80.1443 14.4057 80.1443 15.9551C80.1443 17.5046 80.5184 18.7395 81.2663 19.6622C82.0267 20.5705 83.0766 21.0246 84.4206 21.0246C85.4253 21.0246 86.2431 20.7616 86.8739 20.2376C87.0979 20.0547 87.2955 19.8493 87.4643 19.617C88.054 18.8176 88.8446 18.0676 89.8378 18.0676H90.3426C90.1556 19.5266 89.5314 20.7185 88.4666 21.639C87.4026 22.5473 86.0479 23.0035 84.4 23.0035Z" fill="white"/>
<path d="M96.1824 22.6782V11.3083H92.1875C92.1875 10.1637 93.1164 9.23486 94.2611 9.23486H102.459V11.3083H98.4455V22.6782H96.1824Z" fill="white"/>
<path d="M105.332 22.6782V11.3432C105.332 10.1781 106.275 9.23486 107.44 9.23486H107.594V22.6782H105.332Z" fill="white"/>
<path d="M115.034 22.6782L110.469 9.23486H111.389C112.305 9.23486 113.117 9.82668 113.396 10.7L116.116 19.2012L118.834 10.7C119.113 9.82668 119.925 9.23486 120.842 9.23486H121.763L117.196 22.6782H115.033H115.034Z" fill="white"/>
<path d="M3.33108 6.74588C3.50164 6.53218 3.68247 6.32462 3.86331 6.11913C3.87153 6.10886 3.89002 6.10681 3.89824 6.09653C3.91468 6.07598 3.94139 6.06365 3.95783 6.0431L3.97427 6.02255C4.09962 5.90542 4.23525 5.78007 4.38937 5.6691C4.93598 5.25401 5.50313 4.93755 6.10317 4.73C8.02248 4.05599 10.1596 4.47108 11.8364 6.05338C14.177 8.24803 13.9674 11.7805 12.0995 14.1293C9.73832 17.6308 5.68191 22.5153 11.298 26.8923C12.309 27.6794 13.0571 28.3287 16.238 29.2473C14.1564 29.6316 12.2289 29.5124 10.0815 28.9637C8.56289 28.1069 6.17509 26.2718 5.36135 23.7915C4.1325 20.031 7.52313 14.4107 9.16094 12.2469C11.4111 9.25083 7.76972 6.00816 5.09009 9.62894C3.68864 11.5154 1.23916 16.8561 2.0899 20.8159C2.5872 23.062 3.25094 24.6998 5.88329 26.9478C5.39628 26.6602 4.92159 26.3334 4.46129 25.9677C-1.65211 20.2714 -0.941107 11.4661 3.33108 6.74588Z" fill="white"/>
<path d="M24.1395 24.7257C23.9689 24.9394 23.7881 25.1469 23.6073 25.3524C23.5991 25.3627 23.5805 25.3648 23.5723 25.3751C23.5559 25.3956 23.5291 25.4079 23.5128 25.4285L23.4963 25.449C23.3709 25.5662 23.2353 25.6915 23.0812 25.8025C22.5346 26.2176 21.9653 26.534 21.3674 26.7415C19.4481 27.4156 17.311 27.0005 15.6341 25.4182C13.2936 23.2235 13.5032 19.6911 15.3711 17.3424C17.7322 13.8408 21.7887 8.9562 16.1705 4.57921C15.1615 3.79218 14.4115 3.14282 11.2305 2.22427C13.3121 1.84 15.2396 1.95919 17.387 2.50785C18.9056 3.36475 21.2934 5.20186 22.1072 7.6801C23.336 11.4406 19.9454 17.0608 18.3076 19.2247C16.0575 22.2208 19.6988 25.4634 22.3784 21.8426C23.7799 19.9562 26.2293 14.6155 25.3786 10.6556C24.8813 8.4096 24.2176 6.77182 21.5852 4.52373C22.0722 4.81142 22.5469 5.13816 23.0072 5.50393C29.1207 11.1982 28.4117 20.0056 24.1395 24.7257Z" fill="white"/>
</g>
<defs>
<clipPath id="clip0_756_1811">
<rect width="132.588" height="28" fill="white" transform="translate(0 2)"/>
</clipPath>
</defs>
</svg>
