<svg width="145" height="32" viewBox="0 0 145 32" fill="none" xmlns="http://www.w3.org/2000/svg">
<g clip-path="url(#clip0_7105_38353)">
<path d="M26.3119 28.8214C26.6857 28.4476 26.6857 27.8415 26.3119 27.4677C25.938 27.0938 25.3319 27.0938 24.9581 27.4677C24.5843 27.8415 24.5843 28.4476 24.9581 28.8214C25.3319 29.1952 25.938 29.1952 26.3119 28.8214Z" fill="white"/>
<path d="M24.3823 26.9113C24.7 26.5935 24.7 26.0783 24.3823 25.7606C24.0645 25.4428 23.5493 25.4428 23.2316 25.7606C22.9138 26.0783 22.9138 26.5935 23.2316 26.9113C23.5493 27.229 24.0645 27.229 24.3823 26.9113Z" fill="white"/>
<path d="M22.6363 25.1574C22.898 24.8957 22.8979 24.4715 22.6363 24.2098C22.3746 23.9481 21.9503 23.9481 21.6887 24.2098C21.427 24.4715 21.427 24.8957 21.6887 25.1574C21.9503 25.4191 22.3746 25.4191 22.6363 25.1574Z" fill="white"/>
<path d="M21.1246 23.6275C21.3396 23.4125 21.3396 23.064 21.1246 22.8491C20.9097 22.6341 20.5612 22.6341 20.3462 22.8491C20.1313 23.064 20.1313 23.4125 20.3462 23.6275C20.5612 23.8424 20.9097 23.8424 21.1246 23.6275Z" fill="white"/>
<path d="M19.7458 22.273C19.9047 22.1141 19.9047 21.8566 19.7458 21.6977C19.587 21.5388 19.3294 21.5388 19.1705 21.6977C19.0116 21.8566 19.0116 22.1141 19.1705 22.273C19.3294 22.4319 19.5869 22.4319 19.7458 22.273Z" fill="white"/>
<path d="M18.5936 21.1061C18.6964 21.0033 18.6964 20.8366 18.5936 20.7338C18.4908 20.631 18.3241 20.631 18.2213 20.7338C18.1185 20.8366 18.1185 21.0033 18.2213 21.1061C18.3241 21.2089 18.4908 21.2089 18.5936 21.1061Z" fill="white"/>
<path d="M17.621 20.1494C17.6771 20.0933 17.6771 20.0024 17.621 19.9463C17.5649 19.8902 17.474 19.8902 17.4179 19.9463C17.3619 20.0024 17.3619 20.0933 17.4179 20.1494C17.474 20.2055 17.5649 20.2055 17.621 20.1494Z" fill="white"/>
<path d="M16.6597 19.175C16.9214 18.9133 16.9214 18.489 16.6597 18.2274C16.398 17.9657 15.9738 17.9657 15.7121 18.2274C15.4504 18.489 15.4504 18.9133 15.7121 19.175C15.9738 19.4367 16.398 19.4367 16.6597 19.175Z" fill="white"/>
<path d="M2.0228 4.53234C2.39663 4.15851 2.39663 3.55242 2.0228 3.1786C1.64898 2.80477 1.04288 2.80477 0.669059 3.1786C0.295233 3.55242 0.295233 4.15851 0.669059 4.53234C1.04288 4.90617 1.64898 4.90617 2.0228 4.53234Z" fill="white"/>
<path d="M3.74165 6.25503C4.0594 5.93727 4.0594 5.4221 3.74165 5.10435C3.42389 4.78659 2.90872 4.78659 2.59097 5.10435C2.27321 5.4221 2.27321 5.93728 2.59096 6.25503C2.90872 6.57278 3.42389 6.57278 3.74165 6.25503Z" fill="white"/>
<path d="M5.26518 7.78729C5.52686 7.52561 5.52686 7.10134 5.26518 6.83966C5.0035 6.57799 4.57924 6.57799 4.31756 6.83967C4.05588 7.10134 4.05588 7.52561 4.31756 7.78728C4.57924 8.04896 5.0035 8.04897 5.26518 7.78729Z" fill="white"/>
<path d="M6.64417 9.15092C6.85912 8.93597 6.85911 8.58746 6.64416 8.37252C6.42921 8.15757 6.08071 8.15757 5.86576 8.37252C5.65081 8.58747 5.65081 8.93597 5.86576 9.15092C6.08071 9.36587 6.42922 9.36587 6.64417 9.15092Z" fill="white"/>
<path d="M7.78879 10.3023C7.94767 10.1434 7.94767 9.88586 7.78879 9.72698C7.62992 9.5681 7.37233 9.5681 7.21345 9.72698C7.05458 9.88585 7.05458 10.1434 7.21345 10.3023C7.37233 10.4612 7.62992 10.4612 7.78879 10.3023Z" fill="white"/>
<path d="M8.76936 11.2662C8.87216 11.1634 8.87216 10.9967 8.76936 10.8939C8.66656 10.7911 8.49988 10.7911 8.39708 10.8939C8.29427 10.9967 8.29428 11.1634 8.39708 11.2662C8.49988 11.369 8.66656 11.369 8.76936 11.2662Z" fill="white"/>
<path d="M9.53896 12.0537C9.59504 11.9976 9.59504 11.9067 9.53897 11.8506C9.48289 11.7945 9.39198 11.7945 9.33591 11.8506C9.27983 11.9067 9.27983 11.9976 9.33591 12.0537C9.39198 12.1098 9.48289 12.1097 9.53896 12.0537Z" fill="white"/>
<path d="M11.2652 13.7922C11.5269 13.5305 11.5269 13.1062 11.2652 12.8445C11.0035 12.5829 10.5792 12.5829 10.3176 12.8445C10.0559 13.1062 10.0559 13.5305 10.3176 13.7922C10.5792 14.0538 11.0035 14.0538 11.2652 13.7922Z" fill="white"/>
<path d="M2.0228 28.8194C2.39663 28.4456 2.39663 27.8395 2.0228 27.4657C1.64898 27.0919 1.04288 27.0919 0.669059 27.4657C0.295233 27.8395 0.295233 28.4456 0.669059 28.8194C1.04288 29.1933 1.64898 29.1933 2.0228 28.8194Z" fill="white"/>
<path d="M3.73384 26.8869C4.05159 26.5691 4.05159 26.0539 3.73384 25.7362C3.41609 25.4184 2.90091 25.4184 2.58315 25.7362C2.2654 26.0539 2.26541 26.5691 2.58316 26.8869C2.90091 27.2046 3.41609 27.2046 3.73384 26.8869Z" fill="white"/>
<path d="M5.27299 25.1613C5.53467 24.8996 5.53467 24.4754 5.27299 24.2137C5.01131 23.952 4.58705 23.952 4.32537 24.2137C4.06369 24.4754 4.06369 24.8996 4.32537 25.1613C4.58705 25.423 5.01132 25.423 5.27299 25.1613Z" fill="white"/>
<path d="M6.64417 23.6275C6.85912 23.4125 6.85911 23.064 6.64416 22.8491C6.42921 22.6341 6.08071 22.6341 5.86576 22.8491C5.65081 23.064 5.65081 23.4125 5.86576 23.6275C6.08071 23.8424 6.42922 23.8424 6.64417 23.6275Z" fill="white"/>
<path d="M7.78489 22.2691C7.94376 22.1102 7.94376 21.8527 7.78489 21.6938C7.62601 21.5349 7.36842 21.5349 7.20955 21.6938C7.05067 21.8527 7.05067 22.1102 7.20955 22.2691C7.36842 22.428 7.62601 22.428 7.78489 22.2691Z" fill="white"/>
<path d="M8.76545 21.1041C8.86825 21.0013 8.86825 20.8346 8.76545 20.7318C8.66265 20.629 8.49597 20.629 8.39317 20.7318C8.29037 20.8346 8.29037 21.0013 8.39317 21.1041C8.49597 21.2069 8.66264 21.2069 8.76545 21.1041Z" fill="white"/>
<path d="M9.55069 20.1611C9.60676 20.105 9.60676 20.0141 9.55069 19.958C9.49461 19.902 9.4037 19.902 9.34762 19.958C9.29155 20.0141 9.29155 20.105 9.34763 20.1611C9.4037 20.2172 9.49461 20.2172 9.55069 20.1611Z" fill="white"/>
<path d="M11.2535 19.1799C11.5151 18.9182 11.5151 18.4939 11.2535 18.2322C10.9918 17.9706 10.5675 17.9706 10.3058 18.2322C10.0442 18.4939 10.0442 18.9182 10.3058 19.1799C10.5675 19.4415 10.9918 19.4415 11.2535 19.1799Z" fill="white"/>
<path d="M26.3119 4.53429C26.6857 4.16047 26.6857 3.55437 26.3119 3.18055C25.938 2.80672 25.3319 2.80672 24.9581 3.18055C24.5843 3.55438 24.5843 4.16047 24.9581 4.53429C25.3319 4.90812 25.938 4.90812 26.3119 4.53429Z" fill="white"/>
<path d="M24.3745 6.26382C24.6922 5.94606 24.6922 5.43089 24.3745 5.11313C24.0567 4.79538 23.5415 4.79538 23.2238 5.11314C22.906 5.43089 22.906 5.94606 23.2238 6.26382C23.5415 6.58157 24.0567 6.58157 24.3745 6.26382Z" fill="white"/>
<path d="M22.6324 7.78631C22.894 7.52463 22.894 7.10037 22.6324 6.83869C22.3707 6.57701 21.9464 6.57701 21.6847 6.83869C21.4231 7.10037 21.4231 7.52463 21.6847 7.78631C21.9464 8.04799 22.3707 8.04799 22.6324 7.78631Z" fill="white"/>
<path d="M21.1246 9.15092C21.3396 8.93597 21.3396 8.58747 21.1246 8.37252C20.9097 8.15757 20.5612 8.15757 20.3462 8.37252C20.1313 8.58747 20.1313 8.93597 20.3462 9.15092C20.5612 9.36587 20.9097 9.36587 21.1246 9.15092Z" fill="white"/>
<path d="M19.7497 10.3062C19.9086 10.1473 19.9086 9.88976 19.7497 9.73089C19.5909 9.57201 19.3333 9.57201 19.1744 9.73088C19.0155 9.88976 19.0155 10.1474 19.1744 10.3062C19.3333 10.4651 19.5909 10.4651 19.7497 10.3062Z" fill="white"/>
<path d="M18.5975 11.2682C18.7003 11.1654 18.7003 10.9987 18.5975 10.8959C18.4947 10.7931 18.328 10.7931 18.2252 10.8959C18.1224 10.9987 18.1224 11.1654 18.2252 11.2682C18.328 11.371 18.4947 11.371 18.5975 11.2682Z" fill="white"/>
<path d="M17.6249 12.0576C17.681 12.0015 17.681 11.9106 17.6249 11.8545C17.5688 11.7985 17.4779 11.7985 17.4218 11.8545C17.3658 11.9106 17.3658 12.0015 17.4218 12.0576C17.4779 12.1137 17.5688 12.1137 17.6249 12.0576Z" fill="white"/>
<path d="M16.6519 13.7678C16.9136 13.5061 16.9136 13.0818 16.6519 12.8201C16.3902 12.5585 15.966 12.5585 15.7043 12.8201C15.4426 13.0818 15.4426 13.5061 15.7043 13.7678C15.966 14.0294 16.3902 14.0294 16.6519 13.7678Z" fill="white"/>
<path d="M10.7834 16.6663C11.1534 16.6663 11.4534 16.3663 11.4534 15.9963C11.4534 15.6262 11.1534 15.3262 10.7834 15.3262C10.4133 15.3262 10.1133 15.6262 10.1133 15.9963C10.1133 16.3663 10.4133 16.6663 10.7834 16.6663Z" fill="white"/>
<path d="M16.1857 16.6663C16.5558 16.6663 16.8558 16.3663 16.8558 15.9963C16.8558 15.6262 16.5558 15.3262 16.1857 15.3262C15.8156 15.3262 15.5156 15.6262 15.5156 15.9963C15.5156 16.3663 15.8156 16.6663 16.1857 16.6663Z" fill="white"/>
<path d="M1.35569 16.9516C1.88436 16.9516 2.31294 16.523 2.31294 15.9944C2.31294 15.4657 1.88436 15.0371 1.35569 15.0371C0.827013 15.0371 0.398438 15.4657 0.398438 15.9944C0.398438 16.523 0.827013 16.9516 1.35569 16.9516Z" fill="white"/>
<path d="M4.55024 16.5636C4.86799 16.2459 4.86799 15.7307 4.55024 15.4129C4.23249 15.0952 3.71731 15.0952 3.39956 15.4129C3.08181 15.7307 3.08181 16.2459 3.39956 16.5636C3.71731 16.8814 4.23249 16.8814 4.55024 16.5636Z" fill="white"/>
<path d="M6.79643 16.4748C7.05811 16.2131 7.05811 15.7888 6.79643 15.5272C6.53476 15.2655 6.11049 15.2655 5.84881 15.5272C5.58713 15.7888 5.58714 16.2131 5.84881 16.4748C6.11049 16.7365 6.53475 16.7365 6.79643 16.4748Z" fill="white"/>
<path d="M8.81604 16.3794C9.03099 16.1645 9.03099 15.816 8.81604 15.601C8.60109 15.3861 8.25259 15.3861 8.03764 15.601C7.82269 15.816 7.82269 16.1645 8.03764 16.3794C8.25259 16.5944 8.60109 16.5944 8.81604 16.3794Z" fill="white"/>
<path d="M25.633 16.9516C26.1617 16.9516 26.5903 16.523 26.5903 15.9944C26.5903 15.4657 26.1617 15.0371 25.633 15.0371C25.1044 15.0371 24.6758 15.4657 24.6758 15.9944C24.6758 16.523 25.1044 16.9516 25.633 16.9516Z" fill="white"/>
<path d="M23.5737 16.5685C23.8914 16.2508 23.8914 15.7356 23.5737 15.4178C23.2559 15.1001 22.7407 15.1001 22.423 15.4178C22.1052 15.7356 22.1052 16.2508 22.423 16.5685C22.7407 16.8863 23.2559 16.8863 23.5737 16.5685Z" fill="white"/>
<path d="M21.1089 16.4719C21.3706 16.2102 21.3706 15.7859 21.1089 15.5242C20.8473 15.2626 20.423 15.2626 20.1613 15.5242C19.8996 15.7859 19.8996 16.2102 20.1613 16.4719C20.423 16.7335 20.8473 16.7335 21.1089 16.4719Z" fill="white"/>
<path d="M18.941 16.3794C19.156 16.1645 19.156 15.816 18.941 15.601C18.7261 15.3861 18.3776 15.3861 18.1626 15.601C17.9477 15.816 17.9477 16.1645 18.1626 16.3794C18.3776 16.5944 18.7261 16.5944 18.941 16.3794Z" fill="white"/>
<path d="M13.4826 19.3694C13.8526 19.3694 14.1526 19.0694 14.1526 18.6994C14.1526 18.3293 13.8526 18.0293 13.4826 18.0293C13.1125 18.0293 12.8125 18.3293 12.8125 18.6994C12.8125 19.0694 13.1125 19.3694 13.4826 19.3694Z" fill="white"/>
<path d="M13.4826 13.9603C13.8526 13.9603 14.1526 13.6603 14.1526 13.2902C14.1526 12.9201 13.8526 12.6201 13.4826 12.6201C13.1125 12.6201 12.8125 12.9201 12.8125 13.2902C12.8125 13.6603 13.1125 13.9603 13.4826 13.9603Z" fill="white"/>
<path d="M13.4846 29.1079C14.0133 29.1079 14.4418 28.6793 14.4418 28.1506C14.4418 27.6219 14.0133 27.1934 13.4846 27.1934C12.9559 27.1934 12.5273 27.6219 12.5273 28.1506C12.5273 28.6793 12.9559 29.1079 13.4846 29.1079Z" fill="white"/>
<path d="M14.0581 26.0978C14.3758 25.78 14.3758 25.2649 14.0581 24.9471C13.7403 24.6294 13.2251 24.6294 12.9074 24.9471C12.5896 25.2649 12.5896 25.78 12.9074 26.0978C13.2251 26.4156 13.7403 26.4156 14.0581 26.0978Z" fill="white"/>
<path d="M13.9566 23.6291C14.2183 23.3674 14.2183 22.9431 13.9566 22.6815C13.6949 22.4198 13.2706 22.4198 13.009 22.6815C12.7473 22.9431 12.7473 23.3674 13.009 23.6291C13.2706 23.8908 13.6949 23.8908 13.9566 23.6291Z" fill="white"/>
<path d="M13.8746 21.4624C14.0896 21.2475 14.0896 20.899 13.8746 20.684C13.6597 20.4691 13.3112 20.4691 13.0962 20.684C12.8813 20.899 12.8813 21.2475 13.0962 21.4624C13.3112 21.6774 13.6597 21.6774 13.8746 21.4624Z" fill="white"/>
<path d="M13.4846 4.81977C14.0133 4.81977 14.4418 4.3912 14.4418 3.86252C14.4418 3.33385 14.0133 2.90527 13.4846 2.90527C12.9559 2.90527 12.5273 3.33385 12.5273 3.86252C12.5273 4.3912 12.9559 4.81977 13.4846 4.81977Z" fill="white"/>
<path d="M14.062 7.06948C14.3797 6.75173 14.3797 6.23655 14.062 5.9188C13.7442 5.60105 13.229 5.60105 12.9113 5.9188C12.5935 6.23655 12.5935 6.75173 12.9113 7.06948C13.229 7.38723 13.7442 7.38723 14.062 7.06948Z" fill="white"/>
<path d="M13.9527 9.31854C14.2144 9.05686 14.2144 8.6326 13.9527 8.37092C13.691 8.10924 13.2667 8.10924 13.0051 8.37092C12.7434 8.63259 12.7434 9.05686 13.0051 9.31854C13.2667 9.58022 13.691 9.58022 13.9527 9.31854Z" fill="white"/>
<path d="M13.8746 11.3384C14.0896 11.1235 14.0896 10.775 13.8746 10.56C13.6597 10.3451 13.3112 10.3451 13.0962 10.56C12.8813 10.775 12.8813 11.1235 13.0962 11.3384C13.3112 11.5534 13.6597 11.5534 13.8746 11.3384Z" fill="white"/>
<path d="M7.83438 4.72177C8.30712 4.48503 8.49844 3.90988 8.2617 3.43714C8.02496 2.9644 7.44981 2.77308 6.97707 3.00982C6.50433 3.24656 6.31301 3.82171 6.54975 4.29445C6.78649 4.76719 7.36164 4.95851 7.83438 4.72177Z" fill="white"/>
<path d="M9.4035 6.39872C9.54694 5.97285 9.31798 5.51133 8.89211 5.36789C8.46624 5.22445 8.00472 5.45341 7.86128 5.87928C7.71784 6.30515 7.9468 6.76667 8.37267 6.91011C8.79854 7.05355 9.26006 6.8246 9.4035 6.39872Z" fill="white"/>
<path d="M10.1941 8.31446C10.3109 7.9633 10.1209 7.58395 9.76973 7.46715C9.41857 7.35036 9.03921 7.54035 8.92241 7.89151C8.80562 8.24267 8.99561 8.62203 9.34678 8.73882C9.69794 8.85562 10.0773 8.66562 10.1941 8.31446Z" fill="white"/>
<path d="M10.9722 10.0439C11.0681 9.75543 10.9121 9.44382 10.6236 9.34788C10.3352 9.25194 10.0236 9.408 9.92762 9.69646C9.83168 9.98491 9.98775 10.2965 10.2762 10.3925C10.5647 10.4884 10.8763 10.3323 10.9722 10.0439Z" fill="white"/>
<path d="M11.5684 11.5426C11.6394 11.3294 11.524 11.0991 11.3108 11.0282C11.0976 10.9573 10.8673 11.0726 10.7964 11.2858C10.7255 11.499 10.8408 11.7294 11.054 11.8003C11.2672 11.8712 11.4975 11.7558 11.5684 11.5426Z" fill="white"/>
<path d="M20.4336 4.29138C20.6703 3.81864 20.479 3.24349 20.0063 3.00675C19.5335 2.77001 18.9584 2.96132 18.7216 3.43407C18.4849 3.90681 18.6762 4.48196 19.1489 4.7187C19.6217 4.95544 20.1968 4.76412 20.4336 4.29138Z" fill="white"/>
<path d="M18.688 6.88504C19.1144 6.74322 19.3451 6.28257 19.2033 5.85616C19.0615 5.42974 18.6008 5.19904 18.1744 5.34086C17.748 5.48269 17.5173 5.94333 17.6591 6.36974C17.801 6.79615 18.2616 7.02686 18.688 6.88504Z" fill="white"/>
<path d="M17.7347 8.64211C18.0854 8.52398 18.274 8.14391 18.1558 7.7932C18.0377 7.44248 17.6576 7.25392 17.3069 7.37205C16.9562 7.49018 16.7676 7.87025 16.8858 8.22097C17.0039 8.57169 17.384 8.76024 17.7347 8.64211Z" fill="white"/>
<path d="M16.7174 10.4187C17.0058 10.3228 17.1619 10.0112 17.066 9.72272C16.97 9.43427 16.6584 9.2782 16.3699 9.37414C16.0815 9.47008 15.9254 9.78169 16.0214 10.0701C16.1173 10.3586 16.4289 10.5147 16.7174 10.4187Z" fill="white"/>
<path d="M15.9124 11.8107C16.1256 11.7398 16.2409 11.5095 16.17 11.2962C16.0991 11.083 15.8688 10.9677 15.6556 11.0386C15.4424 11.1095 15.327 11.3398 15.3979 11.553C15.4688 11.7662 15.6992 11.8816 15.9124 11.8107Z" fill="white"/>
<path d="M8.27342 28.5912C8.51016 28.1184 8.31884 27.5433 7.8461 27.3066C7.37336 27.0698 6.79821 27.2611 6.56147 27.7339C6.32473 28.2066 6.51604 28.7818 6.98879 29.0185C7.46153 29.2552 8.03667 29.0639 8.27342 28.5912Z" fill="white"/>
<path d="M8.78176 26.6809C9.20817 26.5391 9.43888 26.0785 9.29705 25.6521C9.15523 25.2256 8.69459 24.9949 8.26818 25.1368C7.84177 25.2786 7.61106 25.7392 7.75289 26.1656C7.89471 26.592 8.35535 26.8228 8.78176 26.6809Z" fill="white"/>
<path d="M9.76972 24.528C10.1209 24.4112 10.3109 24.0318 10.1941 23.6807C10.0773 23.3295 9.69793 23.1395 9.34677 23.2563C8.99561 23.3731 8.80562 23.7525 8.92241 24.1036C9.03921 24.4548 9.41856 24.6448 9.76972 24.528Z" fill="white"/>
<path d="M10.6197 22.6424C10.9082 22.5464 11.0642 22.2348 10.9683 21.9464C10.8724 21.6579 10.5607 21.5018 10.2723 21.5978C9.98384 21.6937 9.82777 22.0053 9.92371 22.2938C10.0197 22.5822 10.3313 22.7383 10.6197 22.6424Z" fill="white"/>
<path d="M11.3342 20.9757C11.5474 20.9048 11.6628 20.6745 11.5919 20.4613C11.521 20.2481 11.2907 20.1327 11.0774 20.2036C10.8642 20.2745 10.7489 20.5049 10.8198 20.7181C10.8907 20.9313 11.121 21.0466 11.3342 20.9757Z" fill="white"/>
<path d="M19.9984 29.0118C20.4712 28.7751 20.6625 28.1999 20.4258 27.7272C20.189 27.2544 19.6139 27.0631 19.1411 27.2999C18.6684 27.5366 18.4771 28.1117 18.7138 28.5845C18.9506 29.0572 19.5257 29.2485 19.9984 29.0118Z" fill="white"/>
<path d="M19.215 26.1517C19.3568 25.7252 19.1261 25.2646 18.6997 25.1228C18.2733 24.981 17.8127 25.2117 17.6709 25.6381C17.529 26.0645 17.7597 26.5251 18.1861 26.6669C18.6126 26.8088 19.0732 26.5781 19.215 26.1517Z" fill="white"/>
<path d="M18.0769 24.0957C18.1937 23.7445 18.0037 23.3652 17.6525 23.2484C17.3014 23.1316 16.922 23.3216 16.8052 23.6728C16.6884 24.0239 16.8784 24.4033 17.2296 24.5201C17.5807 24.6369 17.9601 24.4469 18.0769 24.0957Z" fill="white"/>
<path d="M17.0777 22.291C17.1736 22.0025 17.0176 21.6909 16.7291 21.5949C16.4406 21.499 16.129 21.6551 16.0331 21.9435C15.9371 22.232 16.0932 22.5436 16.3817 22.6395C16.6701 22.7355 16.9817 22.5794 17.0777 22.291Z" fill="white"/>
<path d="M16.1739 20.7165C16.2448 20.5032 16.1295 20.2729 15.9163 20.202C15.7031 20.1311 15.4727 20.2465 15.4018 20.4597C15.3309 20.6729 15.4463 20.9032 15.6595 20.9741C15.8727 21.045 16.103 20.9297 16.1739 20.7165Z" fill="white"/>
<path d="M1.78751 22.9317C2.26025 22.695 2.45156 22.1198 2.21482 21.6471C1.97808 21.1744 1.40293 20.983 0.930192 21.2198C0.457451 21.4565 0.266135 22.0317 0.502875 22.5044C0.739616 22.9772 1.31476 23.1685 1.78751 22.9317Z" fill="white"/>
<path d="M4.47382 21.3196C4.61726 20.8938 4.3883 20.4322 3.96242 20.2888C3.53655 20.1454 3.07504 20.3743 2.9316 20.8002C2.78816 21.2261 3.01711 21.6876 3.44298 21.831C3.86885 21.9744 4.33038 21.7455 4.47382 21.3196Z" fill="white"/>
<path d="M6.24486 20.1475C6.36166 19.7963 6.17167 19.417 5.82051 19.3002C5.46935 19.1834 5.08999 19.3734 4.97319 19.7245C4.8564 20.0757 5.0464 20.455 5.39756 20.5718C5.74872 20.6886 6.12807 20.4986 6.24486 20.1475Z" fill="white"/>
<path d="M7.90189 19.2177C7.99783 18.9293 7.84176 18.6176 7.55331 18.5217C7.26485 18.4258 6.95324 18.5818 6.85731 18.8703C6.76137 19.1587 6.91743 19.4704 7.20588 19.5663C7.49434 19.6622 7.80595 19.5062 7.90189 19.2177Z" fill="white"/>
<path d="M9.29501 18.4069C9.36592 18.1937 9.25057 17.9634 9.03737 17.8924C8.82416 17.8215 8.59384 17.9369 8.52293 18.1501C8.45202 18.3633 8.56737 18.5936 8.78058 18.6645C8.99378 18.7354 9.2241 18.6201 9.29501 18.4069Z" fill="white"/>
<path d="M2.2031 10.3451C2.43984 9.87235 2.24853 9.2972 1.77579 9.06046C1.30305 8.82372 0.727897 9.01504 0.491157 9.48778C0.254416 9.96052 0.445732 10.5357 0.918473 10.7724C1.39121 11.0091 1.96636 10.8178 2.2031 10.3451Z" fill="white"/>
<path d="M3.85989 11.8391C4.2863 11.6973 4.517 11.2367 4.37518 10.8103C4.23336 10.3838 3.77271 10.1531 3.3463 10.295C2.91989 10.4368 2.68919 10.8974 2.83101 11.3238C2.97283 11.7503 3.43348 11.981 3.85989 11.8391Z" fill="white"/>
<path d="M5.82051 12.7067C6.17167 12.5899 6.36166 12.2105 6.24486 11.8594C6.12807 11.5082 5.74872 11.3182 5.39755 11.435C5.04639 11.5518 4.8564 11.9312 4.9732 12.2823C5.08999 12.6335 5.46934 12.8235 5.82051 12.7067Z" fill="white"/>
<path d="M7.55722 13.4783C7.84567 13.3824 8.00173 13.0707 7.9058 12.7823C7.80986 12.4938 7.49825 12.3378 7.20979 12.4337C6.92134 12.5296 6.76527 12.8413 6.86121 13.1297C6.95715 13.4182 7.26876 13.5742 7.55722 13.4783Z" fill="white"/>
<path d="M9.03346 14.0831C9.24667 14.0122 9.36202 13.7819 9.29111 13.5687C9.2202 13.3555 8.98987 13.2401 8.77667 13.3111C8.56346 13.382 8.44811 13.6123 8.51902 13.8255C8.58993 14.0387 8.82026 14.1541 9.03346 14.0831Z" fill="white"/>
<path d="M26.4961 22.5013C26.7328 22.0286 26.5415 21.4534 26.0688 21.2167C25.596 20.98 25.0209 21.1713 24.7841 21.644C24.5474 22.1168 24.7387 22.6919 25.2114 22.9287C25.6842 23.1654 26.2593 22.9741 26.4961 22.5013Z" fill="white"/>
<path d="M23.6411 21.7229C24.0675 21.5811 24.2983 21.1205 24.1564 20.694C24.0146 20.2676 23.554 20.0369 23.1276 20.1788C22.7011 20.3206 22.4704 20.7812 22.6123 21.2076C22.7541 21.634 23.2147 21.8648 23.6411 21.7229Z" fill="white"/>
<path d="M21.5939 20.5797C21.9451 20.4629 22.1351 20.0836 22.0183 19.7324C21.9015 19.3813 21.5222 19.1913 21.171 19.3081C20.8198 19.4249 20.6298 19.8042 20.7466 20.1554C20.8634 20.5065 21.2428 20.6965 21.5939 20.5797Z" fill="white"/>
<path d="M19.776 19.5818C20.0644 19.4859 20.2205 19.1743 20.1245 18.8858C20.0286 18.5973 19.717 18.4413 19.4285 18.5372C19.1401 18.6332 18.984 18.9448 19.08 19.2332C19.1759 19.5217 19.4875 19.6778 19.776 19.5818Z" fill="white"/>
<path d="M18.2053 18.6837C18.4185 18.6128 18.5339 18.3825 18.463 18.1693C18.3921 17.9561 18.1617 17.8407 17.9485 17.9116C17.7353 17.9826 17.62 18.2129 17.6909 18.4261C17.7618 18.6393 17.9921 18.7546 18.2053 18.6837Z" fill="white"/>
<path d="M26.0688 10.7755C26.5415 10.5387 26.7328 9.96359 26.4961 9.49085C26.2593 9.01811 25.6842 8.82679 25.2114 9.06353C24.7387 9.30027 24.5474 9.87542 24.7841 10.3482C25.0209 10.8209 25.596 11.0122 26.0688 10.7755Z" fill="white"/>
<path d="M24.1525 11.2981C24.2943 10.8717 24.0636 10.4111 23.6372 10.2693C23.2108 10.1274 22.7502 10.3581 22.6084 10.7846C22.4665 11.211 22.6972 11.6716 23.1236 11.8134C23.5501 11.9553 24.0107 11.7246 24.1525 11.2981Z" fill="white"/>
<path d="M22.0066 12.2588C22.1234 11.9076 21.9334 11.5283 21.5822 11.4115C21.2311 11.2947 20.8517 11.4847 20.7349 11.8358C20.6181 12.187 20.8081 12.5664 21.1593 12.6832C21.5104 12.8 21.8898 12.61 22.0066 12.2588Z" fill="white"/>
<path d="M20.1441 13.1161C20.24 12.8277 20.0839 12.5161 19.7955 12.4201C19.507 12.3242 19.1954 12.4803 19.0995 12.7687C19.0036 13.0572 19.1596 13.3688 19.4481 13.4647C19.7365 13.5607 20.0481 13.4046 20.1441 13.1161Z" fill="white"/>
<path d="M18.4591 13.8297C18.53 13.6165 18.4146 13.3862 18.2014 13.3153C17.9882 13.2444 17.7579 13.3597 17.687 13.5729C17.6161 13.7861 17.7314 14.0165 17.9446 14.0874C18.1578 14.1583 18.3882 14.0429 18.4591 13.8297Z" fill="white"/>
<path d="M40.9131 16.1412L36.9884 20.1377V27.1974H34.332V5.22852H36.9884V16.548L48.0446 5.22852H51.5386L42.7798 14.1788L51.6343 27.1974H48.4275L40.9131 16.1412Z" fill="white"/>
<path d="M67.4229 19.8483H54.859C55.0026 21.5474 55.5769 22.8397 56.5342 23.773C57.5154 24.7063 58.7598 25.161 60.2914 25.161C61.5119 25.161 62.517 24.9456 63.3307 24.5388C64.0965 24.1559 64.6947 23.5097 64.9819 22.6961L67.2075 23.8687C66.5853 24.9935 65.6759 25.9268 64.5512 26.5729C63.4503 27.1951 62.0144 27.5063 60.2914 27.5063C57.7786 27.5063 55.8163 26.7405 54.3804 25.2089C52.9445 23.6773 52.2505 21.5474 52.2266 18.8431C52.2266 16.1389 52.9206 14.009 54.2847 12.4774C55.6487 10.9458 57.5872 10.18 60.0999 10.18C61.5119 10.1322 62.8999 10.4911 64.1204 11.2091C65.2212 11.8791 66.1306 12.8364 66.681 14.009C67.2793 15.2534 67.5665 16.5936 67.5426 17.9816C67.5426 18.6278 67.5186 19.25 67.4229 19.8483ZM56.5342 13.8415C55.6248 14.703 55.0983 15.9235 54.8829 17.503H64.9819C64.8144 15.9475 64.2879 14.727 63.4503 13.8654C62.6127 13.0039 61.488 12.5492 60.0999 12.5492C58.6401 12.5253 57.4436 12.956 56.5342 13.8415Z" fill="white"/>
<path d="M84.3716 11.832C85.5921 12.9089 86.2143 14.4883 86.2143 16.5225V27.1719H83.5579V17.4558C83.5579 15.7328 83.1989 14.4644 82.4571 13.6747C81.7152 12.8849 80.7101 12.502 79.4657 12.526C78.6041 12.526 77.7426 12.7174 76.9768 13.1003C76.1631 13.5311 75.4931 14.1772 75.0623 14.9909C74.5597 15.8763 74.3204 16.9772 74.3204 18.2934V27.148H71.6641V10.4918H73.9854L74.1529 13.1003C74.6555 12.1431 75.4691 11.3533 76.4503 10.8747C77.4794 10.3961 78.6041 10.1328 79.7528 10.1568C81.5955 10.2046 83.1511 10.7551 84.3716 11.832Z" fill="white"/>
<path d="M105.372 19.8483H92.8082C92.9518 21.5474 93.5262 22.8397 94.4834 23.773C95.4646 24.7063 96.709 25.161 98.2406 25.161C99.4611 25.161 100.466 24.9456 101.28 24.5388C102.046 24.1559 102.644 23.5097 102.931 22.6961L105.157 23.8687C104.535 24.9935 103.625 25.9268 102.5 26.5729C101.4 27.1951 99.9637 27.5063 98.2406 27.5063C95.7278 27.5063 93.7655 26.7405 92.3296 25.2089C90.9177 23.6773 90.1997 21.5474 90.1758 18.8431C90.1758 16.1389 90.8698 14.009 92.2339 12.4774C93.598 10.9458 95.5364 10.18 98.0492 10.18C99.4611 10.1322 100.849 10.4911 102.07 11.2091C103.17 11.8791 104.08 12.8364 104.63 14.009C105.229 15.2534 105.516 16.5936 105.492 17.9816C105.516 18.6278 105.468 19.25 105.372 19.8483ZM94.5073 13.8415C93.598 14.703 93.0475 15.9235 92.8561 17.503H102.955C102.788 15.9475 102.261 14.727 101.423 13.8654C100.586 13.0039 99.4611 12.5492 98.0731 12.5492C96.5894 12.5253 95.4167 12.956 94.5073 13.8415Z" fill="white"/>
<path d="M119.284 26.0232C118.183 27.0283 116.747 27.5308 114.976 27.5308C113.612 27.5308 112.512 27.1719 111.674 26.43C110.812 25.6881 110.382 24.5634 110.358 23.0796V12.861H107.031V10.5636H110.358V6.56707L113.014 5.8252V10.5636H119.164V12.861H113.014V22.6249C113.014 23.4147 113.229 24.0369 113.684 24.4437C114.187 24.8745 114.833 25.0899 115.503 25.0659C116.58 25.0659 117.609 24.6112 118.327 23.8215L119.284 26.0232Z" fill="white"/>
<path d="M121.92 6.77911C121.537 6.39621 121.345 5.86972 121.369 5.3193C121.369 4.21846 122.255 3.33301 123.355 3.33301C124.456 3.33301 125.342 4.21846 125.342 5.3193C125.318 6.44407 124.385 7.35346 123.236 7.32952C122.781 7.32952 122.303 7.13808 121.92 6.77911ZM124.696 27.1925H122.039V10.5363H124.696V27.1925Z" fill="white"/>
<path d="M141.136 11.3538C142.333 12.1675 143.242 13.3161 143.816 14.6324L141.28 15.8289C140.562 13.6273 139.102 12.5264 136.852 12.5264C135.177 12.5264 133.885 13.0768 132.952 14.2016C132.018 15.3264 131.54 16.8819 131.54 18.8443C131.54 20.8306 132.018 22.3622 132.952 23.4869C133.885 24.6117 135.201 25.1621 136.852 25.1621C138.145 25.1621 139.174 24.875 139.963 24.2767C140.777 23.6545 141.328 22.7451 141.519 21.716L143.984 22.5776C143.481 24.0134 142.548 25.2818 141.328 26.1912C140.131 27.0527 138.671 27.4835 136.924 27.4835C134.411 27.4835 132.449 26.7177 131.013 25.1861C129.601 23.6545 128.883 21.5246 128.859 18.8203C128.859 16.1161 129.577 13.9862 131.013 12.4546C132.449 10.923 134.411 10.1572 136.924 10.1572C138.599 10.2051 139.987 10.588 141.136 11.3538Z" fill="white"/>
</g>
<defs>
<clipPath id="clip0_7105_38353">
<rect width="144.2" height="27" fill="white" transform="translate(0 2.5)"/>
</clipPath>
</defs>
</svg>
