<svg width="109" height="33" viewBox="0 0 109 33" fill="none" xmlns="http://www.w3.org/2000/svg">
<path fill-rule="evenodd" clip-rule="evenodd" d="M20.5613 0.160759C19.9882 0.443256 19.6218 1.14875 19.7665 1.69098L19.8437 1.98016L19.486 1.93779C18.5168 1.82299 17.7214 2.85726 18.0937 3.74826C18.16 3.90701 18.2143 4.04292 18.2143 4.05021C18.2143 4.05757 18.1004 4.05021 17.9612 4.03398C17.4049 3.96907 16.8584 4.50859 16.8029 5.1775C16.7625 5.66436 16.924 6.06286 17.3953 6.6392C17.9949 7.37242 17.9884 7.25761 17.4625 7.82997C15.9974 9.42428 14.4326 11.9163 13.0622 14.8376C12.1077 16.8723 10.6968 20.2285 9.35091 23.6657C8.05683 26.9705 6.84532 27.8867 5.28452 26.741C4.17406 25.9258 3.14452 23.9787 2.68532 21.825C2.4926 20.921 2.4929 19.0185 2.68592 18.465C2.86744 17.9445 3.37916 17.3848 3.8806 17.1582C4.24536 16.9933 4.37076 16.9792 5.44177 16.9828C6.91948 16.9877 7.48154 17.116 9.83702 17.986C10.0491 18.0643 10.0535 18.0623 9.91215 17.9518C9.8295 17.8873 9.28855 17.5508 8.71003 17.2042C4.61682 14.7516 1.90273 14.5044 0.895358 16.4924C0.560944 17.1523 0.454181 17.7688 0.45313 19.0451C0.451852 20.6494 0.717223 21.9528 1.38785 23.6363C2.13587 25.5138 2.89178 26.7355 3.9664 27.8038C4.60352 28.4373 4.83733 28.6152 5.39647 28.8923C6.01961 29.201 6.10624 29.2236 6.67372 29.2245C7.17327 29.2254 7.35667 29.1906 7.69574 29.0312C8.84474 28.4909 9.79727 27.096 11.0091 24.1786C12.3618 20.922 14.2493 17.3294 15.8375 14.9879C19.7687 9.19235 24.6403 6.82726 29.3819 8.4124C31.3094 9.05674 33.0434 10.2013 34.7487 11.9549C36.3079 13.5582 37.4873 15.4126 38.3401 17.6017C39.1377 19.6491 39.4476 21.3794 39.379 23.4027C39.2822 26.2625 38.4545 28.0086 36.8123 28.818C34.5678 29.9242 31.2543 29.3009 25.5628 26.7021C23.6797 25.8424 18.4435 23.1634 16.0918 21.8566C15.4823 21.5179 14.9836 21.251 14.9836 21.2635C14.9836 21.3091 19.0367 24.3011 20.2429 25.1459C21.5221 26.0418 23.1228 27.085 24.2061 27.7286C24.547 27.9312 24.8259 28.1214 24.8259 28.1515C24.8259 28.1815 24.7301 28.3171 24.6129 28.4528C23.9539 29.2165 23.8577 29.5837 24.2214 29.9474C24.3962 30.1221 24.4848 30.1589 24.6383 30.1203C24.8164 30.0756 24.8293 30.0876 24.7866 30.2576C24.7077 30.5722 24.9229 30.9619 25.2319 31.0638C25.469 31.1421 25.5021 31.1832 25.5021 31.3992C25.5021 31.7639 25.7903 32.043 26.167 32.043C26.4245 32.043 26.6371 31.9213 27.7916 31.1126L29.1198 30.1822L29.8258 30.4346C31.8069 31.1427 34.0088 31.4664 35.695 31.2976C38.6201 31.0047 40.7697 29.6323 42.1769 27.1594C43.1764 25.4029 43.6174 23.5184 43.6184 20.9985C43.62 16.7374 41.9769 12.2577 39.1028 8.68738C35.8044 4.59004 31.3437 2.43637 26.9432 2.81669L25.9424 2.90316L23.9754 1.59323C22.8936 0.872787 21.9003 0.227775 21.768 0.159931C21.4634 0.00365552 20.8793 0.00403245 20.5613 0.160759ZM95.972 6.8655C95.39 7.05483 94.9764 7.43989 94.7741 7.98077C94.4057 8.9653 94.7292 10.076 95.5197 10.5407C95.8392 10.7286 95.9249 10.7429 96.7276 10.7429C97.4829 10.7429 97.632 10.7214 97.912 10.5719C98.2867 10.3717 98.6474 9.90723 98.7638 9.47507C98.8757 9.05974 98.817 8.17393 98.6557 7.84222C98.4826 7.48632 98.1455 7.14769 97.7972 6.97992C97.4866 6.83026 96.3075 6.75641 95.972 6.8655ZM104.98 6.88308C104.586 6.99405 104.099 7.44259 103.893 7.88369C103.759 8.17152 103.717 8.39091 103.719 8.78949C103.723 9.70896 104.053 10.2927 104.746 10.61C105.115 10.7788 105.23 10.7943 105.92 10.7688C106.593 10.7438 106.728 10.7152 107.042 10.5309C107.669 10.1634 107.963 9.52316 107.906 8.64771C107.853 7.84455 107.527 7.31877 106.871 6.98075C106.56 6.8208 105.412 6.76151 104.98 6.88308ZM55.3297 18.181V28.9625H57.1329H58.936V23.9287V18.8948L59.894 18.8988L60.8519 18.9028L65.0058 23.9326L69.1597 28.9625H71.3488H73.538L73.3848 28.7935C72.9506 28.3141 63.5786 16.9881 63.5462 16.9036C63.5245 16.8471 65.2088 14.7953 67.4581 12.1379C69.6305 9.57132 71.408 7.45521 71.408 7.43545C71.408 7.4157 70.5037 7.40007 69.3982 7.40067L67.3884 7.40172L63.5458 11.965C61.4323 14.4747 59.539 16.7239 59.3384 16.9632L58.9736 17.3983L58.9543 12.3989L58.935 7.39954H57.1323H55.3297V18.181ZM80.8543 12.6177C78.6966 12.9968 76.8586 14.0882 75.6089 15.7322C75.0786 16.4299 74.4518 17.736 74.2172 18.6318C73.9481 19.6599 73.8815 21.5147 74.0727 22.6582C74.3646 24.4035 75.1078 25.8787 76.2982 27.0749C77.8831 28.6676 80.0132 29.4876 82.5652 29.4876C85.1817 29.4876 87.2927 28.6512 88.8991 26.978C89.9298 25.9043 90.5344 24.8147 90.9176 23.3404C91.1804 22.3289 91.2449 20.5336 91.0585 19.4184C90.5656 16.4713 88.7127 14.1763 85.9461 13.0864C85.5742 12.9399 85.0164 12.7638 84.7065 12.6952C83.9351 12.5245 81.6471 12.4784 80.8543 12.6177ZM93.2716 14.3473V15.6602L94.4173 15.6809L95.5631 15.7017L95.5823 22.3321L95.6015 28.9625H97.3291H99.0568V20.9985V13.0345H96.1642H93.2716V14.3473ZM102.363 14.3473V15.6602L103.508 15.6809L104.654 15.7017L104.673 22.3321L104.693 28.9625H106.42H108.148V20.9985V13.0345H105.255H102.363V14.3473ZM31.4752 14.9659C30.9643 15.1401 30.3074 15.7932 30.136 16.2973C29.7545 17.4191 30.2271 18.5639 31.3082 19.1372C31.5603 19.2709 31.7489 19.3055 32.2265 19.3056C32.941 19.3058 33.371 19.1403 33.8186 18.6926C34.2775 18.2337 34.4706 17.7603 34.4716 17.0916C34.473 16.1446 34.0078 15.4112 33.1707 15.0409C32.7072 14.8359 31.954 14.8026 31.4752 14.9659ZM81.3631 15.6347C79.3501 16.0501 77.8164 17.7795 77.4961 19.995C77.1522 22.3739 78.0297 24.6225 79.7251 25.7071C81.1996 26.6503 83.3888 26.7319 85.038 25.9053C85.7823 25.5322 86.6747 24.6227 87.0554 23.8492C87.513 22.9195 87.6563 22.2549 87.662 21.0361C87.668 19.7808 87.5572 19.2647 87.0589 18.2253C86.2356 16.508 84.5415 15.5 82.512 15.52C82.1693 15.5233 81.6523 15.5749 81.3631 15.6347Z" fill="#FAFAFA"/>
</svg>
