<svg width="96" height="32" viewBox="0 0 96 32" fill="none" xmlns="http://www.w3.org/2000/svg">
<mask id="mask0_756_1894" style="mask-type:luminance" maskUnits="userSpaceOnUse" x="0" y="3" width="96" height="26">
<path d="M0 3.41016H95.4311V28.5905H0V3.41016Z" fill="white"/>
</mask>
<g mask="url(#mask0_756_1894)">
<path d="M24.3415 28.5905C24.3187 28.5661 24.2982 28.526 24.2738 28.5228C24.0614 28.4905 23.8489 28.4772 23.6396 28.4363C23.4051 28.3966 23.1746 28.3358 22.9511 28.2545C22.617 28.126 22.2932 27.9724 21.9824 27.7949C21.6659 27.6122 21.3692 27.397 21.0972 27.1528C20.7439 26.8247 20.3992 26.4785 20.1159 26.0906C19.8751 25.7601 19.7256 25.3619 19.5447 24.9913C19.4656 24.8344 19.3998 24.6712 19.3479 24.5034C19.2905 24.3177 19.2504 24.1273 19.2102 23.9368C18.923 22.6062 19.0678 21.2567 19.056 19.9159C19.034 17.4025 19.0497 14.8877 19.0497 12.3728V12.1076H25.071V12.405C25.071 15.7147 25.0662 19.0251 25.0772 22.3347C25.0772 22.7022 25.2055 23.0571 25.4313 23.3593C25.5651 23.5379 25.7178 23.7031 25.8641 23.8715C26.1277 24.1753 26.4842 24.2909 26.8635 24.3586C26.9736 24.3775 27.0799 24.4224 27.1908 24.4334C27.6913 24.4853 28.1304 24.2972 28.5639 24.0753C28.9668 23.8707 29.195 23.5182 29.3957 23.1374C29.5885 22.7715 29.6593 22.3843 29.6577 21.9704C29.6506 18.782 29.6538 15.5943 29.6538 12.4066V12.1076H35.675V12.3594C35.675 15.7406 35.6719 19.1211 35.6797 22.5C35.6797 22.8541 35.8292 23.1688 36.0559 23.4427C36.1393 23.5442 36.2038 23.6646 36.2967 23.7574C36.6114 24.0706 36.9852 24.2791 37.4274 24.3555C37.6438 24.3917 37.8704 24.4546 38.079 24.4263C38.5228 24.3633 38.9579 24.265 39.3191 23.9502C39.6527 23.6591 39.9195 23.3286 40.0769 22.9194C40.143 22.7471 40.2028 22.5574 40.2028 22.3749C40.2106 19.0464 40.2075 15.7163 40.2075 12.3893V12.0997H46.2153V28.2781C45.526 28.2238 44.8674 28.1435 44.2237 27.9319C43.5769 27.7178 43.0253 27.3441 42.4698 26.9616C41.9111 26.5761 41.5491 26.0095 41.0888 25.5059C40.7079 26.1165 40.2862 26.6272 39.7865 27.0631C39.4765 27.3338 39.1074 27.5353 38.7746 27.7839C38.3874 28.0751 37.9153 28.1624 37.4817 28.341C37.3353 28.4024 37.167 28.415 37.008 28.437C36.7861 28.4709 36.5618 28.4921 36.3399 28.5236C36.3171 28.5275 36.3014 28.5677 36.2817 28.5897H34.933C34.9172 28.5677 34.9015 28.5228 34.8858 28.5244C34.5624 28.5386 34.2555 28.4646 33.9517 28.3607C33.6433 28.2561 33.3175 28.1931 33.0271 28.0538C32.3879 27.7437 31.8137 27.3145 31.3353 26.7893C31.2071 26.65 31.0544 26.5312 30.9403 26.3817C30.7641 26.1472 30.6114 25.8954 30.443 25.6428C30.4013 25.6743 30.3659 25.69 30.3431 25.7184C30.1377 25.9804 29.9481 26.2597 29.7246 26.5052C29.4437 26.8137 29.1596 27.1332 28.8275 27.3787C28.3554 27.7288 27.8424 28.0231 27.2742 28.2175C26.7911 28.3827 26.3087 28.526 25.7933 28.5212C25.7453 28.5212 25.6973 28.5661 25.647 28.5897H24.3368L24.3415 28.5905ZM95.4264 14.1976C95.1195 14.5092 94.8102 14.8192 94.5065 15.134C94.4003 15.2441 94.32 15.381 94.2091 15.4873C93.8369 15.8437 93.4513 16.1876 93.0783 16.5456C92.7722 16.8407 92.4779 17.1476 92.1789 17.4506C91.7587 17.877 91.3361 18.2996 90.9199 18.7277C90.5012 19.1612 90.0913 19.605 89.6711 20.0386C89.557 20.1543 89.409 20.2377 89.2934 20.3518C88.9062 20.7311 88.527 21.1174 88.1453 21.5006L87.5363 22.1066C87.1656 22.478 86.8005 22.8572 86.4189 23.2153C86.3386 23.2908 86.1875 23.3231 86.0687 23.3231C84.4831 23.3294 82.8968 23.3278 81.3112 23.3278C79.8917 23.3278 78.4737 23.3294 77.0542 23.3246C76.8818 23.3246 76.7536 23.3679 76.6316 23.4962C76.3908 23.7504 76.1319 23.988 75.8919 24.2398C75.1877 24.922 74.4779 25.6003 73.7807 26.2873C73.0875 26.9734 72.4045 27.6698 71.7348 28.345H70.0351C70.2413 28.1522 70.4278 27.9885 70.6017 27.8115C71.0424 27.3669 71.4751 26.9144 71.9158 26.469C72.3014 26.0819 72.6948 25.7026 73.0828 25.3178C73.9735 24.4286 74.869 23.5442 75.7503 22.6464C75.84 22.5551 75.888 22.3867 75.8896 22.2529C75.8969 19.2517 75.8974 16.2503 75.8911 13.2486C75.8866 13.1601 75.9015 13.0717 75.9348 12.9895C75.9681 12.9074 76.019 12.8336 76.0839 12.7733C76.6411 12.2288 77.1903 11.6764 77.7411 11.1271C78.528 10.3418 79.3133 9.55337 80.1057 8.77278C80.2245 8.65475 80.3756 8.56976 80.5519 8.43835V17.7889C80.6534 17.7275 80.7171 17.7031 80.762 17.6599C81.035 17.3931 81.3112 17.1303 81.567 16.8494C81.6346 16.7754 81.6582 16.6401 81.6598 16.5346C81.6651 13.5523 81.6651 10.57 81.6598 7.58773C81.6598 7.31547 81.7196 7.11166 81.9376 6.93855C82.1272 6.78747 82.2846 6.59783 82.4569 6.42707C83.2367 5.64884 84.0142 4.86668 84.8042 4.09789C84.9569 3.94839 85.1418 3.84216 85.3959 3.84216C88.6513 3.8516 91.9066 3.84845 95.162 3.84845C95.2517 3.84845 95.3414 3.84373 95.4311 3.84058V14.1976H95.4264ZM93.6645 14.2534C93.6525 14.2345 93.6401 14.2154 93.6275 14.196H93.4017C91.0072 14.196 88.6127 14.1991 86.2174 14.1913C86.1261 14.1864 86.0349 14.2031 85.9513 14.24C85.8676 14.2769 85.7938 14.333 85.7359 14.4037C85.4746 14.702 85.211 15.0018 84.9317 15.285C84.7593 15.4582 84.5414 15.5848 84.3706 15.7603C83.8088 16.3347 83.2627 16.9265 82.7024 17.5009C82.5144 17.6937 82.283 17.8448 82.095 18.0376C81.43 18.7182 80.7769 19.4107 80.1152 20.0929C80.0026 20.2086 79.8578 20.2936 79.7406 20.4061C79.3928 20.7429 79.0481 21.0828 78.7066 21.4259C78.5256 21.6069 78.3517 21.7942 78.1416 22.0121C78.2518 22.0271 78.3069 22.0397 78.362 22.0397C80.7819 22.0397 83.2018 22.0391 85.6218 22.0381C85.6926 22.0381 85.7823 22.0168 85.8311 21.9704C86.5054 21.322 87.1735 20.6697 87.8416 20.0142C88.1931 19.6706 88.5422 19.3244 88.8889 18.9755C89.21 18.6529 89.5279 18.3248 89.8473 17.999C91.1079 16.74 92.4205 15.5305 93.6661 14.255L93.6645 14.2534ZM86.3496 12.0069L88.656 9.69107C88.6529 9.66511 88.6576 9.59114 88.6363 9.5274C88.5083 9.16348 88.5116 8.76623 88.6458 8.40452C88.8818 7.73566 89.5924 7.24229 90.3006 7.22576C90.6083 7.21947 90.8624 7.33199 91.1355 7.44294C91.5997 7.6318 92.0876 8.37934 92.0986 8.87035C92.1136 9.52898 91.8578 10.0625 91.3188 10.4331C90.8514 10.7557 90.3321 10.8714 89.7702 10.6818C89.7297 10.67 89.6872 10.6665 89.6453 10.6715C89.6034 10.6765 89.5629 10.6899 89.5263 10.7109C89.3684 10.8174 89.2218 10.9372 89.0864 11.0705C88.5671 11.5788 88.0525 12.0916 87.5426 12.6088C87.4883 12.6639 87.4686 12.7505 87.4143 12.8599H94.3216V5.17042H86.3512V12.0085L86.3496 12.0069ZM54.2007 28.5905C54.1416 28.5661 54.085 28.5275 54.0228 28.5197C53.775 28.4858 53.5153 28.4984 53.2808 28.426C52.8784 28.3033 52.4866 28.1535 52.1052 27.9767C51.6721 27.7744 51.2652 27.5202 50.8934 27.2197C50.5235 26.9262 50.2529 26.5603 49.9751 26.1952C49.7815 25.9403 49.584 25.6798 49.4439 25.3942C49.2804 25.0531 49.1492 24.6974 49.0521 24.3319C48.9639 24.0029 48.9238 23.6599 48.8852 23.3191C48.8435 22.943 48.8081 22.5637 48.8066 22.1868C48.8003 18.9173 48.8034 15.6454 48.8034 12.3759V12.1005H54.8223V12.3618C54.8223 15.6887 54.8192 19.0188 54.827 22.3458C54.827 22.6999 54.9451 23.0366 55.1677 23.3254C55.2511 23.4348 55.3251 23.5521 55.4117 23.6599C55.6414 23.9471 55.9593 24.1163 56.2883 24.2477C56.4748 24.3224 56.6896 24.3326 56.8957 24.35C57.1011 24.3681 57.1924 24.4365 57.1948 24.6411C57.1979 25.6995 57.1948 26.7578 57.1955 27.8138C57.1955 27.9586 57.1318 28.0483 57.0035 28.116C56.6675 28.2883 56.3095 28.3843 55.9389 28.4386C55.7658 28.4646 55.5919 28.489 55.4195 28.5212C55.3826 28.5275 55.3503 28.5661 55.3172 28.5897H54.1999L54.2007 28.5905ZM18.5603 28.2694H11.5649C9.75816 25.4784 7.94361 22.6723 6.10151 19.8285C6.09364 19.9544 6.08341 20.0449 6.08341 20.1354C6.08341 22.297 6.08971 24.4585 6.07711 26.6185C6.07397 27.1544 6.00315 27.6895 5.96302 28.2537H0V6.69462H6.08341V6.98655C6.08446 9.78891 6.08393 12.5915 6.08184 15.3944C6.08184 15.7233 6.21167 16.0058 6.37298 16.271C6.49652 16.4756 6.66807 16.6503 6.82938 16.8297C7.10164 17.135 7.47777 17.3121 7.84997 17.3664C8.4118 17.4482 8.98859 17.4293 9.50715 17.0949C9.99895 16.7786 10.3444 16.3591 10.5018 15.7989C10.5592 15.5904 10.582 15.3653 10.5836 15.1465C10.5915 14.2298 10.5868 13.3131 10.5868 12.3956V12.1595C10.7426 12.0635 16.3468 12.036 16.6096 12.1281V12.3429C16.6096 13.7223 16.6159 15.1001 16.6025 16.4795C16.6009 16.7077 16.545 16.9406 16.4766 17.161C16.3412 17.5898 16.1776 18.0085 16.0281 18.4326C16.0147 18.468 16.0202 18.5081 16.0068 18.5372C15.5127 19.4894 14.7478 20.1818 13.8405 20.7681C14.0687 21.1222 14.282 21.4534 14.4929 21.7863C14.6612 22.0507 14.8249 22.319 14.9933 22.5826C15.1782 22.8698 15.3726 23.1523 15.5559 23.4419C15.7165 23.6953 15.8644 23.9589 16.0265 24.213C16.2122 24.5034 16.4121 24.7875 16.6025 25.077C16.8359 25.428 17.0673 25.7808 17.2965 26.1354C17.4767 26.4132 17.6483 26.6972 17.8245 26.9766C18.0496 27.3299 18.2778 27.6816 18.4981 28.0365C18.5327 28.0924 18.5327 28.1711 18.5571 28.2694H18.5603ZM58.682 6.69304H64.7489V28.26H58.682V6.69304ZM48.0063 7.17934L51.814 3.41016L55.6359 7.2053L54.6791 8.15744C53.7954 9.03875 52.9141 9.92085 52.0273 10.799C51.9588 10.8683 51.8573 10.9052 51.7723 10.9548C50.4952 9.67534 49.2496 8.42734 48.0063 7.17934Z" fill="white"/>
</g>
</svg>
