<svg width="93" height="32" viewBox="0 0 93 32" fill="none" xmlns="http://www.w3.org/2000/svg">
<g clip-path="url(#clip0_757_2199)">
<path fill-rule="evenodd" clip-rule="evenodd" d="M1.66686 4.30917C1.34986 4.47933 0.863531 4.89867 0.586198 5.24133L0.0820312 5.86433V16V26.1357L0.586198 26.7587C1.64303 28.0643 1.05303 28.0003 11.996 27.9973L21.7487 27.9945L22.4104 27.6197C22.9827 27.2955 23.8454 26.3185 23.8254 26.017C23.8217 25.9618 20.2592 24.1972 15.9087 22.0957L7.9987 18.2747V11.1373V4H5.12103C2.6367 4 2.1647 4.04217 1.66686 4.30917ZM10.6654 7.98633C10.6654 10.1788 10.6199 12.0913 10.5642 12.2363C10.5085 12.3813 10.5274 12.4977 10.6059 12.4948C10.7244 12.4907 15.1294 4.67983 15.3042 4.164C15.3389 4.06167 14.478 4 13.0125 4H10.6654V7.98633ZM17.2749 5.625C14.2234 11.078 12.6854 13.9088 12.743 13.9665C12.7792 14.0027 15.3265 12.5208 18.4037 10.6737C24.552 6.98283 24.2997 7.20967 23.7424 5.87567C23.1334 4.41817 22.2839 4 19.9314 4H18.1842L17.2749 5.625ZM18.8445 13.2302L13.7737 16.25L18.8282 16.2942C21.608 16.3185 23.9105 16.3105 23.9445 16.2763C23.9785 16.2423 23.9859 14.8637 23.9609 13.2125L23.9154 10.2105L18.8445 13.2302ZM14.8319 18.8382C14.832 18.8865 16.8757 19.9133 19.3737 21.12L23.9154 23.3137L23.962 21.134C23.9877 19.9353 23.985 18.9307 23.956 18.9017C23.8635 18.8093 14.8317 18.7463 14.8319 18.8382Z" fill="white"/>
<path fill-rule="evenodd" clip-rule="evenodd" d="M75.4974 11.1675V13.6687L74.8186 13.1768C72.9924 11.854 70.1026 12.2805 68.4962 14.11C67.5289 15.2117 67.2477 16.0502 67.2476 17.8332C67.2474 19.1935 67.3089 19.5477 67.6841 20.3475C68.5467 22.1872 69.9677 23.1683 71.9574 23.2982C73.3302 23.3878 74.2822 23.114 75.0391 22.4117L75.4974 21.9863V22.5765V23.1665H76.8307H78.1641V15.9165V8.6665H76.8307H75.4974V11.1675ZM32.1641 16.4165V23.1665H36.5807H40.9974V21.9165V20.6665H37.9141H34.8307V15.1665V9.6665H33.4974H32.1641V16.4165ZM81.8481 12.7023C83.0544 14.3785 84.1477 15.8723 84.2776 16.0218C84.4872 16.2635 84.2424 16.6672 82.0889 19.6327C80.7552 21.469 79.6641 23.0153 79.6641 23.069C79.6641 23.1227 80.3952 23.1628 81.2891 23.1583L82.9141 23.15L84.5236 20.9053L86.1331 18.6607L87.7736 20.9095L89.4141 23.1583L91.0391 23.1623C91.9327 23.1647 92.6641 23.1328 92.6641 23.0917C92.6641 23.0505 91.5714 21.5123 90.2361 19.6735L87.8081 16.3303L90.1527 13.093C91.4422 11.3125 92.4974 9.813 92.4974 9.761C92.4974 9.709 91.7661 9.66884 90.8724 9.67167L89.2474 9.677L87.7489 11.7557C86.9247 12.8988 86.1892 13.8138 86.1144 13.7888C86.0397 13.764 85.3236 12.845 84.5231 11.7467L83.0676 9.74984L81.3611 9.70234L79.6546 9.65467L81.8481 12.7023ZM45.8617 12.5935C44.6917 12.9083 43.6552 13.6423 43.0144 14.6098C42.3324 15.6393 42.0971 16.4902 42.0992 17.9165C42.1021 19.6515 42.5234 20.7193 43.6491 21.8438C44.7189 22.9125 45.7086 23.3332 47.1532 23.3332C48.3681 23.3332 49.0914 23.114 49.8262 22.5235L50.4256 22.0418L50.3599 22.6042L50.2942 23.1665H51.6459H52.9974V17.9165V12.6665H51.6422H50.2871L50.3826 13.2545L50.4779 13.8425L49.8026 13.2643C49.3761 12.8993 48.8236 12.6212 48.3041 12.5097C47.2684 12.2875 46.9589 12.2982 45.8617 12.5935ZM60.4651 12.5582C59.6636 12.7822 59.4202 12.9262 58.6224 13.6477L58.1641 14.0622V13.3643V12.6665H56.8307H55.4974V17.9165V23.1665H56.8307H58.1641V20.2018C58.1641 17.4558 58.1917 17.183 58.5391 16.5032C59.0129 15.5758 59.5959 15.1498 60.5201 15.0557C61.3814 14.9678 62.2456 15.4207 62.5016 16.0942C62.5909 16.3292 62.6641 18.0167 62.6641 19.844V23.1665H64.0079H65.3519L65.2996 19.0415L65.2474 14.9165L64.7846 14.1293C63.9587 12.7243 62.1824 12.0782 60.4651 12.5582ZM46.3976 15.3173C45.4352 15.7545 44.9467 16.5092 44.8612 17.6908C44.8026 18.5018 44.8596 18.7697 45.2221 19.3885C46.2451 21.134 48.8166 21.1893 49.9694 19.4908C50.3051 18.9963 50.3512 18.7545 50.3016 17.7498C50.2341 16.3792 49.9221 15.8405 48.9031 15.3357C48.0637 14.9197 47.2859 14.914 46.3976 15.3173ZM71.6642 15.178C69.7007 16.0037 69.3186 18.941 71.0107 20.202C71.9429 20.8968 73.5397 20.8993 74.4846 20.2073C75.1347 19.7312 75.4969 18.8762 75.4971 17.8162C75.4974 16.7938 75.1261 16.061 74.2959 15.4462C73.7734 15.0592 72.3031 14.9093 71.6642 15.178Z" fill="#FCFCFC"/>
</g>
<defs>
<clipPath id="clip0_757_2199">
<rect width="92.6667" height="24" fill="white" transform="translate(0 4)"/>
</clipPath>
</defs>
</svg>
