<svg width="164" height="32" viewBox="0 0 164 32" fill="none" xmlns="http://www.w3.org/2000/svg">
<g clip-path="url(#clip0_449_651)">
<path d="M20.4999 13.599V22.198H25.3979H30.2959L30.1033 21.8816C29.9932 21.7165 29.6492 21.1936 29.3603 20.7121L28.8237 19.8591H25.8381H22.8388V12.4295V4.99996H21.6693H20.4999V13.599Z" fill="white"/>
<path d="M100.849 13.599V22.198H102.019H103.188V18.497V14.796L107.701 14.7409C111.567 14.6859 112.296 14.6446 112.846 14.4382C113.686 14.1218 114.525 13.2825 114.814 12.457C115.117 11.5627 115.227 9.54024 115.034 8.3295C114.841 7.11876 114.525 6.43084 113.865 5.85299C112.943 5.04124 112.544 4.99996 106.394 4.99996H100.849V13.599ZM111.622 7.49024C112.503 7.72413 112.695 8.21944 112.654 9.98051C112.613 11.3839 112.599 11.4802 112.227 11.8379L111.856 12.2231L107.522 12.2644L103.188 12.3057V9.91172C103.188 8.60467 103.229 7.47648 103.284 7.43521C103.436 7.2701 111.044 7.32514 111.622 7.49024Z" fill="white"/>
<path d="M5.64075 6.23818V7.33886H10.181H14.7213V11.9479V16.557H15.7532H16.7851V10.8473V5.13751H11.2129H5.64075V6.23818Z" fill="white"/>
<path d="M54.4832 7.25634V9.3889L50.8097 9.43018C46.6409 9.47145 46.5308 9.49897 45.8429 10.5309L45.4714 11.1087V15.7866C45.4714 20.4644 45.4714 20.4782 45.8016 21.0423C45.9805 21.3587 46.352 21.744 46.6409 21.9091C47.1362 22.1842 47.3288 22.198 51.9241 22.198H56.6846V13.6678V5.13755H55.5839H54.4832V7.25634ZM54.4144 15.8691V19.9279L51.0849 19.9691L47.7416 19.9966V15.8691V11.7416L51.0849 11.7691L54.4144 11.8104V15.8691Z" fill="white"/>
<path d="M129.191 6.30697V7.47644H130.292H131.393V6.30697V5.13751H130.292H129.191V6.30697Z" fill="white"/>
<path d="M33.364 9.554C32.7861 9.7191 32.0844 10.4345 31.9056 11.0399C31.823 11.3564 31.7818 13.1587 31.8093 16.1718C31.8505 20.6158 31.8643 20.8222 32.1395 21.1936C32.2908 21.4 32.6348 21.7165 32.8824 21.8953C33.3365 22.198 33.3915 22.198 37.918 22.198H42.5133V21.0973V19.9966L38.2895 19.9691L34.0519 19.9279V18.4832V17.0386L38.2895 16.9973L42.5271 16.9698L42.4858 13.9705L42.4445 10.9574L42.0455 10.4483C41.3163 9.48521 40.9724 9.40266 37.1475 9.41642C35.2902 9.41642 33.5841 9.48521 33.364 9.554ZM40.1744 13.255V14.7684L37.12 14.7409L34.0519 14.6997L34.0106 13.2137L33.9693 11.7416H37.0787H40.1744V13.255Z" fill="white"/>
<path d="M61.1835 9.59526C60.5644 9.82916 60.1792 10.1456 59.8627 10.7097C59.6701 11.0674 59.6426 11.7141 59.6426 15.8003C59.6426 20.0929 59.6701 20.5195 59.904 21.001C60.0416 21.2762 60.358 21.6476 60.5919 21.8265C61.0047 22.1154 61.1422 22.1292 64.7745 22.1705L68.5168 22.2117V23.7114V25.2248H64.802H61.0872V26.3255V27.4399L65.256 27.3987C69.3973 27.3574 69.4111 27.3574 69.8789 27.0272C70.1265 26.8483 70.4567 26.4493 70.5943 26.1329C70.8282 25.6101 70.8557 25.0735 70.8557 17.4788V9.40265H66.2879C62.7795 9.4164 61.5825 9.45768 61.1835 9.59526ZM68.5168 15.8691V19.9966H65.2147H61.9127V15.8691V11.7416H65.2147H68.5168V15.8691Z" fill="white"/>
<path d="M75.1759 9.66407C74.5293 9.96676 74.0752 10.4758 73.8689 11.1775C73.7726 11.4939 73.745 13.255 73.7726 16.158L73.8138 20.6433L74.1853 21.1936C74.832 22.1842 74.9283 22.198 79.9914 22.198H84.4766V21.0973V19.9966H80.2803H76.084V18.4832V16.9698H80.2803H84.4766V14.0805C84.4766 10.7785 84.3803 10.3933 83.4172 9.80166C82.9082 9.48521 82.7981 9.47145 79.3172 9.43018C76.0565 9.40266 75.685 9.41642 75.1759 9.66407ZM82.2478 13.2137L82.2065 14.6997L79.1521 14.7409L76.084 14.7684V13.255V11.7416H79.1796H82.289L82.2478 13.2137Z" fill="white"/>
<path d="M87.5034 15.8003V22.198H88.6041H89.7048V16.9698V11.7416H92.1813H94.6578V12.8423V13.9429H95.8273H96.9967V12.6634C96.983 10.8473 96.6115 10.1043 95.442 9.60904C95.0293 9.44394 94.2588 9.40266 91.2182 9.40266H87.5034V15.8003Z" fill="white"/>
<path d="M117.084 15.7866V22.198H118.254H119.423V16.9698V11.7416H121.9H124.376V12.8423V13.9429H125.546H126.715V12.5946C126.715 11.0399 126.536 10.5584 125.711 9.89797L125.174 9.47145L121.129 9.43018L117.084 9.3889V15.7866Z" fill="white"/>
<path d="M129.191 15.8003V22.198H130.292H131.393V15.8003V9.40266H130.292H129.191V15.8003Z" fill="white"/>
<path d="M134.42 15.8003V22.198H135.589H136.759V16.9698V11.7416H139.166H141.574V17.0386V22.3356H142.744H143.913V17.0386V11.7416H146.39H148.866V16.9698V22.198H149.967H151.067V16.6671V11.15L150.723 10.5584C150.503 10.1731 150.187 9.8842 149.788 9.69158C149.21 9.40265 149.017 9.40265 141.808 9.40265H134.42V15.8003Z" fill="white"/>
<path d="M155.305 9.54028C154.713 9.71914 154.149 10.1869 153.902 10.696C153.709 11.095 153.682 11.8104 153.682 15.9104C153.682 20.5883 153.682 20.6433 153.998 21.0974C154.163 21.345 154.48 21.689 154.686 21.8403C155.057 22.1155 155.25 22.1292 159.749 22.1705L164.413 22.2118V21.0286V19.8591H160.148H155.883V18.4145V16.9698H160.148H164.413V14.1218C164.413 10.8886 164.303 10.4621 163.354 9.81545C162.858 9.47149 162.845 9.47149 159.267 9.44397C157.286 9.43021 155.511 9.47149 155.305 9.54028ZM162.184 13.2138L162.143 14.6997H159.047H155.952L155.91 13.2138L155.869 11.7416H159.047H162.226L162.184 13.2138Z" fill="white"/>
<path d="M-0.000244141 16.6258V22.3356H5.57192H11.1441V21.3037V20.2718H6.67259H2.2011V15.5939V10.9161H1.10043H-0.000244141V16.6258Z" fill="white"/>
<path d="M6.74146 13.7366V15.594H8.59884H10.4562V13.7366V11.8792H8.59884H6.74146V13.7366Z" fill="white"/>
</g>
<defs>
<clipPath id="clip0_449_651">
<rect width="164" height="32" fill="white"/>
</clipPath>
</defs>
</svg>
