<svg width="196" height="32" viewBox="0 0 196 32" fill="none" xmlns="http://www.w3.org/2000/svg">
<g clip-path="url(#clip0_449_651)">
<path d="M25.7869 12.6918V22.8236H31.558H37.329L37.1021 22.4508C36.9724 22.2562 36.5671 21.6402 36.2267 21.0728L35.5945 20.0678H32.0767H28.5427V11.3139V2.55997H27.1648H25.7869V12.6918Z" fill="white"/>
<path d="M120.459 12.6918V22.8236H121.837H123.214V18.4629V14.1021L128.532 14.0373C133.087 13.9725 133.946 13.9238 134.595 13.6807C135.583 13.3078 136.572 12.3189 136.913 11.3463C137.269 10.2926 137.399 7.90957 137.172 6.48301C136.945 5.05645 136.572 4.2459 135.794 3.56505C134.708 2.6086 134.238 2.55997 126.992 2.55997H120.459V12.6918ZM133.152 5.49414C134.189 5.76973 134.416 6.35332 134.368 8.42832C134.319 10.0818 134.303 10.1953 133.865 10.6168L133.427 11.0707L128.321 11.1193L123.214 11.168V8.34726C123.214 6.80723 123.263 5.47793 123.328 5.4293C123.506 5.23477 132.471 5.29961 133.152 5.49414Z" fill="white"/>
<path d="M8.27905 4.01894V5.31581H13.6287H18.9783V10.7465V16.1771H20.1941H21.4099V9.44959V2.72206H14.8445H8.27905V4.01894Z" fill="white"/>
<path d="M65.8279 5.21856V7.73125L61.4996 7.77988C56.5876 7.82851 56.458 7.86094 55.6474 9.07675L55.2097 9.75761V15.2693C55.2097 20.781 55.2097 20.7972 55.5988 21.4619C55.8095 21.8347 56.2472 22.2886 56.5876 22.4832C57.1712 22.8074 57.3982 22.8236 62.8126 22.8236H68.4216V12.7728V2.72208H67.1247H65.8279V5.21856ZM65.7468 15.3666V20.1488L61.8238 20.1974L57.8845 20.2299V15.3666V10.5033L61.8238 10.5357L65.7468 10.5844V15.3666Z" fill="white"/>
<path d="M153.853 4.1001V5.47803H155.15H156.447V4.1001V2.72217H155.15H153.853V4.1001Z" fill="white"/>
<path d="M40.944 7.92578C40.2632 8.12031 39.4364 8.96328 39.2257 9.67656C39.1284 10.0494 39.0798 12.173 39.1122 15.7232C39.1608 20.9594 39.177 21.2025 39.5012 21.6402C39.6796 21.8834 40.0848 22.2562 40.3766 22.467C40.9116 22.8236 40.9764 22.8236 46.3098 22.8236H51.7243V21.5267V20.2299L46.7475 20.1974L41.7546 20.1488V18.4467V16.7445L46.7475 16.6959L51.7405 16.6635L51.6918 13.1295L51.6432 9.57929L51.1731 8.97949C50.3139 7.84473 49.9086 7.74746 45.402 7.76367C43.2135 7.76367 41.2034 7.84473 40.944 7.92578ZM48.9684 12.2865V14.0697L45.3696 14.0373L41.7546 13.9887L41.7059 12.2379L41.6573 10.5033H45.321H48.9684V12.2865Z" fill="white"/>
<path d="M73.7225 7.97445C72.993 8.25003 72.5391 8.62288 72.1662 9.28753C71.9393 9.70901 71.9069 10.4709 71.9069 15.2856C71.9069 20.3434 71.9393 20.8459 72.2149 21.4133C72.377 21.7375 72.7498 22.1752 73.0254 22.3859C73.5117 22.7264 73.6738 22.7426 77.9535 22.7912L82.3629 22.8399V24.6068V26.39H77.986H73.609V27.6869V29L78.5209 28.9514C83.4004 28.9027 83.4166 28.9027 83.9678 28.5137C84.2596 28.3029 84.6486 27.8328 84.8107 27.46C85.0863 26.8439 85.1188 26.2117 85.1188 17.2633V7.74749H79.7367C75.6029 7.76371 74.1926 7.81234 73.7225 7.97445ZM82.3629 15.3666V20.2299H78.4723H74.5817V15.3666V10.5033H78.4723H82.3629V15.3666Z" fill="white"/>
<path d="M90.209 8.05547C89.4471 8.41211 88.9121 9.01191 88.669 9.83867C88.5555 10.2115 88.5231 12.2865 88.5555 15.707L88.6041 20.9918L89.0418 21.6402C89.8037 22.8074 89.9172 22.8236 95.8828 22.8236H101.168V21.5267V20.2299H96.2233H91.2789V18.4467V16.6635H96.2233H101.168V13.2592C101.168 9.36855 101.054 8.91465 99.9193 8.21758C99.3195 7.84473 99.1899 7.82851 95.0885 7.77988C91.2465 7.74746 90.8088 7.76367 90.209 8.05547ZM98.5414 12.2379L98.4928 13.9887L94.894 14.0373L91.2789 14.0697V12.2865V10.5033H94.9264H98.5901L98.5414 12.2379Z" fill="white"/>
<path d="M104.734 15.2855V22.8236H106.031H107.328V16.6635V10.5033H110.246H113.164V11.8002V13.0971H114.542H115.92V11.5894C115.903 9.4496 115.466 8.57422 114.088 7.99062C113.601 7.79609 112.694 7.74746 109.111 7.74746H104.734V15.2855Z" fill="white"/>
<path d="M139.588 15.2693V22.8236H140.965H142.343V16.6635V10.5033H145.261H148.179V11.8002V13.0971H149.557H150.935V11.5084C150.935 9.67656 150.724 9.10918 149.752 8.33106L149.12 7.82852L144.354 7.77989L139.588 7.73125V15.2693Z" fill="white"/>
<path d="M153.853 15.2855V22.8236H155.15H156.447V15.2855V7.74746H155.15H153.853V15.2855Z" fill="white"/>
<path d="M160.013 15.2855V22.8236H161.391H162.769V16.6635V10.5033H165.606H168.443V16.7445V22.9857H169.821H171.199V16.7445V10.5033H174.117H177.035V16.6635V22.8236H178.332H179.628V16.3068V9.80625L179.223 9.10918C178.964 8.65527 178.591 8.31484 178.121 8.08789C177.44 7.74746 177.213 7.74746 168.718 7.74746H160.013V15.2855Z" fill="white"/>
<path d="M184.621 7.90959C183.924 8.12033 183.26 8.67151 182.968 9.27131C182.741 9.74143 182.708 10.5844 182.708 15.4152C182.708 20.927 182.708 20.9918 183.081 21.5268C183.276 21.8186 183.649 22.2238 183.892 22.4021C184.33 22.7264 184.557 22.7426 189.858 22.7912L195.353 22.8398V21.4457V20.0678H190.328H185.302V18.3656V16.6635H190.328H195.353V13.3078C195.353 9.49826 195.223 8.99572 194.105 8.23381C193.521 7.82854 193.505 7.82854 189.29 7.79612C186.956 7.7799 184.865 7.82854 184.621 7.90959ZM192.727 12.2379L192.678 13.9887H189.031H185.383L185.335 12.2379L185.286 10.5033H189.031H192.775L192.727 12.2379Z" fill="white"/>
<path d="M1.63257 16.2582V22.9857H8.19799H14.7634V21.7699V20.5541H9.49486H4.22631V15.0424V9.53066H2.92944H1.63257V16.2582Z" fill="white"/>
<path d="M9.57593 12.8539V15.0424H11.7644H13.9529V12.8539V10.6654H11.7644H9.57593V12.8539Z" fill="white"/>
</g>
<defs>
<clipPath id="clip0_449_651">
<rect width="195" height="32" fill="white" transform="translate(0.578857)"/>
</clipPath>
</defs>
</svg>
