<svg width="151" height="32" viewBox="0 0 151 32" fill="none" xmlns="http://www.w3.org/2000/svg">
<g clip-path="url(#clip0_756_1982)">
<path fill-rule="evenodd" clip-rule="evenodd" d="M15.7164 32C24.3963 32 31.4328 24.8366 31.4328 16C31.4328 7.16345 24.3963 0 15.7164 0C7.03645 0 0 7.16345 0 16C0 24.8366 7.03645 32 15.7164 32ZM20.6194 7.45348C20.858 6.59044 20.0353 6.08011 19.284 6.62504L8.79577 14.2317C7.98096 14.8226 8.10912 16 8.9883 16H11.7501V15.9782H17.1328L12.747 17.5537L10.8134 24.5466C10.5748 25.4096 11.3974 25.9199 12.1488 25.375L22.637 17.7684C23.4519 17.1774 23.3236 16 22.4445 16H18.2563L20.6194 7.45348Z" fill="white"/>
<path d="M42.6717 20.3467H47.5387V22.7837H40.1562V9.86035H42.6717V20.3467Z" fill="white"/>
<path d="M50.6678 19.1468C50.9837 20.3037 51.8404 20.8822 53.2379 20.8822C54.1371 20.8822 54.8177 20.5745 55.2794 19.9591L57.1751 21.0668C56.2759 22.3838 54.9513 23.0423 53.2014 23.0423C51.6946 23.0423 50.4855 22.5807 49.5741 21.6576C48.6627 20.7345 48.207 19.5714 48.207 18.1683C48.207 16.7775 48.6566 15.6206 49.5559 14.6975C50.4551 13.7621 51.6095 13.2944 53.0192 13.2944C54.3559 13.2944 55.4556 13.7621 56.3184 14.6975C57.1934 15.6329 57.6308 16.7898 57.6308 18.1683C57.6308 18.476 57.6005 18.8022 57.5397 19.1468H50.6678ZM50.6313 17.3006H55.2794C55.1458 16.6729 54.8663 16.2052 54.4409 15.8975C54.0278 15.5898 53.5539 15.4359 53.0192 15.4359C52.3873 15.4359 51.8647 15.6021 51.4516 15.9344C51.0384 16.2544 50.765 16.7098 50.6313 17.3006Z" fill="white"/>
<path d="M64.9122 13.5527H67.5006L64.0373 22.7837H61.3578L57.8945 13.5527H60.4828L62.6884 20.0144L64.9122 13.5527Z" fill="white"/>
<path d="M69.8033 12.4452C69.4145 12.4452 69.0742 12.3037 68.7826 12.0206C68.5031 11.7252 68.3633 11.3806 68.3633 10.9867C68.3633 10.5929 68.5031 10.2482 68.7826 9.95285C69.0742 9.65746 69.4145 9.50977 69.8033 9.50977C70.2043 9.50977 70.5446 9.65746 70.8241 9.95285C71.1157 10.2482 71.2616 10.5929 71.2616 10.9867C71.2616 11.3806 71.1157 11.7252 70.8241 12.0206C70.5446 12.3037 70.2043 12.4452 69.8033 12.4452ZM68.6367 22.7839V13.5529H70.9881V22.7839H68.6367Z" fill="white"/>
<path d="M78.3525 15.8422H76.2927V19.6823C76.2927 20.0023 76.3717 20.2361 76.5297 20.3838C76.6877 20.5315 76.9186 20.6177 77.2224 20.6423C77.5262 20.6546 77.9029 20.6485 78.3525 20.6238V22.7839C76.7363 22.9685 75.594 22.8147 74.9256 22.3223C74.2694 21.83 73.9413 20.95 73.9413 19.6823V15.8422H72.3555V13.5529H73.9413V11.6883L76.2927 10.9683V13.5529H78.3525V15.8422Z" fill="white"/>
<path d="M86.6506 13.5528H89.002V22.7838H86.6506V21.6945C85.9458 22.593 84.9554 23.0423 83.6794 23.0423C82.4642 23.0423 81.4192 22.5746 80.5442 21.6391C79.6814 20.6914 79.25 19.5345 79.25 18.1683C79.25 16.8021 79.6814 15.6513 80.5442 14.7159C81.4192 13.7682 82.4642 13.2944 83.6794 13.2944C84.9554 13.2944 85.9458 13.7436 86.6506 14.6421V13.5528ZM82.3123 20.0514C82.7863 20.5314 83.3878 20.7714 84.1169 20.7714C84.846 20.7714 85.4475 20.5314 85.9215 20.0514C86.4076 19.5591 86.6506 18.9314 86.6506 18.1683C86.6506 17.4052 86.4076 16.7837 85.9215 16.3037C85.4475 15.8113 84.846 15.5652 84.1169 15.5652C83.3878 15.5652 82.7863 15.8113 82.3123 16.3037C81.8384 16.7837 81.6015 17.4052 81.6015 18.1683C81.6015 18.9314 81.8384 19.5591 82.3123 20.0514Z" fill="white"/>
<path d="M96.3486 15.8422H94.2889V19.6823C94.2889 20.0023 94.3679 20.2361 94.5258 20.3838C94.6838 20.5315 94.9147 20.6177 95.2185 20.6423C95.5223 20.6546 95.899 20.6485 96.3486 20.6238V22.7839C94.7324 22.9685 93.5901 22.8147 92.9218 22.3223C92.2656 21.83 91.9375 20.95 91.9375 19.6823V15.8422H90.3516V13.5529H91.9375V11.6883L94.2889 10.9683V13.5529H96.3486V15.8422Z" fill="white"/>
<path d="M99.7068 19.1468C100.023 20.3037 100.879 20.8822 102.277 20.8822C103.176 20.8822 103.856 20.5745 104.318 19.9591L106.214 21.0668C105.315 22.3838 103.99 23.0423 102.24 23.0423C100.733 23.0423 99.5246 22.5807 98.6132 21.6576C97.7018 20.7345 97.2461 19.5714 97.2461 18.1683C97.2461 16.7775 97.6957 15.6206 98.5949 14.6975C99.4942 13.7621 100.648 13.2944 102.058 13.2944C103.395 13.2944 104.494 13.7621 105.357 14.6975C106.232 15.6329 106.67 16.7898 106.67 18.1683C106.67 18.476 106.639 18.8022 106.578 19.1468H99.7068ZM99.6704 17.3006H104.318C104.185 16.6729 103.905 16.2052 103.48 15.8975C103.067 15.5898 102.593 15.4359 102.058 15.4359C101.426 15.4359 100.904 15.6021 100.49 15.9344C100.077 16.2544 99.8041 16.7098 99.6704 17.3006Z" fill="white"/>
<path d="M115.496 20.3467H120.363V22.7837H112.98V9.86035H115.496V20.3467Z" fill="white"/>
<path d="M128.431 13.5528H130.782V22.7838H128.431V21.6945C127.726 22.593 126.736 23.0423 125.46 23.0423C124.245 23.0423 123.2 22.5746 122.325 21.6391C121.462 20.6914 121.031 19.5345 121.031 18.1683C121.031 16.8021 121.462 15.6513 122.325 14.7159C123.2 13.7682 124.245 13.2944 125.46 13.2944C126.736 13.2944 127.726 13.7436 128.431 14.6421V13.5528ZM124.093 20.0514C124.567 20.5314 125.168 20.7714 125.897 20.7714C126.627 20.7714 127.228 20.5314 127.702 20.0514C128.188 19.5591 128.431 18.9314 128.431 18.1683C128.431 17.4052 128.188 16.7837 127.702 16.3037C127.228 15.8113 126.627 15.5652 125.897 15.5652C125.168 15.5652 124.567 15.8113 124.093 16.3037C123.619 16.7837 123.382 17.4052 123.382 18.1683C123.382 18.9314 123.619 19.5591 124.093 20.0514Z" fill="white"/>
<path d="M138.218 13.2943C139.445 13.2943 140.49 13.7681 141.353 14.7158C142.228 15.6512 142.666 16.802 142.666 18.1682C142.666 19.5344 142.228 20.6913 141.353 21.639C140.49 22.5745 139.445 23.0422 138.218 23.0422C136.942 23.0422 135.958 22.5929 135.265 21.6944V22.7837H132.914V9.86035H135.265V14.642C135.958 13.7435 136.942 13.2943 138.218 13.2943ZM135.976 20.0513C136.45 20.5313 137.051 20.7713 137.781 20.7713C138.51 20.7713 139.111 20.5313 139.585 20.0513C140.071 19.559 140.314 18.9313 140.314 18.1682C140.314 17.4051 140.071 16.7836 139.585 16.3036C139.111 15.8112 138.51 15.5651 137.781 15.5651C137.051 15.5651 136.45 15.8112 135.976 16.3036C135.502 16.7836 135.265 17.4051 135.265 18.1682C135.265 18.9313 135.502 19.559 135.976 20.0513Z" fill="white"/>
<path d="M146.297 16.1744C146.297 16.4206 146.455 16.6237 146.771 16.7837C147.099 16.9314 147.494 17.0667 147.956 17.1898C148.418 17.3006 148.88 17.4483 149.341 17.6329C149.803 17.8052 150.192 18.1006 150.508 18.5191C150.836 18.9376 151 19.4606 151 20.0883C151 21.0361 150.648 21.7684 149.943 22.2853C149.25 22.7899 148.381 23.0423 147.336 23.0423C145.465 23.0423 144.189 22.3099 143.508 20.8453L145.55 19.6822C145.817 20.4822 146.413 20.8822 147.336 20.8822C148.175 20.8822 148.594 20.6176 148.594 20.0883C148.594 19.8422 148.43 19.6453 148.102 19.4976C147.786 19.3376 147.397 19.196 146.935 19.0729C146.474 18.9499 146.012 18.796 145.55 18.6114C145.088 18.4268 144.693 18.1375 144.365 17.7437C144.049 17.3375 143.891 16.8329 143.891 16.2298C143.891 15.319 144.219 14.6052 144.876 14.0882C145.544 13.559 146.37 13.2944 147.355 13.2944C148.096 13.2944 148.77 13.4667 149.378 13.8113C149.985 14.1436 150.465 14.6236 150.818 15.2513L148.813 16.359C148.521 15.7313 148.035 15.4175 147.355 15.4175C147.051 15.4175 146.796 15.4852 146.589 15.6206C146.395 15.7559 146.297 15.9406 146.297 16.1744Z" fill="white"/>
</g>
<defs>
<clipPath id="clip0_756_1982">
<rect width="151" height="32" fill="white"/>
</clipPath>
</defs>
</svg>
