<svg width="130" height="32" viewBox="0 0 130 32" fill="none" xmlns="http://www.w3.org/2000/svg">
<g clip-path="url(#clip0_756_1777)">
<mask id="mask0_756_1777" style="mask-type:luminance" maskUnits="userSpaceOnUse" x="0" y="2" width="130" height="28">
<path d="M129.688 2H0.328125V30H129.688V2Z" fill="white"/>
</mask>
<g mask="url(#mask0_756_1777)">
<path d="M17.6264 29.9898V27.7142C9.03321 27.7142 2.60367 24.9244 2.60367 22.4248H0.328125C0.338306 26.7368 7.76565 29.9898 17.6264 29.9898Z" fill="white"/>
<path d="M17.6275 17.1354C27.4882 17.1354 34.9206 13.8823 34.9206 9.57028L33.8872 9.53467L32.6553 9.57028C32.6553 12.07 26.2359 14.8598 17.6326 14.8598L17.5664 16.0154L17.6326 17.1354H17.6275Z" fill="white"/>
<path d="M0.339844 22.425L1.58707 22.4504L2.60521 22.425C2.60521 19.9253 9.02461 17.1355 17.6279 17.1355V14.8599C7.76719 14.8599 0.339844 18.1079 0.339844 22.425Z" fill="white"/>
<path d="M32.6465 9.5651H34.922C34.922 5.25309 27.4845 2 17.6289 2V4.27564C26.2119 4.27564 32.6414 7.06545 32.6414 9.5651H32.6465Z" fill="white"/>
<path d="M4.90112 14.7884C5.90908 14.3353 7.04938 13.9433 8.3068 13.6175C4.78912 12.5738 2.60521 11.016 2.60521 9.56C2.60521 7.06036 9.02461 4.27055 17.6279 4.27055L17.7399 3.16582L17.6279 2C7.76719 2 0.339844 5.25309 0.339844 9.5651C0.339844 11.6269 2.04523 13.4495 4.90112 14.7884Z" fill="white"/>
<path d="M30.3612 17.2012C29.3533 17.6543 28.213 18.0463 26.9556 18.3721C30.4732 19.4157 32.6571 20.9736 32.6571 22.4296C32.6571 24.9292 26.2378 27.719 17.6345 27.719L17.5938 28.8848L17.6345 29.9997C27.4952 29.9997 34.9276 26.7467 34.9276 22.4347C34.9276 20.3627 33.2171 18.5503 30.3663 17.2063L30.3612 17.2012Z" fill="white"/>
<path d="M47.5977 21.7066V6.06738H49.6187V21.7016H47.5977V21.7066Z" fill="white"/>
<path d="M54.4866 8.38902C54.0946 8.38902 53.7688 8.26179 53.5092 8.00721C53.2496 7.75269 53.1172 7.44722 53.1172 7.08068C53.1172 6.71413 53.2445 6.38322 53.5092 6.13377C53.7688 5.87922 54.0946 5.75195 54.4866 5.75195C54.8786 5.75195 55.2044 5.87413 55.464 6.1185C55.7237 6.36286 55.856 6.66832 55.856 7.03486C55.856 7.40141 55.7287 7.73231 55.4742 7.99198C55.2197 8.2516 54.8888 8.38398 54.4815 8.38398L54.4866 8.38902ZM53.4736 21.7069V10.5374H55.4946V21.7069H53.4736Z" fill="white"/>
<path d="M65.3194 10.4307C66.2306 10.4307 67.0353 10.6089 67.7325 10.955C68.4297 11.3063 68.9695 11.8409 69.3666 12.5587C69.7586 13.2765 69.9574 14.1827 69.9574 15.2772V21.702H67.9363V15.5063C67.9363 14.427 67.6714 13.6074 67.1473 13.0627C66.6226 12.518 65.8794 12.243 64.9224 12.243C64.2045 12.243 63.5784 12.3856 63.0492 12.6656C62.5144 12.9456 62.1022 13.363 61.8172 13.9078C61.5271 14.4576 61.3843 15.1347 61.3843 15.9492V21.702H59.3633V10.5325H61.3031V13.5463L60.9873 12.747C61.3541 12.019 61.9141 11.4489 62.6723 11.0416C63.4311 10.6343 64.3165 10.4307 65.3295 10.4307H65.3194Z" fill="white"/>
<path d="M73.7031 21.7066V6.06738H75.7242V21.7016H73.7031V21.7066ZM75.3473 19.0085L75.3882 16.4172L81.813 10.5372H84.2563L79.3233 15.3837L78.229 16.3103L75.3422 19.0085H75.3473ZM82.2353 21.7066L77.8522 16.2696L79.1603 14.6456L84.7245 21.7066H82.2403H82.2353Z" fill="white"/>
<path d="M86.5391 25.795V10.5376H88.4789V13.5514L88.3518 16.1427L88.5601 18.734V25.795H86.5391ZM92.4599 21.8343C91.5331 21.8343 90.6881 21.6205 89.9198 21.1929C89.1559 20.7652 88.545 20.1289 88.0869 19.2838C87.6288 18.4387 87.3998 17.3849 87.3998 16.1223C87.3998 14.8598 87.6238 13.806 88.0617 12.9609C88.4991 12.1158 89.11 11.4845 89.8739 11.062C90.6371 10.6394 91.4979 10.4307 92.4549 10.4307C93.5491 10.4307 94.5213 10.67 95.3613 11.1485C96.2063 11.627 96.8733 12.2889 97.3622 13.139C97.8511 13.9892 98.1003 14.982 98.1003 16.1223C98.1003 17.2627 97.8561 18.2554 97.3622 19.1158C96.8683 19.971 96.2013 20.6379 95.3613 21.1165C94.5163 21.595 93.5491 21.8343 92.4549 21.8343H92.4599ZM92.2919 20.0627C93.0099 20.0627 93.6511 19.8998 94.2211 19.579C94.7912 19.2583 95.2392 18.795 95.5702 18.1994C95.9011 17.6038 96.0641 16.9114 96.0641 16.1223C96.0641 15.3332 95.9011 14.6307 95.5702 14.0452C95.2392 13.4598 94.7912 13.0118 94.2211 12.686C93.6511 12.3652 93.0099 12.2023 92.2919 12.2023C91.574 12.2023 90.953 12.3652 90.3829 12.686C89.8128 13.0118 89.3648 13.4598 89.0339 14.0452C88.7029 14.6307 88.5399 15.318 88.5399 16.1223C88.5399 16.9267 88.7029 17.5987 89.0339 18.1994C89.3648 18.795 89.8128 19.2583 90.3829 19.579C90.953 19.9049 91.5891 20.0627 92.2919 20.0627Z" fill="white"/>
<path d="M105.693 21.8339C104.568 21.8339 103.57 21.5895 102.7 21.0957C101.829 20.6019 101.142 19.9248 100.633 19.0644C100.129 18.1989 99.875 17.2215 99.875 16.127C99.875 15.0324 100.129 14.0346 100.633 13.1793C101.137 12.324 101.829 11.652 102.7 11.1684C103.57 10.6848 104.568 10.4404 105.693 10.4404C106.818 10.4404 107.796 10.6848 108.677 11.1684C109.552 11.652 110.245 12.3189 110.743 13.1691C111.242 14.0193 111.492 15.007 111.492 16.132C111.492 17.2571 111.242 18.2244 110.743 19.0797C110.245 19.9349 109.557 20.612 108.677 21.1008C107.801 21.5946 106.803 21.8389 105.693 21.8389V21.8339ZM105.693 20.0622C106.411 20.0622 107.053 19.8993 107.623 19.5786C108.193 19.2579 108.636 18.7946 108.962 18.1989C109.282 17.6033 109.445 16.911 109.445 16.1219C109.445 15.3328 109.282 14.6302 108.962 14.0448C108.641 13.4593 108.193 13.0113 107.623 12.6855C107.053 12.3648 106.411 12.2019 105.693 12.2019C104.975 12.2019 104.339 12.3648 103.774 12.6855C103.214 13.0113 102.761 13.4593 102.425 14.0448C102.089 14.6302 101.921 15.3175 101.921 16.1219C101.921 16.9262 102.089 17.5982 102.425 18.1989C102.761 18.7946 103.209 19.2579 103.774 19.5786C104.334 19.9044 104.975 20.0622 105.693 20.0622Z" fill="white"/>
<path d="M119.068 21.8339C117.943 21.8339 116.945 21.5895 116.075 21.0957C115.204 20.6019 114.517 19.9248 114.008 19.0644C113.504 18.1989 113.25 17.2215 113.25 16.127C113.25 15.0324 113.504 14.0346 114.008 13.1793C114.512 12.324 115.204 11.652 116.075 11.1684C116.945 10.6848 117.943 10.4404 119.068 10.4404C120.193 10.4404 121.171 10.6848 122.052 11.1684C122.927 11.652 123.62 12.3189 124.118 13.1691C124.617 14.0193 124.867 15.007 124.867 16.132C124.867 17.2571 124.617 18.2244 124.118 19.0797C123.62 19.9349 122.932 20.612 122.052 21.1008C121.176 21.5946 120.178 21.8389 119.068 21.8389V21.8339ZM119.068 20.0622C119.786 20.0622 120.428 19.8993 120.998 19.5786C121.568 19.2579 122.011 18.7946 122.337 18.1989C122.657 17.6033 122.82 16.911 122.82 16.1219C122.82 15.3328 122.657 14.6302 122.337 14.0448C122.016 13.4593 121.568 13.0113 120.998 12.6855C120.428 12.3648 119.786 12.2019 119.068 12.2019C118.35 12.2019 117.714 12.3648 117.149 12.6855C116.589 13.0113 116.136 13.4593 115.8 14.0448C115.464 14.6302 115.296 15.3175 115.296 16.1219C115.296 16.9262 115.464 17.5982 115.8 18.1989C116.136 18.7946 116.584 19.2579 117.149 19.5786C117.709 19.9044 118.35 20.0622 119.068 20.0622Z" fill="white"/>
<path d="M127.668 21.7066V6.06738H129.689V21.7016H127.668V21.7066Z" fill="white"/>
</g>
</g>
<defs>
<clipPath id="clip0_756_1777">
<rect width="129.36" height="28" fill="white" transform="translate(0.320312 2)"/>
</clipPath>
</defs>
</svg>
