<svg width="141" height="32" viewBox="0 0 141 32" fill="none" xmlns="http://www.w3.org/2000/svg">
<g clip-path="url(#clip0_450_1168)">
<path d="M92.3083 4.75656C92.8596 4.68897 93.3781 4.7086 93.889 4.94364C94.3066 5.13574 94.6974 5.53713 94.8569 5.9714C95.0553 6.51228 95.0496 7.07626 94.7984 7.59988C94.535 8.14914 94.0674 8.48198 93.5053 8.67635C92.9157 8.8158 92.424 8.80143 91.8643 8.52627C91.3927 8.29443 91.0239 7.88926 90.8599 7.38894C90.6733 6.8193 90.6977 6.29741 90.9731 5.7614C91.2584 5.20633 91.736 4.93957 92.3083 4.75656Z" fill="#FEFEFE"/>
<path d="M89.9644 11.0705L94.6328 11.0591L94.6308 21.5374L94.6324 24.1874C94.6329 24.6762 94.5854 25.2338 94.7086 25.7092C94.8906 26.4104 95.4824 26.9817 95.8968 27.5641L94.4419 27.5769L90.0619 27.5714C90.0364 27.2908 90.9845 26.2198 91.1086 25.7951C91.3472 24.9787 91.2255 23.8878 91.2271 23.0419L91.2299 17.8939L91.2258 14.9622C91.2244 14.3965 91.2639 13.7477 91.1564 13.1942C91.0091 12.4374 90.3285 11.7458 89.9644 11.0705Z" fill="#FEFEFE"/>
<path d="M120.664 4.13696L125.414 4.14186C125.286 5.62952 125.376 7.19396 125.375 8.69173L125.372 17.2057L125.375 22.78C125.376 23.6561 125.275 24.6781 125.429 25.534C125.569 26.313 126.13 26.8901 126.57 27.5201C126.427 27.6235 125.546 27.5744 125.332 27.5768L120.708 27.565C121.044 27.0502 121.548 26.5775 121.778 26.004C121.912 25.67 121.963 25.2648 121.981 24.9084L122.002 20.855L122.003 13.4964L122.001 9.19102C122 8.33343 122.065 7.42246 121.919 6.57642C121.75 5.59303 121.042 5.01223 120.664 4.13696Z" fill="#FEFEFE"/>
<path d="M104.731 4.06493L106.039 4.02087L106.11 6.48203C105.122 6.10655 104.287 5.13013 103.243 4.89786C102.95 4.8328 102.709 4.88172 102.462 5.04409C102.377 5.12736 102.305 5.23243 102.278 5.35032C102.155 5.89446 102.226 6.58575 102.225 7.14392L102.216 11.0692L104.289 11.0638C104.486 11.0617 104.826 11.0122 104.985 11.1314C105 11.3552 105.024 11.5685 104.96 11.7872L102.215 11.8111L102.221 21.496L102.219 24.0525C102.219 24.507 102.182 25.0062 102.24 25.4562C102.311 25.9972 102.64 26.4181 102.975 26.8264C103.149 27.0388 103.383 27.2347 103.425 27.5072L103.243 27.5692L98.9575 27.5741C98.6689 27.5738 98.0609 27.6601 97.8179 27.5731C97.789 27.5627 97.7273 27.5007 97.7009 27.4797C97.8986 26.8771 98.5583 26.4344 98.7109 25.7883C98.8592 25.1604 98.8218 24.4975 98.8236 23.8568L98.8262 20.9325L98.8059 11.8247C98.2769 11.8154 97.6392 11.8681 97.1286 11.742C97.0552 11.5244 97.0667 11.388 97.1122 11.1704C97.5266 10.9688 98.3593 11.0715 98.8319 11.0732C98.7893 10.4187 98.8219 9.73793 98.8213 9.08052C98.82 7.77873 98.6713 6.35775 99.591 5.293C100.845 3.84169 103.021 4.18916 104.731 4.06493Z" fill="#FEFEFE"/>
<path d="M82.5268 10.7636C83.0151 10.6819 83.5881 10.7467 84.0704 10.8369C85.3237 11.0713 86.3738 11.8969 86.836 13.0987C87.3755 14.5013 87.1462 16.4196 87.1471 17.9052L87.1495 23.2346C87.1531 24.0447 87.0564 25.0496 87.2838 25.8282C87.4677 26.4574 88.0394 27.0242 88.4118 27.5672L82.6181 27.5583C83.1744 26.7384 83.7495 26.0623 83.7852 25.029L83.7924 18.3219C83.7914 17.0539 83.9324 15.583 83.737 14.3367C83.6741 13.9356 83.4727 13.462 83.1938 13.1676C82.7505 12.6996 82.1791 12.5023 81.5432 12.4866C80.6867 12.4654 79.7245 12.7466 79.0965 13.3464C78.867 13.5657 78.9297 13.7717 78.9221 14.0757L78.9192 22.459L78.9187 24.5233C78.9178 24.8842 78.8765 25.3313 78.9638 25.6823C79.1334 26.3647 79.6935 27.0296 80.1227 27.5709L74.2758 27.5686C74.6781 26.9369 75.3141 26.3506 75.4442 25.5904C75.5455 24.9984 75.497 24.353 75.4985 23.7533L75.503 20.4574L75.4982 15.769C75.4962 14.9134 75.5864 13.9522 75.4028 13.116C75.2472 12.408 74.6012 11.6633 74.184 11.0779L78.7867 11.0556L78.8567 13.1169L79.0987 12.766C79.9661 11.5449 81.0815 11.0116 82.5268 10.7636Z" fill="#FEFEFE"/>
<path d="M66.6794 10.7728C66.8741 10.7295 67.1237 10.7456 67.3241 10.7432C68.4764 10.7292 69.8685 10.9458 70.7212 11.7858C71.1644 12.2222 71.4691 12.7608 71.5838 13.3759C71.6909 13.9505 71.6574 14.5561 71.6585 15.1379L71.6609 17.8039L71.6724 27.5778L68.3141 27.5779L68.2432 25.8265L68.0105 26.1771C67.3747 27.0529 66.3602 27.6672 65.2942 27.8332C64.2905 27.9893 63.1358 27.8078 62.3051 27.1988C61.3038 26.4646 61.0132 25.4203 60.8341 24.2545C60.8142 23.3016 60.8422 22.4651 61.2979 21.6016C62.1502 19.9868 64.0168 19.2722 65.6407 18.6755L68.2609 17.7703L68.2425 14.5485C68.2414 13.9172 68.2975 13.2175 68.1618 12.5993C68.1025 12.3289 67.9687 12.0808 67.7792 11.8785C67.5331 11.6156 67.1479 11.4748 66.7921 11.4641C66.3205 11.4498 65.9339 11.5752 65.5132 11.7856C63.9859 12.5495 62.6534 14.1663 61.4015 15.3221C61.3941 15.3098 61.3797 15.2882 61.3747 15.2731C61.2602 14.9321 61.4489 12.5478 61.5894 12.1881C63.2609 11.4453 64.8529 10.9529 66.6794 10.7728ZM68.1021 18.5021C66.8078 18.9709 65.2194 19.5165 64.5838 20.8511C64.0588 21.9532 64.0811 24.0126 64.5008 25.1588C64.5907 25.4042 64.7432 25.6483 64.9111 25.8489C65.4645 26.2478 65.9835 26.3499 66.6537 26.2445C67.1165 26.1716 67.9605 25.7349 68.2345 25.3513C68.3042 25.2538 68.2352 19.2208 68.2315 18.5448L68.1021 18.5021Z" fill="#FEFEFE"/>
<path d="M8.70753 22.6761L6.9061 27.528C6.45067 27.6924 5.47024 27.5725 4.95903 27.5734C3.3344 27.576 1.62776 27.6822 0.012085 27.5482L5.39443 13.2427L12.2431 13.2722L13.8388 17.7561L14.0218 17.8334C13.7282 18.4844 13.5174 19.1724 13.2701 19.842L11.6571 24.2801L10.802 26.5688C10.6941 26.8535 10.4887 27.204 10.4782 27.5014L8.70753 22.6761ZM8.70753 22.6761L10.4782 27.5014C10.4887 27.204 10.6941 26.8535 10.802 26.5688L11.6571 24.2801L13.2701 19.842C13.5174 19.1724 13.7282 18.4844 14.0218 17.8334L13.8388 17.7561L13.7621 17.8855C13.2347 17.4391 12.9454 16.1381 12.624 15.4708C12.4257 15.0591 12.1752 14.6934 11.8984 14.331L8.70753 22.6761Z" fill="#FEFEFE"/>
<path d="M8.70752 22.6762L11.8984 14.3311C12.1752 14.6935 12.4257 15.0592 12.6239 15.4709C12.9454 16.1382 13.2347 17.4392 13.7621 17.8856L13.8388 17.7562L14.0218 17.8335C13.7282 18.4845 13.5174 19.1725 13.2701 19.8421L11.6571 24.2802L10.8019 26.5689C10.6941 26.8536 10.4887 27.2041 10.4782 27.5015L8.70752 22.6762Z" fill="url(#paint0_linear_450_1168)"/>
<path d="M111.766 10.7678C113.151 10.5467 114.752 11.0408 115.885 11.8211C117.587 12.9918 118.519 15.0558 118.882 17.032C119.369 19.6841 118.99 22.9198 117.419 25.1701C116.297 26.7791 114.886 27.5158 112.98 27.8608C111.526 27.9334 110.025 27.7084 108.827 26.8224C106.982 25.4583 106.08 23.358 105.751 21.1353C105.368 18.5475 105.804 15.3774 107.402 13.2403C108.532 11.7294 109.927 11.0383 111.766 10.7678ZM112.254 11.4624C111.618 11.5288 111.031 11.6994 110.611 12.2173C109.517 13.5661 109.54 15.8965 109.482 17.5405C109.413 19.4595 109.411 21.4255 109.619 23.3363C109.737 24.4115 109.997 25.9785 110.886 26.682C111.427 27.11 111.914 27.1635 112.57 27.2121C113.308 27.0695 113.826 26.8083 114.261 26.1623C115.365 24.5198 115.229 21.6611 115.241 19.7545C115.253 17.9061 115.273 15.9854 114.908 14.1654C114.74 13.329 114.318 12.2824 113.588 11.8031C113.178 11.534 112.732 11.4855 112.254 11.4624Z" fill="#FEFEFE"/>
<path d="M45.5242 10.7645C46.094 10.6646 46.7998 10.7572 47.3551 10.8988C48.5582 11.2056 49.2302 11.9999 49.8438 13.0246C50.2711 12.4442 50.6984 11.9448 51.2901 11.5239C52.3421 10.7755 53.6354 10.6206 54.8805 10.8302C56.1522 11.0442 57.181 11.9671 57.6287 13.1591C58.1811 14.6305 57.9434 16.5303 57.9428 18.0931L57.9424 23.5089C57.943 24.2295 57.8547 25.0959 58.048 25.7951C58.2321 26.4612 58.786 27.0082 59.181 27.5616L53.377 27.5782C53.3844 27.266 54.1317 26.4519 54.3161 26.0878C54.4514 25.8209 54.5057 25.4809 54.5362 25.1859C54.607 24.5008 54.5654 23.7776 54.5662 23.088L54.5685 19.4118L54.5691 16.4403C54.5712 15.8212 54.613 15.1596 54.5258 14.5459C54.4544 14.0419 54.2912 13.5369 53.964 13.1393C53.5944 12.6905 53.1287 12.5155 52.5612 12.4682C51.4988 12.3796 50.7367 12.7871 49.9504 13.4531L49.9575 22.1449L49.9582 24.3095C49.9587 24.7842 49.9285 25.3045 50.0422 25.7682C50.1965 26.398 50.708 26.8902 51.0237 27.4446L50.9565 27.5498L50.4578 27.5772L45.3401 27.5762C45.832 26.8945 46.4117 26.2278 46.5212 25.3658C46.6041 24.7135 46.5548 24.0088 46.556 23.3495L46.559 19.6908L46.5575 16.2485C46.5575 15.6111 46.6042 14.9201 46.5214 14.2882C46.4687 13.8858 46.3317 13.4853 46.0781 13.1642C45.7427 12.7393 45.2701 12.5375 44.7471 12.4788C43.6597 12.3565 42.7748 12.7789 41.9448 13.4365L41.9422 21.7046L41.9442 24.1219C41.9452 24.6555 41.9174 25.2383 42.0485 25.7588C42.2131 26.4112 42.7791 27.0091 43.1448 27.5663L37.3505 27.5748C37.734 26.8366 38.3105 26.3699 38.4912 25.5156C38.6497 24.7666 38.565 23.8766 38.566 23.107L38.5672 18.5953L38.5722 15.2023C38.5717 14.6132 38.6314 13.9241 38.5087 13.3485C38.33 12.5103 37.7684 11.8402 37.3107 11.1313L37.364 11.0873L40.7625 11.0612C41.0247 11.0603 41.6201 10.9895 41.8411 11.0971L41.9295 13.0436L42.2885 12.5358C43.0925 11.4325 44.2224 10.9701 45.5242 10.7645Z" fill="#FEFEFE"/>
<path d="M136.099 4.13632L140.849 4.13245L140.859 27.5781L137.539 27.5789L137.459 25.6276C137.154 26.0874 136.846 26.5247 136.413 26.8739C135.32 27.7563 134.153 27.9706 132.787 27.8226C132.359 27.7317 131.967 27.622 131.573 27.4261C130.254 26.7704 129.41 25.4333 128.954 24.074C127.953 21.0919 128.052 16.9496 129.466 14.1111C130.192 12.6551 131.27 11.5338 132.841 11.0136C134.509 10.461 135.94 10.7851 137.459 11.5526L137.457 8.39349C137.454 7.5637 137.513 6.71565 137.201 5.9322C136.956 5.31747 136.456 4.69575 136.099 4.13632ZM134.656 11.6298C133.827 11.8711 133.33 12.2098 132.906 12.9824C131.979 14.668 132.001 17.1101 131.999 18.987C131.998 20.5937 132.007 22.345 132.469 23.8966C132.72 24.7403 133.133 25.6023 133.942 26.0333C134.169 26.1541 134.466 26.2239 134.719 26.267C135.916 26.2841 136.61 25.9264 137.469 25.113L137.457 12.2104C136.49 11.7076 135.749 11.555 134.656 11.6298Z" fill="#FEFEFE"/>
<path d="M14.0218 17.8334L17.3286 8.71488L22.1978 8.70729C22.7926 8.70676 23.64 8.60085 24.2067 8.73998L30.9293 27.5214C29.2483 27.6487 27.511 27.5648 25.8237 27.5602C25.3461 27.5591 24.4804 27.6649 24.0536 27.5215L20.7514 18.1792L17.3316 27.5718C16.6106 27.5725 10.7646 27.6939 10.4783 27.5014C10.4887 27.2039 10.6941 26.8535 10.802 26.5688L11.6571 24.2801L13.2701 19.8419C13.5174 19.1724 13.7283 18.4844 14.0218 17.8334Z" fill="url(#paint1_linear_450_1168)"/>
</g>
<defs>
<linearGradient id="paint0_linear_450_1168" x1="10.2266" y1="26.4407" x2="12.2582" y2="14.6663" gradientUnits="userSpaceOnUse">
<stop stop-color="white" stop-opacity="0.741176"/>
<stop offset="1" stop-color="white" stop-opacity="0.909804"/>
</linearGradient>
<linearGradient id="paint1_linear_450_1168" x1="31.5063" y1="23.8915" x2="14.1485" y2="16.828" gradientUnits="userSpaceOnUse">
<stop stop-color="#FFFFFE" stop-opacity="0.670588"/>
<stop offset="1" stop-color="white"/>
</linearGradient>
<clipPath id="clip0_450_1168">
<rect width="141" height="24" fill="white" transform="translate(0 4)"/>
</clipPath>
</defs>
</svg>
