<svg width="189" height="32" viewBox="0 0 189 32" fill="none" xmlns="http://www.w3.org/2000/svg">
<g clip-path="url(#clip0_449_872)">
<path d="M124.031 1.00882C124.766 0.918709 125.458 0.94488 126.139 1.25827C126.696 1.5144 127.217 2.04958 127.429 2.62861C127.694 3.34979 127.686 4.10176 127.352 4.79993C127 5.53227 126.377 5.97606 125.627 6.23522C124.841 6.42115 124.186 6.40198 123.439 6.03511C122.811 5.72598 122.319 5.18576 122.1 4.51867C121.851 3.75915 121.884 3.0633 122.251 2.34861C122.632 1.60852 123.268 1.25284 124.031 1.00882Z" fill="#FEFEFE"/>
<path d="M120.906 9.42747L127.131 9.41223L127.128 23.3833L127.13 26.9166C127.131 27.5684 127.067 28.3118 127.232 28.9458C127.475 29.8806 128.263 30.6423 128.816 31.4189L126.876 31.436L121.036 31.4286C121.002 31.0545 122.266 29.6265 122.432 29.0602C122.75 27.9717 122.588 26.5172 122.59 25.3894L122.594 18.5254L122.588 14.6164C122.586 13.8621 122.639 12.997 122.495 12.2591C122.299 11.2499 121.392 10.3279 120.906 9.42747Z" fill="#FEFEFE"/>
<path d="M161.839 0.182617L168.172 0.189151C168.001 2.17269 168.121 4.25862 168.121 6.25565L168.117 17.6076L168.12 25.04C168.121 26.2081 167.987 27.5708 168.193 28.712C168.379 29.7506 169.127 30.5201 169.713 31.3601C169.524 31.498 168.349 31.4325 168.063 31.4358L161.897 31.42C162.346 30.7337 163.018 30.1034 163.325 29.3386C163.504 28.8933 163.571 28.3531 163.595 27.8779L163.623 22.4733L163.624 12.6619L163.621 6.92136C163.62 5.77791 163.707 4.56328 163.513 3.43523C163.287 2.12405 162.342 1.34965 161.839 0.182617Z" fill="#FEFEFE"/>
<path d="M140.595 0.0865747L142.339 0.027832L142.433 3.30937C141.116 2.80873 140.002 1.50684 138.611 1.19715C138.221 1.1104 137.899 1.17562 137.57 1.39212C137.456 1.50315 137.36 1.64324 137.324 1.80042C137.16 2.52595 137.255 3.44766 137.254 4.19189L137.241 9.42566L140.005 9.41842C140.268 9.41557 140.722 9.34966 140.934 9.50852C140.953 9.80699 140.985 10.0914 140.9 10.383L137.241 10.4148L137.248 23.3279L137.245 26.7367C137.245 27.3426 137.196 28.0083 137.274 28.6083C137.368 29.3297 137.807 29.8908 138.253 30.4352C138.485 30.7184 138.798 30.9796 138.854 31.343L138.611 31.4257L132.897 31.4321C132.512 31.4318 131.701 31.5468 131.377 31.4308C131.339 31.4169 131.257 31.3342 131.221 31.3062C131.485 30.5028 132.365 29.9125 132.568 29.051C132.766 28.2139 132.716 27.33 132.718 26.4758L132.722 22.5767L132.695 10.4329C131.989 10.4205 131.139 10.4908 130.458 10.3226C130.36 10.0325 130.376 9.85061 130.436 9.56052C130.989 9.29176 132.099 9.42871 132.729 9.43099C132.673 8.55823 132.716 7.65058 132.715 6.77402C132.714 5.03831 132.515 3.14366 133.742 1.724C135.413 -0.211082 138.315 0.252213 140.595 0.0865747Z" fill="#FEFEFE"/>
<path d="M110.989 9.01812C111.64 8.90917 112.404 8.99564 113.047 9.11583C114.719 9.42841 116.119 10.5292 116.735 12.1316C117.454 14.0017 117.149 16.5595 117.15 18.5402L117.153 25.6461C117.158 26.7263 117.029 28.0661 117.332 29.1042C117.577 29.9433 118.34 30.6989 118.836 31.4229L111.111 31.4111C111.853 30.3179 112.62 29.4164 112.667 28.0387L112.677 19.0958C112.676 17.4052 112.864 15.444 112.603 13.7823C112.519 13.2475 112.251 12.616 111.879 12.2235C111.288 11.5995 110.526 11.3364 109.678 11.3155C108.536 11.2873 107.253 11.6621 106.416 12.4619C106.11 12.7543 106.193 13.029 106.183 13.4343L106.179 24.612L106.179 27.3644C106.177 27.8455 106.122 28.4417 106.239 28.9097C106.465 29.8196 107.212 30.7061 107.784 31.4278L99.9881 31.4248C100.524 30.5825 101.372 29.8008 101.546 28.7873C101.681 27.9979 101.616 27.1374 101.618 26.3377L101.624 21.9433L101.618 15.692C101.615 14.5513 101.736 13.2695 101.491 12.1547C101.283 11.2107 100.422 10.2177 99.8656 9.43717L106.003 9.40745L106.096 12.1558L106.419 11.688C107.575 10.0598 109.062 9.34879 110.989 9.01812Z" fill="#FEFEFE"/>
<path d="M89.8595 9.03027C90.1191 8.97256 90.4519 8.99408 90.7191 8.99085C92.2555 8.97218 94.1117 9.26094 95.2487 10.3809C95.8395 10.9628 96.2458 11.6809 96.3988 12.5011C96.5416 13.2672 96.4968 14.0747 96.4984 14.8505L96.5016 18.4051L96.5168 31.4369L92.0391 31.4371L91.9447 29.1019L91.6344 29.5693C90.7866 30.7371 89.434 31.5562 88.0127 31.7775C86.6744 31.9857 85.1348 31.7436 84.0271 30.9316C82.6921 29.9528 82.3047 28.5604 82.0658 27.0059C82.0393 25.7354 82.0767 24.62 82.6843 23.4688C83.8207 21.3156 86.3094 20.3628 88.4746 19.5672L91.9683 18.3604L91.9437 14.0646C91.9422 13.2228 92.017 12.2899 91.8361 11.4657C91.757 11.1051 91.5786 10.7743 91.326 10.5046C90.9978 10.1541 90.4843 9.96627 90.0098 9.95199C89.381 9.93294 88.8656 10.1002 88.3047 10.3808C86.2683 11.3992 84.4915 13.555 82.8224 15.096C82.8125 15.0796 82.7932 15.0508 82.7866 15.0307C82.634 14.576 82.8856 11.3969 83.0729 10.9173C85.3016 9.92704 87.4243 9.27046 89.8595 9.03027ZM91.7565 19.336C90.0308 19.9611 87.9128 20.6886 87.0654 22.468C86.3654 23.9375 86.3951 26.6834 86.9548 28.2116C87.0746 28.5388 87.278 28.8644 87.5018 29.1318C88.2397 29.6636 88.9317 29.7998 89.8252 29.6592C90.4424 29.5621 91.5677 28.9798 91.933 28.4684C92.026 28.3383 91.934 20.2943 91.929 19.3929L91.7565 19.336Z" fill="#FEFEFE"/>
<path d="M12.5637 24.9015L10.1617 31.3707C9.55451 31.5899 8.24727 31.4301 7.56565 31.4312C5.39948 31.4347 3.12396 31.5764 0.969727 31.3977L8.14618 12.3236L17.2777 12.363L19.4054 18.3415L19.6494 18.4446C19.2579 19.3126 18.9768 20.2299 18.6471 21.1227L16.4964 27.0402L15.3562 30.0918C15.2124 30.4714 14.9385 30.9387 14.9246 31.3352L12.5637 24.9015ZM12.5637 24.9015L14.9246 31.3352C14.9385 30.9387 15.2124 30.4714 15.3562 30.0918L16.4964 27.0402L18.6471 21.1227C18.9768 20.2299 19.2579 19.3126 19.6494 18.4446L19.4054 18.3415L19.3031 18.5141C18.5998 17.9188 18.2141 16.1842 17.7856 15.2945C17.5212 14.7455 17.1873 14.2579 16.8181 13.7747L12.5637 24.9015Z" fill="#FEFEFE"/>
<path d="M12.5637 24.9015L16.8182 13.7747C17.1873 14.2579 17.5212 14.7455 17.7856 15.2945C18.2142 16.1842 18.5999 17.9188 19.3032 18.5141L19.4054 18.3415L19.6494 18.4446C19.258 19.3126 18.9769 20.2299 18.6472 21.1227L16.4965 27.0402L15.3563 30.0918C15.2125 30.4714 14.9386 30.9387 14.9247 31.3352L12.5637 24.9015Z" fill="url(#paint0_linear_449_872)"/>
<path d="M149.975 9.02377C151.821 8.72891 153.956 9.38777 155.467 10.4282C157.736 11.9891 158.979 14.7411 159.463 17.376C160.112 20.9122 159.607 25.2264 157.513 28.2268C156.016 30.3722 154.135 31.3544 151.593 31.8144C149.655 31.9112 147.654 31.6112 146.056 30.4299C143.596 28.611 142.393 25.8106 141.955 22.847C141.444 19.3967 142.026 15.1699 144.156 12.3203C145.663 10.3059 147.522 9.38434 149.975 9.02377ZM150.626 9.94987C149.778 10.0384 148.995 10.2659 148.435 10.9563C146.976 12.7548 147.007 15.8621 146.929 18.0541C146.838 20.6127 146.835 23.2341 147.113 25.7817C147.269 27.2154 147.616 29.3047 148.801 30.2426C149.523 30.8133 150.172 30.8847 151.047 30.9495C152.031 30.7594 152.722 30.411 153.301 29.5497C154.774 27.3598 154.593 23.5482 154.609 21.0061C154.624 18.5415 154.651 15.9805 154.164 13.5539C153.94 12.4386 153.377 11.0432 152.404 10.4042C151.858 10.0453 151.263 9.98072 150.626 9.94987Z" fill="#FEFEFE"/>
<path d="M61.6526 9.01927C62.4122 8.88612 63.3534 9.00955 64.0937 9.19832C65.6979 9.60746 66.5939 10.6665 67.412 12.0328C67.9817 11.2589 68.5515 10.593 69.3404 10.0318C70.7431 9.03393 72.4675 8.82746 74.1277 9.10689C75.8233 9.39222 77.1949 10.6227 77.7918 12.212C78.5284 14.1739 78.2115 16.7071 78.2107 18.7907L78.2101 26.0118C78.2109 26.9726 78.0932 28.1278 78.3509 29.06C78.5964 29.9482 79.3349 30.6776 79.8616 31.4155L72.1229 31.4376C72.1328 31.0214 73.1292 29.9358 73.3751 29.4503C73.5555 29.0945 73.6278 28.6412 73.6686 28.2478C73.7629 27.3343 73.7075 26.3701 73.7086 25.4507L73.7117 20.549L73.7124 16.5871C73.7153 15.7616 73.7709 14.8795 73.6547 14.0612C73.5595 13.3892 73.3419 12.7158 72.9056 12.1857C72.4128 11.5873 71.7918 11.3539 71.0353 11.2909C69.6187 11.1728 68.6025 11.716 67.5541 12.604L67.5637 24.1932L67.5646 27.0793C67.5652 27.7122 67.525 28.4059 67.6766 29.0242C67.8823 29.864 68.5642 30.5202 68.9852 31.2595L68.8957 31.3996L68.2307 31.4362L61.4071 31.4349C62.0629 30.5259 62.8358 29.637 62.9819 28.4876C63.0924 27.6179 63.0267 26.6783 63.0282 25.7993L63.0322 20.921L63.0303 16.3313C63.0303 15.4814 63.0926 14.56 62.9821 13.7176C62.9118 13.181 62.7292 12.6471 62.3911 12.2189C61.9438 11.6524 61.3137 11.3833 60.6164 11.305C59.1665 11.1419 57.9867 11.7052 56.88 12.5819L56.8766 23.6061L56.8793 26.8292C56.8806 27.5406 56.8435 28.3177 57.0183 29.0116C57.2377 29.8816 57.9924 30.6787 58.48 31.4217L50.7543 31.433C51.2656 30.4488 52.0343 29.8265 52.2753 28.6875C52.4865 27.6888 52.3736 26.5021 52.3749 25.476L52.3766 19.4604L52.3833 14.9364C52.3825 14.1509 52.4621 13.232 52.2985 12.4646C52.0602 11.3471 51.3115 10.4536 50.7012 9.50841L50.7722 9.44974L55.3037 9.41489C55.6532 9.41374 56.4471 9.31927 56.7417 9.4627L56.8596 12.0581L57.3383 11.381C58.4103 9.90993 59.9168 9.29336 61.6526 9.01927Z" fill="#FEFEFE"/>
<path d="M182.418 0.181798L188.752 0.176636L188.765 31.4375L184.338 31.4385L184.232 28.8368C183.826 29.4499 183.415 30.033 182.838 30.4985C181.38 31.6751 179.824 31.9608 178.003 31.7635C177.432 31.6423 176.909 31.496 176.384 31.2349C174.626 30.3606 173.501 28.5777 172.893 26.7654C171.558 22.7892 171.69 17.2661 173.576 13.4816C174.543 11.5402 175.98 10.0452 178.075 9.35146C180.298 8.61469 182.207 9.04688 184.232 10.0701L184.23 5.85803C184.226 4.75165 184.304 3.6209 183.889 2.57631C183.561 1.75667 182.895 0.927702 182.418 0.181798ZM180.495 10.1732C179.39 10.4949 178.727 10.9465 178.161 11.9766C176.926 14.224 176.955 17.4802 176.953 19.9827C176.95 22.125 176.964 24.46 177.579 26.5288C177.913 27.6537 178.464 28.8031 179.543 29.3777C179.846 29.5389 180.241 29.6318 180.578 29.6894C182.175 29.7122 183.1 29.2353 184.245 28.1507L184.23 10.9473C182.94 10.2768 181.952 10.0734 180.495 10.1732Z" fill="#FEFEFE"/>
<path d="M19.6494 18.4446L24.0584 6.28659L30.5508 6.27647C31.3437 6.27577 32.4736 6.13455 33.2293 6.32005L42.1927 31.3619C39.9513 31.5316 37.635 31.4198 35.3853 31.4137C34.7485 31.4122 33.5942 31.5533 33.0251 31.3621L28.6222 18.9057L24.0624 31.4292C23.1011 31.4301 15.3064 31.592 14.9247 31.3353C14.9386 30.9387 15.2125 30.4714 15.3563 30.0918L16.4965 27.0402L18.6472 21.1227C18.9769 20.2299 19.258 19.3126 19.6494 18.4446Z" fill="url(#paint1_linear_449_872)"/>
</g>
<defs>
<linearGradient id="paint0_linear_449_872" x1="14.5892" y1="29.9209" x2="17.298" y2="14.2216" gradientUnits="userSpaceOnUse">
<stop stop-color="white" stop-opacity="0.741176"/>
<stop offset="1" stop-color="white" stop-opacity="0.909804"/>
</linearGradient>
<linearGradient id="paint1_linear_449_872" x1="42.962" y1="26.522" x2="19.8183" y2="17.1041" gradientUnits="userSpaceOnUse">
<stop stop-color="#FFFFFE" stop-opacity="0.670588"/>
<stop offset="1" stop-color="white"/>
</linearGradient>
<clipPath id="clip0_449_872">
<rect width="188" height="32" fill="white" transform="translate(0.953613)"/>
</clipPath>
</defs>
</svg>
