<svg width="140" height="32" viewBox="0 0 140 32" fill="none" xmlns="http://www.w3.org/2000/svg">
<g clip-path="url(#clip0_756_1663)">
<path d="M48.5328 10.9966L44.9599 19.4641L41.3893 10.9966H38.832V22.3837H41.0837V14.9764L44.1075 22.3837H45.8124L48.8223 14.9764V22.3837H51.0741V10.9966H48.5328Z" fill="white"/>
<path d="M59.0126 13.3451V14.6336C58.6725 14.1713 58.2273 13.7993 57.7147 13.5494C57.2022 13.2994 56.6376 13.179 56.0692 13.1983C53.8014 13.1983 52 15.0088 52 17.8329C52 20.6569 53.8014 22.5397 56.0532 22.5397C56.6272 22.5589 57.1971 22.4352 57.7131 22.1793C58.229 21.9234 58.6752 21.5431 59.0126 21.0717V22.3929H61.2804V13.3451H59.0126ZM56.6483 20.5241C55.442 20.5241 54.3 19.5455 54.3 17.8329C54.3 16.1202 55.4489 15.2045 56.6483 15.2045C57.8476 15.2045 59.0126 16.1529 59.0126 17.8655C59.0126 19.5781 57.8867 20.5241 56.6483 20.5241Z" fill="white"/>
<path d="M66.9263 15.2212V13.3571H64.9319V11.1226H62.6641V19.5785C62.6641 21.65 63.8129 22.3746 65.5109 22.3746H66.9263V20.4593H65.8808C65.1731 20.4593 64.9319 20.1983 64.9319 19.5948V15.2212H66.9263Z" fill="white"/>
<path d="M70.3211 14.7482V13.3501H68.0625V22.3839H70.3142V17.8798C70.3142 16.1323 71.1184 15.6103 72.4534 15.6103H73.0485V13.2196C72.5011 13.2065 71.9601 13.3412 71.4809 13.6098C71.0017 13.8783 70.6015 14.2712 70.3211 14.7482Z" fill="white"/>
<path d="M74.0836 13.3453V22.3838H76.3331V13.3453H74.0836ZM75.2325 9.59387C74.9738 9.60529 74.7242 9.69352 74.5145 9.84761C74.3049 10.0017 74.1446 10.2149 74.0534 10.4606C73.9622 10.7063 73.9442 10.9738 74.0017 11.2298C74.0592 11.4858 74.1895 11.719 74.3766 11.9005C74.5637 12.082 74.7992 12.2038 75.054 12.2507C75.3087 12.2976 75.5714 12.2675 75.8095 12.1643C76.0475 12.061 76.2504 11.8891 76.3929 11.6699C76.5354 11.4507 76.6113 11.1939 76.6111 10.9314C76.611 10.75 76.5746 10.5705 76.504 10.4038C76.4335 10.2371 76.3304 10.0867 76.2008 9.96166C76.0713 9.8366 75.918 9.73952 75.7504 9.6763C75.5828 9.61308 75.4042 9.58504 75.2256 9.59387H75.2325Z" fill="white"/>
<path d="M94.5575 17.6702C94.5575 14.9766 92.74 13.1987 90.1666 13.1987C87.5289 13.1987 85.6953 15.0092 85.6953 17.8589C85.6953 20.7086 87.5771 22.5191 90.1666 22.5191C92.3701 22.5191 93.8429 21.198 94.3323 19.5343H91.9036C91.752 19.8806 91.4999 20.1717 91.181 20.3691C90.862 20.5664 90.4914 20.6605 90.1184 20.6387C88.9925 20.6387 88.0918 19.8884 87.9792 18.5416H94.4839C94.5319 18.2537 94.5565 17.9622 94.5575 17.6702ZM87.9953 17.0178C88.1722 15.7758 89.0247 15.0745 90.1023 15.0745C91.2511 15.0745 92.1932 15.8248 92.2253 17.0178H87.9953Z" fill="white"/>
<path d="M102.133 11.0107V14.6014C101.786 14.1584 101.342 13.8021 100.838 13.5597C100.333 13.3174 99.7803 13.1955 99.222 13.2034C96.9381 13.2034 95.1367 15.0139 95.1367 17.8379C95.1367 20.662 96.9381 22.5401 99.2059 22.5401C100.605 22.5401 101.602 21.8876 102.133 21.0558V22.3933H104.417V11.0107H102.133ZM99.7849 20.5245C98.5786 20.5245 97.4367 19.5459 97.4367 17.8333C97.4367 16.1206 98.5855 15.2049 99.7849 15.2049C100.984 15.2049 102.149 16.1533 102.149 17.8659C102.149 19.5785 101.023 20.5245 99.7849 20.5245Z" fill="white"/>
<path d="M108.054 16.5606C107.796 16.5698 107.545 16.6559 107.335 16.8083C107.124 16.9607 106.962 17.1727 106.869 17.4177C106.776 17.6628 106.757 17.9301 106.813 18.1864C106.869 18.4427 106.998 18.6766 107.184 18.8591C107.37 19.0415 107.605 19.1643 107.859 19.2123C108.114 19.2602 108.377 19.2311 108.615 19.1287C108.853 19.0262 109.057 18.8549 109.2 18.6361C109.343 18.4173 109.419 18.1606 109.419 17.8981C109.418 17.7187 109.382 17.5414 109.313 17.3764C109.243 17.2115 109.142 17.0623 109.015 16.9377C108.888 16.813 108.737 16.7155 108.572 16.6507C108.407 16.586 108.231 16.5553 108.054 16.5606Z" fill="white"/>
<path d="M113.696 20.5733V10.9966H111.445V22.3837H117.396V20.5733H113.696Z" fill="white"/>
<path d="M118.346 13.3453V22.3838H120.597V13.3453H118.346ZM119.495 9.59387C119.236 9.60529 118.986 9.69352 118.777 9.84761C118.567 10.0017 118.407 10.2149 118.315 10.4606C118.224 10.7063 118.206 10.9738 118.264 11.2298C118.321 11.4858 118.452 11.719 118.639 11.9005C118.826 12.082 119.061 12.2038 119.316 12.2507C119.571 12.2976 119.833 12.2675 120.072 12.1643C120.31 12.061 120.512 11.8891 120.655 11.6699C120.797 11.4507 120.873 11.1939 120.873 10.9314C120.873 10.75 120.837 10.5705 120.766 10.4038C120.696 10.2371 120.592 10.0867 120.463 9.96166C120.333 9.8366 120.18 9.73952 120.012 9.6763C119.845 9.61308 119.666 9.58504 119.488 9.59387H119.495Z" fill="white"/>
<path d="M127.042 13.2193C126.529 13.2035 126.02 13.3083 125.554 13.5253C125.087 13.7424 124.677 14.0659 124.354 14.4706V13.3452H122.102V22.3836H124.354V17.3925C124.354 15.9409 125.142 15.1556 126.365 15.1556C127.587 15.1556 128.343 15.9409 128.343 17.3925V22.3836H130.595V17.0826C130.597 14.5848 129.117 13.2193 127.042 13.2193Z" fill="white"/>
<path d="M136.783 18.7233H135.239L139.981 13.3478H137.043L134.051 17.1808V10.999H131.797V22.3862H134.051V18.5369L137.075 22.3862H140.002L136.783 18.7233Z" fill="white"/>
<path d="M79.5375 22.3838L85.5069 13.3477H83.092L77.125 22.3838H79.5375Z" fill="white"/>
<path d="M83.092 22.3838L77.125 13.3477H79.5375L85.5069 22.3838H83.092Z" fill="white"/>
<path d="M20.609 4L8.82063 15.9984L13.6928 20.9606L11.7883 22.8989L5.01496 15.9984L11.7915 9.10109L12.9088 10.2383L15.4131 7.6861L11.7915 4L0 15.9984L11.7915 28L23.5799 15.9984L18.7045 11.0394L20.609 9.10109L27.3855 15.9984L20.609 22.8957L19.3997 21.6681L16.8954 24.217L20.609 28L32.3973 15.9984L20.609 4ZM16.1875 13.5884L18.5554 15.9984L16.1875 18.4084L13.8197 15.9984L16.1875 13.5884Z" fill="white"/>
</g>
<defs>
<clipPath id="clip0_756_1663">
<rect width="140" height="24" fill="white" transform="translate(0 4)"/>
</clipPath>
</defs>
</svg>
