<svg width="139" height="32" viewBox="0 0 139 32" fill="none" xmlns="http://www.w3.org/2000/svg">
<g clip-path="url(#clip0_7105_38133)">
<path fill-rule="evenodd" clip-rule="evenodd" d="M0.382812 15.9989V31.7097L18.2177 31.6343L36.0525 31.5585V15.9989V0.439278L18.2177 0.363535L0.382812 0.288086V15.9989ZM2.73144 15.9255V29.2099H18.1443H33.5571V15.9255V2.64111H18.1443H2.73144V15.9255ZM8.38075 15.7787C6.92637 18.9676 5.79433 21.6761 5.86567 21.7971C5.93701 21.918 6.7194 22.0173 7.60424 22.0173H9.21305L10.2056 19.9464L11.1979 17.8755L12.1758 19.873L13.1535 21.8705L14.8439 21.9585L16.534 22.0466L17.4946 19.929L18.4549 17.8115L19.3838 19.9144L20.3126 22.0173H22.0908C23.0687 22.0173 23.869 21.9031 23.869 21.7639C23.869 21.1941 18.7044 10.2093 18.4355 10.2069C18.2752 10.2057 17.4312 11.8013 16.5595 13.7527C15.6879 15.7042 14.8815 17.2431 14.7672 17.1726C14.653 17.1022 13.8472 15.4552 12.9758 13.5132C12.1048 11.5709 11.3095 9.98144 11.2088 9.98115C11.1081 9.98086 9.83543 12.5899 8.38075 15.7787ZM28.6397 10.216L27.0984 10.305V12.3445V14.3842H24.5716C22.668 14.3842 22.0809 14.4747 22.1907 14.7512C22.2711 14.9532 22.5638 15.6795 22.8412 16.3659L23.3456 17.6136H25.2092H27.0726L27.1589 19.742L27.2452 21.8705H28.8599H30.4745L30.5544 16.1668C30.5984 13.03 30.5324 10.3878 30.4076 10.2953C30.2828 10.2028 29.4875 10.1673 28.6397 10.216ZM45.3002 11.8689C45.3002 12.0576 47.6835 16.5937 48.7427 18.4209C49.8439 20.3207 50.5667 20.158 52.0082 17.687C53.2988 15.4743 54.9883 12.2082 54.9883 11.9258C54.9883 11.8248 54.5576 11.742 54.0312 11.742C53.13 11.742 52.9887 11.8965 51.6166 14.3766C50.7082 16.0183 50.0811 16.8717 49.9523 16.6416C49.8386 16.4384 49.2233 15.2858 48.5848 14.0804C47.498 12.028 47.3567 11.8829 46.3624 11.7978C45.7782 11.7476 45.3002 11.7796 45.3002 11.8689ZM58.3542 12.0523C58.2488 12.2229 58.2435 12.6853 58.3424 13.0799C58.5212 13.7921 58.5479 13.7971 62.1507 13.7971C66.0368 13.7971 66.6847 13.5698 66.2954 12.3433C66.1161 11.7784 65.8765 11.742 62.3254 11.742C59.9868 11.742 58.4728 11.8603 58.3542 12.0523ZM69.5013 12.126C69.4203 12.3374 69.3915 14.0877 69.4373 16.0159L69.5204 19.5218H70.4011H71.2819L71.4287 16.9448L71.5754 14.3678L74.2115 17.0182C76.46 19.2788 76.9887 19.6686 77.8078 19.6686C78.336 19.6686 78.7728 19.5365 78.7787 19.3751C78.7843 19.2136 78.789 17.5622 78.789 15.7053C78.789 13.8485 78.7843 12.1971 78.7787 12.0356C78.7728 11.8741 78.3718 11.742 77.8874 11.742H77.0066V14.4518V17.1615L74.2855 14.4518C71.9683 12.1442 71.4222 11.742 70.6066 11.742C70.0797 11.742 69.5823 11.9149 69.5013 12.126ZM82.2543 12.0356C82.2341 12.1971 82.2176 12.5274 82.2176 12.7696C82.2176 13.0118 82.2341 13.342 82.2543 13.5035C82.2746 13.665 82.9516 13.7971 83.7589 13.7971H85.2268V16.2684C85.2268 19.2984 85.3545 19.6686 86.4011 19.6686C87.4469 19.6686 87.5754 19.2978 87.5754 16.2837V13.8279L89.1167 13.7389C90.6198 13.6526 90.6604 13.6265 90.7499 12.6962L90.8421 11.742H86.5664C83.9362 11.742 82.2769 11.8551 82.2543 12.0356ZM94.0342 14.3848C94.0342 18.5281 94.759 19.4581 98.1202 19.6278C102.06 19.8269 103.237 18.583 103.081 14.3842L102.988 11.8888H102.108H101.227L101.141 14.3696C101.093 15.7341 100.907 17.0276 100.728 17.244C100.497 17.5217 99.7883 17.6124 98.3186 17.5522L96.236 17.4668L96.0892 14.6778L95.9424 11.8888L94.9883 11.7969L94.0342 11.7047V14.3848ZM106.364 15.7053V19.6686H107.245C108.093 19.6686 108.126 19.6196 108.126 18.3475V17.0264H109.581C110.996 17.0264 111.059 17.0634 111.811 18.3475C112.447 19.4323 112.738 19.6686 113.438 19.6686C114.438 19.6686 114.499 19.3199 113.756 17.8631C113.239 16.8485 113.239 16.7927 113.756 16.1539C114.366 15.4009 114.454 13.593 113.915 12.8908C113.215 11.9798 112.264 11.742 109.32 11.742H106.364V15.7053ZM117.665 12.3348C117.261 13.6071 117.907 13.8203 121.894 13.7322L125.594 13.6503V12.7696V11.8888L121.726 11.8072C118.033 11.7291 117.85 11.7529 117.665 12.3348ZM129.699 12.4537C128.836 13.3171 128.712 14.9658 129.456 15.7089C130.244 16.4974 131.217 16.7329 133.686 16.7329C135.539 16.7329 136.016 16.8212 136.016 17.1638C136.016 17.5138 135.366 17.6107 132.566 17.6776L129.117 17.7604V18.6411V19.5218L132.727 19.6043L136.336 19.6868L137.204 18.8196C138.262 17.761 138.313 16.754 137.363 15.6484C136.699 14.8745 136.482 14.8158 133.79 14.6778C131.912 14.5815 130.884 14.408 130.807 14.1734C130.72 13.9092 131.592 13.7944 134.16 13.7331L137.63 13.6503V12.7696V11.8888L134.03 11.8063C130.534 11.7262 130.408 11.7453 129.699 12.4537ZM108.126 14.531C108.126 15.2429 108.187 15.265 110.15 15.265C111.728 15.265 112.212 15.1625 112.352 14.7982C112.665 13.9847 112.254 13.7971 110.164 13.7971C108.186 13.7971 108.126 13.8185 108.126 14.531ZM58.3304 15.1011C58.2411 15.3337 58.2138 15.7632 58.2699 16.0553C58.3606 16.5285 58.7725 16.5949 62.0682 16.668C66.0444 16.756 66.6962 16.5417 66.2954 15.2791C66.1161 14.7139 65.8765 14.6778 62.2987 14.6778C59.2552 14.6778 58.4602 14.7627 58.3304 15.1011ZM117.615 15.1496C117.176 16.2919 117.863 16.5817 121.221 16.6715C125.309 16.7807 125.806 16.6639 125.686 15.6217L125.594 14.8246L121.698 14.7427C118.287 14.6708 117.779 14.7216 117.615 15.1496ZM58.3304 18.0369C58.2411 18.2694 58.2138 18.6989 58.2699 18.9911C58.3609 19.4661 58.7784 19.5304 62.2356 19.6035C65.8043 19.6792 66.1128 19.6431 66.2752 19.1311C66.3721 18.8264 66.368 18.3602 66.2664 18.0954C66.1081 17.6832 65.5339 17.6136 62.2872 17.6136C59.2537 17.6136 58.4602 17.6984 58.3304 18.0369ZM117.683 18.1511C117.586 18.4559 117.592 18.9256 117.695 19.1951C117.86 19.6243 118.362 19.6751 121.739 19.6035L125.594 19.5218V18.6411V17.7604L121.726 17.6788C118.154 17.603 117.845 17.6391 117.683 18.1511Z" fill="white"/>
</g>
<defs>
<clipPath id="clip0_7105_38133">
<rect width="137.688" height="32" fill="white" transform="translate(0.382812)"/>
</clipPath>
</defs>
</svg>
