<svg width="166" height="32" viewBox="0 0 166 32" fill="none" xmlns="http://www.w3.org/2000/svg">
<g clip-path="url(#clip0_7105_38150)">
<path fill-rule="evenodd" clip-rule="evenodd" d="M22.9314 4.57467C22.5581 4.82008 22.0748 5.35231 21.8569 5.75696L21.4611 6.49299V15.9511C21.4611 26.1718 21.4446 26.0216 22.702 27.1964L23.3071 27.7619H25.5325H27.758L28.3631 27.1964C29.62 26.022 29.604 26.1677 29.604 16C29.604 5.6934 29.6275 5.8868 28.2376 4.71739L27.5337 4.125L25.5717 4.12658C24.0001 4.12771 23.4749 4.21683 22.9314 4.57467ZM42.5645 4.56833C41.1051 5.45794 41.1191 5.33851 41.1892 16.2447L41.2528 26.0983L42.2053 26.9867L43.158 27.875H45.0557C47.248 27.875 48.202 27.4233 48.8863 26.061L49.2819 25.2738L49.2821 16.0493C49.2825 5.93543 49.2735 5.85965 47.9387 4.73639L47.2122 4.125L45.2502 4.1259C43.7038 4.12658 43.1351 4.22023 42.5645 4.56833ZM0.199219 16V27.6488H1.55636H2.9135L2.93499 22.8423L2.95671 18.0357L3.46925 20.1411C3.75131 21.299 4.11141 22.4883 4.26974 22.7839C4.60292 23.4066 5.58255 23.8739 6.32807 23.7656C6.79222 23.6982 6.90803 23.4129 7.45993 20.9762L8.07472 18.2619L8.0953 22.9554L8.11588 27.6488H9.58612H11.0564V16V4.35119H9.84737C8.97767 4.35119 8.54203 4.46225 8.29503 4.74702C8.09394 4.97864 7.50969 7.44073 6.88563 10.6845C6.29957 13.7324 5.76373 16.3789 5.69497 16.5655C5.62621 16.7521 5.032 14.3183 4.37447 11.157C3.71693 7.9958 3.07071 5.17113 2.93816 4.88025C2.7278 4.4186 2.5378 4.35119 1.44802 4.35119H0.199219V16ZM60.8182 16V27.6488H62.2885H63.7587L63.7773 22.7292L63.7958 17.8095L64.7834 22.1565C65.3264 24.5473 65.8808 26.709 66.0152 26.9603C66.2997 27.4918 67.0014 27.7121 68.0817 27.609L68.848 27.5357V16V4.46429L67.4386 4.39711L66.029 4.32993L65.9684 9.59949L65.9075 14.869L64.9236 10.006C64.3525 7.18423 63.792 4.97661 63.5879 4.74702C63.3357 4.46315 62.894 4.35119 62.0272 4.35119H60.8182V16ZM79.623 7.00893C79.8508 8.4708 80.6185 13.4696 81.329 18.1176C82.7969 27.7246 82.7714 27.6488 84.5436 27.6488H85.6171L87.3619 16.1696C88.3214 9.85599 89.1034 4.61425 89.0993 4.52083C89.0952 4.42742 88.4555 4.35119 87.6777 4.35119H86.2635L85.2493 11.1211C84.6913 14.8444 84.2185 17.8726 84.1984 17.8502C84.1783 17.8278 83.7424 15.0104 83.2299 11.5893C82.7171 8.16815 82.2 5.14014 82.0806 4.86012C81.8908 4.41475 81.6977 4.35119 80.5362 4.35119H79.2084L79.623 7.00893ZM101.431 4.86012C101.371 5.14014 100.599 10.2039 99.7176 16.1131C98.8359 22.0223 98.0623 27.0352 97.9985 27.253C97.8963 27.6033 98.0655 27.6488 99.4712 27.6488H101.06L101.188 26.9137C101.259 26.5095 101.665 23.4955 102.09 20.216C102.8 14.7494 103.116 13.024 103.116 14.6137C103.116 14.95 103.472 17.9364 103.908 21.2503C104.343 24.564 104.699 27.3593 104.699 27.462C104.699 27.5647 105.423 27.6488 106.308 27.6488H107.916L107.783 26.9137C107.709 26.5093 106.927 21.4455 106.045 15.6607C104.9 8.15685 104.338 5.02954 104.083 4.74702C103.836 4.47424 103.385 4.35119 102.633 4.35119C101.684 4.35119 101.527 4.41792 101.431 4.86012ZM118.052 4.78864C117.901 5.07138 117.818 8.77231 117.819 15.25L117.819 25.2738L118.215 26.0494C118.877 27.3482 119.647 27.7506 121.622 27.8289C123.663 27.9101 124.64 27.5233 125.448 26.3147L125.961 25.5461V14.9487V4.35119H124.491H123.021V14.6349V24.9187L122.583 25.1528C121.969 25.4812 121.527 25.4446 121.114 25.0316C120.801 24.719 120.759 23.4505 120.759 14.5137V4.35119H119.523C118.532 4.35119 118.24 4.43805 118.052 4.78864ZM138.402 16V27.6488H141.759C144.696 27.6488 145.163 27.5981 145.483 27.2446C145.809 26.8847 146.544 25.367 146.544 25.0549C146.544 24.9886 145.374 24.9345 143.943 24.9345H141.342V15.0803C141.342 8.72029 141.259 5.07115 141.108 4.78864C140.92 4.43805 140.628 4.35119 139.638 4.35119H138.402V16ZM154.017 4.78864C153.888 5.02931 153.783 5.64002 153.783 6.14579V7.06548H155.477H157.171L157.23 17.3006L157.288 27.5357H158.646H160.003L160.062 17.3006L160.12 7.06548H161.553C163.15 7.06548 163.466 6.85896 164.066 5.42469C164.257 4.96665 164.413 4.5378 164.413 4.47152C164.413 4.40525 162.127 4.35119 159.332 4.35119H154.251L154.017 4.78864ZM24.673 6.88452C24.471 7.08651 24.4016 9.4312 24.4016 16.0373V24.9187L24.839 25.1528C25.4527 25.4812 25.8949 25.4446 26.3082 25.0316C26.6189 24.7205 26.6635 23.5781 26.6635 15.9161C26.6635 9.40429 26.5938 7.08629 26.3921 6.88452C26.0422 6.53461 25.0229 6.53461 24.673 6.88452ZM44.3516 6.88452C44.1496 7.08651 44.0802 9.4312 44.0802 16.0373V24.9187L44.5176 25.1528C45.1313 25.4812 45.5735 25.4446 45.9867 25.0316C46.2975 24.7208 46.3421 23.5857 46.3421 16C46.3421 8.41425 46.2975 7.27923 45.9867 6.96844C45.5649 6.5466 44.7323 6.50385 44.3516 6.88452Z" fill="white"/>
</g>
<defs>
<clipPath id="clip0_7105_38150">
<rect width="165" height="32" fill="white" transform="translate(0.164062)"/>
</clipPath>
</defs>
</svg>
