<svg width="90" height="32" viewBox="0 0 90 32" fill="none" xmlns="http://www.w3.org/2000/svg">
<g clip-path="url(#clip0_757_2182)">
<mask id="mask0_757_2182" style="mask-type:luminance" maskUnits="userSpaceOnUse" x="0" y="6" width="90" height="20">
<path d="M89.0335 6.55469H0.00390625V25.6647H89.0335V6.55469Z" fill="white"/>
</mask>
<g mask="url(#mask0_757_2182)">
<path d="M14.4148 6.59371H17.9527V25.6204C17.7741 25.6323 17.6045 25.6537 17.4349 25.6537C16.7403 25.6579 16.0451 25.6365 15.3517 25.6632C15.1898 25.6764 15.0272 25.6474 14.8798 25.5791C14.7324 25.5107 14.6053 25.4054 14.5107 25.2734C13.231 23.7134 11.9352 22.1682 10.6419 20.6201C8.38409 17.9088 6.12551 15.1981 3.86614 12.4879C3.82003 12.4258 3.78016 12.3592 3.7471 12.2892C3.69572 12.292 3.64481 12.3006 3.59533 12.3147C3.58776 12.319 3.58122 12.3249 3.57619 12.332C3.57115 12.3391 3.56773 12.3473 3.56616 12.3558V25.64C2.35196 25.6674 1.19311 25.6615 0.00390625 25.64V6.64192C0.0653006 6.60756 0.132141 6.58401 0.201512 6.57228C1.108 6.56633 2.01448 6.57407 2.91799 6.55859C3.03338 6.56453 3.14549 6.59908 3.24419 6.65914C3.3429 6.71919 3.42512 6.80287 3.48343 6.90262C4.89206 8.58028 6.30268 10.257 7.71528 11.9326C9.79014 14.3928 11.8656 16.8529 13.9416 19.3131C14.0607 19.4553 14.1976 19.5875 14.4178 19.8214V6.59371H14.4148Z" fill="white"/>
<path d="M36.5559 6.56647C39.3426 12.9416 42.1007 19.2513 44.8886 25.6205H41.0335C40.3907 24.1069 39.7402 22.5743 39.0896 21.0429H30.6724C30.0718 22.56 29.4695 24.0891 28.8653 25.6181H25.043C25.3739 24.7944 25.6798 24.0248 25.9953 23.2576C26.9345 20.9562 27.8743 18.6547 28.8147 16.3533C29.8579 13.8015 30.9011 11.2491 31.9443 8.69608C32.1865 8.10089 32.4312 7.50985 32.6663 6.91406C32.7413 6.72538 32.8109 6.56171 33.0591 6.56349C34.2138 6.56944 35.3685 6.56349 36.5583 6.56349L36.5559 6.56647ZM31.8098 18.1561C33.8015 18.2664 35.7982 18.2506 37.7879 18.1091C37.538 17.2163 34.9375 11.1572 34.6376 10.8084C33.6965 13.2547 32.7627 15.6783 31.8104 18.1579L31.8098 18.1561Z" fill="white"/>
<path d="M89.0324 25.6306H85.1773C84.5309 24.1057 83.8881 22.5898 83.2352 21.053H74.8108C74.2084 22.5743 73.6043 24.1051 72.9996 25.6324H69.1719C71.7723 19.259 74.3501 12.9422 76.938 6.60156H80.7121C83.4643 12.897 86.2302 19.2197 89.0324 25.6324V25.6306ZM82.0132 18.1722L78.8373 10.6572C77.8463 13.2344 76.9071 15.673 75.9464 18.1722H82.0132Z" fill="white"/>
<path d="M58.8754 25.6211H55.2358V24.9569C55.2358 22.2279 55.2298 19.4989 55.2417 16.7699C55.2517 16.4028 55.1341 16.0436 54.909 15.7533C52.7147 12.8373 50.529 9.91525 48.3517 6.98728C48.2726 6.88193 48.2035 6.77122 48.0898 6.60337C48.294 6.58611 48.438 6.56469 48.5827 6.56469C49.7201 6.56469 50.8593 6.57421 51.9967 6.55695C52.1478 6.54429 52.2994 6.57408 52.4344 6.64296C52.5694 6.71184 52.6825 6.81708 52.761 6.9468C53.9793 8.67645 55.2167 10.3924 56.4512 12.1143C56.6297 12.3637 56.8148 12.6113 57.0267 12.8994C57.1577 12.7452 57.2594 12.6381 57.3463 12.5196C58.682 10.6829 60.0247 8.84965 61.3419 7.00156C61.4296 6.85502 61.5561 6.73567 61.7075 6.65675C61.859 6.57784 62.0293 6.54247 62.1996 6.55457C63.2793 6.57778 64.359 6.5623 65.4404 6.56409C65.5886 6.56409 65.738 6.58373 65.9761 6.60099C65.5333 7.20869 65.1428 7.75389 64.7441 8.29195C62.8831 10.8009 61.0181 13.3079 59.1492 15.8129C58.9526 16.0778 58.8545 16.403 58.8718 16.7324C58.8796 19.4614 58.8754 22.1904 58.8754 24.9194V25.6187V25.6211Z" fill="white"/>
</g>
</g>
<defs>
<clipPath id="clip0_757_2182">
<rect width="89.0296" height="19.11" fill="white" transform="translate(0 6.55469)"/>
</clipPath>
</defs>
</svg>
