<svg width="86" height="32" viewBox="0 0 86 32" fill="none" xmlns="http://www.w3.org/2000/svg">
<g clip-path="url(#clip0_450_1169)">
<path d="M45.3879 15.2859L47.3551 15.2776L47.3583 27.3279C47.3648 27.4561 47.3911 27.5914 47.3173 27.7028L45.3885 27.7032L45.3879 15.2859Z" fill="white"/>
<path d="M12.9588 15.2813L14.9565 15.2766L14.9589 27.7067L12.9543 27.7094L12.9588 15.2813Z" fill="white"/>
<path d="M5.10086 15.0196L5.65998 15.0038C7.14361 15.0003 8.51238 15.5473 9.56135 16.6016C10.1847 17.2282 10.6726 18.0221 10.9111 18.8756C11.2978 20.2599 11.1549 21.8076 11.1555 23.238L11.1537 27.709L9.12103 27.6953L9.11975 22.3285C9.11932 21.5618 9.20341 20.6885 9.09155 19.9337C9.02341 19.4737 8.84323 19.0242 8.58772 18.6359C8.01866 17.7713 7.19281 17.2182 6.18378 17.0039L5.78306 16.9809C4.76358 16.9758 3.88055 17.2742 3.15344 18.0089C2.70738 18.4596 2.37344 19.022 2.22849 19.6404C2.01515 20.5505 2.13224 21.6753 2.13224 22.6151L2.13798 27.7115L0.114634 27.7073L0.107305 23.1538C0.106808 21.8848 -0.0109892 20.5189 0.244011 19.2767C0.399934 18.5172 0.731956 17.7818 1.20405 17.1659C2.21032 15.8531 3.48627 15.2315 5.10086 15.0196Z" fill="white"/>
<path d="M54.8203 15.017C56.3978 14.9228 57.8623 15.1441 59.1772 16.0767C60.6785 17.1416 61.6469 18.6719 61.9482 20.4833C62.2215 22.1258 61.8102 23.875 60.8392 25.2246C59.7651 26.7173 58.3025 27.6437 56.4941 27.9391C54.9081 28.1055 53.2835 27.796 51.9783 26.8443C50.522 25.7825 49.592 24.2485 49.3223 22.4753C49.0783 20.8712 49.4624 19.0705 50.4291 17.7562C51.5443 16.2401 52.9559 15.2986 54.8203 15.017ZM54.9495 17.0127C53.6428 17.3105 52.6441 17.9576 51.9196 19.1064C51.2992 20.09 51.1384 21.4232 51.4007 22.5461C51.6805 23.7436 52.4555 24.8022 53.5098 25.4365C54.3844 25.9627 55.3417 26.0459 56.3389 25.9567C57.5497 25.7467 58.4776 25.1001 59.1859 24.1005C59.9467 23.0267 60.144 21.8354 59.9232 20.5537C59.7284 19.4233 58.965 18.3308 58.0355 17.6763C57.0885 17.0094 56.0706 16.9111 54.9495 17.0127Z" fill="white"/>
<path d="M31.0805 11.0531L33.0576 11.0545L33.0563 16.8062C33.941 15.9339 34.9459 15.3735 36.1615 15.1083C37.7272 14.7667 39.449 15.0452 40.7945 15.9211C42.2175 16.8475 43.3683 18.3972 43.7175 20.0716C44.0888 21.8519 43.7448 23.6144 42.7581 25.1306L41.9881 26.059C40.7249 27.3308 39.1999 27.9688 37.4088 27.9747C35.6857 27.9804 34.1741 27.2872 32.9632 26.0783C32.123 25.2394 31.522 24.26 31.2364 23.1029C31.0608 22.3916 31.0803 21.6853 31.0791 20.9591L31.079 18.4663L31.0805 11.0531ZM37.0309 16.9692C35.7803 17.1026 34.8491 17.64 34.064 18.6156C33.2871 19.5811 32.9904 20.8299 33.1222 22.0528C33.2541 23.2758 33.9228 24.363 34.8775 25.12C35.793 25.8458 36.7872 26.0714 37.9379 25.965C39.1821 25.7794 40.1722 25.21 40.9297 24.1886C41.635 23.2376 41.9787 21.9941 41.7969 20.8142C41.6022 19.5501 40.9198 18.476 39.8843 17.7286C39.0784 17.147 38.0581 16.8548 37.0633 16.9636L37.0309 16.9692Z" fill="white"/>
<path d="M16.8109 11.0494L18.8001 11.054L18.8076 16.7877C19.678 15.9684 20.5997 15.403 21.7781 15.1334C23.3669 14.77 25.0954 15.0111 26.4773 15.8863C27.9521 16.8203 29.0582 18.3365 29.4393 20.0421C29.8363 21.8188 29.489 23.57 28.5185 25.0932L27.6956 26.0976C26.4576 27.3472 24.8956 27.9712 23.1439 27.9741C21.3908 27.977 19.9031 27.2752 18.6708 26.0468C17.8381 25.2167 17.2393 24.2084 16.9632 23.0618C16.7934 22.3565 16.8137 21.6326 16.8125 20.913L16.8116 18.505L16.8109 11.0494ZM22.7441 16.969C21.5558 17.0932 20.61 17.6128 19.8503 18.5462C19.0399 19.5418 18.724 20.7934 18.863 22.0629C18.9951 23.2684 19.6461 24.3449 20.5851 25.0983C21.5195 25.848 22.5227 26.0589 23.7003 25.9606C24.9618 25.7638 25.9456 25.1745 26.7046 24.136C27.4267 23.1481 27.7041 21.9291 27.5156 20.7226C27.3221 19.484 26.5942 18.4292 25.5861 17.7029C24.7367 17.0909 23.7746 16.9046 22.7441 16.969Z" fill="white"/>
<path d="M63.71 4.04883L68.2242 4.08157C70.2959 4.22788 73.5206 4.63194 74.0764 7.08637C74.2169 7.70694 74.2939 8.54583 74.7371 9.03688C74.8784 9.19348 75.0529 9.29951 75.2691 9.29197C75.4824 9.28451 75.7034 9.18894 75.9084 9.13314L76.5926 8.97928C77.9361 8.68923 79.3214 8.43748 80.7005 8.48454C81.2996 8.50494 82.1328 8.58851 82.5468 9.07477C82.6522 9.19811 82.7054 9.41951 82.8048 9.52151C82.8382 9.55588 82.9634 9.59231 83.0139 9.6158L83.6302 9.92703C84.1522 10.2095 84.6468 10.5653 85.0514 11.0015C85.4251 11.4046 85.7268 11.8882 85.7019 12.4562C85.6985 12.5265 85.6899 12.5217 85.6359 12.5699C84.6116 12.3041 83.5196 12.308 82.4765 12.451C79.3591 12.8783 76.5972 14.5598 74.3342 16.6855C73.5391 17.4323 72.8512 18.2681 72.0818 19.0363C71.3762 19.7406 70.6069 20.3682 69.7698 20.9104C67.683 22.2618 65.3974 22.8818 62.9538 23.1605L63.1162 22.6913C63.6565 20.9261 63.5092 18.9515 62.6412 17.3141C61.6458 15.4361 59.9513 14.2404 57.9518 13.6194C55.9118 13.1008 53.9576 13.2172 51.986 13.9499C53.5138 12.2076 55.5097 10.5589 57.618 9.57097C59.1504 10.1519 60.5088 10.9663 61.6658 12.1379C63.8931 14.3933 64.8691 17.6615 64.0315 20.7498C63.9405 21.0851 63.8345 21.4132 63.7016 21.7343C63.5995 21.9806 63.3068 22.4039 63.305 22.6541C64.4524 20.7701 64.9915 18.7941 64.6775 16.5803C64.3309 14.1364 62.9371 11.9563 60.9713 10.4837C58.547 8.66771 55.4362 7.94643 52.4485 8.37851C55.6903 5.97988 59.688 4.41697 63.71 4.04883ZM80.2171 10.0511C80.0859 10.1413 80.0362 10.164 79.9745 10.3163C80.0456 10.4495 80.1271 10.5273 80.2728 10.5699C80.4228 10.6135 80.5616 10.604 80.7116 10.5677C80.8402 10.5096 80.9114 10.469 80.9851 10.3436C80.9688 10.2185 80.9568 10.1885 80.8514 10.1041C80.7339 10.0099 80.5136 9.99585 80.3671 10.0173L80.2171 10.0511Z" fill="white"/>
</g>
<defs>
<clipPath id="clip0_450_1169">
<rect width="85.7143" height="24" fill="white" transform="translate(0 4)"/>
</clipPath>
</defs>
</svg>
