<svg width="115" height="32" viewBox="0 0 115 32" fill="none" xmlns="http://www.w3.org/2000/svg">
<g clip-path="url(#clip0_449_844)">
<path d="M61.1857 15.0478L63.8085 15.0367L63.8128 31.1038C63.8214 31.2748 63.8565 31.4551 63.7581 31.6037L61.1865 31.6043L61.1857 15.0478Z" fill="white"/>
<path d="M17.9469 15.0418L20.6104 15.0355L20.6136 31.609L17.9409 31.6125L17.9469 15.0418Z" fill="white"/>
<path d="M7.46953 14.6927L8.21501 14.6717C10.1932 14.667 12.0182 15.3963 13.4168 16.8021C14.2479 17.6375 14.8986 18.696 15.2165 19.8341C15.7322 21.6798 15.5415 23.7434 15.5423 25.6506L15.54 31.6119L12.8298 31.5937L12.828 24.4379C12.8275 23.4157 12.9396 22.2513 12.7904 21.2448C12.6996 20.6315 12.4594 20.0322 12.1187 19.5145C11.3599 18.3617 10.2588 17.6242 8.91341 17.3385L8.37913 17.3078C7.01981 17.301 5.84244 17.6989 4.87296 18.6784C4.27821 19.2794 3.83296 20.0293 3.6397 20.8538C3.35524 22.0673 3.51136 23.567 3.51136 24.8201L3.51901 31.6152L0.821221 31.6097L0.811449 25.5383C0.810786 23.8463 0.653723 22.0251 0.993723 20.3689C1.20162 19.3562 1.64432 18.3757 2.27378 17.5545C3.61547 15.8041 5.31673 14.9753 7.46953 14.6927Z" fill="white"/>
<path d="M73.7621 14.6894C75.8654 14.5638 77.8181 14.8589 79.5713 16.1023C81.5731 17.5222 82.8643 19.5627 83.266 21.9778C83.6304 24.1678 83.082 26.5 81.7873 28.2996C80.3552 30.2898 78.405 31.525 75.9939 31.9189C73.8792 32.1407 71.713 31.728 69.9728 30.4591C68.031 29.0434 66.791 26.9981 66.4314 24.6339C66.1061 22.495 66.6182 20.0941 67.9072 18.3416C69.3941 16.3202 71.2763 15.0648 73.7621 14.6894ZM73.9344 17.3503C72.1921 17.7474 70.8605 18.6102 69.8945 20.142C69.0673 21.4534 68.8529 23.231 69.2027 24.7283C69.5757 26.3248 70.6091 27.7364 72.0148 28.5821C73.1809 29.2837 74.4573 29.3947 75.7869 29.2757C77.4013 28.9957 78.6385 28.1335 79.5829 26.8007C80.5973 25.369 80.8604 23.7806 80.566 22.0717C80.3062 20.5645 79.2884 19.1078 78.0491 18.2351C76.7864 17.346 75.4292 17.2149 73.9344 17.3503Z" fill="white"/>
<path d="M42.1091 9.40417L44.7452 9.406L44.7435 17.075C45.9231 15.9119 47.2629 15.1647 48.8837 14.8111C50.9714 14.3556 53.2671 14.7269 55.0611 15.8948C56.9585 17.13 58.4928 19.1963 58.9584 21.4289C59.4535 23.8026 58.9948 26.1525 57.6792 28.1742L56.6525 29.4121C54.9683 31.1078 52.9349 31.9585 50.5468 31.9663C48.2493 31.9739 46.2339 31.0497 44.6194 29.4378C43.4991 28.3193 42.6978 27.0134 42.317 25.4706C42.0828 24.5221 42.1088 23.5804 42.1073 22.6122L42.1071 19.2884L42.1091 9.40417ZM50.0429 17.2923C48.3755 17.4702 47.1339 18.1867 46.0871 19.4875C45.0512 20.7748 44.6556 22.4399 44.8314 24.0705C45.0072 25.7011 45.8988 27.1507 47.1717 28.1601C48.3924 29.1278 49.718 29.4286 51.2523 29.2867C52.9112 29.0393 54.2314 28.2801 55.2413 26.9182C56.1817 25.6501 56.64 23.9922 56.3976 22.4189C56.138 20.7335 55.2282 19.3013 53.8475 18.3049C52.773 17.5293 51.4125 17.1398 50.0861 17.2849L50.0429 17.2923Z" fill="white"/>
<path d="M23.0829 9.39929L25.7351 9.40535L25.7452 17.0503C26.9056 15.9579 28.1347 15.204 29.7059 14.8446C31.8243 14.36 34.1288 14.6815 35.9713 15.8484C37.9377 17.0938 39.4126 19.1154 39.9207 21.3895C40.4501 23.7585 39.987 26.0934 38.6929 28.1243L37.5958 29.4635C35.9452 31.1297 33.8624 31.9616 31.5269 31.9655C29.1894 31.9694 27.2059 31.0337 25.5628 29.3958C24.4525 28.289 23.6541 26.9446 23.286 25.4158C23.0596 24.4754 23.0867 23.5102 23.0851 22.5507L23.0838 19.34L23.0829 9.39929ZM30.9939 17.2921C29.4094 17.4577 28.1484 18.1505 27.1355 19.3949C26.0549 20.7225 25.6336 22.3912 25.819 24.0839C25.9951 25.6913 26.8631 27.1266 28.1151 28.1311C29.3609 29.1307 30.6985 29.4119 32.2687 29.2809C33.9508 29.0185 35.2624 28.2327 36.2744 26.8481C37.2373 25.5308 37.6071 23.9055 37.3558 22.2969C37.0977 20.6453 36.1272 19.239 34.7831 18.2706C33.6505 17.4546 32.3678 17.2062 30.9939 17.2921Z" fill="white"/>
<path d="M85.6151 0.0651855L91.634 0.108841C94.3963 0.303927 98.6959 0.84267 99.437 4.11524C99.6243 4.94267 99.7269 6.06119 100.318 6.71593C100.506 6.92473 100.739 7.0661 101.027 7.05604C101.312 7.0461 101.606 6.91867 101.88 6.84427L102.792 6.63913C104.583 6.25238 106.43 5.91673 108.269 5.97947C109.068 6.00667 110.179 6.1181 110.731 6.76644C110.871 6.9309 110.942 7.2261 111.075 7.3621C111.119 7.40793 111.286 7.4565 111.354 7.48781L112.175 7.90278C112.871 8.27936 113.531 8.75376 114.07 9.33547C114.569 9.87284 114.971 10.5176 114.938 11.275C114.933 11.3687 114.922 11.3623 114.85 11.4266C113.484 11.0723 112.028 11.0774 110.637 11.268C106.481 11.8378 102.798 14.0798 99.7806 16.9141C98.7205 17.9099 97.8034 19.0243 96.7774 20.0485C95.8366 20.9876 94.8109 21.8244 93.6948 22.5472C90.9124 24.3492 87.865 25.1758 84.6068 25.5475L84.8234 24.9219C85.5437 22.5683 85.3474 19.9354 84.19 17.7522C82.8628 15.2483 80.6035 13.654 77.9374 12.826C75.2175 12.1344 72.6118 12.2896 69.983 13.2667C72.0202 10.9436 74.6813 8.7453 77.4924 7.42804C79.5356 8.20267 81.3468 9.2885 82.8895 10.8507C85.8593 13.8578 87.1605 18.2154 86.0437 22.3332C85.9225 22.7803 85.7811 23.2176 85.6038 23.6458C85.4677 23.9742 85.0774 24.5386 85.0751 24.8722C86.605 22.3603 87.3237 19.7255 86.9051 16.7739C86.4429 13.5152 84.5845 10.6085 81.9635 8.64507C78.731 6.2237 74.5834 5.26198 70.5997 5.8381C74.9221 2.63993 80.2524 0.556043 85.6151 0.0651855ZM107.625 8.06816C107.45 8.1885 107.383 8.21878 107.301 8.42187C107.396 8.59947 107.505 8.70313 107.699 8.75993C107.899 8.8181 108.084 8.80541 108.284 8.75707C108.455 8.67958 108.55 8.62541 108.649 8.45821C108.627 8.29136 108.611 8.25147 108.47 8.1389C108.314 8.0133 108.02 7.99456 107.825 8.02313L107.625 8.06816Z" fill="white"/>
</g>
<defs>
<clipPath id="clip0_449_844">
<rect width="114.286" height="32" fill="white" transform="translate(0.667969)"/>
</clipPath>
</defs>
</svg>
