<svg width="96" height="32" viewBox="0 0 96 32" fill="none" xmlns="http://www.w3.org/2000/svg">
<g clip-path="url(#clip0_756_1664)">
<path d="M21.6455 7.30899L21.5938 7.12344C21.703 7.13495 21.8052 7.14357 21.9001 7.14933C21.9979 7.15221 22.0771 7.15509 22.1374 7.15796C22.1978 7.15796 22.2281 7.15796 22.2281 7.15796H24.5194C24.5481 7.15796 24.5697 7.15652 24.584 7.15364C24.6013 7.14789 24.6172 7.13495 24.6315 7.11481C24.6487 7.09468 24.6732 7.06303 24.7048 7.01988C24.7365 6.97385 24.7682 6.92926 24.7998 6.88612C24.8343 6.84009 24.8573 6.80844 24.8689 6.79119C24.9004 6.75092 24.9422 6.74516 24.9939 6.77392C25.04 6.79982 25.0946 6.83865 25.1579 6.89043C25.2213 6.93933 25.2816 6.98968 25.3392 7.04146C25.3995 7.09323 25.4427 7.13495 25.4686 7.16659C25.4916 7.19536 25.4974 7.22268 25.4859 7.24857C25.4773 7.27447 25.4614 7.28741 25.4384 7.28741H22.2281C22.2281 7.28741 22.1978 7.28741 22.1374 7.28741C22.0771 7.28741 22.0008 7.28884 21.9087 7.29172C21.8196 7.2946 21.7319 7.30036 21.6455 7.30899ZM21.9864 4.81924L21.9347 4.62938C22.0497 4.64089 22.1604 4.64951 22.2669 4.65527C22.3734 4.65814 22.461 4.66102 22.5301 4.6639C22.602 4.6639 22.638 4.6639 22.638 4.6639H24.1957C24.2245 4.6639 24.2475 4.66102 24.2648 4.65527C24.2849 4.64664 24.3007 4.63226 24.3121 4.61212C24.3295 4.5891 24.351 4.5589 24.3769 4.5215C24.4028 4.48123 24.4287 4.4424 24.4546 4.405C24.4805 4.3676 24.4992 4.34027 24.5106 4.32301C24.5394 4.27986 24.5783 4.27267 24.6272 4.30144C24.6732 4.32733 24.7265 4.36329 24.7868 4.40931C24.8501 4.45534 24.9091 4.50281 24.9638 4.55171C25.0213 4.60061 25.0631 4.64232 25.0889 4.67684C25.112 4.70273 25.1191 4.73006 25.1104 4.75883C25.1018 4.78472 25.0846 4.79766 25.0586 4.79766C25.0472 4.79766 25.0213 4.79766 24.981 4.79766C24.9407 4.79766 24.889 4.79766 24.8257 4.79766C24.725 4.79766 24.6027 4.79766 24.4589 4.79766C24.318 4.79766 24.167 4.79766 24.0058 4.79766C23.8476 4.79766 23.6894 4.79766 23.5312 4.79766C23.3759 4.79766 23.232 4.79766 23.0997 4.79766C22.9703 4.79766 22.8637 4.79766 22.7804 4.79766C22.6969 4.79766 22.6495 4.79766 22.638 4.79766C22.638 4.79766 22.602 4.79766 22.5301 4.79766C22.461 4.79766 22.3762 4.7991 22.2756 4.80198C22.1749 4.80485 22.0785 4.81061 21.9864 4.81924Z" fill="white"/>
<path d="M28.4315 7.35648C28.1784 7.35648 27.9842 7.30614 27.849 7.20545C27.7167 7.10477 27.6505 6.93648 27.6505 6.7006V5.00912C27.6505 4.91419 27.6462 4.83796 27.6376 4.78043C27.6289 4.7229 27.6117 4.67975 27.5858 4.65098C27.5628 4.62221 27.5211 4.5992 27.4607 4.58194C27.4376 4.5503 27.4405 4.52153 27.4693 4.49564C27.5757 4.47263 27.6908 4.47694 27.8145 4.50859C27.9382 4.54023 28.0446 4.59201 28.1338 4.66392C28.1741 4.69844 28.1942 4.73584 28.1942 4.77611C28.197 4.81351 28.187 4.84803 28.164 4.87967C28.1352 4.92858 28.1108 5.00193 28.0906 5.09974C28.0734 5.19755 28.0605 5.30973 28.0518 5.4363C28.0432 5.56 28.0374 5.68945 28.0345 5.82465C28.1438 5.78726 28.259 5.74267 28.3797 5.69089C28.5005 5.63911 28.6171 5.58445 28.7293 5.52693C28.8414 5.46939 28.9378 5.4133 29.0184 5.35864C29.073 5.31837 29.1105 5.27521 29.1306 5.22919C29.1506 5.18316 29.142 5.13138 29.1046 5.07385C29.1046 5.0307 29.1248 5.00912 29.1651 5.00912C29.2572 5.04652 29.352 5.10694 29.4498 5.19035C29.5476 5.27378 29.6268 5.36151 29.6872 5.45357C29.7275 5.50822 29.7389 5.56432 29.7217 5.62186C29.7044 5.67651 29.6628 5.70384 29.5965 5.70384C29.5275 5.70384 29.434 5.71678 29.3161 5.74267C29.201 5.76568 29.0659 5.79445 28.9105 5.82897C28.7581 5.86061 28.6041 5.89369 28.4487 5.92822C28.2934 5.95986 28.1539 5.99006 28.0302 6.01883V6.64019C28.0302 6.76388 28.0619 6.84731 28.1252 6.89046C28.1884 6.93073 28.2848 6.95087 28.4143 6.95087C28.6012 6.95087 28.7853 6.93792 28.9666 6.91203C29.1506 6.88614 29.3075 6.84874 29.4369 6.79985C29.4887 6.77683 29.5519 6.77827 29.6268 6.80415C29.6958 6.82429 29.7533 6.85019 29.7993 6.88183C29.8482 6.91347 29.8871 6.94512 29.9159 6.97676C29.9706 7.0458 29.9835 7.11339 29.9547 7.17957C29.9288 7.24285 29.857 7.28168 29.7389 7.29607C29.6642 7.3047 29.5721 7.31332 29.4628 7.32195C29.3564 7.32771 29.2413 7.33346 29.1176 7.33922C28.9968 7.34497 28.876 7.34929 28.7551 7.35216C28.6372 7.35504 28.5293 7.35648 28.4315 7.35648ZM30.2266 5.25076C30.1949 5.26803 30.1619 5.27234 30.1273 5.26371C30.0956 5.25221 30.0684 5.22631 30.0453 5.18603C29.9878 5.08823 29.9173 4.99474 29.8339 4.90556C29.7533 4.81639 29.6642 4.74159 29.5664 4.68119C29.5607 4.6668 29.5607 4.65242 29.5664 4.63803C29.5721 4.62077 29.5836 4.61071 29.6008 4.60783C29.6843 4.61071 29.7721 4.62797 29.8641 4.65961C29.9562 4.69125 30.0396 4.73153 30.1144 4.78043C30.1891 4.82933 30.2424 4.88255 30.274 4.94008C30.3143 5.012 30.3272 5.07672 30.3129 5.13426C30.2984 5.18892 30.2697 5.22775 30.2266 5.25076ZM30.6019 4.73296C30.5761 4.75598 30.543 4.76748 30.5027 4.76748C30.4653 4.76748 30.4308 4.75166 30.3991 4.72002C30.3186 4.64235 30.2294 4.57331 30.1316 4.5129C30.0367 4.45249 29.9331 4.4079 29.821 4.37914C29.7979 4.34462 29.8022 4.31729 29.8339 4.29715C29.9087 4.28564 29.9921 4.28277 30.0842 4.28852C30.1762 4.2914 30.264 4.3029 30.3473 4.32304C30.4337 4.34318 30.5012 4.37482 30.5501 4.41797C30.6106 4.46687 30.6422 4.52441 30.6451 4.59057C30.6508 4.65386 30.6365 4.70132 30.6019 4.73296Z" fill="white"/>
<path d="M34.1159 7.01577C34.067 6.987 34.008 6.94529 33.9389 6.89064C33.8728 6.83598 33.8239 6.78996 33.7922 6.75255C33.7491 6.6979 33.7418 6.64612 33.7706 6.59722C33.7764 6.58283 33.7821 6.56413 33.7879 6.54112C33.7965 6.51811 33.8038 6.49365 33.8095 6.46776C33.8181 6.42749 33.8253 6.35989 33.831 6.26496C33.8396 6.17003 33.8454 6.05784 33.8484 5.92839C33.8541 5.79894 33.857 5.66662 33.857 5.53141C33.8598 5.39045 33.8598 5.2869 33.857 5.22073C33.8541 5.15457 33.8425 5.09848 33.8224 5.05245C33.8109 5.02944 33.7922 5.00642 33.7663 4.98341C33.7404 4.9604 33.7074 4.94745 33.6671 4.94458C33.6354 4.91293 33.6354 4.88417 33.6671 4.85828C33.7189 4.83526 33.7821 4.82232 33.857 4.81944C33.9346 4.81369 34.0152 4.82376 34.0986 4.84964C34.182 4.87266 34.2583 4.91581 34.3273 4.9791C34.3589 5.00786 34.3776 5.04094 34.3833 5.07834C34.392 5.11573 34.3848 5.15025 34.3618 5.18189C34.3187 5.24518 34.2884 5.33724 34.2712 5.45806C34.2597 5.53861 34.2525 5.65224 34.2497 5.79894C34.2468 5.94278 34.2452 6.1125 34.2452 6.30811C34.2452 6.35413 34.2568 6.38147 34.2798 6.39009C34.3057 6.39872 34.3416 6.39441 34.3877 6.37715C34.4912 6.33688 34.6049 6.27934 34.7286 6.20455C34.8523 6.12975 34.976 6.04346 35.0997 5.94565C35.2262 5.84497 35.3457 5.73853 35.4578 5.62635C35.57 5.51127 35.6664 5.39477 35.747 5.27683C35.7929 5.2682 35.8203 5.28546 35.8289 5.32861C35.7685 5.46669 35.6908 5.60765 35.5959 5.75148C35.501 5.89531 35.3946 6.03627 35.2766 6.17434C35.1615 6.31243 35.0378 6.439 34.9055 6.55406C34.776 6.66913 34.6466 6.7655 34.5171 6.84317C34.4251 6.89782 34.3575 6.94673 34.3143 6.98988C34.2855 7.02152 34.254 7.03878 34.2194 7.04166C34.1877 7.04454 34.1533 7.03591 34.1159 7.01577ZM32.0188 7.3437C31.9756 7.32933 31.9584 7.30199 31.967 7.26172C32.2058 7.08337 32.41 6.84173 32.5797 6.53681C32.7495 6.23188 32.8616 5.86942 32.9163 5.44943C32.9249 5.37176 32.9235 5.31566 32.912 5.28114C32.9005 5.24375 32.866 5.2193 32.8084 5.20779C32.7796 5.17327 32.7825 5.1445 32.817 5.12149C32.8918 5.0956 32.9867 5.09128 33.1019 5.10855C33.2169 5.1258 33.3291 5.18334 33.4384 5.28114C33.4643 5.30416 33.4787 5.33293 33.4815 5.36745C33.4873 5.39909 33.4772 5.43073 33.4514 5.46238C33.4254 5.49114 33.4039 5.5199 33.3866 5.54867C33.3722 5.57456 33.3579 5.61627 33.3434 5.67381C33.2715 5.96723 33.1723 6.21893 33.0457 6.42893C32.9192 6.63892 32.7696 6.81728 32.5969 6.96398C32.4244 7.1107 32.2316 7.23727 32.0188 7.3437Z" fill="white"/>
<path d="M39.0785 6.3469C38.9519 6.3469 38.844 6.30231 38.7549 6.21314C38.6657 6.12396 38.6211 6.01609 38.6211 5.88951C38.6211 5.76294 38.6657 5.65506 38.7549 5.56589C38.844 5.47672 38.9519 5.43213 39.0785 5.43213C39.2051 5.43213 39.3129 5.47672 39.4021 5.56589C39.4912 5.65506 39.5358 5.76294 39.5358 5.88951C39.5358 6.01609 39.4912 6.12396 39.4021 6.21314C39.3129 6.30231 39.2051 6.3469 39.0785 6.3469Z" fill="white"/>
<path d="M42.7669 7.64569C42.7266 7.62556 42.7165 7.59679 42.7366 7.5594C42.9351 7.46734 43.1423 7.34652 43.358 7.19693C43.5737 7.04448 43.7837 6.86899 43.988 6.67051C44.1923 6.46914 44.3763 6.25052 44.5404 6.01463C44.7072 5.77874 44.8395 5.53134 44.9373 5.27245C44.9718 5.18615 44.946 5.14444 44.8596 5.14732C44.8165 5.15019 44.7704 5.15451 44.7215 5.16026C44.6755 5.16601 44.6266 5.17321 44.5748 5.18183C44.5001 5.19046 44.4238 5.1991 44.3462 5.20773C44.2685 5.21635 44.1995 5.21923 44.1391 5.21635C44.0325 5.37457 43.9075 5.52991 43.7636 5.68238C43.6198 5.83483 43.4716 5.97435 43.3192 6.10093C43.1667 6.22462 43.0214 6.32675 42.8833 6.40729C42.8431 6.40154 42.8258 6.37852 42.8315 6.33825C42.9294 6.25771 43.03 6.15559 43.1336 6.03189C43.2371 5.90531 43.3364 5.76867 43.4313 5.62197C43.5263 5.47525 43.6097 5.32855 43.6816 5.18183C43.7564 5.03225 43.8111 4.89417 43.8456 4.7676C43.8772 4.66691 43.8902 4.58924 43.8844 4.53459C43.8815 4.47706 43.8471 4.43247 43.7808 4.40082C43.7722 4.38644 43.7708 4.37062 43.7765 4.35336C43.7823 4.3361 43.7924 4.32459 43.8068 4.31884C43.87 4.31596 43.9391 4.32603 44.0139 4.34904C44.0916 4.37206 44.1635 4.40514 44.2296 4.44829C44.2987 4.49144 44.3505 4.54178 44.3849 4.59931C44.4569 4.71726 44.4583 4.80499 44.3893 4.86253C44.3634 4.88554 44.3419 4.90568 44.3245 4.92294C44.3102 4.9402 44.2944 4.96321 44.2771 4.99198C44.3634 4.99198 44.4555 4.98622 44.5533 4.97472C44.654 4.96033 44.7389 4.94595 44.8079 4.93157C44.8596 4.91718 44.9085 4.89992 44.9546 4.87979C45.0006 4.85677 45.038 4.83088 45.0667 4.80212C45.1185 4.74458 45.1775 4.73595 45.2437 4.77623C45.2753 4.79349 45.317 4.82082 45.3688 4.85821C45.4206 4.89561 45.4723 4.93444 45.5241 4.97472C45.5788 5.01499 45.6205 5.04951 45.6493 5.07828C45.6953 5.11855 45.7111 5.16169 45.6968 5.20773C45.6823 5.25375 45.6507 5.28684 45.6018 5.30697C45.5155 5.34437 45.4479 5.41772 45.399 5.52704C45.2235 5.88374 44.9977 6.20161 44.7215 6.48065C44.4483 6.75968 44.1434 6.99701 43.8068 7.19262C43.4702 7.38536 43.1235 7.53638 42.7669 7.64569Z" fill="white"/>
<path d="M48.9609 7.72752C48.9148 7.71314 48.8991 7.68582 48.9134 7.64554C49.1062 7.51321 49.2658 7.35356 49.3924 7.16658C49.5189 6.9796 49.6139 6.75666 49.6772 6.49775C49.7405 6.23598 49.7721 5.92818 49.7721 5.57435C49.7232 5.57435 49.6728 5.57578 49.6211 5.57866C49.5721 5.57866 49.5232 5.5801 49.4743 5.58298C49.4025 5.58585 49.332 5.59017 49.2629 5.59592C49.1939 5.5988 49.1292 5.60312 49.0687 5.60887C49.0745 5.72393 49.0803 5.84332 49.0861 5.96701C49.0947 6.08783 49.1019 6.19715 49.1076 6.29495C49.1162 6.38988 49.122 6.45748 49.1248 6.49775C49.1278 6.54953 49.1076 6.597 49.0644 6.64015C49.0241 6.6833 48.9767 6.70631 48.922 6.70919C48.8645 6.70919 48.8113 6.68043 48.7624 6.62289C48.7164 6.56536 48.6905 6.49775 48.6848 6.42009C48.6819 6.35392 48.679 6.24892 48.6761 6.10509C48.6732 5.96126 48.6689 5.81023 48.6631 5.65202C48.5941 5.66352 48.5323 5.67503 48.4776 5.68654C48.4229 5.69805 48.3711 5.71099 48.3222 5.72537C48.2504 5.74551 48.1857 5.76709 48.1282 5.79009C48.0705 5.81311 48.0145 5.82461 47.9598 5.82461C47.9166 5.82461 47.8706 5.80736 47.8217 5.77284C47.7757 5.73832 47.7326 5.69516 47.6923 5.64339C47.652 5.59161 47.6203 5.53839 47.5974 5.48373C47.5772 5.4262 47.5729 5.37442 47.5845 5.3284C47.6074 5.29387 47.6348 5.28956 47.6664 5.31545C47.7009 5.36435 47.7613 5.39312 47.8476 5.40175C47.9368 5.41038 48.0533 5.41182 48.1972 5.40606C48.2432 5.40319 48.305 5.40031 48.3827 5.39744C48.4632 5.39169 48.5539 5.38592 48.6545 5.38017C48.6517 5.29387 48.6488 5.2162 48.6459 5.14717C48.643 5.07525 48.6402 5.01628 48.6373 4.97025C48.6344 4.90409 48.6272 4.85087 48.6157 4.8106C48.6071 4.77032 48.5884 4.73868 48.5596 4.71567C48.5481 4.70704 48.5309 4.69984 48.5078 4.69409C48.4877 4.68546 48.4632 4.67971 48.4345 4.67683C48.4028 4.64519 48.4028 4.61642 48.4345 4.59053C48.5093 4.55889 48.6028 4.54738 48.7149 4.55601C48.8272 4.56176 48.9451 4.60635 49.0687 4.68978C49.1119 4.71567 49.1364 4.75019 49.1421 4.79334C49.1508 4.83361 49.145 4.87101 49.1248 4.90553C49.1019 4.94292 49.0861 4.98895 49.0774 5.04361C49.0716 5.09538 49.0673 5.14717 49.0644 5.19894C49.0616 5.21908 49.0601 5.24353 49.0601 5.2723C49.0601 5.29819 49.0601 5.32696 49.0601 5.3586C49.1839 5.35285 49.3061 5.3471 49.427 5.34133C49.5506 5.33271 49.6657 5.32551 49.7721 5.31976V4.83649C49.7721 4.70128 49.7663 4.59772 49.7549 4.52581C49.7462 4.45389 49.7276 4.40355 49.6988 4.37478C49.6671 4.34602 49.6254 4.33019 49.5736 4.32732C49.5449 4.29567 49.5434 4.26691 49.5693 4.24102C49.6527 4.20074 49.7563 4.18924 49.88 4.2065C50.0066 4.22088 50.123 4.26978 50.2295 4.35321C50.264 4.38197 50.2856 4.41649 50.2942 4.45677C50.3057 4.49416 50.3014 4.53156 50.2813 4.56896C50.2382 4.64087 50.2165 4.76601 50.2165 4.94436V5.29387C50.2914 5.28524 50.3647 5.26942 50.4367 5.2464C50.5085 5.2234 50.5675 5.19319 50.6135 5.15579C50.6653 5.11552 50.7401 5.11265 50.8379 5.14717C50.8955 5.16731 50.9645 5.19751 51.045 5.23778C51.1285 5.27517 51.1932 5.31401 51.2392 5.35428C51.2824 5.3888 51.3039 5.42764 51.3039 5.47078C51.3068 5.51394 51.2939 5.54989 51.2651 5.57866C51.2392 5.60455 51.2032 5.61318 51.1572 5.60455C51.1112 5.59592 51.0364 5.58873 50.9329 5.58298C50.8293 5.57723 50.7185 5.57291 50.6006 5.57003C50.5402 5.56716 50.4769 5.56571 50.4107 5.56571C50.3475 5.56571 50.2828 5.56571 50.2165 5.56571V5.57435C50.2165 5.89941 50.1806 6.18133 50.1087 6.42009C50.0397 6.65597 49.9447 6.85734 49.8239 7.02418C49.7059 7.19103 49.5721 7.33055 49.4226 7.44273C49.273 7.55493 49.1191 7.64986 48.9609 7.72752Z" fill="white"/>
<path d="M53.8404 7.70647C53.8202 7.70072 53.8073 7.68921 53.8016 7.67195C53.7958 7.65469 53.7958 7.63743 53.8016 7.62017C53.9712 7.53387 54.1267 7.4375 54.2675 7.33107C54.4085 7.22175 54.5294 7.08512 54.6301 6.92115C54.7336 6.75717 54.8127 6.55293 54.8673 6.30841C54.9221 6.0639 54.9493 5.76329 54.9493 5.40658C54.9493 5.26275 54.9479 5.11748 54.945 4.97077C54.9422 4.82118 54.9364 4.7018 54.9278 4.61262C54.9162 4.52057 54.8976 4.45585 54.8717 4.41845C54.8458 4.37818 54.8012 4.3566 54.7379 4.35373C54.7091 4.32496 54.7077 4.29475 54.7336 4.26311C54.8257 4.22571 54.9364 4.21277 55.0658 4.22428C55.1982 4.23578 55.3219 4.28756 55.437 4.37962C55.4715 4.40551 55.493 4.43715 55.5017 4.47455C55.5103 4.51194 55.5031 4.5479 55.4801 4.58242C55.4513 4.62845 55.4327 4.68886 55.424 4.76365C55.4153 4.83557 55.411 4.94488 55.411 5.09158V5.50151C55.411 5.84959 55.3723 6.14732 55.2946 6.39471C55.2197 6.63923 55.1118 6.84491 54.971 7.01176C54.83 7.1786 54.6631 7.31668 54.4704 7.426C54.2806 7.53531 54.0705 7.6288 53.8404 7.70647ZM53.9785 6.40334C53.9267 6.40334 53.8793 6.38464 53.8361 6.34725C53.7929 6.30698 53.7598 6.25664 53.7369 6.19623C53.7138 6.13581 53.7066 6.07253 53.7152 6.00637C53.721 5.96034 53.7254 5.88554 53.7283 5.78199C53.7311 5.67555 53.7326 5.56048 53.7326 5.43678C53.7297 5.32748 53.7268 5.2196 53.7239 5.11317C53.721 5.00385 53.7167 4.92043 53.7109 4.86289C53.7052 4.77084 53.6908 4.70899 53.6678 4.67735C53.6448 4.64283 53.6117 4.62125 53.5685 4.61262C53.557 4.60399 53.547 4.59393 53.5384 4.58242C53.5298 4.57091 53.521 4.56084 53.5124 4.55221C53.5096 4.53783 53.5153 4.52345 53.5298 4.50907C53.6102 4.46879 53.7023 4.45297 53.8059 4.4616C53.9123 4.46735 54.0144 4.50331 54.1122 4.56948C54.1928 4.61838 54.2158 4.69461 54.1813 4.79817C54.1611 4.84995 54.1511 4.92762 54.1511 5.03118C54.1511 5.1031 54.1525 5.18651 54.1554 5.28144C54.1611 5.3735 54.1669 5.46843 54.1727 5.56623C54.1785 5.66404 54.1842 5.75466 54.1899 5.83808C54.1957 5.90424 54.2 5.96178 54.2029 6.01068C54.2057 6.05958 54.2072 6.0941 54.2072 6.11424C54.2072 6.17753 54.1828 6.24225 54.1338 6.30841C54.0878 6.3717 54.036 6.40334 53.9785 6.40334Z" fill="white"/>
<path d="M8.08783 4.00439L-0.0117188 9.66111L15.6377 20.956V9.27805L8.08783 4.00439ZM14.1554 18.0036L2.62428 9.68178L8.11504 5.8468L14.1554 10.0648V18.0036Z" fill="white"/>
<path d="M-0.0664062 11.0435V22.728L7.67835 27.9951L15.5701 22.3296L-0.0664062 11.0435ZM1.47144 21.9282V13.9959L13.0102 22.3286L7.68269 26.1527L1.47144 21.9282Z" fill="white"/>
<path d="M43.8164 9.46777H53.419C55.0929 9.46777 56.2585 9.72242 56.9072 10.2393C57.5558 10.7563 57.8921 11.5441 57.9172 12.5943V12.6759C57.9172 13.6771 57.6298 14.416 57.0476 14.8992C56.6123 15.2605 55.981 15.4575 55.168 15.5804V15.8351C55.882 15.8601 56.596 16.0898 57.3186 16.5414C58.0413 16.993 58.4015 17.7885 58.4015 18.9289C58.4015 20.0695 58.0729 20.9967 57.4166 21.6039C56.7516 22.2111 55.6273 22.5147 54.0274 22.5147H43.8175V9.46777H43.8164ZM52.9999 14.6794C54.5509 14.6794 55.1582 14.0972 55.1582 13.1036C55.1582 12.11 54.6663 11.7172 53.2546 11.7172H46.755V14.6794H52.9999ZM53.468 20.2425C54.8796 20.2425 55.4292 19.7006 55.4292 18.4534C55.4292 17.8374 55.2486 17.4032 54.8959 17.1487C54.5433 16.894 53.9196 16.7634 53.0414 16.7634H46.755V20.2425H53.468Z" fill="white"/>
<path d="M36.7821 9.45312H33.793V14.8261H36.7821V9.45312Z" fill="white"/>
<path d="M33.8122 18.0759C33.8122 18.3708 33.8449 18.7408 33.8863 19.0194L34.3619 20.2089H34.2225L26.492 9.4668H21.3789V14.8156H24.3501V13.3975C24.3501 13.1592 24.325 12.848 24.2848 12.626L23.8658 11.2472H23.9974L31.999 22.5138H36.7835V15.7928H33.8122V18.0759Z" fill="white"/>
<path d="M24.3462 15.7949H21.375V22.516H24.3462V15.7949Z" fill="white"/>
<path d="M75.3516 18.1869L75.1579 17.9039C76.3812 17.8136 77.3575 17.4447 78.0878 16.796C78.9247 16.0408 79.3437 15.0157 79.3437 13.7185C79.3437 12.4213 78.9421 11.3711 78.1378 10.6083C77.3335 9.8454 76.2093 9.46777 74.7563 9.46777H65.3594V14.8165H68.3306V11.7248H73.7637C75.4953 11.7248 76.3649 12.3973 76.3649 13.7685C76.3649 15.1398 75.4953 15.7959 73.7637 15.7959H65.3594V22.517H68.3306V17.93H73.2216L75.8729 22.517H79.2381L76.4355 18.0322L75.3527 18.1879L75.3516 18.1869Z" fill="white"/>
<path d="M63.3252 9.4668H60.3867V14.8156H63.3252V9.4668Z" fill="white"/>
<path d="M63.3252 15.7935H60.3867V22.5145H63.3252V15.7935Z" fill="white"/>
<path d="M82.9509 21.0384C81.6688 20.0503 81.0234 18.4168 81.0234 16.1315V9.46924H83.9794V15.5928C83.9794 17.1523 84.3473 18.2785 85.0895 18.9729C85.8242 19.6749 86.968 20.0263 88.5113 20.0263C90.0546 20.0263 91.1985 19.6749 91.9407 18.9816C92.6754 18.2873 93.0433 17.1523 93.0433 15.5928V9.46924H95.9992V16.1315C95.9992 18.4179 95.3625 20.0513 94.0804 21.0384C92.7983 22.0265 90.9361 22.5162 88.5113 22.5162C86.0865 22.5162 84.2319 22.0265 82.9498 21.0384H82.9509Z" fill="white"/>
<path d="M41.7823 9.4668H38.8438V14.8156H41.7823V9.4668Z" fill="white"/>
<path d="M41.7823 15.7832H38.8438V22.5151H41.7823V15.7832Z" fill="white"/>
</g>
<defs>
<clipPath id="clip0_756_1664">
<rect width="96" height="32" fill="white"/>
</clipPath>
</defs>
</svg>
