<svg width="134" height="32" viewBox="0 0 134 32" fill="none" xmlns="http://www.w3.org/2000/svg">
<path d="M28.6108 4.30372C28.6108 9.19846 28.6108 18.9879 28.6108 18.9879C28.6108 18.9879 28.5766 23.8827 28.3712 24.6015C28.2001 25.2861 27.8236 25.6968 27.4813 26.0049C26.9336 26.4498 26.1805 26.621 25.4959 26.5183C24.0583 26.3129 23.0314 24.8411 22.1757 23.7458C20.4642 21.5209 18.3077 17.3449 18.3077 17.3449C18.3077 17.3449 17.2808 14.8462 15.3982 15.8731C13.8579 16.6946 14.7136 18.5087 14.7136 18.5087C14.7136 18.5087 17.1097 23.4035 18.7527 25.5941C21.2172 28.9143 24.8113 31.4815 28.7135 29.8385C30.9384 28.9143 32.4103 26.7579 32.4103 23.8484C32.4103 21.9659 32.4788 15.1201 32.4788 11.9025C32.4788 9.3696 32.4788 6.83666 32.4788 4.30372C32.513 1.80501 28.6108 1.80501 28.6108 4.30372Z" fill="white"/>
<path d="M10.8133 28.4698C10.8133 23.5751 10.8133 13.7856 10.8133 13.7856C10.8133 13.7856 10.8475 8.89089 11.0529 8.17209C11.224 7.48751 11.6005 7.07676 11.9428 6.7687C12.4905 6.32372 13.2436 6.15258 13.9282 6.25527C15.3658 6.46064 16.3927 7.93248 17.2484 9.02781C18.9599 11.2527 21.1164 15.4286 21.1164 15.4286C21.1164 15.4286 22.1433 17.9273 24.0259 16.9005C25.5662 16.079 24.7105 14.2648 24.7105 14.2648C24.7105 14.2648 22.3144 9.3701 20.6714 7.17945C18.2069 3.85924 14.6127 1.29207 10.7106 2.93506C8.48565 3.85924 7.01377 6.01566 7.01377 8.92512C7.01377 10.8419 6.94531 17.6535 6.94531 20.871C6.94531 23.404 6.94531 25.9369 6.94531 28.4698C6.94531 30.9686 10.8133 30.9686 10.8133 28.4698Z" fill="white"/>
<path d="M49.1119 2.625H51.5764V15.8031H50.0703V15.8374L43.1559 6.93785V15.8031H40.6914V2.65923H42.711L49.1461 10.8057V2.625H49.1119Z" fill="white"/>
<path d="M67.9387 9.29999C67.9044 12.6887 65.8164 16.1115 61.1954 16.1115C56.5744 16.1115 54.418 12.7913 54.418 9.33422C54.418 5.87709 56.6429 2.38574 61.1954 2.38574C65.748 2.38574 67.9729 5.84287 67.9387 9.29999ZM56.8483 9.36845C56.9167 11.5249 58.0805 13.8524 61.1612 13.8524C64.2419 13.8524 65.4399 11.5249 65.4741 9.36845C65.5084 7.14356 64.2761 4.67908 61.1612 4.67908C58.0463 4.67908 56.814 7.14356 56.8483 9.36845Z" fill="white"/>
<path d="M77.8972 2.65918V13.5098H84.6404V15.8031H75.3984V2.65918H77.8972Z" fill="white"/>
<path d="M87.3438 15.8031V2.65918H89.8083V15.8031H87.3438Z" fill="white"/>
<path d="M104.527 6.28745L100.249 11.9695H99.7695L95.5934 6.25322V15.8031H93.1289V2.65918H95.97L100.078 8.30695L104.185 2.65918H107.026V15.8031H104.562L104.527 6.28745Z" fill="white"/>
<path d="M110.312 15.8031V2.65918H112.777V15.8031H110.312Z" fill="white"/>
<path d="M120.035 4.91829H115.859V2.65918H126.676V4.91829H122.5V15.8031H120.035V4.91829Z" fill="white"/>
<path d="M49.1149 30.2143V24.8404H41.5844V30.2143H40.6602V18.3711H41.5844V23.9846H49.1149V18.3711H50.0391V30.2143H49.1149Z" fill="white"/>
<path d="M64.3807 24.293C64.3807 27.4078 62.3953 30.3857 58.4247 30.3857C54.4541 30.3857 52.4688 27.4078 52.4688 24.2588C52.4688 21.1097 54.4541 18.166 58.4247 18.166C62.3953 18.166 64.4149 21.1097 64.3807 24.293ZM53.3587 24.293C53.3587 26.9629 55.0702 29.5643 58.4247 29.5643C61.7792 29.5643 63.5249 26.9629 63.5249 24.293C63.5249 21.6231 61.8477 19.0217 58.4247 19.0217C55.0017 19.0217 53.3245 21.4862 53.3587 24.293Z" fill="white"/>
<path d="M67.804 18.3711V29.3244H74.4788V30.1801H66.9141V18.3711H67.804Z" fill="white"/>
<path d="M86.459 24.1558C86.5274 27.1679 84.6106 30.2143 80.4688 30.2143H76.4297V18.3711H80.4346C84.4394 18.3711 86.3905 21.2463 86.459 24.1558ZM77.3539 19.2268V29.3244H80.4346C83.9602 29.3244 85.569 26.6887 85.5348 24.1558C85.5005 21.6913 83.8575 19.2268 80.4346 19.2268H77.3539Z" fill="white"/>
<path d="M89.0586 30.2143V18.3711H89.9486V30.2143H89.0586Z" fill="white"/>
<path d="M93.2701 18.3711L101.211 28.1606V18.3711H102.101V30.2143H101.759L93.7836 20.4591V30.2143H92.8594V18.3711H93.2701Z" fill="white"/>
<path d="M114.425 20.5619C113.398 19.5351 111.96 19.0559 110.625 19.0559C107.168 19.0559 105.388 21.5888 105.422 24.3271C105.422 27.0997 107.202 29.5299 110.625 29.5299C111.892 29.5299 113.192 29.0849 114.219 28.1608V24.8406H110.112V24.0533H115.109V28.4688C113.877 29.7011 112.405 30.3856 110.659 30.3856C106.62 30.3856 104.566 27.5789 104.566 24.3614C104.566 20.6646 107.065 18.2344 110.659 18.2344C112.2 18.2344 113.774 18.8163 114.972 20.0143L114.425 20.5619Z" fill="white"/>
<path d="M125.548 20.6647C124.693 19.2955 123.289 19.0901 121.954 19.0559C120.585 19.0559 118.36 19.5694 118.36 21.4519C118.36 22.958 119.969 23.3003 121.989 23.6768C124.282 24.1218 126.644 24.5325 126.644 27.0655C126.644 29.7353 123.94 30.3857 121.954 30.3857C120.106 30.3857 118.018 29.6327 117.094 27.8185L117.915 27.4078C118.634 28.8454 120.482 29.5642 121.954 29.5642C123.426 29.5642 125.72 29.1535 125.72 27.0655C125.72 25.2856 123.769 24.9091 121.852 24.5325C119.695 24.1218 117.47 23.6768 117.47 21.4862C117.402 18.9875 120.038 18.2002 121.954 18.2002C123.632 18.2002 125.103 18.474 126.267 20.2197L125.548 20.6647Z" fill="white"/>
</svg>
