<svg width="131" height="33" viewBox="0 0 131 33" fill="none" xmlns="http://www.w3.org/2000/svg">
<path d="M16.1875 0.77002L16.1279 0.829641L27.2691 19.2688L11.7678 5.18971L0.1875 16.7704L5.34041 21.9233L11.9879 8.08772L9.88236 26.4645L16.1875 32.77L23.456 25.5016L12.0093 25.7826L28.4421 20.5161L32.1878 16.7704L16.1875 0.77002Z" fill="white"/>
<path d="M41.1683 20.2107H39.0246L35.855 14.6444V20.2107H33.6992V11.2674H35.855L39.0183 16.833V11.2671H41.1683V20.2107Z" fill="white"/>
<path d="M42.1335 16.9794C42.1224 16.3944 42.2486 15.8149 42.5019 15.2875C42.733 14.8093 43.103 14.4118 43.5634 14.147C44.0598 13.872 44.6206 13.7343 45.1879 13.7481C45.6037 13.7264 46.0192 13.794 46.4067 13.9462C46.7942 14.0984 47.1446 14.3318 47.4344 14.6307C48.0092 15.2945 48.3035 16.1556 48.2554 17.0323V17.1023C48.301 17.965 48.005 18.811 47.4314 19.457C47.1421 19.7515 46.7937 19.9814 46.4092 20.1315C46.0246 20.2816 45.6126 20.3485 45.2003 20.3279C44.8013 20.3464 44.4028 20.284 44.0286 20.1443C43.6544 20.0047 43.3124 19.7907 43.0231 19.5153C42.4544 18.9234 42.1368 18.1342 42.1372 17.3133L42.1335 16.9794ZM44.1097 17.1023C44.0773 17.5499 44.1727 17.9975 44.385 18.3929C44.4735 18.5264 44.5953 18.6345 44.7383 18.7064C44.8814 18.7784 45.0407 18.8118 45.2006 18.8032C45.9045 18.8032 46.2641 18.2617 46.2795 17.1787V16.9777C46.2795 15.8389 45.9159 15.2694 45.1886 15.2694C44.5278 15.2694 44.1706 15.76 44.1167 16.7412L44.1097 17.1023Z" fill="white"/>
<path d="M52.9605 15.6534L52.3094 15.6065C51.6879 15.6065 51.2891 15.8021 51.1129 16.1934V20.2101H49.1367V13.8648H50.99L51.0543 14.6797C51.1704 14.406 51.3638 14.172 51.6107 14.0063C51.8576 13.8407 52.1474 13.7505 52.4447 13.7469C52.6309 13.7436 52.8166 13.7674 52.996 13.8175L52.9605 15.6534Z" fill="white"/>
<path d="M56.2698 11.2573V13.8643H57.3139V15.2376H56.2698V18.1403C56.2518 18.3166 56.2977 18.4936 56.3991 18.639C56.4707 18.6949 56.5526 18.7362 56.6401 18.7604C56.7277 18.7846 56.8191 18.7913 56.9093 18.78C57.074 18.7824 57.2386 18.7705 57.4013 18.7445V20.158C57.0409 20.2722 56.665 20.3298 56.2869 20.3285C55.7406 20.374 55.1985 20.2009 54.7796 19.8472C54.6046 19.6489 54.4712 19.4174 54.3875 19.1665C54.3039 18.9156 54.2716 18.6504 54.2926 18.3868V15.2382H53.4844V13.8649H54.2936V11.2573H56.2698Z" fill="white"/>
<path d="M60.0234 14.5463C60.2141 14.3123 60.4515 14.1207 60.7205 13.9838C60.9895 13.8468 61.2842 13.7675 61.5855 13.751C61.8869 13.7345 62.1885 13.7811 62.4708 13.8878C62.7532 13.9945 63.0101 14.159 63.2252 14.3708C63.6178 14.8992 63.811 15.5493 63.7709 16.2063V20.21H61.7886V16.2516C61.8104 15.9877 61.7376 15.7247 61.5833 15.5096C61.4911 15.4218 61.3809 15.355 61.2604 15.3139C61.1399 15.2728 61.0119 15.2583 60.8853 15.2715C60.7203 15.2552 60.5539 15.2823 60.4026 15.3503C60.2513 15.4182 60.1205 15.5245 60.0231 15.6587V20.21H58.0469V11.2021H60.0231L60.0234 14.5463Z" fill="white"/>
<path d="M71.8138 16.864L72.8431 11.2368H74.9868L73.0826 20.2105H70.8384L69.6366 15.0948L68.4592 20.2105H66.2217L64.3125 11.2368H66.4629L67.4922 16.864L68.7248 11.2368H70.5617L71.8138 16.864Z" fill="white"/>
<path d="M78.59 20.3278C78.158 20.3467 77.7266 20.2794 77.3209 20.1299C76.9152 19.9804 76.5433 19.7516 76.2269 19.4569C75.9261 19.1633 75.6902 18.8099 75.5344 18.4195C75.3786 18.0291 75.3064 17.6104 75.3225 17.1903V17.0262C75.3105 16.4335 75.4338 15.8458 75.6829 15.3079C75.9099 14.8263 76.2769 14.4245 76.736 14.155C77.2363 13.8736 77.8034 13.7328 78.3773 13.7477C78.7678 13.7278 79.1581 13.7916 79.522 13.9348C79.8859 14.0779 80.2151 14.2971 80.4875 14.5777C81.035 15.2197 81.3125 16.0489 81.2615 16.8912V17.6593H77.3359C77.389 17.9835 77.5527 18.2794 77.7991 18.4966C78.0605 18.7078 78.39 18.8162 78.7256 18.8014C79.0044 18.8147 79.2824 18.7622 79.5371 18.6481C79.7918 18.5339 80.016 18.3615 80.1917 18.1446L81.0961 19.2118C80.8256 19.5708 80.4643 19.8513 80.0494 20.0244C79.5902 20.2268 79.0934 20.3295 78.5916 20.3258M78.3689 15.2704C77.7905 15.2704 77.4466 15.6536 77.3369 16.4199H79.3305V16.2689C79.3427 16.1361 79.3277 16.0023 79.2863 15.8756C79.245 15.7489 79.1782 15.632 79.0901 15.532C78.9944 15.4409 78.881 15.3707 78.7569 15.3258C78.6327 15.2808 78.5006 15.2617 78.3689 15.2704Z" fill="white"/>
<path d="M85.3791 18.4277C85.3773 18.3424 85.3517 18.2593 85.3051 18.1878C85.2585 18.1163 85.1928 18.0592 85.1155 18.0231C84.7965 17.8741 84.4594 17.7677 84.1127 17.7066C83.6877 17.6214 83.2769 17.4763 82.8928 17.2755C82.5993 17.122 82.3476 16.8995 82.1592 16.627C81.9896 16.3677 81.9017 16.0634 81.907 15.7535C81.9034 15.4732 81.9671 15.1961 82.0927 14.9455C82.2183 14.6949 82.4021 14.4781 82.6288 14.3132C83.1754 13.915 83.8415 13.7153 84.5169 13.7471C85.2335 13.712 85.9419 13.9119 86.5344 14.3165C86.7747 14.4837 86.9701 14.7077 87.1031 14.9685C87.2361 15.2294 87.3026 15.519 87.2967 15.8118H85.3145C85.3145 15.3035 85.0465 15.0494 84.5106 15.0494C84.3214 15.0434 84.1362 15.1048 83.9881 15.2226C83.9218 15.2731 83.8682 15.3384 83.8316 15.4132C83.795 15.488 83.7763 15.5704 83.777 15.6537C83.7778 15.7416 83.8022 15.8277 83.8475 15.9031C83.8929 15.9784 83.9576 16.0402 84.0349 16.0821C84.2914 16.2198 84.5705 16.3106 84.8589 16.35C85.1959 16.4099 85.528 16.4942 85.8527 16.6023C86.8069 16.9303 87.284 17.5187 87.284 18.3675C87.2858 18.649 87.2161 18.9264 87.0813 19.1737C86.9466 19.4209 86.7512 19.6299 86.5136 19.781C85.9213 20.167 85.2229 20.3579 84.5166 20.3266C84.0162 20.3352 83.5199 20.2351 83.0619 20.0332C82.6645 19.8607 82.3202 19.5853 82.0648 19.2353C81.8362 18.9283 81.711 18.5566 81.707 18.1739H83.5546C83.5481 18.2966 83.5714 18.4191 83.6225 18.5309C83.6736 18.6427 83.751 18.7405 83.848 18.816C84.0607 18.9585 84.3134 19.0295 84.5692 19.0186C84.7843 19.0343 84.9982 18.9761 85.1758 18.8538C85.2407 18.8034 85.2929 18.7384 85.3281 18.6641C85.3633 18.5898 85.3805 18.5083 85.3784 18.4261" fill="white"/>
<path d="M90.5091 11.2026V13.8648H91.5532V15.2381H90.5091V18.1408C90.4911 18.3172 90.537 18.4942 90.6384 18.6396C90.71 18.6955 90.7919 18.7368 90.8794 18.761C90.967 18.7852 91.0584 18.7918 91.1485 18.7806C91.3133 18.7827 91.4779 18.7708 91.6406 18.7451V20.1586C91.2802 20.2726 90.9042 20.3299 90.5262 20.3284C89.98 20.3741 89.4379 20.2012 89.0189 19.8478C88.8438 19.6495 88.7105 19.418 88.6268 19.1671C88.5431 18.9162 88.5108 18.651 88.5319 18.3874V15.2388H87.7227V13.8655H88.5319V11.2026H90.5091Z" fill="white"/>
<path d="M103.609 20.2105H101.45L98.2571 14.6051V20.2105H96.0859V11.2026H98.2571L101.444 16.8081V11.2026H103.609V20.2105Z" fill="white"/>
<path d="M104.567 16.9794C104.556 16.3944 104.682 15.8149 104.936 15.2875C105.167 14.8093 105.537 14.4118 105.997 14.147C106.493 13.872 107.054 13.7343 107.622 13.7481C108.037 13.7264 108.453 13.794 108.84 13.9462C109.228 14.0984 109.578 14.3318 109.868 14.6307C110.443 15.2945 110.737 16.1556 110.689 17.0323V17.1023C110.735 17.965 110.439 18.811 109.865 19.457C109.576 19.7515 109.227 19.9814 108.843 20.1315C108.458 20.2816 108.046 20.3485 107.634 20.3279C107.235 20.3464 106.836 20.284 106.462 20.1443C106.088 20.0047 105.746 19.7907 105.457 19.5153C104.888 18.9234 104.57 18.1342 104.571 17.3133L104.567 16.9794ZM106.543 17.1023C106.511 17.5499 106.606 17.9975 106.819 18.3929C106.907 18.5264 107.029 18.6345 107.172 18.7064C107.315 18.7784 107.474 18.8118 107.634 18.8032C108.338 18.8032 108.698 18.2617 108.713 17.1787V16.9777C108.713 15.8389 108.349 15.2694 107.622 15.2694C106.961 15.2694 106.604 15.76 106.55 16.7412L106.543 17.1023Z" fill="white"/>
<path d="M111.315 16.9915C111.268 16.15 111.496 15.3163 111.966 14.6163C112.174 14.3336 112.449 14.1066 112.766 13.9551C113.083 13.8037 113.433 13.7325 113.784 13.7478C114.057 13.7449 114.328 13.8036 114.576 13.9196C114.823 14.0356 115.042 14.2058 115.215 14.4177V11.2021H117.197V20.21H115.419L115.319 19.5301C115.145 19.7785 114.913 19.9809 114.643 20.1199C114.374 20.2589 114.074 20.3303 113.771 20.3279C113.424 20.3398 113.079 20.267 112.766 20.1156C112.453 19.9643 112.182 19.7391 111.976 19.4594C111.534 18.881 111.313 18.0582 111.314 16.9908M113.29 17.1137C113.29 18.2396 113.618 18.8026 114.274 18.8026C114.468 18.8148 114.66 18.7689 114.827 18.6708C114.995 18.5727 115.129 18.4268 115.212 18.2519V15.8355C115.134 15.658 115.003 15.5088 114.838 15.4081C114.672 15.3074 114.479 15.2601 114.286 15.2725C113.676 15.2725 113.345 15.7651 113.294 16.7503L113.29 17.1137Z" fill="white"/>
<path d="M121.391 20.3278C120.959 20.3467 120.527 20.2794 120.122 20.1299C119.716 19.9804 119.344 19.7516 119.028 19.4569C118.727 19.1633 118.491 18.8099 118.335 18.4195C118.179 18.0291 118.107 17.6104 118.123 17.1903V17.0262C118.111 16.4335 118.235 15.8458 118.484 15.3079C118.711 14.8263 119.078 14.4245 119.537 14.155C120.037 13.8736 120.604 13.7328 121.178 13.7477C121.569 13.7278 121.959 13.7916 122.323 13.9348C122.687 14.0779 123.016 14.2971 123.288 14.5777C123.836 15.2197 124.113 16.0489 124.062 16.8912V17.6593H120.136C120.189 17.9835 120.353 18.2794 120.6 18.4966C120.861 18.7078 121.19 18.8162 121.526 18.8014C121.805 18.8147 122.083 18.7622 122.338 18.6481C122.592 18.5339 122.816 18.3615 122.992 18.1446L123.897 19.2118C123.626 19.5708 123.265 19.8513 122.85 20.0244C122.391 20.2268 121.894 20.3295 121.392 20.3258M121.169 15.2704C120.591 15.2704 120.247 15.6536 120.137 16.4199H122.131V16.2689C122.143 16.1361 122.128 16.0023 122.087 15.8756C122.045 15.7489 121.979 15.632 121.891 15.532C121.795 15.4409 121.681 15.3707 121.557 15.3258C121.433 15.2808 121.301 15.2617 121.169 15.2704Z" fill="white"/>
<path d="M128.183 18.4277C128.182 18.3424 128.156 18.2593 128.109 18.1878C128.063 18.1163 127.997 18.0592 127.92 18.0231C127.601 17.8741 127.264 17.7677 126.917 17.7066C126.492 17.6214 126.081 17.4763 125.697 17.2755C125.404 17.122 125.152 16.8995 124.964 16.627C124.794 16.3677 124.706 16.0634 124.711 15.7535C124.708 15.4732 124.771 15.1961 124.897 14.9455C125.023 14.6949 125.206 14.4781 125.433 14.3132C125.98 13.915 126.646 13.7153 127.321 13.7471C128.038 13.712 128.746 13.9119 129.339 14.3165C129.579 14.4837 129.774 14.7077 129.907 14.9685C130.04 15.2294 130.107 15.519 130.101 15.8118H128.119C128.119 15.3035 127.851 15.0494 127.315 15.0494C127.126 15.0433 126.941 15.1047 126.793 15.2226C126.727 15.273 126.673 15.3383 126.636 15.4131C126.599 15.4879 126.581 15.5703 126.581 15.6537C126.582 15.7416 126.607 15.8277 126.652 15.9031C126.697 15.9784 126.762 16.0402 126.839 16.0821C127.096 16.2198 127.375 16.3105 127.663 16.35C128 16.4099 128.332 16.4942 128.657 16.6023C129.611 16.9303 130.088 17.5187 130.089 18.3675C130.09 18.649 130.021 18.9264 129.886 19.1737C129.751 19.4209 129.556 19.6299 129.318 19.781C128.726 20.167 128.028 20.3579 127.321 20.3266C126.821 20.3352 126.325 20.2351 125.867 20.0332C125.469 19.8607 125.125 19.5853 124.869 19.2353C124.641 18.9283 124.516 18.5566 124.512 18.1739H126.359C126.353 18.2966 126.376 18.4191 126.427 18.5309C126.478 18.6427 126.556 18.7405 126.653 18.816C126.865 18.9585 127.118 19.0295 127.374 19.0186C127.589 19.0341 127.803 18.976 127.981 18.8538C128.046 18.8031 128.097 18.7381 128.132 18.6638C128.167 18.5895 128.184 18.5081 128.182 18.4261" fill="white"/>
</svg>
