<svg width="109" height="32" viewBox="0 0 109 32" fill="none" xmlns="http://www.w3.org/2000/svg">
<path d="M18.8297 7.24607C16.6898 6.61606 14.8079 5.3155 13.4604 3.53534C13.1402 3.11969 12.854 2.67887 12.6045 2.21716C12.5691 2.15192 12.517 2.09736 12.4534 2.05917C12.3899 2.02098 12.3172 2.00054 12.2431 2H7.92181C7.81285 2 7.70836 2.04335 7.63131 2.12051C7.55427 2.19768 7.51098 2.30233 7.51098 2.41146V6.57174C7.51098 6.68053 7.46796 6.7849 7.39133 6.86201C7.31469 6.93912 7.21068 6.98269 7.10206 6.98319H0.410869C0.356434 6.98319 0.302542 6.99402 0.252322 7.01505C0.202102 7.03609 0.156557 7.06691 0.118333 7.10572C0.080108 7.14454 0.0499664 7.19057 0.0296591 7.24115C0.00935175 7.29173 -0.000716403 7.34585 3.96297e-05 7.40037V14.1284C3.96297e-05 14.2376 0.0433233 14.3422 0.120369 14.4194C0.197414 14.4965 0.30191 14.5399 0.410869 14.5399H7.12868C7.23764 14.5399 7.34214 14.4965 7.41918 14.4194C7.49623 14.3422 7.53951 14.2376 7.53951 14.1284V8.28614C7.53928 8.20141 7.56529 8.11869 7.61397 8.04939C7.66264 7.98008 7.73158 7.92761 7.81128 7.89919C7.89099 7.87077 7.97753 7.86781 8.05898 7.89071C8.14043 7.91362 8.21279 7.96126 8.26607 8.02707C9.6923 9.81606 11.4576 11.305 13.4604 12.4083C15.5395 13.5587 17.8352 14.2626 20.201 14.4751C20.5814 14.5094 20.9682 14.5316 21.3612 14.5418C21.4157 14.5426 21.4697 14.5325 21.5202 14.5121C21.5707 14.4918 21.6167 14.4616 21.6554 14.4233C21.6942 14.385 21.725 14.3394 21.746 14.2891C21.767 14.2388 21.7778 14.1849 21.7778 14.1303V8.0747C21.7773 7.96753 21.7351 7.86478 21.6602 7.78829C21.5852 7.71181 21.4834 7.66762 21.3765 7.66515C20.5134 7.63226 19.6579 7.49147 18.8297 7.24607Z" fill="white"/>
<path d="M14.2383 23.7158C14.2419 23.8029 14.2177 23.8889 14.1691 23.9612C14.1206 24.0336 14.0502 24.0885 13.9683 24.1181C13.8864 24.1476 13.7972 24.1502 13.7137 24.1255C13.6302 24.1007 13.5568 24.05 13.5042 23.9805C12.0774 22.1921 10.3122 20.7032 8.30983 19.5993C6.23249 18.4514 3.93971 17.7483 1.5768 17.5344C1.1964 17.4988 0.809663 17.476 0.416586 17.4658C0.361996 17.4651 0.307803 17.4752 0.257173 17.4957C0.206543 17.5161 0.160492 17.5465 0.121711 17.585C0.08293 17.6234 0.052197 17.6693 0.031308 17.7198C0.010419 17.7703 -0.000207004 17.8245 5.10241e-05 17.8792V23.9253C0.000517757 24.0325 0.0427131 24.1352 0.117661 24.2117C0.19261 24.2882 0.294396 24.3324 0.40137 24.3349C1.26623 24.3683 2.1236 24.509 2.95384 24.7539C5.09134 25.3858 6.97086 26.6861 8.31744 28.4647C8.63828 28.8798 8.92454 29.3207 9.17333 29.7828C9.20837 29.8484 9.26047 29.9031 9.3241 29.9414C9.38772 29.9796 9.4605 29.9999 9.53471 30H13.856C13.9643 29.9995 14.068 29.9562 14.1446 29.8795C14.2212 29.8028 14.2644 29.6989 14.2649 29.5904V25.4302C14.2649 25.321 14.3082 25.2164 14.3853 25.1392C14.4623 25.0621 14.5668 25.0187 14.6758 25.0187H21.3651C21.474 25.0187 21.5785 24.9754 21.6556 24.8982C21.7326 24.821 21.7759 24.7164 21.7759 24.6073V17.8716C21.7754 17.7628 21.7319 17.6586 21.6549 17.5818C21.5779 17.5051 21.4737 17.462 21.3651 17.462H14.6453C14.5367 17.462 14.4325 17.5051 14.3555 17.5818C14.2785 17.6586 14.235 17.7628 14.2345 17.8716L14.2383 23.7158Z" fill="white"/>
<path fill-rule="evenodd" clip-rule="evenodd" d="M37.533 9.65232C37.0646 9.80826 34.6543 12.0178 34.401 12.5234C34.2374 12.8501 34.2267 13.1645 34.2247 17.6764L34.2227 22.4815H35.5722H36.9217V17.3937C36.9217 12.4219 36.926 12.302 37.1078 12.132C37.2892 11.9625 37.418 11.9581 42.1863 11.9581C45.3807 11.9581 47.1411 11.9893 47.2586 12.0481C47.4335 12.1356 47.4386 12.2858 47.4386 17.3098V22.4815H48.7881H50.1377L50.1356 17.6764C50.1337 13.1764 50.1226 12.8492 49.9605 12.5234C49.857 12.3155 49.2492 11.6804 48.4501 10.9451C47.4009 9.97968 47.0327 9.69407 46.7406 9.61927C46.1439 9.46638 38.0037 9.49569 37.533 9.65232ZM53.6743 14.4219V19.3207L53.9477 19.7053C54.3542 20.2773 56.47 22.1945 56.8647 22.3486C57.1539 22.4616 57.8654 22.4813 61.6056 22.4796C65.6881 22.4779 66.033 22.466 66.3784 22.3168C66.6042 22.2193 67.2665 21.6639 68.0613 20.9054C69.1325 19.8834 69.3875 19.5914 69.4574 19.3071C69.5053 19.1117 69.5319 16.8912 69.518 14.2411L69.4931 9.52291H68.1917H66.8903V14.5555C66.8903 19.5151 66.8875 19.5913 66.6974 19.8172L66.5045 20.0463H61.5373H56.57L56.4252 19.853C56.2981 19.6835 56.2803 19.0379 56.2803 14.5913V9.52291H54.9773H53.6743V14.4219ZM76.4822 9.62449C76.064 9.73668 73.5786 12.0091 73.3127 12.5223C73.1365 12.8625 73.126 13.0572 73.126 15.989C73.126 18.5844 73.1495 19.1478 73.2689 19.4147C73.4608 19.8441 75.852 22.1053 76.3369 22.3159C76.6825 22.4661 77.013 22.4778 80.9439 22.4791C83.7437 22.48 85.3036 22.4481 85.5475 22.3848C86.049 22.2548 88.3742 20.1316 88.7149 19.4926L88.9479 19.0555L88.9474 16.0939C88.9471 14.2207 88.9095 13.0043 88.8451 12.7843C88.7053 12.307 86.0048 9.73834 85.5068 9.6091C85.0711 9.49595 76.9092 9.50987 76.4822 9.62449ZM95.7949 9.65232C95.3266 9.80826 92.9163 12.0178 92.6629 12.5234C92.4993 12.8501 92.4886 13.1645 92.4867 17.6764L92.4846 22.4815H93.8341H95.1836V17.3937C95.1836 12.4219 95.1879 12.302 95.3698 12.132C95.5512 11.9625 95.68 11.9581 100.448 11.9581C103.643 11.9581 105.403 11.9893 105.521 12.0481C105.695 12.1356 105.701 12.2858 105.701 17.3098V22.4815H107.05H108.4L108.398 17.6764C108.396 13.1764 108.385 12.8492 108.222 12.5234C108.119 12.3155 107.511 11.6804 106.712 10.9451C105.663 9.97968 105.295 9.69407 105.003 9.61927C104.406 9.46638 96.2657 9.49569 95.7949 9.65232ZM86.0037 12.1384L86.2489 12.3186V15.9812C86.2489 19.6219 86.2477 19.645 86.0466 19.8451L85.8441 20.0463H80.9845C76.3392 20.0463 76.1151 20.039 75.9052 19.8801L75.6854 19.7139L75.6576 16.2926C75.6422 14.4109 75.6551 12.7419 75.6861 12.5838C75.717 12.4256 75.8237 12.2202 75.9233 12.1272C76.0978 11.9641 76.2745 11.9581 80.9313 11.9581C85.6739 11.9581 85.7627 11.9612 86.0037 12.1384Z" fill="white"/>
</svg>
