<svg width="180" height="32" viewBox="0 0 180 32" fill="none" xmlns="http://www.w3.org/2000/svg">
<path fill-rule="evenodd" clip-rule="evenodd" d="M19.8066 6.52751C15.0043 7.034 10.9938 10.2755 9.6257 14.7562C9.51283 15.126 9.40311 15.511 9.38187 15.6117C9.3496 15.7654 9.28452 15.8121 8.97891 15.901C8.51478 16.0359 7.55135 16.4238 7.0421 16.6809C6.50765 16.9507 5.71484 17.4638 5.71484 17.5399C5.71484 17.6537 6.30221 18.1207 6.66624 18.2965C7.20923 18.5586 7.67269 18.6451 8.29542 18.6005C8.59545 18.579 8.90442 18.5424 8.98207 18.5192C9.11511 18.4794 9.12587 18.5088 9.16936 19.03C9.38315 21.5941 10.5173 24.057 12.3647 25.9691C15.9693 29.7001 21.4973 30.6862 26.2476 28.4455C29.3458 26.984 31.6864 24.1776 32.5366 20.9048L32.6857 20.3306L33.3473 20.1067C34.4482 19.734 36.3031 18.7657 36.3031 18.5637C36.3031 18.4405 35.739 17.9986 35.3424 17.8111C35.1176 17.7047 34.7661 17.583 34.5614 17.5404C34.21 17.4675 33.4592 17.4889 33.0697 17.5829L32.8952 17.6251L32.8498 17.0347C32.6555 14.5057 31.515 12.0405 29.654 10.1264C27.0839 7.48301 23.4252 6.14586 19.8066 6.52751ZM19.7989 9.01349C16.4149 9.48045 13.5096 11.6835 12.2768 14.7175C12.1803 14.9549 12.1014 15.1736 12.1014 15.2035C12.1014 15.2335 12.5174 15.2394 13.0258 15.2167C15.5209 15.1055 18.5341 15.6948 21.3115 16.8372C23.3887 17.6916 25.0425 18.1412 26.905 18.3577C27.6067 18.4393 29.9958 18.4089 30.3083 18.3145C30.4611 18.2684 30.4638 18.2534 30.4209 17.6882C30.238 15.2837 29.3866 13.3822 27.7673 11.7621C26.4047 10.3986 24.8151 9.53739 22.9249 9.13854C22.1774 8.98082 20.5171 8.9144 19.7989 9.01349ZM52.8409 10.3279C52.1889 10.4077 51.1199 10.6429 50.7117 10.7964C48.3291 11.6922 46.8966 13.4189 46.3393 16.0671C46.1519 16.9577 46.1725 19.1506 46.3773 20.1008C47.026 23.1105 49.0548 25.0909 52.0678 25.6554C52.983 25.8269 54.9524 25.8277 55.8615 25.6569C58.5506 25.1517 60.5298 23.4521 61.3782 20.9196C61.9415 19.2382 61.9517 16.7801 61.4023 15.0924C60.6067 12.648 58.7218 11.0097 56.1014 10.4848C55.3836 10.3411 53.4812 10.2495 52.8409 10.3279ZM65.8157 10.5293C65.8157 10.5691 65.9258 10.8641 66.7909 13.1428C67.8481 15.9276 69.7307 20.896 70.6753 23.3949L71.5013 25.5797L73.1528 25.5977L74.8043 25.6156L75.2275 24.4885C75.4602 23.8685 75.747 23.1041 75.8648 22.7898C75.9825 22.4755 76.4439 21.2503 76.8902 20.0671C80.1476 11.4299 80.4711 10.5676 80.4711 10.5233C80.4711 10.5022 79.7224 10.493 78.8073 10.503L77.1434 10.5209L76.8952 11.2604C76.7587 11.6671 76.1732 13.452 75.594 15.2268C75.0149 17.0016 74.4213 18.8142 74.275 19.255C73.9591 20.2065 73.4385 21.9745 73.2935 22.5881L73.1901 23.0251L73.1056 22.7562C73.059 22.6083 72.8979 22.0487 72.7474 21.5125C72.597 20.9764 72.2903 19.9781 72.0659 19.294C71.8414 18.61 71.1723 16.568 70.579 14.7562C69.9856 12.9445 69.4235 11.2428 69.3298 10.9747L69.1596 10.4873H67.4876C66.5681 10.4873 65.8157 10.5062 65.8157 10.5293ZM86.2164 10.5713C86.1988 10.6176 86.1922 14.0134 86.2018 18.1176L86.219 25.5797L92.5216 25.5969L98.8241 25.614V24.37V23.126H94.1518H89.4795V21.1428V19.1596H93.5804H97.6812V17.9495V16.7394H93.5804H89.4795V14.8571V12.9747H93.9165H98.3535V11.731V10.4873H92.301C87.5208 10.4873 86.2417 10.505 86.2164 10.5713ZM105.278 18.0503V25.6134H106.891H108.503L108.521 22.7394L108.538 19.8655L110.421 19.8477L112.303 19.83L114.114 22.7217L115.925 25.6134H117.727C118.719 25.6134 119.53 25.5969 119.53 25.5768C119.53 25.5369 119.151 24.9564 116.946 21.6204C116.142 20.4041 115.472 19.3755 115.457 19.3347C115.442 19.2932 115.659 19.1758 115.95 19.0686C117.222 18.6002 118.124 17.7018 118.566 16.4636C118.823 15.7457 118.864 14.6383 118.663 13.8439C118.45 12.9991 118.232 12.6072 117.646 12.0187C117.223 11.5933 117.016 11.4452 116.498 11.1973C115.717 10.8236 115.021 10.6435 114.017 10.5559C113.592 10.5188 111.452 10.4882 109.261 10.4879L105.278 10.4873V18.0503ZM125.625 10.5322C125.601 10.5568 125.58 13.9601 125.58 18.0952V25.6134H131.362H137.143V24.3697V23.126H132.975H128.807V16.8066V10.4873H127.239C126.376 10.4873 125.65 10.5075 125.625 10.5322ZM148.041 10.6386C148.01 10.7218 147.871 11.0924 147.734 11.4621C146.424 14.9803 143.369 23.143 143.294 23.3276C143.169 23.6323 142.454 25.558 142.454 25.5894C142.454 25.6026 143.177 25.6134 144.061 25.6134C145.528 25.6134 145.671 25.6032 145.713 25.4957C145.812 25.2437 146.878 22.2716 146.955 22.0335L147.036 21.7814H150.009H152.982L153.124 22.2016C153.202 22.4327 153.506 23.2873 153.799 24.1008L154.332 25.5797L155.923 25.5978C156.919 25.6091 157.513 25.5914 157.513 25.5505C157.513 25.5146 157.484 25.4157 157.447 25.3308C157.411 25.2459 156.96 24.0419 156.446 22.6554C155.931 21.2688 155.126 19.1058 154.657 17.8487C153.33 14.2913 152.552 12.2009 152.254 11.3949C152.104 10.9882 151.951 10.6176 151.915 10.5713C151.866 10.5077 151.395 10.4873 149.974 10.4873H148.098L148.041 10.6386ZM160.581 10.5399C160.563 10.5688 160.709 10.8486 160.906 11.1617C161.103 11.4748 162.341 13.4701 163.657 15.5957L166.051 19.4604V22.5381V25.6158L167.648 25.5978L169.244 25.5797L169.262 22.4714L169.279 19.363L170.229 17.8327C170.751 16.991 171.442 15.8789 171.764 15.3613C173.607 12.3949 174.667 10.6702 174.7 10.5845C174.732 10.5013 174.497 10.4873 173.067 10.4874L171.396 10.4876L171.22 10.7732C171.123 10.9302 170.786 11.4974 170.471 12.0335C169.97 12.8871 169.169 14.2491 167.964 16.2938L167.612 16.8903L167.427 16.5627C167.324 16.3826 167.158 16.0991 167.057 15.9327C166.956 15.7663 166.323 14.6772 165.649 13.5125C164.975 12.3478 164.303 11.1907 164.154 10.9411L163.884 10.4873H162.249C161.349 10.4873 160.599 10.511 160.581 10.5399ZM52.8857 12.8825C51.0427 13.2779 49.8822 14.5996 49.5455 16.6868C49.4182 17.4758 49.4925 19.3207 49.6775 19.9663C50.0283 21.1899 50.7417 22.199 51.6284 22.7258C52.2807 23.1133 52.8553 23.2655 53.8157 23.3051C54.524 23.3343 54.7011 23.318 55.2672 23.1715C56.6552 22.8124 57.5549 22.0018 58.0787 20.6386C58.4721 19.615 58.6063 17.8388 58.3858 16.5746C57.9632 14.151 56.3404 12.7626 53.9501 12.7797C53.6174 12.782 53.1384 12.8284 52.8857 12.8825ZM149.849 13.3884C149.71 13.8665 149.098 15.6736 148.704 16.773C148.261 18.008 147.832 19.2536 147.832 19.3056C147.832 19.3362 148.816 19.3613 150.017 19.3613C151.219 19.3613 152.202 19.3381 152.202 19.3098C152.202 19.2815 151.881 18.3512 151.488 17.2425C151.096 16.1339 150.61 14.7135 150.409 14.0861C150.208 13.4587 150.033 12.934 150.019 12.92C150.005 12.906 149.928 13.1168 149.849 13.3884ZM108.505 15.1932V17.4117L110.875 17.4105C113.489 17.4092 113.898 17.3654 114.513 17.0202C114.908 16.7987 115.307 16.3155 115.428 15.9111C115.473 15.7584 115.509 15.3782 115.506 15.0663C115.499 14.1891 115.196 13.6718 114.472 13.3026C113.918 13.0199 113.451 12.9771 110.908 12.9758L108.505 12.9747V15.1932ZM12.3703 17.7196C12.2779 17.7361 12.0694 17.7668 11.9071 17.7879L11.6119 17.8261L11.6507 18.6777C11.7077 19.9307 11.9926 20.9877 12.5866 22.1512C13.8763 24.6769 16.1131 26.3886 18.9985 27.0578C20.0978 27.3127 21.9341 27.3125 23.0476 27.0573C26.1991 26.3351 28.7522 24.1764 29.8247 21.327C29.9122 21.0946 29.9837 20.8954 29.9837 20.8844C29.9837 20.8733 29.4909 20.8777 28.8886 20.8942C26.3411 20.9639 23.5222 20.4188 20.9411 19.3574C18.1706 18.218 16.1779 17.7539 13.8829 17.7133C13.1434 17.7003 12.4627 17.7031 12.3703 17.7196Z" fill="white"/>
</svg>
