<svg width="130" height="32" viewBox="0 0 130 32" fill="none" xmlns="http://www.w3.org/2000/svg">
<g clip-path="url(#clip0_756_1981)">
<path d="M94.6433 10.3282C95.5833 9.12529 97.0215 8.49059 98.835 8.49059C102.19 8.49059 104.357 10.8118 104.357 14.4023V23.143H101.038V14.7107C101.038 12.74 99.9473 11.6097 98.0493 11.6097C95.8856 11.6097 94.6433 13.0241 94.6433 15.4934V23.143H91.3242V3.25586H94.6433V10.3282Z" fill="#F7F9FC"/>
<path d="M86.86 23.1429V12.0599H89.8825V8.85313H86.86V4.58252L83.5418 5.56479V8.85313H80.5195V12.0599H83.5418V23.1429H86.86Z" fill="#F7F9FC"/>
<path fill-rule="evenodd" clip-rule="evenodd" d="M40.4275 8.49072C38.4516 8.4911 36.817 9.21343 35.6779 10.5852V8.85341H32.3594V28.7405H35.6779V21.4325C36.8234 22.7896 38.4585 23.5059 40.429 23.5059C42.3996 23.5059 44.1073 22.7381 45.4462 21.3448C46.8002 19.9364 47.5437 18.0384 47.5437 15.9983C47.5437 11.8582 44.3529 8.49154 40.4275 8.49072ZM39.9545 11.6672C42.4329 11.6672 44.2312 13.4897 44.2312 15.9983C44.2312 18.5069 42.4329 20.3293 39.9545 20.3293C37.4762 20.3293 35.6779 18.5069 35.6779 15.9983C35.6779 13.4897 37.4762 11.6672 39.9545 11.6672Z" fill="#F7F9FC"/>
<path fill-rule="evenodd" clip-rule="evenodd" d="M60.5143 10.5641C59.3688 9.20702 57.7337 8.49072 55.7631 8.49072C53.7925 8.49072 52.0849 9.2584 50.746 10.6517C49.392 12.0602 48.6484 13.9582 48.6484 15.9983C48.6484 20.1389 51.8401 23.5059 55.7661 23.5059C57.7427 23.5059 59.3779 22.7835 60.5173 21.4113V23.1432H63.8358V8.85341H60.5173V10.561L60.5143 10.5641ZM56.2376 20.3323C53.7593 20.3323 51.961 18.5099 51.961 16.0013C51.961 13.4928 53.7593 11.6702 56.2376 11.6702C58.716 11.6702 60.5143 13.4928 60.5143 16.0013C60.5143 18.5099 58.716 20.3323 56.2376 20.3323Z" fill="#F7F9FC"/>
<path d="M69.674 10.3283C70.6139 9.12541 72.0526 8.49072 73.8661 8.49072C77.2209 8.49072 79.3879 10.8119 79.3879 14.4024V23.1432H76.0693V14.7108C76.0693 12.7401 74.9783 11.6098 73.0802 11.6098C70.9162 11.6098 69.674 13.0243 69.674 15.4935V23.1432H66.3555V8.85341H69.674V10.3283Z" fill="#F7F9FC"/>
<path fill-rule="evenodd" clip-rule="evenodd" d="M113.507 8.49091C109.139 8.49091 105.969 11.6493 105.969 15.9985C105.969 20.3476 109.161 23.506 113.731 23.506C116.402 23.506 118.623 22.3999 119.981 20.39L120.068 20.26L117.324 18.6551L117.245 18.7669C116.517 19.8278 115.245 20.4383 113.755 20.4383C111.545 20.4383 109.952 19.317 109.462 17.4311H120.543L120.561 17.3041C120.618 16.9113 120.676 16.4518 120.676 16.0226C120.676 11.7248 117.593 8.48486 113.504 8.48486L113.507 8.49091ZM113.479 11.5284C115.027 11.5284 116.822 12.3595 117.303 14.6777H109.436C109.901 12.701 111.4 11.5284 113.479 11.5284Z" fill="#F7F9FC"/>
<path d="M125.502 10.7463V8.85331H122.184V23.143H125.502V15.9438C125.502 14.7227 125.859 13.7677 126.566 13.1118C127.301 12.4288 128.424 12.0872 129.655 12.1719L129.812 12.184V8.60547H129.664C127.796 8.60547 126.343 9.35925 125.502 10.7463Z" fill="#F7F9FC"/>
<path d="M27.8705 7.3693L25.6037 11.5643C25.5554 11.652 25.5373 11.7517 25.5524 11.8515L26.3775 18.0231C26.4167 18.3133 26.2898 18.6034 26.048 18.7697L21.3513 22.0519C21.2787 22.1033 21.2243 22.1698 21.1881 22.2514L18.882 27.5919C18.752 27.8912 18.477 28.1027 18.1536 28.1511L14.1762 28.7314C14.0553 28.7495 13.9344 28.7495 13.8135 28.7314L9.83604 28.1511C9.51267 28.1027 9.23764 27.8912 9.10764 27.5919L6.8016 22.2514C6.76835 22.1698 6.71093 22.1033 6.63839 22.0519L1.94164 18.7727C1.69985 18.6034 1.57291 18.3163 1.6122 18.0261L2.4373 11.8545C2.44939 11.7548 2.43126 11.655 2.38592 11.5673L0.113107 7.3693C0.0315037 7.21515 -0.00778701 7.03986 0.00128009 6.86456L0.110086 5.02696C0.131242 4.68846 0.327695 4.38925 0.632955 4.23813L1.92653 3.59739C2.29223 3.41604 2.72746 3.4372 3.07503 3.65481L5.97952 5.47125C6.09437 5.54379 6.23642 5.56193 6.36638 5.52264L13.6261 3.31026C13.8649 3.23773 14.1187 3.23773 14.3575 3.31026L21.6172 5.52264C21.7472 5.56193 21.8892 5.54379 22.0041 5.47125L24.9086 3.65481C25.2562 3.4372 25.6914 3.41604 26.0571 3.59739L27.3476 4.23813C27.6499 4.38925 27.8493 4.68846 27.8705 5.02696L27.9793 6.86456C27.9884 7.03986 27.9521 7.21515 27.8675 7.3693H27.8705Z" fill="#F7F9FC"/>
</g>
<defs>
<clipPath id="clip0_756_1981">
<rect width="130" height="26" fill="white" transform="translate(0 3)"/>
</clipPath>
</defs>
</svg>
