<svg width="123" height="32" viewBox="0 0 123 32" fill="none" xmlns="http://www.w3.org/2000/svg">
<g clip-path="url(#clip0_449_852)">
<path d="M77.4868 22.0631L78.3451 22.0827L78.3626 26.6399L77.4885 26.6334L77.4868 22.0631Z" fill="white"/>
<path d="M96.4435 22.062L97.281 22.0889C97.3416 22.6003 97.3016 23.1182 97.2992 23.6321L97.3191 25.9261L99.6138 25.9016L99.6378 26.6403L96.4407 26.6329L96.4435 22.062Z" fill="white"/>
<path d="M81.9712 22.0782C82.2323 21.9991 82.6762 22.0568 82.9544 22.0566L85.6956 22.0633L85.7686 22.8057L84.258 22.7747L84.2719 25.1468L84.2892 26.6738L83.3824 26.6438L83.3737 22.7722C83.0877 22.7867 82.1901 22.9002 81.9651 22.7604C81.9037 22.5334 81.9441 22.3077 81.9712 22.0782Z" fill="white"/>
<path d="M57.0116 21.9475L57.0722 21.9383C57.3251 21.9059 58.1435 22.0657 58.3746 22.1793C58.5839 22.2822 58.7828 22.4713 58.9708 22.614L58.9642 22.8313C58.8511 23.0742 58.7021 23.1961 58.4893 23.3535C58.2044 23.1439 57.8463 22.8676 57.5026 22.7709C57.1576 22.6739 56.7615 22.825 56.4684 23.0019C56.1028 23.2228 55.8287 23.6343 55.7333 24.0471C55.6356 24.4696 55.7773 24.8811 56.0013 25.2364C56.2161 25.5776 56.6209 25.8429 57.0106 25.9308C57.4138 26.0217 57.757 25.8134 58.0868 25.6086L58.4938 25.3413L58.7135 25.5195C58.8344 25.6261 58.9838 25.7512 58.9942 25.9218C58.7796 26.2608 58.4007 26.5064 58.0093 26.5995C57.48 26.7255 56.4599 26.74 55.9958 26.4585C55.4667 26.1375 55.0452 25.6459 54.9043 25.0291C54.7372 24.2976 54.8705 23.4943 55.2661 22.8631C55.6405 22.2659 56.3759 22.0898 57.0116 21.9475Z" fill="white"/>
<path d="M90.2596 22.0782C90.4008 22.0486 90.7777 22.0283 90.9079 22.0837C90.9379 22.0963 91.0078 22.1275 91.0278 22.1536C91.1735 22.344 91.2501 22.7221 91.3529 22.9514L92.9437 26.6026L92.0611 26.6381C91.862 26.2761 91.7656 25.9806 91.6802 25.577L90.9931 25.5904L89.4053 25.5976C89.3517 25.9963 89.2557 26.2496 89.0894 26.6114L88.1394 26.6477C88.321 26.2686 88.4506 25.8784 88.6192 25.4959L89.7431 22.9964C89.8356 22.7865 89.9355 22.3542 90.0667 22.1974C90.0965 22.1618 90.2163 22.1051 90.2596 22.0782ZM90.4956 23.2701L89.8478 24.7238L90.849 24.7513L91.1717 24.7652L91.2159 24.6704L90.6189 23.2765L90.4956 23.2701Z" fill="white"/>
<path d="M64.22 22.0781C64.4666 22.0445 64.7255 22.0716 64.9737 22.0836L66.9759 26.6201L66.7396 26.6305C66.5868 26.6315 66.1791 26.6741 66.0536 26.623C65.9093 26.5643 65.7431 25.8664 65.6624 25.7131C65.6412 25.6731 65.563 25.6146 65.5281 25.5802L65.0365 25.5965L63.5372 25.5869C63.3277 25.9153 63.1719 26.2744 63.0077 26.6268L62.1324 26.6266L62.1587 26.5443C62.4822 25.5749 62.9946 24.6271 63.408 23.6908C63.6181 23.2146 63.7803 22.6574 64.0537 22.2165C64.0938 22.1519 64.1531 22.1118 64.22 22.0781ZM64.4322 23.2701C64.2428 23.7629 64.0704 24.2755 63.8172 24.7398L64.7931 24.7539L65.0732 24.7649L65.1468 24.6703L64.5675 23.2583L64.4322 23.2701Z" fill="white"/>
<path d="M70.4283 22.0782C70.9089 22.0435 71.3995 22.0551 71.8813 22.0557C72.2262 22.0561 72.6126 22.0321 72.949 22.1163C73.2875 22.2011 73.5258 22.4047 73.7002 22.6984C73.9988 23.2014 73.9436 23.8561 73.8075 24.4027C73.4025 24.8615 73.0474 25.1406 72.417 25.193L71.225 25.2005C71.2845 25.6638 71.2415 26.1784 71.2413 26.6478L70.3718 26.6317L70.3696 23.3824C70.3669 23.1056 70.2667 22.2771 70.4283 22.0782ZM71.2309 22.7679L71.2419 24.3485C71.6512 24.3432 72.4588 24.4415 72.801 24.2034C72.9832 23.9888 73.0804 23.8007 73.0558 23.5006C73.0382 23.287 72.9212 23.159 72.7576 23.0257C72.7076 22.9852 72.6512 22.9621 72.5923 22.9383C72.1616 22.763 71.6899 22.7663 71.2309 22.7679Z" fill="white"/>
<path d="M32.0424 23.9221C33.1158 23.8469 34.2386 23.9197 35.3181 23.9205L42.0731 23.9225L47.4063 23.9192C48.4739 23.9142 49.5844 23.8406 50.6465 23.9496L50.6342 24.7963L32.0392 24.7871L32.0424 23.9221Z" fill="white"/>
<path d="M104.124 23.9077L116.922 23.9193L120.315 23.9166C121.031 23.9136 121.78 23.8557 122.489 23.9655C122.503 23.9757 122.591 24.0348 122.595 24.0446C122.598 24.0532 122.526 24.2831 122.522 24.32C122.51 24.4301 122.549 24.5634 122.576 24.6704C122.5 24.7649 122.457 24.7509 122.34 24.7686L103.78 24.7855C103.778 24.522 103.748 24.2179 103.841 23.9686L104.124 23.9077Z" fill="white"/>
<path d="M81.5549 5.77222L83.6545 5.77764L83.668 15.5488L89.7771 15.5539L89.7767 17.4649L81.5729 17.449L81.5549 5.77222Z" fill="white"/>
<path d="M92.1625 5.78482L94.2804 5.7688L94.2792 15.5494L100.396 15.5495L100.374 17.4652L92.1784 17.4501L92.1625 5.78482Z" fill="white"/>
<path d="M114.177 5.78409L116.464 5.77502L116.479 15.5222C116.614 15.6162 121.876 15.5463 122.548 15.5608L122.589 15.6147C122.439 16.1931 122.679 16.8595 122.519 17.4102C122.319 17.4904 121.982 17.4543 121.768 17.4543L119.95 17.4527L114.188 17.4552L114.177 5.78409Z" fill="white"/>
<path d="M102.761 5.78072L111.58 5.77209L111.613 7.70278L104.863 7.67375L104.884 10.6161L110.781 10.6569L110.793 12.5839L105.985 12.5623L104.867 12.5673C104.974 13.5219 104.882 14.584 104.879 15.5484L111.587 15.5542L111.596 17.4758L102.778 17.4501L102.761 5.78072Z" fill="white"/>
<path d="M72.2829 5.56738L74.0849 5.57022C74.5565 6.25989 74.8266 7.18461 75.157 7.95536L76.7083 11.5094L78.1843 14.8663C78.5696 15.7251 78.9801 16.5538 79.2579 17.4558C78.5957 17.4595 77.751 17.5529 77.111 17.4224C76.8766 17.2237 76.7802 16.8372 76.6634 16.5572L75.8561 14.6072L73.9934 14.6098L70.4811 14.591C70.3466 15.0545 70.1069 15.4832 69.9169 15.9259C69.7109 16.4056 69.5478 16.9335 69.2608 17.3706C69.0311 17.4948 68.7963 17.4556 68.5379 17.4557C68.055 17.4559 67.573 17.4636 67.0916 17.4193C67.4917 16.2649 68.0214 15.169 68.5216 14.0567L69.9754 10.7322L71.4609 7.32832C71.7281 6.7287 71.9425 6.13639 72.2829 5.56738ZM73.1218 8.40807L72.1563 10.6504L71.6804 11.7343C71.5442 12.0335 71.3641 12.3247 71.3967 12.663C71.5771 12.7374 71.8145 12.7053 72.0073 12.7042L73.4655 12.6918C73.9983 12.6996 74.5781 12.6641 75.1017 12.7594L73.1218 8.40807Z" fill="white"/>
<path d="M46.5899 5.57174C47.1468 5.50646 47.7813 5.54869 48.3381 5.59055L53.5121 17.4167C53.3281 17.4832 53.0388 17.4506 52.8411 17.4524L51.2532 17.4404L49.9677 14.5934L48.1208 14.6099L44.6021 14.5866C44.3524 15.5535 43.8261 16.5194 43.4702 17.4591L41.2043 17.417L42.4354 14.6593L44.4844 9.9471L45.9754 6.5298C46.1101 6.2319 46.1727 5.93485 46.3523 5.65408C46.3924 5.59151 46.5168 5.5877 46.5899 5.57174ZM47.3267 8.37249C47.0116 8.87035 46.8056 9.47054 46.5742 10.0128L45.4597 12.7016L47.5191 12.6917C48.0799 12.6972 48.685 12.6595 49.2357 12.766C48.9987 12.2424 47.4657 8.45792 47.3267 8.37249Z" fill="white"/>
<path d="M31.999 5.75937L35.7353 5.75949C36.3997 5.76092 37.1323 5.70466 37.7861 5.81544C38.3004 5.90255 38.9222 6.13141 39.3513 6.43202C40.256 7.06621 40.8292 7.82891 41.0222 8.93764C41.191 9.90708 41.0081 11.1112 40.434 11.9199C39.6415 13.0361 38.4267 13.4534 37.1372 13.6756C36.7187 13.7907 36.2744 13.774 35.8431 13.7845C35.2763 13.7983 34.7009 13.8313 34.1359 13.7824L34.1514 17.4881L32.0274 17.4563L31.999 5.75937ZM34.1206 7.67366L34.1424 11.8562C35.6169 11.86 37.0022 11.9811 38.3018 11.1583C38.6556 10.7574 38.8672 10.1875 38.9681 9.66527C38.8853 9.40619 38.8436 9.09071 38.7325 8.84916C38.5786 8.51477 38.1542 8.11231 37.8302 7.94303C36.7911 7.40042 35.2461 7.76204 34.1206 7.67366Z" fill="white"/>
<path d="M55.6783 5.78518C56.7394 5.70112 57.8462 5.75966 58.9118 5.75939C59.9507 5.75911 61.1067 5.66178 62.1299 5.83205C62.7322 5.93231 63.2744 6.12976 63.7959 6.44462C64.5572 6.90424 65.0374 7.77274 65.2402 8.62066C65.4728 9.59187 65.2671 10.7019 64.7439 11.5446C64.3104 12.2428 63.4554 12.862 62.6433 13.0486L62.6283 13.052C62.6476 13.22 63.0357 13.6466 63.1551 13.8128L65.1306 16.5629C65.3167 16.8302 65.4783 17.1172 65.642 17.3988C65.1202 17.5149 64.4714 17.4511 63.9335 17.4556L63.1566 17.4501L60.3218 13.3627C59.5053 13.4536 58.6199 13.3914 57.7954 13.394L57.795 17.4704L55.6938 17.4498L55.6783 5.78518ZM57.7977 7.66665L57.7979 11.4828L60.2849 11.4749C60.6742 11.4772 61.162 11.5318 61.5372 11.4465C61.9018 11.3635 62.2559 11.1337 62.5744 10.9423C62.9107 10.5341 63.0538 10.0858 63.2165 9.59216C62.9489 8.93524 62.9589 8.30366 62.2118 7.98631C60.8175 7.39414 59.2591 7.78756 57.7977 7.66665Z" fill="white"/>
<path d="M0.578857 3.93501L10.4629 3.92749L13.5122 3.92934C14.2389 3.93045 14.9646 3.91037 15.6875 3.99899C15.3251 4.44689 14.9252 4.85449 14.5208 5.26411C14.2544 5.53405 13.9943 5.82888 13.6795 6.0433L2.5604 6.02793C2.65543 7.29909 2.5829 8.62407 2.58274 9.9004L2.58018 17.3098L2.57898 19.5283C2.57856 19.8285 2.52714 20.2134 2.58792 20.5028L21.6438 0.172774C22.55 0.142673 23.5196 0.0969321 24.4197 0.198513L23.104 1.57984C22.7938 1.93292 22.5278 2.32814 22.2045 2.66934L20.1163 4.76275C19.7698 5.13846 19.4837 5.56952 19.1338 5.93899L16.9573 8.1156C16.5865 8.51325 16.2867 8.96916 15.9147 9.36333L13.6062 11.6826C13.2407 12.0702 12.9491 12.5205 12.5781 12.9031L10.6169 14.8678C10.2582 15.2525 9.96307 15.6966 9.60663 16.0775L7.3683 18.3214C6.99168 18.7182 6.6859 19.178 6.31183 19.5729C5.57599 20.3496 4.75808 21.0576 4.04323 21.8523L3.01716 23.0828C2.59837 23.5412 2.12368 23.9572 1.68553 24.398C1.32783 24.758 0.975973 25.1463 0.578857 25.463V3.93501Z" fill="white"/>
<path d="M0.876953 32C1.09013 31.5642 1.57422 31.1747 1.90302 30.817C2.20778 30.4854 2.46297 30.1124 2.77143 29.783L4.76379 27.7784C5.1547 27.363 5.47886 26.8899 5.87262 26.4748L8.04082 24.2939C8.43217 23.8656 8.76909 23.393 9.16736 22.9707L11.1801 20.9563C11.6343 20.4895 12.0143 19.9568 12.46 19.4821L14.5494 17.3764C14.9175 16.9857 15.2258 16.5458 15.588 16.1497L17.5691 14.1551L18.7856 12.7478L20.8284 10.6948L21.9007 9.43245C22.4265 8.846 23.0143 8.30351 23.5765 7.7516C23.9697 7.36546 24.3457 6.94355 24.7619 6.58301L24.8147 28.1141L9.61911 28.0794C10.1915 27.4166 10.8402 26.6935 11.5148 26.1376L22.6793 26.1466C22.6175 25.1511 22.6595 24.1365 22.6593 23.1386L22.657 17.6981L22.6554 14.0202C22.6538 13.1802 22.6039 12.3205 22.7306 11.4881C22.4304 12.0414 22.0588 12.3863 21.6186 12.8288L19.8997 14.5651C19.5661 14.9356 19.2847 15.3483 18.9411 15.7104L16.7117 17.9461C16.321 18.3681 15.9965 18.8508 15.6019 19.2663L13.6457 21.2188C13.2864 21.6044 12.9902 22.0492 12.6288 22.4293L10.5926 24.4749C10.2301 24.8711 9.92219 25.3244 9.55166 25.7104L7.34487 27.9262C6.94014 28.3613 6.60561 28.8597 6.19011 29.2848C5.32944 30.1654 4.31161 31.0033 3.58589 32H0.876953Z" fill="white"/>
</g>
<defs>
<clipPath id="clip0_449_852">
<rect width="122.089" height="32" fill="white" transform="translate(0.578857)"/>
</clipPath>
</defs>
</svg>
