<svg width="88" height="32" viewBox="0 0 88 32" fill="none" xmlns="http://www.w3.org/2000/svg">
<g clip-path="url(#clip0_756_1686)">
<path d="M38.978 16.7562C37.8902 17.7836 36.3189 18.2671 34.1432 18.2671H30.5776V26.0632H28.1602V7.44922H34.1432C36.2585 7.44922 37.8298 7.9327 38.9176 8.9601C40.0054 9.98749 40.5494 11.2566 40.5494 12.8884C40.5494 14.5201 40.0054 15.7288 38.978 16.7562ZM37.1046 15.3662C37.7693 14.7619 38.0715 13.9158 38.0715 12.8884C38.0715 10.5918 36.7419 9.44358 34.1432 9.44358H30.5776V16.2727H34.1432C35.4728 16.2727 36.5002 15.9706 37.1046 15.3662Z" fill="white"/>
<path d="M42.7854 14.762C43.3898 13.6137 44.2359 12.7676 45.2633 12.1028C46.2907 11.438 47.4994 11.1963 48.8289 11.1963C50.1585 11.1963 51.2463 11.4985 52.1529 12.0424C53.1198 12.5863 53.7846 13.3115 54.2681 14.1576V11.438H56.7459V26.0633H54.2681V23.3437C53.7846 24.1898 53.0594 24.9151 52.0924 25.459C51.1255 26.0029 50.0376 26.3051 48.7685 26.3051C47.4994 26.3051 46.2907 26.0029 45.2633 25.3381C44.2359 24.6733 43.3898 23.7668 42.7854 22.6185C42.1811 21.4703 41.8789 20.1407 41.8789 18.6902C41.8789 17.2398 42.1811 15.8498 42.7854 14.762ZM53.6033 15.7894C53.1803 15.0037 52.5759 14.3389 51.7903 13.9159C51.065 13.4928 50.2189 13.2511 49.3124 13.2511C48.4059 13.2511 47.5598 13.4928 46.8346 13.9159C46.1094 14.3389 45.505 14.9433 45.0215 15.7894C44.5985 16.6354 44.3567 17.542 44.3567 18.6902C44.3567 19.8385 44.5985 20.8055 45.0215 21.5911C45.4446 22.4372 46.0489 23.0416 46.8346 23.4646C47.5598 23.8877 48.4059 24.1294 49.3124 24.1294C50.2189 24.1294 51.065 23.8877 51.7903 23.4646C52.5155 23.0416 53.1198 22.3768 53.6033 21.5911C54.0264 20.745 54.2681 19.7781 54.2681 18.6902C54.2681 17.6024 54.0264 16.6354 53.6033 15.7894Z" fill="white"/>
<path d="M64.2987 11.8611C65.0844 11.3776 66.0513 11.1963 67.1996 11.1963V13.6741H66.5348C63.8152 13.6741 62.4252 15.1246 62.4252 18.0859V26.0633H60.0078V11.3776H62.4252V13.7346C62.9087 12.9489 63.513 12.2841 64.2987 11.8611Z" fill="white"/>
<path d="M69.1956 14.762C69.7999 13.6137 70.646 12.7676 71.7339 12.1028C72.8217 11.438 74.0304 11.1963 75.4204 11.1963C77.2335 11.1963 78.6839 11.6193 79.8926 12.5259C81.1013 13.4324 81.8265 14.5807 82.1891 16.152H79.5904C79.3487 15.2454 78.8652 14.5807 78.14 14.0367C77.4148 13.4928 76.5082 13.2511 75.4808 13.2511C74.0908 13.2511 73.003 13.7346 72.0965 14.7015C71.2504 15.6685 70.8273 16.9981 70.8273 18.7507C70.8273 20.5033 71.2504 21.8933 72.0965 22.8603C72.9426 23.8272 74.0908 24.3107 75.4808 24.3107C76.5687 24.3107 77.4148 24.069 78.14 23.5855C78.8652 23.102 79.3487 22.3768 79.5904 21.4703H82.1891C81.8265 22.9811 81.0409 24.1898 79.8322 25.0359C78.6839 25.9425 77.173 26.3655 75.4204 26.3655C74.0304 26.3655 72.8217 26.0633 71.7339 25.3985C70.646 24.7942 69.7999 23.8877 69.1956 22.7394C68.5912 21.5911 68.2891 20.2616 68.2891 18.7507C68.2891 17.2398 68.5912 15.8498 69.1956 14.762Z" fill="white"/>
<path d="M87.0229 6.30078V26.0631H84.6055V6.30078H87.0229Z" fill="white"/>
<path d="M14.981 10.8335V15.91V20.9866H9.96484V26.0631H14.981H19.9971V20.9866V15.91V10.8335H14.981Z" fill="white"/>
<path d="M5.0083 15.9099V10.8334H9.96398H14.9801V5.75684H9.96398H5.0083H-0.0078125V10.8334V15.9099V20.9865V26.063H5.0083V20.9865V15.9099Z" fill="white"/>
</g>
<defs>
<clipPath id="clip0_756_1686">
<rect width="87.0265" height="20.4875" fill="white" transform="translate(0 5.75635)"/>
</clipPath>
</defs>
</svg>
