<svg width="178" height="32" viewBox="0 0 178 32" fill="none" xmlns="http://www.w3.org/2000/svg">
<g clip-path="url(#clip0_753_1571)">
<path d="M15.0042 9.48926H13.3189V11.8085C13.3189 14.0778 11.4501 15.9132 9.13083 15.9299H5.3433C2.38993 15.9299 0.00390625 18.2826 0.00390625 21.1692V23.4885H5.05963V21.1525C5.05963 18.8832 6.92842 17.0479 9.2477 17.0312H13.0353C15.972 17.0312 18.358 14.6952 18.358 11.8086V9.48926H15.0042Z" fill="white"/>
<path d="M2.54012 14.0734C3.94083 14.0734 5.07633 12.9379 5.07633 11.5372C5.07633 10.1365 3.94083 9.00098 2.54012 9.00098C1.13941 9.00098 0.00390625 10.1365 0.00390625 11.5372C0.00390625 12.9379 1.13941 14.0734 2.54012 14.0734Z" fill="white"/>
<path d="M22.586 23.4837V9.49951H27.3606C28.4793 9.49951 29.3984 9.68621 30.1175 10.0589C30.8367 10.432 31.3692 10.9314 31.7157 11.5572C32.0619 12.1834 32.235 12.8957 32.235 13.6948C32.235 14.4539 32.0652 15.1501 31.7257 15.7824C31.386 16.4152 30.8566 16.9211 30.1375 17.3007C29.4182 17.6803 28.4925 17.8701 27.3606 17.8701H24.5837V23.4837H22.5859H22.586ZM24.5838 16.2119H27.2807C28.3327 16.2119 29.0818 15.9822 29.5282 15.5227C29.9742 15.0632 30.1974 14.4539 30.1974 13.6948C30.1974 12.8826 29.9742 12.2564 29.5282 11.8169C29.0818 11.3774 28.3327 11.1576 27.2807 11.1576H24.5838V16.2119Z" fill="white"/>
<path d="M37.206 23.7234C36.2471 23.7234 35.4012 23.4937 34.6689 23.0342C33.9362 22.5747 33.3669 21.9489 32.9608 21.1563C32.5544 20.364 32.3516 19.4616 32.3516 18.4494C32.3516 17.424 32.5579 16.5184 32.9708 15.7325C33.3835 14.9468 33.9563 14.3241 34.6889 13.8646C35.4212 13.405 36.2671 13.1753 37.2261 13.1753C38.0118 13.1753 38.7044 13.3351 39.3037 13.6548C39.903 13.9744 40.3691 14.414 40.7021 14.9733L40.842 13.415H42.6998V23.4837H40.8619L40.7021 21.9255C40.3956 22.3918 39.956 22.8079 39.3836 23.174C38.8107 23.5402 38.0851 23.7234 37.206 23.7234ZM37.5257 21.9854C38.1515 21.9854 38.7044 21.839 39.1838 21.5459C39.6633 21.2531 40.0329 20.8401 40.2925 20.3073C40.5522 19.7748 40.6821 19.1555 40.6821 18.4494C40.6821 17.7432 40.5522 17.1278 40.2925 16.6014C40.0328 16.0755 39.6632 15.6625 39.1838 15.3629C38.7044 15.0632 38.1515 14.9133 37.5257 14.9133C36.9263 14.9133 36.387 15.0632 35.9075 15.3629C35.428 15.6625 35.055 16.0755 34.7887 16.6014C34.5222 17.1277 34.3891 17.7436 34.3891 18.4494C34.3891 19.1552 34.5221 19.7748 34.7887 20.3073C35.0549 20.8402 35.428 21.2531 35.9075 21.5459C36.3869 21.8389 36.9263 21.9854 37.5257 21.9854Z" fill="white"/>
<path d="M44.4414 23.4836V13.415H46.2394L46.4192 15.3129C46.6455 14.8603 48.1102 13.415 49.8498 13.415H51.5878V15.113H49.8498C47.7523 15.113 46.8387 16.5183 46.6789 16.931C46.5191 17.3439 46.4392 17.8568 46.4392 18.4693V23.4836H44.4414Z" fill="white"/>
<path d="M54.6822 23.4833C54.0561 23.4833 53.5101 23.3834 53.044 23.1836C52.5777 22.9839 52.2181 22.6511 51.9653 22.1847C51.7121 21.7187 51.5857 21.086 51.5857 20.2868V15.1127H49.8477V13.4147H50.6846C51.1955 13.4147 51.6226 13.0262 51.6711 12.5177L51.8254 10.8975H53.5834V13.4147H56.4401V15.1127H53.5834V20.3068C53.5834 20.8797 53.7032 21.2692 53.943 21.4755C54.1827 21.6821 54.5954 21.7851 55.1816 21.7851H56.3402V23.4832H54.6821L54.6822 23.4833Z" fill="white"/>
<path d="M58.7991 11.5172C58.4126 11.5172 58.0964 11.3973 57.8501 11.1576C57.6034 10.9179 57.4805 10.6117 57.4805 10.2387C57.4805 9.87906 57.6034 9.58283 57.8501 9.34962C58.0964 9.11678 58.4126 9 58.7991 9C59.1718 9 59.4849 9.11678 59.738 9.34962C59.9908 9.58283 60.1175 9.87906 60.1175 10.2387C60.1175 10.6117 59.9908 10.9179 59.738 11.1576C59.4848 11.3973 59.1718 11.5172 58.7991 11.5172ZM57.7801 23.4837V13.4151H59.7779V23.4837H57.7801Z" fill="white"/>
<path d="M65.5326 23.7235C64.6802 23.7235 63.9344 23.5837 63.2951 23.3041C62.6558 23.0244 62.1495 22.6317 61.7768 22.1253C61.4038 21.6193 61.1775 21.0266 61.0977 20.3473H63.1354C63.2019 20.667 63.3317 20.96 63.525 21.2263C63.7179 21.4928 63.9845 21.7058 64.324 21.8656C64.6637 22.0253 65.0663 22.1053 65.5327 22.1053C65.9722 22.1053 66.335 22.0423 66.6215 21.9156C66.9077 21.7891 67.1175 21.6159 67.2508 21.3961C67.3837 21.1763 67.4506 20.9401 67.4506 20.687C67.4506 20.3143 67.3607 20.0311 67.1809 19.8379C67.0011 19.645 66.7345 19.4917 66.3818 19.3784C66.0287 19.2654 65.6058 19.162 65.1133 19.0687C64.6469 18.9888 64.1974 18.8789 63.7648 18.7391C63.3318 18.5992 62.9457 18.4228 62.6061 18.2096C62.2665 17.9968 61.9968 17.727 61.7971 17.4006C61.5973 17.0744 61.4974 16.6714 61.4974 16.1919C61.4974 15.6194 61.6503 15.1031 61.9569 14.6436C62.2631 14.1841 62.6992 13.8246 63.2654 13.5649C63.8314 13.3052 64.5006 13.1753 65.2732 13.1753C66.3919 13.1753 67.2909 13.4419 67.9701 13.9744C68.6494 14.5073 69.0489 15.2599 69.1687 16.2319H67.2309C67.1775 15.7793 66.9777 15.4297 66.6315 15.183C66.285 14.9368 65.8256 14.8134 65.2531 14.8134C64.6806 14.8134 64.2408 14.9268 63.9346 15.1531C63.628 15.3797 63.4751 15.6793 63.4751 16.0521C63.4751 16.2919 63.5616 16.505 63.7348 16.6913C63.9077 16.878 64.1644 17.0344 64.5039 17.1608C64.8435 17.2876 65.2597 17.404 65.7526 17.5105C66.4583 17.6438 67.091 17.8101 67.6504 18.0099C68.2098 18.2097 68.6559 18.5028 68.989 18.8889C69.3217 19.2754 69.4885 19.8278 69.4885 20.547C69.5016 21.1732 69.3452 21.7258 69.019 22.2052C68.6924 22.6845 68.233 23.0576 67.6405 23.3239C67.0478 23.5901 66.3451 23.7234 65.5329 23.7234L65.5326 23.7235Z" fill="white"/>
<path d="M72.0022 11.5172C71.6157 11.5172 71.2995 11.3973 71.0532 11.1576C70.8066 10.9179 70.6836 10.6117 70.6836 10.2387C70.6836 9.87906 70.8066 9.58283 71.0532 9.34962C71.2995 9.11678 71.6157 9 72.0022 9C72.3749 9 72.688 9.11678 72.9411 9.34962C73.1939 9.58283 73.3207 9.87906 73.3207 10.2387C73.3207 10.6117 73.1939 10.9179 72.9411 11.1576C72.6879 11.3973 72.3749 11.5172 72.0022 11.5172ZM70.9833 23.4837V13.4151H72.981V23.4837H70.9833Z" fill="white"/>
<path d="M79.3154 23.7234C78.3565 23.7234 77.5106 23.4937 76.7783 23.0342C76.0456 22.5747 75.4763 21.9489 75.0702 21.1563C74.6638 20.364 74.4609 19.4616 74.4609 18.4494C74.4609 17.424 74.6673 16.5184 75.0802 15.7325C75.4928 14.9468 76.0657 14.3241 76.7983 13.8646C77.5306 13.405 78.3765 13.1753 79.3354 13.1753C80.1211 13.1753 80.8138 13.3351 81.4131 13.6548C82.0124 13.9744 82.4784 14.414 82.8115 14.9733L82.9514 13.415H84.8092V23.4837H82.9713L82.8114 21.9255C82.505 22.3918 82.0654 22.8079 81.4929 23.174C80.9201 23.5402 80.1944 23.7234 79.3154 23.7234ZM79.635 21.9854C80.2609 21.9854 80.8138 21.839 81.2932 21.5459C81.7726 21.2531 82.1422 20.8401 82.4019 20.3073C82.6616 19.7748 82.7915 19.1555 82.7915 18.4494C82.7915 17.7432 82.6616 17.1278 82.4019 16.6014C82.1422 16.0755 81.7726 15.6625 81.2932 15.3629C80.8138 15.0632 80.2609 14.9133 79.635 14.9133C79.0357 14.9133 78.4963 15.0632 78.0169 15.3629C77.5374 15.6625 77.1644 16.0755 76.8981 16.6014C76.6315 17.1277 76.4985 17.7436 76.4985 18.4494C76.4985 19.1552 76.6314 19.7748 76.8981 20.3073C77.1643 20.8402 77.5374 21.2531 78.0169 21.5459C78.4962 21.8389 79.0357 21.9854 79.635 21.9854Z" fill="white"/>
<path d="M86.6485 23.4837V9.49951H91.8227C92.7948 9.49951 93.6073 9.65625 94.26 9.96901C94.9123 10.2821 95.4019 10.7082 95.7282 11.2476C96.0545 11.787 96.2177 12.3963 96.2177 13.0755C96.2177 13.7816 96.0644 14.374 95.7583 14.8535C95.4518 15.333 95.0491 15.7026 94.5496 15.9622C94.0501 16.2219 93.5138 16.3718 92.9413 16.4117L93.221 16.2119C93.8334 16.2254 94.3928 16.3886 94.899 16.7013C95.4051 17.0144 95.8047 17.4306 96.0978 17.9499C96.3905 18.4693 96.5372 19.0421 96.5372 19.668C96.5372 20.3872 96.3641 21.0364 96.0179 21.6158C95.6714 22.1952 95.1588 22.6515 94.4796 22.9842C93.8003 23.3172 92.9678 23.4837 91.9824 23.4837H86.6484H86.6485ZM88.6462 15.5327H91.6029C92.442 15.5327 93.0813 15.3363 93.5206 14.9433C93.9602 14.5506 94.1799 14.0079 94.1799 13.3151C94.1799 12.6493 93.9602 12.12 93.5206 11.7269C93.0812 11.3343 92.4219 11.1376 91.5429 11.1376H88.6462V15.5327ZM88.6462 21.8256H91.7228C92.6018 21.8256 93.2841 21.6227 93.7704 21.2162C94.2565 20.8101 94.4996 20.2342 94.4996 19.4882C94.4996 18.7559 94.2498 18.1697 93.7504 17.7301C93.2509 17.2906 92.5617 17.0708 91.6827 17.0708H88.646V21.8255L88.6462 21.8256Z" fill="white"/>
<path d="M97.8125 23.4839V9.1001H99.8104V23.4839H97.8125Z" fill="white"/>
<path d="M106.146 23.7235C105.2 23.7235 104.351 23.5038 103.599 23.0642C102.847 22.6247 102.254 22.0089 101.821 21.2163C101.388 20.4241 101.172 19.5082 101.172 18.4694C101.172 17.404 101.392 16.4751 101.831 15.6825C102.271 14.8903 102.87 14.2741 103.629 13.8346C104.388 13.3951 105.241 13.1753 106.186 13.1753C107.145 13.1753 107.997 13.3951 108.743 13.8346C109.489 14.2741 110.078 14.8868 110.511 15.6725C110.944 16.4585 111.161 17.384 111.161 18.4494C111.161 19.5147 110.944 20.4406 110.511 21.2263C110.078 22.0123 109.483 22.6247 108.723 23.0642C107.964 23.5038 107.105 23.7235 106.146 23.7235H106.146ZM106.146 22.0055C106.692 22.0055 107.188 21.8725 107.635 21.6059C108.081 21.3396 108.44 20.9435 108.713 20.4172C108.986 19.8913 109.123 19.2354 109.123 18.4495C109.123 17.6635 108.99 17.008 108.723 16.4817C108.457 15.9557 108.101 15.5595 107.655 15.293C107.208 15.0268 106.719 14.8934 106.186 14.8934C105.654 14.8934 105.161 15.0268 104.708 15.293C104.255 15.5595 103.892 15.9558 103.619 16.4817C103.346 17.0079 103.21 17.6637 103.21 18.4495C103.21 19.2352 103.346 19.8913 103.619 20.4172C103.892 20.9435 104.251 21.3396 104.698 21.6059C105.144 21.8724 105.627 22.0055 106.146 22.0055Z" fill="white"/>
<path d="M117.171 23.7233C116.199 23.7233 115.333 23.5002 114.574 23.0542C113.815 22.6081 113.219 21.9922 112.786 21.2062C112.353 20.4205 112.137 19.5081 112.137 18.4693C112.137 17.4174 112.353 16.495 112.786 15.7025C113.219 14.9102 113.815 14.291 114.574 13.8446C115.333 13.3985 116.199 13.1753 117.171 13.1753C118.396 13.1753 119.422 13.4949 120.248 14.1343C121.073 14.7735 121.599 15.6395 121.826 16.7313H119.748C119.615 16.1454 119.312 15.6925 118.839 15.3728C118.366 15.0532 117.803 14.8934 117.151 14.8934C116.618 14.8934 116.125 15.0301 115.673 15.3029C115.22 15.5761 114.857 15.9756 114.584 16.5015C114.311 17.0278 114.174 17.6771 114.174 18.4494C114.174 19.0222 114.254 19.5316 114.414 19.9776C114.574 20.424 114.79 20.8001 115.063 21.1063C115.336 21.4128 115.653 21.6426 116.012 21.7956C116.372 21.9489 116.751 22.0253 117.151 22.0253C117.591 22.0253 117.987 21.9554 118.34 21.8156C118.692 21.6757 118.992 21.4659 119.239 21.1862C119.485 20.9065 119.655 20.5738 119.748 20.1874H121.826C121.599 21.2531 121.073 22.1087 120.248 22.7545C119.422 23.4007 118.396 23.7233 117.171 23.7233Z" fill="white"/>
<path d="M123.164 23.4839V9.1001H125.162V23.4839H123.164ZM129.497 23.4839L124.862 17.9701L129.057 13.4153H131.475L126.48 18.7493V17.251L132.014 23.4839L129.497 23.4839Z" fill="white"/>
<path d="M136.589 23.7233C135.617 23.7233 134.751 23.5002 133.992 23.0542C133.233 22.6081 132.637 21.9922 132.204 21.2062C131.771 20.4205 131.555 19.5081 131.555 18.4693C131.555 17.4174 131.771 16.495 132.204 15.7025C132.637 14.9102 133.233 14.291 133.992 13.8446C134.751 13.3985 135.617 13.1753 136.589 13.1753C137.814 13.1753 138.84 13.4949 139.666 14.1343C140.491 14.7735 141.017 15.6395 141.244 16.7313H139.166C139.033 16.1454 138.73 15.6925 138.257 15.3728C137.784 15.0532 137.221 14.8934 136.569 14.8934C136.036 14.8934 135.543 15.0301 135.091 15.3029C134.638 15.5761 134.275 15.9756 134.002 16.5015C133.729 17.0278 133.592 17.6771 133.592 18.4494C133.592 19.0222 133.672 19.5316 133.832 19.9776C133.992 20.424 134.208 20.8001 134.481 21.1063C134.754 21.4128 135.071 21.6426 135.43 21.7956C135.79 21.9489 136.169 22.0253 136.569 22.0253C137.009 22.0253 137.405 21.9554 137.758 21.8156C138.11 21.6757 138.41 21.4659 138.657 21.1862C138.903 20.9065 139.073 20.5738 139.166 20.1874H141.244C141.017 21.2531 140.491 22.1087 139.666 22.7545C138.84 23.4007 137.814 23.7233 136.589 23.7233Z" fill="white"/>
<path d="M142.582 23.4839V9.1001H144.58V15.0533C144.913 14.4674 145.376 14.008 145.968 13.6749C146.561 13.3422 147.217 13.1755 147.936 13.1755C148.735 13.1755 149.421 13.3387 149.994 13.6649C150.566 13.9914 151.006 14.4774 151.312 15.1233C151.618 15.7694 151.772 16.5785 151.772 17.5506V23.4839H149.794V17.7703C149.794 16.8248 149.594 16.1091 149.195 15.6227C148.795 15.1367 148.202 14.8935 147.417 14.8935C146.884 14.8935 146.404 15.0203 145.978 15.2731C145.552 15.5263 145.212 15.8959 144.959 16.3818C144.706 16.8681 144.58 17.4575 144.58 18.1498V23.4839H142.582Z" fill="white"/>
<path d="M157.808 23.7234C156.849 23.7234 156.003 23.4937 155.271 23.0342C154.538 22.5747 153.969 21.9489 153.562 21.1563C153.156 20.364 152.953 19.4616 152.953 18.4494C152.953 17.424 153.16 16.5184 153.573 15.7325C153.985 14.9468 154.558 14.3241 155.291 13.8646C156.023 13.405 156.869 13.1753 157.828 13.1753C158.613 13.1753 159.306 13.3351 159.905 13.6548C160.505 13.9744 160.971 14.414 161.304 14.9733L161.444 13.415H163.301V23.4837H161.464L161.304 21.9255C160.997 22.3918 160.558 22.8079 159.985 23.174C159.412 23.5402 158.687 23.7233 157.808 23.7233L157.808 23.7234ZM158.127 21.9854C158.753 21.9854 159.306 21.839 159.785 21.5459C160.265 21.2531 160.634 20.8401 160.894 20.3073C161.154 19.7748 161.284 19.1555 161.284 18.4494C161.284 17.7432 161.154 17.1278 160.894 16.6014C160.634 16.0755 160.265 15.6625 159.785 15.3629C159.306 15.0632 158.753 14.9133 158.127 14.9133C157.528 14.9133 156.989 15.0632 156.509 15.3629C156.03 15.6625 155.657 16.0755 155.39 16.6014C155.124 17.1277 154.991 17.7436 154.991 18.4494C154.991 19.1552 155.124 19.7748 155.39 20.3073C155.657 20.8402 156.03 21.2531 156.509 21.5459C156.989 21.8389 157.528 21.9854 158.127 21.9854Z" fill="white"/>
<path d="M166.197 11.5172C165.811 11.5172 165.495 11.3973 165.249 11.1576C165.002 10.9179 164.879 10.6117 164.879 10.2387C164.879 9.87906 165.002 9.58283 165.249 9.34962C165.495 9.11678 165.811 9 166.197 9C166.57 9 166.883 9.11678 167.136 9.34962C167.389 9.58283 167.516 9.87906 167.516 10.2387C167.516 10.6117 167.389 10.9179 167.136 11.1576C166.883 11.3973 166.57 11.5172 166.197 11.5172ZM165.179 23.4837V13.4151H167.176V23.4837H165.179Z" fill="white"/>
<path d="M169.035 23.4836V13.415H170.833L170.953 15.1331C171.273 14.5337 171.725 14.0577 172.312 13.7047C172.897 13.352 173.57 13.1753 174.329 13.1753C175.128 13.1753 175.814 13.3351 176.387 13.6548C176.959 13.9744 177.406 14.4573 177.725 15.1031C178.045 15.7493 178.205 16.5584 178.205 17.5304V23.4837H176.207V17.7301C176.207 16.798 176.001 16.092 175.588 15.6126C175.175 15.1331 174.576 14.8934 173.79 14.8934C173.27 14.8934 172.804 15.0167 172.391 15.263C171.978 15.5096 171.649 15.8722 171.403 16.3517C171.156 16.8312 171.033 17.4174 171.033 18.1097V23.4837L169.035 23.4836Z" fill="white"/>
</g>
<defs>
<clipPath id="clip0_753_1571">
<rect width="178" height="32" fill="white"/>
</clipPath>
</defs>
</svg>
