<svg width="120" height="32" viewBox="0 0 120 32" fill="none" xmlns="http://www.w3.org/2000/svg">
<path d="M9.63974 22.3205L9.55934 22.1729L9.54014 22.1369L9.52094 22.0985L9.46454 21.9881L9.42854 21.9161L9.41054 21.8777L9.39374 21.8417L9.37574 21.8045L9.34214 21.7301L9.32534 21.6941L9.24614 21.5105L9.17174 21.3269L9.14414 21.2537L9.13094 21.2177L9.11654 21.1817L9.10454 21.1457L9.09014 21.1085L9.07814 21.0725L9.05174 21.0005L9.03974 20.9645L9.02894 20.9285L9.01694 20.8925L9.00494 20.8565L8.98214 20.7845L8.97254 20.7485L8.92934 20.6069L8.91014 20.5349L8.90054 20.5001L8.89214 20.4641L8.88254 20.4305L8.87294 20.3945L8.86454 20.3585L8.85494 20.3249L8.84654 20.2889L8.83814 20.2553L8.82974 20.2205L8.82134 20.1845L8.80694 20.1173L8.79854 20.0825L8.79254 20.0477L8.77694 19.9793L8.77094 19.9469L8.76374 19.9121L8.75654 19.8773L8.75054 19.8449L8.74454 19.8101L8.73854 19.7765L8.73254 19.7441L8.72654 19.7093L8.70974 19.6097L8.70494 19.5773L8.69294 19.5113L8.68934 19.4777L8.68454 19.4453L8.67974 19.4141L8.67614 19.3805L8.66294 19.2845L8.65934 19.2521L8.65574 19.2197L8.65214 19.1873L8.64734 19.1561L8.64374 19.1249L8.64134 19.0925L8.63774 19.0613L8.63414 19.0289L8.63174 18.9989L8.62934 18.9677L8.62214 18.9053L8.61614 18.8117L8.61254 18.7817L8.61014 18.7517V18.7433L8.57774 18.7217L8.50214 18.6689L8.47574 18.6509L8.45174 18.6341L8.42654 18.6149L8.40254 18.5981L8.37614 18.5789L8.35094 18.5597L8.32454 18.5417L8.30054 18.5225L8.27414 18.5045L8.25014 18.4841L8.22374 18.4661L8.19854 18.4457L8.17214 18.4265L8.14814 18.4061L8.07014 18.3473L8.04614 18.3269L8.01854 18.3053L7.99334 18.2861L7.96694 18.2657L7.94294 18.2441L7.91654 18.2225L7.89014 18.2021L7.81334 18.1361L7.78934 18.1145L7.73654 18.0701L7.60814 17.9561L7.58294 17.9321L7.45454 17.8121L7.42814 17.7881L7.40294 17.7641L7.37774 17.7389L7.32614 17.6885L7.30094 17.6621L7.27454 17.6381L7.25054 17.6117L7.19894 17.5589L7.14854 17.5061L7.12454 17.4785L7.09814 17.4521L6.99734 17.3417L6.94814 17.2853L6.92294 17.2565L6.89894 17.2277L6.77534 17.0813L6.72614 17.0213L6.70214 16.9901L6.65414 16.9301L6.63014 16.8977L6.60614 16.8665L6.58214 16.8353L6.55814 16.8041L6.53414 16.7729L6.41774 16.6097L6.39374 16.5761L6.37094 16.5425L6.34814 16.5089L6.30374 16.4417L6.27974 16.4081L6.19094 16.2689L6.16934 16.2329L6.14774 16.1969L6.12614 16.1621L6.10454 16.1261L6.08294 16.0901L6.06134 16.0541L6.04094 16.0181L6.03134 16.0025L6.02534 16.0145L6.00374 16.0505L5.98334 16.0889L5.96174 16.1249L5.94014 16.1633L5.92094 16.2017L5.90054 16.2413L5.88014 16.2785L5.85974 16.3181L5.83934 16.3565L5.82014 16.3949L5.79974 16.4357L5.78054 16.4741L5.76134 16.5149L5.74214 16.5545L5.70374 16.6349L5.68574 16.6757L5.66654 16.7165L5.61254 16.8401L5.59454 16.8809L5.57654 16.9241L5.55974 16.9649L5.54174 17.0069L5.52614 17.0501L5.50934 17.0921L5.49254 17.1353L5.47694 17.1785L5.44454 17.2649L5.42894 17.3081L5.41334 17.3525L5.39774 17.3957L5.38214 17.4401L5.36894 17.4845L5.35334 17.5289L5.33894 17.5721L5.32574 17.6177L5.31134 17.6633L5.29814 17.7089L5.28374 17.7533L5.25734 17.8445L5.24534 17.8913L5.23334 17.9369L5.22134 17.9825L5.20934 18.0293L5.19734 18.0761L5.18534 18.1229L5.16374 18.2165L5.15294 18.2633L5.14214 18.3113L5.13254 18.3593L5.12294 18.4061L5.11214 18.4541L5.10374 18.5021L5.09534 18.5501L5.08574 18.5981L5.07734 18.6473L5.06894 18.6953L5.05334 18.7937L5.02574 18.9893L5.01974 19.0397L5.01494 19.0877L5.00294 19.1885L4.99334 19.2893L4.98974 19.3385L4.98494 19.3889L4.97774 19.4909L4.96694 19.6925L4.96214 19.8473L4.96094 20.0021L4.96334 20.2085L4.96454 20.2601L4.96574 20.3129L4.96934 20.3645L4.97174 20.4161L4.97654 20.5217L4.98854 20.6777L5.00174 20.8361L5.00414 20.8565L5.01854 20.8673L5.10254 20.9273L5.18894 20.9873L5.23214 21.0173L5.27414 21.0461L5.31854 21.0761L5.36054 21.1049L5.53574 21.2141L5.66774 21.2945L5.71214 21.3185L5.75534 21.3449L5.80094 21.3701L5.84414 21.3941L5.88854 21.4205L5.93294 21.4445L5.97734 21.4685L6.11294 21.5381L6.20294 21.5825L6.24734 21.6041L6.29294 21.6257L6.33734 21.6473L6.38294 21.6677L6.51854 21.7277L6.56414 21.7481L6.60974 21.7673L6.65534 21.7865L6.70094 21.8045L6.74654 21.8225L6.83654 21.8585L6.88334 21.8765L6.92774 21.8933L6.97454 21.9101L7.02014 21.9269L7.11134 21.9581L7.15694 21.9737L7.20254 21.9893L7.29494 22.0181L7.38494 22.0457L7.43174 22.0589L7.47614 22.0733L7.52294 22.0853L7.61294 22.1117L7.65974 22.1237L7.74974 22.1477L7.79654 22.1573L7.84214 22.1681L7.88654 22.1801L7.93214 22.1885L7.97774 22.2005L8.11334 22.2281L8.25014 22.2521L8.29454 22.2617L8.33894 22.2689L8.38334 22.2761L8.42894 22.2833L8.47334 22.2905L8.51894 22.2965L8.60774 22.3085L8.65214 22.3145L8.69774 22.3205L8.74214 22.3253L8.78654 22.3301L8.82974 22.3349L8.96294 22.3469L9.00614 22.3517L9.05054 22.3541L9.13814 22.3601L9.18134 22.3625L9.22454 22.3649L9.35534 22.3709L9.56894 22.3757H9.67214L9.66254 22.3565L9.64094 22.3205H9.63974ZM6.06974 15.9377L6.09134 15.9017L6.11294 15.8657L6.13454 15.8297L6.20174 15.7217L6.22454 15.6869L6.24614 15.6509L6.27014 15.6161L6.29174 15.5813L6.31574 15.5477L6.33734 15.5129L6.45374 15.3449L6.47774 15.3113L6.50174 15.2789L6.52574 15.2465L6.54974 15.2141L6.69494 15.0245L6.74294 14.9633L6.76934 14.9333L6.79334 14.9021L6.81854 14.8733L6.84254 14.8421L6.86894 14.8133L6.89294 14.7833L6.91694 14.7545L6.94334 14.7257L6.96854 14.6969L7.04414 14.6117L7.06934 14.5841L7.09454 14.5553L7.14494 14.5013L7.17134 14.4737L7.19654 14.4461L7.22174 14.4209L7.24814 14.3945L7.27334 14.3669L7.29854 14.3405L7.32494 14.3165L7.42814 14.2133L7.45454 14.1893L7.47854 14.1641L7.50614 14.1389L7.55774 14.0909L7.58294 14.0669L7.68734 13.9709L7.76534 13.9025L7.79054 13.8809L7.81694 13.8569L7.86854 13.8137L7.89374 13.7921L7.94654 13.7477L7.97294 13.7273L7.99814 13.7057L8.02334 13.6841L8.07614 13.6421L8.10014 13.6229L8.12654 13.6025L8.15294 13.5821L8.17814 13.5617L8.22974 13.5221L8.25494 13.5017L8.28134 13.4825L8.30534 13.4633L8.33294 13.4441L8.35814 13.4249L8.38334 13.4057L8.40974 13.3877L8.46014 13.3505L8.48534 13.3313L8.50934 13.3133L8.53694 13.2965L8.56094 13.2773L8.63654 13.2245L8.63894 13.2125L8.64134 13.1837L8.64974 13.0913L8.65214 13.0601L8.65454 13.0289L8.65814 12.9977L8.66294 12.9665L8.66534 12.9353L8.66894 12.9029L8.67254 12.8729L8.67614 12.8405L8.69654 12.6809L8.70134 12.6473L8.70494 12.6161L8.70974 12.5825L8.71574 12.5513L8.71934 12.5177L8.72534 12.4841L8.73014 12.4529L8.74574 12.3533L8.75174 12.3197L8.75894 12.2861L8.76374 12.2537L8.77574 12.1853L8.78294 12.1529L8.78894 12.1181L8.79614 12.0845L8.80334 12.0509L8.83214 11.9141L8.84054 11.8781L8.84894 11.8457L8.85614 11.8097L8.86454 11.7761L8.88134 11.7053L8.88974 11.6717L8.89814 11.6357L8.90774 11.6021L8.91614 11.5661L8.92574 11.5301L8.93774 11.4953L8.94614 11.4593L8.95574 11.4233L8.96774 11.3897L8.97614 11.3537L8.99774 11.2817L9.00974 11.2469L9.01934 11.2109L9.03134 11.1749L9.04334 11.1389L9.05534 11.1029L9.07934 11.0309L9.09134 10.9949L9.10334 10.9589L9.11534 10.9229L9.12974 10.8845L9.15494 10.8125L9.16934 10.7765L9.18254 10.7405L9.19694 10.7021L9.21134 10.6661L9.22574 10.6301L9.24014 10.5941L9.27014 10.5197L9.28694 10.4825L9.30134 10.4465L9.34934 10.3349L9.43454 10.1501L9.45254 10.1129L9.46934 10.0757L9.48854 10.0397L9.52454 9.96408L9.56294 9.89088L9.58214 9.85248L9.60254 9.81648L9.62174 9.77808L9.66254 9.70488L9.68414 9.66768L9.70454 9.63168L9.72494 9.59328L9.73454 9.57888H9.68654L9.64454 9.58008H9.60014L9.51614 9.58248L9.47174 9.58488L9.42974 9.58728L9.38654 9.58848L9.34334 9.59088L9.25574 9.59568L9.16934 9.60288L9.12494 9.60648L9.08054 9.61128L9.03734 9.61368L8.99414 9.61848L8.94854 9.62328L8.90534 9.62808L8.86094 9.63288L8.81534 9.63888L8.77214 9.64488L8.72774 9.65088L8.68214 9.65688L8.63774 9.66288L8.59334 9.67008L8.54774 9.67728L8.41334 9.70128L8.36774 9.70848L8.32334 9.71688L8.27894 9.72528L8.23214 9.73488L8.18774 9.74448L8.14214 9.75408L8.09654 9.76368L8.05094 9.77448L8.00534 9.78408L7.95974 9.79488L7.91534 9.80568L7.82294 9.82968L7.77854 9.84168L7.73174 9.85368L7.64054 9.87888L7.59494 9.89208L7.54934 9.90528L7.45694 9.93288L7.41254 9.94728L7.27334 9.99288L7.22894 10.0085L7.13654 10.0409L7.09094 10.0577L6.99854 10.0925L6.95414 10.1093L6.90734 10.1273L6.86174 10.1453L6.81614 10.1645L6.77054 10.1825L6.72494 10.2017L6.67934 10.2209L6.63374 10.2413L6.58694 10.2617L6.49694 10.3025L6.45134 10.3241L6.31574 10.3889L6.22454 10.4333L6.17894 10.4573L6.13454 10.4801L6.09014 10.5041L6.04454 10.5281L5.99894 10.5521L5.95454 10.5761L5.91014 10.6025L5.86574 10.6265L5.77694 10.6793L5.73134 10.7057L5.68694 10.7321L5.64254 10.7585L5.59934 10.7861L5.55494 10.8137L5.51054 10.8425L5.46734 10.8701L5.42294 10.8989L5.37974 10.9277L5.33654 10.9577L5.29334 10.9865L5.20574 11.0465L5.16374 11.0777L5.12054 11.1089L5.07854 11.1389L5.05214 11.1593V11.1653L5.04014 11.2697L5.03534 11.3237L5.03054 11.3753L5.02694 11.4281L5.02214 11.4797L5.01854 11.5325L5.01614 11.5853L5.01134 11.6369L5.00894 11.6897L5.00774 11.7413L5.00534 11.7941L5.00294 11.8457V11.8973L5.00174 11.9489L5.00054 12.0521V12.2057L5.00534 12.3605L5.00774 12.4109L5.01014 12.4613L5.01134 12.5117L5.01494 12.5621L5.01734 12.6137L5.02574 12.7145L5.02934 12.7625L5.03894 12.8633L5.04854 12.9629L5.05454 13.0121L5.06654 13.1117L5.07374 13.1597L5.08694 13.2581L5.09414 13.3061L5.12654 13.4981L5.13494 13.5461L5.14454 13.5941L5.15414 13.6421L5.16254 13.6901L5.19374 13.8317L5.20334 13.8773L5.21534 13.9253L5.24894 14.0633L5.27294 14.1557L5.31134 14.2913L5.35094 14.4269L5.36534 14.4701L5.42294 14.6465L5.43734 14.6897L5.45294 14.7341L5.50094 14.8625L5.51654 14.9045L5.53334 14.9465L5.54894 14.9897L5.58254 15.0737L5.59934 15.1145L5.61614 15.1565L5.68814 15.3209L5.70614 15.3605L5.76254 15.4805L5.78054 15.5201L5.80094 15.5597L5.83814 15.6377L5.85854 15.6761L5.87894 15.7145L5.89814 15.7529L5.95814 15.8669L5.97974 15.9041L6.00014 15.9401L6.03254 16.0001L6.04694 15.9761L6.06974 15.9377ZM16.9057 22.3265L16.6981 22.3229L16.5325 22.3145L16.4917 22.3121L16.4509 22.3097L16.4113 22.3073L16.3693 22.3049L16.3297 22.3013L16.2889 22.2977L16.2493 22.2941L16.2085 22.2905L16.1701 22.2869L16.1293 22.2821L16.0897 22.2773L16.0501 22.2737L15.8941 22.2533L15.8557 22.2485L15.8161 22.2425L15.7789 22.2377L15.7393 22.2305L15.7033 22.2245L15.6637 22.2185L15.6265 22.2113L15.5881 22.2053L15.5509 22.1981L15.5137 22.1909L15.4753 22.1849L15.4393 22.1765L15.3649 22.1633L15.3289 22.1549L15.2929 22.1477L15.2557 22.1393L15.1477 22.1153L15.1117 22.1057L15.0757 22.0973L15.0397 22.0877L15.0061 22.0793L14.9701 22.0709L14.8309 22.0337L14.7973 22.0229L14.7625 22.0145L14.6953 21.9941L14.6617 21.9845L14.5609 21.9533L14.5285 21.9413L14.4949 21.9317L14.4625 21.9221L14.4289 21.9101L14.3965 21.9005L14.3641 21.8885L14.3329 21.8765L14.3005 21.8657L14.2693 21.8549L14.2357 21.8429L14.1421 21.8093L14.1109 21.7973L14.0797 21.7853L14.0497 21.7745L14.0185 21.7625L13.9873 21.7505L13.9573 21.7385L13.9285 21.7265L13.8973 21.7145L13.8673 21.7025L13.8073 21.6785L13.7785 21.6665L13.6897 21.6293L13.6621 21.6149L13.6321 21.6029L13.6045 21.5909L13.5757 21.5777L13.5193 21.5537L13.4905 21.5393L13.4629 21.5273L13.4341 21.5141L13.4077 21.5021L13.3789 21.4877L13.3525 21.4757L13.3453 21.4721L13.3429 21.4733L13.3141 21.4865L13.2877 21.4997L13.2037 21.5405L13.1749 21.5525L13.1461 21.5657L13.1173 21.5789L13.0897 21.5921L13.0609 21.6053L13.0309 21.6173L12.9733 21.6449L12.9445 21.6569L12.9145 21.6701L12.8857 21.6821L12.8545 21.6953L12.7945 21.7193L12.7645 21.7337L12.7045 21.7577L12.6421 21.7817L12.6121 21.7937L12.5497 21.8189L12.5173 21.8309L12.4861 21.8429L12.4549 21.8549L12.4237 21.8657L12.3589 21.8897L12.2941 21.9125L12.2617 21.9233L12.2293 21.9353L12.0625 21.9905L12.0301 22.0001L11.9953 22.0109L11.9269 22.0313L11.8921 22.0421L11.8237 22.0625L11.7877 22.0721L11.7541 22.0805L11.6833 22.1009L11.6137 22.1189L11.5777 22.1285L11.5057 22.1465L11.4697 22.1549L11.4337 22.1633L11.3977 22.1729L11.3605 22.1801L11.3245 22.1885L11.2873 22.1969L11.1745 22.2209L11.1385 22.2269L11.1001 22.2341L11.0641 22.2413L10.9477 22.2617L10.9105 22.2689L10.8721 22.2749L10.8325 22.2809L10.7941 22.2869L10.7545 22.2917L10.7161 22.2989L10.6765 22.3037L10.6381 22.3085L10.5985 22.3133L10.5589 22.3193L10.5181 22.3241L10.4785 22.3277L10.4389 22.3325L10.3993 22.3361L10.3585 22.3409L10.2385 22.3517L10.1965 22.3541L10.1557 22.3565L10.0717 22.3625L10.0321 22.3649L9.99014 22.3673H9.94814L9.90734 22.3709H9.86414L9.82214 22.3733H9.78014L9.73814 22.3745L9.67214 22.3757L9.68174 22.3937L9.70334 22.4297L9.72614 22.4669L9.74654 22.5029L9.81374 22.6145L9.88334 22.7249L9.90734 22.7609L9.93134 22.7969L9.95414 22.8329L9.97814 22.8689L10.0033 22.9061L10.0273 22.9421L10.0537 22.9781L10.1041 23.0501L10.1305 23.0861L10.2109 23.1941L10.2373 23.2301L10.2649 23.2661L10.2925 23.3009L10.3477 23.3729L10.3765 23.4077L10.4053 23.4437L10.4353 23.4773L10.4641 23.5133L10.5241 23.5829L10.5541 23.6189L10.5829 23.6525L10.6141 23.6885L10.6453 23.7209L10.6753 23.7569L10.7077 23.7893L10.7401 23.8253L10.8037 23.8925L10.9021 23.9933L10.9357 24.0257L10.9693 24.0593L11.0029 24.0929L11.0365 24.1265L11.0725 24.1589L11.1061 24.1913L11.1421 24.2237L11.1757 24.2561L11.2117 24.2873L11.2477 24.3209L11.3197 24.3845L11.3557 24.4157L11.3929 24.4469L11.4301 24.4781L11.4673 24.5093L11.5441 24.5705L11.5813 24.6017L11.6209 24.6329L11.6593 24.6617L11.6977 24.6929L11.7373 24.7217L11.7769 24.7517L11.8165 24.7805L11.8561 24.8105L11.8969 24.8393L11.9773 24.8969L12.0193 24.9257L12.0601 24.9533L12.1021 24.9809L12.1861 25.0361L12.2281 25.0637L12.2713 25.0901L12.3133 25.1177L12.3565 25.1441L12.3997 25.1705L12.4441 25.1969L12.4873 25.2233L12.5317 25.2473L12.5761 25.2737L12.6205 25.2989L12.7093 25.3481L12.7561 25.3733L12.8005 25.3973L12.8461 25.4213L12.9841 25.4909L13.0321 25.5149L13.1725 25.5821L13.2205 25.6025L13.3165 25.6457L13.3249 25.6493L13.3489 25.6385L13.3981 25.6169L13.4461 25.5941L13.5901 25.5269L13.6357 25.5029L13.6837 25.4789L13.7293 25.4549L13.7749 25.4309L13.8205 25.4069L13.8673 25.3829L13.9129 25.3589L13.9585 25.3325L14.0029 25.3073L14.0485 25.2821L14.1373 25.2305L14.1817 25.2029L14.2261 25.1777L14.3125 25.1237L14.3557 25.0949L14.3989 25.0685L14.4421 25.0409L14.5261 24.9845L14.5693 24.9557L14.6101 24.9269L14.7745 24.8105L14.8153 24.7817L14.8957 24.7217L14.9341 24.6917L14.9749 24.6617L15.0145 24.6293L15.0529 24.5993L15.0913 24.5681L15.1297 24.5381L15.1681 24.5057L15.2053 24.4745L15.2437 24.4433L15.2797 24.4121L15.3553 24.3473L15.3913 24.3149L15.4273 24.2825L15.4633 24.2501L15.5701 24.1517L15.6397 24.0845L15.7753 23.9501L15.8089 23.9153L15.8413 23.8829L15.9073 23.8133L16.0345 23.6741L16.0957 23.6057L16.1269 23.5697L16.1581 23.5349L16.2181 23.4629L16.2469 23.4293L16.3909 23.2493L16.4173 23.2133L16.4737 23.1413L16.5001 23.1053L16.5265 23.0693L16.5529 23.0321L16.5793 22.9961L16.6045 22.9601L16.6321 22.9241L16.6561 22.8869L16.6813 22.8509L16.7053 22.8125L16.7317 22.7765L16.7557 22.7405L16.8037 22.6661L16.8517 22.5929L16.8733 22.5557L16.8973 22.5197L16.9633 22.4081L17.0065 22.3337L17.0113 22.3265H16.9057ZM17.0965 9.57288L17.1169 9.61008L17.1769 9.72048L17.1961 9.75648L17.2165 9.79368L17.2357 9.82968L17.2537 9.86808L17.2729 9.90408L17.3449 10.0517L17.3629 10.0889L17.4133 10.1993L17.4289 10.2353L17.4457 10.2725L17.4613 10.3085L17.4781 10.3469L17.4925 10.3829L17.5081 10.4201L17.5681 10.5665L17.5801 10.6025L17.5945 10.6385L17.6365 10.7489L17.6485 10.7849L17.6629 10.8209L17.6749 10.8569L17.6869 10.8929L17.6989 10.9289L17.7109 10.9649L17.7229 11.0009L17.7349 11.0369L17.7469 11.0729L17.7577 11.1089L17.7685 11.1449L17.7805 11.1809L17.8009 11.2517L17.8105 11.2877L17.8213 11.3225L17.8585 11.4641L17.8681 11.4989L17.8777 11.5349L17.8873 11.5685L17.9041 11.6393L17.9125 11.6729L17.9197 11.7089L17.9281 11.7425L17.9353 11.7761L17.9425 11.8121L17.9581 11.8805L17.9653 11.9141L17.9713 11.9477L17.9785 11.9825L17.9857 12.0173L17.9977 12.0833L18.0049 12.1181L18.0097 12.1505L18.0157 12.1841L18.0217 12.2177L18.0265 12.2513L18.0337 12.2849L18.0385 12.3185L18.0433 12.3497L18.0541 12.4169L18.0577 12.4481L18.0637 12.4817L18.0721 12.5465L18.0757 12.5789L18.0793 12.6113L18.0877 12.6761L18.0913 12.7073L18.0961 12.7385L18.1021 12.8033L18.1093 12.8657L18.1117 12.8969L18.1153 12.9281L18.1177 12.9593L18.1213 12.9905L18.1225 13.0217L18.1261 13.0529L18.1285 13.0841L18.1309 13.1129L18.1333 13.1441L18.1345 13.1633L18.1537 13.1765L18.1777 13.1933L18.2785 13.2641L18.3037 13.2821L18.3277 13.3001L18.3541 13.3193L18.3793 13.3373L18.4045 13.3553L18.4309 13.3745L18.4549 13.3937L18.4813 13.4117L18.5053 13.4309L18.5317 13.4501L18.6085 13.5101L18.6337 13.5293L18.6853 13.5689L18.7093 13.5893L18.7621 13.6313L18.7861 13.6517L18.8389 13.6937L18.8641 13.7153L18.8905 13.7357L18.9421 13.7801L18.9661 13.8029L19.0189 13.8461L19.1473 13.9613L19.1737 13.9853L19.1977 14.0093L19.2493 14.0573L19.2757 14.0813L19.3009 14.1053L19.3273 14.1305L19.3525 14.1545L19.3777 14.1785L19.4293 14.2301L19.4545 14.2553L19.4785 14.2817L19.5049 14.3069L19.5313 14.3333L19.6573 14.4665L19.7581 14.5781L19.8313 14.6621L19.8577 14.6921L19.8817 14.7209L19.9309 14.7785L19.9549 14.8097L19.9801 14.8385L20.0041 14.8697L20.0281 14.8997L20.0761 14.9597L20.1001 14.9909L20.1241 15.0221L20.1481 15.0533L20.1721 15.0845L20.1961 15.1169L20.2201 15.1493L20.2441 15.1805L20.2669 15.2129L20.2909 15.2465L20.3365 15.3113L20.3605 15.3449L20.3821 15.3785L20.4061 15.4121L20.4277 15.4457L20.4517 15.4805L20.4733 15.5153L20.4973 15.5489L20.5189 15.5837L20.5405 15.6197L20.5621 15.6533L20.6065 15.7253L20.6281 15.7613L20.6485 15.7973L20.6713 15.8333L20.7133 15.9053L20.7277 15.8789L20.7493 15.8429L20.7709 15.8045L20.7913 15.7673L20.8117 15.7289L20.8321 15.6905L20.8525 15.6521L20.8729 15.6137L20.9329 15.4961L20.9533 15.4565L20.9725 15.4169L20.9917 15.3773L21.0301 15.2969L21.0481 15.2573L21.0673 15.2153L21.0865 15.1757L21.1045 15.1337L21.1213 15.0929L21.1393 15.0521L21.1573 15.0089L21.1753 14.9681L21.1921 14.9261L21.2089 14.8829L21.2437 14.7989L21.2593 14.7557L21.2917 14.6693L21.3073 14.6261L21.3229 14.5817L21.3385 14.5385L21.3529 14.4941L21.3685 14.4509L21.3829 14.4065L21.3973 14.3609L21.4261 14.2721L21.4381 14.2265L21.4525 14.1821L21.4921 14.0453L21.5041 13.9973L21.5173 13.9529L21.5293 13.9073L21.5413 13.8593L21.5857 13.6733L21.5965 13.6253L21.6061 13.5773L21.6265 13.4825L21.6349 13.4345L21.6457 13.3865L21.6541 13.3385L21.6613 13.2905L21.6709 13.2425L21.6949 13.0949L21.7153 12.9485L21.7213 12.8981L21.7273 12.8489L21.7333 12.7985L21.7393 12.7505L21.7537 12.5993L21.7573 12.5489L21.7621 12.4985L21.7657 12.4481L21.7681 12.3977L21.7717 12.3473L21.7765 12.2453L21.7837 12.0413V11.7809L21.7825 11.7293V11.6765L21.7801 11.6261L21.7777 11.5733L21.7753 11.5205L21.7729 11.4689L21.7693 11.4173L21.7669 11.3645L21.7597 11.2601L21.7549 11.2073L21.7513 11.1557L21.7453 11.1029L21.7405 11.0501L21.7009 11.0213L21.6589 10.9913L21.6169 10.9613L21.5737 10.9301L21.5305 10.9013L21.4885 10.8725L21.4441 10.8437L21.4021 10.8149L21.3577 10.7861L21.1837 10.6757L21.0961 10.6229L21.0517 10.5977L21.0073 10.5725L20.9629 10.5473L20.9185 10.5209L20.8741 10.4969L20.8297 10.4729L20.7853 10.4489L20.6953 10.4009L20.6509 10.3781L20.6053 10.3565L20.5153 10.3109L20.3353 10.2269L20.2897 10.2065L20.1997 10.1669L20.1529 10.1477L20.0629 10.1093L20.0173 10.0913L19.9717 10.0733L19.9261 10.0553L19.8805 10.0373L19.8349 10.0205L19.7893 10.0037L19.7437 9.98688L19.6981 9.97008L19.6525 9.95448L19.6069 9.93888L19.5613 9.92448L19.5157 9.90888L19.4689 9.89448L19.4245 9.88008L19.3777 9.86568L19.3321 9.85248L19.2865 9.83808L19.2409 9.82608L19.1953 9.81408L19.1041 9.78768L19.0585 9.77568L18.9673 9.75288L18.8773 9.73248L18.8305 9.72168L18.7849 9.71088L18.6049 9.67368L18.5593 9.66528L18.4693 9.64848L18.4237 9.64128L18.3793 9.63408L18.3337 9.62688L18.2893 9.61968L18.2437 9.61248L18.1117 9.59448L18.0649 9.58968L17.9761 9.57888L17.9329 9.57408L17.8009 9.56208L17.7565 9.55728L17.7121 9.55488L17.6689 9.55008L17.6257 9.54768L17.5801 9.54528L17.5369 9.54288L17.4085 9.53688H17.3641L17.3209 9.53448L17.2357 9.53208H17.0737L17.0749 9.53448L17.0965 9.57048V9.57288ZM9.81254 9.58008H9.89654L9.98054 9.58248L10.0225 9.58488H10.0633L10.2289 9.59328L10.2697 9.59568L10.3105 9.59808L10.4713 9.61008L10.5913 9.62208L10.6309 9.62568L10.6705 9.63168L10.7101 9.63528L10.8277 9.65088L10.8661 9.65568L10.9045 9.66168L10.9441 9.66648L11.0953 9.69048L11.1337 9.69768L11.1721 9.70368L11.2453 9.71808L11.2837 9.72528L11.3941 9.74688L11.4301 9.75528L11.4661 9.76368L11.5021 9.77088L11.5393 9.77928L11.5753 9.78768L11.6473 9.80448L11.6833 9.81408L11.7181 9.82128L11.7541 9.83088L11.8921 9.86688L11.9281 9.87888L11.9605 9.88728L11.9965 9.89688L12.1981 9.95808L12.2629 9.97848L12.2965 9.99048L12.3289 10.0001L12.3601 10.0121L12.3925 10.0241L12.4249 10.0337L12.4573 10.0457L12.4897 10.0565L12.5521 10.0781L12.5833 10.0901L12.6157 10.1021L12.6457 10.1141L12.6769 10.1261L12.7081 10.1381L12.7381 10.1501L12.7681 10.1609L12.8281 10.1849L12.8593 10.1969L12.8893 10.2089L12.9193 10.2209L13.0369 10.2713L13.0657 10.2833L13.0945 10.2965L13.1233 10.3085L13.1521 10.3205L13.1797 10.3349L13.2085 10.3469L13.2361 10.3601L13.2649 10.3721L13.2937 10.3853L13.3201 10.3973L13.3489 10.4117L13.3753 10.4237L13.3993 10.4357L13.4137 10.4273L13.4413 10.4153L13.5253 10.3745L13.5529 10.3625L13.5805 10.3493L13.6093 10.3349L13.6381 10.3229L13.6669 10.3085L13.6957 10.2965L13.7545 10.2701L13.7833 10.2581L13.8121 10.2449L13.8421 10.2329L13.8709 10.2185L13.9309 10.1945L13.9609 10.1813L14.0209 10.1573L14.0533 10.1453L14.0833 10.1333L14.2393 10.0709L14.2705 10.0601L14.3017 10.0481L14.3341 10.0361L14.4001 10.0121L14.4325 10.0001L14.4637 9.98808L14.5309 9.96648L14.5633 9.95568L14.6629 9.92208L14.6965 9.91248L14.7301 9.90048L14.7649 9.89088L14.7985 9.88008L14.9353 9.84048L14.9713 9.82968L15.0049 9.82008L15.0409 9.81168L15.0769 9.80088L15.1105 9.79248L15.1465 9.78408L15.1825 9.77328L15.2185 9.76488L15.2545 9.75528L15.2905 9.74808L15.3625 9.73008L15.3997 9.72168L15.4369 9.71448L15.4729 9.70608L15.6229 9.67488L15.6601 9.66888L15.6985 9.66168L15.7357 9.65448L15.7741 9.64728L15.8125 9.64128L15.8893 9.62928L15.9277 9.62208L15.9673 9.61728L16.0057 9.61128L16.1245 9.59448L16.2025 9.58488L16.2433 9.58128L16.2829 9.57648L16.3237 9.57168L16.3621 9.56808L16.4029 9.56328L16.4437 9.55968L16.4845 9.55608L16.5253 9.55368L16.5661 9.55128L16.6069 9.54768L16.6489 9.54528L16.6897 9.54288L16.7305 9.54048L16.7725 9.53928L16.8145 9.53688L16.8973 9.53328H16.9813L17.0233 9.53088H17.0749L17.0545 9.49608L17.0125 9.42288L16.9897 9.38688L16.9681 9.35088L16.9453 9.31368L16.9213 9.27768L16.8997 9.24048L16.8529 9.16608L16.8289 9.13008L16.8049 9.09408L16.7809 9.05808L16.7569 9.02208L16.7329 8.98488L16.7077 8.94888L16.6825 8.91288L16.6561 8.87688L16.6297 8.84088L16.6057 8.80488L16.5769 8.76888L16.5241 8.69688L16.4965 8.66088L16.4689 8.62488L16.4137 8.55408L16.3849 8.51808L16.3285 8.44968L16.2997 8.41368L16.2109 8.30928L16.1797 8.27328L16.1497 8.23968L16.1185 8.20368L16.0249 8.10168L15.9289 7.99968L15.8305 7.89888L15.7969 7.86648L15.7621 7.83288L15.6601 7.73448L15.5557 7.63608L15.3745 7.47768L15.3373 7.44528L15.3001 7.41528L15.2629 7.38288L15.1477 7.29168L15.1093 7.26168L15.0709 7.23168L14.9137 7.11168L14.8729 7.08408L14.8321 7.05408L14.7925 7.02648L14.7505 6.99768L14.7097 6.96888L14.5849 6.88608L14.4577 6.80328L14.3713 6.75048L14.3281 6.72408L14.2837 6.69888L14.2405 6.67248L14.1961 6.64728L14.1517 6.62088L14.1073 6.59688L14.0617 6.57168L13.9729 6.52368L13.9261 6.49848L13.7881 6.42888L13.7413 6.40488L13.6957 6.38208L13.6009 6.33768L13.5529 6.31608L13.5061 6.29448L13.4581 6.27168L13.4209 6.25488L13.4149 6.25848L13.3669 6.28008L13.3189 6.30288L13.2709 6.32448L13.2229 6.34608L13.1761 6.37008L13.1281 6.39288L13.0357 6.44088L12.9901 6.46488L12.9421 6.48888L12.8965 6.51288L12.8065 6.56328L12.7609 6.58848L12.7153 6.61248L12.6709 6.63888L12.6253 6.66648L12.5821 6.69168L12.5377 6.71928L12.4945 6.74448L12.4501 6.77088L12.4069 6.79968L12.3637 6.82608L12.3205 6.85488L12.1945 6.93888L12.1525 6.96648L12.1105 6.99528L11.9869 7.08288L11.9473 7.11168L11.8273 7.20288L11.7481 7.26288L11.7085 7.29408L11.6701 7.32408L11.5177 7.45008L11.4805 7.48248L11.4433 7.51368L11.3689 7.57848L11.2249 7.70808L11.1553 7.77408L11.1193 7.80648L11.0857 7.84008L11.0509 7.87368L11.0173 7.90968L10.9837 7.94208L10.9501 7.97568L10.9177 8.01048L10.8853 8.04408L10.8517 8.07888L10.8205 8.11368L10.7869 8.14728L10.7557 8.18328L10.7245 8.21688L10.6921 8.25168L10.6621 8.28648L10.6309 8.32248L10.6009 8.35608L10.5709 8.39208L10.5409 8.42808L10.5109 8.46288L10.4821 8.49888L10.4521 8.53488L10.3957 8.60568L10.3681 8.64168L10.3393 8.67768L10.3117 8.71368L10.2841 8.74968L10.2565 8.78568L10.2301 8.82168L10.2037 8.85768L10.1773 8.89488L10.1509 8.93088L10.0993 9.00408L10.0741 9.04008L10.0501 9.07728L10.0237 9.11328L9.99974 9.15168L9.97574 9.18768L9.85814 9.37128L9.79094 9.48288L9.76934 9.51888L9.74774 9.55608L9.73574 9.58008H9.81374H9.81254ZM21.7021 20.6561L21.7081 20.6045L21.7129 20.5517L21.7165 20.5001L21.7213 20.4461L21.7285 20.3417L21.7369 20.1857L21.7429 19.9781L21.7453 19.8221L21.7429 19.6685L21.7393 19.5665V19.5161L21.7369 19.4645L21.7309 19.3649L21.7285 19.3133L21.7165 19.1621L21.7129 19.1141L21.7093 19.0625L21.7033 19.0145L21.6985 18.9629L21.6937 18.9149L21.6877 18.8645L21.6805 18.8165L21.6745 18.7661L21.6673 18.7169L21.6601 18.6689L21.6529 18.6197L21.6469 18.5717L21.6229 18.4265L21.6037 18.3305L21.5857 18.2357L21.5761 18.1877L21.5653 18.1409L21.5557 18.0941L21.5437 18.0461L21.5341 18.0005L21.5233 17.9525L21.5005 17.8613L21.4885 17.8145L21.4765 17.7701L21.4645 17.7233L21.4513 17.6789L21.4393 17.6333L21.4249 17.5877L21.4129 17.5433L21.3985 17.4977L21.3853 17.4545L21.3709 17.4089L21.3277 17.2769L21.3133 17.2337L21.2977 17.1893L21.2833 17.1473L21.2521 17.0609L21.2353 17.0189L21.2197 16.9757L21.1525 16.8077L21.1357 16.7669L21.1177 16.7249L21.0637 16.6025L21.0457 16.5617L21.0277 16.5221L21.0097 16.4813L20.9905 16.4417L20.9713 16.4021L20.9521 16.3625L20.9149 16.2845L20.8549 16.1681L20.7745 16.0169L20.7529 15.9797L20.7325 15.9437L20.7121 15.9065L20.7049 15.9149L20.6629 15.9893L20.6401 16.0253L20.6197 16.0613L20.5297 16.2053L20.4853 16.2749L20.4613 16.3109L20.4397 16.3445L20.4157 16.3781L20.3929 16.4141L20.3233 16.5149L20.2993 16.5473L20.2753 16.5809L20.2513 16.6133L20.2285 16.6469L20.2045 16.6793L20.1805 16.7105L20.1565 16.7429L20.0845 16.8389L20.0605 16.8689L20.0353 16.9001L20.0113 16.9301L19.9861 16.9613L19.9621 16.9913L19.9381 17.0201L19.9117 17.0513L19.8865 17.0801L19.8625 17.1101L19.8121 17.1689L19.7353 17.2529L19.7113 17.2817L19.6873 17.3105L19.6597 17.3393L19.5589 17.4473L19.5325 17.4737L19.5085 17.5013L19.4809 17.5277L19.4569 17.5541L19.4293 17.5805L19.4053 17.6057L19.3777 17.6309L19.3537 17.6561L19.3273 17.6813L19.3021 17.7065L19.1977 17.8061L19.1713 17.8301L19.1473 17.8541L19.0945 17.9021L19.0681 17.9249L19.0429 17.9477L18.9637 18.0161L18.9385 18.0377L18.9133 18.0617L18.8341 18.1277L18.8101 18.1493L18.7837 18.1709L18.7309 18.2129L18.7069 18.2333L18.6541 18.2753L18.6289 18.2957L18.6025 18.3161L18.5761 18.3365L18.5509 18.3569L18.5257 18.3761L18.4993 18.3965L18.4753 18.4157L18.4489 18.4349L18.4225 18.4541L18.3985 18.4733L18.3709 18.4913L18.3469 18.5105L18.3205 18.5297L18.2953 18.5477L18.2713 18.5669L18.2437 18.5849L18.1945 18.6209L18.1681 18.6401L18.1441 18.6569L18.1189 18.6737L18.1069 18.6821L18.1045 18.7097L18.1021 18.7409L18.0997 18.7721L18.0841 18.9257L18.0817 18.9581L18.0769 18.9893L18.0709 19.0529L18.0661 19.0853L18.0625 19.1165L18.0541 19.1801L18.0493 19.2125L18.0421 19.2761L18.0361 19.3097L18.0325 19.3421L18.0205 19.4081L18.0169 19.4393L18.0073 19.5053L18.0001 19.5389L17.9953 19.5725L17.9893 19.6061L17.9833 19.6385L17.9773 19.6733L17.9713 19.7057L17.9593 19.7741L17.9509 19.8077L17.9449 19.8413L17.9293 19.9085L17.9233 19.9445L17.9161 19.9781L17.9077 20.0129L17.9005 20.0477L17.8921 20.0813L17.8837 20.1173L17.8753 20.1509L17.8501 20.2553L17.8309 20.3261L17.8225 20.3609L17.8033 20.4305L17.7925 20.4665L17.7829 20.5025L17.7721 20.5373L17.7613 20.5733L17.7517 20.6093L17.7301 20.6813L17.7181 20.7173L17.7061 20.7521L17.6953 20.7881L17.6833 20.8241L17.6713 20.8601L17.6593 20.8961L17.6209 21.0053L17.6089 21.0425L17.5801 21.1145L17.5681 21.1517L17.5537 21.1877L17.5393 21.2237L17.5249 21.2609L17.4949 21.3353L17.4805 21.3713L17.4661 21.4073L17.4337 21.4829L17.4181 21.5189L17.4013 21.5549L17.3857 21.5921L17.3005 21.7781L17.2453 21.8885L17.2261 21.9269L17.2081 21.9629L17.1697 22.0385L17.1505 22.0745L17.1313 22.1117L17.0701 22.2233L17.0485 22.2605L17.0269 22.2977L17.0101 22.3277H17.0761L17.1205 22.3253H17.1625L17.2045 22.3241L17.2489 22.3229L17.2909 22.3205L17.3341 22.3193L17.3773 22.3169L17.4205 22.3145L17.4649 22.3109L17.5081 22.3085L17.6389 22.2977L17.6833 22.2941L17.7709 22.2845L17.8153 22.2797L17.8597 22.2761L17.9485 22.2641L17.9917 22.2593L18.1717 22.2329L18.2161 22.2245L18.2605 22.2185L18.3061 22.2113L18.3517 22.2017L18.3961 22.1933L18.4417 22.1861L18.4873 22.1765L18.5317 22.1669L18.5773 22.1573L18.6229 22.1477L18.6673 22.1381L18.7141 22.1285L18.7585 22.1165L18.8497 22.0961L18.8953 22.0841L18.9877 22.0601L19.0321 22.0469L19.0789 22.0349L19.1245 22.0229L19.1689 22.0085L19.2157 21.9953L19.3069 21.9665L19.3537 21.9521L19.3981 21.9365L19.5373 21.8909L19.5817 21.8753L19.6285 21.8573L19.6741 21.8417L19.7197 21.8249L19.8121 21.7889L19.8565 21.7721L19.9033 21.7529L19.9489 21.7337L19.9945 21.7157L20.0401 21.6965L20.0857 21.6761L20.1313 21.6557L20.1769 21.6365L20.2225 21.6149L20.2681 21.5945L20.4037 21.5297L20.4493 21.5069L20.4949 21.4865L20.5405 21.4625L20.5849 21.4397L20.6305 21.4157L20.6749 21.3917L20.7649 21.3437L20.8093 21.3197L20.8549 21.2933L21.0325 21.1901L21.0769 21.1637L21.1213 21.1349L21.1657 21.1085L21.2089 21.0797L21.2977 21.0245L21.4273 20.9369L21.5569 20.8469L21.6001 20.8157L21.6433 20.7845L21.6853 20.7533L21.6925 20.7473L21.6973 20.7101L21.7033 20.6561H21.7021Z" fill="white"/>
<path opacity="0.5" d="M4.95128 20.6514L4.95488 20.433L4.95728 20.3802L4.96088 20.325L4.96688 20.163L4.97408 20.0574L4.97768 20.0022L4.98248 19.9506L4.98608 19.8978L4.99568 19.7922L5.00048 19.7394L5.02928 19.4802L5.06528 19.2258L5.08088 19.125L5.08808 19.077L5.09648 19.0266L5.10608 18.9762L5.11448 18.9258L5.12288 18.8778L5.14088 18.7794L5.15168 18.7314L5.16128 18.6834L5.17208 18.6354L5.18168 18.5874L5.20208 18.4914L5.21408 18.4434L5.25728 18.2562L5.28128 18.1638L5.29328 18.1158L5.30648 18.0714L5.31848 18.0258L5.33048 17.9802L5.34368 17.9346L5.35568 17.889L5.36768 17.8446L5.38208 17.8002L5.39528 17.7558L5.40848 17.7114L5.43608 17.6238L5.44808 17.5794L5.46488 17.5362L5.49248 17.4498L5.50688 17.4078L5.52008 17.3646L5.53568 17.3214L5.55008 17.2806L5.56448 17.2374L5.58008 17.1966L5.59448 17.1546L5.61008 17.1114L5.65688 16.989L5.67128 16.9494L5.70248 16.8678L5.71928 16.827L5.73368 16.7874L5.75048 16.749L5.76728 16.7082L5.81528 16.5918L5.83208 16.5534L5.84768 16.5138L5.86568 16.4754L5.88128 16.437L5.89808 16.3998L5.91488 16.3614L5.93168 16.3254L5.94848 16.2858L5.96528 16.2498L5.98328 16.2126L6.01568 16.1382L6.06848 16.029L6.08528 15.993L6.10208 15.957L6.10688 15.9486L6.08288 15.9018L6.03248 15.7938L6.01448 15.7566L5.99768 15.7206L5.98088 15.6834L5.96408 15.6474L5.94728 15.609L5.93048 15.5718L5.91368 15.5334L5.89688 15.4962L5.88008 15.4578L5.86448 15.4194L5.84648 15.381L5.83088 15.3426L5.81408 15.303L5.79848 15.2646L5.74808 15.147L5.73368 15.1074L5.71808 15.0666L5.70128 15.0282L5.68568 14.9874L5.67008 14.9478L5.65568 14.9058L5.63888 14.865L5.59328 14.7402L5.57888 14.6994L5.54888 14.6154L5.47688 14.403L5.46248 14.3598L5.39408 14.1402L5.38208 14.0958L5.36768 14.0514L5.35568 14.007L5.32928 13.917L5.31728 13.8702L5.30408 13.8246L5.29208 13.779L5.26808 13.6866L5.24528 13.5942L5.23448 13.5462L5.22248 13.5006L5.18048 13.3086L5.16128 13.2126L5.14928 13.1646L5.14088 13.1166L5.09528 12.8706L5.07968 12.771L5.07248 12.7206L5.05568 12.6198L5.04968 12.5694L5.04248 12.5178L5.03648 12.4674L5.02808 12.4158L5.02208 12.3642L4.99448 12.105L4.98968 12.0522L4.98608 11.9994L4.98128 11.9466L4.97408 11.841L4.97048 11.787L4.95848 11.5722V11.5182L4.95608 11.463L4.95488 11.409L4.95248 11.355V11.1906L4.95128 11.1666L4.93568 11.1762L4.88768 11.2038L4.83968 11.2326L4.79168 11.2602L4.74128 11.289L4.69328 11.319L4.64528 11.349L4.59728 11.379L4.54928 11.4102L4.50128 11.439L4.45328 11.4702L4.40408 11.5026L4.35608 11.5338L4.30808 11.5662L4.26008 11.5986L4.16408 11.6634L4.11608 11.6982L4.06928 11.7306L3.92528 11.835L3.87968 11.8698L3.83168 11.9058L3.78368 11.9406L3.73688 11.9766L3.69128 12.0138L3.64328 12.0498L3.59888 12.0906L3.55208 12.1266L3.45848 12.2034L3.41288 12.243L3.36608 12.2814L3.32048 12.3198L3.27368 12.3606L3.22808 12.4002L3.18128 12.441L3.13688 12.4806L3.09128 12.5226L3.04568 12.5634L3.00128 12.6066L2.95568 12.6474L2.86688 12.7326L2.82248 12.777L2.77808 12.8202L2.73488 12.8634L2.69048 12.909L2.64728 12.9534L2.60288 12.999L2.51648 13.089L2.47448 13.1358L2.43128 13.1826L2.38808 13.2306L2.34608 13.2762L2.30408 13.3242L2.26328 13.3722L2.22008 13.4202L2.17928 13.4682L2.13848 13.5186L2.09648 13.5666L2.01488 13.6662L1.85648 13.8702L1.81688 13.9218L1.77848 13.9734L1.70048 14.079L1.62368 14.1858L1.58768 14.2398L1.54928 14.2926L1.47488 14.4018L1.33088 14.6238L1.22528 14.793L1.12208 14.967L0.990081 15.201L0.957681 15.261L0.925281 15.321L0.894081 15.381L0.864081 15.441L0.801681 15.561L0.711681 15.7458L0.625281 15.933L0.613281 15.9582L0.622881 15.9786L0.680481 16.1034L0.739281 16.2258L0.769281 16.2882L0.799281 16.3482L0.829281 16.4106L0.859281 16.4706L0.987681 16.7106L1.08488 16.8858L1.12088 16.9434L1.15328 17.001L1.18808 17.0598L1.22168 17.1162L1.25768 17.1738L1.29128 17.229L1.32728 17.2854L1.43528 17.4534L1.50848 17.5614L1.54568 17.6154L1.58288 17.6706L1.62008 17.7234L1.65968 17.7774L1.77368 17.9334L1.81448 17.9862L1.85288 18.039L1.89248 18.0906L1.93208 18.1398L1.97288 18.1914L2.05328 18.2898L2.09408 18.3414L2.13368 18.3894L2.17568 18.4386L2.21768 18.4866L2.30168 18.5826L2.34248 18.6306L2.38448 18.6762L2.47088 18.771L2.55608 18.861L2.60048 18.9066L2.64248 18.9522L2.68808 18.9966L2.77448 19.0854L2.81888 19.1298L2.90768 19.215L2.95328 19.257L2.99768 19.299L3.04208 19.3422L3.08768 19.3818L3.13208 19.4238L3.26888 19.545L3.40808 19.6626L3.45368 19.701L3.50168 19.7394L3.54608 19.7766L3.59408 19.815L3.63968 19.851L3.68768 19.8894L3.78008 19.9614L3.82808 19.9962L3.87608 20.0322L3.92288 20.0682L3.97088 20.1018L4.01648 20.1366L4.16048 20.2374L4.20848 20.271L4.25648 20.3034L4.35248 20.367L4.40048 20.3982L4.44848 20.4294L4.59248 20.5218L4.83488 20.667L4.93088 20.7222L4.95128 20.7342V20.6514ZM5.03528 11.1198L5.08448 11.0922L5.13248 11.067L5.18048 11.0406L5.32808 10.9626L5.37608 10.9386L5.42408 10.9134L5.47448 10.8894L5.52248 10.8654L5.57048 10.8414L5.61848 10.8174L5.86208 10.7034L5.91008 10.683L5.95808 10.6614L6.00848 10.641L6.05648 10.6194L6.34568 10.5018L6.44168 10.4658L6.48968 10.4478L6.53768 10.4298L6.58568 10.413L6.63368 10.395L6.68168 10.3782L6.72848 10.3614L6.77648 10.3446L6.82448 10.329L6.87248 10.3122L7.01408 10.2666L7.05968 10.2522L7.10768 10.2378L7.19888 10.209L7.24688 10.1958L7.29488 10.1814L7.33928 10.1694L7.38728 10.1574L7.43288 10.1418L7.47968 10.1298L7.52528 10.1178L7.71008 10.0698L7.75568 10.0602L7.80008 10.0482L7.84688 10.0374L7.93808 10.0182L7.98248 10.0074L8.16248 9.96783L8.29688 9.94263L8.34008 9.93424L8.38568 9.92584L8.47328 9.91024L8.51648 9.90184L8.60408 9.88743L8.64848 9.88143L8.69168 9.87303L8.73368 9.86703L8.82128 9.85383L8.86208 9.84783L8.90528 9.84183L8.94848 9.83703L8.99048 9.82983L9.07568 9.81903L9.11768 9.81303L9.15968 9.80823L9.20048 9.80343L9.24368 9.79863L9.28568 9.79383L9.32648 9.79023L9.36848 9.78543L9.45008 9.77703L9.49088 9.77223L9.53168 9.76863L9.57248 9.76623L9.61328 9.76143L9.73328 9.75063L9.74288 9.74103L9.76448 9.70863L9.83648 9.61023L9.85808 9.57663L9.88208 9.54423L9.90608 9.50943L9.93128 9.47703L9.95528 9.44463L9.97928 9.41103L10.0033 9.37863L10.0273 9.34503L10.1569 9.17823L10.1833 9.14463L10.2073 9.11103L10.2361 9.07743L10.2625 9.04503L10.2889 9.01023L10.3165 8.97663L10.3429 8.94423L10.4269 8.84223L10.4557 8.80863L10.4845 8.77623L10.5121 8.74143L10.5709 8.67303L10.5997 8.64063L10.6285 8.60703L10.6597 8.57343L10.6885 8.53863L10.8109 8.40543L10.8433 8.36943L10.8745 8.33823L10.9057 8.30223L10.9381 8.26983L11.0029 8.20263L11.0353 8.17023L11.0677 8.13543L11.1013 8.10303L11.1349 8.06703L11.1685 8.03463L11.2033 8.00223L11.2369 7.96863L11.2717 7.93383L11.3065 7.90143L11.3401 7.86903L11.4121 7.80183L11.4481 7.76943L11.4841 7.73583L11.5201 7.70343L11.5561 7.66983L11.5945 7.63743L11.6677 7.57143L11.7061 7.53903L11.7421 7.50663L11.7817 7.47423L11.8213 7.44183L11.8969 7.37703L11.9377 7.34463L11.9761 7.31223L12.0169 7.27983L12.0577 7.24983L12.0973 7.21623L12.1381 7.18623L12.2197 7.12263L12.2629 7.09023L12.3025 7.06023L12.4309 6.96663L12.6481 6.81423L12.6925 6.78423L12.7369 6.75303L12.7825 6.72423L12.8725 6.66423L12.9649 6.60663L13.0117 6.57663L13.0585 6.54783L13.1041 6.51903L13.1989 6.46263L13.2469 6.43503L13.2949 6.40623L13.3429 6.37863L13.3621 6.36783L13.3561 6.36423L13.3081 6.33663L13.2589 6.31023L13.2085 6.28143L13.1101 6.22863L13.0597 6.20223L13.0093 6.17703L12.9589 6.15063L12.9085 6.12543L12.8053 6.07383L12.7021 6.02343L12.6493 5.99943L12.5965 5.97543L12.5437 5.95023L12.4909 5.92623L12.4369 5.90223L12.3841 5.87823L12.3301 5.85423L12.2749 5.83143L12.2209 5.81103L12.1657 5.78703L12.1105 5.76543L12.0565 5.74143L12.0001 5.72103L11.9449 5.69943L11.7769 5.63703L11.7181 5.61663L11.6617 5.59623L11.6053 5.57583L11.5465 5.55663L11.4901 5.53743L11.4301 5.51823L11.3737 5.50023L11.3137 5.48223L11.2561 5.46303L11.1961 5.44503L11.1385 5.42823L11.0185 5.39463L10.9585 5.37783L10.8985 5.36103L10.7761 5.32983L10.7161 5.31543L10.6561 5.29983L10.5325 5.27103L10.4725 5.25663L10.2841 5.21703L10.2229 5.20503L10.0957 5.18103L10.0345 5.17023L9.90608 5.14863L9.84368 5.13783L9.77888 5.12823L9.71648 5.11743L9.65168 5.11023L9.58688 5.10063L9.52328 5.09223L9.45728 5.08383L9.39488 5.07543L9.32768 5.06823L9.19688 5.05623L9.13088 5.04903L8.93408 5.03223L8.80088 5.02383L8.73368 5.02143L8.66768 5.01663L8.60168 5.01423L8.53328 5.01183L8.46608 5.00943L8.40008 5.00823H8.33168L8.26448 5.00463H7.99328L7.92488 5.00823L7.85768 5.01183H7.78928L7.71968 5.01663L7.65128 5.01903L7.58288 5.02023L7.51448 5.02503L7.44488 5.02983L7.37648 5.03463L7.23848 5.04543L7.17008 5.05263L7.10048 5.05863L7.03208 5.06583L6.98888 5.07063L6.98528 5.07783L6.90368 5.18703L6.86288 5.24463L6.82328 5.29983L6.78608 5.35623L6.74648 5.41263L6.70808 5.46903L6.67088 5.52543L6.63248 5.58183L6.59528 5.63943L6.55928 5.69703L6.52208 5.75463L6.48608 5.81103L6.45248 5.86983L6.41648 5.92623L6.34808 6.04143L6.31568 6.10023L6.28088 6.15783L6.24848 6.21543L6.15368 6.39183L6.12248 6.44943L6.09248 6.50943L6.06128 6.56703L6.03248 6.62583L6.00248 6.68583L5.94608 6.80343L5.91848 6.86103L5.86328 6.98103L5.81048 7.09863L5.78408 7.15863L5.73368 7.27743L5.70968 7.33743L5.66168 7.45743L5.63768 7.51503L5.54888 7.75383L5.52848 7.81383L5.50808 7.87383L5.48648 7.93383L5.46608 7.99263L5.40968 8.17263L5.39048 8.23143L5.37248 8.29143L5.32208 8.47023L5.28968 8.59023L5.24408 8.76663L5.20208 8.94663L5.18888 9.00423L5.14088 9.24063L5.12888 9.29943L5.11688 9.35943L5.08688 9.53463L5.07728 9.59223L5.06888 9.65223L5.06048 9.71103L5.04368 9.82743L5.03648 9.88383L5.02808 9.94263L5.00288 10.1742L4.99688 10.2306L4.98488 10.4022L4.97888 10.4586L4.97528 10.5174L4.96808 10.629L4.96568 10.6866L4.96328 10.7418L4.96088 10.7994L4.95608 10.9662V11.0226L4.95488 11.0778L4.95368 11.1654L4.98728 11.1474L5.03528 11.1198ZM13.2409 25.4358L13.0057 25.293L12.8221 25.1754L12.7777 25.1466L12.7321 25.1166L12.6877 25.0878L12.6421 25.0566L12.5989 25.0266L12.5557 24.9966L12.5113 24.9666L12.4681 24.9354L12.4261 24.9054L12.3829 24.8742L12.3409 24.843L12.2977 24.8118L12.1321 24.687L12.0925 24.6558L12.0517 24.6234L12.0121 24.5922L11.9713 24.5598L11.9329 24.5286L11.8921 24.4962L11.8549 24.4638L11.8153 24.4326L11.7769 24.399L11.7397 24.3666L11.7001 24.3354L11.6641 24.3018L11.5885 24.237L11.5525 24.2046L11.5153 24.1722L11.4793 24.1386L11.3713 24.0402L11.3365 24.0066L11.3005 23.9742L11.2669 23.9394L11.2321 23.9082L11.1973 23.8734L11.0629 23.7414L11.0317 23.7066L10.9969 23.6742L10.9345 23.607L10.9021 23.5746L10.8061 23.4726L10.7773 23.439L10.7449 23.4054L10.7149 23.3718L10.6849 23.3382L10.6549 23.3046L10.6249 23.271L10.5961 23.2374L10.5661 23.2038L10.5373 23.1702L10.5085 23.1366L10.4221 23.0358L10.3945 23.0034L10.3669 22.9674L10.3393 22.9362L10.3129 22.9014L10.2841 22.869L10.2577 22.8342L10.2325 22.8018L10.2049 22.7682L10.1785 22.7346L10.1281 22.6686L10.1005 22.635L10.0249 22.5354L10.0009 22.5018L9.97568 22.4682L9.95168 22.4358L9.92768 22.4022L9.87968 22.3374L9.85568 22.3038L9.83168 22.2714L9.80768 22.2378L9.78488 22.2066L9.76088 22.173L9.73928 22.1394L9.73328 22.1334L9.72968 22.1322L9.68888 22.1286L9.64928 22.1262L9.52688 22.1154L9.48488 22.1118L9.44528 22.107L9.40328 22.1034L9.36248 22.0998L9.32168 22.095L9.27968 22.0902L9.19568 22.0818L9.15488 22.077L9.11168 22.0722L9.07088 22.0662L9.02768 22.0614L8.94368 22.0494L8.90048 22.0446L8.81648 22.0326L8.72888 22.0194L8.68688 22.0134L8.59928 22.0002L8.55488 21.993L8.51168 21.9846L8.46728 21.9774L8.42408 21.969L8.33528 21.9546L8.24648 21.9366L8.20208 21.9282L8.15768 21.9186L7.93208 21.8718L7.88768 21.8622L7.84088 21.8514L7.74968 21.8298L7.70408 21.819L7.61288 21.7974L7.56488 21.7854L7.52048 21.7734L7.42688 21.7494L7.33448 21.7218L7.28768 21.7098L7.19288 21.6822L7.14728 21.6702L7.10048 21.6546L7.05248 21.6402L7.00568 21.6246L6.95768 21.6102L6.91208 21.5958L6.76808 21.5478L6.72128 21.531L6.67328 21.5154L6.62648 21.4986L6.48248 21.4458L6.43448 21.429L6.38648 21.411L6.33848 21.3918L6.29048 21.3726L6.24248 21.3534L6.19448 21.3354L6.14648 21.315L6.09728 21.2946L6.04928 21.2742L6.00128 21.255L5.95208 21.2334L5.90408 21.2118L5.85488 21.1914L5.80688 21.1686L5.75888 21.147L5.61248 21.0798L5.56448 21.0558L5.51648 21.0318L5.41808 20.9838L5.37008 20.9598L5.31968 20.9346L5.27168 20.9082L5.22368 20.8842L5.17568 20.8578L5.12528 20.8314L5.07728 20.805L5.02928 20.7786L4.98128 20.751L4.95128 20.7342V20.8182L4.95368 20.8734V20.9286L4.95728 21.0966L4.96568 21.267L4.96808 21.3222L4.97288 21.3798L4.97528 21.4362L4.98008 21.4926L4.98488 21.5514L4.98968 21.6078L4.99448 21.6654L5.00648 21.7794L5.01128 21.8394L5.03288 22.011L5.04008 22.0698L5.04728 22.1274L5.05688 22.185L5.07368 22.3026L5.08328 22.3602L5.09288 22.4202L5.10488 22.4778L5.11328 22.5378L5.13608 22.6542L5.14808 22.7142L5.16008 22.7718L5.17208 22.8318L5.18528 22.8906L5.19728 22.9494L5.21168 23.0094L5.22608 23.0694L5.25488 23.1858L5.30168 23.3658L5.31848 23.4246L5.33408 23.4846L5.35208 23.5434L5.36888 23.6034L5.38688 23.6634L5.40488 23.7234L5.42408 23.781L5.44328 23.841L5.46368 23.901L5.48168 23.961L5.52368 24.0798L5.54528 24.1398L5.56568 24.1998L5.58848 24.2586L5.61008 24.3186L5.65808 24.4386L5.67968 24.4962L5.70488 24.5562L5.72888 24.6162L5.75288 24.6762L5.77928 24.735L5.80568 24.795L5.83208 24.8526L5.85728 24.9126L5.88488 24.9726L5.94008 25.089L5.96888 25.149L5.99888 25.2078L6.02768 25.2678L6.08648 25.383L6.11648 25.443L6.14888 25.5006L6.17888 25.5594L6.21008 25.617L6.24368 25.6758L6.27608 25.7334L6.30968 25.7922L6.34328 25.8486L6.37688 25.9074L6.41048 25.965L6.48128 26.079L6.51728 26.1378L6.55328 26.193L6.58928 26.2506L6.70208 26.4198L6.74048 26.4774L6.85688 26.6454L6.89768 26.7006L6.97928 26.811L6.98768 26.823L7.02368 26.8266L7.09208 26.8338L7.16288 26.841L7.36808 26.8578L7.43648 26.8614L7.50608 26.8662L7.57448 26.8698L7.64408 26.8722L7.71128 26.8758L7.77968 26.8782L7.84808 26.8806H7.91648L7.98488 26.883H8.32328L8.45768 26.8794L8.52488 26.8758L8.59208 26.8734L8.65928 26.871L8.79128 26.8638L8.85968 26.8578L8.92448 26.8542L9.18848 26.8302L9.25328 26.8242L9.38528 26.8098L9.44888 26.8014L9.51488 26.7942L9.57968 26.7846L9.64448 26.7762L9.70808 26.7654L9.77048 26.757L9.83648 26.745L9.90008 26.7354L9.96368 26.7246L10.0261 26.7138L10.1533 26.6898L10.2157 26.6778L10.2793 26.6658L10.3405 26.6514L10.5265 26.6106L10.6501 26.5818L10.8913 26.5194L10.9513 26.5026L11.0113 26.4858L11.1313 26.4522L11.3665 26.3802L11.4829 26.3418L11.5405 26.3214L11.5981 26.3034L11.7133 26.2614L11.7697 26.2422L12.0493 26.1342L12.1057 26.1114L12.2149 26.0682L12.2701 26.0442L12.3229 26.0202L12.3781 25.9962L12.4309 25.9746L12.4849 25.9494L12.5377 25.9254L12.5905 25.9014L12.6433 25.8762L12.6949 25.851L12.7477 25.827L12.7981 25.8006L12.9025 25.7502L13.0045 25.6974L13.0525 25.671L13.1041 25.6446L13.2529 25.5642L13.3501 25.509L13.3597 25.503L13.3369 25.4898L13.2409 25.4346V25.4358ZM21.7705 11.199V11.2554L21.7669 11.4186L21.7645 11.4726V11.5266L21.7621 11.5806L21.7573 11.6358L21.7549 11.6898L21.7429 11.9022L21.7381 11.9562L21.7237 12.1122L21.7177 12.165L21.7141 12.2166L21.7081 12.2682L21.7009 12.321L21.6937 12.3726L21.6889 12.4242L21.6601 12.6282L21.6529 12.6786L21.6445 12.7266L21.6205 12.8778L21.6109 12.927L21.6037 12.9762L21.5941 13.0254L21.5833 13.0746L21.5749 13.1226L21.5641 13.1706L21.5557 13.2198L21.5449 13.2678L21.5341 13.3158L21.5245 13.3638L21.5125 13.4118L21.5029 13.4598L21.4801 13.5522L21.4681 13.599L21.4573 13.6458L21.4093 13.8306L21.3973 13.875L21.3829 13.9206L21.3709 13.9662L21.3457 14.0562L21.3325 14.1006L21.3181 14.1438L21.3061 14.1882L21.2917 14.2326L21.2773 14.277L21.2497 14.3634L21.2365 14.4066L21.2209 14.4486L21.2077 14.493L21.1921 14.535L21.1633 14.619L21.1489 14.661L21.1333 14.703L21.1189 14.7438L21.1021 14.7858L21.0865 14.8266L21.0721 14.8686L21.0565 14.9094L21.0409 14.949L21.0097 15.0306L20.9941 15.069L20.9785 15.1098L20.9461 15.1878L20.9293 15.2286L20.9125 15.267L20.8801 15.345L20.8633 15.3834L20.8477 15.4206L20.8129 15.4974L20.7805 15.5718L20.7625 15.6102L20.7469 15.6462L20.7289 15.6834L20.7121 15.7206L20.6941 15.7566L20.6785 15.7938L20.6605 15.8298L20.6437 15.8658L20.6257 15.9018L20.6149 15.9258L20.6269 15.9522L20.6461 15.987L20.7133 16.131L20.7313 16.1694L20.7481 16.2054L20.7637 16.2438L20.7817 16.281L20.7985 16.317L20.8153 16.3566L20.8309 16.3938L20.8489 16.4322L20.8657 16.4694L20.8813 16.5078L20.9305 16.6254L20.9461 16.6638L20.9797 16.743L20.9941 16.7826L21.0265 16.863L21.0409 16.9038L21.0733 16.9842L21.0889 17.0262L21.1045 17.0658L21.1357 17.1498L21.1477 17.1918L21.1789 17.2758L21.2509 17.4894L21.2653 17.5326L21.2785 17.5746L21.3061 17.6634L21.3193 17.7078L21.3325 17.7522L21.3457 17.7966L21.3601 17.841L21.3721 17.8854L21.3973 17.9754L21.4093 18.0222L21.4213 18.0678L21.4333 18.1134L21.4465 18.159L21.5041 18.393L21.5461 18.585L21.5749 18.729L21.5857 18.777L21.5953 18.825L21.6133 18.9246L21.6205 18.975L21.6301 19.023L21.6385 19.0746L21.6445 19.1226L21.6613 19.2246L21.6685 19.2738L21.6757 19.3254L21.6817 19.3758L21.6901 19.4274L21.6961 19.479L21.7009 19.5306L21.7069 19.581L21.7129 19.6338L21.7177 19.6866L21.7297 19.791L21.7333 19.8438L21.7369 19.8954L21.7417 19.9494L21.7453 20.001L21.7489 20.055L21.7525 20.1102L21.7561 20.1618L21.7585 20.2158L21.7609 20.271L21.7633 20.3238L21.7669 20.433L21.7681 20.487V20.5422L21.7705 20.5974V20.7078L21.8053 20.6862L21.8533 20.6586L21.9025 20.6298L21.9505 20.601L21.9985 20.5722L22.0465 20.5434L22.0957 20.5122L22.1437 20.4834L22.2901 20.391L22.3381 20.3598L22.3861 20.3274L22.4341 20.295L22.5301 20.2302L22.5769 20.1966L22.6249 20.163L22.6729 20.1294L22.7209 20.0946L22.7665 20.0598L22.8145 20.025L22.8625 19.989L22.9105 19.9542L22.9573 19.9182L23.0029 19.881L23.0977 19.809L23.1433 19.7706L23.2369 19.695L23.2825 19.6554L23.3305 19.617L23.3749 19.5786L23.4217 19.5378L23.4673 19.4982L23.5129 19.4586L23.5585 19.4178L23.6497 19.3362L23.6941 19.293L23.7385 19.2522L23.8729 19.1238L23.9173 19.0794L23.9617 19.0362L24.0061 18.9918L24.0493 18.9474L24.2221 18.7662L24.2653 18.7182L24.3073 18.6726L24.3925 18.5778L24.4345 18.5298L24.4765 18.483L24.5185 18.435L24.5593 18.3846L24.6001 18.3366L24.7225 18.1866L24.8425 18.0342L24.8821 17.9826L24.9205 17.9322L24.9601 17.8794L24.9985 17.8278L25.1137 17.6682L25.1497 17.6142L25.1881 17.559L25.2253 17.505L25.2613 17.451L25.2985 17.3946L25.3705 17.2842L25.5121 17.0574L25.5793 16.9434L25.6465 16.8258L25.6813 16.767L25.7125 16.7082L25.7461 16.6482L25.7773 16.5906L25.8085 16.5294L25.8409 16.4694L25.8721 16.4094L25.9009 16.3494L25.9321 16.2882L25.9921 16.1646L26.0209 16.1022L26.0509 16.0422L26.0785 15.9786L26.1073 15.9162L26.0809 15.8586L26.0533 15.7962L26.0245 15.735L25.9945 15.6714L25.9657 15.6102L25.9357 15.5502L25.9045 15.489L25.8745 15.429L25.8433 15.3678L25.7149 15.1278L25.6501 15.0114L25.6165 14.9538L25.5817 14.8962L25.5493 14.8386L25.5133 14.781L25.4785 14.7234L25.4449 14.667L25.4089 14.6106L25.3369 14.499L25.3021 14.4438L25.2649 14.3886L25.1905 14.2794L25.0405 14.0658L25.0009 14.013L24.9241 13.9086L24.8845 13.857L24.8065 13.755L24.7657 13.7034L24.7261 13.6542L24.6853 13.6038L24.6457 13.5534L24.6037 13.5054L24.5629 13.4562L24.5209 13.4058L24.4801 13.3578L24.4381 13.3098L24.3961 13.2618L24.3541 13.2162L24.3121 13.1694L24.2689 13.1226L24.2269 13.0758L24.1825 13.0302L24.1405 12.9846L24.0961 12.939L24.0529 12.8958L24.0085 12.8502L23.9221 12.7626L23.8765 12.7194L23.7877 12.6342L23.6977 12.5502L23.6521 12.5082L23.6077 12.4662L23.4253 12.3054L23.3797 12.2658L23.2873 12.1878L23.2393 12.1494L23.1937 12.1134L23.1469 12.075L23.1013 12.0366L23.0533 12.0006L22.9141 11.8926L22.8661 11.8566L22.7701 11.7858L22.7245 11.7522L22.5805 11.6502L22.5325 11.6178L22.4845 11.5842L22.4377 11.5518L22.3897 11.5194L22.3405 11.4882L22.2925 11.457L22.1485 11.3646L22.1005 11.3358L22.0525 11.3046L21.9553 11.247L21.9073 11.2194L21.8593 11.1906L21.8101 11.1618L21.7705 11.1402V11.199ZM13.4521 6.42063L13.5001 6.44943L13.5481 6.47703L13.6429 6.53463L13.6885 6.56343L13.7365 6.59103L13.9189 6.70863L13.9633 6.73863L14.0089 6.76863L14.1841 6.88863L14.3149 6.98103L14.3557 7.01103L14.3977 7.04223L14.4409 7.07343L14.5657 7.16703L14.6053 7.19823L14.6461 7.23063L14.6869 7.26183L14.8453 7.38903L14.8837 7.42263L14.9233 7.45383L14.9977 7.51863L15.0361 7.55223L15.1489 7.64823L15.1849 7.68183L15.2209 7.71423L15.2569 7.74663L15.2941 7.78023L15.3301 7.81383L15.4009 7.87983L15.4345 7.91343L15.4705 7.94583L15.5041 7.97943L15.6385 8.11143L15.6721 8.14743L15.7045 8.17863L15.7381 8.21223L15.9277 8.41383L15.9889 8.47983L16.0201 8.51583L16.0501 8.54823L16.0789 8.58183L16.1089 8.61543L16.1389 8.64903L16.1677 8.68143L16.1977 8.71623L16.2541 8.78343L16.2829 8.81703L16.3105 8.85063L16.3381 8.88303L16.3669 8.91903L16.3933 8.95023L16.4197 8.98503L16.4473 9.01743L16.5013 9.08463L16.5277 9.11823L16.5541 9.15063L16.5805 9.18423L16.6825 9.31623L16.7065 9.35223L16.7305 9.38463L16.7569 9.41703L16.7809 9.44943L16.8049 9.48303L16.8289 9.51543L16.8529 9.54903L16.8769 9.58143L16.9009 9.61503L16.9225 9.64743L16.9465 9.68103L16.9693 9.71223L16.9885 9.73983L17.0101 9.74223L17.0497 9.74463L17.1721 9.75423L17.2117 9.75903L17.2525 9.76263L17.2945 9.76743L17.3353 9.76983L17.3761 9.77463L17.4181 9.77943L17.5021 9.78783L17.5429 9.79383L17.5849 9.79743L17.6269 9.80343L17.6689 9.80704L17.7529 9.81903L17.7961 9.82383L17.8801 9.83583L17.9245 9.84303L17.9665 9.84903L18.1837 9.88263L18.2281 9.89103L18.2713 9.89823L18.3157 9.90543L18.4045 9.92223L18.4489 9.93063L18.4933 9.93903L18.5833 9.95704L18.6277 9.96663L18.7633 9.99423L18.8077 10.0062L18.8533 10.0146L18.8989 10.0266L18.9457 10.0362L19.1281 10.0806L19.1749 10.0926L19.2205 10.1046L19.2661 10.1166L19.3141 10.1286L19.3597 10.143L19.4077 10.1562L19.4533 10.1682L19.5001 10.1814L19.5469 10.1958L19.5937 10.2102L19.6885 10.2378L19.7341 10.2534L19.7821 10.269L19.8289 10.2834L20.0209 10.347L20.0665 10.3638L20.1145 10.3818L20.1625 10.3974L20.2105 10.4154L20.2585 10.4334L20.3545 10.4694L20.4025 10.4886L20.4505 10.5078L20.4985 10.527L20.6449 10.5858L20.7409 10.6266L20.7889 10.6482L20.8369 10.6686L20.8873 10.6902L20.9341 10.713L20.9821 10.7334L21.0313 10.7574L21.0817 10.7802L21.1297 10.803L21.1777 10.827L21.2269 10.851L21.2749 10.875L21.3229 10.899L21.3721 10.923L21.4201 10.9482L21.4705 10.9734L21.5665 11.025L21.6157 11.0514L21.6637 11.079L21.7129 11.1054L21.7609 11.133L21.7705 11.1402V10.9758L21.7681 10.9194L21.7669 10.8654L21.7657 10.809L21.7621 10.7526V10.6962L21.7561 10.5834L21.7513 10.527L21.7489 10.4706L21.7453 10.413L21.7405 10.3566L21.7357 10.2978L21.7309 10.2426L21.7261 10.1838L21.7201 10.1274L21.7141 10.0698L21.7081 10.0122L21.7009 9.95223L21.6865 9.83703L21.6781 9.77943L21.6697 9.72183L21.6529 9.60543L21.6445 9.54543L21.6241 9.43023L21.6145 9.37023L21.5809 9.19503L21.5689 9.13503L21.5569 9.07623L21.5449 9.01623L21.5041 8.83863L21.4609 8.66223L21.4141 8.48223L21.3973 8.42463L21.3805 8.36463L21.3277 8.18583L21.2713 8.00583L21.1693 7.70943L21.1465 7.64943L21.1249 7.58943L21.1033 7.52943L21.0313 7.35063L21.0073 7.29183L20.9833 7.23183L20.8801 6.99543L20.8525 6.93663L20.8261 6.87663L20.7985 6.81783L20.7697 6.75783L20.7421 6.70023L20.6533 6.52503L20.5609 6.34743L20.4985 6.23223L20.4661 6.17223L20.4325 6.11583L20.3989 6.05703L20.3629 5.99943L20.3305 5.94183L20.2945 5.88543L20.2609 5.82663L20.1889 5.71263L20.1529 5.65503L20.0413 5.48583L20.0029 5.42823L19.9657 5.37303L19.8865 5.26143L19.8469 5.20503L19.8061 5.14983L19.7665 5.09223L19.7341 5.04903H19.7257L19.6561 5.04183L19.5865 5.03463L19.5181 5.02863L19.4497 5.02263L19.3801 5.01783L19.3117 5.01183L19.1749 5.00463L19.1053 5.00223L19.0369 4.99743L18.9709 4.99623L18.8353 4.99263H18.7669L18.6985 4.99023H18.4945L18.4273 4.99263H18.3589L18.2917 4.99383L18.2245 4.99743L18.1573 4.99863L18.0901 5.00223L17.8897 5.01423L17.8249 5.01783L17.7577 5.02263L17.5597 5.03943L17.4949 5.04663L17.2981 5.06943L17.1697 5.08623L17.1049 5.09463L17.0401 5.10303L16.7845 5.14383L16.7209 5.15583L16.6585 5.16783L16.5313 5.19183L16.2829 5.24223L16.1593 5.27223L16.0993 5.28543L16.0381 5.30103L15.9757 5.31543L15.9157 5.33223L15.8545 5.34783L15.7945 5.36343L15.7345 5.38143L15.6745 5.39703L15.6145 5.41503L15.5557 5.43303L15.4957 5.44983L15.4369 5.46783L15.3793 5.48703L15.3205 5.50503L15.2629 5.52423L15.2041 5.54343L15.1477 5.56383L15.0889 5.58303L15.0325 5.60343L14.9761 5.62383L14.9197 5.64543L14.8621 5.66583L14.7505 5.70783L14.6953 5.73063L14.6401 5.75223L14.5837 5.77623L14.5285 5.79783L14.4757 5.82063L14.4205 5.84463L14.3677 5.86743L14.3125 5.89143L14.2597 5.91423L14.1529 5.96343L14.1001 5.98743L14.0485 6.01143L13.9957 6.03663L13.9429 6.06303L13.8925 6.08703L13.6381 6.21903L13.4893 6.29823L13.4413 6.32583L13.3909 6.35343L13.3621 6.37143L13.4041 6.39543L13.4521 6.42063ZM19.8037 26.7054L19.8445 26.6502L19.8829 26.595L19.9213 26.5386L19.9621 26.4822L20.0389 26.3694L20.1493 26.199L20.2933 25.9686L20.3953 25.7958L20.4937 25.6206L20.5573 25.503L20.5873 25.4454L20.6197 25.3866L20.6797 25.2702L20.7085 25.2102L20.7949 25.0338L20.8213 24.9738L20.8489 24.9162L20.8765 24.8562L20.9017 24.7962L20.9293 24.7386L20.9533 24.6786L20.9773 24.6186L21.0037 24.5586L21.0277 24.4986L21.0517 24.4398L21.0757 24.3798L21.0997 24.321L21.1657 24.1422L21.2077 24.0222L21.2485 23.9034L21.2677 23.8434L21.2869 23.7834L21.3061 23.7246L21.3241 23.6646L21.3433 23.6046L21.3613 23.5446L21.3949 23.4258L21.4117 23.3658L21.4261 23.307L21.4441 23.247L21.4573 23.187L21.4729 23.1294L21.4873 23.0682L21.5017 23.0106L21.5149 22.9506L21.5281 22.8906L21.5425 22.8318L21.5785 22.6542L21.5905 22.5966L21.6013 22.5366L21.6133 22.479L21.6325 22.3614L21.6409 22.3026L21.6517 22.2438L21.6841 22.011L21.6913 21.9534L21.6985 21.8946L21.7177 21.7206L21.7237 21.6642L21.7273 21.6066L21.7345 21.549L21.7381 21.4914L21.7417 21.4362L21.7465 21.3786L21.7537 21.2658L21.7609 21.0954L21.7681 20.8722V20.7606L21.7693 20.7066L21.7561 20.7126L21.6601 20.7678L21.6097 20.7942L21.5617 20.8218L21.3661 20.9238L21.2701 20.973L21.2209 20.997L21.1729 21.021L21.1249 21.045L21.0745 21.069L20.9293 21.1362L20.8813 21.1578L20.8333 21.1806L20.7829 21.201L20.7349 21.2226L20.6869 21.243L20.6389 21.2634L20.5909 21.2838L20.4445 21.3438L20.3965 21.3606L20.3485 21.381L20.3005 21.399L20.2525 21.417L20.2045 21.435L20.1589 21.4518L20.1097 21.4698L20.0617 21.4866L20.0137 21.5034L19.9177 21.537L19.7761 21.5826L19.7305 21.5982L19.6825 21.6138L19.6345 21.6282L19.4485 21.6846L19.4005 21.6966L19.3549 21.711L19.3069 21.723L19.2613 21.7362L19.2145 21.7482L19.1689 21.7614L19.1221 21.7734L19.0777 21.7854L19.0309 21.795L18.9865 21.807L18.8029 21.8514L18.7573 21.8598L18.7129 21.8706L18.6217 21.8898L18.5773 21.8982L18.5341 21.9078L18.3985 21.9342L18.3553 21.9414L18.3109 21.951L18.1789 21.9738L18.1357 21.981L18.0913 21.9894L18.0049 22.0014L17.9629 22.0086L17.8765 22.0206L17.8345 22.029L17.7913 22.0338L17.7481 22.0398L17.7049 22.0446L17.6641 22.0506L17.6209 22.0566L17.5801 22.0614L17.5381 22.0662L17.4949 22.071L17.4541 22.0758L17.4121 22.0794L17.3713 22.0842L17.3293 22.089L17.2885 22.0926L17.2489 22.0974L17.2069 22.101L17.1265 22.1082L17.0845 22.113L17.0449 22.1154L17.0053 22.1178L16.9861 22.1202L16.9657 22.149L16.9417 22.1826L16.9201 22.2162L16.8013 22.3794L16.7773 22.4142L16.7533 22.4454L16.7041 22.5138L16.6777 22.5474L16.6537 22.5798L16.6021 22.6458L16.5757 22.6806L16.5241 22.7466L16.4965 22.7802L16.4713 22.8138L16.4161 22.881L16.3909 22.9146L16.3357 22.9818L16.3069 23.0142L16.2781 23.0502L16.2493 23.0826L16.2229 23.1162L16.1929 23.151L16.1641 23.1834L16.1053 23.2518L16.0741 23.2854L16.0453 23.3178L15.9853 23.385L15.9541 23.421L15.9241 23.4534L15.8917 23.487L15.8605 23.5218L15.8305 23.5542L15.7969 23.589L15.7657 23.6214L15.6673 23.7234L15.6001 23.7894L15.5677 23.823L15.5005 23.8902L15.4645 23.9226L15.4309 23.9562L15.3949 23.9886L15.3589 24.0222L15.3253 24.0546L15.2533 24.123L15.2173 24.1554L15.1813 24.1866L15.1453 24.2214L15.1069 24.2526L15.0697 24.2862L15.0325 24.3198L14.9173 24.4158L14.8789 24.4494L14.8009 24.513L14.7613 24.5466L14.7229 24.5778L14.6809 24.6102L14.6413 24.6414L14.5597 24.705L14.5189 24.7362L14.4781 24.7674L14.3929 24.8298L14.3521 24.8622L14.3089 24.8922L14.2657 24.9234L14.0485 25.0758L13.9141 25.1646L13.8661 25.1946L13.8229 25.2246L13.7305 25.2834L13.6825 25.311L13.6369 25.3398L13.4953 25.425L13.4473 25.4538L13.3981 25.4814L13.3597 25.503L13.3849 25.5174L13.4329 25.5462L13.4845 25.5726L13.5325 25.6002L13.5817 25.6266L13.6333 25.6542L13.6825 25.6782L13.7329 25.707L13.7833 25.731L13.8349 25.7574L13.8865 25.7826L13.9381 25.809L14.0941 25.8834L14.1481 25.9074L14.2537 25.9554L14.3077 25.9794L14.3593 26.0034L14.4697 26.049L14.5225 26.0718L14.7445 26.1594L14.8009 26.1798L14.8561 26.2026L14.9125 26.223L14.9701 26.2434L15.0265 26.2626L15.0829 26.2842L15.1429 26.3034L15.1981 26.3226L15.2569 26.3406L15.3157 26.3598L15.3733 26.379L15.4321 26.3982L15.4897 26.415L15.6097 26.451L15.6685 26.4678L15.7885 26.5014L15.8485 26.5158L15.9085 26.5326L15.9685 26.5482L16.0297 26.5626L16.0909 26.5782L16.2145 26.607L16.2769 26.619L16.3381 26.6322L16.5253 26.6718L16.5877 26.6838L16.6513 26.6946L16.7149 26.7066L16.7773 26.7162L16.9057 26.739L16.9693 26.7474L17.0329 26.757L17.0989 26.7654L17.1625 26.775L17.2273 26.7834L17.2921 26.7906L17.3569 26.7978L17.4217 26.8062L17.4877 26.8122L17.5537 26.8194L17.7505 26.8362L17.8177 26.8398L17.8825 26.8458L17.9497 26.8482L18.0169 26.853L18.0841 26.8566L18.1501 26.8578L18.2857 26.8626L18.3517 26.865H18.7573L18.8269 26.8626L18.8941 26.8602L18.9625 26.8578L19.1005 26.853L19.3045 26.841L19.5121 26.8242L19.5817 26.817L19.6513 26.8098L19.7197 26.8026L19.7317 26.8014L19.7617 26.7618L19.8037 26.7054Z" fill="white"/>
<path d="M16.3167 14.2754C16.3395 14.2874 16.3047 14.3054 16.3167 14.327C16.3299 14.3486 16.3167 14.3726 16.3167 14.3966V17.4878C16.3179 17.5382 16.3611 17.5838 16.3167 17.6078L13.3539 19.097C13.3323 19.109 13.3791 19.115 13.3539 19.115C13.3287 19.115 13.3767 19.1066 13.3539 19.0946L10.3863 17.4914C10.3647 17.4794 10.3995 17.4614 10.3863 17.4398C10.3743 17.4182 10.3863 17.3942 10.3863 17.369V14.2682C10.3863 14.2442 10.3743 14.2202 10.3863 14.1986C10.3983 14.1782 10.3647 14.1602 10.3863 14.1482L13.3539 12.6518C13.3755 12.6398 13.3287 12.6338 13.3539 12.6338C13.3791 12.6338 13.3323 12.6422 13.3539 12.6542L16.3179 14.2742L16.3167 14.2754Z" fill="#686868"/>
<path d="M32.125 23.9228V8.16436H37.3018C38.533 8.16436 39.5458 8.36836 40.3414 8.77276C41.137 9.17836 41.7214 9.72556 42.097 10.4168C42.487 11.1068 42.6826 11.8868 42.6826 12.7568C42.6944 13.5651 42.5007 14.3633 42.1198 15.0764C41.7442 15.7664 41.1598 16.322 40.3642 16.742C39.5686 17.1476 38.5474 17.3492 37.3018 17.3492H34.0162V23.9228H32.125ZM34.0162 15.7508H37.2574C38.5174 15.7508 39.4114 15.4892 39.9358 14.9636C40.4758 14.4236 40.747 13.688 40.747 12.7568C40.747 11.8112 40.477 11.0768 39.9358 10.5512C39.4114 10.0112 38.5186 9.74116 37.2574 9.74116H34.0162V15.7508ZM48.9586 24.1928C47.893 24.1928 46.9474 23.9528 46.1218 23.4728C45.297 22.9781 44.6205 22.2705 44.1634 21.4244C43.699 20.5532 43.4662 19.526 43.4662 18.3404C43.4662 17.1692 43.699 16.1492 44.1634 15.278C44.5994 14.4237 45.2716 13.7126 46.1002 13.2296C46.9402 12.7352 47.9086 12.4868 49.0042 12.4868C50.0842 12.4868 51.0142 12.7352 51.7954 13.2308C52.591 13.7108 53.1994 14.348 53.6194 15.1436C54.0381 15.9336 54.2546 16.815 54.2494 17.7092C54.2494 17.8748 54.241 18.0404 54.2254 18.2048V18.7688H45.3334C45.379 19.6232 45.5746 20.336 45.9202 20.906C46.2802 21.4616 46.723 21.8816 47.2474 22.166C47.7874 22.4516 48.3586 22.5944 48.9586 22.5944C49.7386 22.5944 50.3914 22.4144 50.917 22.0544C51.4426 21.6944 51.8254 21.206 52.0654 20.5904H53.9338C53.6421 21.6139 53.0359 22.5199 52.201 23.18C51.361 23.8556 50.2798 24.1928 48.9586 24.1928ZM48.9586 14.0852C48.0586 14.0852 47.2546 14.3636 46.5502 14.918C45.8602 15.458 45.4618 16.2536 45.3574 17.3048H52.381C52.3354 16.2992 51.9898 15.5108 51.3454 14.9408C50.6998 14.3708 49.9054 14.0852 48.9586 14.0852ZM56.305 23.9228V12.7568H58.0162L58.1734 14.8964C58.519 14.1608 59.0434 13.5752 59.749 13.1396C60.4546 12.7052 61.3246 12.4868 62.3602 12.4868V14.468H61.843C61.183 14.468 60.5746 14.588 60.019 14.828C59.4646 15.0536 59.0218 15.4436 58.6918 15.9992C58.3606 16.5536 58.1962 17.3192 58.1962 18.2948V23.9228H56.305ZM68.635 24.1928C67.5694 24.1928 66.6238 23.9528 65.7982 23.4728C64.9733 22.9781 64.2969 22.2706 63.8398 21.4244C63.3754 20.5532 63.1426 19.526 63.1426 18.3404C63.1426 17.1692 63.3754 16.1492 63.8398 15.278C64.2757 14.4237 64.948 13.7126 65.7766 13.2296C66.6166 12.7352 67.585 12.4868 68.6806 12.4868C69.7606 12.4868 70.6906 12.7352 71.4718 13.2308C72.2674 13.7108 72.8758 14.348 73.2958 15.1436C73.7145 15.9336 73.931 16.815 73.9258 17.7092C73.9258 17.8748 73.9174 18.0404 73.9018 18.2048V18.7688H65.0098C65.0554 19.6232 65.2498 20.336 65.5966 20.906C65.9566 21.4616 66.3994 21.8816 66.9238 22.166C67.4638 22.4516 68.035 22.5944 68.635 22.5944C69.415 22.5944 70.0678 22.4144 70.5934 22.0544C71.119 21.6944 71.5018 21.206 71.7418 20.5904H73.6102C73.3182 21.6141 72.7116 22.5201 71.8762 23.18C71.0362 23.8556 69.955 24.1928 68.635 24.1928ZM68.635 14.0852C67.735 14.0852 66.931 14.3636 66.2266 14.918C65.5366 15.458 65.1382 16.2536 65.0338 17.3048H72.0562C72.0118 16.2992 71.6662 15.5108 71.0218 14.9408C70.3762 14.3708 69.5806 14.0852 68.635 14.0852ZM75.9814 23.9228V12.7568H77.6926L77.8042 14.7608C78.1525 14.0685 78.6917 13.4905 79.3582 13.0952C80.0338 12.6896 80.7982 12.4868 81.6538 12.4868C82.9738 12.4868 84.025 12.8924 84.8062 13.7024C85.6006 14.498 85.999 15.7292 85.999 17.3948V23.9228H84.1078V17.5976C84.1078 15.2708 83.1478 14.108 81.2266 14.108C80.2666 14.108 79.4626 14.4608 78.8182 15.1664C78.187 15.8564 77.8726 16.8464 77.8726 18.1376V23.9228H75.9814ZM88.4134 23.9228V12.7568H90.1246L90.2374 14.7608C90.5974 14.0552 91.1146 13.5008 91.7902 13.0952C92.4658 12.6896 93.2302 12.4868 94.0858 12.4868C95.407 12.4868 96.457 12.8924 97.2382 13.7024C98.0338 14.498 98.431 15.7292 98.431 17.3948V23.9228H96.5398V17.5976C96.5398 15.2708 95.5798 14.108 93.6586 14.108C92.6986 14.108 91.8946 14.4608 91.2502 15.1664C90.619 15.8564 90.3046 16.8464 90.3046 18.1376V23.9228H88.4134ZM101.994 10.2812C101.618 10.2812 101.304 10.1612 101.048 9.92116C100.808 9.66556 100.688 9.34996 100.688 8.97556C100.688 8.61556 100.808 8.31556 101.048 8.07556C101.304 7.83556 101.618 7.71556 101.994 7.71556C102.354 7.71556 102.661 7.83556 102.918 8.07556C103.172 8.31556 103.299 8.61556 103.299 8.97556C103.299 9.34996 103.172 9.66556 102.917 9.92116C102.662 10.1612 102.354 10.2812 101.994 10.2812ZM101.048 23.9228V12.7568H102.939V23.9228H101.048ZM109.496 24.1928C108.565 24.1928 107.792 24.0356 107.177 23.72C106.562 23.4056 106.104 22.9844 105.804 22.46C105.505 21.9395 105.35 21.3489 105.354 20.7488C105.354 19.6088 105.789 18.7304 106.659 18.1148C107.529 17.4992 108.715 17.192 110.216 17.192H113.233V17.0564C113.233 16.0808 112.977 15.3464 112.467 14.8508C111.957 14.3408 111.275 14.0852 110.419 14.0852C109.683 14.0852 109.045 14.2736 108.505 14.6492C107.981 15.0092 107.649 15.5408 107.515 16.2464H105.579C105.654 15.4364 105.924 14.7536 106.389 14.198C106.872 13.6411 107.482 13.2089 108.168 12.938C108.88 12.6361 109.646 12.4826 110.419 12.4868C111.979 12.4868 113.15 12.9068 113.93 13.7468C114.726 14.5736 115.124 15.6764 115.124 17.0564V23.9228H113.436L113.323 21.9188C113.007 22.55 112.543 23.09 111.927 23.54C111.327 23.9756 110.516 24.1928 109.496 24.1928ZM109.789 22.5944C110.509 22.5944 111.125 22.4072 111.635 22.0316C112.16 21.6572 112.557 21.1688 112.827 20.5676C113.097 19.9676 113.233 19.3376 113.233 18.6776V18.6548H110.373C109.263 18.6548 108.475 18.8504 108.009 19.2404C107.795 19.4089 107.623 19.6246 107.506 19.8706C107.389 20.1166 107.331 20.3864 107.335 20.6588C107.335 21.2444 107.545 21.7172 107.965 22.0772C108.401 22.4216 109.009 22.5944 109.789 22.5944ZM117.51 23.9228V7.71436H119.401V23.9228H117.51Z" fill="white"/>
</svg>
