<svg width="120" height="32" viewBox="0 0 120 32" fill="none" xmlns="http://www.w3.org/2000/svg">
<path d="M117.742 12.8696C118.083 12.8696 118.418 12.9581 118.743 13.135C119.069 13.3101 119.323 13.5619 119.505 13.8905C119.686 14.2171 119.777 14.5583 119.777 14.9139C119.777 15.2659 119.687 15.6044 119.507 15.9292C119.329 16.2542 119.078 16.5069 118.754 16.6874C118.432 16.8661 118.094 16.9554 117.742 16.9554C117.389 16.9554 117.05 16.8661 116.726 16.6874C116.404 16.5069 116.153 16.2542 115.973 15.9292C115.793 15.6044 115.703 15.2659 115.703 14.9139C115.703 14.5583 115.794 14.2171 115.975 13.8905C116.159 13.5619 116.414 13.3101 116.74 13.135C117.066 12.9581 117.399 12.8696 117.742 12.8696ZM117.742 13.2081C117.455 13.2081 117.176 13.2822 116.905 13.4302C116.634 13.5763 116.423 13.7866 116.27 14.061C116.117 14.3336 116.041 14.6179 116.041 14.9139C116.041 15.2082 116.115 15.4907 116.265 15.7614C116.416 16.0304 116.626 16.2407 116.896 16.3923C117.166 16.5421 117.448 16.617 117.742 16.617C118.035 16.617 118.316 16.5421 118.586 16.3923C118.856 16.2407 119.066 16.0304 119.216 15.7614C119.365 15.4907 119.44 15.2082 119.44 14.9139C119.44 14.6179 119.363 14.3336 119.21 14.061C119.059 13.7866 118.848 13.5763 118.575 13.4302C118.304 13.2822 118.026 13.2081 117.742 13.2081ZM116.848 16.043V13.8444H117.601C117.858 13.8444 118.045 13.8652 118.16 13.9067C118.275 13.9464 118.367 14.0168 118.435 14.1179C118.504 14.219 118.538 14.3263 118.538 14.4401C118.538 14.6007 118.481 14.7406 118.365 14.8598C118.252 14.9789 118.1 15.0457 117.911 15.0602C117.989 15.0926 118.051 15.1314 118.098 15.1766C118.186 15.2632 118.294 15.4085 118.422 15.6125L118.689 16.043H118.257L118.063 15.6965C117.91 15.4238 117.787 15.2533 117.693 15.1847C117.628 15.1341 117.533 15.1088 117.41 15.1088H117.201V16.043H116.848ZM117.201 14.8056H117.63C117.836 14.8056 117.976 14.7749 118.049 14.7136C118.125 14.6522 118.162 14.5709 118.162 14.4699C118.162 14.4049 118.145 14.3471 118.109 14.2966C118.073 14.2443 118.022 14.2055 117.957 14.1802C117.894 14.1549 117.777 14.1422 117.604 14.1422H117.201V14.8056Z" fill="white"/>
<path fill-rule="evenodd" clip-rule="evenodd" d="M6.0119 12.7128C6.01158 12.2228 6.13888 11.7337 6.38905 11.2965L6.38988 11.2952L10.2945 4.51336C11.1904 2.95807 12.8453 2 14.6371 2L23.4601 2.00297C23.8505 2.00297 24.159 2.35162 24.0932 2.7551C24.0421 3.07154 23.7457 3.29054 23.4259 3.29037L14.6368 3.28773C13.3038 3.28773 12.0729 4.00021 11.4063 5.15714L7.50189 11.9391L7.50289 11.9376C7.36487 12.1784 7.29603 12.4458 7.2957 12.7128C7.29603 12.979 7.36355 13.2445 7.49992 13.483L7.49861 13.4812L11.1521 19.8264C11.1965 19.9037 11.141 20.0001 11.052 20.0001H10.0341C9.86888 20.0001 9.71621 19.9118 9.63368 19.7682L6.38675 14.1248L6.38576 14.1229C6.13642 13.6862 6.01158 13.1991 6.0119 12.7128ZM7.09979 21.9359L7.10061 21.9372C7.35325 22.3732 7.71179 22.7283 8.13522 22.9729C8.55468 23.2163 9.03791 23.3516 9.53973 23.3536L9.54222 23.3534L16.0393 23.3552C16.2043 23.3552 16.3569 23.267 16.4395 23.1235L16.9485 22.2396C16.993 22.1625 16.9373 22.0658 16.8486 22.0658H9.54206L9.54432 22.0657C9.27 22.0649 9.00726 21.991 8.77689 21.8581C8.54667 21.7243 8.34997 21.531 8.21113 21.2905L8.21168 21.2921L4.30723 14.5104C3.64137 13.353 3.64137 11.9275 4.30788 10.77L8.7051 3.13838C8.86501 2.86091 8.82379 2.49394 8.57614 2.29112C8.26052 2.03249 7.80537 2.1258 7.61018 2.46487L3.19603 10.126C2.30009 11.6821 2.30009 13.5983 3.1952 15.1541L7.09979 21.9359ZM25.8605 19.2872C25.8608 19.7771 25.7333 20.2663 25.4832 20.7033L25.4823 20.7048L21.5778 27.4866C20.6818 29.0419 19.027 30 17.2353 30L8.41211 29.9972C8.02174 29.9972 7.71344 29.6484 7.779 29.2451C7.83018 28.9285 8.12651 28.7094 8.44618 28.7096L17.2356 28.7124C18.5683 28.7122 19.7994 27.9996 20.4659 26.8429L24.3705 20.061L24.3695 20.0624C24.5073 19.8216 24.5764 19.554 24.5767 19.2872C24.5764 19.0208 24.5086 18.7555 24.3723 18.5169L20.7202 12.1736C20.6758 12.0963 20.7314 11.9997 20.8202 11.9997L21.8383 11.9999C22.0034 11.9999 22.1562 12.0882 22.2386 12.2316L25.4853 17.875L25.4866 17.8771C25.736 18.3136 25.8608 18.801 25.8605 19.2872ZM16.6479 26.6429L16.6461 26.6427H8.83709C7.04603 26.6422 5.39117 25.6841 4.49523 24.1279L0.0861877 16.4641C-0.102223 16.1369 0.0282153 15.7134 0.380497 15.5541C0.6865 15.4157 1.04867 15.5604 1.21649 15.8522L5.60741 23.4844C6.27377 24.642 7.50486 25.3548 8.83709 25.3551H16.6461L16.6446 25.355C16.9213 25.3543 17.1871 25.2805 17.4175 25.1474C17.6474 25.0139 17.8426 24.8223 17.9806 24.5847L17.9795 24.5868L21.6327 18.2415C21.6772 18.164 21.7884 18.164 21.8329 18.2415L22.3417 19.1252C22.4242 19.269 22.4242 19.4457 22.3417 19.589L19.0914 25.2304L19.0903 25.2326C18.8378 25.6675 18.4795 26.0194 18.0593 26.2622C17.6364 26.5074 17.1506 26.6414 16.6479 26.6429ZM31.7861 15.5373L27.3772 7.87347C26.4811 6.31719 24.8262 5.35895 23.0351 5.35862H15.2245C14.7217 5.35994 14.2359 5.49388 13.8129 5.73914C13.3928 5.98176 13.0344 6.33387 12.7817 6.76857L12.7808 6.77088L9.53055 12.4123C9.44787 12.5557 9.44787 12.7325 9.53055 12.8759L10.0395 13.7598C10.0839 13.8371 10.1951 13.8371 10.2395 13.7598L13.8928 7.41449L13.8918 7.41664C14.0297 7.17898 14.2248 6.9874 14.4547 6.85395C14.6853 6.72083 14.9508 6.64701 15.2276 6.64635L15.226 6.64618H23.035C24.3674 6.64652 25.5985 7.35917 26.2648 8.51692L30.6557 16.1493C30.8234 16.441 31.1857 16.5855 31.4919 16.4471C31.8442 16.2879 31.9744 15.8644 31.7861 15.5373ZM24.7712 10.0591L24.7718 10.0606L28.6766 16.8424C29.5719 18.3982 29.5717 20.3144 28.6757 21.8705L24.2618 29.5315C24.0665 29.8705 23.6112 29.964 23.2955 29.7054C23.048 29.5024 23.0068 29.1356 23.1667 28.8579L27.5639 21.2265C28.2303 20.0688 28.2305 18.6433 27.5646 17.4861L23.6609 10.7059C23.5216 10.4659 23.3252 10.272 23.095 10.1384C22.8647 10.0054 22.6018 9.9316 22.3275 9.93059H15.0234C14.9343 9.93059 14.8788 9.83399 14.9233 9.75687L15.4322 8.87295C15.5148 8.72943 15.6675 8.64108 15.8327 8.64108L22.3298 8.64289H22.332C22.8339 8.64487 23.3169 8.77997 23.7368 9.02358C24.16 9.26817 24.5188 9.62326 24.7712 10.0591Z" fill="white"/>
<path fill-rule="evenodd" clip-rule="evenodd" d="M60.6602 24.0933H61.9206C62.2363 24.0933 62.4857 24.3802 62.4267 24.7098C62.3818 24.9606 62.1479 25.1324 61.8954 25.1324H57.7893L56.2456 25.1323C55.9077 25.1323 55.6455 24.8037 55.7565 24.4459C55.8231 24.231 56.0326 24.0933 56.2559 24.0933L57.5071 24.0935C57.6629 24.0935 57.7894 23.9659 57.7894 23.8087V7.79813C57.7894 7.6408 57.6629 7.51339 57.5071 7.51339L56.2474 7.51355L56.2466 7.51369C55.9309 7.51369 55.6815 7.22685 55.7405 6.89728C55.7854 6.64639 56.0193 6.47461 56.272 6.47461L59.8119 6.47491C60.1236 6.47506 60.3761 6.72987 60.3761 7.04439L60.3789 23.8087C60.3789 23.9659 60.5044 24.0933 60.6602 24.0933ZM41.1894 6.47462L49.4636 6.47476C52.0997 6.47476 54.8199 8.25918 54.8199 11.749C54.8199 15.2387 52.0997 17.0496 49.4636 17.0496H48.8925L46.6977 17.0497C46.4156 17.047 46.1878 16.8152 46.1878 16.5301C46.1878 16.2431 46.4183 16.0105 46.7026 16.0105C46.8057 16.0079 48.7891 16.0023 48.8925 16.0023C51.3076 16.0023 52.1018 14.1429 52.1018 11.6536C52.1018 9.30518 51.0232 7.51325 48.8925 7.51325H45.5721C45.4162 7.51325 45.2898 7.64081 45.2898 7.79814V23.8086C45.2898 23.9659 45.4162 24.0933 45.5721 24.0933H46.8332C47.1525 24.0933 47.4042 24.387 47.3373 24.7212C47.2887 24.9643 47.0654 25.1324 46.8197 25.1324L41.1609 25.1321L41.1595 25.1324C40.8401 25.1324 40.5884 24.839 40.6554 24.5046C40.7042 24.2615 40.9272 24.0933 41.173 24.0933H42.4207C42.5765 24.0933 42.7029 23.9658 42.7029 23.8086V7.79814C42.7029 7.64081 42.5765 7.5134 42.4207 7.5134L41.1609 7.51355C40.8674 7.51355 40.6305 7.26566 40.646 6.96618C40.6606 6.6852 40.9104 6.47462 41.1894 6.47462ZM71.6039 22.8137L71.5923 22.8206C71.8555 22.6738 72.0992 22.7071 72.2741 22.9452C72.4575 23.195 72.4042 23.5109 72.122 23.706C72.122 23.706 71.2856 24.2664 70.4081 24.7914C69.5305 25.3162 68.1826 25.6968 67.0957 25.2718L67.0917 25.2702L67.0908 25.2761C65.4161 24.7666 65.0811 23.5825 65.0811 21.2067L65.0808 14.295C65.0808 14.1378 64.9544 14.0104 64.7986 14.0104H63.5372C63.2436 14.0104 63.0077 13.7631 63.023 13.4638C63.0373 13.1826 63.2873 12.9717 63.5663 12.9717H67.1023C67.4143 12.9717 67.6673 13.2274 67.6667 13.5422L67.6722 21.8074C67.6722 23.2275 68.3904 24.0414 69.6646 23.6712C70.1826 23.5206 70.9673 23.1594 71.6039 22.8137ZM76.6192 24.0932H76.1499C75.9941 24.0932 75.8678 23.9658 75.8678 23.8084V13.5412C75.8678 13.2267 75.6151 12.9717 75.3034 12.9717H71.7662C71.4874 12.9717 71.2374 13.1826 71.2231 13.4638C71.2077 13.7631 71.4437 14.0104 71.7373 14.0104H72.9987C73.1544 14.0104 73.2809 14.1378 73.2809 14.295V24.5628C73.2809 24.8773 73.5336 25.1323 73.8453 25.1323H75.2425L76.6483 25.1324C76.9417 25.1321 77.1774 24.8838 77.1618 24.5844C77.1474 24.3038 76.8977 24.0932 76.6192 24.0932ZM109.816 17.0492L105.617 17.0494C105.364 17.0494 105.13 17.2214 105.086 17.4723C105.027 17.8017 105.275 18.0883 105.591 18.0883L112.127 18.0877C112.439 18.0877 112.692 17.8337 112.692 17.5192V17.2087L112.691 16.9933C112.687 14.2489 110.216 12.6746 107.452 12.6746C104.687 12.6746 101.59 15.0314 101.59 18.9355C101.59 19.1262 101.596 19.3946 101.607 19.5776C101.879 23.9805 106.549 26.4172 110.493 24.5122C111.022 24.2566 111.801 23.844 112.26 23.5494C112.465 23.418 112.633 23.123 112.434 22.8171C112.235 22.5109 111.943 22.5514 111.684 22.6916C110.767 23.1881 109.437 23.5594 108.519 23.5594C105.677 23.5594 104.177 21.7272 104.177 18.614L104.184 17.5878C104.4 15.3209 105.755 13.713 107.454 13.713C109.073 13.713 110.025 14.8061 110.098 16.7527C110.105 16.9142 109.976 17.0492 109.816 17.0492ZM83.0467 24.0935H84.2794C84.5579 24.0935 84.8075 24.304 84.8223 24.5847C84.8379 24.8842 84.6014 25.132 84.3082 25.132L79.4067 25.1327L79.4043 25.1313C79.1204 25.1312 78.8902 24.8986 78.8902 24.6119C78.8902 24.3251 79.1204 24.0924 79.4051 24.0924C79.4067 24.0924 79.4082 24.0927 79.4098 24.0929C79.4113 24.0932 79.4129 24.0935 79.4144 24.0935H79.8959C80.0514 24.0935 80.1774 23.9659 80.1774 23.8087V14.2955C80.1774 14.1383 80.0514 14.0108 79.8959 14.0108H79.4067L79.1508 13.8816C78.9937 13.8023 78.8832 13.6403 78.8926 13.463C78.9073 13.1897 79.1313 12.9726 79.4059 12.9723L82.2004 12.9721C82.5123 12.9721 82.7643 13.227 82.7643 13.5415V23.8087C82.7643 23.9659 82.8911 24.0935 83.0467 24.0935ZM91.7406 24.0925C91.7375 24.0925 91.7344 24.0935 91.7313 24.0935H91.2522C91.0959 24.0935 90.9699 23.966 90.9699 23.8088V16.9302L90.9683 16.9227C90.9683 14.5467 90.5467 13.474 88.9593 12.8533C87.872 12.4284 86.5241 12.8089 85.6468 13.3339C84.7694 13.8586 83.9325 14.4191 83.9325 14.4191C83.6502 14.6142 83.5973 14.9301 83.7809 15.1799C83.9551 15.4181 84.1993 15.4513 84.4622 15.3045L84.4505 15.3114C85.0875 14.9657 85.8723 14.6044 86.3903 14.454C87.6643 14.0837 88.3822 14.8976 88.3822 16.3177L88.383 16.7032L88.3822 23.9037C88.3822 24.0085 88.2982 24.0935 88.194 24.0935H87.6184C87.6153 24.0935 87.6122 24.0925 87.6091 24.0925C87.3244 24.0925 87.0942 24.3252 87.0942 24.612C87.0942 24.8987 87.3244 25.1313 87.6083 25.1314L87.6114 25.1328H88.383L90.9699 25.1327L91.7414 25.1328C91.8472 25.1328 91.946 25.099 92.0276 25.0434C92.0292 25.0424 92.0307 25.041 92.0323 25.0398C92.0331 25.0386 92.0346 25.0375 92.0362 25.0365C92.0595 25.0198 92.0821 25.0016 92.1023 24.9813L92.1054 24.9779C92.1093 24.974 92.1124 24.9698 92.1155 24.966C92.1334 24.9472 92.1497 24.9278 92.1645 24.9064C92.1653 24.9047 92.1669 24.903 92.1676 24.9013C92.1692 24.8992 92.17 24.8971 92.1715 24.895L92.1723 24.8932C92.1739 24.8897 92.1762 24.8863 92.1785 24.8829C92.1902 24.8628 92.2019 24.8425 92.212 24.8207C92.2143 24.8153 92.2159 24.8098 92.2174 24.8042L92.219 24.8016C92.2197 24.7975 92.2213 24.7934 92.2229 24.7894C92.2299 24.7688 92.2376 24.748 92.2423 24.7262C92.2439 24.7171 92.2454 24.7076 92.247 24.6981L92.2477 24.6877C92.2485 24.6822 92.2501 24.6768 92.2509 24.6714C92.2524 24.6615 92.2547 24.6517 92.2547 24.6414C92.2547 24.6379 92.254 24.634 92.254 24.6305C92.254 24.6276 92.254 24.6246 92.2547 24.6217C92.2547 24.6185 92.2555 24.6154 92.2555 24.612C92.2555 24.3252 92.0253 24.0925 91.7406 24.0925ZM99.9228 24.0935C99.9259 24.0935 99.9291 24.0925 99.9322 24.0925C100.194 24.0925 100.407 24.2903 100.44 24.5453C100.446 24.5767 100.45 24.6086 100.448 24.6414C100.433 24.9146 100.209 25.1317 99.9345 25.132L99.1629 25.1328L96.5761 25.1327L95.8045 25.1328L95.8014 25.1313C95.5331 25.1301 95.3161 24.9217 95.2935 24.6569C95.2927 24.6522 95.292 24.6474 95.292 24.6427C95.2912 24.6382 95.2912 24.6334 95.2904 24.6291C95.2896 24.6234 95.2888 24.6178 95.2888 24.612C95.2888 24.6091 95.2888 24.6061 95.2896 24.6032C95.2896 24.6007 95.2904 24.5981 95.2904 24.5955C95.2904 24.5935 95.2904 24.5916 95.2904 24.5896C95.2904 24.5881 95.2904 24.5865 95.2904 24.5849C95.2904 24.5782 95.292 24.5718 95.2935 24.5652C95.2935 24.563 95.2935 24.5608 95.2943 24.5585C95.2966 24.5355 95.299 24.5128 95.3044 24.4907C95.3052 24.4856 95.3067 24.4809 95.3091 24.4761C95.3098 24.4735 95.3106 24.4708 95.3114 24.4681C95.3184 24.4428 95.3262 24.4182 95.3371 24.3947C95.3386 24.3917 95.341 24.3889 95.3417 24.386C95.4257 24.2129 95.6 24.0925 95.8037 24.0925C95.8053 24.0925 95.8068 24.0928 95.8084 24.093C95.81 24.0933 95.8115 24.0935 95.8131 24.0935H96.293C96.4493 24.0935 96.5753 23.9661 96.5753 23.8088L96.5761 16.7032L96.5753 16.3177C96.5753 14.8976 95.8574 14.0837 94.5834 14.454C94.0654 14.6044 93.2806 14.9657 92.6436 15.3114L92.6561 15.3045C92.3924 15.4513 92.149 15.4181 91.974 15.1799C91.7904 14.9301 91.8433 14.6142 92.1256 14.4191C92.1256 14.4191 92.9625 13.8586 93.8398 13.3339C94.7172 12.8089 96.0651 12.4284 97.1524 12.8533C98.7398 13.474 99.1622 14.5467 99.1622 16.9227L99.1629 16.9302V23.8088C99.1629 23.966 99.2889 24.0935 99.4453 24.0935H99.9228Z" fill="white"/>
</svg>
