<svg width="123" height="32" viewBox="0 0 123 32" fill="none" xmlns="http://www.w3.org/2000/svg">
<g clip-path="url(#clip0_753_1560)">
<path d="M19.6487 4L12.1529 8.30495V21.7409L8.01714 24.1384L3.85607 21.739V16.9421L8.01714 14.566L10.6927 16.1176V12.2366L7.9938 10.7044L0.5 15.0579V23.6698L8.01908 28L15.5129 23.6698V10.2358L19.6739 7.83634L23.8331 10.2358V15.0113L19.6739 17.4321L16.9751 15.8668V19.7284L19.6487 21.2704L27.2164 16.9654V8.30495L19.6487 4Z" fill="white"/>
<path fill-rule="evenodd" clip-rule="evenodd" d="M63.6269 22.6529H66.9869V4.23535H63.6269V22.6529ZM42.0263 9.56112C43.6188 9.56112 44.9391 10.2008 45.9832 11.4783C47.0293 12.7558 47.5504 14.3405 47.5504 16.2325C47.5504 18.1244 47.0274 19.7091 45.9832 20.9866C44.9371 22.264 43.6188 22.9038 42.0263 22.9038C40.8986 22.9038 39.9186 22.5557 39.0903 21.8577C38.2775 21.1441 37.6806 20.1816 37.2975 18.9702V27.6307H33.9375V9.81001H37.2975V13.4927C37.6786 12.2814 38.2775 11.3267 39.0903 10.6306C39.9205 9.91695 40.8986 9.56112 42.0263 9.56112ZM40.8052 19.8413C41.7172 19.8413 42.4891 19.501 43.1191 18.8205C43.7491 18.1244 44.0641 17.2611 44.0641 16.2325C44.0641 15.2039 43.7491 14.3736 43.1191 13.693C42.4891 12.9969 41.7172 12.6469 40.8052 12.6469C39.7922 12.6469 38.9561 12.9872 38.2911 13.6677C37.6281 14.3483 37.2956 15.2019 37.2956 16.2305C37.2956 17.2591 37.6281 18.1224 38.2911 18.8185C38.9542 19.4991 39.7922 19.8394 40.8052 19.8394V19.8413ZM48.4429 16.2325C48.4429 18.1244 49.0982 19.7091 50.4087 20.9866C51.7193 22.264 53.3545 22.9038 55.3126 22.9038C57.2706 22.9038 58.9059 22.264 60.2164 20.9866C61.5269 19.7091 62.1822 18.1244 62.1822 16.2325C62.1822 14.3405 61.5269 12.7558 60.2164 11.4783C58.9059 10.2008 57.2706 9.56112 55.3126 9.56112C53.3545 9.56112 51.7193 10.2008 50.4087 11.4783C49.0982 12.7558 48.4429 14.3405 48.4429 16.2325ZM52.8976 18.8205C52.2501 18.1244 51.9273 17.2611 51.9273 16.2325C51.9273 15.2039 52.2501 14.3736 52.8976 13.693C53.5451 12.9969 54.3501 12.6469 55.3126 12.6469C56.2751 12.6469 57.0801 12.9872 57.7275 13.6677C58.375 14.3483 58.6978 15.2019 58.6978 16.2305C58.6978 17.2591 58.375 18.1224 57.7275 18.8185C57.0801 19.4991 56.2751 19.8394 55.3126 19.8394C54.3501 19.8394 53.5451 19.4991 52.8976 18.8185V18.8205ZM98.0276 20.9866C96.7171 19.7091 96.0618 18.1244 96.0618 16.2325C96.0618 14.3405 96.7171 12.7558 98.0276 11.4783C99.3382 10.2008 100.973 9.56112 102.931 9.56112C104.889 9.56112 106.524 10.2008 107.835 11.4783C109.146 12.7558 109.801 14.3405 109.801 16.2325C109.801 18.1244 109.146 19.7091 107.835 20.9866C106.524 22.264 104.889 22.9038 102.931 22.9038C100.973 22.9038 99.3401 22.264 98.0276 20.9866ZM99.5443 16.2325C99.5443 17.2611 99.8671 18.1244 100.514 18.8205C101.162 19.501 101.967 19.8413 102.929 19.8413C103.892 19.8413 104.697 19.501 105.344 18.8205C105.992 18.1244 106.314 17.2611 106.314 16.2325C106.314 15.2039 105.992 14.3483 105.344 13.6697C104.697 12.9891 103.892 12.6489 102.929 12.6489C101.967 12.6489 101.162 12.9969 100.514 13.695C99.8671 14.3755 99.5443 15.2214 99.5443 16.2344V16.2325ZM118.743 9.56112C120.17 9.56112 121.316 10.0589 122.177 11.0544C123.056 12.05 123.495 13.3197 123.495 14.8616V22.651H120.135V15.4586C120.135 14.6283 119.871 13.9477 119.338 13.4169C118.807 12.8861 118.144 12.6197 117.347 12.6197C116.451 12.6197 115.722 12.8861 115.158 13.4169C114.594 13.9477 114.312 14.6283 114.312 15.4586V22.651H110.952V9.81001H114.312V13.0961C114.644 12.0014 115.2 11.1381 115.98 10.5081C116.777 9.87806 117.697 9.56306 118.743 9.56306V9.56112ZM75.0582 19.2288L78.492 9.82167H81.9025L74.8346 27.6423H71.4241L73.2168 23.1118L67.9649 9.82167H71.5991L75.0582 19.2288ZM91.4574 9.81001V13.028C90.7574 10.9281 89.0289 9.81001 86.7286 9.81001C83.2559 9.81001 81.2026 12.8433 81.2026 16.0322C81.2026 19.221 83.2403 22.5032 86.7286 22.5032C89.0289 22.5032 90.7574 20.8446 91.4574 18.7446V21.2082C91.4574 22.2543 91.1172 23.1157 90.4366 23.7963C89.7561 24.4768 88.9277 24.8171 87.9478 24.8171C86.6197 24.8171 85.6339 24.154 84.9864 22.826L81.9745 24.4185C82.5384 25.4646 83.3434 26.3007 84.3895 26.9326C85.4356 27.5626 86.6217 27.8776 87.9478 27.8776C89.9058 27.8776 91.541 27.2398 92.8516 25.9604C94.1621 24.6829 94.8174 23.0982 94.8174 21.2063V9.81001H91.4574ZM90.4872 18.4724C89.8397 19.1199 89.0269 19.4427 88.0489 19.4427C87.0708 19.4427 86.3067 19.1199 85.6592 18.4724C85.0117 17.8094 84.6889 16.9966 84.6889 16.0341C84.6889 15.0716 85.0117 14.2666 85.6592 13.6191C86.3067 12.9716 87.1019 12.6489 88.0489 12.6489C88.9958 12.6489 89.8416 12.9716 90.4872 13.6191C91.1347 14.2491 91.4574 15.0541 91.4574 16.0341C91.4574 17.0141 91.1347 17.8269 90.4872 18.4724Z" fill="white"/>
</g>
<defs>
<clipPath id="clip0_753_1560">
<rect width="123" height="32" fill="white"/>
</clipPath>
</defs>
</svg>
