<svg width="128" height="32" viewBox="0 0 128 32" fill="none" xmlns="http://www.w3.org/2000/svg">
<g clip-path="url(#clip0_449_968)">
<path d="M56.7716 5.72211L56.1128 5.771C55.868 5.77682 55.5186 5.81941 55.3423 5.65077L55.3669 5.53733C55.645 5.37766 56.3264 5.4571 56.6604 5.45743C56.6566 5.55272 56.68 5.62121 56.7419 5.69367L56.7716 5.72211Z" fill="white"/>
<path d="M77.5643 5.75959C77.2669 5.78189 76.3739 5.86588 76.1507 5.70461L76.1334 5.55558C76.3864 5.3668 77.2283 5.4628 77.5633 5.4655L77.4269 5.68033C77.4599 5.69694 77.5498 5.72932 77.5643 5.75959Z" fill="white"/>
<path d="M63.4299 5.72184C63.1965 5.82053 62.5098 5.80862 62.265 5.73151L62.1969 5.58726C62.3861 5.39323 63.2666 5.36811 63.6141 5.24841L63.5158 5.46027L63.5468 5.52377L63.4299 5.72184Z" fill="white"/>
<path d="M38.232 17.4009L38.3729 17.3036L38.6292 17.4841L38.5154 18.8611C38.4913 18.9941 38.4803 18.9975 38.3729 19.0712C38.1819 18.8175 38.2505 17.7794 38.232 17.4009Z" fill="white"/>
<path d="M49.2184 10.8966C49.2984 11.1838 49.4017 11.4182 49.5531 11.6749L49.3873 11.7227L49.3593 11.8969C49.4396 11.996 49.5371 12.0975 49.5843 12.217C49.2372 12.0865 48.9438 11.8413 48.6482 11.6228L48.8128 11.5451C48.9245 11.3868 48.9136 11.3269 48.9159 11.1429L49.2184 10.8966Z" fill="white"/>
<path d="M65.1818 5.4469L66.7414 5.46699C66.9657 5.4712 67.2085 5.44248 67.4099 5.55557L67.3987 5.69279C67.0581 5.85838 66.0435 5.82016 65.6539 5.76718C65.5089 5.63618 65.4899 5.63745 65.2935 5.6197L65.3568 5.54915L65.1818 5.4469Z" fill="white"/>
<path d="M126.464 25.8223L126.77 26.0638L126.818 26.0054L126.974 26.0879C126.724 26.6482 126.336 27.1096 125.754 27.3397C125.6 27.4004 125.429 27.424 125.267 27.4499L125.213 27.4568C125.506 27.2488 125.916 27.18 126.107 26.8671L126.065 26.7437C126.287 26.4435 126.382 26.189 126.464 25.8223Z" fill="white"/>
<path d="M49.642 20.591C49.8477 20.4169 50.154 20.2625 50.413 20.1835C51.1897 19.9466 51.8914 20.1183 52.5873 20.4888C52.4798 20.689 52.4026 20.7953 52.1967 20.899C52.0372 20.7227 51.8759 20.5136 51.6427 20.4393C51.3255 20.3383 50.828 20.336 50.5266 20.4887C50.3142 20.5961 50.1321 20.8107 49.9808 20.9911C49.9744 20.9266 49.9754 20.8852 50.0011 20.8248L50.008 20.8096C49.9338 20.6812 49.7768 20.6487 49.642 20.591Z" fill="white"/>
<path d="M57.0863 20.7763C57.3448 20.592 57.6151 20.4466 57.9076 20.3227C58.7904 19.9488 59.7804 20.027 60.6518 20.3811L60.4387 20.5327C60.428 20.7089 60.5365 20.611 60.3782 20.7897C60.1258 20.5022 59.7931 20.4125 59.42 20.3866C58.7854 20.3424 58.2439 20.4123 57.7517 20.8436L57.6179 20.9783L57.0863 20.7763Z" fill="white"/>
<path d="M95.5155 20.5191C96.4242 20.0498 97.4276 19.9399 98.4095 20.2514C98.6739 20.3354 98.9883 20.4835 99.2085 20.6534C99.0624 20.771 98.924 20.8864 98.8039 21.0315C98.4773 20.6832 98.2408 20.4549 97.738 20.398C97.0342 20.3184 96.4402 20.3812 95.8792 20.8307C95.7316 20.7598 95.6267 20.6358 95.5155 20.5191Z" fill="white"/>
<path d="M69.9909 11.1969C70.1017 11.5681 70.3742 11.8514 70.7114 12.0329C71.1612 12.2751 71.9338 12.287 72.4189 12.1381C72.6568 12.0651 72.89 11.9401 73.0652 11.7615L73.1031 11.9366L73.2295 11.9683C73.1391 12.0686 73.0271 12.172 72.974 12.2974C72.8415 12.4096 72.4486 12.4637 72.2713 12.4923C71.1897 12.6665 70.2451 12.297 69.3839 11.676C69.53 11.6191 69.6432 11.5514 69.7697 11.461C69.8086 11.3623 69.9168 11.2733 69.9909 11.1969Z" fill="white"/>
<path d="M104.057 24.3677C104.332 24.6492 104.713 24.8141 105.109 24.8216C105.487 24.8287 105.878 24.6902 106.145 24.425L106.174 24.3959C106.203 24.587 106.189 24.7331 106.174 24.9232C105.751 25.0207 105.336 25.11 104.899 25.0821C104.488 25.0558 104.164 24.8733 103.781 24.8015C103.44 24.7375 102.63 25.0476 102.457 25.3259C102.311 25.5619 102.236 25.7862 102.305 26.0633C102.324 26.1407 102.362 26.2131 102.405 26.2796C102.267 26.3975 102.185 26.4427 102.001 26.4673C101.999 26.142 101.975 25.7501 102.109 25.4487C102.44 24.7015 102.871 24.8164 103.537 24.5594C103.587 24.6122 103.676 24.6511 103.738 24.6884C103.878 24.6575 103.882 24.4685 104.057 24.3677Z" fill="white"/>
<path d="M116.662 26.4741C116.902 26.7911 117.207 27.11 117.623 27.1669C118.429 27.2777 119.116 27.1197 119.77 26.6156C120.105 26.358 120.311 26.0149 120.489 25.6398C120.601 25.4044 120.664 25.0141 120.881 24.8746L120.993 24.8937C121.074 25.1881 120.735 25.8468 120.59 26.1028C120.262 26.6831 119.67 27.1872 119.025 27.362C118.209 27.5832 117.191 27.5367 116.441 27.1078C116.412 26.9861 116.39 26.897 116.437 26.7773C116.461 26.7184 116.477 26.7225 116.532 26.6989L116.473 26.6407L116.662 26.4741Z" fill="white"/>
<path d="M122.585 21.4564C122.819 20.8733 123.101 20.482 123.689 20.2295C124.225 19.9992 124.944 20.0447 125.481 20.2597C125.713 20.3527 126.086 20.6446 126.309 20.594C126.353 20.4316 126.383 20.2731 126.5 20.1456L126.617 20.1694C126.686 20.4676 126.618 20.806 126.618 21.1112C126.617 21.49 126.658 21.8749 126.675 22.254L126.595 22.3318C126.426 22.1684 126.41 21.9292 126.339 21.7152C126.033 20.7912 125.386 20.3577 124.422 20.374C124.037 20.3805 123.667 20.4737 123.389 20.7568C123.201 20.9481 123.064 21.1999 122.994 21.458L122.95 21.4248C122.827 21.4877 122.717 21.4708 122.585 21.4564Z" fill="white"/>
<path d="M125.213 27.4568C125.191 27.4702 125.176 27.4794 125.151 27.4845C124.275 27.6549 123.452 27.1573 122.765 26.6959C122.709 26.9763 122.707 27.3064 122.468 27.4781L122.392 27.3968C122.319 26.5077 122.236 25.4784 122.397 24.6003C122.741 25.1471 122.7 25.8103 123.103 26.3406C123.434 26.7777 123.937 27.1144 124.485 27.1886C125.111 27.2737 125.575 27.1162 126.065 26.7436L126.107 26.8671C125.916 27.1799 125.506 27.2488 125.213 27.4568Z" fill="white"/>
<path d="M111.808 16.2222C111.988 16.1947 112.119 16.2013 112.29 16.2727C112.526 16.3721 112.721 16.5377 112.818 16.7809C112.91 17.0116 112.894 17.22 112.793 17.4431C112.662 17.7349 112.438 17.8603 112.151 17.9696C111.997 18.0041 111.806 18.0036 111.662 17.9304C111.423 17.8084 111.22 17.6191 111.136 17.3599C111.058 17.1195 111.072 16.9684 111.189 16.7409C111.328 16.4743 111.525 16.3142 111.808 16.2222Z" fill="white"/>
<path d="M60.6518 20.3811C61.0104 20.5697 61.3718 20.7883 61.498 21.1973C61.5945 21.5094 61.5993 21.8673 61.4419 22.1612C61.3616 22.3111 61.1234 22.442 60.9641 22.4853C60.7323 22.5483 60.4946 22.5207 60.2881 22.3972C60.1194 22.2964 60.0161 22.1535 59.9688 21.9635C59.9147 21.7461 59.9485 21.461 60.0643 21.268L60.3782 20.7897C60.5365 20.611 60.428 20.709 60.4387 20.5327L60.6518 20.3811Z" fill="white"/>
<path d="M38.232 17.4008L38.1832 15.5409L42.2584 15.5299L42.2246 15.8024C41.3238 15.8381 39.788 15.7665 39.1219 16.4914C38.86 16.7763 38.7236 17.1147 38.6292 17.484L38.3729 17.3035L38.232 17.4008Z" fill="white"/>
<path d="M44.4318 15.535L48.4478 15.4794C48.4341 15.9999 48.475 18.8161 48.3412 19.0461L48.2142 19.0423C48.1133 18.7879 48.11 18.487 48.0798 18.2169C47.9785 17.3128 47.8472 16.5306 46.9172 16.1236C46.267 15.8392 45.5188 15.822 44.8189 15.8235L44.4318 15.535Z" fill="white"/>
<path d="M122.585 21.4563C122.717 21.4707 122.827 21.4876 122.95 21.4247L122.994 21.4579C123 21.7486 122.992 22.214 123.22 22.4357C123.466 22.6749 123.91 22.7752 124.239 22.8163C125.487 22.9722 126.482 22.8785 127.167 24.1331V25.6693L126.974 26.0878L126.818 26.0053L126.77 26.0637L126.464 25.8222C126.469 25.5563 126.449 25.2504 126.327 25.0095C125.898 24.1601 124.341 24.3347 123.531 24.0712C123.141 23.9444 122.835 23.7029 122.651 23.3348C122.387 22.803 122.401 22.0124 122.585 21.4563Z" fill="white"/>
<path d="M102.405 26.2797C102.766 26.5542 103.314 26.4778 103.745 26.4795L106.085 26.4826C106.628 26.4833 107.254 26.4315 107.764 26.6423C108.143 26.7988 108.355 27.0517 108.586 27.3758C108.574 27.5165 108.584 27.7253 108.5 27.8418C108.366 27.8982 108.289 27.9355 108.215 28.0635L108.195 28.0544C108.16 28.0402 108.125 28.0366 108.088 28.0318L108.071 28.1113L107.928 27.9688L107.605 27.9726C106.886 27.7903 106.077 27.8494 105.34 27.8527C104.723 27.8555 103.878 27.7529 103.333 28.077L103.131 28.2078L103.113 27.9419L103.135 27.8497C102.859 27.7377 102.626 27.7156 102.384 27.5124C102.087 27.2625 102.035 26.8275 102.001 26.4673C102.185 26.4427 102.267 26.3975 102.405 26.2797Z" fill="white"/>
<path d="M57.0863 20.7762L57.6179 20.9783C57.1178 21.7828 57.1767 22.8116 57.1653 23.723C57.1569 24.382 57.1315 25.0635 57.2458 25.715C57.3263 26.1747 57.4627 26.6153 57.8627 26.8924C58.3854 27.2543 59.0005 27.2612 59.608 27.1504C60.4654 26.994 61.0954 26.3743 61.4243 25.586C61.518 25.3616 61.5379 25.133 61.6824 24.9293C61.7169 24.8803 61.7758 24.8856 61.8332 24.8762L61.8871 25.0158C61.7494 25.7198 61.498 26.2951 60.9669 26.802C60.4257 27.3186 59.6161 27.5192 58.888 27.4969C57.928 27.4676 56.9865 27.0753 56.3333 26.369C55.6455 25.6256 55.5135 24.6655 55.5556 23.6922C55.609 22.4617 56.2086 21.5824 57.0863 20.7762Z" fill="white"/>
<path d="M112.589 20.1587L112.69 20.1934C112.807 20.8682 112.706 21.7278 112.708 22.4261C112.71 23.927 112.811 25.5014 112.681 26.994C113.032 26.9915 113.653 26.9099 113.967 27.04L113.999 27.1568L113.865 27.2888L109.996 27.2698C109.91 27.2015 109.904 27.1878 109.885 27.0793C110.19 26.9074 110.907 26.9925 111.269 26.9922L111.237 20.746C110.945 20.7538 110.24 20.8491 110.001 20.7218C109.941 20.6893 109.935 20.6038 109.915 20.5396C110.162 20.3877 110.619 20.455 110.918 20.4508C111.507 20.4423 112.054 20.4237 112.589 20.1587Z" fill="white"/>
<path d="M63.6141 5.24846C63.9633 5.02278 64.2449 4.78608 64.4582 4.41928C64.6584 4.07497 64.776 3.24556 65.0713 3.05994C65.3339 3.48137 64.8953 5.06786 65.1818 5.44688L65.3568 5.54913L65.2936 5.61968C65.4899 5.63744 65.5089 5.63617 65.6539 5.76716L65.1983 5.76345L65.1211 5.84127L65.1292 9.72142C65.1318 10.3358 64.9979 11.4365 65.2748 11.9776C65.3215 12.0687 65.4282 12.1434 65.5247 12.1743C66.1017 12.3585 66.5814 12.1333 66.9149 11.6576C67.0525 11.461 67.1666 11.2266 67.3888 11.1151L67.4675 11.2063C67.4546 11.2924 67.433 11.3816 67.3949 11.4603C67.2105 11.8425 66.7887 12.2878 66.3785 12.4225C65.8216 12.6052 64.9156 12.5803 64.3963 12.3106C64.1954 12.2062 63.994 12.0945 63.8843 11.889C63.5574 11.276 63.676 10.2883 63.6768 9.60432L63.6819 6.91576C63.6824 6.56462 63.7451 6.07893 63.6428 5.75281L63.4299 5.72188L63.5468 5.52381L63.5158 5.46032L63.6141 5.24846Z" fill="white"/>
<path d="M56.6604 5.45741C57.2488 5.40748 57.726 5.36987 58.2787 5.13333L58.1931 6.96352C58.5413 6.2725 58.8826 5.45871 59.6824 5.19999C60.122 5.05774 60.606 5.04898 61.0248 5.26854C61.2946 5.40995 61.3964 5.5686 61.4825 5.85236C61.5536 6.08756 61.5097 6.3429 61.3918 6.55552C61.2984 6.72373 61.1434 6.82178 60.9606 6.87105C60.7178 6.93655 60.4455 6.9363 60.2243 6.80101C60.0813 6.71349 59.998 6.53109 59.963 6.37188C59.9033 6.10049 59.9711 5.75166 60.1222 5.51992L60.1631 5.46028L60.0872 5.34834C59.7966 5.35103 59.406 5.63862 59.2085 5.84121C57.6587 7.43006 58.4925 10.0205 58.2264 11.9871C58.654 12.0393 59.4111 11.8944 59.7697 12.1061C59.7276 12.2072 59.7271 12.2354 59.6196 12.2785C59.371 12.3784 55.7042 12.3939 55.4495 12.2823C55.3966 12.2592 55.3464 12.2225 55.3037 12.1841L55.3253 12.0768C55.7954 11.9582 56.3399 12.0079 56.824 12.0121L56.8085 7.87491C56.8105 7.24779 56.9296 6.32055 56.7716 5.7221L56.7419 5.69366C56.68 5.6212 56.6566 5.5527 56.6604 5.45741Z" fill="white"/>
<path d="M48.6482 11.6228C47.8391 10.7921 47.4612 9.8884 47.4754 8.72466C47.4871 7.77396 47.8769 6.73025 48.5647 6.05815C49.2532 5.38554 50.1192 5.09558 51.0685 5.1108C52.0252 5.12611 52.8867 5.45157 53.5549 6.15197C54.3468 6.98196 54.572 7.99065 54.5416 9.1124C54.5169 10.0225 54.1314 10.9272 53.4688 11.5585C53.1003 11.9095 52.6485 12.1551 52.1865 12.3593C52.2546 12.2227 52.3244 12.0723 52.4227 11.955C52.4725 11.8953 52.6279 11.7751 52.6535 11.7143C52.6797 11.6529 52.6589 11.4502 52.6607 11.3739C53.0657 10.1037 53.0076 8.4918 52.8776 7.17035C52.8186 6.57043 52.6447 6.01965 52.1507 5.63509C51.7969 5.35956 51.0721 5.35517 50.6449 5.40357C50.1606 5.45838 49.8251 5.61599 49.5239 6.0052C48.9474 6.74945 49.0863 9.91496 49.2184 10.8967L48.9159 11.1429C48.9136 11.3269 48.9245 11.3869 48.8128 11.5452L48.6482 11.6228Z" fill="white"/>
<path d="M82.3673 26.704C81.5287 25.916 81.1219 24.9818 81.0871 23.8308C81.0581 22.8728 81.4375 21.8476 82.0971 21.1524C82.7917 20.42 83.6039 20.1072 84.602 20.0809C85.5038 20.0571 86.4003 20.3974 87.052 21.0194C87.7161 21.6533 88.1707 22.6647 88.1911 23.5828C88.2144 24.6442 87.9092 25.6783 87.1589 26.458C86.7935 26.8376 86.378 27.0906 85.8914 27.2839L86.1238 26.9509L86.0554 26.9207C86.1136 26.8221 86.12 26.733 86.1288 26.6207C86.6358 25.7661 86.5545 24.4591 86.5355 23.4922C86.5243 22.9168 86.5273 22.3111 86.4105 21.7461C86.3104 21.2609 86.1327 20.838 85.6895 20.5695C85.2821 20.3226 84.456 20.3173 84.0041 20.4312C83.562 20.5428 83.2712 20.7367 83.0386 21.1366C82.7531 21.6273 82.7645 22.4081 82.748 22.959C82.7153 24.0582 82.6622 25.1758 82.9438 26.2479L82.3673 26.704Z" fill="white"/>
<path d="M69.3839 11.6759C68.6345 10.9099 68.123 9.89413 68.1276 8.79592C68.1316 7.85794 68.5743 6.73888 69.2458 6.08268C69.9706 5.3741 70.8064 5.09243 71.8104 5.11056C72.701 5.12664 73.5569 5.44811 74.1812 6.09959C74.8895 6.83912 75.3009 7.86701 75.278 8.89746C75.2559 9.89261 74.8384 10.8944 74.1159 11.5826C73.8045 11.879 73.3875 12.1734 72.974 12.2973C73.0271 12.1719 73.1391 12.0685 73.2295 11.9682L73.1031 11.9365L73.0652 11.7615C73.1353 11.6908 73.2054 11.6156 73.2598 11.532C73.7563 10.7699 73.6902 7.72839 73.5097 6.84394C73.4045 6.32971 73.2405 5.8856 72.7757 5.5896C72.3914 5.34474 71.5683 5.33352 71.1328 5.42558C70.6939 5.51841 70.3983 5.71699 70.1578 6.09471C69.7613 6.71711 69.8269 7.7131 69.8231 8.42828C69.818 9.36415 69.788 10.2782 69.9909 11.1968C69.9168 11.2732 69.8086 11.3622 69.7697 11.4609C69.6432 11.5513 69.53 11.619 69.3839 11.6759Z" fill="white"/>
<path d="M99.2085 20.6533C99.6016 20.8471 99.976 21.3008 100.212 21.664C100.76 22.508 100.939 23.7161 100.72 24.6912C100.511 25.6178 99.9536 26.4775 99.1407 26.9834C98.3348 27.4847 97.3771 27.6094 96.4605 27.4001C95.4942 27.1797 94.7691 26.6461 94.2454 25.8065C93.7349 24.9888 93.5821 23.8244 93.8028 22.8895C94.0468 21.8563 94.6182 21.0791 95.5155 20.519C95.6268 20.6358 95.7316 20.7598 95.8792 20.8307C95.7614 20.9843 95.6367 21.1463 95.5734 21.3312C95.3357 22.0284 95.3718 22.9251 95.3692 23.6579C95.3669 24.2892 95.3431 24.9506 95.4243 25.5774C95.485 26.0465 95.6293 26.5577 96.0163 26.8602C96.4748 27.2185 97.0584 27.2602 97.6158 27.185C98.0638 27.1248 98.4514 26.9869 98.7356 26.6126C99.3515 25.8027 99.2067 22.8375 99.0566 21.7919C99.017 21.5155 98.9481 21.2735 98.8039 21.0315C98.924 20.8864 99.0624 20.771 99.2085 20.6533Z" fill="white"/>
<path d="M91.4134 15.2064L91.5808 15.1597L91.7062 15.2563L91.7177 23.161L91.7161 25.6082C91.7159 26.0628 91.7548 26.5496 91.6847 26.9981C92.0471 26.993 92.6348 26.9156 92.9629 27.0489C92.988 27.0591 93.0022 27.117 93.0132 27.1429C92.9774 27.1754 92.9146 27.2513 92.874 27.2699C92.7193 27.341 92.2667 27.2968 92.0933 27.2988L89.1206 27.2879C89.0314 27.2922 88.9294 27.228 88.8491 27.1901L88.8265 27.0794C89.2067 26.913 89.8221 26.9895 90.2391 26.991C90.1827 26.4208 90.2101 25.8225 90.2101 25.2487L90.2121 22.3283L90.2365 15.7557L88.9126 15.7289L88.858 15.6191C89.1315 15.3567 90.2449 15.4626 90.664 15.4188C90.9354 15.3904 91.1658 15.3181 91.4134 15.2064Z" fill="white"/>
<path d="M116.441 27.1078C115.65 26.5861 115.132 25.9487 114.901 25.0163C114.621 23.8896 114.748 22.6881 115.357 21.6902C115.764 21.024 116.433 20.3443 117.217 20.159C117.938 19.9885 118.642 20.0945 119.273 20.4872C120.284 21.116 120.689 22.0425 120.951 23.1534L119.125 23.159L117.034 23.1548L116.468 23.1599C116.274 23.4937 116.433 25.6459 116.555 26.1049L116.662 26.4741L116.473 26.6407L116.532 26.6989C116.477 26.7225 116.461 26.7185 116.437 26.7774C116.39 26.897 116.412 26.9861 116.441 27.1078ZM116.489 22.8761C116.655 22.894 116.823 22.9438 116.98 22.9967C117.169 23.0599 117.382 23.0553 117.579 23.0655L117.034 23.1548L119.125 23.159C119.274 23.0116 119.3 22.9925 119.327 22.7748C119.144 22.0527 119.264 20.9605 118.521 20.5253C118.199 20.3369 117.761 20.3331 117.408 20.4302C117.062 20.5254 116.859 20.7494 116.688 21.0559C116.501 21.3927 116.292 22.3569 116.409 22.7435C116.425 22.7967 116.447 22.8394 116.489 22.8761Z" fill="white"/>
<path d="M116.489 22.8761C117.108 22.7883 117.817 22.854 118.446 22.8497C118.743 22.8476 119.041 22.8677 119.327 22.7748C119.3 22.9925 119.274 23.0116 119.125 23.159L117.035 23.1548L117.579 23.0654C117.382 23.0553 117.169 23.0599 116.98 22.9967C116.823 22.9438 116.655 22.894 116.489 22.8761Z" fill="white"/>
<path d="M49.9808 20.991C50.1321 20.8106 50.3142 20.596 50.5266 20.4886C50.828 20.3359 51.3255 20.3382 51.6427 20.4392C51.8759 20.5135 52.0372 20.7226 52.1967 20.8989C52.4026 20.7952 52.4798 20.6889 52.5873 20.4887C53.3809 20.9802 53.931 21.8329 54.1441 22.7314L54.2005 22.9841C54.1487 23.0646 54.1438 23.107 54.0466 23.1287C53.6135 23.2252 53.0589 23.1651 52.6121 23.1645L49.658 23.1602C49.738 24.2055 49.4193 26.0959 50.2909 26.8464C50.6355 27.1433 51.0419 27.2439 51.4906 27.2076C52.2261 27.1484 52.8976 26.8764 53.3801 26.3037C53.5348 26.1203 53.691 25.9149 53.7865 25.6939C53.9201 25.3842 53.9427 25.0487 54.2142 24.8339L54.2886 24.8888C54.2629 25.5695 53.8421 26.3202 53.3487 26.7809C52.7828 27.3094 51.9518 27.5291 51.192 27.4971C50.3203 27.4605 49.4937 27.0796 48.9085 26.4363C48.2063 25.6647 47.9887 24.536 48.0394 23.526C48.0938 22.4504 48.7269 21.4054 49.5081 20.7026L49.642 20.5909C49.7768 20.6486 49.9338 20.6811 50.008 20.8095L50.0011 20.8247C49.9754 20.8851 49.9744 20.9265 49.9808 20.991ZM49.9808 20.991C49.7073 21.5598 49.6953 22.2488 49.658 22.8671L52.5451 22.8361C52.4963 22.1528 52.4791 21.5343 52.1967 20.8989C52.0372 20.7226 51.8759 20.5135 51.6427 20.4392C51.3255 20.3382 50.828 20.3359 50.5266 20.4886C50.3142 20.596 50.1321 20.8106 49.9808 20.991Z" fill="white"/>
<path d="M42.2584 15.5299L44.4318 15.5349L44.8189 15.8234C44.5898 15.8231 44.3993 15.7899 44.1959 15.9047L44.1888 26.998C44.5799 26.9851 45.5765 26.8901 45.8891 27.0793L45.8269 27.2276C45.7804 27.249 45.7329 27.2678 45.6829 27.2789C45.3758 27.349 44.9182 27.2972 44.5972 27.3L41.7393 27.2993C41.4927 27.2957 41.0716 27.3508 40.8491 27.284C40.7805 27.2634 40.6805 27.1819 40.616 27.1428C40.9329 26.8645 42.0323 26.9927 42.4689 26.994L42.4364 15.8712L42.2246 15.8024L42.2584 15.5299Z" fill="white"/>
<path d="M103.537 24.5594C103.039 24.2521 102.557 23.8606 102.416 23.2594C102.27 22.6342 102.381 21.8888 102.723 21.3447C103.076 20.7843 103.724 20.308 104.376 20.1577C105.113 19.9878 106.103 20.0625 106.744 20.4842L107.075 20.7546C107.46 20.399 107.798 20.0494 108.362 20.0728C108.585 20.082 108.934 20.1669 109.088 20.343C109.205 20.4769 109.273 20.7084 109.253 20.8834C109.237 21.0246 109.178 21.1403 109.103 21.2592C108.847 21.3935 108.667 21.4846 108.373 21.447C108.171 21.3284 108.072 21.2799 108.005 21.0388C107.958 20.8695 107.985 20.6078 108.046 20.4444L107.96 20.3729C107.715 20.4656 107.48 20.7384 107.286 20.9144C107.713 21.5953 108.056 22.2939 107.863 23.1242C107.693 23.859 107.165 24.3544 106.546 24.7345C106.427 24.8078 106.305 24.8718 106.174 24.9231C106.189 24.733 106.203 24.5869 106.174 24.3958L106.145 24.425C105.878 24.6901 105.487 24.8287 105.109 24.8215C104.713 24.814 104.332 24.6491 104.057 24.3676C103.882 24.4684 103.878 24.6574 103.738 24.6883C103.676 24.651 103.587 24.6122 103.537 24.5594ZM104.057 24.3676C104.332 24.6491 104.713 24.814 105.109 24.8215C105.487 24.8287 105.878 24.6901 106.145 24.425L106.174 24.3958L106.215 24.3288C106.584 23.6714 106.559 21.7827 106.341 21.0684C106.269 20.8329 106.053 20.5894 105.834 20.477C105.568 20.3399 104.978 20.3317 104.694 20.4254C104.358 20.5368 104.181 20.7114 104.028 21.03C103.599 21.9195 103.74 23.4692 104.057 24.3676Z" fill="white"/>
<path d="M90.507 5.10718L91.117 5.13666C91.6377 5.18454 92.1921 5.37643 92.5309 5.79274C92.9245 6.2764 92.8676 7.13072 92.8714 7.72064L92.8778 9.37407C92.8801 10.2433 92.9349 11.1464 92.8372 12.0099C93.1676 12.0087 93.8614 11.9235 94.1405 12.065L94.1497 12.1905L94.0237 12.3054L90.9128 12.3153C90.7467 12.3113 90.3457 12.3437 90.1992 12.2857C90.1555 12.2685 90.0951 12.209 90.0554 12.1797L90.0613 12.0953C90.4072 11.9435 90.9931 12.0083 91.3761 12.0065C91.3855 11.9892 91.3936 11.9716 91.4002 11.9529C91.4327 11.8617 91.4053 11.6712 91.4038 11.5671L91.3911 10.5538L91.3857 7.39739C91.3837 6.96912 91.4515 6.246 91.2709 5.86311C91.182 5.67503 91.0424 5.49773 90.8389 5.42974C90.5004 5.3167 89.9211 5.40358 89.6049 5.57344C89.0292 5.88287 88.3541 6.60729 88.158 7.22654C88.0511 7.68254 88.0831 8.25735 88.0803 8.72691C88.0742 9.81395 88.1337 10.927 88.046 12.0098L89.2935 12.0428L89.3471 12.1588L89.2537 12.2857C88.2457 12.3793 87.1569 12.3369 86.1438 12.3152C85.9427 12.3108 85.5734 12.3522 85.3888 12.2965C85.3436 12.2829 85.2722 12.2205 85.23 12.1929L85.2405 12.0953C85.6491 11.9437 86.2261 12.0073 86.6634 12.0073L86.6165 5.76414C86.2772 5.76681 85.5577 5.86449 85.2935 5.6893L85.2841 5.55558C85.465 5.42022 85.7492 5.4651 85.9681 5.46344C86.4877 5.45951 87.036 5.46586 87.5485 5.38083C87.7118 5.3537 87.8665 5.25544 88.0237 5.19939C88.1103 5.32544 88.0714 5.59721 88.0719 5.74885C88.073 6.08922 88.1009 6.42771 88.1283 6.76676C88.2515 6.55678 88.3678 6.3275 88.5164 6.1355C89.051 5.44506 89.6686 5.2063 90.507 5.10718Z" fill="white"/>
<path d="M76.7587 20.0842L77.1305 20.0778C77.6648 20.0966 78.3963 20.2507 78.7709 20.6666C78.9847 20.9038 79.1089 21.1996 79.1678 21.5103C79.2895 22.1521 79.2257 22.8965 79.229 23.5511L79.2153 27.0016C79.5031 26.9958 80.2723 26.9028 80.4874 27.0605L80.4913 27.1746L80.3412 27.2919C79.6951 27.3003 76.7008 27.4458 76.3648 27.1764L76.3579 27.0793C76.762 26.9272 77.3403 26.9912 77.7733 26.991C77.6301 25.5433 77.7591 24.0067 77.7451 22.5485C77.7403 22.0247 77.786 21.3706 77.6273 20.8711C77.5696 20.6901 77.4556 20.5631 77.2869 20.4783C76.9349 20.3013 76.4646 20.3665 76.105 20.4932C75.3807 20.7486 74.8026 21.568 74.4869 22.234C74.2535 23.778 74.6411 25.4501 74.4179 26.9963C74.7897 26.9937 75.3291 26.9285 75.6745 27.0489L75.7184 27.1428L75.5595 27.2612C75.0434 27.3468 71.882 27.3902 71.6047 27.2071C71.5422 27.1659 71.5488 27.1504 71.5348 27.0793C71.9551 26.9297 72.5212 26.9904 72.9677 26.9917C72.8938 26.3002 72.9438 25.553 72.9428 24.856L72.9367 20.7503C72.6241 20.7553 71.8873 20.8447 71.6458 20.6666L71.6288 20.5397C71.8279 20.4024 72.1101 20.442 72.344 20.4408C72.842 20.4381 73.3875 20.4547 73.8782 20.372C74.0753 20.3388 74.2855 20.2233 74.4646 20.1358L74.3998 21.7649C74.5581 21.5959 74.6789 21.3645 74.8222 21.1776C75.3337 20.5097 75.9351 20.1927 76.7587 20.0842Z" fill="white"/>
<path d="M104.271 31.6447C104.732 31.7318 105.087 31.7341 105.55 31.6525C105.688 31.7376 105.802 31.7973 105.963 31.8323L105.691 32H104.021C104.073 31.8725 104.187 31.7536 104.271 31.6447Z" fill="white"/>
<path d="M102.83 30.8483C103.283 31.2772 103.679 31.4611 104.271 31.6447C104.187 31.7537 104.073 31.8725 104.021 32H103.976C103.827 31.852 103.485 31.8085 103.284 31.7466C102.954 31.6447 102.652 31.501 102.392 31.2706C102.435 31.2051 102.478 31.152 102.532 31.0956L102.754 31.3651C102.853 31.3113 102.945 31.3036 103.056 31.2935C103.027 31.0687 102.72 31.1025 102.604 30.9425C102.676 30.8726 102.734 30.8714 102.83 30.8483Z" fill="white"/>
<path d="M108.586 27.3757C108.85 28.3268 108.779 29.3463 108.287 30.2128C107.856 30.9737 107.083 31.5373 106.243 31.7681L105.963 31.8324C105.802 31.7973 105.688 31.7376 105.55 31.6526L106.09 31.5096C106.928 31.2305 107.694 30.7494 108.093 29.9307C108.244 29.6195 108.432 29.0247 108.315 28.69C108.176 28.2933 107.974 28.1514 107.605 27.9726L107.928 27.9687L108.071 28.1112L108.088 28.0317C108.125 28.0366 108.16 28.0401 108.195 28.0543L108.215 28.0635C108.289 27.9355 108.366 27.8981 108.5 27.8418C108.584 27.7252 108.574 27.5164 108.586 27.3757Z" fill="white"/>
<path d="M103.113 27.9419L103.131 28.2078C102.809 28.4861 102.575 28.8717 102.543 29.3037C102.503 29.8494 102.525 30.3744 102.83 30.8483C102.734 30.8714 102.676 30.8727 102.604 30.9425C102.72 31.1025 103.027 31.0688 103.056 31.2935C102.945 31.3037 102.853 31.3113 102.754 31.3651L102.532 31.0957C102.478 31.1521 102.435 31.2051 102.392 31.2707L102.353 31.2615C102.169 31.1168 102.017 30.972 101.896 30.7696C101.666 30.3853 101.569 29.93 101.682 29.4911C101.875 28.7416 102.485 28.3152 103.113 27.9419Z" fill="white"/>
<path d="M52.6606 11.3739C52.6589 11.4502 52.6797 11.6529 52.6535 11.7143C52.6279 11.7751 52.4725 11.8953 52.4227 11.955C52.3244 12.0724 52.2546 12.2227 52.1865 12.3593C51.3189 12.5583 50.409 12.6325 49.5843 12.2171C49.5371 12.0976 49.4396 11.996 49.3593 11.8969L49.3873 11.7227L49.5531 11.675C49.675 11.7968 49.8185 11.8931 49.9643 11.9839C50.4191 12.2672 51.1186 12.2886 51.6339 12.165C52.1212 12.0481 52.4013 11.7907 52.6606 11.3739Z" fill="white"/>
<path d="M82.9438 26.2479C83.0909 26.6268 83.3811 26.9121 83.7517 27.0748C84.2284 27.2841 85.0543 27.2526 85.5356 27.0578C85.7639 26.9651 85.9546 26.7904 86.1288 26.6208C86.1199 26.733 86.1136 26.8221 86.0554 26.9207L86.1238 26.9509L85.8914 27.2839C85.6735 27.3854 85.3761 27.4205 85.1386 27.4604C84.1126 27.6323 83.1871 27.29 82.3673 26.7041L82.9438 26.2479Z" fill="white"/>
<path d="M3.59779 0H4.96112C5.03353 0.324935 5.00689 0.693641 5.00894 1.02674L5.00727 2.88229L7.4543 1.44907L8.19332 2.7235L5.74088 4.17458L8.15983 5.48764C8.01329 5.96389 7.70786 6.43236 7.44226 6.85168L5.01059 5.37046L5.02624 8.18342C4.89478 8.29785 3.78385 8.25701 3.56054 8.26611L3.56788 5.3775L1.09149 6.82151L0.358047 5.54311L2.83513 4.15926L0.365984 2.71378L1.07354 1.48156C1.93135 1.8425 2.78781 2.39588 3.59279 2.86849C3.52844 2.44241 3.55475 1.98152 3.55556 1.55094C3.55655 1.0361 3.53834 0.51203 3.59779 0Z" fill="white"/>
<path d="M65.0236 15.1428C65.1089 15.1276 65.1165 15.1351 65.195 15.1746L65.226 21.6232C65.3662 21.533 65.4774 21.3089 65.5782 21.1746C65.7355 20.9651 65.9168 20.7855 66.1182 20.6191C66.7028 20.1358 67.4172 20.0218 68.1548 20.0963C68.6579 20.1472 69.2666 20.3532 69.596 20.7601C69.7812 20.989 69.8754 21.2599 69.9216 21.5483C70.0458 22.3257 69.9803 23.1815 69.9821 23.9716C69.9843 24.9669 70.0417 26.0038 69.9447 26.9922C70.3264 26.9897 70.9484 26.9099 71.2925 27.0557L71.3212 27.1428C71.2044 27.2441 71.1714 27.2574 71.0177 27.2728C70.0687 27.3686 69.0198 27.3201 68.0651 27.3038C67.8833 27.3008 67.4871 27.3457 67.3253 27.2891C67.2859 27.2754 67.2113 27.1959 67.1755 27.1664L67.1724 27.0793C67.484 26.9137 68.1504 26.9942 68.5128 26.9953L68.4986 23.0893C68.4941 22.3368 68.6282 21.3308 68.2523 20.6666L68.2317 20.6382C68.1088 20.4777 67.9389 20.4168 67.7443 20.3936C67.1366 20.3208 66.6866 20.5104 66.219 20.8808C65.8599 21.1653 65.3672 21.7925 65.2415 22.2356C65.1381 22.5993 65.1927 23.1175 65.1927 23.5021C65.1935 24.6455 65.2854 25.8595 65.1551 26.9937L66.4364 27.0367L66.4717 27.1428L66.3729 27.2668C65.8883 27.314 62.6612 27.41 62.4181 27.2254C62.3795 27.1959 62.3856 27.1421 62.3788 27.0956C62.7155 26.8403 63.3517 27.12 63.7248 26.962L63.7172 15.7511C63.3332 15.76 62.8001 15.8331 62.4364 15.7258L62.3968 15.5873C62.6822 15.3558 63.6024 15.4562 64.0021 15.4306C64.3694 15.4072 64.7023 15.322 65.0236 15.1428Z" fill="white"/>
<path d="M80.7016 0H81.8919C82.6066 0.381887 83.2862 0.364881 83.5587 1.26473C83.608 1.42785 83.6768 1.59488 83.6148 1.76052C83.5089 2.04315 83.4391 2.3075 83.1465 2.44846C82.9332 2.55131 82.6119 2.56716 82.3894 2.48589C82.233 2.42874 82.0796 2.28257 82.0133 2.12969C81.9371 1.95364 81.9363 1.64745 82.009 1.47062C82.1454 1.13931 82.5106 1.13831 82.7587 0.95058C82.8176 0.905834 82.8552 0.868498 82.8237 0.796488C82.7567 0.643246 82.602 0.552109 82.4511 0.499236C81.6207 0.20805 80.9192 0.202627 80.1149 0.585758C79.7235 0.772236 79.4162 1.13521 79.2786 1.54506C79.1734 1.85821 79.16 2.21581 79.1335 2.54436C79.0556 3.5184 79.1531 4.50011 79.0754 5.47291C80.2962 5.40988 81.6108 5.59693 82.8115 5.37633C83.0436 5.33366 83.2748 5.20881 83.5 5.13316L83.4393 11.989L84.7221 12.0339L84.7836 12.1321L84.7049 12.273C84.3209 12.3693 81.0203 12.3912 80.7988 12.2568C80.7625 12.2348 80.7277 12.2111 80.6955 12.1833L80.7008 12.085C81.1155 11.9777 81.5747 12.0073 82.0016 12.0055L81.9719 5.73933C81.0348 5.79873 80.0049 5.85011 79.0726 5.7629L79.1015 9.68973C79.1033 10.4413 79.1724 11.2685 79.0607 12.0087C79.4332 12.0093 80.109 11.9296 80.4318 12.0952C80.3772 12.2056 80.3442 12.2366 80.2205 12.2765C79.9445 12.3656 79.4569 12.3137 79.1605 12.3165L76.2777 12.3082L76.1098 12.1905L76.1296 12.0813C76.57 11.932 77.1851 12.0055 77.6522 12.0082C77.6506 11.2514 77.7443 5.97321 77.5643 5.75957C77.5498 5.7293 77.4599 5.69691 77.4269 5.6803L77.5633 5.46547C77.7085 5.23462 77.6377 4.88104 77.6445 4.60688C77.6567 4.13255 77.674 3.64036 77.7619 3.1729C77.9709 2.0593 78.7074 0.877184 79.7464 0.373605C80.0514 0.225747 80.4069 0.204409 80.6883 0.00945641L80.7016 0Z" fill="white"/>
<path d="M0.182434 19.089L8.40232 27.3754C7.42033 27.25 6.38444 27.3142 5.39478 27.3168L0.182434 27.3252V19.089Z" fill="white"/>
<path d="M27.2255 19.2063L27.3126 19.2094C27.5594 19.5436 27.4177 26.4896 27.4421 27.3704L19.5348 27.3323L19.357 27.3617L19.3035 27.2698C19.8364 26.5285 20.6085 25.8714 21.2553 25.2203L25.2188 21.2453C25.8858 20.5764 26.617 19.9275 27.2255 19.2063Z" fill="white"/>
<path d="M98.0549 5.10437C98.9344 5.13894 99.6984 5.29497 100.382 5.88923C101.162 6.56773 101.606 7.52037 101.677 8.54848C101.75 9.60834 101.392 10.638 100.686 11.435C100.064 12.1369 99.2041 12.4725 98.2876 12.5223C97.4076 12.5311 96.5939 12.3177 95.9013 11.7444C95.101 11.0821 94.682 10.1593 94.5885 9.13507C94.4971 8.13556 94.8072 7.09027 95.4535 6.31958C96.1883 5.44319 96.9525 5.20332 98.0549 5.10437ZM97.6283 5.40367C97.1178 5.54307 96.7986 5.70386 96.5316 6.1748C96.0283 7.06305 96.124 10.2547 96.4176 11.25C96.5278 11.6235 96.8364 11.8786 97.1666 12.0531C97.5937 12.2787 98.1997 12.2426 98.664 12.1871C99.101 12.0622 99.4792 11.8742 99.7113 11.4599C100.178 10.6264 100.026 9.10452 100.009 8.17617C100.001 7.70186 100.041 7.14147 99.9066 6.68377C99.7789 6.24941 99.58 5.79933 99.1556 5.56956C98.7236 5.33568 98.1034 5.38579 97.6283 5.40367Z" fill="white"/>
<path d="M41.9605 6.89579L41.6615 6.88886C41.4568 7.19986 41.6461 11.2891 41.5724 12.01C42.0976 12.009 42.7843 11.9273 43.2839 12.0801L43.289 12.1904C43.2504 12.2158 43.1757 12.2807 43.1348 12.2914C42.845 12.3675 42.3203 12.3121 42.0067 12.3152L39.5539 12.3238C39.1516 12.3214 38.6965 12.3553 38.301 12.2857L38.1824 12.1473C38.4346 11.8962 39.4759 12.0062 39.8541 12.007L39.8348 0.816444L38.3094 0.816774L38.1906 0.698379C38.2195 0.672362 38.2769 0.604812 38.3094 0.59144C38.5525 0.491392 39.2212 0.569749 39.5109 0.569211L43.6753 0.587222C44.8102 0.646244 45.9587 0.947864 46.7427 1.82113C47.2468 2.38267 47.4231 3.28794 47.3824 4.02417C47.3382 4.82232 47.0172 5.52901 46.4166 6.06051C45.8695 6.54458 44.8478 7.00568 44.1027 7.00606L44.0831 7.0279C43.6186 7.06125 42.3409 7.2148 41.9605 6.89579ZM41.7525 6.60185C42.6238 6.78684 43.1912 6.81904 44.0552 6.56723L44.0527 6.55984C44.2683 6.42178 44.5108 6.28312 44.698 6.10833C45.2974 5.54894 45.4985 4.83961 45.5198 4.04075C45.5429 3.16883 45.3591 2.22795 44.7404 1.58129C43.8947 0.697592 42.699 0.851811 41.5915 0.825617L41.6001 4.84355C41.5986 5.19654 41.4805 6.18318 41.6341 6.47616C41.6547 6.51524 41.7205 6.56774 41.7525 6.60185Z" fill="white"/>
<path d="M41.7525 6.60188C42.6238 6.78687 43.1912 6.81907 44.0552 6.56726L44.0428 6.58207C43.7129 6.96518 43.1475 6.72551 42.8174 6.98412C43.2118 6.98288 43.7233 6.92155 44.1027 7.00609L44.0831 7.02793C43.6186 7.06128 42.3409 7.21483 41.9605 6.89582C41.8795 6.82458 41.8134 6.69303 41.7525 6.60188Z" fill="white"/>
<path d="M19.2511 0H20.0296C20.4341 0.160768 20.9475 0.18913 21.3762 0.287911C22.5481 0.557905 23.8149 1.15106 24.7426 1.91651C26.6868 3.52058 27.8513 5.66138 28.0836 8.17623C28.2863 10.3682 27.5805 12.7689 26.1649 14.4668C24.9842 15.8829 23.4479 16.9767 21.6533 17.4563C20.8583 17.6687 20.0557 17.7363 19.24 17.8114L19.2511 0Z" fill="white"/>
<path d="M9.72416 0H17.837L17.8858 27.3656C17.4333 27.298 16.9653 27.3234 16.5083 27.3229L14.291 27.3224C12.7818 27.3229 11.1769 27.2018 9.68109 27.3699L9.72416 0Z" fill="white"/>
</g>
<defs>
<clipPath id="clip0_449_968">
<rect width="126.984" height="32" fill="white" transform="translate(0.182434)"/>
</clipPath>
</defs>
</svg>
