<svg width="87" height="32" viewBox="0 0 87 32" fill="none" xmlns="http://www.w3.org/2000/svg">
<g clip-path="url(#clip0_7105_38130)">
<path fill-rule="evenodd" clip-rule="evenodd" d="M17.7435 0.254933C17.0801 0.569493 16.4957 1.17013 16.1754 1.86667C15.9433 2.37152 15.9283 2.54603 15.8956 5.13717L15.861 7.87445L13.2289 7.91893C10.3017 7.96853 9.95554 8.03445 9.19255 8.68747C8.96386 8.88331 8.63426 9.30069 8.46007 9.61504L8.14349 10.1867L8.11042 13.04L8.07746 15.8933H5.5965C2.7981 15.8933 2.36248 15.9678 1.55586 16.5836C1.22904 16.8332 0.960983 17.1718 0.739649 17.6146L0.410156 18.274V21.2437V24.2133H3.10925C5.79319 24.2133 5.81133 24.2148 6.35778 24.4871C6.99373 24.8041 7.49367 25.3317 7.81111 26.0212C8.01602 26.4662 8.03778 26.7358 8.0717 29.2597L8.10882 32.0128L10.8995 31.9797C13.5755 31.9481 13.7133 31.9362 14.2532 31.6922C14.9897 31.3595 15.7156 30.5556 15.9291 29.8369C16.0538 29.4171 16.0902 28.6983 16.0902 26.6539V24.0131L18.8368 23.9798L21.5835 23.9467L22.1315 23.6576C22.433 23.4986 22.8504 23.1691 23.0591 22.9251C23.7393 22.1305 23.7985 21.8179 23.8509 18.7467L23.8978 16H26.4967C29.5784 16 29.9203 15.9232 30.7393 15.0477C31.5984 14.1292 31.6034 14.1045 31.6071 10.7733L31.6101 7.84L28.7835 7.78667C25.6088 7.72672 25.5156 7.7056 24.7152 6.8624C23.9367 6.04203 23.9339 6.02869 23.8971 2.85333L23.8641 0L21.0704 0.00106667C18.3534 0.00202667 18.2622 0.00906667 17.7435 0.254933ZM15.9835 8.24608C15.9835 8.84427 16.3322 10.4343 16.6066 11.0875C17.7065 13.7053 20.3619 15.6899 23.0049 15.8693L23.7864 15.9225L23.7516 13.1612C23.7186 10.5452 23.7039 10.3719 23.4716 9.86667C23.1509 9.1696 22.5909 8.60587 21.9149 8.29995C21.3995 8.06667 21.2249 8.05152 18.6768 8.02005L15.9835 7.98667V8.24608ZM8.21719 18.9067C8.25421 22.1747 8.26818 22.2389 9.12109 23.0608C9.93634 23.8464 10.1442 23.8883 13.2368 23.891L15.9835 23.8933V23.4077C15.9835 22.0871 15.1774 20.0304 14.1831 18.8138C12.8942 17.2369 10.4759 16.0093 8.64386 16.0018L8.18423 16L8.21719 18.9067Z" fill="white"/>
<path fill-rule="evenodd" clip-rule="evenodd" d="M39.4531 10.2865V15.3602H40.4665H41.4798V13.4907V11.6212L43.0528 11.6507L44.6258 11.6802L45.8868 13.5202L47.1478 15.3602H48.4805H49.8131L48.6702 13.6802C48.0416 12.7562 47.4561 11.9172 47.3691 11.8158C47.2274 11.6508 47.2319 11.6245 47.412 11.5667C48.0315 11.3678 48.4746 11.1156 48.8574 10.7441C50.3875 9.25908 49.9404 6.52777 48.012 5.58078L47.3998 5.2802L43.4265 5.24649L39.4531 5.21289V10.2865ZM51.2931 5.28116C51.2931 5.31113 52.2051 6.55113 53.3198 8.03689L55.3465 10.7383V13.0493V15.3602H56.4131H57.4798V13.0307V10.7012L59.4531 8.07209C60.5385 6.62612 61.4265 5.39433 61.4265 5.33492C61.4265 5.26857 60.9759 5.22686 60.258 5.22686H59.0895L57.9466 6.72265C56.781 8.24809 56.533 8.44894 56.1007 8.21758C55.9766 8.15113 55.3903 7.45108 54.7977 6.66185L53.7203 5.22686H52.5067C51.8393 5.22686 51.2931 5.25129 51.2931 5.28116ZM63.4531 6.34686V7.46686H66.9289H70.4046L66.9289 10.3163L63.4531 13.1657V14.264V15.3622L68.6531 15.3346L73.8531 15.3069V14.2402V13.1735L70.3692 13.1202L66.8852 13.0669L70.1403 10.4002C74.3752 6.93065 73.9461 7.36468 73.8785 6.61908C73.8157 5.92617 73.6072 5.53257 73.2066 5.34996C73.0154 5.26281 71.5508 5.22686 68.1948 5.22686H63.4531V6.34686ZM79.2127 5.34196C77.6728 5.70772 76.38 7.04777 76.0514 8.61876C75.9038 9.32446 75.9016 11.4143 76.0479 12.0491C76.3328 13.2851 77.2973 14.4831 78.4286 15.006L79.0798 15.3069L82.7331 15.3375L86.3864 15.3682V14.2975V13.2269L82.8398 13.2267C79.674 13.2265 79.2539 13.2065 78.9274 13.04C78.4456 12.7944 78.1711 12.403 78.0979 11.8576L78.0384 11.4135H82.2124H86.3864V10.2935V9.17353H82.2264H78.0664V8.8963C78.0664 8.46697 78.3886 7.88916 78.7512 7.66804C79.0558 7.48233 79.347 7.46761 82.7368 7.46729L86.3939 7.46686L86.3635 6.37353L86.3331 5.2802L82.9731 5.26345C81.1251 5.25428 79.4329 5.28958 79.2127 5.34196ZM41.5024 8.45353L41.5331 9.4402L44.4131 9.46964C47.243 9.49865 47.2963 9.49513 47.4798 9.27124C47.6069 9.11593 47.6665 8.85758 47.6665 8.46132C47.6665 7.40222 47.8751 7.46686 44.4587 7.46686H41.4718L41.5024 8.45353ZM39.5019 17.7335C39.4738 17.8069 39.4633 19.8829 39.4786 22.3469L39.5065 26.8269H44.1465H48.7865V25.7602V24.6935L45.4531 24.6654L42.1198 24.6372V21.2467C42.1198 18.7519 42.086 17.8224 41.9918 17.7282C41.8097 17.5461 39.572 17.5509 39.5019 17.7335ZM55.2698 17.73C55.2099 17.8053 54.1165 19.8077 52.8399 22.1797C51.0587 25.4897 50.5434 26.5315 50.624 26.6597C50.7065 26.7908 50.9722 26.8334 51.8562 26.857L52.9834 26.8872L53.4982 25.9248L54.0131 24.9623L56.4131 24.9632L58.8131 24.964L59.3229 25.9221L59.8326 26.8802H60.8885C62.4181 26.8802 62.4414 26.8394 61.6994 25.4581C61.379 24.8616 60.302 22.8615 59.3061 21.0135L57.4955 17.6535L56.437 17.6233C55.6727 17.6015 55.3483 17.6311 55.2698 17.73ZM63.6878 17.7282C63.5038 17.9122 63.5038 26.5682 63.6878 26.7522C63.7833 26.8477 64.9543 26.8801 68.3011 26.8798C72.5588 26.8794 72.8037 26.8689 73.1274 26.6716C73.7758 26.2761 73.8531 26.0375 73.8531 24.4317C73.8531 22.8631 73.7494 22.5065 73.1957 22.1707L72.9379 22.0142L73.1908 21.8788C73.7096 21.6012 73.8531 21.171 73.8531 19.8935C73.8531 18.5605 73.7428 18.2293 73.1707 17.8441L72.8082 17.6002H68.312C64.9571 17.6002 63.7833 17.6327 63.6878 17.7282ZM77.1297 17.7776C76.9372 17.8725 76.6732 18.0994 76.543 18.2818C76.3252 18.5872 76.3041 18.7532 76.2763 20.3735C76.2421 22.3617 76.323 22.6733 76.9889 23.1181C77.3477 23.3578 77.3866 23.3602 80.9409 23.3602C83.5905 23.3602 84.5639 23.3937 84.6584 23.4882C84.8156 23.6453 84.8264 24.3662 84.676 24.6472C84.5697 24.8457 84.4092 24.8535 80.3958 24.8535H76.226L76.2759 25.3732C76.3053 25.6783 76.4275 26.0357 76.572 26.2386C77.017 26.8634 77.1406 26.8802 81.3198 26.8802C85.4225 26.8802 85.5436 26.8654 86.0664 26.2986C86.3313 26.0116 86.3331 25.9959 86.3331 23.9934V21.9771L85.9315 21.5753L85.5299 21.1735L81.8782 21.1202L78.2264 21.0669L78.1942 20.4446C78.1751 20.0775 78.2133 19.7603 78.2872 19.6712C78.3912 19.5459 79.0913 19.5202 82.3995 19.5202H86.3864V19.1093C86.3864 18.5924 86.0264 18.0359 85.531 17.7871C85.1979 17.6196 84.7658 17.6007 81.3198 17.6028C78.001 17.6048 77.4323 17.6285 77.1297 17.7776ZM66.142 20.3449L66.1731 21.1735H68.6798H71.1864V20.3735V19.5735L68.6486 19.5449L66.1107 19.5164L66.142 20.3449ZM55.4589 21.2841C55.0322 22.0818 54.7139 22.7991 54.7476 22.8869C54.8384 23.1234 58.0486 23.0655 58.0945 22.8265C58.1115 22.7383 57.7842 22.0304 57.3673 21.2532C56.8326 20.2567 56.5535 19.8402 56.4202 19.8402C56.2865 19.8402 56.0047 20.2633 55.4589 21.2841ZM66.1198 23.8954V24.7507L68.6531 24.7221L71.1864 24.6935L71.2183 23.9565C71.2408 23.4388 71.2091 23.1932 71.1117 23.1314C71.0355 23.0831 69.8812 23.0428 68.5464 23.0418L66.1198 23.0402V23.8954Z" fill="white"/>
</g>
<defs>
<clipPath id="clip0_7105_38130">
<rect width="85.9733" height="32" fill="white" transform="translate(0.410156)"/>
</clipPath>
</defs>
</svg>
