<svg width="128" height="32" viewBox="0 0 128 32" fill="none" xmlns="http://www.w3.org/2000/svg">
<g clip-path="url(#clip0_753_1536)">
<path d="M43.3402 17.1123H48.1695C48.8485 17.1123 49.3988 17.6684 49.3988 18.3474C49.3988 19.0323 48.8485 19.5825 48.1695 19.5825H42.3451C42.2515 19.5825 42.1637 19.6176 42.0993 19.6762L40.3432 21.1923C40.0739 21.4264 40.2378 21.8654 40.589 21.8654H47.8768C47.8768 21.8654 47.8827 21.8654 47.8827 21.8596C47.8827 21.8537 47.8885 21.8537 47.8885 21.8537C47.9822 21.8596 48.07 21.8654 48.1637 21.8654C50.0954 21.8654 51.6641 20.2908 51.6641 18.3474C51.6641 16.5035 50.2534 14.9874 48.4505 14.8411C48.4505 14.8411 48.4446 14.8411 48.4446 14.8352C48.4446 14.8293 48.4446 14.8293 48.4388 14.8293H43.2407C42.5617 14.8293 42.0115 14.2732 42.0115 13.5942C42.0115 12.9093 42.5617 12.3591 43.2407 12.3591H49.0534C49.1471 12.3591 49.2407 12.324 49.311 12.2596L50.9441 10.7435C51.2017 10.5035 51.0319 10.0762 50.6866 10.0762H43.3402C43.311 10.0762 43.2758 10.0762 43.2466 10.0762C41.3149 10.0762 39.7461 11.6508 39.7461 13.5942C39.7461 15.5376 41.3149 17.1123 43.2466 17.1123C43.2758 17.1123 43.3051 17.1123 43.3402 17.1123Z" fill="white"/>
<path d="M71.4508 10.0703C71.2401 10.0703 71.0703 10.2401 71.0703 10.4566V21.4849C71.0703 21.6957 71.2401 21.8713 71.4508 21.8713H80.2898C80.3952 21.8713 80.4947 21.8245 80.5708 21.7484L81.6771 20.5601C81.9054 20.3142 81.7357 19.9103 81.3962 19.9103H73.681C73.4703 19.9103 73.3006 19.7406 73.3006 19.524V10.4508C73.3006 10.2401 73.1308 10.0645 72.9201 10.0645H71.4508V10.0703Z" fill="white"/>
<path fill-rule="evenodd" clip-rule="evenodd" d="M57.2968 10.0703C57.2968 10.0762 57.2968 10.0762 57.2968 10.0703C56.167 10.123 55.2597 11.0303 55.207 12.1601V19.5767C55.207 19.6059 55.207 19.641 55.207 19.6703C55.207 20.8469 56.1319 21.8069 57.2968 21.8537H65.3163C66.4753 21.801 67.406 20.841 67.406 19.6703C67.406 19.641 67.406 19.6059 67.406 19.5767V12.1659C67.3592 11.0362 66.4519 10.123 65.3221 10.0762H57.2968V10.0703ZM58.7953 12.1659C58.7895 12.1659 58.7895 12.1659 58.7953 12.1659C58.087 12.1952 57.5192 12.7688 57.49 13.483V18.1484C57.49 18.1659 57.49 18.1893 57.49 18.2069C57.49 18.9445 58.0695 19.5532 58.7953 19.5825H63.8236C64.5495 19.5532 65.129 18.9445 65.129 18.2069C65.129 18.1893 65.129 18.1659 65.129 18.1484V13.483C65.0997 12.7688 64.5319 12.201 63.8236 12.1659H58.7953Z" fill="white"/>
<path fill-rule="evenodd" clip-rule="evenodd" d="M94.5276 21.485C94.5276 21.6957 94.6973 21.8713 94.9081 21.8713H96.4066C96.6173 21.8713 96.7871 21.7015 96.7871 21.485V12.3591C96.7871 12.3298 96.7871 12.2947 96.7871 12.2654C96.7871 11.0889 95.8681 10.1289 94.7208 10.082H87.0232C86.9939 10.082 86.9588 10.082 86.9295 10.082C85.7354 10.082 84.7695 11.0596 84.7695 12.2713C84.7695 12.3006 84.7695 12.3357 84.7695 12.365V21.4908C84.7695 21.7015 84.9393 21.8772 85.15 21.8772H86.6486C86.8593 21.8772 87.029 21.7074 87.029 21.4908V17.6918C87.029 17.4811 87.1988 17.3054 87.4095 17.3054H94.1647C94.3754 17.3054 94.5451 17.4752 94.5451 17.6918V21.485H94.5276ZM87.0173 15.204V13.3074C87.0173 12.5698 87.6086 11.9728 88.3344 11.9728H93.2164C93.9422 11.9728 94.5334 12.5698 94.5334 13.3074V15.204C94.5334 15.4147 94.3637 15.5903 94.1529 15.5903H87.3978C87.1871 15.5903 87.0173 15.4206 87.0173 15.204Z" fill="white"/>
<path fill-rule="evenodd" clip-rule="evenodd" d="M126.166 21.8713C125.955 21.8713 125.785 21.7015 125.785 21.485V17.6859C125.785 17.4752 125.616 17.2996 125.405 17.2996H118.574C118.363 17.2996 118.193 17.4693 118.193 17.6859V21.485C118.193 21.6957 118.023 21.8713 117.813 21.8713H116.302C116.092 21.8713 115.922 21.7015 115.922 21.485V12.3591C115.922 12.3298 115.922 12.2947 115.922 12.2654C115.922 11.0596 116.899 10.0762 118.105 10.0762C118.135 10.0762 118.17 10.0762 118.199 10.0762H125.978C127.137 10.1289 128.068 11.0889 128.068 12.2596C128.068 12.2889 128.068 12.324 128.068 12.3532V21.4791C128.068 21.6898 127.898 21.8654 127.688 21.8654H126.166V21.8713ZM118.193 13.3074V15.204C118.193 15.4147 118.363 15.5903 118.574 15.5903H125.405C125.616 15.5903 125.785 15.4206 125.785 15.204V13.3074C125.785 12.5698 125.188 11.9728 124.457 11.9728H119.522C118.784 11.9728 118.193 12.5698 118.193 13.3074Z" fill="white"/>
<path d="M102.43 10.0703C102.541 10.0703 102.646 10.1171 102.716 10.2049L109.436 18.2186C109.665 18.4879 110.104 18.324 110.104 17.9669V10.4567C110.104 10.2459 110.273 10.0703 110.484 10.0703H111.983C112.193 10.0703 112.363 10.2401 112.363 10.4567V21.4849C112.363 21.6957 112.193 21.8713 111.983 21.8713H110.121C110.115 21.8713 110.11 21.8654 110.11 21.8596C110.11 21.8537 110.11 21.8537 110.104 21.8479L103.267 13.8928C103.038 13.6235 102.599 13.7932 102.599 14.1445V21.4908C102.599 21.7015 102.43 21.8771 102.219 21.8771H100.709C100.498 21.8771 100.328 21.7074 100.328 21.4908V10.4567C100.328 10.2459 100.498 10.0703 100.709 10.0703H102.43Z" fill="white"/>
<path d="M4.89955 22.2751C5.08687 22.0878 5.33858 21.9824 5.60199 21.9824H29.9825C30.4274 21.9824 30.6498 22.521 30.3337 22.8312L25.5161 27.6488C25.3288 27.8361 25.0771 27.9414 24.8137 27.9414H0.433211C-0.0116668 27.9414 -0.234106 27.4029 0.0819917 27.0927L4.89955 22.2751Z" fill="white"/>
<path d="M4.89955 4.29268C5.08687 4.10537 5.33858 4 5.60199 4H29.9825C30.4274 4 30.6498 4.53854 30.3337 4.84878L25.5161 9.66049C25.3288 9.84781 25.0771 9.95317 24.8137 9.95317H0.433211C-0.0116668 9.95317 -0.234106 9.41463 0.0819917 9.10439L4.89955 4.29268Z" fill="white"/>
<path d="M25.5161 13.2253C25.3288 13.038 25.0771 12.9326 24.8137 12.9326H0.433211C-0.0116668 12.9326 -0.234106 13.4712 0.0819917 13.7814L4.89955 18.5931C5.08687 18.7804 5.33858 18.8858 5.60199 18.8858H29.9825C30.4274 18.8858 30.6498 18.3473 30.3337 18.037L25.5161 13.2253Z" fill="white"/>
</g>
<defs>
<clipPath id="clip0_753_1536">
<rect width="128" height="32" fill="white"/>
</clipPath>
</defs>
</svg>
