<svg width="116" height="32" viewBox="0 0 116 32" fill="none" xmlns="http://www.w3.org/2000/svg">
<g clip-path="url(#clip0_756_1645)">
<path fill-rule="evenodd" clip-rule="evenodd" d="M7.73336 5C3.46233 5 0 8.46233 0 12.7334V18.3576C0 22.6286 3.46233 26.0909 7.73336 26.0909H13.3576C17.6286 26.0909 21.0909 22.6286 21.0909 18.3576V12.7334C21.0909 8.46233 17.6286 5 13.3576 5H7.73336ZM13.332 8.34181C15.4183 8.7002 17.0308 10.4424 17.1909 12.5899C17.22 13.1026 16.8197 13.6569 16.1425 13.1469C15.23 12.4594 13.8859 11.9833 12.5433 11.9833C11.8483 11.9833 11.4981 11.5545 11.4981 10.9748V9.58989H8.63025C8.62377 9.59 8.61722 9.59021 8.61074 9.59043C8.60419 9.59065 8.59771 9.59087 8.59116 9.59097C6.77555 9.63246 5.31633 11.116 5.31633 12.9416C5.31633 12.9754 5.31749 13.0086 5.31865 13.0419L5.31916 13.0565C5.34804 13.9126 5.69732 14.6867 6.25163 15.2631C6.33569 15.3507 6.42497 15.4332 6.51815 15.5114C6.77272 15.7243 7.05922 15.9007 7.36961 16.0312C7.74692 16.19 8.15872 16.2825 8.59116 16.2923H9.0352C9.39924 16.2923 9.69421 16.5875 9.69421 16.9515C9.69421 17.3156 9.39924 17.6106 9.0352 17.6106H8.59116C8.57293 17.6106 8.55492 17.6092 8.53692 17.6079C8.0608 17.5944 7.60267 17.5098 7.17239 17.364C6.77837 17.2308 6.40976 17.044 6.0707 16.8164C6.0544 16.8054 6.03799 16.7946 6.02156 16.7837C5.98176 16.7574 5.94189 16.7311 5.90345 16.7028C4.74921 15.8529 4.00005 14.4849 4.00005 12.9416C4.00005 12.8873 4.00179 12.8335 4.00374 12.7796C4.00135 12.757 4.00005 12.734 4.00005 12.7105C4.00005 12.6806 4.00266 12.6513 4.00656 12.6221C4.00769 12.6171 4.00892 12.6121 4.01014 12.607C4.01151 12.6014 4.01291 12.5957 4.01417 12.5899C4.17425 10.4424 5.78681 8.7002 7.87309 8.34181C8.11962 8.29924 8.37249 8.27577 8.6307 8.27382C8.6362 8.27372 8.6417 8.27351 8.64712 8.2733C8.65443 8.27302 8.66166 8.27274 8.66897 8.27274C8.67627 8.27274 8.6835 8.27302 8.69074 8.2733C8.69623 8.27351 8.70166 8.27372 8.70716 8.27382H8.87272C8.87822 8.27372 8.88364 8.27351 8.88914 8.2733C8.89637 8.27302 8.9036 8.27274 8.91091 8.27274C8.91829 8.27274 8.92567 8.27302 8.93298 8.27331C8.9384 8.27352 8.94383 8.27373 8.94917 8.27382H12.2557C12.2612 8.27373 12.2666 8.27351 12.272 8.2733C12.2794 8.27302 12.2867 8.27274 12.2942 8.27274C12.3015 8.27274 12.3087 8.27302 12.316 8.2733C12.3215 8.27351 12.3269 8.27372 12.3324 8.27382H12.4979C12.5008 8.27377 12.5037 8.27369 12.5066 8.27359C12.5092 8.27351 12.5117 8.2734 12.5143 8.2733C12.5216 8.27302 12.5288 8.27274 12.5361 8.27274C12.5434 8.27274 12.5507 8.27302 12.5579 8.2733C12.5634 8.27351 12.5688 8.27372 12.5744 8.27382C12.8326 8.27577 13.0855 8.29924 13.332 8.34181ZM7.86043 22.7491C5.77411 22.3907 4.16155 20.6485 4.00147 18.501C3.97237 17.9884 4.37268 17.4341 5.04994 17.944C5.96243 18.6315 7.30652 19.1076 8.64908 19.1076C9.34418 19.1076 9.69429 19.5364 9.69429 20.1162V21.5011H12.5621C12.57 21.5009 12.5779 21.5006 12.5858 21.5004L12.6012 21.4999C14.4168 21.4584 15.876 19.9749 15.876 18.1493C15.876 18.1157 15.8749 18.0822 15.8737 18.0487L15.8732 18.0344C15.8443 17.1784 15.495 16.4042 14.9407 15.8278C14.8567 15.7402 14.7674 15.6577 14.6742 15.5795C14.4197 15.3666 14.1332 15.1903 13.8228 15.0598C13.4455 14.901 13.0337 14.8084 12.6012 14.7986H12.1573C11.7932 14.7986 11.4982 14.5035 11.4982 14.1394C11.4982 13.7754 11.7932 13.4804 12.1573 13.4804H12.6012C12.6194 13.4804 12.6374 13.4817 12.6555 13.483C13.1317 13.4965 13.5897 13.5814 14.02 13.727C14.4141 13.8601 14.7826 14.0469 15.1217 14.2745C15.138 14.2855 15.1544 14.2963 15.1708 14.3072C15.2106 14.3335 15.2505 14.3598 15.289 14.3881C16.4432 15.2381 17.1923 16.606 17.1923 18.1493C17.1923 18.2036 17.1906 18.2574 17.1886 18.3114C17.1911 18.3339 17.1923 18.3569 17.1923 18.3805C17.1923 18.4104 17.1897 18.4397 17.1859 18.4688C17.1847 18.4739 17.1834 18.4788 17.1822 18.4839L17.1815 18.487C17.1804 18.4916 17.1792 18.4963 17.1782 18.501C17.0181 20.6485 15.4056 22.3907 13.3193 22.7491C13.0727 22.7917 12.82 22.8152 12.5617 22.8171C12.5563 22.8172 12.551 22.8174 12.5456 22.8176C12.5383 22.8179 12.5307 22.8182 12.5234 22.8182C12.5161 22.8182 12.5089 22.8179 12.5016 22.8177C12.4962 22.8174 12.4907 22.8172 12.4852 22.8171H12.3197C12.3143 22.8172 12.309 22.8174 12.3036 22.8176L12.2955 22.8179C12.2908 22.8181 12.2861 22.8182 12.2815 22.8182C12.2741 22.8182 12.2668 22.8179 12.2594 22.8176L12.2494 22.8173L12.2433 22.8171H8.93667C8.93117 22.8172 8.92575 22.8174 8.92032 22.8176C8.91302 22.8179 8.90571 22.8182 8.89825 22.8182C8.89095 22.8182 8.88364 22.8179 8.87641 22.8177C8.87099 22.8174 8.86549 22.8172 8.85999 22.8171H8.6945C8.689 22.8172 8.6835 22.8174 8.67808 22.8177C8.67085 22.8179 8.66354 22.8182 8.65624 22.8182C8.64893 22.8182 8.6417 22.8179 8.63447 22.8177C8.62897 22.8174 8.62355 22.8172 8.61805 22.8171C8.35976 22.8152 8.10697 22.7917 7.86043 22.7491Z" fill="white"/>
<path d="M96.8207 6.31836C97.5973 6.31836 98.227 6.94809 98.227 7.7249C98.227 8.50172 97.5973 9.13146 96.8207 9.13146H96.1375C95.3602 9.13146 94.7305 8.50172 94.7305 7.7249C94.7305 6.94809 95.3602 6.31836 96.1375 6.31836H96.8207Z" fill="white"/>
<path d="M95 13.338C95 12.5249 95.6591 11.8657 96.4726 11.8657C97.2854 11.8657 97.9444 12.5249 97.9444 13.338V23.4862C97.9444 24.2993 97.2854 24.9585 96.4726 24.9585C95.6591 24.9585 95 24.2993 95 23.4862V13.338Z" fill="white"/>
<path d="M80.2734 8.06655C80.2734 7.2607 80.9265 6.60742 81.7325 6.60742C82.5384 6.60742 83.1915 7.2607 83.1915 8.06655V23.4991C83.1915 24.305 82.5384 24.9583 81.7325 24.9583C80.9265 24.9583 80.2734 24.305 80.2734 23.4991V8.06655Z" fill="white"/>
<path d="M90.8117 14.2353C91.7284 13.3943 91.1333 11.8657 89.889 11.8657C89.5402 11.8657 89.2042 11.9997 88.9504 12.2399L84.8994 16.0807C84.0008 16.9329 83.9617 18.3523 84.8136 19.252L89.8129 24.536C90.0682 24.8056 90.423 24.9585 90.7944 24.9585C91.9822 24.9585 92.5924 23.536 91.7736 22.6757L87.0364 17.6995L90.8117 14.2353Z" fill="white"/>
<path d="M52.3525 11.8657C51.6918 11.8657 51.1562 12.4013 51.1562 13.0619C51.1562 13.7226 51.6918 14.2581 52.3525 14.2581H54.3111V23.4862C54.3111 24.2993 54.9703 24.9585 55.7834 24.9585C56.5965 24.9585 57.2557 24.2993 57.2557 23.4862V14.2581H59.2143C59.875 14.2581 60.4106 13.7226 60.4106 13.0619C60.4106 12.4013 59.875 11.8657 59.2143 11.8657H57.2557V9.81505C57.2557 9.00194 56.5965 8.34277 55.7834 8.34277C54.9703 8.34277 54.3111 9.00194 54.3111 9.81505V11.8657H52.3525Z" fill="white"/>
<path fill-rule="evenodd" clip-rule="evenodd" d="M68.3365 25.2473C67.1446 25.2473 66.0492 24.9581 65.0502 24.3797C64.0687 23.8013 63.28 23.0038 62.684 21.9872C62.1057 20.9532 61.8164 19.7701 61.8164 18.438C61.8164 17.0709 62.1144 15.8791 62.7103 14.8625C63.3063 13.8284 64.1125 13.0222 65.129 12.4438C66.1456 11.8654 67.2849 11.5762 68.5468 11.5762C69.949 11.5762 71.062 11.8829 71.8857 12.4963C72.7095 13.1098 73.2966 13.9335 73.6472 14.9677C73.7262 15.2007 73.7963 15.44 73.8575 15.6856V13.3376C73.8575 12.5245 74.5167 11.8654 75.3302 11.8654C76.1429 11.8654 76.802 12.5245 76.802 13.3376V23.5192C76.802 24.3139 76.158 24.9581 75.3633 24.9581H74.5702C74.2846 24.9581 74.0451 24.7425 74.0153 24.4586C73.9802 24.1256 73.9452 23.7224 73.9101 23.2492C73.8751 22.7584 73.8575 22.294 73.8575 21.8558V20.7253C73.6472 21.5141 73.3142 22.2501 72.8585 22.9337C72.4203 23.6173 71.8244 24.1781 71.0707 24.6163C70.3346 25.037 69.4232 25.2473 68.3365 25.2473ZM73.3055 20.699C73.6735 20.033 73.8575 19.2793 73.8575 18.438C73.8575 17.5091 73.6735 16.7204 73.3055 16.0718C72.9373 15.4058 72.4116 14.8975 71.728 14.547C71.0444 14.1789 70.2119 13.9949 69.2304 13.9949C67.8282 13.9949 66.7415 14.4068 65.9703 15.2305C65.1992 16.0544 64.8136 17.1235 64.8136 18.438C64.8136 19.2969 64.9976 20.0593 65.3657 20.7253C65.7513 21.3913 66.2771 21.9084 66.9431 22.2765C67.6091 22.6445 68.3715 22.8285 69.2304 22.8285C70.2119 22.8285 71.0444 22.6445 71.728 22.2765C72.4291 21.8908 72.9549 21.3651 73.3055 20.699Z" fill="white"/>
<path d="M101.438 13.3245C101.438 12.5186 102.091 11.8654 102.897 11.8654C103.703 11.8654 104.356 12.5186 104.356 13.3245V15.6321C104.456 15.2949 104.587 14.9683 104.75 14.6522C105.048 14.0562 105.443 13.5305 105.933 13.0747C106.424 12.6015 107.002 12.2334 107.668 11.9705C108.334 11.7076 109.07 11.5762 109.877 11.5762C110.63 11.5762 111.322 11.6813 111.954 11.8917C112.602 12.102 113.154 12.4262 113.61 12.8644C114.083 13.2851 114.442 13.8109 114.688 14.4418C114.951 15.0728 115.083 15.8177 115.083 16.6765V23.4989C115.083 24.3048 114.429 24.9581 113.623 24.9581C112.818 24.9581 112.164 24.3048 112.164 23.4989V17.255C112.164 16.1858 111.901 15.3971 111.375 14.8888C110.867 14.363 110.061 14.1001 108.956 14.1001C108.115 14.1001 107.344 14.2841 106.643 14.6522C105.959 15.0027 105.399 15.4672 104.96 16.0456C104.688 16.395 104.486 16.7682 104.356 17.1653V23.4989C104.356 24.3048 103.703 24.9581 102.897 24.9581C102.091 24.9581 101.438 24.3048 101.438 23.4989V13.3245Z" fill="white"/>
<path d="M33.7812 20.3704C33.5689 19.5739 34.2543 18.9499 35.0786 18.9499H35.1612C36.0556 18.9499 36.7702 19.6655 37.251 20.4198C37.3374 20.5554 37.4342 20.6874 37.5413 20.816C38.0241 21.3545 38.6554 21.7816 39.4352 22.0972C40.2337 22.3943 41.1435 22.5429 42.1648 22.5429C43.0746 22.5429 43.8266 22.4314 44.4208 22.2086C45.015 21.9858 45.4513 21.6794 45.7298 21.2895C46.027 20.881 46.1755 20.4075 46.1755 19.869C46.1755 19.3306 45.9991 18.9128 45.6463 18.6157C45.3121 18.3 44.7922 18.04 44.0865 17.8358C43.381 17.613 42.4804 17.3995 41.3849 17.1952C40.4751 17.0281 39.593 16.8053 38.7389 16.5268C37.8848 16.2482 37.1143 15.8955 36.4272 15.4684C35.7588 15.0413 35.2296 14.5214 34.8396 13.9086C34.4497 13.2773 34.2547 12.5346 34.2547 11.6805C34.2547 10.7149 34.524 9.84223 35.0624 9.06236C35.6195 8.2825 36.4365 7.66975 37.5135 7.22412C38.5904 6.77848 39.8995 6.55566 41.4406 6.55566C43.7988 6.55566 45.5999 7.10343 46.8439 8.19895C47.7239 8.96069 48.2833 9.91751 48.5223 11.0694C48.696 11.9064 47.9703 12.5996 47.1154 12.5996C46.2774 12.5996 45.6464 11.9066 45.2864 11.1498C45.0719 10.699 44.7556 10.3374 44.3372 10.065C43.5388 9.54513 42.5269 9.28518 41.3013 9.28518C40.2058 9.28518 39.2867 9.48014 38.544 9.87008C37.8012 10.26 37.4299 10.8913 37.4299 11.764C37.4299 12.1354 37.5135 12.4603 37.6805 12.7388C37.8662 12.9988 38.1633 13.2402 38.5718 13.463C38.9804 13.6673 39.5374 13.8715 40.2429 14.0758C40.9671 14.2615 41.8491 14.4657 42.8889 14.6885C43.7802 14.8371 44.6158 15.0413 45.3956 15.3012C46.1755 15.5612 46.8532 15.8861 47.4288 16.2761C48.023 16.666 48.4872 17.1673 48.8214 17.7801C49.1557 18.3929 49.3228 19.1449 49.3228 20.0361C49.3228 21.0574 49.0629 21.9672 48.5429 22.7657C48.023 23.5455 47.2246 24.1676 46.1476 24.6318C45.0893 25.0774 43.7152 25.3002 42.0255 25.3002C40.7443 25.3002 39.6209 25.1517 38.6554 24.8546C37.7084 24.5389 36.9007 24.1397 36.2322 23.6569C35.5638 23.1556 35.0253 22.6171 34.6168 22.0415C34.2269 21.4659 33.9484 20.9089 33.7812 20.3704Z" fill="white"/>
</g>
<defs>
<clipPath id="clip0_756_1645">
<rect width="116" height="21.0909" fill="white" transform="translate(0 5)"/>
</clipPath>
</defs>
</svg>
