<svg width="124" height="32" viewBox="0 0 124 32" fill="none" xmlns="http://www.w3.org/2000/svg">
<path fill-rule="evenodd" clip-rule="evenodd" d="M117.445 21.3202H116.849C115.917 22.0455 114.803 22.6412 113.456 22.6412C110.529 22.6412 108.379 20.2841 108.379 16.9427C108.379 13.0315 111.643 10.4671 114.907 10.4671C116.021 10.4671 117.134 10.7261 118.015 11.0888L119.725 10.1304V19.2304H119.725V24.7839L122.264 25.9754L119.878 26.8478L117.446 27.7368V21.3202H117.445ZM117.445 12.9278V20.051C117.134 20.5949 116.202 21.113 115.166 21.113C112.679 21.113 110.84 19.3257 110.84 16.2952C110.84 12.9537 112.705 11.555 114.777 11.555C116.046 11.555 117.109 12.1508 117.445 12.9278Z" fill="white"/>
<path d="M55.3435 6.95299L52.8047 5.76144L57.6229 4V12.5068H58.219C59.1255 11.6261 60.317 10.5381 62.0529 10.5381C64.177 10.5381 65.1613 12.0923 65.1613 14.3459V21.4176H67.0267V22.4537H61.0166V21.4176H62.8817V14.9935C62.8817 13.258 61.949 12.3514 60.3431 12.3514C59.281 12.3514 58.2964 13.0767 57.6229 13.7243V21.4176H59.4882V22.4537H53.4782V21.4176H55.3435V6.95299Z" fill="white"/>
<path d="M103.305 7.06445C103.305 7.91928 104.004 8.61868 104.885 8.61868C105.765 8.61868 106.465 7.91928 106.465 7.06445C106.465 6.20965 105.765 5.51025 104.885 5.51025C104.004 5.51025 103.305 6.20965 103.305 7.06445Z" fill="white"/>
<path d="M103.92 21.3807V13.4542L101.641 12.0036L106.2 10.2422V21.3807H108.065V22.4168H102.055V21.3807H103.92Z" fill="white"/>
<path d="M93.3461 13.4303L91.0664 11.9797L95.6258 10.2183V12.4978H96.1699C97.3614 11.4098 98.3199 10.4773 99.4339 10.4773C100.263 10.4773 100.91 11.0472 100.91 11.8761C100.91 12.5755 100.392 13.1972 99.693 13.4821L97.6722 12.2646L95.6258 13.793V21.3568H98.2682V22.3929H91.4811V21.3568H93.3461V13.4303Z" fill="white"/>
<path d="M78.9531 16.5614C78.9531 12.9867 81.8805 10.4741 85.0667 10.4741C88.2533 10.4741 91.1804 12.9867 91.1804 16.5614C91.1804 20.1361 88.2533 22.6488 85.0667 22.6488C81.8805 22.6488 78.9531 20.1361 78.9531 16.5614ZM81.4661 16.5614C81.4661 19.5144 83.1759 21.6385 85.0667 21.6385C86.9579 21.6385 88.6677 19.5144 88.6677 16.5614C88.6677 13.6084 86.9579 11.4843 85.0667 11.4843C83.1759 11.4843 81.4661 13.6603 81.4661 16.5614Z" fill="white"/>
<path d="M77.2429 18.7891C76.8024 21.3795 74.9113 22.6488 72.6835 22.6488C69.6009 22.6488 67.2695 20.1361 67.2695 16.691C67.2695 13.453 69.7822 10.4741 72.839 10.4741C75.6887 10.4741 77.3981 12.7018 77.3981 15.344H69.1087C69.0829 15.4994 69.0829 15.6548 69.0829 15.8361C69.0829 18.6855 71.1035 20.6024 73.4867 20.6024C75.041 20.6024 76.2583 20.1102 77.2429 18.7891ZM72.4505 11.7434C71.0257 11.7434 69.7303 12.6759 69.264 14.3855H75.0148C75.0148 12.7795 73.9789 11.7434 72.4505 11.7434Z" fill="white"/>
<path d="M47.8009 11.0736H51.5819L50.8048 12.3687H47.8009V18.482C47.8009 20.2175 48.7852 20.9169 49.9767 20.9169C50.9613 20.9169 51.79 20.5802 52.6191 19.7771C51.9972 21.6681 50.5727 22.6525 48.7852 22.6525C47.0754 22.6525 45.5081 21.5342 45.5081 19.436L45.5078 18.3998V12.3687V11.0736V10.9813V8.86428L47.8009 8.02832V11.0736Z" fill="white"/>
<path d="M19.7383 4.00342H31.9521V5.38604H19.7383V4.00342Z" fill="white"/>
<path d="M7.0625 4.00342H31.9512L31.9509 4.69473H7.0625V4.00342Z" fill="white"/>
<path d="M4.17969 6.30811H34.8293V6.9994H4.17969V6.30811Z" fill="white"/>
<path d="M2.45312 8.61279H36.5596V9.30411H2.45312V8.61279Z" fill="white"/>
<path d="M0.839844 13.2217H38.1725V13.913H0.839844V13.2217Z" fill="white"/>
<path d="M1.41406 10.9175H37.5946V11.6088H1.41406V10.9175Z" fill="white"/>
<path d="M16.8555 6.30811H34.8314L34.8305 7.57549H16.8555V6.30811Z" fill="white"/>
<path d="M15.1289 8.61279H36.5605L36.5608 9.76498H15.1289V8.61279Z" fill="white"/>
<path d="M14.0898 10.9175H37.5954L37.5957 11.9545H14.0898V10.9175Z" fill="white"/>
<path d="M13.5117 13.2217H38.1695L38.1698 14.1434H13.5117V13.2217Z" fill="white"/>
<path d="M0.613281 15.5264H38.407V16.2177H0.613281V15.5264Z" fill="white"/>
<path d="M7.0625 27.0449H31.9509V27.7362H7.0625V27.0449Z" fill="white"/>
<path d="M4.17969 24.7451H34.8293V25.4364H4.17969V24.7451Z" fill="white"/>
<path d="M2.45312 22.4404H36.5596V23.1317H2.45312V22.4404Z" fill="white"/>
<path d="M1.41406 20.1357H37.5946V20.8271H1.41406V20.1357Z" fill="white"/>
<path d="M0.839844 17.8311H38.1725V18.5224H0.839844V17.8311Z" fill="white"/>
<path d="M0.839844 17.5981H25.4979V18.5199H0.839844V17.5981Z" fill="white"/>
<path d="M1.41406 19.7891H24.9199V20.826H1.41406V19.7891Z" fill="white"/>
<path d="M2.45312 21.9795H23.8849V23.1317L2.45312 23.1317V21.9795Z" fill="white"/>
<path d="M4.17969 24.165H22.1547V25.4325H4.17969V24.165Z" fill="white"/>
<path d="M7.0625 26.356H19.2763V27.7386H7.0625V26.356Z" fill="white"/>
</svg>
