<svg width="152" height="32" viewBox="0 0 152 32" fill="none" xmlns="http://www.w3.org/2000/svg">
<mask id="mask0_506_4040" style="mask-type:luminance" maskUnits="userSpaceOnUse" x="0" y="4" width="152" height="24">
<path d="M152 4H0V28H152V4Z" fill="white"/>
</mask>
<g mask="url(#mask0_506_4040)">
<path fill-rule="evenodd" clip-rule="evenodd" d="M5.64799 8.34247L6.9117 10.4932H18.3753L19.6514 8.3215L19.6592 8.30889C20.0027 7.75913 19.6364 7.04752 18.8935 7.04752H6.39351C5.76959 7.04752 5.31204 7.7417 5.64799 8.34247ZM17.0878 12.6842H8.19913L12.6435 20.2481L17.0878 12.6842ZM13.9354 22.4469L19.6718 12.6842H22.1869C22.9298 12.6842 23.2961 13.3959 22.9526 13.9456L22.9451 13.9576L16.721 24.5187L16.7167 24.5262C16.4162 25.0553 15.5512 25.1394 15.1404 24.4975L13.9354 22.4469ZM11.3516 22.4469L5.61522 12.6842H3.10011C2.47637 12.6842 2.01891 13.3781 2.3543 13.9787L8.55323 24.497C8.964 25.1394 9.82929 25.0554 10.1299 24.5262L10.1338 24.5194L11.3516 22.4469ZM4.32779 10.4932L3.6967 9.41913L3.69276 9.41219C2.53776 7.3789 4.0254 4.85645 6.39351 4.85645H18.8935C21.289 4.85645 22.867 7.35476 21.5794 9.43761L20.9592 10.4932H22.1869C24.5826 10.4932 26.1608 12.992 24.8724 15.075L18.6703 25.5988C17.4722 27.6936 14.4591 27.6091 13.2221 25.6296L13.2142 25.617L12.6435 24.6456L12.0839 25.598C10.8861 27.6936 7.87237 27.6094 6.6353 25.6296L6.6278 25.6176L0.403654 15.0564L0.399362 15.0489C-0.755641 13.0157 0.731998 10.4932 3.10011 10.4932H4.32779Z" fill="white"/>
<path fill-rule="evenodd" clip-rule="evenodd" d="M48.3548 23.1161C45.3059 23.1161 43.2618 20.6721 43.2618 16.8564C43.2618 13.0408 45.3059 10.5967 48.3548 10.5967C51.4209 10.5967 53.4651 13.0408 53.4651 16.8564C53.4651 20.6721 51.4209 23.1161 48.3548 23.1161ZM48.3548 21.3402C50.3123 21.3402 51.4383 19.7401 51.4383 16.8564C51.4383 13.9727 50.3123 12.3726 48.3548 12.3726C46.4319 12.3726 45.2886 13.9552 45.2886 16.8564C45.2886 19.7577 46.4319 21.3402 48.3548 21.3402ZM147.618 23.1161C144.725 23.1161 142.854 21.4809 142.801 18.9664L144.793 18.984C144.915 20.461 146.023 21.4106 147.635 21.4106C149.072 21.4106 150.008 20.7424 150.008 19.5994C150.008 18.4565 149.177 18.0345 146.941 17.6301C144.447 17.1905 143.079 16.241 143.079 14.2013C143.079 12.0561 144.793 10.5967 147.306 10.5967C149.956 10.5967 151.705 12.0913 151.81 14.3947H149.817C149.679 13.0936 148.709 12.3023 147.306 12.3023C145.937 12.3023 145.071 12.9353 145.071 14.043C145.071 15.1684 145.92 15.5376 148.154 15.9421C150.614 16.3641 152 17.4015 152 19.4236C152 21.604 150.199 23.1161 147.618 23.1161ZM141.737 23.0105H133.89V10.7021H141.511V12.4956H135.882V15.9068H140.576V17.6476H135.882V21.217H141.737V23.0105ZM123.414 23.0105H125.407V18.5443H127.728L130.101 23.0105H132.318L129.703 18.1048C131.175 17.5948 132.127 16.276 132.127 14.6232C132.127 12.2318 130.447 10.7021 127.918 10.7021H123.414V23.0105ZM125.407 16.786V12.4604H127.728C129.148 12.4604 130.101 13.3044 130.101 14.6232C130.101 15.9419 129.148 16.786 127.711 16.786H125.407ZM116.881 23.116C113.971 23.116 112.36 21.4456 112.36 18.2454V10.7021H114.352V18.263C114.352 20.3202 115.253 21.3225 116.881 21.3225C118.561 21.3225 119.445 20.3379 119.445 18.263V10.7021H121.437V18.2454C121.437 21.4456 119.826 23.116 116.881 23.116ZM105.457 23.0105H107.449V12.4956H111.174V10.7021H101.732V12.4956H105.457V23.0105ZM93.2989 23.0105H91.3935V10.7021H93.2295L98.5309 19.3532V10.7021H100.418V23.0105H98.5823L93.2989 14.3595V23.0105ZM82.0493 23.0105H89.8969V21.217H84.0415V17.6476H88.7363V15.9068H84.0415V12.4956H89.6715V10.7021H82.0493V23.0105ZM76.8925 23.0105H74.5539L70.4137 10.7021H72.5097L75.7318 20.4961L78.9885 10.7021H81.0327L76.8925 23.0105ZM55.1026 23.0105H57.0081V14.3595L62.2917 23.0105H64.1279V10.7021H62.2397V19.3532L56.9389 10.7021H55.1026V23.0105ZM37.5018 23.0105H39.494V12.4956H43.2184V10.7021H33.7773V12.4956H37.5018V23.0105Z" fill="white"/>
</g>
</svg>
