<svg width="142" height="32" viewBox="0 0 142 32" fill="none" xmlns="http://www.w3.org/2000/svg">
<path d="M41.8469 27V9.54256H35.9921V7.29689H50.1345V9.54256H44.2797V27H41.8469ZM58.1886 27V19.1134L51.2911 7.29689H54.0715L59.1243 16.2796H59.6589L64.7384 7.29689H67.4921L60.6214 19.1134V27H58.1886ZM70.1872 27V7.29689H80.5868L83.3672 10.104V16.8677L80.5868 19.6748H72.62V27H70.1872ZM72.62 17.5094H79.4907L80.9344 16.039V10.9327L79.4907 9.43563L72.62 9.46236V17.5094ZM86.5045 27V7.29689H88.9373V15.5578H98.6953V7.29689H101.128V27H98.6953V17.7232H88.9373V27H86.5045ZM108.045 27L105.238 24.1929V10.104L108.045 7.29689H117.348L120.156 10.104V24.1929L117.348 27H108.045ZM109.141 24.8345H116.252L117.723 23.3641V10.9327L116.252 9.46236H109.141L107.671 10.9327V23.3641L109.141 24.8345ZM124.308 27V7.29689H127.623L136.419 23.1503V7.29689H138.852V27H135.964L127.329 11.4407H126.741V27H124.308Z" fill="white"/>
<path d="M4.08153 7.28015C5.65288 10.2063 9.09725 16.8659 11.6495 21.9019C12.7247 24.0256 14.7922 28.0627 15.8497 30.1006C16.157 30.6928 16.4232 31.1721 16.4409 31.1721C16.4643 31.1721 16.866 30.423 17.3331 29.5154C17.8058 28.6016 18.7092 26.8466 19.3416 25.6166C19.9732 24.3874 21.3203 21.7511 22.3246 19.7658C24.2154 16.0379 26.9919 10.6988 28.2325 8.3911C28.6229 7.66825 28.9359 7.06986 28.9294 7.05672C28.9181 7.04358 26.9919 8.63463 24.6405 10.5937C22.2956 12.5465 20.3338 14.1708 20.2927 14.2033C20.1862 14.2628 20.062 14.644 19.1109 17.7928C17.9889 21.5145 16.9249 25.3607 16.5829 26.9518C16.5297 27.2146 16.47 27.418 16.4522 27.4048C16.4409 27.3855 16.3522 27.05 16.2635 26.6619C15.8795 25.0445 14.5623 20.3309 13.416 16.4654L12.7659 14.2891L12.0746 13.7232C11.6971 13.4147 10.5621 12.4808 9.5522 11.6389C6.09653 8.76605 4.11702 7.12939 4.02829 7.07682C3.97505 7.03739 3.99925 7.11625 4.08153 7.28015Z" fill="white"/>
<path d="M15.3253 3.46882C15.8447 3.43635 16.5167 3.42398 16.8208 3.43635C17.1249 3.45568 18.4688 3.51985 19.8118 3.5902C21.1549 3.66055 23.0908 3.7626 24.1137 3.81363C28.3953 4.03164 32.068 4.2427 32.1414 4.2744C32.2043 4.29991 32.1995 4.31924 32.1156 4.36408C32.0575 4.38959 31.7373 4.55581 31.4073 4.7344C28.4316 6.30148 26.8474 7.17122 24.4815 8.53343C21.459 10.2729 18.159 12.1786 18.1429 12.1979C18.1171 12.2165 17.8807 14.4809 17.4451 18.7778C17.0886 22.3333 16.7683 25.1343 16.5949 26.2537L16.4747 27.0145L16.3328 26.0295C16.1755 24.9487 16.0867 24.1687 15.7665 21.2077C15.4567 18.2915 14.8268 12.2613 14.8268 12.2041C14.8268 12.1786 14.7743 12.1338 14.7114 12.1013C14.6017 12.0503 13.0433 11.162 9.50129 9.12176C6.3586 7.31192 4.3073 6.17391 2.41814 5.18898C1.7575 4.8434 1.10654 4.50478 0.9807 4.43443L0.75 4.3061L1.19043 4.26821C1.43242 4.24889 1.96239 4.21642 2.36571 4.19786C3.22156 4.15302 4.48073 4.08267 7.42902 3.90949C8.59946 3.83914 10.6403 3.72472 11.968 3.65437C13.2949 3.58402 14.8058 3.50052 15.3253 3.46882Z" fill="white"/>
</svg>
