<svg width="151" height="32" viewBox="0 0 151 32" fill="none" xmlns="http://www.w3.org/2000/svg">
<g clip-path="url(#clip0_449_1025)">
<path d="M56.3045 17.1646L60.9105 6.73572L65.514 17.1572L68.9105 7.93023H72.2622L65.7784 24.2544L60.9105 13.2195L56.0452 24.2569L49.5614 7.93272H52.913L56.3045 17.1646Z" fill="white"/>
<path d="M73.342 7.93262H76.3694V23.0673H73.342V7.93262Z" fill="white"/>
<path d="M90.1001 7.93267H93.1275V23.8254L82.2073 13.9202V23.0673H79.1799V7.17456L90.1001 17.0773V7.93267Z" fill="white"/>
<path d="M99.7659 11.6508C99.2642 12.1548 98.871 12.7563 98.6107 13.4181C98.3504 14.0798 98.2284 14.7879 98.2522 15.4987C98.2283 16.2098 98.3503 16.9183 98.6106 17.5805C98.871 18.2427 99.2641 18.8446 99.7659 19.3491C100.236 19.8359 100.8 20.2213 101.425 20.4817C102.049 20.742 102.72 20.8717 103.397 20.8628C104.378 20.8757 105.347 20.6488 106.22 20.2019C107.031 19.792 107.731 19.1933 108.262 18.4563V22.0498C106.994 23.162 105.372 23.7173 103.397 23.7157C100.961 23.7157 98.9662 22.9484 97.4118 21.4139C95.8573 19.8794 95.0784 17.9077 95.0751 15.4987C95.0751 13.093 95.854 11.1221 97.4118 9.58598C98.9695 8.04982 100.965 7.28174 103.397 7.28174C105.372 7.28174 106.994 7.83702 108.262 8.94757V12.5361C107.729 11.8053 107.029 11.2127 106.22 10.8079C105.348 10.3576 104.378 10.1273 103.397 10.1371C102.72 10.1277 102.049 10.2572 101.424 10.5176C100.8 10.7779 100.235 11.1636 99.7659 11.6508Z" fill="white"/>
<path d="M113.993 16.581V20.364H120.803V23.0673H110.965V7.93262H120.803V10.6334H113.993V13.985H120.372V16.581H113.993Z" fill="white"/>
<path d="M134.427 7.93267H137.452V23.8254L126.534 13.9202V23.0673H123.507V7.17456L134.427 17.0773V7.93267Z" fill="white"/>
<path d="M138.965 10.6334V7.93262H149.778V10.6334H145.886V23.0673H142.856V10.6334H138.965Z" fill="white"/>
<path d="M38.6861 8.92271C38.2843 8.06548 37.7395 7.28289 37.0751 6.6085C37.0751 6.6085 37.0477 6.58605 37.0377 6.57358C38.2542 6.55679 39.4296 6.13072 40.3744 5.36411C40.2642 5.34396 40.152 5.33726 40.0402 5.34416C38.11 5.67832 36.3594 5.26186 34.7285 4.34665C34.2721 4.09727 33.8183 3.8479 33.3644 3.58106C34.4334 3.07043 35.2572 2.1579 35.6562 1.04241C35.1718 1.58135 34.5498 1.97822 33.857 2.19043C33.1641 2.40263 32.4266 2.42215 31.7235 2.2469C31.4542 2.17209 31.1948 2.06735 30.9205 2.01498C30.7875 1.98923 30.6517 1.98084 30.5165 1.99004C29.9359 1.70184 29.2866 1.58095 28.6412 1.64091C28.0945 1.65612 27.5482 1.60165 27.0153 1.47882C26.9137 1.44322 26.8029 1.44444 26.7021 1.48228C26.6014 1.52011 26.5172 1.59215 26.4641 1.6858C26.4072 1.78042 26.3347 1.86473 26.2497 1.93518C26.2657 1.99469 26.2996 2.04781 26.3469 2.0873C26.4634 2.18562 26.614 2.23401 26.7659 2.22196C27.9629 2.04989 28.0602 2.63094 28.7185 2.50625C28.4741 2.65413 28.2029 2.75228 27.9204 2.79508C27.638 2.83787 27.3499 2.82446 27.0726 2.75563C26.6425 2.63821 26.2641 2.38009 25.9978 2.02246C25.8998 2.03059 25.8012 2.02216 25.706 1.99752C25.2687 1.84561 24.84 1.66995 24.4217 1.47134C24.3457 1.43037 24.2724 1.38456 24.2023 1.33418C23.529 0.94266 23.3145 0.897772 22.8407 1.53368C22.8446 1.54467 22.8505 1.55482 22.8582 1.56361C22.9138 1.60623 22.9785 1.6354 23.0473 1.64881C23.1161 1.66222 23.1871 1.65952 23.2547 1.64091C23.3927 1.60346 23.5363 1.59163 23.6786 1.606C23.7709 1.62595 23.8656 1.69578 23.8607 1.79054C23.8562 1.82621 23.8423 1.86004 23.8203 1.88853C23.7984 1.91703 23.7693 1.93916 23.736 1.95264C23.668 1.97658 23.5952 1.98343 23.524 1.97259C23.244 1.92985 22.9833 1.80386 22.7759 1.61099C22.7534 1.64091 22.731 1.67084 22.7085 1.70575C22.4419 2.12043 22.3176 2.61065 22.3544 3.10226C22.3357 3.53527 22.432 3.96552 22.6337 4.34914C22.5372 3.90861 22.5569 3.45054 22.6911 3.01997C22.7277 2.90193 22.7771 2.78822 22.8382 2.68081C22.893 2.68477 22.946 2.70178 22.9929 2.73041C23.0397 2.75904 23.079 2.79847 23.1075 2.8454C23.2062 3.00696 23.2524 3.19516 23.2397 3.38406C23.2589 3.69604 23.2964 4.00663 23.3519 4.31423C23.3678 4.61791 23.4728 4.9102 23.6537 5.15463C23.5901 4.78729 23.6245 4.40967 23.7534 4.05987C23.7925 3.92791 23.8821 3.81675 24.0028 3.75064C24.1352 3.70812 24.2785 3.71431 24.4068 3.7681C24.7406 3.96711 25.1129 4.09291 25.4991 4.13717C26.2247 4.21199 26.7235 5.01498 27.7634 4.83792C27.8183 4.83792 27.7958 5.56111 27.0901 5.6484C26.8048 5.6601 26.52 5.61518 26.2522 5.51623C25.8966 5.4194 25.5174 5.46222 25.1923 5.63593C24.9441 5.7844 24.6858 5.91523 24.4193 6.02745C24.118 6.14038 23.7873 6.14742 23.4816 6.0474C23.3974 5.9338 23.3379 5.80383 23.307 5.66585C23.2651 5.46731 23.2789 5.26103 23.3469 5.06984C23.2404 5.16187 23.1566 5.27729 23.1021 5.40707C23.0476 5.53685 23.0239 5.67749 23.0327 5.81797C23.0361 5.86221 23.0307 5.90668 23.0169 5.94883C23.0031 5.99098 22.981 6.02998 22.952 6.06358C22.9231 6.09718 22.8877 6.12473 22.8481 6.14463C22.8084 6.16454 22.7653 6.17641 22.721 6.17957C22.6163 6.17957 22.5639 6.15962 22.4716 6.15463C22.4189 6.14159 22.3727 6.10965 22.3419 6.06485C22.3024 6.00336 22.2753 5.93475 22.2621 5.86286C22.2609 5.58131 22.3099 5.30179 22.4068 5.03742C22.2416 5.22862 22.1275 5.45854 22.0751 5.70575C22.0269 5.94198 22.0398 6.18661 22.1125 6.41648L22.1499 6.70077C22.1208 6.73751 22.1005 6.78045 22.0905 6.82627C22.0806 6.8721 22.0813 6.91959 22.0926 6.9651C22.1749 7.15463 22.0926 7.03244 22.7634 7.09229C23.1647 7.15452 23.5695 7.192 23.9754 7.20451C24.3518 7.17324 24.7177 7.06457 25.0502 6.8853C25.262 6.75538 25.5029 6.68027 25.7511 6.66678C25.9993 6.65328 26.2469 6.70181 26.4716 6.808C26.9006 7.02495 27.3145 7.26934 27.7185 7.52121C28.0482 7.73293 28.4171 7.87625 28.8033 7.94266C29.1613 8.02729 29.5365 8.00298 29.8806 7.87283C30.2907 7.68416 30.6816 7.45616 31.0477 7.19204C31.027 7.24306 31.0036 7.293 30.9779 7.34166C30.7725 7.67026 30.49 7.94376 30.1549 8.13845C29.8199 8.33314 29.4424 8.44313 29.0552 8.45887C29.6928 9.30424 30.1426 10.276 30.3744 11.3092C30.4852 11.9387 30.4852 12.5826 30.3744 13.212C30.3126 13.5536 30.2293 13.8909 30.125 14.222L29.9679 14.6783C30.0128 14.601 26.514 21.2444 26.514 21.2444L24.2996 17.621L18.4168 7.78057L10.312 21.2469C10.312 21.2469 7.26215 16.5536 6.31452 14.1172C6.09156 13.4455 6.01587 12.7336 6.09257 12.0299C6.59133 9.2469 7.98285 9.65338 8.14993 7.66086C7.90055 8.42146 6.48409 7.98755 5.73846 8.98007C7.01028 6.69827 9.27462 7.29678 10.0776 4.77807C9.16489 5.65089 8.2397 5.27682 7.40679 5.35663C9.57138 4.58855 10.9479 1.65338 12.6936 2.6858C12.5015 1.87283 9.88808 0.778072 7.75591 3.24441C8.6013 2.39653 8.22474 1.48381 9.34195 1.03992C5.98035 1.39403 6.71103 2.88281 5.69856 3.77807C5.7609 2.86286 5.59631 1.87034 5.00529 1.53368C5.11751 3.21697 4.10255 3.16959 3.84569 5.93019C4.02025 6.23692 3.05766 4.65837 2.10753 4.74067C3.43172 6.69827 1.78584 8.808 1.49157 11.6733C1.43123 12.0778 1.42034 12.4882 1.45916 12.8953C1.51645 13.2934 1.62023 13.6834 1.76838 14.0574C1.87592 14.3235 2.00347 14.5811 2.14993 14.8279C2.11502 14.9003 2.07761 14.9676 2.04519 15.0424C1.71741 15.7643 1.58828 16.5606 1.67113 17.3491C1.71101 17.766 1.8206 18.1731 1.99532 18.5536C2.19544 18.9601 2.4803 19.3189 2.83073 19.606C3.48659 20.1347 4.05267 20.4489 4.54145 20.8529C5.02907 21.2541 5.47143 21.7073 5.86065 22.2045C6.27099 22.733 6.6411 23.2915 6.96788 23.8753L7.69357 25.2619C7.74344 25.3716 7.79831 25.4763 7.84818 25.5861L10.105 29.9626L16.0901 19.7681L18.3868 15.8055L20.6836 19.7681L26.6836 29.9626L32.312 19.6309C32.3653 20.0465 32.3476 20.4682 32.2597 20.8778C33.1649 19.9327 33.6612 18.788 33.938 17.4589C34.1176 18.105 34.1176 18.7878 33.938 19.4339C34.2372 19.2494 34.7933 18.1397 34.9754 17.3965C35.155 16.6382 35.2073 15.8553 35.13 15.0798C35.4856 15.8133 35.6747 16.6163 35.6836 17.4314C36.3348 16.0009 36.5533 14.4111 36.312 12.8579C36.8382 13.207 37.1499 13.9501 37.1225 14.8379C37.4681 14.2517 37.6554 13.5857 37.6661 12.9053C37.6861 12.2333 37.545 11.5664 37.2547 10.9601C37.8609 11.1425 38.3913 11.5172 38.7659 12.0274C38.7659 11.1422 37.928 9.62595 36.5988 8.13219C37.3329 8.28068 38.0378 8.54768 38.6861 8.92271ZM3.46913 16.6933C3.50349 16.9402 3.56453 17.1827 3.65118 17.4165L3.68858 17.5162L4.27711 18.6584C4.28438 18.6671 4.29104 18.6762 4.29706 18.6858C4.09507 18.5836 3.90055 18.4813 3.73846 18.3841C3.52107 18.2593 3.33311 18.0892 3.18734 17.8853C3.03599 17.6454 2.91772 17.3862 2.83571 17.1147C2.66631 16.5476 2.6457 15.9465 2.77586 15.3691C2.92457 14.9573 3.10035 14.5557 3.30205 14.1671C3.57158 13.6838 3.81062 13.184 4.01776 12.6708C4.12988 12.4233 4.18788 12.1546 4.18788 11.8828C4.18788 11.611 4.12988 11.3424 4.01776 11.0948C4.17695 11.3348 4.28406 11.6054 4.33217 11.8894C4.38028 12.1733 4.36832 12.4641 4.29706 12.7432C4.17536 13.2962 4.01877 13.8409 3.82823 14.3741C3.64815 14.889 3.52277 15.4214 3.45417 15.9626C3.43202 16.206 3.43704 16.451 3.46913 16.6933Z" fill="white"/>
</g>
<defs>
<clipPath id="clip0_449_1025">
<rect width="148.297" height="29" fill="white" transform="translate(1.45911 1)"/>
</clipPath>
</defs>
</svg>
