<svg width="123" height="32" viewBox="0 0 123 32" fill="none" xmlns="http://www.w3.org/2000/svg">
<g clip-path="url(#clip0_449_1025)">
<path d="M45.3893 17.3775L49.2012 8.7467L53.011 17.3713L55.8219 9.73527H58.5956L53.2297 23.2449L49.2012 14.1126L45.1747 23.247L39.8088 9.73733H42.5826L45.3893 17.3775Z" fill="white"/>
<path d="M59.4893 9.73743H61.9947V22.2627H59.4893V9.73743Z" fill="white"/>
<path d="M73.358 9.73738H75.8635V22.89L66.8261 14.6926V22.2626H64.3206V9.10999L73.358 17.3054V9.73738Z" fill="white"/>
<path d="M81.3574 12.8145C80.9422 13.2316 80.6168 13.7294 80.4013 14.2771C80.1859 14.8247 80.0849 15.4108 80.1046 15.999C80.0849 16.5875 80.1858 17.1738 80.4013 17.7219C80.6167 18.2699 80.9421 18.768 81.3574 19.1855C81.7462 19.5884 82.2134 19.9074 82.7302 20.1228C83.247 20.3383 83.8024 20.4456 84.3623 20.4382C85.1739 20.4489 85.9759 20.2611 86.6985 19.8913C87.3695 19.552 87.9491 19.0566 88.3887 18.4466V21.4206C87.339 22.341 85.9968 22.8006 84.3623 22.7992C82.3466 22.7992 80.6956 22.1642 79.4091 20.8943C78.1227 19.6244 77.4781 17.9926 77.4753 15.999C77.4753 14.0081 78.1199 12.377 79.4091 11.1057C80.6983 9.83438 82.3494 9.19873 84.3623 9.19873C85.9968 9.19873 87.339 9.65827 88.3887 10.5774V13.5472C87.9476 12.9423 87.368 12.4519 86.6985 12.117C85.9766 11.7443 85.1746 11.5537 84.3623 11.5618C83.8024 11.554 83.2468 11.6612 82.73 11.8767C82.2131 12.0921 81.746 12.4113 81.3574 12.8145Z" fill="white"/>
<path d="M93.1314 16.8947V20.0255H98.7676V22.2627H90.6259V9.73743H98.7676V11.9725H93.1314V14.7463H98.4106V16.8947H93.1314Z" fill="white"/>
<path d="M110.042 9.73738H112.546V22.89L103.51 14.6926V22.2626H101.005V9.10999L110.042 17.3054V9.73738Z" fill="white"/>
<path d="M113.798 11.9725V9.73743H122.747V11.9725H119.525V22.2627H117.018V11.9725H113.798Z" fill="white"/>
<path d="M30.8085 10.5567C30.476 9.84722 30.0252 9.19956 29.4753 8.64144C29.4753 8.64144 29.4526 8.62286 29.4444 8.61255C30.4511 8.59865 31.4239 8.24604 32.2057 7.6116C32.1146 7.59493 32.0217 7.58938 31.9292 7.59509C30.3318 7.87164 28.883 7.52698 27.5333 6.76957C27.1556 6.56319 26.78 6.35681 26.4044 6.13598C27.2891 5.71338 27.9708 4.95819 28.301 4.03502C27.9002 4.48104 27.3854 4.80949 26.812 4.9851C26.2387 5.16072 25.6283 5.17688 25.0464 5.03184C24.8235 4.96993 24.6089 4.88325 24.3819 4.83991C24.2718 4.81859 24.1594 4.81166 24.0475 4.81927C23.567 4.58076 23.0297 4.48071 22.4955 4.53034C22.0431 4.54292 21.591 4.49784 21.1499 4.39619C21.0659 4.36673 20.9742 4.36774 20.8908 4.39905C20.8074 4.43036 20.7377 4.48998 20.6938 4.56748C20.6467 4.64579 20.5867 4.71556 20.5163 4.77387C20.5296 4.82312 20.5577 4.86708 20.5968 4.89976C20.6932 4.98113 20.8178 5.02117 20.9436 5.0112C21.9342 4.8688 22.0147 5.34967 22.5595 5.24648C22.3572 5.36886 22.1328 5.45009 21.899 5.4855C21.6653 5.52092 21.4268 5.50983 21.1974 5.45286C20.8414 5.35569 20.5283 5.14207 20.3079 4.8461C20.2268 4.85283 20.1452 4.84585 20.0664 4.82546C19.7045 4.69974 19.3497 4.55437 19.0036 4.39C18.9407 4.3561 18.88 4.31818 18.822 4.27649C18.2647 3.95247 18.0872 3.91532 17.6951 4.44159C17.6983 4.45069 17.7032 4.45909 17.7096 4.46636C17.7556 4.50164 17.8092 4.52577 17.8661 4.53687C17.9231 4.54797 17.9818 4.54573 18.0377 4.53034C18.1519 4.49934 18.2708 4.48955 18.3886 4.50144C18.4649 4.51795 18.5433 4.57574 18.5392 4.65416C18.5355 4.68368 18.524 4.71168 18.5059 4.73526C18.4877 4.75884 18.4636 4.77716 18.436 4.78831C18.3798 4.80813 18.3195 4.8138 18.2606 4.80482C18.0289 4.76946 17.8131 4.66519 17.6415 4.50557C17.6229 4.53034 17.6043 4.5551 17.5857 4.584C17.3651 4.92718 17.2622 5.33288 17.2927 5.73973C17.2772 6.09808 17.3569 6.45414 17.5238 6.77163C17.4439 6.40705 17.4603 6.02796 17.5713 5.67162C17.6016 5.57394 17.6425 5.47983 17.6931 5.39094C17.7384 5.39422 17.7823 5.40829 17.821 5.43199C17.8598 5.45568 17.8924 5.48832 17.9159 5.52715C17.9976 5.66086 18.0359 5.81661 18.0253 5.97294C18.0412 6.23113 18.0723 6.48817 18.1182 6.74274C18.1313 6.99406 18.2182 7.23595 18.3679 7.43824C18.3153 7.13423 18.3438 6.82172 18.4505 6.53223C18.4828 6.42302 18.557 6.33103 18.6569 6.27632C18.7665 6.24113 18.885 6.24625 18.9912 6.29076C19.2675 6.45546 19.5756 6.55958 19.8951 6.59621C20.4957 6.65812 20.9085 7.32267 21.7691 7.17614C21.8145 7.17614 21.7959 7.77464 21.2118 7.84687C20.9757 7.85656 20.7401 7.81938 20.5184 7.73749C20.2241 7.65736 19.9103 7.6928 19.6413 7.83655C19.4359 7.95943 19.2221 8.0677 19.0015 8.16057C18.7522 8.25403 18.4786 8.25986 18.2255 8.17708C18.1558 8.08307 18.1066 7.97551 18.0811 7.86132C18.0463 7.69701 18.0578 7.52629 18.1141 7.36807C18.0259 7.44423 17.9566 7.53975 17.9115 7.64715C17.8664 7.75456 17.8467 7.87095 17.854 7.98721C17.8568 8.02382 17.8524 8.06062 17.8409 8.09551C17.8295 8.13039 17.8112 8.16266 17.7873 8.19047C17.7633 8.21828 17.7341 8.24108 17.7012 8.25755C17.6684 8.27403 17.6327 8.28385 17.5961 8.28646C17.5094 8.28646 17.466 8.26995 17.3897 8.26583C17.346 8.25503 17.3078 8.2286 17.2824 8.19153C17.2497 8.14064 17.2272 8.08385 17.2163 8.02436C17.2153 7.79135 17.2558 7.56003 17.336 7.34124C17.1993 7.49947 17.1049 7.68975 17.0615 7.89434C17.0216 8.08984 17.0323 8.29229 17.0925 8.48253L17.1234 8.7178C17.0993 8.74821 17.0825 8.78374 17.0743 8.82167C17.0661 8.85959 17.0666 8.8989 17.076 8.93656C17.1441 9.09341 17.076 8.99229 17.6311 9.04182C17.9633 9.09332 18.2982 9.12434 18.6342 9.13469C18.9457 9.10881 19.2485 9.01888 19.5237 8.87052C19.699 8.763 19.8984 8.70084 20.1037 8.68967C20.3091 8.6785 20.5141 8.71867 20.7 8.80654C21.055 8.98609 21.3976 9.18835 21.7319 9.39679C22.0048 9.57201 22.3101 9.69062 22.6297 9.74558C22.926 9.81562 23.2365 9.79549 23.5212 9.68779C23.8607 9.53165 24.1841 9.34296 24.4871 9.12437C24.4699 9.16659 24.4507 9.20792 24.4293 9.2482C24.2593 9.52014 24.0255 9.74649 23.7483 9.90761C23.471 10.0687 23.1586 10.1598 22.8381 10.1728C23.3658 10.8724 23.7381 11.6766 23.9299 12.5317C24.0216 13.0526 24.0216 13.5855 23.9299 14.1064C23.8788 14.3891 23.8099 14.6683 23.7235 14.9422L23.5935 15.3199C23.6306 15.2559 20.7351 20.7539 20.7351 20.7539L18.9024 17.7552L14.0339 9.61143L7.32656 20.756C7.32656 20.756 4.80253 16.8719 4.01828 14.8556C3.83377 14.2996 3.77112 13.7105 3.8346 13.1282C4.24736 10.8249 5.39897 11.1613 5.53724 9.51236C5.33086 10.1418 4.15862 9.78272 3.54154 10.6041C4.59408 8.71574 6.46802 9.21105 7.13256 7.1266C6.37721 7.84894 5.61154 7.53937 4.92223 7.60541C6.71361 6.96976 7.85283 4.54066 9.29749 5.39507C9.13858 4.72227 6.97571 3.81626 5.21116 5.85736C5.91079 5.15567 5.59915 4.40032 6.52374 4.03296C3.74173 4.32602 4.34642 5.55811 3.50852 6.29902C3.56011 5.5416 3.4239 4.72021 2.93478 4.44159C3.02765 5.83466 2.18768 5.79545 1.97511 8.08008C2.11958 8.33393 1.32295 7.02754 0.536639 7.09565C1.63252 8.71574 0.270408 10.4617 0.0268785 12.833C-0.0230616 13.1678 -0.032071 13.5074 4.89856e-05 13.8443C0.0474641 14.1738 0.133355 14.4966 0.255961 14.806C0.34496 15.0263 0.450516 15.2395 0.571723 15.4437C0.54283 15.5036 0.511873 15.5593 0.485043 15.6212C0.213778 16.2187 0.10691 16.8777 0.175472 17.5303C0.208484 17.8752 0.299176 18.2122 0.443767 18.5271C0.609391 18.8634 0.845137 19.1604 1.13514 19.398C1.67792 19.8355 2.14641 20.0956 2.55091 20.4299C2.95446 20.7619 3.32055 21.137 3.64267 21.5485C3.98225 21.9858 4.28856 22.4481 4.559 22.9312L5.15956 24.0787C5.20084 24.1695 5.24624 24.2562 5.28752 24.347L7.15526 27.969L12.1084 19.5321L14.0092 16.2528L15.9099 19.5321L20.8754 27.969L25.5335 19.4186C25.5776 19.7626 25.5629 20.1115 25.4901 20.4505C26.2393 19.6684 26.65 18.7211 26.8791 17.6211C27.0278 18.1558 27.0278 18.7209 26.8791 19.2556C27.1267 19.1029 27.5869 18.1845 27.7376 17.5695C27.8863 16.9419 27.9295 16.294 27.8656 15.6522C28.1599 16.2592 28.3163 16.9238 28.3237 17.5984C28.8627 16.4145 29.0435 15.0987 28.8438 13.8133C29.2793 14.1023 29.5372 14.7173 29.5145 15.452C29.8005 14.9668 29.9556 14.4157 29.9644 13.8525C29.9809 13.2965 29.8642 12.7445 29.6239 12.2428C30.1256 12.3937 30.5646 12.7038 30.8746 13.1261C30.8746 12.3934 30.1811 11.1386 29.0811 9.90242C29.6886 10.0253 30.2721 10.2463 30.8085 10.5567ZM1.66348 16.9875C1.69192 17.1918 1.74243 17.3925 1.81413 17.586L1.84509 17.6685L2.33215 18.6137C2.33816 18.6209 2.34368 18.6285 2.34866 18.6365C2.18149 18.5518 2.02051 18.4672 1.88637 18.3867C1.70646 18.2835 1.5509 18.1427 1.43027 17.974C1.30502 17.7755 1.20714 17.561 1.13927 17.3363C0.999073 16.8669 0.982015 16.3694 1.08974 15.8916C1.2128 15.5508 1.35828 15.2185 1.5252 14.8968C1.74826 14.4968 1.94609 14.0833 2.11751 13.6586C2.2103 13.4537 2.2583 13.2313 2.2583 13.0064C2.2583 12.7815 2.2103 12.5591 2.11751 12.3542C2.24926 12.5528 2.3379 12.7768 2.37771 13.0118C2.41753 13.2468 2.40763 13.4875 2.34866 13.7184C2.24794 14.1761 2.11835 14.6269 1.96066 15.0681C1.81163 15.4943 1.70787 15.9349 1.65109 16.3828C1.63276 16.5842 1.63692 16.787 1.66348 16.9875Z" fill="white"/>
</g>
<defs>
<clipPath id="clip0_449_1025">
<rect width="122.728" height="24" fill="white" transform="translate(0 4)"/>
</clipPath>
</defs>
</svg>
