<svg width="69" height="33" viewBox="0 0 69 33" fill="none" xmlns="http://www.w3.org/2000/svg">
<path d="M16.6379 16.6798L26.0539 5.04265L21.7 5.05115H20.4848C19.3307 5.06823 18.334 5.5976 17.4947 6.63928L12.8174 12.4535L8.13994 6.64778C7.28317 5.5891 6.28645 5.06823 5.14986 5.06823H1.4779C0.84845 5.06823 0.542421 5.32438 0.542421 5.83668C0.542421 6.09283 0.664818 6.36605 0.900873 6.65636L9.02292 16.6884L0.428762 27.429C0.192707 27.7279 0.0703125 28.0011 0.0703125 28.2487C0.140287 28.7524 0.46379 29 1.03208 29H4.66901C5.8056 29 6.80224 28.4792 7.64162 27.429L12.8436 20.9317L18.063 27.4119C18.911 28.4536 19.899 28.9744 21.0355 28.9744L26.5522 28.9658L16.6379 16.6798ZM64.4347 28.9232L68.2289 24.2017L58.9003 24.2103C55.8408 24.2103 53.7511 23.6724 52.6495 22.5795C51.5478 21.4867 50.9887 19.6254 50.9887 16.9872C50.9799 14.3489 51.5304 12.4792 52.6407 11.3778C53.7511 10.2764 55.8321 9.72999 58.8916 9.72999L68.7015 9.72141L64.8716 5L58.6906 5.0085C53.7511 5.01708 50.1579 5.98179 47.9109 7.91137C46.8879 8.79078 46.1095 9.90926 45.5504 11.2497C46.1707 12.8804 46.4773 14.7929 46.486 16.9872C46.4947 19.1814 46.1794 21.0939 45.5678 22.7247C46.127 24.0566 46.9054 25.1751 47.9371 26.0545C50.1928 27.9755 53.7861 28.9317 58.7256 28.9317L64.4347 28.9232ZM44.9904 12.9146C44.8506 12.3511 44.6584 11.7961 44.4312 11.2497C43.8721 9.91784 43.0937 8.79078 42.062 7.91995C39.815 5.99037 36.213 5.02557 31.2733 5.03415L27.3653 5.04265L23.5447 9.76415L31.0898 9.75557C34.1495 9.75557 36.2392 10.2934 37.3409 11.3948C38.4512 12.4877 39.0017 14.3575 39.0017 16.9957C39.0017 19.634 38.46 21.5037 37.3496 22.5966C36.2392 23.6895 34.167 24.2359 31.1072 24.2359L24.0518 24.2444L27.8549 28.9573H31.2995C36.2392 28.9488 39.8325 27.984 42.0882 26.063C43.1112 25.1836 43.8896 24.0651 44.4487 22.7332C44.6759 22.1953 44.8593 21.6404 44.9991 21.0683C45.3145 19.7279 45.463 18.3618 45.4543 16.9957C45.463 15.6211 45.3057 14.2551 44.9904 12.9146Z" fill="white"/>
</svg>
