<svg width="24" height="28" fill="none" xmlns="http://www.w3.org/2000/svg"><path fill-rule="evenodd" clip-rule="evenodd" d="M8.092 8.198L12.373.782a1.496 1.496 0 0 1 1.286-.735h8.82c.533 0 1.01.28 1.268.735a1.41 1.41 0 0 1 0 1.47l-3.97 6.9 3.97 6.899a1.41 1.41 0 0 1 0 1.47c-.258.45-.735.73-1.268.735h-5.108v-.173a4.766 4.766 0 0 0-.092-.512c-.055-.144-.11-.283-.165-.418-.056-.088-.11-.172-.166-.255 0-.017-.018-.035-.037-.053l.019.018-4.3-7.447c-.018-.046-.055-.09-.092-.136a2.44 2.44 0 0 0-.239-.314 2.415 2.415 0 0 0-1.745-.768H8.092z" fill="#0076FF"/><path fill-rule="evenodd" clip-rule="evenodd" d="M4.399 18.278l-3.987-6.9a1.496 1.496 0 0 1 0-1.47 1.496 1.496 0 0 1 1.286-.734h8.82c.514 0 1.01.28 1.267.735l4.318 7.487a.53.53 0 0 1 .092.138c.147.23.202.487.202.744 0 .258-.055.515-.202.745a.53.53 0 0 1-.092.137l-4.318 7.488a1.466 1.466 0 0 1-1.267.735h-8.82c-.533 0-1.01-.28-1.286-.735a1.496 1.496 0 0 1 0-1.47l3.987-6.9z" fill="#3CB2FF"/></svg>