<svg width="107" height="28" fill="none" xmlns="http://www.w3.org/2000/svg"><path fill-rule="evenodd" clip-rule="evenodd" d="M7.873 8.15L12.154.736A1.496 1.496 0 0113.441 0h8.82c.532 0 1.01.28 1.267.735a1.41 1.41 0 010 1.47l-3.969 6.9 3.969 6.9a1.41 1.41 0 010 1.47c-.257.45-.735.729-1.268.734h-5.108v-.173a4.741 4.741 0 00-.092-.512c-.055-.144-.11-.283-.165-.417-.055-.089-.11-.173-.165-.256 0-.016-.019-.035-.037-.053l.018.018-4.3-7.447c-.018-.046-.055-.09-.091-.136a2.44 2.44 0 00-.24-.314 2.415 2.415 0 00-1.58-.76c-.055-.004-.11-.008-.165-.008H7.873z" fill="#0076FF"/><path fill-rule="evenodd" clip-rule="evenodd" d="M4.18 18.232l-3.987-6.9a1.496 1.496 0 010-1.47 1.496 1.496 0 011.286-.735h8.82c.514 0 1.01.28 1.268.735l4.318 7.487c.036.045.073.09.091.138.147.23.203.487.203.745 0 .257-.055.514-.202.744a.53.53 0 01-.092.137l-4.318 7.488a1.466 1.466 0 01-1.268.735h-8.82c-.533 0-1.01-.28-1.286-.735a1.496 1.496 0 010-1.47l3.987-6.9z" fill="#3CB2FF"/><path d="M50.947 20.74c0 .341-.036.542-.129.623-.092.08-.295.12-.646.12h-2.14c-.333 0-.554-.04-.646-.12-.111-.08-.148-.282-.148-.624v-5.452h-4.282v5.452c0 .342-.037.543-.129.624-.092.08-.313.12-.646.12h-2.196c-.332 0-.535-.04-.627-.12-.074-.08-.13-.282-.13-.624V6.616c0-.343.056-.544.148-.624.092-.08.295-.12.646-.12h2.16c.331 0 .553.04.645.12.093.08.13.281.13.623v5.392h4.281V6.616c0-.343.037-.544.13-.624.091-.08.294-.12.645-.12h2.16c.35 0 .553.04.645.12.093.08.13.281.13.623V20.74z" fill="#fff"/><path fill-rule="evenodd" clip-rule="evenodd" d="M63.576 17.962c.056-.434.075-.945.075-1.512v-1.474c0-.586-.019-1.078-.075-1.512a7.053 7.053 0 00-.285-1.135 3.592 3.592 0 00-.436-.85c-.171-.246-.399-.454-.626-.643-.342-.245-.797-.453-1.385-.623-.607-.17-1.31-.246-2.125-.246h-.266c-.834 0-1.536.075-2.124.245-.589.17-1.063.379-1.385.624a2.872 2.872 0 00-.626.643 4.5 4.5 0 00-.456.85c-.113.322-.208.7-.265 1.153-.057.435-.095.946-.095 1.513v1.455c0 .567.038 1.078.095 1.512.057.435.152.813.265 1.153.133.322.285.605.456.85.17.228.38.454.626.625.322.264.796.472 1.385.642.588.17 1.29.246 2.124.246h.266c.816 0 1.518-.076 2.125-.246.588-.17 1.043-.378 1.385-.642a3.26 3.26 0 00.626-.624c.17-.246.322-.53.436-.85.114-.341.209-.719.285-1.154zm-6.337-.245a7.235 7.235 0 01-.076-1.116v-1.758c0-.51.038-.888.076-1.115.057-.245.171-.453.342-.623.208-.208.53-.303.948-.303h.095c.436 0 .74.095.949.303.17.17.284.377.341.623.057.227.076.605.076 1.115v1.758c0 .51-.019.87-.076 1.116-.057.245-.17.453-.341.604-.209.227-.513.322-.949.322h-.095c-.417 0-.74-.095-.948-.322a1.132 1.132 0 01-.342-.605z" fill="#fff"/><path d="M70.454 18.477c.227 0 .397.058.491.173.114.096.152.306.152.613v1.436c0 .307-.038.498-.152.613-.094.115-.264.153-.491.153h-1.739c-1.115 0-1.928-.21-2.382-.67a1.87 1.87 0 01-.529-.9c-.094-.364-.132-.824-.132-1.418V6.583c0-.21.038-.383.151-.498.114-.114.303-.172.605-.172h2.098c.303 0 .51.058.605.172.113.115.17.288.17.498v11.473c0 .153.019.268.076.326.075.076.17.095.34.095h.737z" fill="#fff"/><path d="M70.412 18.466c.228 0 .399.057.494.173.114.096.151.308.151.615v1.442c0 .308-.037.5-.151.615-.095.116-.266.154-.494.154h-1.746c-1.12 0-1.937-.211-2.392-.673a1.875 1.875 0 01-.532-.903c-.095-.366-.133-.827-.133-1.423V6.526c0-.212.038-.385.152-.5.114-.116.304-.173.608-.173h2.107c.304 0 .512.057.607.173.114.115.171.288.171.5v11.517c0 .154.02.269.076.327.076.077.17.096.342.096h.74z" fill="#fff"/><path fill-rule="evenodd" clip-rule="evenodd" d="M78.787 6.508v3.856h-.056a5.087 5.087 0 00-.903-.284 5.79 5.79 0 00-1.203-.113h-.263c-.64 0-1.222.094-1.749.283-.507.208-.94.454-1.26.757-.432.396-.714.907-.883 1.512-.15.586-.226 1.36-.226 2.287v1.814c0 .908.075 1.683.263 2.325.188.643.47 1.153.903 1.512.376.34.827.586 1.373.756.545.19 1.297.265 2.256.265h.395c1.09 0 1.936-.095 2.557-.302a3.76 3.76 0 001.523-.964c.282-.322.507-.719.658-1.229.131-.491.207-1.19.207-2.08V6.509c0-.208-.038-.36-.132-.473-.094-.113-.3-.17-.602-.17H79.54c-.3 0-.507.057-.601.17-.113.114-.15.265-.15.473zm-.075 7.107c.038.17.075.416.075.775v2.873c0 .51-.113.87-.32 1.077-.206.208-.545.303-.977.303h-.244c-.508 0-.865-.095-1.035-.322-.15-.15-.244-.397-.282-.68a11.339 11.339 0 01-.056-1.304v-1.002c0-.643.019-1.115.038-1.418.037-.321.131-.548.263-.718.225-.246.564-.378 1.053-.378h.225c.508 0 .865.114 1.053.36.094.113.17.264.207.434zM91.418 18.473c-.473.056-.889.075-1.267.075h-.245c-.794 0-1.342-.094-1.645-.302-.321-.208-.453-.567-.453-1.097v-.189h5.443c.227 0 .378-.037.492-.132.113-.094.15-.246.15-.491v-1.191c0-.983-.075-1.796-.245-2.439a3.942 3.942 0 00-.831-1.606c-.303-.36-.757-.624-1.324-.832-.586-.208-1.285-.302-2.117-.302h-.302c-1.607 0-2.797.321-3.573 1.02-.396.34-.718.832-.963 1.494-.265.642-.397 1.53-.397 2.665v1.266c0 .927.075 1.701.226 2.306.152.624.454 1.153.908 1.607.397.397.926.68 1.587.87.662.188 1.456.283 2.363.283h.435c.567 0 1.153-.038 1.796-.151a8.187 8.187 0 001.625-.397c.246-.076.397-.151.473-.246a.545.545 0 00.113-.36c0-.075 0-.17-.019-.264a3.072 3.072 0 00-.075-.359l-.17-1.115c-.038-.265-.19-.397-.416-.397-.038 0-.076.005-.114.01a.922.922 0 01-.113.009 2.38 2.38 0 00-.19.057c-.268.067-.597.12-.998.183l-.154.025zm-.85-4.159c0 .19-.095.303-.284.303h-2.477v-.586c0-.549.095-.964.34-1.21.19-.227.511-.321.946-.321h.208c.51 0 .85.132 1.04.415.15.227.226.586.226 1.04v.36z" fill="#fff"/><path d="M98.903 20.888c-.115.275-.23.431-.325.49-.096.078-.306.098-.611.098h-2.56c-.267 0-.42-.059-.477-.215-.076-.157-.038-.334.077-.549l2.349-4.604c.057-.137.095-.235.114-.274 0-.06.02-.118.02-.196 0-.079-.02-.157-.02-.216a1.303 1.303 0 00-.114-.235L95.14 10.74c-.114-.216-.133-.412-.076-.549.057-.157.21-.235.478-.235H98.1c.306 0 .516.04.63.098.096.059.21.235.325.49l1.222 3.252a.201.201 0 00.172.098h.019c.077 0 .134-.04.153-.098l1.241-3.252c.115-.255.211-.431.325-.49.096-.059.306-.098.611-.098h2.578c.248 0 .42.078.478.235.057.137.038.333-.096.549l-2.196 4.447c-.057.118-.095.216-.115.255-.019.059-.019.137-.019.215 0 .079 0 .137.019.196.02.059.058.137.115.255l2.33 4.604c.134.215.153.392.095.549-.057.156-.21.215-.477.215h-2.559c-.306 0-.516-.02-.611-.098-.115-.059-.21-.215-.344-.49l-1.375-3.31c-.019-.06-.076-.099-.153-.099h-.019a.201.201 0 00-.172.098l-1.374 3.311z" fill="#fff"/></svg>